<svg width="24" height="27" viewBox="0 0 24 27" fill="none" xmlns="http://www.w3.org/2000/svg">
<path fill-rule="evenodd" clip-rule="evenodd" d="M23.1426 24.8887H4.28588C2.86648 24.8887 1.7145 23.694 1.7145 22.222C1.7145 20.75 2.86648 19.5553 4.28588 19.5553H23.1426C23.6158 19.5553 23.9997 19.1571 23.9997 18.6664C23.9997 18.1758 23.6158 17.7776 23.1426 17.7776H4.28588C1.92021 17.7776 0.000251882 19.7687 0.000251882 22.222C0.000251882 24.6753 1.92021 26.6664 4.28588 26.6664H23.1426C23.6158 26.6664 23.9997 26.2682 23.9997 25.7776C23.9997 25.2869 23.6158 24.8887 23.1426 24.8887ZM23.1426 21.3331H4.28588C3.81274 21.3331 3.42875 21.7313 3.42875 22.222C3.42875 22.7127 3.81274 23.1109 4.28588 23.1109H23.1426C23.6158 23.1109 23.9997 22.7127 23.9997 22.222C23.9997 21.7313 23.6158 21.3331 23.1426 21.3331ZM3.42875 7.55356V12.4442C3.42875 12.8264 3.66446 13.1669 4.01502 13.2878L11.7291 15.9544C11.9049 16.0149 12.0951 16.0149 12.2709 15.9544L19.985 13.2878C20.3355 13.1669 20.5712 12.8264 20.5712 12.4442V7.55356L23.4306 6.49667C23.7649 6.37311 23.9912 6.04867 23.9997 5.68067C24.0083 5.31356 23.7975 4.97756 23.47 4.83711L12.3274 0.0673333C12.1174 -0.0224444 11.8826 -0.0224444 11.6726 0.0673333L0.529955 4.83711C0.202533 4.97756 -0.00831937 5.31356 0.000251882 5.68067C0.00882313 6.04867 0.235104 6.37311 0.569383 6.49667L3.42875 7.55356ZM18.857 8.18644L12.288 10.6149C12.102 10.6833 11.898 10.6833 11.712 10.6149L5.143 8.18644V11.8033L12 14.174L18.857 11.8033V8.18644Z" fill="#D7B4FB" fill-opacity="0.7"/>
</svg>
