<svg width="23" height="24" viewBox="0 0 23 24" fill="none" xmlns="http://www.w3.org/2000/svg">
<path fill-rule="evenodd" clip-rule="evenodd" d="M0 3C0 1.34315 1.34315 0 3 0H14.7429C16.3997 0 17.7429 1.34315 17.7429 3V20C17.7429 21.6569 16.3997 23 14.7429 23H3C1.34315 23 0 21.6569 0 20V3ZM8.20541 7.17543C8.20541 6.85173 8.44906 6.58933 8.74965 6.58933H15.2805C15.5811 6.58933 15.8247 6.85173 15.8247 7.17543C15.8247 7.49913 15.5811 7.76153 15.2805 7.76153H8.74965C8.44906 7.76153 8.20541 7.49913 8.20541 7.17543ZM8.74965 8.93354C8.44906 8.93354 8.20541 9.19594 8.20541 9.51964C8.20541 9.84335 8.44906 10.1057 8.74965 10.1057H15.2805C15.5811 10.1057 15.8247 9.84335 15.8247 9.51964C15.8247 9.19594 15.5811 8.93354 15.2805 8.93354H8.74965ZM8.20541 13.6223C8.20541 13.2986 8.44906 13.0362 8.74965 13.0362H15.2805C15.5811 13.0362 15.8247 13.2986 15.8247 13.6223C15.8247 13.946 15.5811 14.2084 15.2805 14.2084H8.74965C8.44906 14.2084 8.20541 13.946 8.20541 13.6223ZM8.74965 15.3807C8.44906 15.3807 8.20541 15.6431 8.20541 15.9668C8.20541 16.2905 8.44906 16.5529 8.74965 16.5529H15.2805C15.5811 16.5529 15.8247 16.2905 15.8247 15.9668C15.8247 15.6431 15.5811 15.3807 15.2805 15.3807H8.74965ZM2.84259 14.179V15.8054H4.46901V14.179H2.84259ZM2.30045 13.0947H5.01115C5.31057 13.0947 5.55329 13.3374 5.55329 13.6369V16.3476C5.55329 16.647 5.31057 16.8897 5.01115 16.8897H2.30045C2.00103 16.8897 1.75831 16.647 1.75831 16.3476V13.6369C1.75831 13.3374 2.00103 13.0947 2.30045 13.0947ZM5.93664 7.51481C6.14834 7.3031 6.14834 6.95982 5.93664 6.74811C5.72493 6.5364 5.38165 6.5364 5.16994 6.74811L3.38473 8.53333L2.6838 7.8324C2.47208 7.62069 2.12882 7.62069 1.91709 7.8324C1.70538 8.0441 1.70538 8.38739 1.91709 8.59909L3.38473 10.0667L5.93664 7.51481Z" fill="#D7B4FB" fill-opacity="0.7"/>
<path fill-rule="evenodd" clip-rule="evenodd" d="M20.9237 12.0544H19.8394V20.3672L20.3815 21.0901L20.9237 20.3672V12.0544ZM22.008 20.7287L20.3815 22.8972L18.7551 20.7287V10.9701H22.008V20.7287Z" fill="#D7B4FB" fill-opacity="0.7"/>
<path d="M22.088 20.7887L22.108 20.762V20.7287V10.9701V10.8701H22.008H18.7551H18.6551V10.9701V20.7287V20.762L18.6751 20.7887L20.3015 22.9572L20.3815 23.0639L20.4615 22.9572L22.088 20.7887ZM19.9394 20.3339V12.1544H20.8237V20.3339L20.3815 20.9234L19.9394 20.3339Z" stroke="#D7B4FB" stroke-opacity="0.7" stroke-width="0.2"/>
<path fill-rule="evenodd" clip-rule="evenodd" d="M20.9237 8.25967H19.8394V9.34396H20.9237V8.25967ZM19.8394 7.17538H20.9237C21.5225 7.17538 22.008 7.66082 22.008 8.25967V10.4282H18.7551V8.25967C18.7551 7.66082 19.2406 7.17538 19.8394 7.17538Z" fill="#D7B4FB" fill-opacity="0.7"/>
<path d="M22.008 10.5282H22.108V10.4282V8.25967C22.108 7.60559 21.5778 7.07538 20.9237 7.07538H19.8394C19.1853 7.07538 18.6551 7.60559 18.6551 8.25967V10.4282V10.5282H18.7551H22.008ZM19.9394 9.24396V8.35967H20.8237V9.24396H19.9394Z" stroke="#D7B4FB" stroke-opacity="0.7" stroke-width="0.2"/>
</svg>
