<svg width="24" height="25" viewBox="0 0 24 25" fill="none" xmlns="http://www.w3.org/2000/svg">
<path d="M4.69189 0C4.13961 0 3.69189 0.447715 3.69189 1V1.90955C3.69189 2.44583 4.13318 2.8675 4.61721 3.0984C5.42242 3.48252 5.98013 4.30457 5.98013 5.25454V6.1796C5.98013 6.61088 6.28081 7.05787 6.71209 7.05787H9.79704C10.2138 7.05787 10.5516 7.39568 10.5516 7.8124C10.5516 10.0287 8.74825 11.832 6.53194 11.832C6.22719 11.832 5.98013 12.0791 5.98013 12.3838V12.5622C5.98013 12.9654 6.30702 13.2923 6.71026 13.2923H19.4424C19.9947 13.2923 20.4424 12.8446 20.4424 12.2923V1C20.4424 0.447715 19.9947 0 19.4424 0H4.69189ZM10.5833 3.42053C10.5833 3.83725 10.2454 4.17506 9.82873 4.17506C9.41202 4.17506 9.0742 3.83725 9.0742 3.42053C9.0742 3.00382 9.41202 2.666 9.82873 2.666C10.2454 2.666 10.5833 3.00382 10.5833 3.42053ZM18.531 9.45677C18.531 9.87348 18.1932 10.2113 17.7764 10.2113H12.8469C12.4301 10.2113 12.0923 9.87348 12.0923 9.45677C12.0923 9.04005 12.4301 8.70224 12.8469 8.70224H17.7764C18.1932 8.70224 18.531 9.04005 18.531 9.45677ZM18.531 6.43865C18.531 6.85537 18.1932 7.19318 17.7764 7.19318H12.8469C12.4301 7.19318 12.0923 6.85537 12.0923 6.43865C12.0923 6.02194 12.4301 5.68412 12.8469 5.68412H17.7764C18.1932 5.68412 18.531 6.02194 18.531 6.43865ZM18.531 3.42053C18.531 3.83725 18.1932 4.17506 17.7764 4.17506H12.8469C12.4301 4.17506 12.0923 3.83725 12.0923 3.42053C12.0923 3.00382 12.4301 2.666 12.8469 2.666H17.7764C18.1932 2.666 18.531 3.00382 18.531 3.42053Z" fill="#D7B4FB" fill-opacity="0.7"/>
<path d="M3.59286 7.05777C4.07606 7.05797 4.47083 6.66501 4.47113 6.1795V5.25445C4.4739 4.76697 4.06544 4.37351 3.59286 4.37617C3.10895 4.37617 2.71509 4.77004 2.71509 5.25445V6.1795C2.71509 6.66391 3.10895 7.05777 3.59286 7.05777Z" fill="#D7B4FB" fill-opacity="0.7"/>
<path d="M8.92691 8.56699H3.59289C2.0285 8.56699 0.755859 9.83963 0.755859 11.404V13.3301H4.47116V10.323H6.53203C7.65377 10.323 8.60598 9.58409 8.92691 8.56699Z" fill="#D7B4FB" fill-opacity="0.7"/>
<path d="M3.28949 20.3949C4.37953 20.3949 5.26318 19.5112 5.26318 18.4212C5.26318 17.3311 4.37953 16.4475 3.28949 16.4475C2.19945 16.4475 1.3158 17.3311 1.3158 18.4212C1.3158 19.5112 2.19945 20.3949 3.28949 20.3949Z" fill="#D7B4FB" fill-opacity="0.7"/>
<path d="M6.97371 24.9999C7.11904 24.9999 7.23687 24.8821 7.23687 24.7368C7.23687 22.702 5.61684 21.0526 3.61843 21.0526C1.62002 21.0526 0 22.702 0 24.7368C0 24.8821 0.11782 24.9999 0.263159 24.9999H6.97371Z" fill="#D7B4FB" fill-opacity="0.7"/>
<path d="M11.8422 20.3949C12.9323 20.3949 13.8159 19.5112 13.8159 18.4212C13.8159 17.3311 12.9323 16.4475 11.8422 16.4475C10.7522 16.4475 9.86853 17.3311 9.86853 18.4212C9.86853 19.5112 10.7522 20.3949 11.8422 20.3949Z" fill="#D7B4FB" fill-opacity="0.7"/>
<path d="M14.8685 24.9999C15.0138 24.9999 15.1316 24.8821 15.1316 24.7368C15.1316 22.702 13.5116 21.0526 11.5132 21.0526C9.5148 21.0526 7.89478 22.702 7.89478 24.7368C7.89478 24.8821 8.0126 24.9999 8.15793 24.9999H14.8685Z" fill="#D7B4FB" fill-opacity="0.7"/>
<path d="M19.7369 20.3949C20.8269 20.3949 21.7106 19.5112 21.7106 18.4212C21.7106 17.3311 20.8269 16.4475 19.7369 16.4475C18.6468 16.4475 17.7632 17.3311 17.7632 18.4212C17.7632 19.5112 18.6468 20.3949 19.7369 20.3949Z" fill="#D7B4FB" fill-opacity="0.7"/>
<path d="M23.4212 24.9999C23.5665 24.9999 23.6843 24.8821 23.6843 24.7368C23.6843 22.702 21.917 21.0526 19.7369 21.0526C17.5568 21.0526 15.7896 22.702 15.7896 24.7368C15.7896 24.8821 15.9074 24.9999 16.0527 24.9999H23.4212Z" fill="#D7B4FB" fill-opacity="0.7"/>
</svg>
