<svg width="23" height="25" viewBox="0 0 23 25" fill="none" xmlns="http://www.w3.org/2000/svg">
<path d="M17.4571 1.81378H2.49387C1.83246 1.81378 1.19813 2.07551 0.730438 2.5414C0.262747 3.00729 5.49816e-09 3.63916 5.49816e-09 4.29803V20.8596C-2.32959e-05 21.2089 0.0740181 21.5542 0.217275 21.873C0.360531 22.1917 0.569771 22.4768 0.831291 22.7094V23.6544C0.831291 24.0113 0.973612 24.3536 1.22695 24.6059C1.48028 24.8583 1.82387 25.0001 2.18214 25.0001H3.6369C3.99516 25.0001 4.33876 24.8583 4.59209 24.6059C4.84542 24.3536 4.98775 24.0113 4.98775 23.6544V23.3439H14.9632V23.6544C14.9632 24.0113 15.1056 24.3536 15.3589 24.6059C15.6122 24.8583 15.9558 25.0001 16.3141 25.0001H17.7688C18.1271 25.0001 18.4707 24.8583 18.724 24.6059C18.9774 24.3536 19.1197 24.0113 19.1197 23.6544V22.7094C19.3812 22.4768 19.5905 22.1917 19.7337 21.873C19.877 21.5542 19.951 21.2089 19.951 20.8596V4.29803C19.951 3.63916 19.6882 3.00729 19.2205 2.5414C18.7529 2.07551 18.1185 1.81378 17.4571 1.81378ZM4.33674 20.8503C3.99457 20.8874 3.64927 20.8178 3.3485 20.6511C3.04773 20.4844 2.80631 20.2288 2.65756 19.9196C2.50881 19.6105 2.46006 19.2629 2.51804 18.9249C2.57601 18.587 2.73786 18.2753 2.98124 18.0328C3.22462 17.7904 3.53754 17.6291 3.87681 17.5714C4.21609 17.5136 4.565 17.5622 4.87539 17.7104C5.18578 17.8586 5.44235 18.099 5.6097 18.3987C5.77705 18.6983 5.84692 19.0422 5.80968 19.3831C5.7687 19.7582 5.60034 20.1082 5.33248 20.375C5.06463 20.6418 4.71333 20.8095 4.33674 20.8503ZM8.93638 15.0631H2.49387C2.2734 15.0631 2.06196 14.9758 1.90606 14.8205C1.75016 14.6652 1.66258 14.4546 1.66258 14.235V7.61035C1.66258 7.39073 1.75016 7.1801 1.90606 7.02481C2.06196 6.86951 2.2734 6.78227 2.49387 6.78227H8.93638C8.99149 6.78227 9.04436 6.80408 9.08333 6.8429C9.1223 6.88173 9.1442 6.93438 9.1442 6.98929V14.8561C9.1442 14.911 9.1223 14.9636 9.08333 15.0024C9.04436 15.0413 8.99149 15.0631 8.93638 15.0631ZM9.97549 5.12611H2.51777C2.07095 5.12611 1.68648 4.78452 1.66362 4.33995C1.65791 4.22781 1.67516 4.1157 1.71431 4.01041C1.75346 3.90512 1.81369 3.80886 1.89135 3.72749C1.96901 3.64611 2.06246 3.58132 2.16604 3.53704C2.26962 3.49277 2.38116 3.46994 2.49387 3.46994H17.4332C17.88 3.46994 18.2645 3.81153 18.2874 4.2561C18.2931 4.36824 18.2758 4.48036 18.2367 4.58564C18.1975 4.69093 18.1373 4.78719 18.0596 4.86856C17.982 4.94994 17.8885 5.01473 17.7849 5.05901C17.6814 5.10328 17.5698 5.12611 17.4571 5.12611H9.97549ZM11.0146 6.78227H17.4571C17.6776 6.78227 17.889 6.86951 18.0449 7.02481C18.2008 7.1801 18.2884 7.39073 18.2884 7.61035V14.235C18.2884 14.4546 18.2008 14.6652 18.0449 14.8205C17.889 14.9758 17.6776 15.0631 17.4571 15.0631H11.0146C10.9595 15.0631 10.9066 15.0413 10.8677 15.0024C10.8287 14.9636 10.8068 14.911 10.8068 14.8561V6.98929C10.8068 6.93438 10.8287 6.88173 10.8677 6.8429C10.9066 6.80408 10.9595 6.78227 11.0146 6.78227ZM14.1413 19.3831C14.1041 19.0422 14.1739 18.6983 14.3413 18.3987C14.5086 18.099 14.7652 17.8586 15.0756 17.7104C15.386 17.5622 15.7349 17.5136 16.0742 17.5714C16.4134 17.6291 16.7264 17.7904 16.9697 18.0328C17.2131 18.2753 17.375 18.587 17.4329 18.9249C17.4909 19.2629 17.4422 19.6105 17.2934 19.9196C17.1447 20.2288 16.9032 20.4844 16.6025 20.6511C16.3017 20.8178 15.9564 20.8874 15.6142 20.8503C15.2377 20.8095 14.8864 20.6418 14.6185 20.375C14.3506 20.1082 14.1823 19.7582 14.1413 19.3831Z" fill="#D7B4FB" fill-opacity="0.7"/>
<path d="M18.9268 0C16.8248 0 15.1144 1.71046 15.1144 3.81245C15.1144 5.91444 16.8248 7.6249 18.9268 7.6249C21.0288 7.6249 22.7393 5.91444 22.7393 3.81245C22.7393 1.71046 21.0288 0 18.9268 0Z" fill="#AB72E4"/>
<path d="M20.3899 2.54501L18.4219 4.42033L17.4842 3.45176C17.3606 3.32812 17.1648 3.32812 17.0515 3.44147C16.9278 3.56511 16.9278 3.76089 17.0412 3.87423L18.1952 5.05919C18.257 5.12102 18.3394 5.15193 18.4116 5.15193C18.4837 5.15193 18.5661 5.12102 18.6279 5.06949L20.8227 2.98807C20.9463 2.87472 20.9567 2.67896 20.833 2.5553C20.7094 2.43166 20.5136 2.43166 20.3899 2.54501Z" fill="#D7B4FB" fill-opacity="0.7"/>
</svg>
