<svg width="22" height="22" viewBox="0 0 22 22" fill="none" xmlns="http://www.w3.org/2000/svg">
<path fill-rule="evenodd" clip-rule="evenodd" d="M11.159 5.85998C10.8839 4.64407 10.9589 3.3751 11.3751 2.2H1.1C0.808262 2.2 0.528472 2.31589 0.322182 2.52218C0.115892 2.72847 0 3.00826 0 3.3V20.9C0 21.1917 0.115892 21.4715 0.322182 21.6778C0.528472 21.8841 0.808262 22 1.1 22H18.7C18.9917 22 19.2715 21.8841 19.4778 21.6778C19.6841 21.4715 19.8 21.1917 19.8 20.9V10.6249C18.6249 11.0411 17.3559 11.1161 16.14 10.841C14.9241 10.5659 13.811 9.95207 12.9294 9.07056C12.0479 8.18905 11.4341 7.0759 11.159 5.85998ZM14.4887 7.51127C15.3139 8.33643 16.433 8.8 17.6 8.8C18.767 8.8 19.8861 8.33643 20.7113 7.51127C21.5364 6.68611 22 5.56695 22 4.4C22 3.23305 21.5364 2.11389 20.7113 1.28873C19.8861 0.46357 18.767 0 17.6 0C16.433 0 15.3139 0.46357 14.4887 1.28873C13.6636 2.11389 13.2 3.23305 13.2 4.4C13.2 5.56695 13.6636 6.68611 14.4887 7.51127ZM17.9785 1.18266H17.2688V4.90952L17.2459 4.95494L17.2688 4.96646V4.96761H17.2711L20.2036 6.44501L20.5229 5.81122L17.9785 4.52934V1.18266Z" fill="#D7B4FB" fill-opacity="0.7"/>
</svg>
