<svg width="39" height="29" viewBox="0 0 39 29" fill="none" xmlns="http://www.w3.org/2000/svg">
<path d="M35.4443 0H3.22238C1.45048 0 0 1.45048 0 3.22238V25.7776C0 27.5495 1.45048 29 3.22238 29H35.4443C37.2162 29 38.6667 27.5495 38.6667 25.7776V3.22238C38.6667 1.45048 37.2162 0 35.4443 0ZM11.2776 6.44428C13.0592 6.44428 14.5 7.88703 14.5 9.66667C14.5 11.4463 13.0592 12.889 11.2776 12.889C9.49653 12.889 8.05572 11.4463 8.05572 9.66667C8.05572 7.88703 9.49653 6.44428 11.2776 6.44428ZM17.7224 22.5557H4.83333V19.3348C4.83333 17.5551 6.27753 16.1129 8.05572 16.1129L14.5 16.111C16.2811 16.111 17.7224 17.5537 17.7224 19.3333V22.5557ZM33.8333 22.5557H20.9443V19.3333H33.8333V22.5557ZM33.8333 16.111H20.9443V12.889H33.8333V16.111ZM33.8333 9.66667H17.7224V6.44428H33.8333V9.66667Z" fill="white"/>
</svg>
