<svg width="36" height="38" viewBox="0 0 36 38" fill="none" xmlns="http://www.w3.org/2000/svg">
<path d="M5.61169 0V4.36121C7.54304 4.44072 9.0898 6.03642 9.0898 7.98688V9.39295C9.0898 9.86394 8.99958 10.3143 8.83519 10.7279H16.0384V11.8748C16.0384 15.2436 13.2973 17.9846 9.92855 17.9846H9.0898V20.2042H31.0725V0H5.61169ZM16.0865 6.34607H13.7928V4.05231H16.0865V6.34607ZM28.167 15.5211H18.3803V13.2274H28.167V15.5211ZM28.167 10.9336H18.3803V8.63984H28.167V10.9336ZM28.167 6.34607H18.3803V4.05231H28.167V6.34607Z" fill="white"/>
<path d="M5.46107 10.728C6.19553 10.7283 6.79558 10.131 6.79604 9.39298V7.98691C6.80024 7.24594 6.1794 6.64788 5.46107 6.65194C4.72553 6.65194 4.12686 7.25061 4.12686 7.98691V9.39298C4.12686 10.1293 4.72553 10.728 5.46107 10.728Z" fill="white"/>
<path d="M13.5688 13.0217H5.46108C3.08321 13.0217 1.1488 14.9561 1.1488 17.3339V20.2615H6.79605V15.6908H9.92856C11.6336 15.6908 13.081 14.5677 13.5688 13.0217Z" fill="white"/>
<path d="M5 31C6.65685 31 8 29.6569 8 28C8 26.3431 6.65685 25 5 25C3.34315 25 2 26.3431 2 28C2 29.6569 3.34315 31 5 31Z" fill="white"/>
<path d="M11 38V37.6C11 34.5072 8.53757 32 5.5 32C2.46243 32 0 34.5072 0 37.6V38H11Z" fill="white"/>
<path d="M18 31C19.6569 31 21 29.6569 21 28C21 26.3431 19.6569 25 18 25C16.3431 25 15 26.3431 15 28C15 29.6569 16.3431 31 18 31Z" fill="white"/>
<path d="M23 38V37.6C23 34.5072 20.5376 32 17.5 32C14.4624 32 12 34.5072 12 37.6V38H23Z" fill="white"/>
<path d="M30 31C31.6569 31 33 29.6569 33 28C33 26.3431 31.6569 25 30 25C28.3431 25 27 26.3431 27 28C27 29.6569 28.3431 31 30 31Z" fill="white"/>
<path d="M36 38V37.6C36 34.5072 33.3137 32 30 32C26.6863 32 24 34.5072 24 37.6V38H36Z" fill="white"/>
</svg>
