<svg width="42" height="32" viewBox="0 0 42 32" fill="none" xmlns="http://www.w3.org/2000/svg">
<path d="M6.40721 0.000137329C6.40608 0.000137329 6.40481 0.000137329 6.40368 0.000137329C6.00753 0.000137329 5.63494 0.154564 5.35358 0.435211C5.06913 0.718961 4.91245 1.09678 4.91245 1.49899V23.9741C4.91245 24.7982 5.58558 25.4704 6.41313 25.4725C9.9019 25.4808 15.747 26.2079 19.7793 30.4277V6.90688C19.7793 6.62751 19.7079 6.36505 19.5732 6.14787C16.2637 0.818104 9.90388 0.008317 6.40721 0.000137329Z" fill="white"/>
<path d="M36.9731 23.9741V1.49885C36.9731 1.09664 36.8164 0.718824 36.5319 0.435074C36.2506 0.154426 35.8777 0 35.482 0C35.4807 0 35.4794 0 35.4783 0C31.9818 0.0083207 25.6219 0.818108 22.3123 6.14787C22.1776 6.36505 22.1064 6.62751 22.1064 6.90689V30.4275C26.1387 26.2078 31.9838 25.4807 35.4725 25.4723C36.2999 25.4702 36.9731 24.7981 36.9731 23.9741Z" fill="white"/>
<path d="M40.3869 5.18323H39.3001V23.974C39.3001 26.0783 37.5856 27.7942 35.4781 27.7995C32.5189 27.8065 27.6396 28.3851 24.1839 31.6557C30.1604 30.1924 36.4608 31.1437 40.0514 31.9619C40.4997 32.064 40.963 31.9585 41.3222 31.6722C41.6801 31.3867 41.8854 30.9598 41.8854 30.5016V6.6818C41.8856 5.85551 41.2132 5.18323 40.3869 5.18323Z" fill="white"/>
<path d="M2.58534 23.974V5.18323H1.49857C0.672426 5.18323 0 5.85551 0 6.6818V30.5011C0 30.9595 0.205338 31.3862 0.563269 31.6718C0.922187 31.958 1.38504 32.0639 1.83408 31.9615C5.42467 31.1431 11.7251 30.192 17.7014 31.6553C14.2459 28.3849 9.36657 27.8064 6.40736 27.7993C4.29997 27.7942 2.58534 26.0783 2.58534 23.974Z" fill="white"/>
</svg>
