<svg width="21" height="26" viewBox="0 0 21 26" fill="none" xmlns="http://www.w3.org/2000/svg">
<path d="M21 23.3103C21 18.7117 18.1645 14.7892 14.1952 13.2527C16.1756 11.9844 17.5 9.7366 17.5 7.17241C17.5 3.21761 14.3597 0 10.5 0C6.64026 0 3.5 3.21761 3.5 7.17241C3.5 9.7366 4.82441 11.9844 6.80481 13.2527C2.83553 14.7892 0 18.7117 0 23.3103V26H1.75V23.3103C1.75 18.3671 5.67511 14.3448 10.5 14.3448C15.3249 14.3448 19.25 18.3671 19.25 23.3103V26H21V23.3103ZM5.25 7.17241C5.25 4.20609 7.60498 1.7931 10.5 1.7931C13.395 1.7931 15.75 4.20609 15.75 7.17241C15.75 10.1387 13.395 12.5517 10.5 12.5517C7.60498 12.5517 5.25 10.1387 5.25 7.17241Z" fill="white"/>
</svg>
