<svg width="36" height="36" viewBox="0 0 36 36" fill="none" xmlns="http://www.w3.org/2000/svg">
<path fill-rule="evenodd" clip-rule="evenodd" d="M18.2602 9.58906C17.8101 7.59938 17.9327 5.5229 18.6138 3.6H1.8C1.32261 3.6 0.864773 3.78964 0.527208 4.12721C0.189642 4.46477 0 4.92261 0 5.4V34.2C0 34.6774 0.189642 35.1352 0.527208 35.4728C0.864773 35.8104 1.32261 36 1.8 36H30.6C31.0774 36 31.5352 35.8104 31.8728 35.4728C32.2104 35.1352 32.4 34.6774 32.4 34.2V17.3862C30.4771 18.0673 28.4006 18.1899 26.4109 17.7398C24.4213 17.2896 22.5997 16.2852 21.1573 14.8427C19.7148 13.4003 18.7104 11.5787 18.2602 9.58906ZM23.7088 12.2912C25.0591 13.6414 26.8904 14.4 28.8 14.4C30.7096 14.4 32.5409 13.6414 33.8912 12.2912C35.2414 10.9409 36 9.10956 36 7.2C36 5.29044 35.2414 3.45909 33.8912 2.10883C32.5409 0.758569 30.7096 0 28.8 0C26.8904 0 25.0591 0.758569 23.7088 2.10883C22.3586 3.45909 21.6 5.29044 21.6 7.2C21.6 9.10956 22.3586 10.9409 23.7088 12.2912ZM29.4193 1.93548H28.2581V8.03397L28.2206 8.10829L28.2581 8.12716V8.12903H28.2618L33.0605 10.5466L33.583 9.50948L29.4193 7.41187V1.93548Z" fill="white"/>
</svg>
