<svg width="46" height="43" viewBox="0 0 46 43" fill="none" xmlns="http://www.w3.org/2000/svg">
<path d="M9.22857 5.81104C7.39017 5.81104 5.89453 7.30668 5.89453 9.14498C5.89453 10.9819 7.39017 12.4775 9.22857 12.4775C11.0655 12.4775 12.561 10.9819 12.561 9.14498C12.561 7.30668 11.0655 5.81104 9.22857 5.81104Z" fill="white"/>
<path d="M9.22785 0C4.13153 0 0 4.13143 0 9.22785C0 10.0823 0.116669 10.9095 0.334041 11.6949C0.421029 12.0093 0.523788 12.3172 0.642416 12.6173L0.922188 13.2532L7.46879 25.3504C8.22508 26.748 10.2305 26.7479 10.9867 25.3503L17.5443 13.2313L17.7965 12.6583C17.9219 12.3453 18.0307 12.0237 18.1217 11.6949C18.3391 10.9095 18.4557 10.0823 18.4557 9.22785C18.4557 4.13143 14.3243 0 9.22785 0ZM9.22854 13.9775C6.56248 13.9775 4.39455 11.8096 4.39455 9.14498C4.39455 6.47892 6.56248 4.31099 9.22854 4.31099C11.8931 4.31099 14.0611 6.47892 14.0611 9.14498C14.0611 11.8096 11.893 13.9775 9.22854 13.9775Z" fill="white"/>
<path d="M36.2272 19.8105C34.3903 19.8105 32.8948 21.3062 32.8948 23.1445C32.8948 24.9814 34.3904 26.4771 36.2272 26.4771C38.0656 26.4771 39.5612 24.9814 39.5612 23.1445C39.5613 21.3061 38.0656 19.8105 36.2272 19.8105Z" fill="white"/>
<path d="M36.2279 14C31.1314 14 27 18.1314 27 23.2279C27 24.0824 27.1168 24.9095 27.334 25.6949C27.4211 26.0093 27.5239 26.3172 27.6425 26.6173L27.9222 27.2532L34.4688 39.3503C35.2251 40.7479 37.2305 40.7478 37.9867 39.3503L44.5443 27.2312L44.7965 26.6582C44.9219 26.3452 45.0307 26.0236 45.1217 25.6948C45.3391 24.9094 45.4557 24.0823 45.4557 23.2278C45.4557 18.1313 41.3243 14 36.2279 14ZM36.2272 27.9773C33.5626 27.9773 31.3946 25.8094 31.3946 23.1448C31.3946 20.4787 33.5626 18.3108 36.2272 18.3108C38.8932 18.3108 41.0612 20.4787 41.0612 23.1448C41.0612 25.8094 38.8932 27.9773 36.2272 27.9773Z" fill="white"/>
<path d="M29.3941 35.7139L29.3443 34.2138C29.8248 34.1991 30.3243 34.164 30.8444 34.1068L31.0055 35.5981C30.4472 35.6581 29.9096 35.6962 29.3941 35.7139ZM27.7651 35.6947C27.1894 35.6611 26.6445 35.5981 26.1318 35.5073L26.3897 34.0307C26.8496 34.1098 27.3389 34.167 27.8531 34.1977L27.7651 35.6947ZM24.5087 35.103C23.9463 34.9125 23.4233 34.6811 22.9545 34.4116L23.6986 33.1108C24.0839 33.3305 24.5175 33.5224 24.9891 33.6821L24.5087 35.103ZM21.5527 33.3627C21.1221 32.9379 20.7632 32.4618 20.4849 31.9477L21.8032 31.2329C22.0112 31.6167 22.2822 31.9742 22.6075 32.2964L21.5527 33.3627ZM19.8828 30.2807C19.7905 29.8369 19.7436 29.3667 19.7436 28.8847L19.751 28.5464L21.251 28.6108L21.2437 28.8847C21.2437 29.2656 21.2803 29.6318 21.3506 29.976L19.8828 30.2807ZM21.4531 27.2089L19.9941 26.8632C20.1171 26.3432 20.2886 25.8085 20.5039 25.2739L21.8955 25.8334C21.708 26.2993 21.5601 26.7621 21.4531 27.2089ZM22.5254 24.499L21.207 23.7871C21.4004 23.4267 21.6143 23.0635 21.8487 22.6972L22.02 22.4189L23.309 23.1865L23.1157 23.5015C22.9004 23.8398 22.7041 24.1708 22.5254 24.499ZM24.043 21.6572L22.6338 21.1415C22.7979 20.6933 22.9005 20.248 22.9385 19.8173L24.4326 19.9492C24.3828 20.5102 24.2525 21.0844 24.043 21.6572ZM22.8521 18.5034C22.7539 18.083 22.5869 17.667 22.357 17.2656L23.6548 16.5156C23.961 17.0444 24.1822 17.5982 24.314 18.1636L22.8521 18.5034ZM21.522 16.1567C21.2173 15.83 20.8584 15.5063 20.4556 15.1942L21.3726 14.0078C21.8399 14.3682 22.2603 14.7476 22.6206 15.1342L21.522 16.1567ZM19.2383 14.374C18.7841 14.1031 18.3345 13.8701 17.9214 13.6753L18.563 12.3188C19.0172 12.5342 19.5078 12.7876 20.0059 13.085L19.2383 14.374Z" fill="white"/>
</svg>
