<svg width="37" height="39" viewBox="0 0 37 39" fill="none" xmlns="http://www.w3.org/2000/svg">
<path fill-rule="evenodd" clip-rule="evenodd" d="M17.0625 21.9375H19.5V19.5H17.0625V21.9375ZM17.0625 31.6875H19.5V29.25H17.0625V31.6875ZM26.8125 21.9375H29.25V19.5H26.8125V21.9375ZM26.8125 31.6875H29.25V29.25H26.8125V31.6875ZM7.3125 31.6875H9.75V29.25H7.3125V31.6875ZM34.125 9.75H2.4375V7.3125C2.4375 5.967 3.5295 4.875 4.875 4.875H9.75V6.09375C9.75 6.76772 10.2948 7.3125 10.9688 7.3125C11.6427 7.3125 12.1875 6.76772 12.1875 6.09375V4.875H24.375V6.09375C24.375 6.76772 24.9198 7.3125 25.5938 7.3125C26.2677 7.3125 26.8125 6.76772 26.8125 6.09375V4.875H31.6875C33.033 4.875 34.125 5.967 34.125 7.3125V9.75ZM31.6875 21.9375C31.6875 23.283 30.5955 24.375 29.25 24.375H26.8125C25.467 24.375 24.375 23.283 24.375 21.9375V19.5C24.375 18.1545 25.467 17.0625 26.8125 17.0625H29.25C30.5955 17.0625 31.6875 18.1545 31.6875 19.5V21.9375ZM31.6875 31.6875C31.6875 33.033 30.5955 34.125 29.25 34.125H26.8125C25.467 34.125 24.375 33.033 24.375 31.6875V29.25C24.375 27.9045 25.467 26.8125 26.8125 26.8125H29.25C30.5955 26.8125 31.6875 27.9045 31.6875 29.25V31.6875ZM21.9375 21.9375C21.9375 23.283 20.8455 24.375 19.5 24.375H17.0625C15.717 24.375 14.625 23.283 14.625 21.9375V19.5C14.625 18.1545 15.717 17.0625 17.0625 17.0625H19.5C20.8455 17.0625 21.9375 18.1545 21.9375 19.5V21.9375ZM21.9375 31.6875C21.9375 33.033 20.8455 34.125 19.5 34.125H17.0625C15.717 34.125 14.625 33.033 14.625 31.6875V29.25C14.625 27.9045 15.717 26.8125 17.0625 26.8125H19.5C20.8455 26.8125 21.9375 27.9045 21.9375 29.25V31.6875ZM12.1875 21.9375C12.1875 23.283 11.0955 24.375 9.75 24.375H7.3125C5.967 24.375 4.875 23.283 4.875 21.9375V19.5C4.875 18.1545 5.967 17.0625 7.3125 17.0625H9.75C11.0955 17.0625 12.1875 18.1545 12.1875 19.5V21.9375ZM12.1875 31.6875C12.1875 33.033 11.0955 34.125 9.75 34.125H7.3125C5.967 34.125 4.875 33.033 4.875 31.6875V29.25C4.875 27.9045 5.967 26.8125 7.3125 26.8125H9.75C11.0955 26.8125 12.1875 27.9045 12.1875 29.25V31.6875ZM31.6875 2.4375H26.8125V1.21875C26.8125 0.546 26.2677 0 25.5938 0C24.9198 0 24.375 0.546 24.375 1.21875V2.4375H12.1875V1.21875C12.1875 0.546 11.6427 0 10.9688 0C10.2948 0 9.75 0.546 9.75 1.21875V2.4375H4.875C2.18278 2.4375 0 4.62028 0 7.3125V34.125C0 36.8172 2.18278 39 4.875 39H31.6875C34.3797 39 36.5625 36.8172 36.5625 34.125V7.3125C36.5625 4.62028 34.3797 2.4375 31.6875 2.4375ZM7.3125 21.9375H9.75V19.5H7.3125V21.9375Z" fill="white"/>
</svg>
