<svg width="34" height="36" viewBox="0 0 34 36" fill="none" xmlns="http://www.w3.org/2000/svg">
<path fill-rule="evenodd" clip-rule="evenodd" d="M0 3C0 1.34315 1.34315 0 3 0H24C25.6569 0 27 1.34315 27 3V32C27 33.6569 25.6569 35 24 35H3C1.34315 35 0 33.6569 0 32V3ZM12.4865 10.9189C12.4865 10.4263 12.8573 10.027 13.3147 10.027H23.2529C23.7103 10.027 24.0811 10.4263 24.0811 10.9189C24.0811 11.4115 23.7103 11.8108 23.2529 11.8108H13.3147C12.8573 11.8108 12.4865 11.4115 12.4865 10.9189ZM13.3147 13.5946C12.8573 13.5946 12.4865 13.9939 12.4865 14.4865C12.4865 14.9791 12.8573 15.3784 13.3147 15.3784H23.2529C23.7103 15.3784 24.0811 14.9791 24.0811 14.4865C24.0811 13.9939 23.7103 13.5946 23.2529 13.5946H13.3147ZM12.4865 20.7297C12.4865 20.2371 12.8573 19.8378 13.3147 19.8378H23.2529C23.7103 19.8378 24.0811 20.2371 24.0811 20.7297C24.0811 21.2223 23.7103 21.6216 23.2529 21.6216H13.3147C12.8573 21.6216 12.4865 21.2223 12.4865 20.7297ZM13.3147 23.4054C12.8573 23.4054 12.4865 23.8047 12.4865 24.2973C12.4865 24.7899 12.8573 25.1892 13.3147 25.1892H23.2529C23.7103 25.1892 24.0811 24.7899 24.0811 24.2973C24.0811 23.8047 23.7103 23.4054 23.2529 23.4054H13.3147ZM4.32567 21.5767V24.0517H6.80066V21.5767H4.32567ZM3.50067 19.9267H7.62565C8.0813 19.9267 8.45065 20.296 8.45065 20.7517V24.8767C8.45065 25.3323 8.0813 25.7017 7.62565 25.7017H3.50067C3.04504 25.7017 2.67568 25.3323 2.67568 24.8767V20.7517C2.67568 20.296 3.04504 19.9267 3.50067 19.9267ZM9.034 11.4354C9.35616 11.1132 9.35616 10.5908 9.034 10.2686C8.71184 9.94649 8.18945 9.94649 7.86729 10.2686L5.15066 12.9853L4.08403 11.9186C3.76185 11.5965 3.23949 11.5965 2.91731 11.9186C2.59513 12.2408 2.59513 12.7632 2.91731 13.0854L5.15066 15.3187L9.034 11.4354Z" fill="white"/>
<path d="M33.5705 31.6037L33.5905 31.577V31.5437V16.6937V16.5937H33.4905H28.5405H28.4405V16.6937V31.5437V31.577L28.4605 31.6037L30.9355 34.9037L31.0155 35.0103L31.0955 34.9037L33.5705 31.6037ZM30.2905 30.9603V18.4437H31.7405V30.9603L31.0155 31.927L30.2905 30.9603Z" fill="white" stroke="white" stroke-width="0.2"/>
<path d="M33.4905 15.9689H33.5905V15.8689V12.5689C33.5905 11.6024 32.807 10.8189 31.8405 10.8189H30.1905C29.224 10.8189 28.4405 11.6024 28.4405 12.5689V15.8689V15.9689H28.5405H33.4905ZM30.2905 14.1189V12.6689H31.7405V14.1189H30.2905Z" fill="white" stroke="white" stroke-width="0.2"/>
</svg>
