<svg width="58" height="59" viewBox="0 0 58 59" fill="none" xmlns="http://www.w3.org/2000/svg">
<ellipse cx="29" cy="29.5" rx="29" ry="29.5" fill="#7FDD8E"/>
<path d="M22.9032 13.129V5.90323H42.7742V13.129H34.6451L29.2258 17.6452V13.129H22.9032Z" fill="#E6E9ED"/>
<path d="M35.3226 49.0645V58.0968H31.7097L29.9032 54.4839H15.4516L13.6452 58.0968H10.0323V45.4516H35.3226V49.0645Z" fill="#E6E9ED"/>
<path d="M35.3226 41.8387V45.4516H10.0323V41.8387H35.3226Z" fill="#E6E9ED"/>
<path d="M38.0322 38.2258V41.8387H8.2258V38.2258H38.0322Z" fill="#AAB2BD"/>
<path d="M29.9032 54.4839L31.7097 58.0968H13.6452L15.4516 54.4839H29.9032Z" fill="#838F9B"/>
<path d="M45.2581 49.0645L46.1613 58.0968H42.5484L41.6452 49.0645H45.2581Z" fill="#838F9B"/>
<path d="M50.6774 32.8065V43.6452C50.6774 46.6349 48.2478 49.0645 45.2581 49.0645H35.3226V45.4516H43.4516C45.4477 45.4516 47.0645 43.8348 47.0645 41.8387V32.8065H50.6774Z" fill="#CF9E76"/>
<path d="M44.6979 31.5601C45.0592 31.1989 45.2581 30.7111 45.2581 30.2053C45.2581 29.6813 45.0411 29.1935 44.6979 28.8504C44.4179 28.5792 44.066 28.3807 43.4516 28.2991V28.2903H44.6979C45.0684 28.2903 45.4296 28.3715 45.7547 28.543C46.5586 28.9408 47.0645 29.7625 47.0645 30.6569V41.8387C47.0645 43.8348 45.4477 45.4516 43.4516 45.4516H35.3226V41.8387H38.0322V38.2258H37.6618C37.8969 38.2258 38.1315 38.1266 38.2942 37.9638L44.6979 31.5601Z" fill="#FCD770"/>
<path d="M28.0968 38.2258H11.8387V33.9443C11.8387 32.7342 12.6427 31.6774 13.8079 31.3431L18.1613 30.0968C18.1613 30.0968 19.0645 31.9033 20.871 31.9033C22.6774 31.9033 23.5806 30.0968 23.5806 30.0968L27.934 31.3431C29.0992 31.6774 29.9032 32.7342 29.9032 33.9443V34.6129H28.0968C27.6002 34.6129 27.1486 34.8118 26.8231 35.1457C26.4892 35.4712 26.2903 35.9228 26.2903 36.4194C26.2903 37.413 27.1031 38.2258 28.0968 38.2258Z" fill="#69D6F4"/>
<path d="M43.4516 28.2991C44.066 28.3807 44.4179 28.5792 44.698 28.8504C45.0411 29.1935 45.2581 29.6813 45.2581 30.2053C45.2581 30.7111 45.0592 31.1989 44.698 31.5601L38.2942 37.9638C38.1315 38.1266 37.8969 38.2258 37.6618 38.2258H28.0968C27.1031 38.2258 26.2903 37.413 26.2903 36.4193C26.2903 35.9227 26.4892 35.4711 26.8231 35.1457C27.1486 34.8118 27.6002 34.6129 28.0968 34.6129H36.2258L41.9883 28.8504C42.3495 28.4892 42.8373 28.2903 43.3431 28.2903C43.3793 28.2903 43.4154 28.2903 43.4516 28.2991Z" fill="#F0D0B4"/>
<path d="M47.0645 21.9678V23.7742C47.0645 26.2669 45.0411 28.2903 42.5484 28.2903C40.0557 28.2903 38.0323 26.2669 38.0323 23.7742V21.9678C38.0323 19.4751 40.0557 17.4516 42.5484 17.4516C43.7947 17.4516 44.9238 17.9575 45.7458 18.7703C46.5587 19.5924 47.0645 20.7214 47.0645 21.9678Z" fill="#F0D0B4"/>
<path d="M18.1613 27.3871C18.911 27.956 19.8504 28.2903 20.871 28.2903C21.8915 28.2903 22.8309 27.956 23.5806 27.3871V30.0968C23.5806 30.0968 22.6774 31.9032 20.871 31.9032C19.0645 31.9032 18.1613 30.0968 18.1613 30.0968V27.3871Z" fill="#F0D0B4"/>
<path d="M25.3871 21.9678V23.7742C25.3871 25.2464 24.6735 26.565 23.5806 27.3871C22.8309 27.956 21.8915 28.2903 20.871 28.2903C19.8504 28.2903 18.911 27.956 18.1613 27.3871C17.0684 26.565 16.3548 25.2464 16.3548 23.7742V21.9678C16.3548 19.4751 18.3783 17.4516 20.871 17.4516C22.1173 17.4516 23.2463 17.9575 24.0684 18.7703C24.8812 19.5924 25.3871 20.7214 25.3871 21.9678Z" fill="#F0D0B4"/>
<path d="M28.3226 19.5733L34.972 14.0323H43.6774V5H22V14.0323H28.3226V19.5733ZM23.8065 12.2258V6.80645H41.871V12.2258H34.3184L30.129 15.717V12.2258H23.8065Z" fill="black"/>
<path d="M25.6129 8.61292H27.4193V10.4194H25.6129V8.61292Z" fill="black"/>
<path d="M29.2258 8.61292H36.4516V10.4194H29.2258V8.61292Z" fill="black"/>
<path d="M38.2581 8.61292H40.0645V10.4194H38.2581V8.61292Z" fill="black"/>
<path d="M46.9785 57.1935L46.2482 49.8817C49.2639 49.405 51.5806 46.7936 51.5806 43.6451V31.9032H47.9677V30.6551C47.9677 29.4273 47.293 28.3247 46.208 27.7593C47.2868 26.7683 47.9677 25.3513 47.9677 23.7742V21.9677C47.9677 18.9789 45.5372 16.5484 42.5484 16.5484C39.5595 16.5484 37.129 18.9789 37.129 21.9677V23.7742C37.129 26.1125 38.6201 28.1033 40.6996 28.8619L35.8518 33.7097H30.7866C30.6856 32.204 29.6514 30.8915 28.1863 30.4725L24.4839 29.4158V27.8025C25.5895 26.8098 26.2903 25.3747 26.2903 23.7742V21.9677C26.2903 18.9789 23.8598 16.5484 20.871 16.5484C17.8821 16.5484 15.4516 18.9789 15.4516 21.9677V23.7742C15.4516 25.3738 16.1524 26.8089 17.2581 27.8025V29.4167L13.5556 30.4734C12.0129 30.9131 10.9355 32.342 10.9355 33.9474V37.3226H7.32258V42.7419H9.12903V57.1935H1V59H57V57.1935H46.9785ZM38.9355 42.7419V38.5998L45.3357 32.1996C45.7983 31.7369 46.0735 31.1155 46.1353 30.4672C46.1432 30.5303 46.1613 30.5898 46.1613 30.6551V41.8387C46.1613 43.3325 44.9454 44.5484 43.4516 44.5484H36.2258V42.7419H38.9355ZM36.2258 49.9677H40.8279L41.5503 57.1935H36.2258V49.9677ZM42.6432 49.9677H44.4408L45.1632 57.1935H43.3656L42.6432 49.9677ZM47.9677 41.8387V33.7097H49.7742V43.6451C49.7742 46.1352 47.7481 48.1613 45.2581 48.1613H36.2258V46.3548H43.4516C45.9417 46.3548 47.9677 44.3287 47.9677 41.8387ZM38.9355 23.7742V21.9677C38.9355 19.9752 40.5558 18.3548 42.5484 18.3548C44.541 18.3548 46.1613 19.9752 46.1613 21.9677V23.7742C46.1613 25.7667 44.541 27.3871 42.5484 27.3871C40.5558 27.3871 38.9355 25.7667 38.9355 23.7742ZM36.5998 35.5161L42.626 29.4899C42.8148 29.3011 43.0759 29.1935 43.3422 29.1935C43.9006 29.1935 44.3548 29.6478 44.3548 30.2061C44.3548 30.4725 44.2472 30.7336 44.0585 30.9224L37.6583 37.3226H28.0968C27.5984 37.3226 27.1935 36.9177 27.1935 36.4193C27.1935 35.921 27.5984 35.5161 28.0968 35.5161H36.5998ZM17.2581 21.9677C17.2581 19.9752 18.8784 18.3548 20.871 18.3548C22.8635 18.3548 24.4839 19.9752 24.4839 21.9677V23.7742C24.4839 25.7667 22.8635 27.3871 20.871 27.3871C18.8784 27.3871 17.2581 25.7667 17.2581 23.7742V21.9677ZM20.871 29.1935C21.5052 29.1935 22.1111 29.078 22.6774 28.8773V29.8476C22.4534 30.1933 21.8311 31 20.871 31C19.9108 31 19.2886 30.1933 19.0645 29.8476V28.8773C19.6308 29.078 20.2368 29.1935 20.871 29.1935ZM12.7419 33.9474C12.7419 33.1443 13.2813 32.4307 14.0518 32.2102L17.7727 31.1473C18.2967 31.83 19.3163 32.8064 20.871 32.8064C22.4256 32.8064 23.4452 31.83 23.9692 31.1464L27.6901 32.2093C28.3821 32.4073 28.8646 33.0089 28.9612 33.7088H28.0968C26.603 33.7088 25.3871 34.9247 25.3871 36.4185C25.3871 36.7364 25.4519 37.0381 25.5534 37.3217H12.7419V33.9474ZM9.12903 39.129H37.129V40.9355H9.12903V39.129ZM10.9355 46.3548H13.6452V44.5484H10.9355V42.7419H34.4194V44.5484H15.4516V46.3548H34.4194V57.1935H32.268L30.4616 53.5806H14.8933L13.0868 57.1935H10.9355V46.3548ZM30.2481 57.1935H15.1067L16.01 55.3871H29.3449L30.2481 57.1935Z" fill="black"/>
</svg>
