<svg width="76" height="76" viewBox="0 0 76 76" fill="none" xmlns="http://www.w3.org/2000/svg">
<circle cx="38" cy="38" r="38" fill="#E0B92C"/>
<path d="M38.1594 29.8701L18.3601 39.5077V57.7439H57.9587V39.5077L38.1594 29.8701Z" fill="white"/>
<path d="M57.9587 57.7441L41.7593 48.626H34.5595L18.3601 57.7441H57.9587Z" fill="white"/>
<path d="M57.9587 39.5078V57.744L41.7593 48.6259L57.9587 39.5078Z" fill="white"/>
<path d="M18.3601 39.5078V57.744L34.5595 48.6259L18.3601 39.5078Z" fill="white"/>
<path d="M34.5595 48.6258H41.7593L51.7648 42.9938V18.7998C51.7648 18.0046 51.12 17.3599 50.3248 17.3599H25.9937C25.1984 17.3599 24.5537 18.0046 24.5537 18.7998V42.9938L34.5595 48.6258Z" fill="white"/>
<path d="M50.3248 17.3599H25.9937C25.1984 17.3599 24.5537 18.0046 24.5537 18.7998V19.8798C24.5537 19.0846 25.1984 18.4398 25.9937 18.4398H50.3248C51.12 18.4398 51.7648 19.0846 51.7648 19.8798V18.7998C51.7648 18.0046 51.12 17.3599 50.3248 17.3599Z" fill="white"/>
<path d="M33.4676 27.6161H31.9812C31.7825 27.6161 31.6212 27.4552 31.6212 27.2561C31.6212 27.057 31.7825 26.8961 31.9812 26.8961H33.4676C33.8387 26.8961 34.1407 26.5941 34.1407 26.2229C34.1407 25.8521 33.8387 25.5501 33.4676 25.5501H32.8084C32.0402 25.5501 31.4153 24.9252 31.4153 24.1569C31.4153 23.3887 32.0402 22.7642 32.8084 22.7642H34.2948C34.4935 22.7642 34.6548 22.9251 34.6548 23.1241C34.6548 23.3232 34.4935 23.4841 34.2948 23.4841H32.8084C32.4373 23.4841 32.1353 23.7862 32.1353 24.1569C32.1353 24.5281 32.4373 24.8301 32.8084 24.8301H33.4676C34.2358 24.8301 34.8607 25.4547 34.8607 26.2229C34.8607 26.9911 34.2358 27.6161 33.4676 27.6161Z" fill="#E0B92C"/>
<path d="M33.1259 28.6365C32.9271 28.6365 32.7659 28.4756 32.7659 28.2765V27.256C32.7659 27.0569 32.9271 26.896 33.1259 26.896C33.3246 26.896 33.4858 27.0569 33.4858 27.256V28.2765C33.4858 28.4756 33.3246 28.6365 33.1259 28.6365Z" fill="#E0B92C"/>
<path d="M33.1259 23.4841C32.9271 23.4841 32.7659 23.3231 32.7659 23.1241V22.1032C32.7659 21.9041 32.9271 21.7432 33.1259 21.7432C33.3246 21.7432 33.4858 21.9041 33.4858 22.1032V23.1241C33.4858 23.3231 33.3246 23.4841 33.1259 23.4841Z" fill="#E0B92C"/>
<path d="M58.1159 39.1838L52.1246 36.2676V31.5086C52.1246 31.3095 51.9633 31.1486 51.7646 31.1486C51.5659 31.1486 51.4046 31.3095 51.4046 31.5086V42.7837L41.6648 48.2659H34.6537L24.9139 42.7837V18.7999C24.9139 18.2045 25.3985 17.72 25.9939 17.72H50.325C50.9204 17.72 51.405 18.2045 51.405 18.7999V24.2325C51.405 24.4316 51.5663 24.5925 51.765 24.5925C51.9637 24.5925 52.125 24.4316 52.125 24.2325V18.7999C52.125 17.8075 51.3175 17 50.325 17H25.9939C25.0014 17 24.1939 17.8075 24.1939 18.7999V36.2676L18.2023 39.1838C18.0785 39.2443 18 39.3699 18 39.5078V57.744C18 57.9431 18.1613 58.104 18.36 58.104H57.9585C58.1573 58.104 58.3185 57.9431 58.3185 57.744V39.5078C58.3185 39.3699 58.2401 39.2443 58.1159 39.1838ZM52.1246 37.0682L57.1835 39.5305L52.1246 42.378V37.0682ZM57.5986 40.1234V57.1285L42.4932 48.6259L57.5986 40.1234ZM34.6537 48.9859H41.6652L56.5856 57.3841H19.7333L34.6537 48.9859ZM18.72 57.1285V40.1234L33.8254 48.6259L18.72 57.1285ZM24.1939 42.3784L19.135 39.5309L24.1939 37.0682V42.3784Z" fill="#E0B92C"/>
<path d="M33.1382 30.5819C36.111 30.5819 38.5298 28.1631 38.5298 25.19C38.5298 22.2172 36.1114 19.7988 33.1382 19.7988C30.1651 19.7988 27.7471 22.2172 27.7471 25.19C27.7471 28.1631 30.1655 30.5819 33.1382 30.5819ZM33.1382 20.5192C35.7139 20.5192 37.8098 22.6146 37.8098 25.1904C37.8098 27.7664 35.7143 29.8623 33.1382 29.8623C30.5622 29.8623 28.467 27.7661 28.467 25.19C28.467 22.6146 30.5625 20.5192 33.1382 20.5192Z" fill="#E0B92C"/>
<path d="M48.3288 20.709H40.2291C40.0304 20.709 39.8691 20.8699 39.8691 21.069C39.8691 21.268 40.0304 21.429 40.2291 21.429H48.3288C48.5275 21.429 48.6888 21.268 48.6888 21.069C48.6888 20.8699 48.5275 20.709 48.3288 20.709Z" fill="#E0B92C"/>
<path d="M48.3288 24.3086H40.2291C40.0304 24.3086 39.8691 24.4695 39.8691 24.6686C39.8691 24.8677 40.0304 25.0286 40.2291 25.0286H48.3288C48.5275 25.0286 48.6888 24.8677 48.6888 24.6686C48.6888 24.4695 48.5275 24.3086 48.3288 24.3086Z" fill="#E0B92C"/>
<path d="M48.3288 27.9087H40.2291C40.0304 27.9087 39.8691 28.0696 39.8691 28.2687C39.8691 28.4678 40.0304 28.6287 40.2291 28.6287H48.3288C48.5275 28.6287 48.6888 28.4678 48.6888 28.2687C48.6888 28.0696 48.5275 27.9087 48.3288 27.9087Z" fill="#E0B92C"/>
<path d="M48.3289 31.5083H27.9896C27.7909 31.5083 27.6296 31.6692 27.6296 31.8683C27.6296 32.0674 27.7909 32.2283 27.9896 32.2283H48.3289C48.5276 32.2283 48.6889 32.0674 48.6889 31.8683C48.6889 31.6692 48.5276 31.5083 48.3289 31.5083Z" fill="#E0B92C"/>
<path d="M48.3289 35.1089H27.9896C27.7909 35.1089 27.6296 35.2698 27.6296 35.4689C27.6296 35.6679 27.7909 35.8289 27.9896 35.8289H48.3289C48.5276 35.8289 48.6889 35.6679 48.6889 35.4689C48.6889 35.2698 48.5276 35.1089 48.3289 35.1089Z" fill="#E0B92C"/>
<path d="M48.3289 38.7085H27.9896C27.7909 38.7085 27.6296 38.8694 27.6296 39.0685C27.6296 39.2676 27.7909 39.4285 27.9896 39.4285H48.3289C48.5276 39.4285 48.6889 39.2676 48.6889 39.0685C48.6889 38.8694 48.5276 38.7085 48.3289 38.7085Z" fill="#E0B92C"/>
<path d="M48.6889 42.6686C48.6889 42.4695 48.5276 42.3086 48.3289 42.3086H27.9896C27.7909 42.3086 27.6296 42.4695 27.6296 42.6686C27.6296 42.8677 27.7909 43.0286 27.9896 43.0286H48.3289C48.5276 43.0286 48.6889 42.8677 48.6889 42.6686Z" fill="#E0B92C"/>
<path d="M34.6493 45.9082C34.4506 45.9082 34.2893 46.0691 34.2893 46.2682C34.2893 46.4673 34.4506 46.6282 34.6493 46.6282H41.669C41.8678 46.6282 42.029 46.4673 42.029 46.2682C42.029 46.0691 41.8678 45.9082 41.669 45.9082H34.6493Z" fill="#E0B92C"/>
</svg>
