<svg width="37" height="37" viewBox="0 0 37 37" fill="none" xmlns="http://www.w3.org/2000/svg">
<path d="M7 2C7 0.895431 7.89543 0 9 0H24.5117C25.6163 0 26.5117 0.895431 26.5117 2V2.33594C26.5117 3.44051 25.6163 4.33594 24.5117 4.33594H9C7.89543 4.33594 7 3.44051 7 2.33594V2Z" fill="white"/>
<path d="M30.6 0C29.4954 0 28.6 0.89543 28.6 2V5.38461C28.6 6.48918 27.7046 7.38462 26.6 7.38462H6.4C5.29543 7.38462 4.4 6.48919 4.4 5.38462V2C4.4 0.895431 3.50457 0 2.4 0H2C0.89543 0 0 0.895431 0 2V30C0 31.1046 0.895431 32 2 32H17.7806C19.1332 32 20.0984 30.6732 19.9881 29.3252C19.9607 28.9901 19.9467 28.6507 19.9467 28.3077C19.9467 22.1998 24.3877 17.2308 29.8467 17.2308C29.9578 17.2308 30.0684 17.2328 30.1787 17.2369C31.5755 17.2887 33 16.3136 33 14.9158V2C33 0.895432 32.1046 0 31 0H30.6ZM11 23.3846C11 24.0644 10.449 24.6154 9.76923 24.6154H5.63077C4.95103 24.6154 4.4 24.0644 4.4 23.3846C4.4 22.7049 4.95103 22.1538 5.63077 22.1538H9.76923C10.449 22.1538 11 22.7049 11 23.3846ZM11 18.4615C11 19.1413 10.449 19.6923 9.76923 19.6923H5.63077C4.95103 19.6923 4.4 19.1413 4.4 18.4615C4.4 17.7818 4.95103 17.2308 5.63077 17.2308H9.76923C10.449 17.2308 11 17.7818 11 18.4615ZM11 13.5385C11 14.2182 10.449 14.7692 9.76923 14.7692H5.63077C4.95103 14.7692 4.4 14.2182 4.4 13.5385C4.4 12.8587 4.95103 12.3077 5.63077 12.3077H9.76923C10.449 12.3077 11 12.8587 11 13.5385ZM19.8 23.3846C19.8 24.0644 19.249 24.6154 18.5692 24.6154H14.4308C13.751 24.6154 13.2 24.0644 13.2 23.3846C13.2 22.7049 13.751 22.1538 14.4308 22.1538H18.5692C19.249 22.1538 19.8 22.7049 19.8 23.3846ZM19.8 18.4615C19.8 19.1413 19.249 19.6923 18.5692 19.6923H14.4308C13.751 19.6923 13.2 19.1413 13.2 18.4615C13.2 17.7818 13.751 17.2308 14.4308 17.2308H18.5692C19.249 17.2308 19.8 17.7818 19.8 18.4615ZM19.8 13.5385C19.8 14.2182 19.249 14.7692 18.5692 14.7692H14.4308C13.751 14.7692 13.2 14.2182 13.2 13.5385C13.2 12.8587 13.751 12.3077 14.4308 12.3077H18.5692C19.249 12.3077 19.8 12.8587 19.8 13.5385ZM28.6 13.5385C28.6 14.2182 28.049 14.7692 27.3692 14.7692H23.2308C22.551 14.7692 22 14.2182 22 13.5385C22 12.8587 22.551 12.3077 23.2308 12.3077H27.3692C28.049 12.3077 28.6 12.8587 28.6 13.5385Z" fill="white"/>
<path d="M29.4121 21C25.2279 21 21.8242 24.4037 21.8242 28.5879C21.8242 32.7721 25.2279 36.1758 29.4121 36.1758C33.5963 36.1758 37 32.7721 37 28.5879C37 24.4037 33.5963 21 29.4121 21ZM32.6641 28.5879C32.6641 29.1866 32.1787 29.6719 31.5801 29.6719H30.3281C29.2236 29.6719 28.3281 28.7764 28.3281 27.6719V26.4199C28.3281 25.8213 28.8134 25.3359 29.4121 25.3359C30.0108 25.3359 30.4961 25.8213 30.4961 26.4199C30.4961 27.0186 30.9814 27.5039 31.5801 27.5039C32.1787 27.5039 32.6641 27.9892 32.6641 28.5879Z" fill="white"/>
</svg>
