<svg width="40" height="42" viewBox="0 0 40 42" fill="none" xmlns="http://www.w3.org/2000/svg">
<path d="M35.7143 3H30V1.5C30 1.10218 29.8495 0.720644 29.5816 0.43934C29.3137 0.158035 28.9503 0 28.5714 0C28.1925 0 27.8292 0.158035 27.5613 0.43934C27.2934 0.720644 27.1429 1.10218 27.1429 1.5V3H12.8571V1.5C12.8571 1.10218 12.7066 0.720644 12.4387 0.43934C12.1708 0.158035 11.8075 0 11.4286 0C11.0497 0 10.6863 0.158035 10.4184 0.43934C10.1505 0.720644 10 1.10218 10 1.5V3H4.28571C3.14907 3 2.05898 3.47411 1.25526 4.31802C0.451529 5.16193 0 6.30653 0 7.5V37.5C0 38.6935 0.451529 39.8381 1.25526 40.682C2.05898 41.5259 3.14907 42 4.28571 42H35.7143C36.8509 42 37.941 41.5259 38.7447 40.682C39.5485 39.8381 40 38.6935 40 37.5V7.5C40 6.30653 39.5485 5.16193 38.7447 4.31802C37.941 3.47411 36.8509 3 35.7143 3ZM4.28571 6H35.7143C36.0932 6 36.4565 6.15804 36.7244 6.43934C36.9923 6.72064 37.1429 7.10218 37.1429 7.5V12H2.85714V7.5C2.85714 7.10218 3.00765 6.72064 3.27556 6.43934C3.54347 6.15804 3.90683 6 4.28571 6ZM35.7143 39H4.28571C3.90683 39 3.54347 38.842 3.27556 38.5607C3.00765 38.2794 2.85714 37.8978 2.85714 37.5V15H37.1429V37.5C37.1429 37.8978 36.9923 38.2794 36.7244 38.5607C36.4565 38.842 36.0932 39 35.7143 39ZM12.8571 22.5C12.8571 22.8978 12.7066 23.2794 12.4387 23.5607C12.1708 23.842 11.8075 24 11.4286 24H8.57143C8.19255 24 7.82919 23.842 7.56128 23.5607C7.29337 23.2794 7.14286 22.8978 7.14286 22.5C7.14286 22.1022 7.29337 21.7206 7.56128 21.4393C7.82919 21.158 8.19255 21 8.57143 21H11.4286C11.8075 21 12.1708 21.158 12.4387 21.4393C12.7066 21.7206 12.8571 22.1022 12.8571 22.5ZM22.8571 22.5C22.8571 22.8978 22.7066 23.2794 22.4387 23.5607C22.1708 23.842 21.8075 24 21.4286 24H18.5714C18.1925 24 17.8292 23.842 17.5613 23.5607C17.2934 23.2794 17.1429 22.8978 17.1429 22.5C17.1429 22.1022 17.2934 21.7206 17.5613 21.4393C17.8292 21.158 18.1925 21 18.5714 21H21.4286C21.8075 21 22.1708 21.158 22.4387 21.4393C22.7066 21.7206 22.8571 22.1022 22.8571 22.5ZM32.8571 22.5C32.8571 22.8978 32.7066 23.2794 32.4387 23.5607C32.1708 23.842 31.8075 24 31.4286 24H28.5714C28.1925 24 27.8292 23.842 27.5613 23.5607C27.2934 23.2794 27.1429 22.8978 27.1429 22.5C27.1429 22.1022 27.2934 21.7206 27.5613 21.4393C27.8292 21.158 28.1925 21 28.5714 21H31.4286C31.8075 21 32.1708 21.158 32.4387 21.4393C32.7066 21.7206 32.8571 22.1022 32.8571 22.5ZM12.8571 31.5C12.8571 31.8978 12.7066 32.2794 12.4387 32.5607C12.1708 32.842 11.8075 33 11.4286 33H8.57143C8.19255 33 7.82919 32.842 7.56128 32.5607C7.29337 32.2794 7.14286 31.8978 7.14286 31.5C7.14286 31.1022 7.29337 30.7206 7.56128 30.4393C7.82919 30.158 8.19255 30 8.57143 30H11.4286C11.8075 30 12.1708 30.158 12.4387 30.4393C12.7066 30.7206 12.8571 31.1022 12.8571 31.5ZM22.8571 31.5C22.8571 31.8978 22.7066 32.2794 22.4387 32.5607C22.1708 32.842 21.8075 33 21.4286 33H18.5714C18.1925 33 17.8292 32.842 17.5613 32.5607C17.2934 32.2794 17.1429 31.8978 17.1429 31.5C17.1429 31.1022 17.2934 30.7206 17.5613 30.4393C17.8292 30.158 18.1925 30 18.5714 30H21.4286C21.8075 30 22.1708 30.158 22.4387 30.4393C22.7066 30.7206 22.8571 31.1022 22.8571 31.5ZM32.8571 31.5C32.8571 31.8978 32.7066 32.2794 32.4387 32.5607C32.1708 32.842 31.8075 33 31.4286 33H28.5714C28.1925 33 27.8292 32.842 27.5613 32.5607C27.2934 32.2794 27.1429 31.8978 27.1429 31.5C27.1429 31.1022 27.2934 30.7206 27.5613 30.4393C27.8292 30.158 28.1925 30 28.5714 30H31.4286C31.8075 30 32.1708 30.158 32.4387 30.4393C32.7066 30.7206 32.8571 31.1022 32.8571 31.5Z" fill="white"/>
</svg>
