<svg width="46" height="33" viewBox="0 0 46 33" fill="none" xmlns="http://www.w3.org/2000/svg">
<path d="M22.2499 31.5007C22.2499 31.915 22.5862 32.2499 22.9999 32.2499C23.4138 32.2499 23.7499 31.915 23.7499 31.5008V4.97791C23.7499 4.56383 23.4139 4.22873 22.9999 4.22873C22.5862 4.22873 22.2499 4.5638 22.2499 4.97791V31.5007Z" fill="white" stroke="white" stroke-width="0.5"/>
<path d="M4.02217 1.27428L4.02217 1.27428C13.9879 -0.268633 21.0434 3.04928 22.9128 4.06479C24.8354 2.48048 29.6651 -0.280535 38.8828 1.14719C38.8828 1.14719 38.8828 1.14719 38.8828 1.14719L38.8445 1.39425C39.1174 1.43648 39.3043 1.69165 39.262 1.9641C39.2196 2.23655 38.964 2.42315 38.6912 2.38082L4.02217 1.27428ZM4.02217 1.27428C3.65691 1.33084 3.38702 1.64494 3.38702 2.01462V24.1319C3.38702 24.5461 3.72328 24.8811 4.13702 24.8811C4.55074 24.8811 4.88702 24.5462 4.88702 24.132V2.66295L4.02217 1.27428ZM23.1829 5.4779L23.2563 5.68281C23.2567 5.68268 23.257 5.68256 23.2574 5.68244C23.2577 5.68231 23.2581 5.68219 23.2584 5.68206L23.1832 5.4779H23.25V5.4777V5.41171C23.2566 5.40797 23.2632 5.40408 23.2696 5.40003C23.3172 5.36998 23.3503 5.34003 23.416 5.28033L23.1829 5.4779Z" fill="white" stroke="white" stroke-width="0.5"/>
<path d="M19.4714 10.1191C19.5196 10.1285 19.5677 10.133 19.6152 10.133C19.9669 10.133 20.2809 9.88522 20.3509 9.52717L20.3509 9.52706C20.4302 9.12052 20.1644 8.72738 19.7582 8.64836L19.7581 8.64834C19.4948 8.59723 13.2123 7.39446 7.90893 8.26137C7.5005 8.32811 7.22283 8.71306 7.28984 9.1218C7.35684 9.53046 7.74263 9.80666 8.15096 9.74012L8.15107 9.7401C13.1746 8.91919 19.4012 10.1055 19.4714 10.1191ZM19.4714 10.1191L19.5191 9.87374M19.4714 10.1191C19.4714 10.1191 19.4714 10.1191 19.4715 10.1192L19.5191 9.87374M19.5191 9.87374C19.5514 9.88003 19.5835 9.88303 19.6152 9.88303C19.8497 9.88303 20.0589 9.7175 20.1055 9.47919L19.5191 9.87374Z" fill="white" stroke="white" stroke-width="0.5"/>
<path d="M19.3483 15.0175C19.2856 15.0053 13.015 13.8079 7.93991 14.6371L19.5874 13.7921M19.3483 15.0175L19.3005 15.2629M19.3483 15.0175C19.3806 15.0238 19.4127 15.0268 19.4444 15.0268C19.6789 15.0268 19.8882 14.8612 19.9347 14.6229L19.3005 15.2629M19.3483 15.0175L19.3006 15.2629C19.3006 15.2629 19.3006 15.2629 19.3005 15.2629M19.3005 15.2629C19.2303 15.2492 13.0037 14.063 7.98022 14.8838L7.98015 14.8838C7.57204 14.9504 7.18601 14.6742 7.119 14.2655C7.052 13.8568 7.32966 13.4718 7.73809 13.4051C13.0414 12.5383 19.324 13.7408 19.5874 13.7921M19.5874 13.7921L19.5396 14.0375L19.5873 13.7921C19.5873 13.7921 19.5874 13.7921 19.5874 13.7921Z" fill="white" stroke="white" stroke-width="0.5"/>
<path d="M19.1298 20.4066L19.1295 20.4066L19.129 20.4065L19.1277 20.4062L19.1233 20.4054L19.1076 20.4024L19.0499 20.3918C19.0001 20.3827 18.9279 20.3697 18.835 20.3537C18.6493 20.3217 18.3812 20.2775 18.0452 20.2272C17.3731 20.1268 16.4298 20.0025 15.3308 19.9044C13.1291 19.7079 10.3168 19.6177 7.80946 20.0275C7.40023 20.0948 7.01512 19.8173 6.94823 19.4092L19.1298 20.4066ZM19.1298 20.4066C19.178 20.416 19.2261 20.4205 19.2736 20.4205C19.6252 20.4205 19.9393 20.1728 20.0093 19.8145L20.0093 19.8145C20.0886 19.408 19.8228 19.0149 19.4167 18.9359C19.1532 18.8845 12.8709 17.6825 7.56733 18.5488L7.56732 18.5488M19.1298 20.4066L7.56732 18.5488M7.56732 18.5488C7.15889 18.6155 6.88123 19.0005 6.94822 19.4092L7.56732 18.5488Z" fill="white" stroke="white" stroke-width="0.5"/>
<path d="M19.8126 25.0588L19.8126 25.0589C19.7056 25.3701 19.4142 25.5648 19.1033 25.5648C19.0225 25.5648 18.9404 25.5518 18.8602 25.5243L18.9411 25.2878M19.8126 25.0588L10.2003 24.3754C10.2465 24.7865 10.6175 25.0826 11.029 25.0363C13.4105 24.7703 15.3669 24.8918 16.7292 25.0802C17.4104 25.1744 17.9428 25.2853 18.3054 25.3728C18.4867 25.4166 18.6255 25.4545 18.7192 25.4815C18.8131 25.5086 18.8613 25.5247 18.8612 25.5247L18.9411 25.2878M19.8126 25.0588C19.9472 24.6669 19.738 24.2411 19.3464 24.1069M19.8126 25.0588L19.3464 24.1069M18.9411 25.2878C18.9948 25.3061 19.0495 25.3148 19.1033 25.3148C19.311 25.3148 19.505 25.1846 19.5762 24.9776L18.9411 25.2878ZM19.3464 24.1069C19.1881 24.0527 15.9579 22.9778 10.8624 23.5474L19.3464 24.1069ZM10.8623 23.5474C10.4509 23.5932 10.1541 23.9637 10.2003 24.3753L10.8623 23.5474Z" fill="white" stroke="white" stroke-width="0.5"/>
<path d="M27.1005 9.73997L27.0999 9.74006C26.6921 9.80573 26.3063 9.53072 26.2392 9.12167C26.1722 8.71298 26.4498 8.32798 26.8584 8.26124C32.1618 7.39474 38.4443 8.5972 38.7075 8.64832L38.7076 8.64833C39.1138 8.72735 39.3797 9.12048 39.3002 9.52707L27.1005 9.73997ZM27.1005 9.73997C32.1261 8.91877 38.3552 10.1063 38.4208 10.119L27.1005 9.73997ZM38.5647 10.1329C38.9161 10.1329 39.2303 9.88518 39.3002 9.52712L38.5647 10.1329Z" fill="white" stroke="white" stroke-width="0.5"/>
<path d="M26.9297 14.8838L26.9291 14.8839C26.5219 14.9494 26.1356 14.6747 26.0685 14.2655C26.0015 13.8568 26.279 13.4718 26.6876 13.4051C31.9911 12.5385 38.2735 13.7409 38.5367 13.792L38.5368 13.7921C38.943 13.8711 39.2089 14.2642 39.1294 14.6708L26.9297 14.8838ZM26.9297 14.8838C31.953 14.063 38.1797 15.2492 38.25 15.2628M26.9297 14.8838L38.25 15.2628M38.25 15.2628C38.2982 15.2722 38.3464 15.2767 38.3939 15.2767M38.25 15.2628L38.3939 15.2767M38.3939 15.2767C38.7453 15.2767 39.0595 15.029 39.1294 14.6709L38.3939 15.2767Z" fill="white" stroke="white" stroke-width="0.5"/>
<path d="M38.1269 20.1612C38.0642 20.149 31.7938 18.9513 26.7185 19.7807C26.4461 19.8249 26.1889 19.6408 26.1443 19.3687L25.8976 19.4091C25.9647 19.8182 26.3508 20.0937 26.7586 20.0275L26.7589 20.0274C31.7826 19.2064 38.0089 20.393 38.0792 20.4066M38.1269 20.1612L38.0792 20.4066M38.1269 20.1612L38.0793 20.4066C38.0792 20.4066 38.0792 20.4066 38.0792 20.4066M38.1269 20.1612L38.0792 20.4066M38.3661 18.9358C38.1026 18.8844 31.8203 17.6824 26.5167 18.5487C26.1082 18.6154 25.8306 19.0004 25.8976 19.4091L38.9586 19.8143C39.038 19.4078 38.7722 19.0149 38.3661 18.9358ZM38.3661 18.9358L38.3182 19.1812L38.366 18.9358C38.366 18.9358 38.366 18.9358 38.3661 18.9358Z" fill="white" stroke="white" stroke-width="0.5"/>
<path d="M37.9561 25.3051C37.8935 25.293 31.623 24.0951 26.5477 24.9247M37.9561 25.3051L37.9083 25.5505M37.9561 25.3051C37.9884 25.3114 38.0205 25.3144 38.0522 25.3144C38.2867 25.3144 38.496 25.1489 38.5424 24.9105L37.9084 25.5505L37.9561 25.3051ZM26.5477 24.9247L25.7268 24.5531C25.7938 24.9618 26.1797 25.2381 26.588 25.1714L26.588 25.1714C31.6135 24.35 37.8426 25.5378 37.9083 25.5505M26.5477 24.9247C26.2752 24.9692 26.0181 24.7848 25.9735 24.5126L26.5477 24.9247ZM37.9083 25.5505C37.9566 25.5599 38.0047 25.5644 38.0522 25.5644C38.4037 25.5644 38.7179 25.3167 38.7878 24.9585L37.9083 25.5505ZM26.3459 23.6927L26.3862 23.9394M26.3459 23.6927C31.6495 22.8259 37.9318 24.0285 38.1952 24.0798M26.3459 23.6927L26.3862 23.9394M26.3459 23.6927C25.9373 23.7594 25.6598 24.1444 25.7268 24.5531L26.3862 23.9394M26.3862 23.9394L38.7878 24.9582C38.8672 24.5518 38.6013 24.1588 38.1952 24.0798M38.1952 24.0798L38.1474 24.3251L38.1951 24.0797C38.1951 24.0798 38.1951 24.0798 38.1952 24.0798Z" fill="white" stroke="white" stroke-width="0.5"/>
<path d="M41.7864 29.0309C36.0265 28.1387 31.3007 28.9713 28.3502 29.827C27.3158 30.1269 26.4213 30.4505 25.6835 30.7516H26.3662M41.7864 29.0309L41.7476 29.2779M41.7864 29.0309L41.7481 29.278C41.7479 29.2779 41.7478 29.2779 41.7476 29.2779M41.7864 29.0309C41.8118 29.0349 41.8383 29.0369 41.864 29.0369C42.1402 29.0369 42.364 28.8135 42.364 28.5377V5.47758M41.7476 29.2779C36.032 28.3926 31.3439 29.2191 28.4198 30.0671L28.4198 30.0671C27.6558 30.2886 26.9689 30.5232 26.3662 30.7516M41.7476 29.2779C41.7863 29.284 41.8258 29.2869 41.864 29.2869C42.2779 29.2869 42.614 28.9519 42.614 28.5377V5.72748M26.3662 30.7516H43.75M26.3662 30.7516C26.1434 30.8361 25.9321 30.9198 25.7327 31.0016H43.75V30.7516M43.75 30.7516V5.72699M43.75 30.7516H44V5.72688L43.75 5.72699M43.75 5.72699V5.47699L42.364 5.47758M43.75 5.72699L42.614 5.72748M42.614 5.72748L42.3641 5.72758L42.364 5.47758M42.614 5.72748V5.47758H42.364M41.114 4.97861V27.6748C35.501 26.9516 30.8936 27.7848 27.9609 28.6399C25.4798 29.3633 23.7253 30.2286 22.9604 30.6557C21.5069 30.0043 16.0144 27.7888 8.5504 27.7888C8.13665 27.7888 7.8004 28.1238 7.8004 28.538C7.8004 28.9523 8.13665 29.2872 8.5504 29.2872C12.7579 29.2872 16.3158 30.0225 18.8091 30.7516H2.25V5.72668H4.137C4.55078 5.72668 4.887 5.39161 4.887 4.97751C4.887 4.5634 4.55078 4.22833 4.137 4.22833H1.5C1.08622 4.22833 0.75 4.5634 0.75 4.97751V31.5008C0.75 31.9151 1.08625 32.25 1.5 32.25H44.5C44.9139 32.25 45.25 31.915 45.25 31.5008V4.97751C45.25 4.77853 45.1708 4.58803 45.0301 4.44757C44.8894 4.30705 44.6987 4.22833 44.5 4.22833L44.4998 4.22833L44.4997 4.22833L41.8637 4.22943C41.4499 4.22958 41.114 4.56455 41.114 4.97861Z" fill="white" stroke="white" stroke-width="0.5"/>
<path d="M8.02022 29.0679L8.19686 28.891L8.02022 29.0679C8.16383 29.2113 8.35569 29.2873 8.55056 29.2873C8.64704 29.2873 8.74464 29.2687 8.83758 29.2302L8.74186 28.9992L8.83731 29.2303C9.11758 29.1145 9.30046 28.8412 9.30046 28.5381V24.1319C9.30046 23.7176 8.9642 23.3827 8.55046 23.3827H4.13706C3.83389 23.3827 3.56034 23.565 3.44413 23.8451L3.44411 23.8452C3.32806 24.1251 3.39219 24.4474 3.60682 24.6617C3.60682 24.6617 3.60682 24.6617 3.60682 24.6617L8.02022 29.0679ZM7.80036 24.881V26.73L5.94831 24.881H7.80036Z" fill="white" stroke="white" stroke-width="0.5"/>
<path d="M41.8639 5.72775H38.7677C38.3538 5.72775 38.0177 5.39264 38.0177 4.97857V1.88747C38.0177 1.58431 38.2006 1.31112 38.4808 1.19523L41.8639 5.72775ZM41.8639 5.72775C42.1671 5.72775 42.4405 5.5453 42.5567 5.26539C42.6729 4.98538 42.6088 4.66293 42.394 4.44863C42.394 4.44861 42.394 4.44859 42.394 4.44857L39.298 1.35766C39.2979 1.35763 39.2979 1.3576 39.2979 1.35757M41.8639 5.72775L39.2979 1.35757M39.2979 1.35757C39.2979 1.35756 39.2978 1.35755 39.2978 1.35753M39.2979 1.35757L39.2978 1.35753M39.2978 1.35753C39.0833 1.14313 38.7604 1.07955 38.4809 1.1952L39.2978 1.35753ZM39.5177 3.69543L40.0525 4.2294H39.5177V3.69543Z" fill="white" stroke="white" stroke-width="0.5"/>
</svg>
