<svg width="57" height="32" viewBox="0 0 57 32" fill="none" xmlns="http://www.w3.org/2000/svg">
<path d="M56.1094 26.6668V2.66668C56.1086 1.95967 55.8268 1.28184 55.3259 0.781909C54.825 0.281979 54.1459 0.000776429 53.4375 0H15.1406C14.4322 0.000776429 13.7531 0.281979 13.2522 0.781909C12.7513 1.28184 12.4695 1.95967 12.4688 2.66668V3.55557H12.0782C11.4822 3.55492 10.9031 3.75349 10.4334 4.11961C9.96366 4.48573 9.6303 4.99831 9.48649 5.57558L7.25859 14.468L2.50889 16.4992C2.02838 16.7048 1.6189 17.0466 1.33123 17.4823C1.04356 17.918 0.89036 18.4283 0.890625 18.9501V26.6668C0.654417 26.6668 0.427883 26.7604 0.260858 26.9271C0.0938335 27.0938 0 27.3199 0 27.5557C0 27.7914 0.0938335 28.0175 0.260858 28.1842C0.427883 28.3509 0.654417 28.4446 0.890625 28.4446H5.43379C5.6385 29.4462 6.18296 30.3467 6.97539 30.9944C7.76781 31.642 8.75974 31.9972 9.78396 32C10.8082 32.0028 11.802 31.6531 12.598 31.0098C13.394 30.3665 13.9434 29.4689 14.1536 28.4685L18.9525 28.4474C19.1078 28.716 19.3311 28.9391 19.5999 29.0946C19.8687 29.2501 20.1737 29.3325 20.4844 29.3335H27.6094C27.9206 29.3324 28.2261 29.2498 28.4953 29.0938C28.7644 28.9378 28.9877 28.7139 29.1429 28.4446H38.3869C38.5923 29.4482 39.1387 30.3503 39.9337 30.9981C40.7288 31.6459 41.7236 31.9998 42.75 31.9998C43.7764 31.9998 44.7712 31.6459 45.5663 30.9981C46.3613 30.3503 46.9077 29.4482 47.1131 28.4446H56.1094C56.3456 28.4446 56.5721 28.3509 56.7391 28.1842C56.9062 28.0175 57 27.7914 57 27.5557C57 27.3199 56.9062 27.0938 56.7391 26.9271C56.5721 26.7604 56.3456 26.6668 56.1094 26.6668ZM42.75 23.1112C41.724 23.1126 40.7298 23.467 39.935 24.1147C39.1402 24.7624 38.5935 25.6637 38.3869 26.6668H29.3906V24.0001H35.625C35.8612 24.0001 36.0877 23.9065 36.2548 23.7398C36.4218 23.5731 36.5156 23.347 36.5156 23.1112C36.5156 22.8755 36.4218 22.6494 36.2548 22.4827C36.0877 22.316 35.8612 22.2223 35.625 22.2223H29.3906V19.5556H54.3281V22.2223H48.9844C48.7482 22.2223 48.5216 22.316 48.3546 22.4827C48.1876 22.6494 48.0938 22.8755 48.0938 23.1112C48.0938 23.347 48.1876 23.5731 48.3546 23.7398C48.5216 23.9065 48.7482 24.0001 48.9844 24.0001H54.3281V26.6668H47.1131C46.9065 25.6637 46.3598 24.7624 45.565 24.1147C44.7702 23.467 43.776 23.1126 42.75 23.1112ZM20.4835 8.88893H23.1562V17.7779H20.4844L20.4835 8.88893ZM24.9375 8.88893H27.6094V17.7779H24.9375V8.88893ZM14.25 2.66668C14.2502 2.43099 14.3441 2.20502 14.5111 2.03837C14.6781 1.87172 14.9045 1.778 15.1406 1.77779H53.4375C53.6736 1.778 53.9001 1.87172 54.067 2.03837C54.234 2.20502 54.3279 2.43099 54.3281 2.66668V3.55557H14.25V2.66668ZM10.4916 8.88893H15.1406V14.2223H9.15562L10.4916 8.88893ZM3.21115 18.1329L4.45312 17.6017V19.5556C4.45291 19.7913 4.35901 20.0173 4.19203 20.1839C4.02505 20.3506 3.79864 20.4443 3.5625 20.4445H2.67188V18.9501C2.6719 18.7762 2.723 18.6061 2.81884 18.4609C2.91468 18.3156 3.05107 18.2016 3.21115 18.1329ZM2.67188 22.2223H3.5625C4.27089 22.2215 4.95004 21.9403 5.45094 21.4404C5.95185 20.9405 6.2336 20.2626 6.23438 19.5556V16.8398L8.19767 16.0001H16.0312C16.2675 16.0001 16.494 15.9064 16.661 15.7397C16.828 15.573 16.9219 15.3469 16.9219 15.1112V8.00003C16.9219 7.76429 16.828 7.53819 16.661 7.37149C16.494 7.20479 16.2675 7.11114 16.0312 7.11114H10.9369L11.213 6.00696C11.2611 5.81438 11.3725 5.64344 11.5293 5.52136C11.6861 5.39929 11.8793 5.3331 12.0782 5.33336H54.3281V17.7779H29.3906V8.88893C29.3901 8.41759 29.2022 7.96572 28.8683 7.63244C28.5344 7.29916 28.0816 7.11168 27.6094 7.11114H20.4844C20.0121 7.11168 19.5594 7.29916 19.2254 7.63244C18.8915 7.96572 18.7037 8.41759 18.7031 8.88893V26.6707L14.1624 26.6906C13.9625 25.6838 13.4195 24.7772 12.6257 24.1247C11.8319 23.4722 10.8362 23.1142 9.80785 23.1114C8.7795 23.1086 7.7819 23.4612 6.98453 24.1093C6.18716 24.7574 5.63922 25.6611 5.43379 26.6668H2.67188V22.2223ZM9.79688 30.2224C9.26843 30.2224 8.75185 30.066 8.31246 29.7729C7.87307 29.4799 7.53061 29.0634 7.32838 28.5762C7.12616 28.0889 7.07324 27.5527 7.17634 27.0354C7.27943 26.5181 7.53391 26.043 7.90757 25.67C8.28124 25.2971 8.75733 25.0431 9.27562 24.9402C9.79391 24.8373 10.3311 24.8902 10.8194 25.092C11.3076 25.2938 11.7249 25.6356 12.0185 26.0741C12.312 26.5127 12.4688 27.0283 12.4688 27.5557C12.468 28.2627 12.1862 28.9405 11.6853 29.4404C11.1844 29.9404 10.5053 30.2216 9.79688 30.2224ZM20.4844 27.5518V19.5556H23.1562V27.5557H20.4844V27.5518ZM24.9375 27.5557V19.5556H27.6094V27.5557H24.9375ZM42.75 30.2224C42.2216 30.2224 41.705 30.066 41.2656 29.7729C40.8262 29.4799 40.4837 29.0634 40.2815 28.5762C40.0793 28.0889 40.0264 27.5527 40.1295 27.0354C40.2326 26.5181 40.487 26.043 40.8607 25.67C41.2344 25.2971 41.7104 25.0431 42.2287 24.9402C42.747 24.8373 43.2843 24.8902 43.7725 25.092C44.2607 25.2938 44.678 25.6356 44.9716 26.0741C45.2652 26.5127 45.4219 27.0283 45.4219 27.5557C45.4211 28.2627 45.1393 28.9405 44.6384 29.4404C44.1375 29.9404 43.4584 30.2216 42.75 30.2224Z" fill="white"/>
<path d="M32.0625 16.0312H51.6562C51.8925 16.0312 52.119 15.9374 52.286 15.7704C52.453 15.6034 52.5469 15.3768 52.5469 15.1406V8.01562C52.5469 7.77942 52.453 7.55288 52.286 7.38586C52.119 7.21883 51.8925 7.125 51.6562 7.125H32.0625C31.8263 7.125 31.5998 7.21883 31.4327 7.38586C31.2657 7.55288 31.1719 7.77942 31.1719 8.01562V15.1406C31.1719 15.3768 31.2657 15.6034 31.4327 15.7704C31.5998 15.9374 31.8263 16.0312 32.0625 16.0312ZM32.9531 12.4688H37.4062V14.25H32.9531V12.4688ZM44.5312 12.4688V14.25H39.1875V12.4688H44.5312ZM39.1875 10.6875V8.90625H44.5312V10.6875H39.1875ZM46.3125 14.25V12.4688H50.7656V14.25H46.3125ZM50.7656 10.6875H46.3125V8.90625H50.7656V10.6875ZM37.4062 8.90625V10.6875H32.9531V8.90625H37.4062Z" fill="white"/>
</svg>
