<?xml version="1.0" encoding="utf-8"?>
<!-- Generator: Adobe Illustrator 25.2.1, SVG Export Plug-In . SVG Version: 6.00 Build 0)  -->
<svg version="1.1" id="Layer_1" xmlns="http://www.w3.org/2000/svg" xmlns:xlink="http://www.w3.org/1999/xlink" x="0px" y="0px"
	 viewBox="0 0 576 512" style="enable-background:new 0 0 576 512;" xml:space="preserve">
<style type="text/css">
	.st0{fill:#FFFFFF;}
</style>
<path d="M118.4,510.6c-51.5,6.6-111-9.6-114-72.1c-12.5-94.7,14-203.5,123-220.1C272.4,196.5,172.8,16.1,363.5,0.8
	c55.3-1.4,143-8.6,147.8,66.1c10.7,92.8-6.1,208.3-116.6,225.5C233.3,317.1,357,519.9,118.4,511
	C118.4,510.9,118.4,510.7,118.4,510.6z M121.8,464.8c0.1,0.9,0.2,1.7,0.3,2.6c203.3-2.1,61-187.2,270.8-221.9
	c79.8-18.3,79-103.4,75.1-169.6c-4.8-45-67.1-24.4-98.2-28.7c-52.8,0.1-91.6,33.1-101.8,84.9C238.4,307.1,77.4,217.6,53.2,345.3
	c-4.4,30.3-3.1,61.6-2.3,92.4C53,472.4,97.1,464.2,121.8,464.8z"/>
<path class="st0" d="M121.8,464.8c-24.7-0.5-68.8,7.5-70.9-27.2c-0.8-30.8-2-62.1,2.3-92.4C76.9,217.7,238,307.4,268,132.2
	c10.2-51.8,49.1-84.8,101.8-84.9C401,51.4,463.1,31.1,468,76c3.8,66.1,4.7,151.3-75.1,169.6c-209.9,34.8-67.4,219.6-270.8,221.9
	C122,466.6,121.9,465.7,121.8,464.8z M412.9,137.3c1.5-26.4-36.8-25.1-35.6-0.6C376.7,159.6,413.6,159.6,412.9,137.3z M413,199.7
	c0.8-22.8-35.9-23.3-35.6-0.4C375.6,223.4,414.1,224.9,413,199.7z M349.3,200c0.4-23.8-37.4-23.8-35.5,0.8
	C313.3,224.6,350.1,223.4,349.3,200z M221.3,327.4c0.1-22.9-37.1-21.9-36,0.9C184.4,351.8,223.2,351.9,221.3,327.4z M221.2,392.9
	c1.2-24.7-37.4-24.5-35.9-0.7C183.4,414.9,222.5,415.5,221.2,392.9z M157.5,390.7c-1.3-22.4-37.6-22-35.9,1.7
	C120.7,416.2,158.9,414.8,157.5,390.7z"/>
<path d="M412.9,137.3c0.7,22.3-36.2,22.3-35.6-0.6C376.2,112.2,414.4,110.9,412.9,137.3z"/>
<path d="M413,199.7c1.1,25.1-37.4,23.6-35.6-0.4C377.1,176.4,413.8,176.9,413,199.7z"/>
<path d="M349.3,200c0.8,23.4-36,24.6-35.5,0.8C312,176.2,349.8,176.2,349.3,200z"/>
<path d="M221.3,327.4c1.9,24.5-36.9,24.4-36,0.9C184.2,305.5,221.4,304.5,221.3,327.4z"/>
<path d="M221.2,392.9c1.2,22.6-37.8,22-35.9-0.7C183.8,368.4,222.5,368.2,221.2,392.9z"/>
<path d="M157.5,390.7c1.4,24-36.9,25.4-35.9,1.7C119.9,368.8,156.2,368.3,157.5,390.7z"/>
</svg>
