<?xml version="1.0" encoding="utf-8"?>
<!-- Generator: Adobe Illustrator 25.2.1, SVG Export Plug-In . SVG Version: 6.00 Build 0)  -->
<svg version="1.1" id="Layer_1" xmlns="http://www.w3.org/2000/svg" xmlns:xlink="http://www.w3.org/1999/xlink" x="0px" y="0px"
	 viewBox="0 0 576 512" style="enable-background:new 0 0 576 512;" xml:space="preserve">
<style type="text/css">
	.st0{fill:#1E3050;}
	.st1{fill:#FEFEFE;}
</style>
<path class="st0" d="M93,511.4c-38.9,1.7-86.5,3.4-89.3-45C-25.7,207,199.5-22.7,460,1.8c34.5,0.2,52.3,19.3,53.3,53.9
	C535.7,296.6,337.4,519.6,93,511.4z"/>
<path class="st1" d="M93.4,464.3C80.6,461,51,473.1,50,454.2C34.2,216.1,218,38.8,439.8,49.2c26.8,0.6,26.3,0.1,26.9,26.5
	C480.3,284.1,303.7,472.2,93.4,464.3z"/>
<path class="st0" d="M201.7,369.6c-2.6,71.8-109.2,71.1-110.2-1.3C92.2,296.4,202.9,296.6,201.7,369.6z"/>
<path class="st0" d="M315.2,145.2c1.3-72.5,107.9-72.1,110.3-0.6C424,217.3,316.8,218.9,315.2,145.2z"/>
<path class="st0" d="M257.6,312.2c-72.4-3.6-71.9-108,0.8-110.4C332.1,204.5,330.9,310.6,257.6,312.2z"/>
</svg>
