<?xml version="1.0" encoding="utf-8"?>
<!-- Generator: Adobe Illustrator 25.2.1, SVG Export Plug-In . SVG Version: 6.00 Build 0)  -->
<svg version="1.1" id="Layer_1" xmlns="http://www.w3.org/2000/svg" xmlns:xlink="http://www.w3.org/1999/xlink" x="0px" y="0px"
	 viewBox="0 0 435.7 375.2" style="enable-background:new 0 0 435.7 375.2;" xml:space="preserve">
<style type="text/css">
	.st0{fill:#FFFFFF;}
</style>
<path class="st0" d="M306.2,203.7c-1.7-0.5-2.4-0.9-3.2-1c-17.4-2-34.7-1.6-51.6,3c-6.1,1.7-12.1,4.6-17.4,8
	c-13.3,8.4-30.3,7.1-41.9-4c-1.3-1.2-2.8-2.5-4.4-3.1c-17.1-6.1-34.9-6.7-52.8-5.8c-2.7,0.1-3.4,1.4-2.7,4c1,3.9,1.9,7.8,2.6,11.7
	c0.6,3.2,2.2,4,5.3,3.3c13-3,25.8-1.5,38.3,2.6c12.3,4.1,12.4,4.1,10.7,16.7c-3.2,24.6-6.4,49.2-9.6,73.8c-2.4,18.3-4.7,36.7-7.1,55
	c-0.4,3.2,0.3,5.1,3.9,5.2c17.3,0.7,34.5,2.2,51.8,2c11.4-0.1,22.8-2.4,34.2-3.8c2.9-0.4,4.8-1.2,4.2-5.1
	c-6.8-44.2-13.4-88.5-20.3-132.8c-0.7-4.5,0.3-6.6,4.6-8.1c13.4-4.9,27-6.8,41.2-5.9c2.5,0.2,6.3-0.3,7.4-1.9
	C302.2,213.6,303.8,208.8,306.2,203.7z M330.2,133.2c4.4,9.4,8.4,18,12.6,26.8c23.1-13.7,48.7-9.5,75.2-7.5
	c-11.3-13.8-25.4-18.8-40.6-20.3c3.2-5.9,7.2-11.5,9.4-17.8c2.2-6.3,2.6-13.3,3.8-20c-0.6-0.2-1.2-0.5-1.7-0.7
	C372.9,112.5,355.7,129.4,330.2,133.2z M104.4,136.9c-25.6-4.4-41.6-22.9-58.4-42.3c-3.5,16.6,2.5,29,12.5,40.8
	c-16.7,0.5-28.9,7.8-40.2,17.8c25.3-1.2,50.7-3.9,72.9,10.2C95.8,154.4,100,145.8,104.4,136.9z M75.7,63.7
	c21.9,10.6,44.1,20.4,54.9,43.6c9.4-5.4,18.3-10.5,27.5-15.7c-19-16.5-20.5-39.5-22.2-63.5c-12.5,11.3-16.7,24.3-15.1,40.3
	C105.8,60.2,90.9,60.9,75.7,63.7z M298.4,27.7c-2,23.3-5.8,45.5-24.4,61.3c9.4,5.5,18.3,10.8,27.5,16.2
	c4.3-11.9,13.8-19.6,24.2-25.9c10.3-6.2,21.1-11.3,32.4-17.2c-16.4-6.2-31.5-3.2-46.9,3.5C313.7,50.2,307,38.6,298.4,27.7z
	 M22.5,248.3c11.5-6.1,22.2-12.3,33.4-17.6c11.5-5.4,23.9-7.3,35.9-6.3c-1.4-10.2-2.7-19.4-4-29c-12.3,4.4-24.9,4-37.3,1.1
	c-12.3-2.9-24.3-6.7-37.1-10.3c6.6,15.4,18.8,23.3,34.1,28.8C33.5,222.6,27,234.4,22.5,248.3z M344,222.3c12.7-1.2,24.7,2.2,35.9,8
	c11,5.7,21.5,12.5,32.6,19c-1.4-16.2-10.7-26.8-23.2-35.5c16.4-6.4,30.4-17.6,33.4-26.3c-12.1,3-24.2,6.4-36.5,8.8
	c-12.5,2.4-25.1,1.3-36.8-2.7C347.6,203.2,345.9,212.4,344,222.3z M231.1,79.5c-5.2-24.9,8.6-43.7,20.9-63.9
	c-17.1,3.3-28.8,12.3-37.5,26.3c-8.1-14.3-20.9-20.7-35-25.5c12.5,19.5,24.1,39,19,63.1C209.8,79.5,220.3,79.5,231.1,79.5z
	 M276.1,135.9c-11.1,15.9-23,29.6-42,34.2c4.4,6.7,8.4,13,12.6,19.5c16.5-11.5,36.1-9.7,55.3-10.4c-8.6-9.5-19.7-12.5-32-12.9
	C276.8,154.7,278.9,144.7,276.1,135.9z M227.6,167.5c-4-19.2,6.7-33.5,16-49.3c-13.2,2.7-22.1,9.2-28.8,20.1
	c-6.5-10.8-16-15.8-26.9-19.1c9.3,15.1,18.2,30,14.3,48.3C211,167.5,219,167.5,227.6,167.5z M195.5,171.1
	c-9.4-1.5-17.1-6.6-23.8-13.1c-6.5-6.4-12.3-13.4-18.7-20.5c-3.8,11.9,0.6,21.4,6.8,30.6c-14.3,1.6-27.5,7.3-30.6,13.3
	c19.5-1.1,38.6-1.1,54.6,9.5C187.8,184.1,191.5,178,195.5,171.1z M410,112.8c-6,0-11.4,3.6-11.7,7.9c-0.3,4.4,3.8,7.9,10.3,8.7
	c0.2,0,0.3,0.1,0.5,0.1c6.2,0.6,12.4-3.2,12.7-7.8C422.1,117.1,416.5,112.8,410,112.8z M330.5,49c7,0,13.4-5.1,13.4-10.7
	c0-4.2-3.4-7-8.5-7.1c-6.9-0.1-13.5,4.9-13.7,10.5C321.5,46,325.2,49,330.5,49z M11.1,226c6-0.4,10-1.5,11.5-6.2
	c1.1-3.5-1.6-7.9-6.5-9.3c-3.3-1-7.3-1.4-10.6-0.7c-2.3,0.5-5.1,3.3-5.5,5.5c-0.4,2.2,1.3,5.6,3.1,7.1C5.7,224.4,9.3,225.3,11.1,226
	z M426.8,228.8c5.1,0,9-3.3,8.8-7.4c-0.2-5.3-7.3-10.8-13.8-10.6c-4.8,0.1-8.5,3.2-8.5,7.3C413.3,223.5,420,228.9,426.8,228.8z
	 M225.9,8.8c0.2-5-2.8-8.5-7.5-8.8c-5.9-0.3-11.6,4.9-11.9,11c-0.3,5.1,2.9,8.9,7.8,9.1C220,20.3,225.7,14.8,225.9,8.8z M111.6,41.5
	c-0.1-5.9-4.8-10.9-10.1-11c-5.1,0-9.2,4.5-9,9.9c0.2,5.9,4.9,10.7,10.3,10.6C107.9,51,111.7,46.8,111.6,41.5z M36.6,123.7
	c0.1-5.7-6.5-11.7-12.8-11.8c-4.7-0.1-8.2,3.1-8.3,7.4c-0.1,5.8,6.2,11.7,12.7,11.7C33,131,36.5,127.9,36.6,123.7z M294.4,162.7
	c4.8-0.1,9.2-3.3,9.2-6.7c0-3.6-4.1-6.5-9.2-6.4c-5.1,0.1-9,2.9-9.1,6.6C285.3,159.9,289.5,162.8,294.4,162.7z M138.4,164.1
	c3.2-0.2,5.8-1.8,6-5.9c0.2-4.3-4.9-9.3-9.6-9.1c-3.7,0.1-6.4,1.8-6.5,6C128.2,159.5,132.9,164,138.4,164.1z M214.6,122
	c4.4,0.1,9-4.4,9-9c-0.1-3.8-1.9-6.3-6-6.6c-4.7-0.3-9,3.8-9.2,8.6C208.3,118.9,210.9,121.9,214.6,122z"/>
<path class="st0" d="M306.2,203.7c-2.4,5.1-4,9.9-6.8,13.9c-1.1,1.6-4.9,2.1-7.4,1.9c-14.2-0.9-27.8,1-41.2,5.9
	c-4.3,1.6-5.3,3.7-4.6,8.1c6.9,44.2,13.4,88.5,20.3,132.8c0.6,3.9-1.3,4.7-4.2,5.1c-11.4,1.4-22.8,3.7-34.2,3.8
	c-17.3,0.1-34.5-1.3-51.8-2c-3.7-0.1-4.3-2-3.9-5.2c2.4-18.3,4.7-36.7,7.1-55c3.2-24.6,6.4-49.2,9.6-73.8
	c1.6-12.6,1.6-12.7-10.7-16.7c-12.5-4.1-25.3-5.7-38.3-2.6c-3.1,0.7-4.7,0-5.3-3.3c-0.7-3.9-1.6-7.8-2.6-11.7c-0.7-2.6,0-3.8,2.7-4
	c17.9-0.9,35.7-0.2,52.8,5.8c1.6,0.6,3.1,1.8,4.4,3.1c11.6,11,28.6,12.4,41.9,4c5.4-3.4,11.3-6.3,17.4-8c16.9-4.6,34.2-5,51.6-3
	C303.8,202.8,304.6,203.2,306.2,203.7z"/>
<path class="st0" d="M330.2,133.2c25.4-3.8,42.6-20.8,58.6-39.5c0.6,0.2,1.2,0.5,1.7,0.7c-1.2,6.7-1.6,13.7-3.8,20
	c-2.2,6.2-6.2,11.8-9.4,17.8c15.2,1.4,29.3,6.5,40.6,20.3c-26.5-2-52.1-6.2-75.2,7.5C338.7,151.2,334.6,142.6,330.2,133.2z"/>
<path class="st0" d="M104.4,136.9c-4.4,8.9-8.6,17.4-13.2,26.6C69,149.4,43.7,152,18.4,153.3c11.2-10,23.5-17.3,40.2-17.8
	c-10-11.8-16-24.2-12.5-40.8C62.9,114.1,78.8,132.6,104.4,136.9z"/>
<path class="st0" d="M75.7,63.7c15.3-2.8,30.2-3.6,45,4.7c-1.5-16,2.7-29,15.1-40.3c1.7,24,3.3,47.1,22.2,63.5
	c-9.2,5.2-18.1,10.4-27.5,15.7C119.8,84.1,97.5,74.3,75.7,63.7z"/>
<path class="st0" d="M298.4,27.7c8.7,11,15.3,22.5,12.9,38c15.4-6.7,30.5-9.7,46.9-3.5c-11.3,5.9-22.2,11-32.4,17.2
	c-10.5,6.3-19.9,14-24.2,25.9c-9.2-5.4-18.1-10.7-27.5-16.2C292.6,73.1,296.4,51,298.4,27.7z"/>
<path class="st0" d="M22.5,248.3c4.5-13.8,11-25.7,25-33.3c-15.3-5.6-27.6-13.5-34.1-28.8c12.8,3.6,24.8,7.4,37.1,10.3
	c12.4,2.9,25,3.4,37.3-1.1c1.3,9.6,2.6,18.8,4,29c-12-1-24.5,0.9-35.9,6.3C44.7,236,34,242.2,22.5,248.3z"/>
<path class="st0" d="M344,222.3c1.9-9.9,3.6-19.1,5.4-28.8c11.7,4.1,24.3,5.2,36.8,2.7c12.3-2.4,24.4-5.9,36.5-8.8
	c-3,8.7-17,19.9-33.4,26.3c12.4,8.7,21.8,19.3,23.2,35.5c-11.1-6.6-21.6-13.3-32.6-19C368.7,224.5,356.7,221.1,344,222.3z"/>
<path class="st0" d="M231.1,79.5c-10.8,0-21.4,0-32.7,0c5.2-24.2-6.5-43.7-19-63.1c14.2,4.8,27,11.1,35,25.5
	c8.8-14,20.4-23,37.5-26.3C239.8,35.8,225.9,54.5,231.1,79.5z"/>
<path class="st0" d="M276.1,135.9c2.8,8.8,0.7,18.8-6.1,30.3c12.3,0.4,23.4,3.4,32,12.9c-19.2,0.7-38.8-1.1-55.3,10.4
	c-4.2-6.5-8.3-12.7-12.6-19.5C253.1,165.5,265,151.8,276.1,135.9z"/>
<path class="st0" d="M227.6,167.5c-8.6,0-16.7,0-25.4,0c3.9-18.3-5-33.2-14.3-48.3c10.9,3.3,20.4,8.4,26.9,19.1
	c6.7-10.9,15.6-17.4,28.8-20.1C234.4,134,223.7,148.3,227.6,167.5z"/>
<path class="st0" d="M195.5,171.1c-4.1,6.9-7.7,13-11.8,19.8c-16-10.6-35.1-10.6-54.6-9.5c3.1-6,16.3-11.7,30.6-13.3
	c-6.1-9.2-10.6-18.7-6.8-30.6c6.4,7.1,12.2,14.1,18.7,20.5C178.4,164.5,186.2,169.6,195.5,171.1z"/>
<path class="st0" d="M410,112.8c6.5,0,12.1,4.3,11.8,8.9c-0.3,4.6-6.5,8.4-12.7,7.8c-0.2,0-0.3-0.1-0.5-0.1
	c-6.5-0.8-10.6-4.3-10.3-8.7C398.6,116.4,403.9,112.8,410,112.8z"/>
<path class="st0" d="M330.5,49c-5.3,0-9-3.1-8.9-7.3c0.2-5.5,6.8-10.6,13.7-10.5c5.1,0.1,8.5,2.9,8.5,7.1
	C343.9,44,337.5,49.1,330.5,49z"/>
<path class="st0" d="M11.1,226c-1.8-0.8-5.4-1.6-7.9-3.7c-1.9-1.5-3.6-5-3.1-7.1c0.4-2.2,3.3-4.9,5.5-5.5c3.3-0.8,7.3-0.4,10.6,0.7
	c4.9,1.5,7.6,5.9,6.5,9.3C21.2,224.5,17.2,225.6,11.1,226z"/>
<path class="st0" d="M426.8,228.8c-6.8,0.1-13.5-5.3-13.5-10.8c0-4,3.7-7.2,8.5-7.3c6.5-0.2,13.5,5.3,13.8,10.6
	C435.8,225.5,432,228.8,426.8,228.8z"/>
<path class="st0" d="M225.9,8.8c-0.2,6-5.9,11.6-11.7,11.3c-4.8-0.2-8-4-7.8-9.1c0.3-6.1,6.1-11.4,11.9-11
	C223,0.3,226,3.8,225.9,8.8z"/>
<path class="st0" d="M111.6,41.5c0.1,5.3-3.8,9.5-8.7,9.5c-5.5,0.1-10.1-4.7-10.3-10.6c-0.2-5.4,3.9-9.9,9-9.9
	C106.9,30.6,111.5,35.7,111.6,41.5z"/>
<path class="st0" d="M36.6,123.7c-0.1,4.2-3.6,7.3-8.4,7.3c-6.5,0-12.8-5.8-12.7-11.7c0.1-4.3,3.6-7.5,8.3-7.4
	C30.1,112,36.6,118,36.6,123.7z"/>
<path class="st0" d="M294.4,162.7c-5,0.1-9.1-2.8-9-6.5c0-3.7,4-6.5,9.1-6.6c5.1-0.1,9.2,2.8,9.2,6.4
	C303.6,159.4,299.2,162.5,294.4,162.7z"/>
<path class="st0" d="M138.4,164.1c-5.5-0.1-10.2-4.6-10.1-9.1c0.1-4.2,2.8-5.9,6.5-6c4.7-0.1,9.8,4.8,9.6,9.1
	C144.2,162.3,141.6,163.9,138.4,164.1z"/>
<path class="st0" d="M214.6,122c-3.7-0.1-6.3-3-6.2-7c0.1-4.9,4.4-8.9,9.2-8.6c4.1,0.3,5.9,2.7,6,6.6
	C223.7,117.6,219.1,122.1,214.6,122z"/>
</svg>
