<?xml version="1.0" encoding="utf-8"?>
<!-- Generator: Adobe Illustrator 25.2.1, SVG Export Plug-In . SVG Version: 6.00 Build 0)  -->
<svg version="1.1" id="Layer_1" xmlns="http://www.w3.org/2000/svg" xmlns:xlink="http://www.w3.org/1999/xlink" x="0px" y="0px"
	 viewBox="0 0 554 564.5" style="enable-background:new 0 0 554 564.5;" xml:space="preserve">
<style type="text/css">
	.st0{fill:#3F3D56;}
	.st1{fill:#E6E6E6;}
	.st2{fill:#00B0FF;}
	.st3{fill:#FFFFFF;}
	.st4{fill:#536DFE;}
	.st5{opacity:0.2;enable-background:new    ;}
	.st6{fill:#CCCCCC;}
</style>
<path class="st0" d="M417.5,381.5H84.2c-11.1,0-20-9-20-20V162.1c0-11.1,9-20,20-20h333.3c11.1,0,20,9,20,20v199.3
	C437.5,372.5,428.6,381.5,417.5,381.5z M84.2,145.5c-9.2,0-16.6,7.4-16.6,16.6v199.3c0,9.2,7.4,16.6,16.6,16.6h333.3
	c9.2,0,16.6-7.4,16.6-16.6V162.1c0-9.2-7.4-16.6-16.6-16.6H84.2z"/>
<path class="st0" d="M128.9,189c-7.9,0-14.3-6.4-14.3-14.3s6.4-14.3,14.3-14.3s14.3,6.4,14.3,14.3C143.2,182.6,136.8,189,128.9,189z
	 M128.9,163.8c-6,0-10.9,4.9-10.9,10.9s4.9,10.9,10.9,10.9s10.9-4.9,10.9-10.9l0,0C139.7,168.7,134.9,163.8,128.9,163.8z"/>
<path class="st0" d="M370.5,189c-7.9,0-14.3-6.4-14.3-14.3s6.4-14.3,14.3-14.3c7.9,0,14.3,6.4,14.3,14.3
	C384.8,182.6,378.4,189,370.5,189z M370.5,163.8c-6,0-10.9,4.9-10.9,10.9s4.9,10.9,10.9,10.9c6,0,10.9-4.9,10.9-10.9l0,0
	C381.4,168.7,376.5,163.8,370.5,163.8z"/>
<path class="st1" d="M162.6,276.1h-61.9c-5.4,0-9.7-4.4-9.7-9.7v-36.7c0-5.4,4.4-9.7,9.7-9.7h61.9c5.4,0,9.7,4.4,9.7,9.7v36.7
	C172.4,271.7,168,276.1,162.6,276.1z"/>
<path class="st1" d="M281.8,276.1h-61.9c-5.4,0-9.7-4.4-9.7-9.7v-36.7c0-5.4,4.4-9.7,9.7-9.7h61.9c5.4,0,9.7,4.4,9.7,9.7v36.7
	C291.5,271.7,287.1,276.1,281.8,276.1z"/>
<path class="st1" d="M339,221.1c-4.7,0-8.6,3.8-8.6,8.6v36.7c0,4.7,3.8,8.6,8.6,8.6h61.9c4.7,0,8.6-3.8,8.6-8.6v-36.7
	c0-4.7-3.8-8.6-8.6-8.6H339z"/>
<path class="st1" d="M163.2,349.4h-61.9c-5.4,0-9.7-4.4-9.7-9.7V303c0-5.4,4.4-9.7,9.7-9.7h61.9c5.4,0,9.7,4.4,9.7,9.7v36.7
	C173,345,168.6,349.4,163.2,349.4z"/>
<path class="st1" d="M282.3,349.4h-61.9c-5.4,0-9.7-4.4-9.7-9.7V303c0-5.4,4.4-9.7,9.7-9.7h61.9c5.4,0,9.7,4.4,9.7,9.7v36.7
	C292.1,345,287.7,349.4,282.3,349.4z"/>
<path class="st1" d="M401.5,349.4h-61.9c-5.4,0-9.7-4.4-9.7-9.7V303c0-5.4,4.4-9.7,9.7-9.7h61.9c5.4,0,9.7,4.4,9.7,9.7v36.7
	C411.2,345,406.8,349.4,401.5,349.4z"/>
<path class="st0" d="M128.9,178.7c-2.2,0-4-1.8-4-4v-57.3c0-2.2,1.8-4,4-4c2.2,0,4,1.8,4,4v57.3
	C132.9,176.9,131.1,178.7,128.9,178.7z"/>
<path class="st0" d="M370.5,178.7c-2.2,0-4-1.8-4-4v-57.3c0-2.2,1.8-4,4-4c2.2,0,4,1.8,4,4v57.3
	C374.5,176.9,372.8,178.7,370.5,178.7z"/>
<path id="b5e0804e-c461-433c-b77b-73087ef71cb0-128" class="st2" d="M129.4,262.9c-1.7,0-3.3-0.5-4.7-1.6l-0.1-0.1L107,247.8
	c-3.4-2.6-4.1-7.5-1.4-11c2.6-3.4,7.5-4.1,11-1.4l11.4,8.8l27-35.2c2.6-3.4,7.5-4.1,11-1.4l0,0l0,0l-0.2,0.2l0.2-0.2
	c3.4,2.6,4.1,7.5,1.4,11l-31.7,41.4C134.1,261.8,131.8,262.9,129.4,262.9L129.4,262.9z"/>
<path id="b3a0cc8c-ec19-4bca-9f18-6cf478ced8d1-129" class="st2" d="M251.9,335c-1.7,0-3.3-0.5-4.7-1.6l-0.1-0.1L229.6,320
	c-3.4-2.6-4.1-7.5-1.4-11c2.6-3.4,7.5-4.1,11-1.4l11.4,8.8l27-35.2c2.6-3.4,7.5-4.1,11-1.4l0,0l0,0l-0.2,0.2l0.2-0.2
	c3.4,2.6,4.1,7.5,1.4,11L258.2,332C256.7,333.9,254.4,335,251.9,335L251.9,335z"/>
<path id="b29a902b-cd84-4f58-97ad-17c408cf2b06-130" class="st2" d="M367.6,262.9c-1.7,0-3.3-0.5-4.7-1.6l-0.1-0.1l-17.6-13.5
	c-3.4-2.6-4.1-7.5-1.4-11c2.6-3.4,7.5-4.1,11-1.4l11.4,8.8l27-35.2c2.6-3.4,7.5-4.1,11-1.4l0,0l0,0l-0.2,0.2l0.2-0.2
	c3.4,2.6,4.1,7.5,1.4,11l-31.7,41.4C372.4,261.8,370.1,262.9,367.6,262.9L367.6,262.9z"/>
<circle class="st1" cx="424.5" cy="446.9" r="74.5"/>
<path class="st3" d="M484.3,423.9c7.3,18.9,5.2,40.2-5.6,57.3c-0.4,0.6-0.7,1.1-1.1,1.7c-15,22.2-42.3,32.7-68.3,26.3
	c-0.7-0.2-1.3-0.3-1.9-0.5c-34.1-9.5-54.1-44.8-44.6-78.9c1.7-6,4.2-11.8,7.6-17.1c0.4-0.6,0.7-1.1,1.1-1.7
	c15-22.2,42.3-32.7,68.3-26.3c0.7,0.2,1.3,0.3,1.9,0.5C461.2,390.6,477.1,404.9,484.3,423.9z"/>
<circle class="st4" cx="424.5" cy="446.9" r="58.6"/>
<path class="st5" d="M403.7,392.4c-0.8,0.3-1.6,0.7-2.4,1c31.1-9,63.5,9,72.5,40.1c8.1,28.2-5.9,58.1-32.7,69.8
	c1.6-0.5,3.3-1,4.9-1.6C476,490,491,456.1,479.4,426S433.8,380.8,403.7,392.4L403.7,392.4z"/>
<path class="st3" d="M402.1,388.4c-1,0.4-1.5,1.5-1.1,2.5l3,7.8c0.4,1,1.5,1.5,2.5,1.1s1.5-1.5,1.1-2.5l-3-7.8
	C404.2,388.5,403.1,388,402.1,388.4z"/>
<path class="st3" d="M441.7,385.2c-0.6-0.2-1.3-0.3-1.9-0.5c-0.6,0.2-1.1,0.7-1.3,1.4l-1.9,8.1c-0.2,1,0.4,2,1.4,2.3
	c1,0.2,2-0.4,2.3-1.4l1.9-8.1C442.3,386.3,442.1,385.6,441.7,385.2z"/>
<path class="st3" d="M472.8,406.8c-0.7-0.8-1.9-0.8-2.7-0.1c0,0,0,0,0,0l-6.1,5.7c-0.8,0.7-0.8,1.9-0.1,2.7c0.7,0.8,1.9,0.8,2.7,0.1
	l0,0l6.1-5.7C473.5,408.7,473.5,407.5,472.8,406.8z"/>
<path class="st3" d="M380.2,415.9l-6.8-4.7c-0.6-0.4-1.3-0.4-1.9-0.2c-0.4,0.6-0.7,1.1-1.1,1.7c0,0.6,0.3,1.2,0.8,1.6l6.8,4.7
	c0.9,0.6,2.1,0.4,2.7-0.5C381.3,417.7,381,416.5,380.2,415.9z"/>
<path class="st3" d="M372,447.9l-8.3-0.1c-1.1,0-1.9,0.8-1.9,1.9s0.8,1.9,1.9,1.9l8.3,0.1c1.1,0,1.9-0.8,1.9-1.9
	C373.9,448.7,373.1,447.9,372,447.9L372,447.9z"/>
<path class="st3" d="M442.9,494.1c-1,0.4-1.5,1.5-1.1,2.5l3,7.8c0.4,1,1.5,1.5,2.5,1.1s1.5-1.5,1.1-2.5l-3-7.8
	C445,494.2,443.9,493.7,442.9,494.1z"/>
<path class="st3" d="M477.9,479.6l-6.8-4.7c-0.9-0.6-2.1-0.4-2.7,0.5c-0.6,0.9-0.4,2.1,0.5,2.7l6.8,4.7c0.6,0.4,1.3,0.4,1.9,0.2
	c0.4-0.6,0.7-1.1,1.1-1.7C478.7,480.6,478.4,480,477.9,479.6z"/>
<path class="st3" d="M485.4,442.4l-8.3-0.1c-1.1,0-1.9,0.8-1.9,1.9s0.8,1.9,1.9,1.9l0,0l8.3,0.1c1.1,0,1.9-0.8,1.9-1.9
	C487.3,443.3,486.5,442.4,485.4,442.4L485.4,442.4L485.4,442.4z"/>
<path class="st3" d="M411.1,497.5c-1-0.2-2,0.4-2.3,1.4l-1.9,8.1c-0.1,0.6,0,1.3,0.5,1.7c0.6,0.2,1.3,0.3,1.9,0.5
	c0.6-0.2,1.1-0.7,1.3-1.4l1.9-8.1C412.8,498.7,412.1,497.7,411.1,497.5C411.1,497.5,411.1,497.5,411.1,497.5z"/>
<path class="st3" d="M385.1,478.8c-0.7-0.8-1.9-0.8-2.7-0.1c0,0,0,0,0,0l-6.1,5.7c-0.8,0.7-0.8,1.9-0.1,2.7c0.7,0.8,1.9,0.8,2.7,0.1
	l6.1-5.7C385.8,480.8,385.8,479.6,385.1,478.8z"/>
<path class="st0" d="M426.7,445.1c1.1,1.9,0.5,4.3-1.4,5.5l-29.5,17.5c-1.9,1.1-4.3,0.5-5.5-1.4c-1.1-1.9-0.5-4.3,1.4-5.5l29.5-17.5
	C423.1,442.6,425.5,443.2,426.7,445.1z"/>
<path class="st0" d="M473.4,467.3c-0.6,1.3-2.1,1.9-3.4,1.3L423,448c-1.3-0.6-1.9-2.1-1.3-3.4s2.1-1.9,3.4-1.3l47,20.6
	C473.3,464.4,473.9,465.9,473.4,467.3z"/>
<circle class="st6" cx="424.5" cy="446.9" r="4.5"/>
<path class="st1" d="M367.5,385.2c-2.5,12.6-9.8,23.2-20.2,32.3c-0.7,1.1-2.2,1.5-3.4,0.8c0,0,0,0,0,0l0,0
	c-10-6.3-13.4-19.4-7.2-29.5c6.2-10.2,19.4-13.4,29.5-7.2c0.1,0,0.2,0.1,0.2,0.1l0.3,0.2C367.8,382.6,368.2,384.1,367.5,385.2z"/>
<path class="st1" d="M423.8,359.6c3.2-11.4,15.1-18.1,26.6-14.8c0.1,0,0.2,0.1,0.3,0.1c11.3,3.4,17.6,15.4,14.4,26.7l0,0
	c-0.4,1.3-1.7,2.1-3,1.7c0,0,0,0,0,0c-12.9,0-25.1-3.9-36.6-10.3c-1.3-0.4-2.1-1.7-1.7-3L423.8,359.6z"/>
<path class="st1" d="M473.6,497.2c-0.7,0.8-0.6,2,0.3,2.7l17.3,14.4c0.8,0.7,2,0.6,2.7-0.3c0.7-0.8,0.6-2-0.2-2.7l-17.3-14.4
	C475.5,496.3,474.3,496.4,473.6,497.2z"/>
<path class="st1" d="M419.8,518.8l-3.2,22.3c-0.1,1,0.6,2,1.6,2.2c1,0.1,2-0.6,2.2-1.6l3.2-22.3c0.1-1-0.6-2-1.6-2.2
	C420.9,517,419.9,517.7,419.8,518.8L419.8,518.8L419.8,518.8z"/>
<circle class="st1" cx="493" cy="512.7" r="5.9"/>
<circle class="st1" cx="359.9" cy="387.5" r="5.9"/>
<circle class="st1" cx="395.9" cy="373.7" r="5.9"/>
<circle class="st1" cx="360.9" cy="401.3" r="5.9"/>
<circle class="st1" cx="418.9" cy="541.2" r="5.9"/>
</svg>
