<svg width="24" height="24" viewBox="0 0 24 24" fill="none" xmlns="http://www.w3.org/2000/svg">
<path d="M23.25 10.7712V10.7735V20.3991C23.2492 21.155 22.9485 21.8796 22.4141 22.4141C21.8796 22.9486 21.155 23.2492 20.3992 23.25H18.0008C17.245 23.2492 16.5203 22.9486 15.9859 22.4141C15.4514 21.8796 15.1508 21.155 15.15 20.3991L15.15 17.9999L15.15 17.999C15.1493 17.4823 14.9438 16.9869 14.5784 16.6215C14.213 16.2562 13.7177 16.0506 13.201 16.0499H13.2H10.8H10.799C10.2823 16.0506 9.78696 16.2562 9.4216 16.6215C9.05623 16.9869 8.85067 17.4823 8.85 17.999V17.9999V20.3991C8.84918 21.155 8.54856 21.8796 8.0141 22.4141C7.47965 22.9486 6.75502 23.2492 5.99919 23.25H3.60083C2.845 23.2492 2.12037 22.9486 1.58592 22.4141C1.05155 21.8797 0.750938 21.1552 0.750017 20.3995L0.750021 10.7735L0.750014 10.7711C0.748664 10.3377 0.84698 9.90977 1.03736 9.52041C1.22775 9.13104 1.5051 8.79066 1.848 8.52557L1.84972 8.52422L11.7233 0.844776C11.7233 0.844725 11.7234 0.844675 11.7235 0.844624C11.8026 0.783288 11.8999 0.75 12 0.75C12.1002 0.75 12.1975 0.783338 12.2767 0.84476C12.2767 0.844765 12.2767 0.84477 12.2767 0.844775L22.1497 8.52364L22.1514 8.52503C22.4945 8.79017 22.772 9.13063 22.9624 9.5201C23.1529 9.90957 23.2513 10.3376 23.25 10.7712Z" stroke="white" stroke-width="1.5"/>
</svg>
