<svg width="26" height="26" viewBox="0 0 26 26" fill="none" xmlns="http://www.w3.org/2000/svg">
<path d="M8.82158 22.8496H8.82153V22.9996C8.82153 23.4733 8.48146 23.8287 8.09886 23.8287H7.80116C7.41856 23.8287 7.07849 23.4733 7.07849 22.9996V22.3208H8.82158V22.8496ZM23.5953 3.71834H22.8387C22.55 2.0904 21.1256 0.85 19.4156 0.85H6.58416C4.87422 0.85 3.4498 2.0904 3.16102 3.71834H2.40478C1.54395 3.71834 0.85 4.43388 0.85 5.30624V9.85786C0.85 10.7303 1.54395 11.4458 2.40478 11.4458H3.10678V18.8434C3.10678 20.4762 4.23781 21.8491 5.75722 22.2212V22.9996C5.75722 24.1777 6.6665 25.15 7.80116 25.15H8.09886C9.23351 25.15 10.1428 24.1777 10.1428 22.9996V22.3208H15.8573V22.9996C15.8573 24.1777 16.7665 25.15 17.9012 25.15H18.1986C19.3333 25.15 20.2426 24.1777 20.2426 22.9996V22.2212C21.762 21.8492 22.893 20.4762 22.893 18.8434V11.4458H23.5953C24.456 11.4458 25.15 10.7303 25.15 9.85791V5.30624C25.15 4.43389 24.4561 3.71834 23.5953 3.71834ZM6.58416 2.17127H19.4157C20.6045 2.17127 21.5718 3.13862 21.5718 4.32713V5.2131H4.42806V4.32713C4.42806 3.13862 5.39534 2.17127 6.58416 2.17127ZM4.42806 6.53438H12.2808V13.9311H4.42806V6.53438ZM13.6021 6.53438H21.5717V13.9311H13.6021V6.53438ZM2.40478 10.1245C2.28765 10.1245 2.17127 10.0166 2.17127 9.85791V5.30624C2.17127 5.14749 2.28762 5.03962 2.40478 5.03962H3.10678V10.1245L2.40478 10.1245ZM18.1986 23.8287H17.9012C17.5186 23.8287 17.1785 23.4733 17.1785 22.9996V22.3208H18.9213V22.9996C18.9213 23.4733 18.5812 23.8287 18.1986 23.8287ZM19.4156 20.9995H6.58416C5.39535 20.9995 4.42806 20.0322 4.42806 18.8434V15.2524H21.5717V18.8434C21.5717 20.0322 20.6044 20.9995 19.4156 20.9995ZM23.8287 9.85791C23.8287 10.0167 23.7124 10.1245 23.5953 10.1245H22.8931V5.03962H23.5953C23.7124 5.03962 23.8287 5.14747 23.8287 5.30624V9.85791Z" fill="#575757" stroke="#575757" stroke-width="0.3"/>
</svg>
