<svg width="14" height="22" viewBox="0 0 14 22" fill="none" xmlns="http://www.w3.org/2000/svg">
<path d="M11.727 0.545455H2.18155C1.12773 0.545455 0.272461 1.48625 0.272461 2.64546V19.4455C0.272461 20.6047 1.12773 21.5455 2.18155 21.5455H11.727C12.7808 21.5455 13.6361 20.6047 13.6361 19.4455V2.64546C13.6361 1.48625 12.7757 0.545455 11.727 0.545455ZM6.95173 19.4455C6.42228 19.4455 5.99464 18.9751 5.99464 18.3927C5.99464 17.8103 6.42228 17.3399 6.95173 17.3399C7.48119 17.3399 7.90882 17.8103 7.90882 18.3927C7.90373 18.9751 7.48119 19.4455 6.95173 19.4455ZM11.727 15.2455H2.18155V2.64546H11.727V15.2455Z" fill="#575757"/>
</svg>
