<svg width="18" height="17" viewBox="0 0 18 17" fill="none" xmlns="http://www.w3.org/2000/svg">
<path d="M1.86211 13.9644H1.24139V14.5341C1.24139 14.9904 1.48408 15.3993 1.86208 15.6321L1.86211 13.9644Z" fill="#575757"/>
<path d="M0.676863 6.67863C0.642726 6.48069 0.620683 6.27882 0.620683 6.07149V5.46436C0.278367 5.46436 0 5.73665 0 6.07149C0 6.40634 0.278367 6.67863 0.620683 6.67863H0.676863Z" fill="#575757"/>
<path d="M11.1724 13.9644H10.5518V14.5341C10.5518 14.9904 10.7944 15.3993 11.1724 15.6321V13.9644Z" fill="#575757"/>
<path d="M6.82758 15.6321C7.20589 15.3993 7.44826 14.9904 7.44826 14.5341V13.9644H6.82758V15.6321Z" fill="#575757"/>
<path d="M7.4483 6.07146V4.62524C7.4483 4.50959 7.38252 4.40546 7.27667 4.35353L6.66685 4.05541C6.36921 4.182 6.04398 4.24999 5.7088 4.24999H5.50553C5.3308 4.24999 5.15544 4.23117 4.98476 4.19414L2.56566 3.6684C2.48775 3.65141 2.4083 3.64288 2.32916 3.64288C1.72926 3.64288 1.24139 4.1201 1.24139 4.70722V6.07146C1.24139 7.74535 2.63362 9.10718 4.34485 9.10718C6.05608 9.10718 7.4483 7.74538 7.4483 6.07146ZM2.79312 5.46433C2.62212 5.46433 2.48276 5.60034 2.48276 5.76791V6.0715H1.86211V5.76791C1.86211 5.2658 2.27984 4.85719 2.79316 4.85719C3.30647 4.85719 3.7242 5.2658 3.7242 5.76791V6.0715H3.10348V5.76791C3.10348 5.60034 2.96412 5.46433 2.79312 5.46433ZM5.52075 7.78909C5.29667 8.22775 4.84607 8.50005 4.34485 8.50005C3.84362 8.50005 3.39303 8.22775 3.16894 7.78909L3.13635 7.72502L3.69157 7.45331L3.72416 7.51766C3.84239 7.74899 4.08012 7.89287 4.34485 7.89287C4.60957 7.89287 4.8473 7.74899 4.96553 7.51766L4.99812 7.45359L5.55334 7.7253L5.52075 7.78909ZM5.89657 5.46433C5.72557 5.46433 5.58621 5.60034 5.58621 5.76791V6.0715H4.96553V5.76791C4.96553 5.2658 5.38326 4.85719 5.89657 4.85719C6.40989 4.85719 6.82762 5.2658 6.82762 5.76791V6.0715H6.20693V5.76791C6.20693 5.60034 6.06757 5.46433 5.89657 5.46433Z" fill="#575757"/>
<path d="M2.32912 3.03575C2.45357 3.03575 2.57834 3.04909 2.69967 3.07551L5.1188 3.60128C5.24543 3.62889 5.37576 3.64285 5.50549 3.64285H5.70876C6.30525 3.64285 6.85921 3.35296 7.19003 2.86725L7.70644 3.20391C7.58508 3.38181 7.44172 3.54027 7.28095 3.67686L7.55436 3.81043C7.87185 3.96587 8.0689 4.27822 8.0689 4.62521V3.64285C8.0689 1.63413 6.39831 0 4.34477 0C2.29122 0 0.620667 1.63416 0.620667 3.64292V4.70726C0.620667 3.7856 1.38721 3.03575 2.32912 3.03575Z" fill="#575757"/>
<path d="M8.069 6.07149C8.069 6.27882 8.04695 6.48072 8.01282 6.67863H8.069C8.41131 6.67863 8.68968 6.40634 8.68968 6.07149C8.68968 5.73665 8.41131 5.46436 8.069 5.46436V6.07149Z" fill="#575757"/>
<path d="M5.68613 10.3579C5.67495 10.3549 5.66348 10.3518 5.65199 10.3491L4.6629 11.0747L5.15541 11.3961L5.68613 10.3579Z" fill="#575757"/>
<path d="M3.00348 10.3579L3.53416 11.3961L4.02667 11.0747L3.03758 10.3491C3.02615 10.3521 3.01498 10.3549 3.00348 10.3579Z" fill="#575757"/>
<path d="M5.22088 9.90645L5.12747 9.63202C4.87483 9.68484 4.61324 9.71428 4.34478 9.71428C4.07633 9.71428 3.8147 9.68484 3.5621 9.63171L3.46869 9.90614L4.34478 10.5491L5.22088 9.90645Z" fill="#575757"/>
<path d="M16.7586 6.07146V4.62524C16.7586 4.50959 16.6929 4.40546 16.587 4.35353L15.9772 4.05541C15.6796 4.182 15.3543 4.24999 15.0191 4.24999H14.8159C14.6411 4.24999 14.4658 4.23117 14.2951 4.19414L11.876 3.6684C11.7981 3.65141 11.7186 3.64288 11.6395 3.64288C11.0396 3.64288 10.5517 4.1201 10.5517 4.70722V6.07146C10.5517 7.74535 11.9439 9.10718 13.6551 9.10718C15.3664 9.10718 16.7586 7.74538 16.7586 6.07146ZM11.4828 5.76791C11.4828 5.43248 11.7605 5.16078 12.1035 5.16078C12.4464 5.16078 12.7241 5.43248 12.7241 5.76791C12.7241 6.10334 12.4464 6.37505 12.1035 6.37505C11.7605 6.37505 11.4828 6.10334 11.4828 5.76791ZM14.8311 7.78909C14.607 8.22775 14.1564 8.50005 13.6552 8.50005C13.154 8.50005 12.7034 8.22775 12.4793 7.78909L12.4467 7.72502L13.0019 7.45331L13.0345 7.51766C13.1527 7.74899 13.3905 7.89287 13.6552 7.89287C13.9199 7.89287 14.1576 7.74899 14.2759 7.51766L14.3085 7.45359L14.8637 7.7253L14.8311 7.78909ZM15.2069 6.37505C14.864 6.37505 14.5862 6.10334 14.5862 5.76791C14.5862 5.43248 14.864 5.16078 15.2069 5.16078C15.5498 5.16078 15.8276 5.43248 15.8276 5.76791C15.8276 6.10334 15.5498 6.37505 15.2069 6.37505Z" fill="#575757"/>
<path d="M13.6552 6.10352e-05C11.2593 6.10352e-05 9.31036 1.90648 9.31036 4.25005V8.55135C9.31036 9.42593 9.72127 10.2347 10.4158 10.7674C10.8872 10.2978 11.4859 9.94441 12.1733 9.76318L12.2788 9.45354C10.9055 8.91653 9.93105 7.60449 9.93105 6.07146V4.70722C9.93105 3.78556 10.6976 3.03574 11.6395 3.03574C11.764 3.03574 11.8887 3.04909 12.01 3.0755L14.4292 3.60127C14.5558 3.62888 14.6861 3.64285 14.8159 3.64285H15.0191C15.6156 3.64285 16.1696 3.35295 16.5004 2.86724L17.0168 3.20391C16.8955 3.3818 16.7518 3.54026 16.591 3.67686L16.8645 3.81042C17.1822 3.96586 17.3793 4.27822 17.3793 4.6252V6.07143C17.3793 7.60445 16.4048 8.91649 15.0312 9.45351L15.1367 9.76315C15.8241 9.94438 16.4228 10.298 16.8945 10.7674C17.5891 10.2347 18 9.42593 18 8.55135V4.25005C18 1.90648 16.051 6.10352e-05 13.6552 6.10352e-05Z" fill="#575757"/>
<path d="M15.1026 10.3892L15.1035 10.3862C15.047 10.3689 14.9887 10.3555 14.9307 10.3409L13.985 10.8033C14.107 10.8855 14.2479 10.9286 14.396 10.9286C14.7308 10.9286 15.0213 10.7067 15.1026 10.3892Z" fill="#575757"/>
<path d="M16.1379 15.6321C16.5162 15.3993 16.7586 14.9904 16.7586 14.5341V13.9644H16.1379V15.6321Z" fill="#575757"/>
<path d="M12.2077 10.3892C12.289 10.7067 12.5795 10.9286 12.9144 10.9286C13.0636 10.9286 13.2055 10.8843 13.3259 10.8036L12.38 10.3409C12.3219 10.3555 12.2636 10.3689 12.2071 10.3862L12.2077 10.3892Z" fill="#575757"/>
<path d="M13.6552 9.71428C13.3867 9.71428 13.1251 9.68484 12.8725 9.63171L12.7933 9.86394L13.6552 10.2856L14.517 9.86425L14.4378 9.63202C14.1852 9.68484 13.9236 9.71428 13.6552 9.71428Z" fill="#575757"/>
<path d="M15.5172 12.8757C15.5172 12.6799 15.4393 12.496 15.2975 12.3575L15.7366 11.9283C15.9954 12.1814 16.1379 12.5178 16.1379 12.8757V13.3572H17.3787C17.3544 12.183 16.6897 11.156 15.6746 10.6229C15.4949 11.1636 14.9843 11.5358 14.3959 11.5358C14.1284 11.5358 13.8727 11.4602 13.6545 11.3193C13.4348 11.4611 13.1803 11.5358 12.9143 11.5358C12.3259 11.5358 11.8154 11.1636 11.6357 10.6229C10.6203 11.1563 9.95581 12.183 9.93162 13.3572H11.1724V12.8757C11.1724 12.5178 11.3148 12.1814 11.5733 11.9283L12.0125 12.3575C11.871 12.4959 11.7931 12.6802 11.7931 12.8757V16.3929H6.20689V12.8757C6.20689 12.6799 6.12898 12.496 5.98716 12.3575L6.4263 11.9283C6.68512 12.1814 6.82757 12.5178 6.82757 12.8757V13.3572H8.06834C8.0432 12.1468 7.33843 11.092 6.26957 10.5741L5.39625 12.2826L4.3448 11.5971L3.29335 12.2826L2.42007 10.574C1.35125 11.0919 0.646436 12.1468 0.621299 13.3572H1.86207V12.8757C1.86207 12.5178 2.00452 12.1814 2.26303 11.9282L2.70216 12.3575C2.56066 12.4959 2.48275 12.6802 2.48275 12.8757V16.3928H0.620667V17H17.3793V16.3928H15.5172V12.8757ZM13.0345 12.75H14.2758V13.3572H13.0345V12.75ZM13.0345 13.9643H14.2758V14.5715H13.0345V13.9643Z" fill="#575757"/>
</svg>
