<svg width="22" height="22" viewBox="0 0 22 22" fill="none" xmlns="http://www.w3.org/2000/svg">
<circle cx="11" cy="11" r="11" fill="#C2ACC8"/>
<path d="M11.2053 4.63054C11.1488 4.57976 11.0757 4.5517 11 4.5517C10.9243 4.5517 10.8512 4.57976 10.7947 4.63054C10.6018 4.8039 6.06897 8.92579 6.06897 13.2414C6.06897 14.5583 6.58849 15.8213 7.51324 16.7525C8.43798 17.6837 9.69221 18.2069 11 18.2069C12.3078 18.2069 13.562 17.6837 14.4868 16.7525C15.4115 15.8213 15.931 14.5583 15.931 13.2414C15.931 8.92579 11.3982 4.8039 11.2053 4.63054ZM9.57133 16.3536C9.53037 16.4248 9.46301 16.4767 9.38406 16.4979C9.3051 16.5192 9.22101 16.508 9.15025 16.4668C8.58907 16.1388 8.12309 15.6683 7.79875 15.1024C7.4744 14.5364 7.30304 13.8948 7.30173 13.2414C7.30173 13.1591 7.3342 13.0801 7.392 13.0219C7.44979 12.9637 7.52818 12.931 7.60992 12.931C7.69166 12.931 7.77004 12.9637 7.82784 13.0219C7.88564 13.0801 7.91811 13.1591 7.91811 13.2414C7.91921 13.786 8.06207 14.3208 8.33245 14.7924C8.60283 15.2641 8.99128 15.6561 9.45906 15.9294C9.49409 15.9499 9.52478 15.977 9.54939 16.0094C9.57399 16.0418 9.59202 16.0787 9.60244 16.1181C9.61287 16.1575 9.61549 16.1986 9.61015 16.239C9.60481 16.2794 9.59162 16.3183 9.57133 16.3536Z" fill="#5F3787"/>
</svg>
