<svg width="22" height="22" viewBox="0 0 22 22" fill="none" xmlns="http://www.w3.org/2000/svg">
<circle cx="11" cy="11" r="11" fill="#C2ACC8"/>
<path d="M7.07054 5C6.96009 5 6.87054 5.08954 6.87054 5.2V6.2618C6.87054 6.36906 6.95583 6.45545 7.06094 6.47676C7.61304 6.58869 8.02991 7.07768 8.02991 7.66229V8.13099C8.02991 8.18541 8.0263 8.239 8.01929 8.29155C8.00062 8.43161 8.09844 8.57598 8.23974 8.57598H10.1461C10.2566 8.57598 10.3461 8.66552 10.3461 8.77597V8.95827C10.3461 10.0812 9.43242 10.9949 8.3095 10.9949H8.22991C8.11946 10.9949 8.02991 11.0844 8.02991 11.1949V11.5347C8.02991 11.6452 8.11946 11.7347 8.22991 11.7347H15.1575C15.2679 11.7347 15.3575 11.6452 15.3575 11.5347V5.2C15.3575 5.08954 15.2679 5 15.1575 5H7.07054ZM10.3622 6.91536C10.3622 7.02582 10.2726 7.11536 10.1622 7.11536H9.79757C9.68712 7.11536 9.59757 7.02582 9.59757 6.91536V6.55077C9.59757 6.44031 9.68712 6.35077 9.79757 6.35077H10.1622C10.2726 6.35077 10.3622 6.44031 10.3622 6.55077V6.91536ZM14.389 9.97371C14.389 10.0842 14.2994 10.1737 14.189 10.1737H11.3267C11.2163 10.1737 11.1267 10.0842 11.1267 9.97371V9.60912C11.1267 9.49866 11.2163 9.40912 11.3267 9.40912H14.189C14.2994 9.40912 14.389 9.49866 14.389 9.60912V9.97371ZM14.389 8.44453C14.389 8.55499 14.2994 8.64453 14.189 8.64453H11.3267C11.2163 8.64453 11.1267 8.55499 11.1267 8.44453V8.07995C11.1267 7.96949 11.2163 7.87995 11.3267 7.87995H14.189C14.2994 7.87995 14.389 7.96949 14.389 8.07995V8.44453ZM14.389 6.91536C14.389 7.02582 14.2994 7.11536 14.189 7.11536H11.3267C11.2163 7.11536 11.1267 7.02582 11.1267 6.91536V6.55077C11.1267 6.44031 11.2163 6.35077 11.3267 6.35077H14.189C14.2994 6.35077 14.389 6.44031 14.389 6.55077V6.91536Z" fill="#5F3787"/>
<path d="M6.82035 8.57596C7.06517 8.57607 7.26518 8.37697 7.26534 8.13097V7.66228C7.26674 7.41529 7.05979 7.21594 6.82035 7.21729C6.57517 7.21729 6.37561 7.41685 6.37561 7.66228V8.13097C6.37561 8.37641 6.57517 8.57596 6.82035 8.57596Z" fill="#5F3787"/>
<path d="M9.41346 9.58988C9.48077 9.47267 9.38525 9.34052 9.2501 9.34052H6.82036C6.02774 9.34052 5.38293 9.98532 5.38293 10.7779V11.5538C5.38293 11.6643 5.47248 11.7538 5.58293 11.7538H7.06535C7.17581 11.7538 7.26535 11.6643 7.26535 11.5538V10.4302C7.26535 10.3198 7.35489 10.2302 7.46535 10.2302H8.30952C8.78128 10.2302 9.19387 9.97228 9.41346 9.58988Z" fill="#5F3787"/>
<path d="M6.66666 14.3333C7.21894 14.3333 7.66666 13.8856 7.66666 13.3333C7.66666 12.781 7.21894 12.3333 6.66666 12.3333C6.11437 12.3333 5.66666 12.781 5.66666 13.3333C5.66666 13.8856 6.11437 14.3333 6.66666 14.3333Z" fill="#5F3787"/>
<path d="M8.53333 16.6667C8.60697 16.6667 8.66667 16.607 8.66667 16.5334C8.66667 15.5024 7.84586 14.6667 6.83333 14.6667C5.82081 14.6667 5 15.5024 5 16.5334C5 16.607 5.0597 16.6667 5.13333 16.6667H8.53333Z" fill="#5F3787"/>
<path d="M11 14.3333C11.5523 14.3333 12 13.8856 12 13.3333C12 12.781 11.5523 12.3333 11 12.3333C10.4477 12.3333 10 12.781 10 13.3333C10 13.8856 10.4477 14.3333 11 14.3333Z" fill="#5F3787"/>
<path d="M12.5333 16.6667C12.607 16.6667 12.6667 16.607 12.6667 16.5334C12.6667 15.5024 11.8459 14.6667 10.8333 14.6667C9.82081 14.6667 9 15.5024 9 16.5334C9 16.607 9.0597 16.6667 9.13333 16.6667H12.5333Z" fill="#5F3787"/>
<path d="M15 14.3333C15.5523 14.3333 16 13.8856 16 13.3333C16 12.781 15.5523 12.3333 15 12.3333C14.4477 12.3333 14 12.781 14 13.3333C14 13.8856 14.4477 14.3333 15 14.3333Z" fill="#5F3787"/>
<path d="M16.8667 16.6667C16.9403 16.6667 17 16.607 17 16.5334C17 15.5024 16.1046 14.6667 15 14.6667C13.8954 14.6667 13 15.5024 13 16.5334C13 16.607 13.0597 16.6667 13.1333 16.6667H16.8667Z" fill="#5F3787"/>
</svg>
