<svg width="22" height="22" viewBox="0 0 22 22" fill="none" xmlns="http://www.w3.org/2000/svg">
<circle cx="11" cy="11" r="11" fill="#C2ACC8"/>
<path d="M10.9098 5.28459V16.7154C10.9098 16.8463 10.7988 16.9535 10.6631 16.9535C10.5274 16.9535 10.4164 16.8463 10.4164 16.7154V5.28459C10.4164 5.15361 10.5274 5.04645 10.6631 5.04645C10.7988 5.04645 10.9098 5.15361 10.9098 5.28459Z" fill="#5F3787"/>
<path d="M5.49527 6.67295C5.49527 5.77516 6.2501 5.04645 7.17761 5.04645C8.10759 5.04645 8.86242 5.77516 8.86242 6.67295C8.86242 7.56836 8.10759 8.29707 7.17761 8.29707C6.2501 8.29707 5.49527 7.56836 5.49527 6.67295Z" fill="#5F3787"/>
<path d="M12.4639 6.67295C12.4639 5.77516 13.2187 5.04645 14.1462 5.04645C15.0762 5.04645 15.831 5.77516 15.831 6.67295C15.831 7.56836 15.0762 8.29707 14.1462 8.29707C13.2187 8.29707 12.4639 7.56836 12.4639 6.67295Z" fill="#5F3787"/>
<path d="M9.31136 9.4378V12.8313C9.31136 13.2028 9.05481 13.5172 8.70453 13.6196V16.1296C8.70453 16.5844 8.32218 16.9535 7.85102 16.9535H6.50663C6.03547 16.9535 5.65312 16.5844 5.65312 16.1296V13.6196C5.30284 13.5172 5.0463 13.2028 5.0463 12.8313V9.4378C5.0463 8.98295 5.43111 8.61383 5.8998 8.61383H8.45785C8.92654 8.61383 9.31136 8.98295 9.31136 9.4378Z" fill="#5F3787"/>
<path d="M16.9484 13.3695C16.9632 13.4409 16.9435 13.5124 16.8966 13.5672C16.8498 13.6219 16.7807 13.6553 16.7067 13.6553H15.6731V16.3653C15.6731 16.6892 15.3993 16.9535 15.0638 16.9535H13.231C12.8955 16.9535 12.6217 16.6892 12.6217 16.3653V13.6553H11.5881C11.5141 13.6553 11.4451 13.6219 11.3982 13.5672C11.3513 13.5124 11.3316 13.4409 11.3464 13.3695L12.2147 9.08773C12.269 8.81387 12.5206 8.61383 12.8117 8.61383H15.4832C15.7743 8.61383 16.0259 8.81387 16.0801 9.09011L16.9484 13.3695Z" fill="#5F3787"/>
</svg>
