<svg width="22" height="22" viewBox="0 0 22 22" fill="none" xmlns="http://www.w3.org/2000/svg">
<circle cx="11" cy="11" r="11" fill="#C2ACC8"/>
<path d="M12.8169 6.78617C12.3555 6.32367 11.7112 6.06897 11 6.06897C10.285 6.06897 9.63857 6.32212 9.17938 6.78176C8.71521 7.24647 8.48905 7.87803 8.54215 8.56001C8.64741 9.90547 9.74999 11 11 11C12.25 11 13.3507 9.90569 13.4576 8.56045C13.5115 7.88464 13.2839 7.25439 12.8169 6.78617Z" fill="#5F3787"/>
<path d="M15.1723 15.931H6.82771C6.71848 15.9323 6.61032 15.911 6.51108 15.8686C6.41184 15.8262 6.32402 15.7638 6.25401 15.686C6.09992 15.5149 6.03781 15.2814 6.0838 15.0452C6.28388 14.0145 6.90831 13.1487 7.88974 12.5409C8.76166 12.0014 9.86613 11.7044 11 11.7044C12.1339 11.7044 13.2383 12.0016 14.1103 12.5409C15.0917 13.1485 15.7161 14.0143 15.9162 15.0449C15.9622 15.2811 15.9001 15.5147 15.746 15.6858C15.676 15.7637 15.5882 15.8261 15.489 15.8685C15.3897 15.9109 15.2815 15.9323 15.1723 15.931Z" fill="#5F3787"/>
</svg>
