<svg width="22" height="22" viewBox="0 0 22 22" fill="none" xmlns="http://www.w3.org/2000/svg">
<circle cx="11" cy="11" r="11" fill="#C2ACC8"/>
<path d="M15.5834 11.4167H11.8334C11.6034 11.4167 11.4167 11.6034 11.4167 11.8334V15.5834C11.4167 15.8134 11.6034 16 11.8334 16H15.5834C15.8134 16 16 15.8134 16 15.5834V11.8334C16 11.6034 15.8134 11.4167 15.5834 11.4167Z" fill="#5F3787"/>
<path d="M15.5834 6H11.8334C11.6034 6 11.4167 6.18667 11.4167 6.41667V10.1667C11.4167 10.3967 11.6034 10.5833 11.8334 10.5833H15.5834C15.8134 10.5833 16 10.3967 16 10.1667V6.41667C16 6.18667 15.8134 6 15.5834 6Z" fill="#5F3787"/>
<path d="M6.41667 16H10.1667C10.3967 16 10.5833 15.8133 10.5833 15.5833V6.41667C10.5833 6.18667 10.3967 6 10.1667 6H6.41667C6.18667 6 6 6.18667 6 6.41667V15.5833C6 15.8133 6.18667 16 6.41667 16Z" fill="#5F3787"/>
</svg>
