<svg width="22" height="22" viewBox="0 0 22 22" fill="none" xmlns="http://www.w3.org/2000/svg">
<circle cx="11" cy="11" r="11" fill="#C2ACC8"/>
<path d="M8.1551 5.31036C7.93064 5.31036 7.74869 5.49232 7.74869 5.71678V6.52957H8.56149V5.71678C8.56149 5.49232 8.37953 5.31036 8.1551 5.31036Z" fill="#5F3787"/>
<path d="M13.8448 5.31036C13.6203 5.31036 13.4384 5.49232 13.4384 5.71678V6.52957H14.2512V5.71678C14.2512 5.49232 14.0692 5.31036 13.8448 5.31036Z" fill="#5F3787"/>
<path d="M15.4704 6.5296H14.2512V8.15522C14.2512 8.37968 14.0692 8.56164 13.8448 8.56164C13.6203 8.56164 13.4384 8.37968 13.4384 8.15522V6.5296H8.56152V8.15522C8.56152 8.37968 8.37957 8.56164 8.15511 8.56164C7.93065 8.56164 7.7487 8.37968 7.7487 8.15522V6.5296H6.52951C5.85616 6.5296 5.3103 7.07546 5.3103 7.74881V15.4705C5.3103 16.1438 5.85616 16.6897 6.52951 16.6897H15.4704C16.1438 16.6897 16.6896 16.1438 16.6896 15.4705V7.74881C16.6896 7.07546 16.1438 6.5296 15.4704 6.5296ZM15.8768 15.4705C15.8768 15.6949 15.6948 15.8769 15.4704 15.8769H6.52951C6.30506 15.8769 6.1231 15.6949 6.1231 15.4705V10.1872H15.8768V15.4705Z" fill="#5F3787"/>
<path d="M13.7259 11.1193C13.5672 10.9605 13.3098 10.9604 13.151 11.1191L10.1871 14.083L8.84881 12.7447C8.69001 12.586 8.43264 12.5861 8.27395 12.7449C8.11526 12.9037 8.11536 13.1611 8.27417 13.3198L9.89979 14.9454C10.0585 15.1041 10.3157 15.1041 10.4744 14.9454L13.7257 11.6941C13.8845 11.5355 13.8846 11.2781 13.7259 11.1193Z" fill="#5F3787"/>
</svg>
