<?xml version="1.0" encoding="utf-8"?>
<!-- Generator: Adobe Illustrator 25.0.0, SVG Export Plug-In . SVG Version: 6.00 Build 0)  -->
<svg version="1.1" xmlns="http://www.w3.org/2000/svg" xmlns:xlink="http://www.w3.org/1999/xlink" x="0px" y="0px"
	 viewBox="0 0 500 500" style="enable-background:new 0 0 500 500;" xml:space="preserve">
<style type="text/css">
	.st0{opacity:0.7;fill:#FFFFFF;}
	.st1{fill:#92E3A9;}
	.st2{opacity:0.7;fill:#DC3545;}
	.st3{fill:none;stroke:#263238;stroke-miterlimit:10;}
	.st4{opacity:0.2;fill-opacity:0.7;}
	.st5{fill:#FFFFFF;}
	.st6{opacity:0.4;fill:#DC3545;}
	.st7{fill:none;stroke:#263238;stroke-linecap:round;stroke-linejoin:round;stroke-miterlimit:10;}
	.st8{fill:#263238;}
	.st9{fill:#DC3545;stroke:#263238;stroke-linecap:round;stroke-linejoin:round;stroke-miterlimit:10;}
	.st10{fill:none;stroke:#FFFFFF;stroke-miterlimit:10;}
	.st11{fill:none;stroke:#FFFFFF;stroke-linecap:round;stroke-linejoin:round;stroke-miterlimit:10;}
	.st12{fill:#263238;stroke:#263238;stroke-linecap:round;stroke-linejoin:round;stroke-miterlimit:10;}
	.st13{opacity:0.3;}
	.st14{fill:#DB2A2F;}
</style>
<g id="Background_Simple">
	<g>
		<path class="st0" d="M67.9,167.1c0,0-27.9,72,11.3,144.5c39.2,72.5,119.9,110.8,184.5,143.5c64.6,32.7,131.7,16.8,163.5-36.8
			c31.9-53.6-11.8-91.9-11.9-168.4c-0.1-76.5,11.4-96.7-30-161.4C344,23.9,242.3,9.6,165.5,57.5C88.6,105.5,67.9,167.1,67.9,167.1z"
			/>
	</g>
	<g>
		<path class="st1" d="M132,427.6c23.6,24.9,81.5,15.8,106.6,0c81.5-51.3,224.2-136.6,230.7-260.2c2.7-52.5-43.6-80.1-62.9-88.2
			C360,59.8,309,53.9,258.6,51.7c-52.6-2.4-109-0.5-156.3,25.1C84.4,86.5,67.5,99,55.9,116c-11.8,17.3-18.5,37.9-20.3,58.6
			c-2.9,33.5,6.1,67.1,19.7,97.8s31.8,59.2,48.5,88.4C114.7,379.9,112.2,406.6,132,427.6z"/>
		<path class="st2" d="M132,427.6c23.6,24.9,81.5,15.8,106.6,0c81.5-51.3,224.2-136.6,230.7-260.2c2.7-52.5-43.6-80.1-62.9-88.2
			C360,59.8,309,53.9,258.6,51.7c-52.6-2.4-109-0.5-156.3,25.1C84.4,86.5,67.5,99,55.9,116c-11.8,17.3-18.5,37.9-20.3,58.6
			c-2.9,33.5,6.1,67.1,19.7,97.8s31.8,59.2,48.5,88.4C114.7,379.9,112.2,406.6,132,427.6z"/>
	</g>
</g>
<g id="Graphics">
	<g>
		<g>
			<path class="st3" d="M130.2,175.1l-47.8-14.5c-1.9-0.6-2.9-2.5-2.3-4.4l8.5-28.1c0.6-1.9,2.5-2.9,4.4-2.3l47.8,14.5
				c1.9,0.6,2.9,2.5,2.3,4.4l-8.5,28.1C134,174.6,132.1,175.6,130.2,175.1z"/>
			<line class="st3" x1="87.2" y1="132.8" x2="141.7" y2="149.4"/>
			<line class="st3" x1="85.5" y1="138.3" x2="140" y2="154.8"/>
			<path class="st3" d="M123.5,165.1c-0.3,1-0.2,2,0.3,2.8c-0.8,0.4-1.7,0.5-2.6,0.2c-1.9-0.6-2.9-2.5-2.4-4.4
				c0.6-1.9,2.6-2.9,4.4-2.4c0.9,0.3,1.6,0.9,2.1,1.6C124.4,163.3,123.7,164.1,123.5,165.1z"/>
			<path class="st3" d="M130.2,167.1c-0.6,1.9-2.5,2.9-4.4,2.4c-1.9-0.6-2.9-2.5-2.4-4.4c0.6-1.9,2.5-2.9,4.4-2.4
				C129.8,163.3,130.8,165.2,130.2,167.1z"/>
		</g>
		<g>
			<path class="st3" d="M458.2,238.4l-39.6-12c-1.9-0.6-2.9-2.5-2.3-4.4l6.9-22.9c0.6-1.9,2.5-2.9,4.4-2.3l39.6,12
				c1.9,0.6,2.9,2.5,2.3,4.4l-6.9,22.9C462,237.9,460,239,458.2,238.4z"/>
			<line class="st3" x1="422" y1="202.6" x2="468.4" y2="216.7"/>
			<line class="st3" x1="420.6" y1="207.3" x2="467" y2="221.3"/>
			<path class="st3" d="M452.9,230c-0.2,0.8-0.1,1.7,0.3,2.4c-0.7,0.3-1.5,0.4-2.2,0.2c-1.6-0.5-2.5-2.2-2-3.8
				c0.5-1.6,2.2-2.5,3.8-2c0.8,0.2,1.4,0.8,1.8,1.4C453.7,228.6,453.1,229.2,452.9,230z"/>
			<path class="st3" d="M458.7,231.8c-0.5,1.6-2.2,2.5-3.8,2c-1.6-0.5-2.5-2.2-2-3.8c0.5-1.6,2.2-2.5,3.8-2
				C458.2,228.5,459.1,230.2,458.7,231.8z"/>
		</g>
		<g>
			
				<rect x="349.8" y="111" transform="matrix(0.9092 -0.4163 0.4163 0.9092 -18.4413 170.4548)" class="st3" width="63.7" height="33.1"/>
			<path class="st3" d="M412.5,125l-8.8-19.1c-1.7,0.8-3.7,0-4.5-1.7l-46.8,21.4c0.8,1.7,0,3.7-1.7,4.5l8.8,19.1
				c1.7-0.8,3.7,0,4.5,1.7l46.8-21.4C410,127.7,410.8,125.7,412.5,125z"/>
		</g>
		<g>
			
				<rect x="39.6" y="237.7" transform="matrix(0.9963 -8.613504e-02 8.613504e-02 0.9963 -21.2427 6.2527)" class="st3" width="44.5" height="23.2"/>
			<path class="st3" d="M82.8,254.9l-1.3-14.7c-1.3,0.1-2.5-0.9-2.6-2.2l-35.8,3.1c0.1,1.3-0.9,2.5-2.2,2.6l1.3,14.7
				c1.3-0.1,2.5,0.9,2.6,2.2l35.8-3.1C80.5,256.1,81.4,255,82.8,254.9z"/>
		</g>
	</g>
</g>
<g id="Device">
	<g>
		<path class="st4" d="M260.8,327.8c0,0-7.7,39.1-55,48c0,0-12.4,9.9-16.5,15.7c-4.1,5.8-26,15.7-48.3,46.7s-55.5-67.3-55.5-67.3
			l73.4-95.3L260.8,327.8z"/>
		<g>
			<path class="st5" d="M302.8,144.1c0,0,25.5-12.5,31.1-10.3c5.6,2.2,11,15-10.5,27.4c-21.4,12.4-15,35.4-15,35.4h15.3
				c0,0,9.2,3.7,12.8,8.5c3.6,4.8,6.1,21.2,8.2,26.8c2,5.6,1,11.1-4.6,12.9c0,0-3.6,15.6-2.6,22.5c1,6.9,0.5,11.3-6.1,12.2
				c-6.6,0.8-13.3-4.8-12.8-12.2l-5.1,18.5l3.6,7.1c0,0,6.6,2.2,13.8,8.3c7.1,6.1,14.3,7.8,12.2,14.6c-2,6.8-6.1,14.2-27.5,5.6
				c-21.4-8.5-39.3-42-39.3-42l-12.9-116.7L302.8,144.1z"/>
			<path class="st6" d="M329.7,211.1c-11.6,15.8,1.2,33.9,1.2,33.9s-8,4.5-8.2,15.8c-0.1,4.7,1.1,11.3,2.5,17.5
				c-4-1.9-6.9-6.1-6.5-11.1l-5.1,18.5l3.6,7.1c0,0,4.7,1.6,10.5,5.8c-3.2,7.3-4.1,16.3-3.9,25.6c-2.4-0.6-5.1-1.5-8.2-2.7
				c-21.4-8.5-39.3-42-39.3-42l-12.9-116.7l39.4-18.6c0,0,13.9-6.8,23.5-9.5c-0.7,8.9,1,18.2,2.3,23.3c-1.5,1.1-3.2,2.2-5.1,3.3
				c-21.4,12.3-15.1,35.4-15.1,35.4h15.3c0,0,8.7,3.6,12.5,8.2C334.1,206.1,331.9,208.1,329.7,211.1z"/>
			<path class="st5" d="M263,309c0,0-27.7,54.4-77.7,66.7c0,0-1.9,10.8-10.4,15.4c-4.5,2.5-22.8,29.8-38.8,54.7l-88.6-54.4
				c5.5-5.4,11.7-11.6,18-18.1c18.5-18.9,38.2-40.1,44.3-50.5c5.4-9.3,12.2-25.4,18.2-40.6c7.6-19.4,13.8-37.2,13.8-37.2l29.6-32.9
				l46.5-51.7l2,6.6L263,309z"/>
			<path class="st6" d="M217.8,160.5L263,309c0,0-27.7,54.4-77.7,66.7c0,0-1.9,10.8-10.4,15.4c-4.1,2.2-19.2,24.5-33.8,47
				c5.4-18.6,21.1-48.2,21.1-48.2c-10.1-11.9-7.1-24.5-3.1-20.9c3.9,3.5,14.2,13.6,14.8,14.3c-4.5-5.2-5.5-13.5-5.5-13.5
				s12.5,8.3,13.5-5c1-13.3-7.5-45.8-7.5-45.8l-22.2-85.4L217.8,160.5z"/>
			<g>
				<path class="st7" d="M263.5,162.7l39.4-18.6c0,0,25.5-12.5,31.1-10.3c5.6,2.2,11,15-10.5,27.4c-21.4,12.4-15,35.4-15,35.4h15.3
					c0,0,9.2,3.7,12.8,8.5c3.6,4.8,6.1,21.2,8.2,26.8c2,5.6,1,11.1-4.6,12.9c0,0-3.6,15.6-2.6,22.5c1,6.9,0.5,11.3-6.1,12.2
					c-6.6,0.8-13.3-4.8-12.8-12.2l-5.1,18.5l3.6,7.1c0,0,6.6,2.2,13.8,8.3c7.1,6.1,14.3,7.8,12.2,14.6c-2,6.8-6.1,14.2-27.5,5.6
					c-21.4-8.5-39.3-42-39.3-42"/>
				<path class="st7" d="M340.1,244.8c-7.7,2.1-16.6,0.5-19.9-13c-3.3-13.5,3.3-28,7.7-29.3"/>
				<path class="st7" d="M318.7,267.2c0,0-0.5-17.4,5.9-21.7"/>
			</g>
			<path class="st6" d="M132.6,353.7c0,0-18.7-2.3-22.9-10.7c-3.5-6.9-22.2,19-44.3,30.3c18.5-18.9,38.2-40.1,44.3-50.5
				c5.4-9.3,12.2-25.4,18.2-40.6c0,0,0,0,0,0c-0.3,12.6-7,31.8-5.1,41.9c0,0-7.2,1.8-5.8,9.7C118.5,341.9,132.6,353.7,132.6,353.7z"
				/>
			<g>
				<path class="st7" d="M263,309c0,0-27.7,54.4-77.7,66.7c0,0-1.9,10.8-10.4,15.4c-4.5,2.5-22.8,29.8-38.8,54.7"/>
				<path class="st7" d="M47.4,391.5c21.4-21.1,54.2-54.6,62.3-68.6c12.3-21.2,32-77.8,32-77.8l76-84.5"/>
				<path class="st7" d="M174.4,225.1c0,0,11.7,10.5,15,20"/>
			</g>
		</g>
		<g>
			<path class="st8" d="M312.3,353.7H186.6c-3.7,0-6.7-3-6.7-6.7V79.4c0-3.7,3-6.7,6.7-6.7h125.7c3.7,0,6.7,3,6.7,6.7V347
				C319,350.7,316,353.7,312.3,353.7z"/>
			<path class="st9" d="M277,80.4l-2.7,4.9c-0.6,1.1-1.7,1.7-2.9,1.7h-44c-1.2,0-2.3-0.7-2.9-1.7l-2.7-4.9c-0.6-1.1-1.7-1.7-2.9-1.7
				h-30.7c-1.8,0-3.3,1.5-3.3,3.3V345c0,1.8,1.5,3.3,3.3,3.3h122.5c1.8,0,3.3-1.5,3.3-3.3V82c0-1.8-1.5-3.3-3.3-3.3h-30.7
				C278.7,78.6,277.6,79.3,277,80.4z"/>
			<g>
				<g>
					<circle class="st10" cx="239.9" cy="80.9" r="1.8"/>
					<path class="st10" d="M260.8,80.9c0,0.6-0.5,1.1-1.1,1.1c-0.6,0-1.1-0.5-1.1-1.1c0-0.6,0.5-1.1,1.1-1.1
						C260.3,79.8,260.8,80.3,260.8,80.9z"/>
				</g>
				<path class="st5" d="M255.8,80.2h-10.9c-0.4,0-0.7,0.3-0.7,0.7l0,0c0,0.4,0.3,0.7,0.7,0.7h10.9c0.4,0,0.7-0.3,0.7-0.7l0,0
					C256.5,80.6,256.2,80.2,255.8,80.2z"/>
			</g>
			<g>
				<g>
					<rect x="195.9" y="85.3" class="st7" width="11.7" height="5"/>
					<rect x="207.6" y="86.2" class="st7" width="1.8" height="3.3"/>
				</g>
				<g>
					<rect x="288.7" y="88.5" class="st7" width="2.1" height="1.8"/>
					<rect x="292.7" y="86.7" class="st7" width="2.1" height="3.6"/>
					<rect x="296.8" y="84.9" class="st7" width="2.1" height="5.4"/>
					<rect x="300.9" y="83" class="st7" width="2.1" height="7.3"/>
				</g>
			</g>
			<g>
				<path class="st8" d="M220.9,117.3v2.1c0,2.6-1.3,4-3.8,4h-1.2v6.1h-2.6v-16.3h3.8C219.6,113.3,220.9,114.7,220.9,117.3z
					 M215.9,115.6v5.5h1.2c0.8,0,1.3-0.4,1.3-1.5v-2.4c0-1.2-0.4-1.5-1.3-1.5H215.9z"/>
				<path class="st8" d="M230.1,129.6h-2.6l-0.4-3h-3.1l-0.4,3h-2.3l2.6-16.3h3.7L230.1,129.6z M224.2,124.4h2.5l-1.2-8.2h0
					L224.2,124.4z"/>
				<path class="st8" d="M232.5,124.2l-3.2-10.9h2.7l1.9,7.4h0l1.9-7.4h2.4l-3.2,10.9v5.4h-2.6V124.2z"/>
				<path class="st8" d="M244.7,124.9L244.7,124.9l1.8-11.6h3.6v16.3h-2.4v-11.7h0l-1.7,11.7h-2.4l-1.9-11.5h0v11.5h-2.2v-16.3h3.6
					L244.7,124.9z"/>
				<path class="st8" d="M254.5,120.2h3.5v2.3h-3.5v4.8h4.4v2.3h-7v-16.3h7v2.3h-4.4V120.2z"/>
				<path class="st8" d="M262.8,117.8L262.8,117.8l0,11.8h-2.3v-16.3h3.2l2.6,9.7h0v-9.7h2.3v16.3h-2.6L262.8,117.8z"/>
				<path class="st8" d="M269.7,113.3h7.9v2.3h-2.7v14h-2.6v-14h-2.7V113.3z"/>
				<path class="st8" d="M282.1,113.1c2.5,0,3.8,1.5,3.8,4.1v0.5h-2.4v-0.7c0-1.2-0.5-1.6-1.3-1.6c-0.8,0-1.3,0.4-1.3,1.6
					c0,1.2,0.5,2.1,2.2,3.5c2.1,1.9,2.8,3.2,2.8,5.1c0,2.6-1.3,4.1-3.8,4.1c-2.5,0-3.8-1.5-3.8-4.1v-1h2.4v1.2
					c0,1.2,0.5,1.6,1.3,1.6c0.8,0,1.3-0.4,1.3-1.6c0-1.2-0.5-2.1-2.2-3.5c-2.1-1.9-2.8-3.2-2.8-5.1
					C278.4,114.6,279.6,113.1,282.1,113.1z"/>
			</g>
		</g>
		<g>
			<path class="st5" d="M186.7,293.2c1.5,23.1-9.2,48.7-9.2,48.7l-57.7-16.2l-10.1-2.8c10-13.9,14.8-41.3,12.2-63.4
				c-0.2-1.7-0.3-3.2-0.4-4.7c-1-18.3,6.6-23.6,13-31.7c7-8.7,22.6-41.7,22.6-49.5c0-7.8,19.5-26.9,15.2-48.6c0,0,5.9-3.7,11.9-0.7
				c2.7,1.4,5.4,4.1,7.6,9.1c5.1,11.9-2.1,45.5-8.1,53.7l-11.7,48.5c0,0,3.9,6.8,7.8,19.2C182.7,264.4,185.7,277.4,186.7,293.2z"/>
			<path class="st6" d="M121.5,254.8c3.3,8.9,6.7,15,6.4,27.5c-0.3,12.6-7,31.8-5.1,41.9c0,0-1.5,0.4-3,1.6l-10.1-2.8
				c10-13.9,14.8-41.3,12.2-63.4C121.7,257.8,121.6,256.2,121.5,254.8z"/>
			<path class="st6" d="M183.6,187.1l-11.7,48.5c0,0,3.9,6.8,7.8,19.2c0,0,0,0,0,0c-7.9-12.8-14.6-16.6-14.6-16.6
				c5.3-6.3,9.4-52.6,9.4-52.6s16.6-19.5,15-39.8c-0.7-9.4-3-16.5-5.2-21.5c2.7,1.4,5.4,4.1,7.6,9.1
				C196.8,145.3,189.6,178.9,183.6,187.1z"/>
			<g>
				<path class="st7" d="M109.8,322.9c10-13.9,14.8-41.2,12.2-63.4c-2.6-22.1,5.6-27.7,12.6-36.4c6.9-8.7,22.6-41.7,22.6-49.5
					s19.5-26.9,15.2-48.6c0,0,12.5-7.7,19.4,8.5c5.1,11.9-2.1,45.5-8.1,53.7l-11.7,48.5c0,0,12.5,21.5,14.8,57.6
					c1.5,23.1-9.2,48.7-9.2,48.7"/>
				<path class="st7" d="M148.3,360.4c0,0,13.1,8.1,20.8,20.9"/>
				<path class="st7" d="M185.2,375.7c0,0-11.3,1.6-21.5-10.6c-6.6-7.8-26.4-11.4-31-31.9"/>
			</g>
		</g>
	</g>
</g>
<g id="Hand">
	<g>
		<g>
			<line class="st11" x1="214.7" y1="247.5" x2="283.1" y2="247.5"/>
			<line class="st11" x1="214.7" y1="256.5" x2="283.1" y2="256.5"/>
			<line class="st11" x1="214.7" y1="265.5" x2="283.1" y2="265.5"/>
		</g>
		<path class="st12" d="M252.4,294.8c0-1.4-1.1-2.5-2.5-2.5c-1.4,0-2.5,1.1-2.5,2.5c0,1.4,1.1,2.5,2.5,2.5
			C251.3,297.3,252.4,296.2,252.4,294.8z"/>
	</g>
	<g>
		<g>
			<g class="st13">
				<image style="overflow:visible;" width="126" height="126" xlink:href="132FE791.png"  transform="matrix(1 0 0 1 184 121)">
				</image>
			</g>
			<path class="st14" d="M248.9,226.2L248.9,226.2c-24.3,0-44.1-19.7-44.1-44.1v0c0-24.3,19.7-44.1,44.1-44.1l0,0
				c24.3,0,44.1,19.7,44.1,44.1v0C293,206.5,273.3,226.2,248.9,226.2z"/>
		</g>
		<polygon class="st5" points="270.9,168.4 264,161.5 249,176.5 233.9,161.5 227,168.4 242.1,183.4 227,198.4 233.9,205.3 
			249,190.3 264,205.3 270.9,198.4 255.9,183.4 		"/>
	</g>
	<g>
		<path class="st4" d="M349.6,436.3c-28.9-13.8-11.4-24.9-51.2-42.1c-39.8-17.2-40.2-31.9-35.4-65.7c4.8-33.8,1-69.7,12.6-72.8
			c11.6-3.1-9.1-49.6,4.4-66.1l66.4,129.2L349.6,436.3z"/>
		<g>
			<path class="st5" d="M457.5,434.9c-1.4-3.9-2.7-8.1-3.8-12c-1.4-5-2.5-9-5-13.6c-0.4-0.7-0.8-1.5-1.3-2.4
				c-2.7-4.8-6.4-11.4-8.6-19.6c-1.5-5.5,0-18.9,1.4-32c1-9.4,1.9-18.2,1.6-23.3l-0.1-1.8c-0.7-13.1-2.1-40.5-5-48
				c-2.8-7.3-5.5-8.4-10.4-10.3c-0.5-0.2-1-0.4-1.6-0.7c-1.8-0.8-4.9-2.4-8.5-4.2c-8.1-4.2-18.1-9.4-23.2-10.1
				c-6.7-0.9-13.2,0.4-14.3,0.7c-6.3-4.8-16.9-11-20.1-11.1c-2.6-0.1-8.3,1.5-11,2.4c-0.6,0.2-1.1,0.4-1.4,0.4
				c-2.3-1.7-4.2-3-5.5-3.6c-0.1-0.1-0.3-0.1-0.4-0.2c-3.5-1.5-8.9-1.5-11.8-1.4c-0.9,0-1.6,0.1-1.9,0.1
				c-5.5-8.4-10.9-16.9-13.2-20.5c-4.9-7.8-20.1-39.7-20.2-40c0-0.1-0.1-0.1-0.2-0.2c0,0,0,0-0.1,0c-1.2-0.3-9.9-2.6-13.4,5.9
				c-3.8,9.2,1.6,29.3,7,36.6c2.6,3.5,9.5,17.9,16.6,32.7c-1.8,1.7-16.4,15.1-23.5,17.7c-5.8,2-4.4,31.7-3.3,55.6
				c0.4,8.8,0.8,16.4,0.7,20.9c-0.2,8.8,15.8,20.9,31.3,32.6c14,10.6,28.5,21.6,30.2,29.6c0.5,2.2,1.8,4.1,3.4,6.1
				c2.7,3.4,6.1,7.4,7.6,15c0.4,2.3,4.1,5.3,7,10.1h105.1C460.8,444.1,459.2,439.8,457.5,434.9z M311.8,276.8
				c5.1,10.7,8.2,17,9,17.7c0.7,0.7,0.7,4.1,0.7,7.4c0,2.9-0.1,6,0.3,8.6c-1.2,1.1-9.1,8.2-10.6,14l-6.7-7.8l-1.7-24.6
				C303.8,291.1,310.6,283.8,311.8,276.8z"/>
			<path class="st6" d="M427.3,345.3c2.5,23.1,2.5,35.5,5.3,42.2c4.7,11.3,11.6,13.5,11.6,13.5c-2-3.9-4-8.5-5.4-13.7
				c-1.5-5.5,0-18.9,1.4-32c1-9.4,1.9-18.2,1.7-23.3l-0.1-1.8c-0.7-13.1-2.1-40.4-5-48c-2.8-7.3-5.5-8.4-10.4-10.3
				c-0.5-0.2-1-0.4-1.6-0.7c-1.8-0.8-4.9-2.4-8.5-4.2c-8.1-4.2-18.1-9.4-23.2-10c-6.7-0.9-13.2,0.4-14.3,0.7
				c-6.3-4.8-16.9-11-20.1-11.1c-2.6-0.1-9.6,1.9-12.4,2.8c12,9.8,29.3,22,29.3,22c13.7,2.7,11.9,8.7,17.4,12c5,3,9.8-5.8,14-6.6
				c5.5-1,11.8,4.8,11.5,11.9C417.7,308.2,425.2,325.5,427.3,345.3z"/>
			<path class="st6" d="M358.2,273.9c0,0-10.8-9-16-12c-5.2-3-6-13.3-1.9-15.9c0.1-0.1,0.3-0.1,0.5-0.2c-0.1-0.1-0.3-0.1-0.4-0.2
				c-3.5-1.5-8.9-1.5-11.8-1.4c6,11.2,10.8,19.7,12.1,21.6C345.1,272.2,358.2,273.9,358.2,273.9z"/>
			<path class="st6" d="M341.8,413.8c0.5-2.4-3.5-9.4-5.2-12.2c-3.9-6.5-49.6-46.8-43-57.6c6.6-10.8,12.6-2.8,16.8-2.1
				c3,0.5,11.2-4.4,11.2-4.8c-0.9-8.3,6.7-13.7,6.7-13.7s-0.7-33-2.5-32.4c-1.8,0.6-22.8-49.6-22.8-49.6s-22.3-29.6-21-43.4
				C283.3,184.3,293,184,293,184l0-0.4c-1.2-0.3-9.9-2.6-13.4,5.9c-3.8,9.2,1.6,29.3,7,36.6c2.6,3.5,9.5,17.9,16.6,32.7
				c-1.8,1.7-16.4,15.1-23.5,17.7c-5.8,2-4.4,31.7-3.3,55.6c0.4,8.8,0.8,16.4,0.7,20.9c-0.2,8.8,15.8,20.9,31.3,32.6
				c14,10.6,28.5,21.6,30.2,29.6c0.5,2.2,1.8,4.1,3.4,6.1C341.7,418.3,341.5,415.1,341.8,413.8z M311.8,276.8
				c5.1,10.7,8.2,17,9,17.7c0.7,0.7,0.7,4.1,0.7,7.4c0,2.9-0.1,6,0.3,8.6c-1.2,1.1-9.1,8.2-10.6,14l-6.7-7.8l-1.7-24.6
				C303.8,291.1,310.6,283.8,311.8,276.8z"/>
			<g>
				<path class="st7" d="M352,273.7c0,0-6.7-1.8-11.2-7.9c-4.6-6.1-22.5-34-27.5-41.9S293,184,293,184s-9.4-3.1-13.1,5.6
					c-3.7,8.8,1.4,28.6,6.9,36.3c5.6,7.6,32.1,66.5,34.2,68.4c2.1,1.9-1.1,17.6,3.2,21.4"/>
				<path class="st7" d="M322.1,310.7c0,0-9.7,8.5-10.8,14.6l-7.2-8.5l-1.7-24.8c0,0,8.7-8.7,9.2-16.4"/>
				<path class="st7" d="M303.6,258.9c0,0-16.1,15.2-23.8,17.9c-7.7,2.7-2.1,59.7-2.5,76.2c-0.4,16.5,58,45.2,61.5,62.1
					c1.4,6.7,7.3,8.1,10.9,21"/>
				<path class="st7" d="M326.6,244.7c0,0,8.8-0.8,13.7,1.3c4.9,2.1,25,19.3,29.8,22.6c4.8,3.3,12.1,4.5,13.5,8.1"/>
				<path class="st7" d="M346.2,249.8c0,0,9-3,12.4-2.8c3.4,0.1,16.4,7.8,22.2,12.9c5.8,5.1,11.6,7.9,15.1,9.2"/>
				<path class="st7" d="M378.7,258.1c0,0,7-1.7,14.3-0.7c7.3,1,25.7,11.8,31.6,14.2c5.9,2.4,8.7,2.9,11.7,10.8
					c3.1,7.9,4.5,37.8,5.1,49.7c0.6,11.8-5.5,45.8-3,55.3c2.5,9.5,7.2,16.9,9.9,22"/>
				<path class="st7" d="M302.4,292c0,0-1.5-5.8-3.4-6.6"/>
				<path class="st7" d="M304.1,316.8c0,0,1.3,6.5,2.7,10.1c1.4,3.6-0.8,8.7-0.8,8.7"/>
				<path class="st7" d="M311.3,325.3c-0.2,5.7,5.4,12.3,6.8,11.4"/>
				<path class="st7" d="M340.1,292c0,0,6.1-9.8,11.9-10.3c5.8-0.5,12.5,7.8,16.1,7c3.6-0.8,8.1-6.1,14.1-7c6-1,8.9,1.9,13.7,2.2
					c4.8,0.2,5.3-6.2,11-7c5.8-0.9,7.7,2,11.5,2.7c3.8,0.7,4.8-2.3,7.9-4"/>
			</g>
		</g>
	</g>
</g>
</svg>
