<?xml version="1.0" encoding="utf-8"?>
<!-- Generator: Adobe Illustrator 25.2.1, SVG Export Plug-In . SVG Version: 6.00 Build 0)  -->
<svg version="1.1" id="Layer_1" xmlns="http://www.w3.org/2000/svg" xmlns:xlink="http://www.w3.org/1999/xlink" x="0px" y="0px"
	 viewBox="0 0 576 512" style="enable-background:new 0 0 576 512;" xml:space="preserve">
<style type="text/css">
	.st0{fill:#1E3050;}
	.st1{fill:#B1B1B6;}
	.st2{fill:#FEFEFE;}
</style>
<path class="st0" d="M359.5,427.6c27.5,12.1,30.1,32.8,24.8,63.6c-9.1,36.7-53.2,22.1-46.8-21.5c-15.5-6.5-29.5-21-46.6-21.4
	c-41.9,0.5-76.9-7.1-111.8,21.7c-1.9,6.2-0.5,12.2-1.2,18.1c-1.6,29.2-43.6,32-46.5,1.7c-5.1-36.7-1.6-51.3,33.8-67
	c-8.8-4-14.1,2.3-21.9,3.6c-29,3.8-45.2,25.7-66.2,42.5c-26,12.5-45.8-22.6-24.1-40.4c21.5-26.7,40.9-37,72.8-47.1
	c-3.9-6.9-10.2-11.6-16.1-17.3c-24.8,2.2-41,18.8-57.5,36c-22.5,21.7-55.8-9.2-33.8-32.2c20.5-22.9,33.8-36.6,63.3-46.3
	c5.8-18-23.9,1.9-63.3-25.9c-23.8-10-16.5-48.3,11-45c5.6,0.4,10.5,2.9,15.4,5.2c13.7,7.6,52.3,20.8,55.6-1.4
	c-35.6-22.7-93.2-29.9-96.1-81.9C-10,97.4,31.3,12.1,113.6,3.5C251.4-8.8,139,31.8,142.6,62c14.2,9.8,32.7,0.1,50.2,6.3
	c-1.8,75.2-89.2,60.1-142.2,60.9c-0.2,18.5-6.7,44.4,12.8,54.5c23.6,11.4,47.4,22.4,71.5,33.7c18.2-12.1,37.4-19.6,57.7-22.8
	c5.9-13.5,1.2-26.7,2.7-40.6c-0.5-29.1,40.1-32.9,45.7-4.7c3.2,14.5-0.8,28.7,2.3,43.3c10.1,1.9,19.7,1.7,29.7,0.1
	c3.1-22.6-6.8-64.9,28.1-62.7c30.7,5.2,16.4,42.3,20.9,63.9c20.7,4.1,40.9,10.4,58.8,23.5c24-11,47.4-21.6,70.6-32.7
	c20.6-8.8,13.8-35.4,14.7-52.5c-24.7-7.9-52.2,0.1-78.2-3.2c-35.5-0.6-66.6-25.2-62.8-60.5c15.5-7.9,35.3,4.8,51.4-9.4
	c-11.5-19.5-30.3-31.1-42.8-47.8c0.7-6.2,4-9.5,9.8-9.5c81.3-11.9,170.5,36.5,169.2,126.6c8.1,84.2-28,95.3-96.3,124.2
	c-0.9,5.6,1.6,8.7,5.3,12.6c19.1,3.6,38.5-2.1,55.6-12.2c24.6-12.9,47.7,19.3,27.6,36.2c-18.8,13.9-43.2,26.5-66.9,22.7
	c-5,3-4.3,6-3.7,9c26.9,8.1,45.7,26.1,63.2,46.8c22.6,22.9-10.9,54-33.4,32.5c-16.2-17.1-31.7-33.3-56.7-36.1
	c-6.6,4.1-11.6,10.1-17.4,16.7c39.2,15.7,45.8,15.9,75.1,49.7c21.7,19.7-6.6,54.9-30.9,35.3c-15.8-12.7-26.9-31.6-48.4-35.3
	c-6.7-1.7-13.2-4.1-19.9-6.2C363.1,424.3,357.7,419,359.5,427.6z"/>
<path class="st1" d="M359.5,427.6c-4.6-0.3-8.1-1.9-8.7-8.7c5.9,1.5,10.9,1.8,15,5.5C363.6,425.1,360.3,423.9,359.5,427.6z"/>
<path class="st2" d="M386.2,313.4c-29.2,29.5-56.7,57.3-85.1,85.9c-28.2,0-57.4,0-86.3,0c-27.9-28.2-55.4-56-83.8-84.7
	c4-91.5,106.1-75.1,173.6-75.5C348,239,382,271.8,386.2,313.4z"/>
</svg>
