<?xml version="1.0" encoding="utf-8"?>
<!-- Generator: Adobe Illustrator 25.2.1, SVG Export Plug-In . SVG Version: 6.00 Build 0)  -->
<svg version="1.1" id="Layer_1" xmlns="http://www.w3.org/2000/svg" xmlns:xlink="http://www.w3.org/1999/xlink" x="0px" y="0px"
	 viewBox="0 0 576 512" style="enable-background:new 0 0 576 512;" xml:space="preserve">
<style type="text/css">
	.st0{fill:#1E3050;}
	.st1{fill:#FEFEFE;}
</style>
<path class="st0" d="M71.2,53.8c-6.2-1.5-11.3-2.4-16.1-3.9c-11.3-3.5-16.7-12.1-17.2-23.2C37.4,15.1,42.1,5.8,54,1.1
	c7.1-2.8,14.4-3.4,21.8-3.4c120.6,0,241.2,0,361.9,0c7.5,0,14.8,0.6,21.9,3c11.3,3.8,16.2,12.2,16.6,23.4c0.5,12-4.5,21.2-16.1,25.6
	c-5.3,2-11,2.8-19.8,5c18.1,16.1,31.5,33.6,43,52.5c30.8,51,35.3,106.4,27.3,163.8c-11.6,82.7-48.6,152.4-107.1,211.6
	c-20.1,20.3-42.9,30.1-71.9,29.4c-50.3-1.2-100.6-1-150.9-0.1c-26.3,0.5-47.8-7.8-66.3-26.1C36.5,409-2.4,316.2,0.9,207.1
	C2.4,153.8,24.6,107.7,60,68C63.8,63.8,69.1,60.9,71.2,53.8z"/>
<path class="st1" d="M257.5,218c-62.3,0-124.7-0.5-187,0.3c-14.9,0.2-16.8-5-15-17.9c7.6-52.8,32.1-94.4,77.7-123.2
	c10.8-6.8,15.1-5.5,14.3,8c-0.6,10.2-0.5,20.6,0.2,30.8c1.3,17.5,11.4,27.6,26.7,27.7c14.9,0.1,26.1-10,27.4-27.3
	c1.2-17.1,0.4-34.3,0.5-51.4c0-5.6-1.4-12.1,7.8-11.8c47.2,1.3,95-6.8,141.1,9.7c61.4,22,103.5,78.7,108,143.7
	c0.8,12-5,11.4-13,11.4C383.3,217.9,320.4,218,257.5,218z"/>
<path class="st1" d="M258.8,365.3c50.2,0,100.5,0.3,150.7-0.2c12.3-0.1,13.8,2.7,7.9,13.1c-16.4,28.6-38.5,52.2-61.9,74.9
	c-4.5,4.4-10,4.7-15.9,4.7c-54.8-0.1-109.6-0.1-164.4,0c-5.8,0-11.4,0-16-4.4c-23.8-23.1-46.4-47-62.7-76.4
	c-6.5-11.7-1-11.7,8.2-11.7C156.1,365.5,207.5,365.4,258.8,365.3z"/>
</svg>
