<?xml version="1.0" encoding="utf-8"?>
<!-- Generator: Adobe Illustrator 25.2.1, SVG Export Plug-In . SVG Version: 6.00 Build 0)  -->
<svg version="1.1" id="Layer_1" xmlns="http://www.w3.org/2000/svg" xmlns:xlink="http://www.w3.org/1999/xlink" x="0px" y="0px"
	 viewBox="0 0 576 512" style="enable-background:new 0 0 576 512;" xml:space="preserve">
<style type="text/css">
	.st0{fill:#233453;}
	.st1{fill:#223352;}
	.st2{fill:#233352;}
	.st3{fill:#233454;}
	.st4{fill:#223252;}
	.st5{fill:#213252;}
</style>
<path class="st0" d="M91.7,279.4c10-1.6,12.6,3.5,11.5,13.5c-3.1,27.3-18.8,42.4-45.1,43.3c-7.9,0.3-11.8-1.4-12.2-10.1
	C44.6,299.3,64.2,278.8,91.7,279.4z"/>
<path class="st1" d="M268.2,324.1c-2,27-18.4,42.4-44.9,42.6c-6.1,0-10.7,0.3-11.7-8.4c-3-26,24.3-53.4,49.4-48.7
	C268.5,311.1,269.1,312.3,268.2,324.1z"/>
<path class="st1" d="M350.9,395c-0.2,13.8-4.1,24.4-12.9,32.8c-10.5,10-37.7,15.2-42.6,8.5c-5-6.7,4.2-36.3,14-43.6
	c8.4-6.3,18.1-9.3,28.6-10.1C348.6,381.9,354.6,384.7,350.9,395z"/>
<path class="st2" d="M181,456c2-26.7,18.9-42.3,45-42.2c6.7,0,10.8,0.6,11.6,8.6c2.7,26.1-21.3,50.5-47.5,48.4
	C179.3,470.1,180.2,463.3,181,456z"/>
<path class="st3" d="M149.9,291.7c0.6-26.7,20.2-44.8,46.5-44.1c5.7,0.2,9.6,0.6,10.7,7.7c4.1,26.1-22.3,52.3-49.1,49.6
	C147,303.7,150.7,296.8,149.9,291.7z"/>
<path class="st0" d="M119.7,407.8c-8.5,1.4-11.4-2.7-11.2-11.9c0.3-25.4,18.1-43.7,43.4-44.3c10-0.2,13.8,3.2,13.4,13.4
	C164.2,390.7,146.5,407.9,119.7,407.8z"/>
<path class="st4" d="M4.9,436.8c2.7-28.9,16.6-42.1,43.9-43.7c11-0.6,13.2,3.5,12.6,13.2C59.9,432.4,43,449.1,17,449.8
	C7.3,450.1,1.8,447.5,4.9,436.8z"/>
<path class="st5" d="M88.3,221.5c-9.6,1.6-12.4-3.2-11.5-13.2c2.4-26.8,18.4-42,44.9-42.8c9-0.3,12.4,1.4,12.3,11.3
	C133.6,203.1,115.5,221.7,88.3,221.5z"/>
<path class="st5" d="M78.3,511.5c-9.4,2.1-11.3-2.8-11.1-11.8c0.9-28,18-44.9,45.1-44.1c7.7,0.2,11.6,1.7,11.5,10.7
	C123.6,492.5,105.1,511.5,78.3,511.5z"/>
<path class="st1" d="M315.4,203.8c-2,27-18.4,42.4-44.9,42.6c-6.1,0-10.7,0.3-11.7-8.4c-3-26,24.3-53.4,49.4-48.7
	C315.7,190.8,316.3,192,315.4,203.8z"/>
<path class="st1" d="M398.1,274.7c-0.2,13.8-4.1,24.4-12.9,32.8c-10.5,10-37.7,15.2-42.6,8.5c-5-6.7,4.2-36.3,14-43.6
	c8.4-6.3,18.1-9.3,28.6-10.1C395.7,261.6,401.7,264.4,398.1,274.7z"/>
<path class="st3" d="M197.1,171.4c0.6-26.7,20.2-44.8,46.5-44.1c5.7,0.2,9.6,0.6,10.7,7.7c4.1,26.1-22.3,52.3-49.1,49.6
	C194.2,183.4,197.8,176.5,197.1,171.4z"/>
<path class="st5" d="M135.5,101.2c-9.6,1.6-12.4-3.2-11.5-13.2c2.4-26.8,18.4-42,44.9-42.8c9-0.3,12.4,1.4,12.3,11.3
	C180.8,82.8,162.7,101.4,135.5,101.2z"/>
<path class="st1" d="M480.4,356.1c-0.2,13.8-4.1,24.4-12.9,32.8c-10.5,10-37.7,15.2-42.6,8.5c-5-6.7,4.2-36.3,14-43.6
	c8.4-6.3,18.1-9.3,28.6-10.1C478.1,342.9,484.1,345.7,480.4,356.1z"/>
</svg>
