<svg width="27" height="23" viewBox="0 0 27 23" fill="none" xmlns="http://www.w3.org/2000/svg">
<g clip-path="url(#clip0_94_164)">
<path d="M24.06 1.18433H2.94C1.32 1.18433 0 2.49311 0 4.09934V19.2692C0 20.8756 1.32 22.1843 2.94 22.1843H24.06C25.68 22.1843 27 20.8756 27 19.2692V4.09934C27 2.49311 25.68 1.18433 24.06 1.18433ZM5.85 8.05544C6.12 6.74666 7.41 5.88404 8.73 6.15174C10.05 6.41945 10.92 7.6985 10.65 9.00728C10.47 9.95912 9.69 10.7325 8.73 10.911C7.41 11.1787 6.12 10.3161 5.85 9.00728C5.79 8.70983 5.79 8.38263 5.85 8.05544ZM12.42 16.622C12.42 16.9789 12.12 17.2763 11.76 17.2763H4.74C4.38 17.2763 4.08 16.9789 4.08 16.622V15.8486C4.05 13.707 5.64 11.9223 7.77 11.6248C10.05 11.3571 12.15 12.9931 12.39 15.2537C12.42 15.4024 12.42 15.5809 12.42 15.7297V16.622ZM22.68 15.1645H14.82V13.2013H22.68V15.1645ZM22.68 10.1673H14.82V8.20416H22.68V10.1673Z" fill="white" fill-opacity="0.7"/>
</g>
<defs>
<clipPath id="clip0_94_164">
<rect width="27" height="22.5" fill="white"/>
</clipPath>
</defs>
</svg>
