<svg width="26" height="27" viewBox="0 0 26 27" fill="none" xmlns="http://www.w3.org/2000/svg">
<path d="M13.6634 14.13C17.5652 14.13 20.7283 10.9669 20.7283 7.06498C20.7283 3.1631 17.5652 0 13.6634 0C9.76149 0 6.59839 3.1631 6.59839 7.06498C6.59839 10.9669 9.76149 14.13 13.6634 14.13Z" fill="#ffffff" fill-opacity="0.7"/>
<path d="M12.5502 26.1975C13.735 26.1975 13.0768 25.3638 13.0768 25.3638C12.1072 24.1333 11.4925 22.6612 11.2991 21.1065C11.1058 19.5519 11.3411 17.9741 11.9797 16.5435L12.0675 16.368C12.1275 16.2929 12.1652 16.2024 12.1763 16.1069C12.1874 16.0114 12.1715 15.9147 12.1303 15.8279C12.0892 15.741 12.0244 15.6674 11.9435 15.6155C11.8626 15.5636 11.7687 15.5354 11.6726 15.5343C11.3228 15.4968 10.971 15.4822 10.6194 15.4904C8.03884 15.4991 5.54723 16.4343 3.59818 18.1256C1.64912 19.817 0.372245 22.152 0 24.7056C0 25.2322 0.175528 26.2414 1.84304 26.2414H12.3308C12.4014 26.2162 12.4753 26.2014 12.5502 26.1975Z" fill="#ffffff" fill-opacity="0.7"/>
<path fill-rule="evenodd" clip-rule="evenodd" d="M26 20.076C26 23.5296 23.2003 26.3292 19.7468 26.3292C16.2933 26.3292 13.4937 23.5296 13.4937 20.076C13.4937 16.6225 16.2933 13.8229 19.7468 13.8229C23.2003 13.8229 26 16.6225 26 20.076ZM21.7421 20.9741C21.5717 20.9741 21.4335 21.1122 21.4335 21.2827V23.1339H17.731V16.963H21.4335V18.8143C21.4335 18.9847 21.5717 19.1228 21.7421 19.1228C21.9125 19.1228 22.0506 18.9847 22.0506 18.8143V16.6545C22.0506 16.4841 21.9125 16.3459 21.7421 16.3459H17.4224C17.252 16.3459 17.1139 16.4841 17.1139 16.6545V23.4425C17.1139 23.6129 17.252 23.751 17.4224 23.751H21.7421C21.9125 23.751 22.0506 23.6129 22.0506 23.4425V21.2827C22.0506 21.1122 21.9125 20.9741 21.7421 20.9741ZM24.4573 20.2328C24.4545 20.2365 24.4519 20.2403 24.449 20.2438C24.4426 20.2516 24.4359 20.259 24.4289 20.2662L24.4286 20.2665L23.1944 21.5007C23.0739 21.6212 22.8785 21.6212 22.758 21.5007C22.6375 21.3802 22.6375 21.1848 22.758 21.0643L23.4655 20.3569H20.8164C20.646 20.3569 20.5079 20.2187 20.5079 20.0483C20.5079 19.8779 20.646 19.7398 20.8164 19.7398H23.4655L22.758 19.0323C22.6375 18.9118 22.6375 18.7165 22.758 18.596C22.8785 18.4755 23.0739 18.4755 23.1944 18.596L24.4286 19.8301L24.4289 19.8305C24.4359 19.8376 24.4426 19.845 24.449 19.8527C24.4509 19.8551 24.4527 19.8576 24.4545 19.86C24.4554 19.8613 24.4563 19.8625 24.4573 19.8638C24.4581 19.8649 24.4589 19.866 24.4597 19.8671C24.4622 19.8703 24.4647 19.8736 24.467 19.877C24.4691 19.8803 24.4711 19.8836 24.4731 19.887C24.4738 19.8882 24.4745 19.8893 24.4751 19.8905C24.4776 19.8946 24.4802 19.8986 24.4825 19.9029C24.4843 19.9063 24.486 19.9099 24.4876 19.9134C24.4881 19.9146 24.4887 19.9158 24.4892 19.9169C24.4898 19.9181 24.4903 19.9192 24.4909 19.9204C24.4925 19.9236 24.494 19.9269 24.4954 19.9302C24.4963 19.9323 24.497 19.9343 24.4978 19.9364C24.4987 19.9389 24.4996 19.9415 24.5005 19.9441C24.5016 19.9473 24.5028 19.9505 24.504 19.9537C24.5045 19.9554 24.5051 19.957 24.5056 19.9587C24.5062 19.9607 24.5067 19.9626 24.5072 19.9646C24.5079 19.9673 24.5085 19.97 24.5092 19.9727C24.5095 19.974 24.5099 19.9753 24.5102 19.9766C24.5112 19.9804 24.5122 19.9842 24.5129 19.988C24.5138 19.9921 24.5143 19.9962 24.5149 20.0004C24.5151 20.0017 24.5153 20.003 24.5154 20.0043C24.5157 20.0059 24.5159 20.0074 24.5161 20.0089C24.5166 20.0119 24.5171 20.0148 24.5174 20.0178C24.5194 20.0381 24.5194 20.0585 24.5174 20.0787C24.5169 20.0833 24.5161 20.0877 24.5154 20.0922C24.5152 20.0937 24.515 20.0952 24.5148 20.0966C24.5143 20.1006 24.5137 20.1046 24.5129 20.1086C24.5119 20.1137 24.5105 20.1188 24.5092 20.1238C24.5089 20.1252 24.5086 20.1265 24.5082 20.1278C24.5074 20.1312 24.5066 20.1345 24.5056 20.1379C24.5045 20.1416 24.5032 20.1452 24.5018 20.1488C24.5014 20.1501 24.5009 20.1513 24.5005 20.1525C24.5001 20.1536 24.4997 20.1548 24.4993 20.1559C24.4981 20.1594 24.4968 20.1629 24.4954 20.1663C24.4935 20.1709 24.4913 20.1752 24.4892 20.1797C24.4887 20.1808 24.4882 20.1819 24.4877 20.1831C24.486 20.1866 24.4843 20.1902 24.4825 20.1937C24.4802 20.198 24.4776 20.202 24.4751 20.2061C24.4725 20.2106 24.4699 20.2152 24.467 20.2196C24.4647 20.223 24.4622 20.2262 24.4598 20.2295C24.4589 20.2306 24.4581 20.2317 24.4573 20.2328Z" fill="#ffffff" fill-opacity="0.7"/>
</svg>
