<svg width="13" height="18" viewBox="0 0 13 18" fill="none" xmlns="http://www.w3.org/2000/svg">
<path d="M6.77056 0.103929C6.69611 0.036995 6.5998 0 6.5 0C6.4002 0 6.30389 0.036995 6.22944 0.103929C5.97512 0.332446 0 5.76585 0 11.4546C0 13.1905 0.68482 14.8554 1.90381 16.0829C3.12279 17.3104 4.77609 18 6.5 18C8.22391 18 9.87721 17.3104 11.0962 16.0829C12.3152 14.8554 13 13.1905 13 11.4546C13 5.76585 7.02488 0.332446 6.77056 0.103929ZM4.61675 15.557C4.56275 15.6509 4.47396 15.7193 4.36989 15.7473C4.26581 15.7753 4.15496 15.7605 4.06169 15.7063C3.32195 15.2738 2.7077 14.6537 2.28016 13.9077C1.85262 13.1617 1.62673 12.3159 1.625 11.4546C1.625 11.3461 1.6678 11.242 1.74399 11.1653C1.82017 11.0886 1.92351 11.0455 2.03125 11.0455C2.13899 11.0455 2.24233 11.0886 2.31851 11.1653C2.3947 11.242 2.4375 11.3461 2.4375 11.4546C2.43895 12.1725 2.62727 12.8774 2.98368 13.4991C3.34009 14.1209 3.85214 14.6376 4.46875 14.9979C4.51493 15.0249 4.55539 15.0607 4.58782 15.1033C4.62025 15.146 4.64402 15.1947 4.65776 15.2466C4.67151 15.2985 4.67496 15.3527 4.66792 15.4059C4.66088 15.4592 4.64349 15.5105 4.61675 15.557Z" fill="#575757"/>
</svg>
