<svg width="17" height="17" viewBox="0 0 17 17" fill="none" xmlns="http://www.w3.org/2000/svg">
<path fill-rule="evenodd" clip-rule="evenodd" d="M3.96113 0.000330846C3.9419 0.000460461 3.9227 0.00156785 3.90358 0.00364872C3.76353 0.0195945 3.63445 0.0871223 3.54154 0.19305C3.44863 0.298978 3.39856 0.435703 3.40111 0.576535V1.14057H1.70332C0.771341 1.14057 0 1.91135 0 2.84264V4.54029H17V2.84264C17 1.91135 16.2342 1.14057 15.3022 1.14057H13.6033V0.576535C13.6048 0.495901 13.589 0.415887 13.557 0.341846C13.525 0.267805 13.4776 0.201445 13.4178 0.147207C13.3581 0.0929692 13.2875 0.0521038 13.2107 0.027346C13.1339 0.00258816 13.0526 -0.00549114 12.9725 0.00364872C12.8324 0.0195945 12.7033 0.0871222 12.6104 0.19305C12.5175 0.298978 12.4674 0.435703 12.47 0.576535V1.14057H9.06888V0.576535C9.07034 0.495901 9.05454 0.415887 9.02256 0.341846C8.99057 0.267805 8.94312 0.201445 8.8834 0.147207C8.82367 0.0929692 8.75304 0.0521038 8.67623 0.027346C8.59942 0.00258816 8.51821 -0.00549114 8.43802 0.00364872C8.29797 0.0195945 8.16889 0.0871222 8.07598 0.19305C7.98307 0.298978 7.933 0.435703 7.93555 0.576535V1.14057H4.53444V0.576535C4.53577 0.500781 4.52187 0.42553 4.49358 0.355239C4.46528 0.284948 4.42315 0.221046 4.36969 0.167317C4.31623 0.113588 4.25253 0.0711247 4.18235 0.0424416C4.11217 0.0137585 4.03695 -0.000561028 3.96113 0.000330846ZM0 5.67279V15.299C0 16.2303 0.771341 17 1.70332 17H15.3022C16.2342 17 17 16.2303 17 15.299V5.67279H0ZM2.78021 7.37264C2.79903 7.37207 2.81787 7.37244 2.83665 7.37375H5.10332C5.25284 7.37435 5.39606 7.43396 5.50179 7.53961C5.60751 7.64526 5.66718 7.78838 5.66777 7.93779V10.2028C5.66718 10.3522 5.60751 10.4953 5.50179 10.601C5.39606 10.7066 5.25284 10.7662 5.10332 10.7668H2.83665C2.68637 10.7674 2.54201 10.7083 2.43533 10.6025C2.32864 10.4967 2.26837 10.353 2.26777 10.2028V7.93779C2.26764 7.79727 2.31978 7.66172 2.41407 7.55748C2.50837 7.45324 2.63808 7.38776 2.77799 7.37375C2.77873 7.37338 2.77947 7.37301 2.78021 7.37264ZM7.31465 7.37264C7.33347 7.37207 7.35231 7.37244 7.37109 7.37375H9.63333C9.70784 7.37332 9.7817 7.38757 9.85069 7.4157C9.91967 7.44383 9.98243 7.48527 10.0354 7.53766C10.0883 7.59005 10.1304 7.65235 10.1592 7.72101C10.188 7.78967 10.203 7.86333 10.2033 7.93779V10.2028C10.203 10.2772 10.188 10.3509 10.1592 10.4196C10.1304 10.4882 10.0883 10.5505 10.0354 10.6029C9.98243 10.6553 9.91967 10.6967 9.85069 10.7249C9.7817 10.753 9.70784 10.7673 9.63333 10.7668H7.37109C7.22081 10.7674 7.07645 10.7083 6.96977 10.6025C6.86308 10.4967 6.80281 10.353 6.80221 10.2028V7.93779C6.80208 7.79727 6.85422 7.66172 6.94852 7.55748C7.04281 7.45324 7.17252 7.38776 7.31243 7.37375C7.31317 7.37338 7.31391 7.37301 7.31465 7.37264ZM11.8469 7.37375C11.8649 7.37288 11.883 7.37288 11.9011 7.37375H14.1678C14.2423 7.37332 14.3161 7.38757 14.3851 7.4157C14.4541 7.44383 14.5169 7.48527 14.5698 7.53766C14.6228 7.59005 14.6648 7.65235 14.6937 7.72101C14.7225 7.78967 14.7375 7.86333 14.7378 7.93779V10.2028C14.7375 10.2772 14.7225 10.3509 14.6937 10.4196C14.6648 10.4882 14.6228 10.5505 14.5698 10.6029C14.5169 10.6553 14.4541 10.6967 14.3851 10.7249C14.3161 10.753 14.2423 10.7673 14.1678 10.7668H11.9011C11.7516 10.7662 11.6084 10.7066 11.5026 10.601C11.3969 10.4953 11.3373 10.3522 11.3367 10.2028V7.93779C11.3365 7.79727 11.3887 7.66172 11.483 7.55748C11.5772 7.45324 11.707 7.38776 11.8469 7.37375ZM3.40111 8.50625V9.63432H4.53444V8.50625H3.40111ZM7.93555 8.50625V9.63432H9.06888V8.50625H7.93555ZM12.47 8.50625V9.63432H13.6033V8.50625H12.47ZM2.83665 11.9004H5.10332C5.25361 11.901 5.3975 11.9613 5.50335 12.0679C5.6092 12.1745 5.66835 12.3187 5.66777 12.4689V14.7339C5.66747 14.8835 5.60794 15.0269 5.50218 15.1328C5.39642 15.2387 5.25303 15.2984 5.10332 15.299H2.83665C2.76215 15.2993 2.68832 15.2849 2.61938 15.2567C2.55045 15.2284 2.48777 15.1868 2.43494 15.1343C2.3821 15.0819 2.34014 15.0195 2.31145 14.9508C2.28277 14.882 2.26793 14.8083 2.26777 14.7339V12.4689C2.26749 12.3942 2.28201 12.3201 2.3105 12.251C2.33898 12.1819 2.38088 12.1191 2.43376 12.0663C2.48664 12.0135 2.54947 11.9716 2.61862 11.9431C2.68776 11.9147 2.76187 11.9001 2.83665 11.9004ZM7.37109 11.9004H9.63333C9.70821 11.9 9.78244 11.9144 9.85171 11.9428C9.92099 11.9712 9.98395 12.013 10.0369 12.0659C10.0899 12.1188 10.1319 12.1816 10.1605 12.2508C10.1891 12.3199 10.2036 12.3941 10.2033 12.4689V14.7339C10.2032 14.8084 10.1883 14.8822 10.1595 14.951C10.1308 15.0198 10.0887 15.0822 10.0358 15.1347C9.98281 15.1872 9.92 15.2288 9.85094 15.257C9.78188 15.2852 9.70793 15.2995 9.63333 15.299H7.37109C7.29659 15.2993 7.22276 15.2849 7.15382 15.2567C7.08489 15.2284 7.02221 15.1868 6.96938 15.1343C6.91654 15.0819 6.87458 15.0195 6.84589 14.9508C6.81721 14.882 6.80237 14.8083 6.80221 14.7339V12.4689C6.80193 12.3942 6.81645 12.3201 6.84494 12.251C6.87342 12.1819 6.91532 12.1191 6.9682 12.0663C7.02108 12.0135 7.08391 11.9716 7.15306 11.9431C7.2222 11.9147 7.29631 11.9001 7.37109 11.9004ZM11.9011 11.9004H14.1678C14.2427 11.9 14.3169 11.9144 14.3862 11.9428C14.4554 11.9712 14.5184 12.013 14.5714 12.0659C14.6244 12.1188 14.6664 12.1816 14.6949 12.2508C14.7235 12.3199 14.738 12.3941 14.7378 12.4689V14.7339C14.7376 14.8084 14.7227 14.8822 14.694 14.951C14.6652 15.0198 14.6232 15.0822 14.5702 15.1347C14.5173 15.1872 14.4544 15.2288 14.3854 15.257C14.3163 15.2852 14.2424 15.2995 14.1678 15.299H11.9011C11.7514 15.2984 11.608 15.2387 11.5022 15.1328C11.3965 15.0269 11.337 14.8835 11.3367 14.7339V12.4689C11.3361 12.3187 11.3952 12.1745 11.5011 12.0679C11.6069 11.9613 11.7508 11.901 11.9011 11.9004ZM3.40111 13.0329V14.1654H4.53444V13.0329H3.40111ZM7.93555 13.0329V14.1654H9.06888V13.0329H7.93555ZM12.47 13.0329V14.1654H13.6033V13.0329H12.47Z" fill="#575757"/>
</svg>
