<svg xmlns="http://www.w3.org/2000/svg" enable-background="new 0 0 24 24" viewBox="0 0 24 24"><path fill="#b2b1ff" d="M19 12H5c-.323 0-.63-.064-.921-.16l.746 7.459A2.991 2.991 0 0 0 7.81 22h8.38a2.991 2.991 0 0 0 2.985-2.701l.746-7.458c-.292.095-.598.159-.921.159z"/><path fill="#d8d8ff" d="M19 12H5a3 3 0 0 1 0-6h14a3 3 0 0 1 0 6z"/><path fill="#d8d8ff" d="M19 12H5a3 3 0 0 1 0-6h14a3 3 0 0 1 0 6z"/><path fill="#6563ff" d="M15.382 6h2.236l-1.723-3.447a1 1 0 0 0-1.79.894L15.382 6zM8.618 6l1.277-2.553.002-.004a1 1 0 0 0-1.792-.89L6.382 6h2.236zM10 14a1 1 0 0 0-1 1v2a1 1 0 0 0 2 0v-2a1 1 0 0 0-1-1zM14 14a1 1 0 0 0-1 1v2a1 1 0 0 0 2 0v-2a1 1 0 0 0-1-1z"/></svg>