<?xml version="1.0" encoding="utf-8"?>
<!-- Generator: Adobe Illustrator 25.2.1, SVG Export Plug-In . SVG Version: 6.00 Build 0)  -->
<svg version="1.1" id="Layer_1" xmlns="http://www.w3.org/2000/svg" xmlns:xlink="http://www.w3.org/1999/xlink" x="0px" y="0px"
	 viewBox="0 0 754.5 1649.4" style="enable-background:new 0 0 754.5 1649.4;" xml:space="preserve">
<style type="text/css">
	.st0{clip-path:url(#SVGID_2_);}
	.st1{fill:#FD635B;}
</style>
<g>
	<defs>
		<rect id="SVGID_1_" x="-172.7" y="-404.3" width="1100" height="2330"/>
	</defs>
	<clipPath id="SVGID_2_">
		<use xlink:href="#SVGID_1_"  style="overflow:visible;"/>
	</clipPath>
	<g class="st0">
		<path class="st1" d="M640.2,0L109.9,1.4C49,1.6-0.2,54.6,0,119.9l3.8,1411.5c0.2,65.2,49.6,118.1,110.5,117.9l530.3-1.4
			c60.8-0.2,110.1-53.1,109.9-118.5l-3.8-1411.5C750.5,52.5,701-0.2,640.2,0z M723,1522.8c0.1,50.8-36.7,92.2-82.4,92.3l-522.5,1.4
			c-45.5,0.1-82.7-41-82.9-91.8L31.5,135.3C31.4,84.4,68.2,43.1,113.9,43l59.8-0.2c6.8,0,12.2,6.1,12.2,13.6
			c0.1,27.1,19.8,49,44.2,48.9l290.4-0.8c24.4,0.1,44-21.9,43.9-49.1c0-7.4,5.4-13.6,12.2-13.6l59.9-0.2c45.5-0.1,82.7,41,82.9,91.8
			L723,1522.8L723,1522.8z"/>
	</g>
</g>
</svg>
