<?xml version="1.0" encoding="utf-8"?>
<!-- Generator: Adobe Illustrator 27.4.1, SVG Export Plug-In . SVG Version: 6.00 Build 0)  -->
<svg version="1.1" id="Layer_1" xmlns="http://www.w3.org/2000/svg" xmlns:xlink="http://www.w3.org/1999/xlink" x="0px" y="0px"
	 viewBox="0 0 752 555.9" style="enable-background:new 0 0 752 555.9;" xml:space="preserve">
<style type="text/css">
	.st0{fill:#E6E6E6;}
	.st1{fill:#FFFFFF;}
	.st2{fill:#CACACA;}
	.st3{fill:#3F3D56;}
	.st4{fill:#00BFA6;}
	.st5{fill:#F2F2F2;}
</style>
<path class="st0" d="M533.7,407.7H128.8c-7.5,0-13.6-6.1-13.6-13.6V64.4c0-7.5,6.1-13.6,13.6-13.6h404.9c7.5,0,13.6,6.1,13.6,13.6
	v329.7C547.3,401.6,541.3,407.7,533.7,407.7z"/>
<path class="st1" d="M138,60.4c-7.2,0-13.1,5.9-13.1,13.1v311.4c0,7.2,5.9,13.1,13.1,13.1h277.2c67.6-0.1,122.4-54.9,122.5-122.5
	V73.6c0-7.2-5.9-13.1-13.1-13.1L138,60.4z"/>
<path class="st0" d="M459.9,200.5h-73.4c-3.2,0-5.8-2.6-5.8-5.8v-36.5c0-3.2,2.6-5.8,5.8-5.8h73.4c3.2,0,5.8,2.6,5.8,5.8
	c4.5,12.9,5.2,25.2,0,36.5C465.7,197.9,463.1,200.5,459.9,200.5z"/>
<path class="st1" d="M451.2,196.9h-62.4c-2.7,0-4.9-2.2-4.9-4.9v-31c0-2.7,2.2-4.9,4.9-4.9h62.4c2.7,0,4.9,2.2,4.9,4.9
	c4.2,11.1,4.9,21.5,0,31C456.1,194.7,453.9,196.9,451.2,196.9z"/>
<path class="st0" d="M447.8,219.6h-49.5c-3,0-5.5-2.4-5.5-5.5s2.4-5.5,5.5-5.5h49.5c3,0,5.5,2.5,5.5,5.5
	C453.3,217.2,450.9,219.6,447.8,219.6z"/>
<path class="st0" d="M414.6,164.5c-1.2,0-2.1,1-2.1,2.1v23.3c0,1.2,1,2.1,2.1,2.1c0.4,0,0.7-0.1,1.1-0.3l20.5-11.7
	c1-0.6,1.4-1.9,0.8-2.9c-0.2-0.3-0.5-0.6-0.8-0.8l-20.5-11.6C415.3,164.6,415,164.5,414.6,164.5z"/>
<path class="st0" d="M483.8,184.2c0.9-1.1,1.5-2.3,2-3.7l3.9-9.7l-1,0c-5.6-1-10.9,2.6-11.9,8.2c-0.1,0.4-0.1,0.8-0.1,1.2
	c-0.1,1.2,0.1,2.5,0.6,3.6c0.6,1.1,1.6,1.9,2.9,2.1C481.5,185.9,482.9,185.3,483.8,184.2z"/>
<path class="st2" d="M750.8,555.6L479,555.9c-0.7,0-1.2-0.5-1.2-1.2c0-0.7,0.5-1.2,1.2-1.2h0l271.8-0.3c0.7,0,1.2,0.5,1.2,1.2
	C751.9,555,751.4,555.6,750.8,555.6z"/>
<polygon class="st3" points="425.4,155.7 423.4,155.7 423.4,12.7 502,12.7 502,14.7 425.4,14.7 "/>
<path class="st4" d="M563.2,0h-53c-7.2,0-13,5.8-13,13s5.8,13,13,13h53c7.2,0,13-5.8,13-13S570.4,0,563.2,0z"/>
<circle class="st4" cx="423.2" cy="156.8" r="11.9"/>
<path class="st5" d="M279.3,201.7l52.4-12.1l15-3.5c1.9-0.4,1.1-3.3-0.8-2.9l-52.4,12.1l-15,3.5
	C276.6,199.3,277.4,202.2,279.3,201.7L279.3,201.7z"/>
<path class="st5" d="M333.4,170.1l28.1,12.9c1,0.3,1.9,0.8,2.7,1.4c0.8,0.8,0.2,1.5-0.4,2.1c-1.9,1.8-3.9,3.4-6,4.9l-12,9.7
	c-1.5,1.2,0.6,3.3,2.1,2.1l10.4-8.5l5.2-4.2c1.5-1.2,3.3-2.4,3.9-4.3c1.2-4-3.7-5.6-6.4-6.9l-12.2-5.6l-13.8-6.3
	C333.2,166.8,331.6,169.3,333.4,170.1L333.4,170.1z"/>
<path class="st0" d="M252.3,198.6h-62.9c-6.1,0-11-4.9-11-11v-41.4c0-6.1,4.9-11,11-11h62.9c6.1,0,11,4.9,11,11v41.4
	C263.3,193.7,258.4,198.6,252.3,198.6z"/>
<path class="st1" d="M245.4,196.4h-54.7c-5.3,0-9.6-4.3-9.6-9.6v-36.1c0-5.3,4.3-9.6,9.6-9.6h54.7c5.3,0,9.6,4.3,9.6,9.6v36.1
	C255,192.1,250.7,196.4,245.4,196.4z"/>
<path class="st0" d="M261.2,236h-80.7c-1,0-1.9-0.8-1.9-1.9c0-1,0.8-1.9,1.9-1.9h80.7c1,0,1.9,0.8,1.9,1.9
	C263.1,235.1,262.2,235.9,261.2,236z"/>
<path class="st0" d="M261.2,225.2h-80.7c-1,0-1.9-0.8-1.9-1.9c0-1,0.8-1.9,1.9-1.9h80.7c1,0,1.9,0.8,1.9,1.9
	C263.1,224.4,262.2,225.2,261.2,225.2z"/>
<path class="st0" d="M261.2,246.7h-80.7c-1,0-1.9-0.8-1.9-1.9s0.8-1.9,1.9-1.9l0,0h80.7c1,0,1.9,0.8,1.9,1.9
	S262.2,246.7,261.2,246.7z"/>
<path class="st0" d="M261.2,257.5h-80.7c-1,0-1.9-0.8-1.9-1.9s0.8-1.9,1.9-1.9l0,0h80.7c1,0,1.9,0.8,1.9,1.9
	S262.2,257.5,261.2,257.5z"/>
<path class="st0" d="M261.2,268.2h-80.7c-1,0-1.9-0.8-1.9-1.9s0.8-1.9,1.9-1.9l0,0h80.7c1,0,1.9,0.8,1.9,1.9
	S262.2,268.2,261.2,268.2z"/>
<path class="st0" d="M261.2,279h-80.7c-1,0-1.9-0.8-1.9-1.9c0-1,0.8-1.9,1.9-1.9h80.7c1,0,1.9,0.8,1.9,1.9
	C263.1,278.1,262.2,279,261.2,279z"/>
<polygon class="st3" points="216.8,254.3 218.8,254.3 218.8,331.3 74.2,331.3 74.2,329.3 216.8,329.3 "/>
<path class="st4" d="M13,344h53c7.2,0,13-5.8,13-13s-5.8-13-13-13H13c-7.2,0-13,5.8-13,13S5.8,344,13,344L13,344z"/>
<circle class="st4" cx="219.2" cy="248.2" r="11.9"/>
<path class="st5" d="M281,251.5c17.5,3.7,13.1,4.5,30.6,8.2l15.1,3.2c1.9,0.4,2.4-2.6,0.5-3c-17.5-3.7-13.1-4.5-30.6-8.2l-15.1-3.2
	C279.6,248.1,279.1,251.1,281,251.5L281,251.5z"/>
<path class="st5" d="M321.4,242.8l20,23.6c0.7,0.7,1.3,1.5,1.8,2.4c0.4,1-0.4,1.4-1.3,1.8c-2.5,0.8-5,1.4-7.5,1.9l-14.9,3.7
	c-1.9,0.5-0.9,3.3,1,2.8l13-3.3l6.5-1.6c1.8-0.5,4-0.8,5.3-2.3c2.8-3.1-1-6.6-2.9-8.9l-8.7-10.3l-9.8-11.6
	C322.6,239.6,320.1,241.3,321.4,242.8L321.4,242.8z"/>
<circle class="st0" cx="384.7" cy="317.7" r="27.8"/>
<circle class="st1" cx="381.9" cy="320.8" r="21.1"/>
<path class="st0" d="M378.2,335.3c-1,0-1.9-0.5-2.5-1.2l-7.6-10.1c-1-1.4-0.7-3.3,0.6-4.3c1.4-1,3.3-0.7,4.3,0.6l0,0l0,0l5,6.6
	l12.7-19.1c0.9-1.4,2.9-1.8,4.3-0.9s1.8,2.9,0.9,4.3l0,0l-15.2,22.7C380.2,334.7,379.2,335.2,378.2,335.3
	C378.2,335.3,378.2,335.3,378.2,335.3z"/>
<polygon class="st3" points="384.4,355.1 382.4,355.1 382.4,432.1 450.1,432.1 450.1,430.1 384.4,430.1 "/>
<path class="st4" d="M524.2,431.8c0-7.2-5.8-13-13-13h-53c-7.2,0-13,5.8-13,13s5.8,13,13,13h53C518.4,444.8,524.2,438.9,524.2,431.8
	z"/>
<circle class="st4" cx="382" cy="348.9" r="11.9"/>
</svg>
