<?xml version="1.0" encoding="utf-8"?>
<!-- Generator: Adobe Illustrator 27.4.1, SVG Export Plug-In . SVG Version: 6.00 Build 0)  -->
<svg version="1.1" id="Layer_1" xmlns="http://www.w3.org/2000/svg" xmlns:xlink="http://www.w3.org/1999/xlink" x="0px" y="0px"
	 viewBox="0 0 412.2 608.2" style="enable-background:new 0 0 412.2 608.2;" xml:space="preserve">
<style type="text/css">
	.st0{fill:#DEDFE0;}
	.st1{fill:#DADBDC;}
	.st2{fill:#6C63FF;}
	.st3{fill:#3F3D56;}
	.st4{fill:#2F2E41;}
</style>
<path class="st0" d="M360.3,608.2H167.2c-28.6,0-51.9-23.3-51.9-51.9V51.9c0-28.6,23.3-51.9,51.9-51.9h193.1
	c28.6,0,51.9,23.3,51.9,51.9v504.3C412.2,584.9,388.9,608.2,360.3,608.2z M167.2,2c-27.5,0-49.9,22.4-49.9,49.9v504.3
	c0,27.5,22.4,49.9,49.9,49.9h193.1c27.5,0,49.9-22.4,49.9-49.9V51.9c0-27.5-22.4-49.9-49.9-49.9H167.2z"/>
<path class="st1" d="M291.1,47.4h-54.7c-7.2,0-13.1-5.9-13.1-13.1s5.9-13.1,13.1-13.1h54.7c7.2,0,13.1,5.9,13.1,13.1
	S298.3,47.4,291.1,47.4z"/>
<path class="st2" d="M205.6,310.3c4.7,25,28.8,41.6,53.9,36.9c7.6-1.4,14.4-4.6,20-9.1l0,0l57,61.5c3.5,3.8,9.4,3.8,12.9,0l0,0
	c3.2-3.5,3.1-9-0.4-12.3l-60.9-58c7.3-9.9,10.7-22.8,8.2-35.9c-4.7-25-28.8-41.6-53.9-36.9S200.9,285.2,205.6,310.3L205.6,310.3z
	 M215.4,308.5c-3.7-19.6,9.2-38.5,28.9-42.2c19.6-3.7,38.5,9.2,42.2,28.9s-9.2,38.5-28.9,42.2S219.1,328.1,215.4,308.5L215.4,308.5z
	"/>
<g>
	<path class="st3" d="M178.4,404.1c-5.1-8.1-16.8-10-25.6-6.2c-8.8,3.9-14.8,12.2-18.9,20.8c-4.1,8.6-6.7,18-10.9,26.6
		c-12.4,25.3-37.6,41.8-53.5,65.1c-11.9,17.5-18.2,38.8-17.8,59.9c0.2,8.1,1.5,16.6,6.5,23c7.5,9.4,20.8,11.3,32.8,12.6
		c7,0.7,15.5,0.7,19.1-5.3c1.4-2.4-13.8-10.7-13.6-13.4c1.3-14.9,18.1-24.3,19.5-39.2c2.1,10.4-0.6,21-0.2,31.6
		c0.4,10.6,5.6,22.5,16,24.7c3.2,0.7,6.8,0.2,9.2-2c2.4-2.2,3.1-6.3,1-8.8c2.2,2.3,5.9,2.8,8.7,1.4s4.4-4.9,3.8-8
		c-0.4-2.3-1.9-4.2-3.2-6.1c-6.9-10.5-8.7-24.2-4.7-36.1c7-21.1,29.9-34.8,33.8-56.7c2.9-16.2-5.3-34.6,3.4-48.6
		c3.9-6.3,10.6-10.3,15.9-15.4s9.5-13.1,6.4-19.9l-27.2,0"/>
	<path class="st4" d="M94.5,590.1c-0.7,0-1.4-0.2-2-0.5c-1.5-0.8-2.7-2.5-3-4.2c-0.4-2.8,0.9-5.6,2-7.8c3-6.1,5.9-12.5,6.3-19.3
		c0.5-7.3-2.5-14.2-7.6-17.4c-3.8-2.4-8.8-3-14.2-1.7c-4.8,1.1-9.1,3.4-13.8,6.1c-0.4,0.2-0.8,0.1-1.1-0.3c-0.2-0.4-0.1-0.8,0.3-1.1
		c4.6-2.6,9.2-5.1,14.2-6.2c5.8-1.4,11.3-0.7,15.4,1.9c5.6,3.5,8.8,10.9,8.3,18.8c-0.5,7-3.5,13.7-6.5,19.9c-1,2.1-2.2,4.5-1.9,6.9
		c0.2,1.2,1.1,2.4,2.2,3c0.5,0.3,1.4,0.6,2.2,0.2c0.4-0.2,0.9,0,1,0.4c0.2,0.4,0,0.9-0.4,1C95.5,589.9,95,590.1,94.5,590.1
		L94.5,590.1z"/>
	<path class="st4" d="M154,403.6c-1,2.8,0.3,5.9,2.2,8.2c1.9,2.3,4.3,4.1,6,6.6c3.5,5.2,3,12.2,0.3,17.8
		c-2.7,5.6-7.2,10.1-11.6,14.5c0.3-1.9-0.6-3.8-1.9-5.2s-2.9-2.4-4.4-3.7c-6.7-5.8-8.8-16.3-4.9-24.2"/>
	<path class="st3" d="M62,569.3c-5.7-0.7-10.5,4.4-16.2,5.2c-6.6,0.9-12.6-4.3-15.6-10.3s-3.7-12.7-5.7-19.1
		c-2-6.3-5.9-12.8-12.2-14.8c-2.7-0.8-5.7-0.8-8.1,0.5s-4.3,3.9-4.2,6.7c0.1,3.4,2.7,6.2,4.3,9.2c2.5,4.8,2.5,10.6,3.6,15.9
		c2.7,12.9,13.1,23.8,25.9,27c6.6,1.7,14,1.3,19.7-2.4s9.2-11.1,7.1-17.6"/>
</g>
</svg>
