<svg width="18" height="15" viewBox="0 0 18 15" fill="none" xmlns="http://www.w3.org/2000/svg">
<path d="M16.04 0.78949H1.96C0.88 0.78949 0 1.66201 0 2.73283V12.8461C0 13.917 0.88 14.7895 1.96 14.7895H16.04C17.12 14.7895 18 13.917 18 12.8461V2.73283C18 1.66201 17.12 0.78949 16.04 0.78949ZM3.9 5.37023C4.08 4.49771 4.94 3.92263 5.82 4.1011C6.7 4.27957 7.28 5.13227 7.1 6.00479C6.98 6.63935 6.46 7.15493 5.82 7.27391C4.94 7.45238 4.08 6.87731 3.9 6.00479C3.86 5.80649 3.86 5.58836 3.9 5.37023ZM8.28 11.0813C8.28 11.3192 8.08 11.5175 7.84 11.5175H3.16C2.92 11.5175 2.72 11.3192 2.72 11.0813V10.5657C2.7 9.13793 3.76 7.94813 5.18 7.74983C6.7 7.57136 8.1 8.66201 8.26 10.1691C8.28 10.2682 8.28 10.3872 8.28 10.4864V11.0813ZM15.12 10.1096H9.88V8.80082H15.12V10.1096ZM15.12 6.77816H9.88V5.46938H15.12V6.77816Z" fill="#575757"/>
</svg>
