<svg width="36" height="38" viewBox="0 0 36 38" fill="none" xmlns="http://www.w3.org/2000/svg">
<path d="M5.61168 0V4.36121C7.54303 4.44072 9.08979 6.03642 9.08979 7.98688V9.39295C9.08979 9.86394 8.99957 10.3143 8.83518 10.7279H16.0384V11.8748C16.0384 15.2436 13.2973 17.9846 9.92854 17.9846H9.08979V20.2042H31.0724V0H5.61168ZM16.0865 6.34607H13.7928V4.05231H16.0865V6.34607ZM28.167 15.5211H18.3803V13.2274H28.167V15.5211ZM28.167 10.9336H18.3803V8.63984H28.167V10.9336ZM28.167 6.34607H18.3803V4.05231H28.167V6.34607Z" fill="white"/>
<path d="M5.46105 10.7279C6.19551 10.7282 6.79556 10.1309 6.79602 9.39295V7.98688C6.80023 7.24591 6.17938 6.64785 5.46105 6.65191C4.72552 6.65191 4.12685 7.25058 4.12685 7.98688V9.39295C4.12685 10.1292 4.72552 10.7279 5.46105 10.7279Z" fill="white"/>
<path d="M13.5687 13.0217H5.46106C3.08319 13.0217 1.14879 14.9561 1.14879 17.334V20.2616H6.79603V15.6909H9.92855C11.6336 15.6909 13.0809 14.5677 13.5687 13.0217Z" fill="white"/>
<path d="M5 31C6.65685 31 8 29.6569 8 28C8 26.3431 6.65685 25 5 25C3.34315 25 2 26.3431 2 28C2 29.6569 3.34315 31 5 31Z" fill="white"/>
<path d="M11 38V37.6C11 34.5072 8.53757 32 5.5 32C2.46243 32 0 34.5072 0 37.6V38H11Z" fill="white"/>
<path d="M18 31C19.6569 31 21 29.6569 21 28C21 26.3431 19.6569 25 18 25C16.3431 25 15 26.3431 15 28C15 29.6569 16.3431 31 18 31Z" fill="white"/>
<path d="M23 38V37.6C23 34.5072 20.5376 32 17.5 32C14.4624 32 12 34.5072 12 37.6V38H23Z" fill="white"/>
<path d="M30 31C31.6569 31 33 29.6569 33 28C33 26.3431 31.6569 25 30 25C28.3431 25 27 26.3431 27 28C27 29.6569 28.3431 31 30 31Z" fill="white"/>
<path d="M36 38V37.6C36 34.5072 33.3137 32 30 32C26.6863 32 24 34.5072 24 37.6V38H36Z" fill="white"/>
</svg>
