<svg width="32" height="32" viewBox="0 0 32 32" fill="none" xmlns="http://www.w3.org/2000/svg">
<path d="M2.66669 6.66666C2.66664 6.49155 2.70109 6.31814 2.76808 6.15635C2.83506 5.99456 2.93327 5.84756 3.05709 5.72373C3.18091 5.59991 3.32791 5.50169 3.4897 5.4347C3.65149 5.3677 3.82489 5.33324 4 5.33328H21.3333C21.5092 5.33208 21.6835 5.36568 21.8464 5.43215C22.0092 5.49861 22.1573 5.59663 22.282 5.72057C22.4068 5.8445 22.5059 5.99189 22.5734 6.15426C22.641 6.31663 22.6758 6.49076 22.6758 6.66663C22.6758 6.8425 22.641 7.01663 22.5734 7.179C22.5059 7.34136 22.4068 7.48876 22.282 7.61269C22.1573 7.73662 22.0092 7.83464 21.8464 7.90111C21.6835 7.96758 21.5092 8.00117 21.3333 7.99997H4C3.82489 8.00001 3.6515 7.96555 3.48971 7.89856C3.32793 7.83157 3.18093 7.73336 3.05711 7.60954C2.9333 7.48573 2.83509 7.33873 2.7681 7.17694C2.70111 7.01516 2.66665 6.84176 2.66669 6.66666ZM28 14.6667H4C3.64638 14.6667 3.30725 14.8071 3.05721 15.0572C2.80716 15.3072 2.66669 15.6464 2.66669 16C2.66669 16.3536 2.80716 16.6927 3.05721 16.9428C3.30725 17.1928 3.64638 17.3333 4 17.3333H28C28.3536 17.3333 28.6928 17.1928 28.9428 16.9428C29.1928 16.6927 29.3333 16.3536 29.3333 16C29.3333 15.6464 29.1928 15.3072 28.9428 15.0572C28.6928 14.8071 28.3536 14.6667 28 14.6667ZM16 24H4C3.64796 24.0024 3.31115 24.1439 3.06307 24.3937C2.81498 24.6435 2.67575 24.9813 2.67575 25.3333C2.67575 25.6854 2.81498 26.0231 3.06307 26.2729C3.31115 26.5227 3.64796 26.6642 4 26.6667H16C16.352 26.6642 16.6888 26.5227 16.9369 26.2729C17.185 26.0231 17.3242 25.6854 17.3242 25.3333C17.3242 24.9813 17.185 24.6435 16.9369 24.3937C16.6888 24.1439 16.352 24.0024 16 24Z" fill="#343434"/>
</svg>
