<svg width="38" height="38" viewBox="0 0 38 38" fill="none" xmlns="http://www.w3.org/2000/svg">
<path d="M25.6859 27.5525C26.0184 27.2932 26.3199 26.9916 26.9232 26.3884L34.4423 18.8693C34.6239 18.6877 34.5407 18.3746 34.2979 18.2902C33.4104 17.9824 32.2557 17.4042 31.1758 16.3243C30.0958 15.2443 29.5176 14.0897 29.2098 13.2022C29.1255 12.9593 28.8124 12.8761 28.6307 13.0579L21.1117 20.5769C20.5084 21.1801 20.2069 21.4816 19.9475 21.8141C19.6416 22.2065 19.3792 22.6308 19.1653 23.0799C18.9839 23.4605 18.849 23.8652 18.5793 24.6744L18.2307 25.72L17.6765 27.3825L17.1568 28.9414C17.0242 29.3397 17.1277 29.7786 17.4245 30.0755C17.7215 30.3723 18.1604 30.4759 18.5586 30.3432L20.1176 29.8236L21.7801 29.2694L22.8257 28.9207C23.6347 28.6511 24.0396 28.5162 24.4201 28.3347C24.8693 28.1208 25.2936 27.8584 25.6859 27.5525Z" fill="white"/>
<path d="M36.7965 16.5152C38.4014 14.9103 38.4014 12.3084 36.7965 10.7036C35.1917 9.0988 32.5899 9.0988 30.9849 10.7036L30.7432 10.9453C30.5099 11.1786 30.4043 11.5044 30.4626 11.8291C30.4993 12.0334 30.5671 12.332 30.6908 12.6883C30.938 13.401 31.4048 14.3364 32.2843 15.2158C33.1637 16.0953 34.0992 16.5621 34.8117 16.8093C35.1682 16.933 35.4666 17.0008 35.6709 17.0375C35.9956 17.0958 36.3215 16.9902 36.5548 16.7569L36.7965 16.5152Z" fill="white"/>
<path fill-rule="evenodd" clip-rule="evenodd" d="M2.22598 2.22598C-2.26498e-07 4.45198 0 8.03464 0 15.2V22.8C0 29.9653 -2.26498e-07 33.5481 2.22598 35.774C4.45198 38 8.03464 38 15.2 38H19C26.1653 38 29.7481 38 31.974 35.774C34.1643 33.5836 34.1994 30.08 34.2 23.1422L28.8452 28.497C28.3326 29.0098 27.9129 29.4299 27.4389 29.7998C26.8833 30.233 26.2823 30.6044 25.6464 30.9075C25.1036 31.1661 24.5402 31.3538 23.8522 31.5827L19.46 33.0469C18.0377 33.5209 16.4696 33.1508 15.4094 32.0906C14.3494 31.0304 13.9791 29.4624 14.4533 28.04L14.9729 26.4812L15.8756 23.773L15.9172 23.648C16.1464 22.96 16.3339 22.3964 16.5925 21.8536C16.8956 21.2177 17.267 20.6167 17.7004 20.0613C18.0701 19.5871 18.4902 19.1674 19.0032 18.6548L26.6154 11.0426L28.728 8.93008L28.9697 8.68836C30.3289 7.32908 32.1106 6.64964 33.8922 6.65C33.6047 4.69196 33.0488 3.30081 31.974 2.22598C29.7481 2.26498e-07 26.1653 0 19 0H15.2C8.03464 0 4.45198 2.26498e-07 2.22598 2.22598ZM8.075 13.3C8.075 12.513 8.713 11.875 9.5 11.875H21.85C22.637 11.875 23.275 12.513 23.275 13.3C23.275 14.087 22.637 14.725 21.85 14.725H9.5C8.713 14.725 8.075 14.087 8.075 13.3ZM8.075 20.9C8.075 20.113 8.713 19.475 9.5 19.475H14.25C15.037 19.475 15.675 20.113 15.675 20.9C15.675 21.687 15.037 22.325 14.25 22.325H9.5C8.713 22.325 8.075 21.687 8.075 20.9ZM8.075 28.5C8.075 27.713 8.713 27.075 9.5 27.075H12.35C13.137 27.075 13.775 27.713 13.775 28.5C13.775 29.287 13.137 29.925 12.35 29.925H9.5C8.713 29.925 8.075 29.287 8.075 28.5Z" fill="white"/>
</svg>
