<svg width="39" height="38" viewBox="0 0 39 38" fill="none" xmlns="http://www.w3.org/2000/svg">
<path d="M27.3046 35.1H4.7578C3.77126 35.1 2.9789 34.3349 2.9789 33.4V4.6C2.9789 3.66512 3.77126 2.9 4.7578 2.9H27.3046C28.2912 2.9 29.0835 3.66511 29.0835 4.6V33.4C29.0835 34.3349 28.2912 35.1 27.3046 35.1ZM4.7578 37.1H27.3046C29.4311 37.1 31.1624 35.4474 31.1624 33.4V4.6C31.1624 2.55254 29.4311 0.9 27.3046 0.9H4.7578C2.63128 0.9 0.9 2.55255 0.9 4.6V33.4C0.9 35.4474 2.63128 37.1 4.7578 37.1Z" fill="white" stroke="white" stroke-width="0.2"/>
<path d="M14.8742 8.09947C14.3107 8.09947 13.8492 8.5446 13.8492 9.09947C13.8492 9.65433 14.3107 10.0995 14.8742 10.0995H25.9742C26.5377 10.0995 26.9992 9.65433 26.9992 9.09947C26.9992 8.5446 26.5377 8.09947 25.9742 8.09947H14.8742Z" fill="white" stroke="white" stroke-width="0.2"/>
<path d="M14.8742 11.6996C14.3107 11.6996 13.8492 12.1448 13.8492 12.6996C13.8492 13.2545 14.3107 13.6996 14.8742 13.6996H25.9742C26.5377 13.6996 26.9992 13.2545 26.9992 12.6996C26.9992 12.1448 26.5377 11.6996 25.9742 11.6996H14.8742Z" fill="white" stroke="white" stroke-width="0.2"/>
<path d="M14.8742 18.8992C14.3107 18.8992 13.8492 19.3443 13.8492 19.8992C13.8492 20.454 14.3107 20.8992 14.8742 20.8992H25.9742C26.5377 20.8992 26.9992 20.454 26.9992 19.8992C26.9992 19.3443 26.5377 18.8992 25.9742 18.8992H14.8742Z" fill="white" stroke="white" stroke-width="0.2"/>
<path d="M14.8742 22.5001C14.3107 22.5001 13.8492 22.9453 13.8492 23.5001C13.8492 24.055 14.3107 24.5001 14.8742 24.5001H25.9742C26.5377 24.5001 26.9992 24.055 26.9992 23.5001C26.9992 22.9453 26.5377 22.5001 25.9742 22.5001H14.8742Z" fill="white" stroke="white" stroke-width="0.2"/>
<path d="M9.225 23.3992H6.65001V20.8992H9.225V23.3992ZM10.25 18.8992H5.62501C5.06153 18.8992 4.60001 19.3443 4.60001 19.8992V24.3992C4.60001 24.954 5.06153 25.3992 5.62501 25.3992H10.25C10.8135 25.3992 11.275 24.954 11.275 24.3992V19.8992C11.275 19.3443 10.8135 18.8992 10.25 18.8992Z" fill="white" stroke="white" stroke-width="0.2"/>
<path d="M7.40527 14.0439L7.47501 14.1117L7.54474 14.0439L11.8988 9.80751C12.3004 9.41679 12.3004 8.78209 11.8988 8.39138C11.4988 8.00216 10.8512 8.00216 10.4512 8.39138L7.47501 11.2871L6.34882 10.1914L6.34882 10.1914C5.94876 9.80216 5.30126 9.80216 4.9012 10.1914L4.9012 10.1914C4.49962 10.5821 4.49962 11.2168 4.9012 11.6075C4.9012 11.6075 4.9012 11.6075 4.9012 11.6075L7.40527 14.0439Z" fill="white" stroke="white" stroke-width="0.2"/>
<path d="M38.0792 33.4606L38.1 33.4336V33.3995V17.1995V17.0995H38H32.45H32.35V17.1995V33.3995V33.4336L32.3708 33.4606L35.1458 37.0606L35.225 37.1633L35.3042 37.0606L38.0792 33.4606ZM34.4 32.7654V19.0995H36.05V32.7654L35.225 33.8357L34.4 32.7654Z" fill="white" stroke="white" stroke-width="0.2"/>
<path d="M38 16.3999H38.1V16.2999V12.6999C38.1 11.6479 37.2244 10.7999 36.15 10.7999H34.3C33.2256 10.7999 32.35 11.6479 32.35 12.6999V16.2999V16.3999H32.45H38ZM34.4 14.3999V12.7999H36.05V14.3999H34.4Z" fill="white" stroke="white" stroke-width="0.2"/>
</svg>
