<svg width="46" height="42" viewBox="0 0 46 42" fill="none" xmlns="http://www.w3.org/2000/svg">
<path d="M42.4203 1H20.7104C19.288 1 18.1304 2.18999 18.1304 3.65227V13.8646H3.58122C2.15797 13.8646 1 15.055 1 16.5178V30.7832C1 32.2459 2.15797 33.4363 3.58122 33.4363H5.73587V40.3005C5.73587 40.5852 5.9033 40.8411 6.15976 40.9485C6.41865 41.0562 6.71171 40.9912 6.90353 40.7887L13.8791 33.4362H25.2907C26.7139 33.4362 27.8719 32.2458 27.8719 30.7831V20.569H32.12L39.0973 27.9214C39.2908 28.1257 39.5857 28.1873 39.8407 28.0808C40.0971 27.9734 40.2646 27.7175 40.2646 27.4328V20.5691H42.4201C43.8425 20.5691 45 19.3791 45 17.9168V3.65227C45.0002 2.18999 43.8426 1 42.4203 1ZM26.5111 30.7832C26.5111 31.4749 25.9636 32.0373 25.2907 32.0373H13.5921C13.4087 32.0373 13.2329 32.1133 13.1048 32.2486L7.09674 38.5814V32.7368C7.09674 32.3507 6.792 32.0373 6.41631 32.0373H3.58122C2.90831 32.0373 2.36078 31.4749 2.36078 30.7832V16.5178C2.36078 15.826 2.90831 15.2636 3.58122 15.2636H18.1304V17.9168C18.1304 19.3791 19.288 20.5691 20.7104 20.5691H26.5112L26.5111 30.7832ZM43.6393 17.9167C43.6393 18.6076 43.0922 19.1699 42.4203 19.1699H39.5843C39.2087 19.1699 38.9039 19.4832 38.9039 19.8694V25.714L32.8936 19.3807C32.7655 19.246 32.5901 19.1699 32.4068 19.1699H20.7104C20.0384 19.1699 19.4913 18.6075 19.4913 17.9167V3.65227C19.4913 2.96147 20.0384 2.39903 20.7104 2.39903H42.4203C43.0923 2.39903 43.6393 2.96147 43.6393 3.65227V17.9167Z" fill="white" stroke="white"/>
<path d="M25.8449 12.8424C26.848 12.8424 27.6613 12.0186 27.6613 11.0024C27.6613 9.98626 26.848 9.16248 25.8449 9.16248C24.8417 9.16248 24.0285 9.98626 24.0285 11.0024C24.0285 12.0186 24.8417 12.8424 25.8449 12.8424Z" fill="white"/>
<path d="M31.507 12.8424C32.5101 12.8424 33.3234 12.0186 33.3234 11.0024C33.3234 9.98626 32.5101 9.16248 31.507 9.16248C30.5038 9.16248 29.6906 9.98626 29.6906 11.0024C29.6906 12.0186 30.5038 12.8424 31.507 12.8424Z" fill="white"/>
<path d="M37.1693 12.8424C38.1724 12.8424 38.9857 12.0186 38.9857 11.0024C38.9857 9.98626 38.1724 9.16248 37.1693 9.16248C36.1661 9.16248 35.3529 9.98626 35.3529 11.0024C35.3529 12.0186 36.1661 12.8424 37.1693 12.8424Z" fill="white"/>
</svg>
