<svg width="42" height="42" viewBox="0 0 42 42" fill="none" xmlns="http://www.w3.org/2000/svg">
<path d="M41.3006 35.1734H36.7975L38.3631 34.6614C38.503 34.5761 38.7129 34.4907 38.7828 34.2347C38.8527 33.9787 38.9227 33.808 38.8527 33.552L37.8142 28.8494C37.82 28.7664 37.8168 28.683 37.8036 28.6027L37.1042 25.2747C37.071 25.1938 37.0217 25.0938 36.9645 25.0017L33.4654 9.15649C33.484 9.03989 33.4859 8.91969 33.4672 8.80549L32.7678 5.47752C32.7247 5.37232 32.655 5.23493 32.5751 5.12483L31.5787 0.613667C31.5088 0.186971 31.0892 -0.0690268 30.7394 0.0163724L23.9551 2.23505C23.6054 2.32035 23.3955 2.83235 23.4655 3.25904L24.974 10.1075C24.4129 9.76659 23.7821 9.57359 23.1158 9.57359H2.83266C2.55292 9.57359 2.3431 9.74429 2.20319 10.0856C2.06328 10.3416 2.06328 10.6829 2.20319 10.9389L3.04249 12.5602C3.67196 13.9254 3.67196 15.5468 3.04249 16.9121L2.42408 18.1068H0.734409C0.454669 18.1068 0.244844 18.2775 0.104933 18.6188C-0.0349777 18.8748 -0.0349777 19.2161 0.104933 19.4721L0.944234 21.0934C1.57371 22.4587 1.57371 24.0801 0.944234 25.4453L0.104933 27.0668C-0.0349777 27.3228 -0.0349777 27.6641 0.104933 27.9201C0.244844 28.1761 0.454669 28.3468 0.734409 28.3468H2.3799L3.04249 29.6268C3.67196 30.9921 3.67196 32.6135 3.04249 33.9788L2.42408 35.1735H0.734409C0.314758 35.1735 0.0350187 35.5148 0.0350187 36.0268V41.1467C0.0350187 41.6587 0.314758 42 0.734409 42H41.3006C41.7203 42 42 41.6587 42 41.1467V36.0268C42.0001 35.5148 41.7203 35.1734 41.3006 35.1734ZM24.04 26.7676C24.7656 25.8461 25.214 24.5977 25.214 23.2268C25.214 21.8559 24.7656 20.6074 24.04 19.6859C25.1042 19.391 26.0182 18.6 26.6074 17.5236L29.0187 28.4707L29.6203 31.3334C29.6365 31.3729 29.6547 31.4112 29.6745 31.4481L30.495 35.1734H26.2361C26.9041 34.2658 27.3122 33.0684 27.3122 31.7601C27.3123 29.3314 25.9071 27.285 24.04 26.7676ZM31.8585 8.4643L26.4729 10.2563L26.1232 8.635L31.5087 6.84301L31.8585 8.4643ZM32.233 10.0799L35.4483 24.9217L30.0392 26.6905L27.2824 14.0946C27.2347 13.6013 27.1297 13.1286 26.9744 12.6875L26.8032 11.9051L32.233 10.0799ZM30.4597 28.3468L35.8222 26.6474L36.1734 28.2686L30.8094 30.0535L30.4597 28.3468ZM31.8585 35.0028L31.1248 31.6508L36.5236 29.8853L37.244 33.2108L31.8585 35.0028ZM30.4597 1.89366L31.1565 5.10993L25.7061 6.89231L25.0042 3.68564L30.4597 1.89366ZM4.23152 11.6216L4.09161 11.2803H23.1158C24.2688 11.2803 25.2646 12.1428 25.6915 13.365L25.8912 14.2713C25.9053 14.4098 25.9134 14.5505 25.9134 14.6935C25.9134 16.5708 24.6545 18.1068 23.1158 18.1068H21.0175H4.09161L4.23152 17.7655C5.14074 15.8882 5.14074 13.499 4.23152 11.6216ZM2.13327 20.1549L1.99336 19.8136H2.83266H21.0175C22.5562 19.8136 23.8152 21.3496 23.8152 23.2269C23.8152 25.1042 22.5562 26.6401 21.0175 26.6401H2.83266H1.99336L2.13327 26.2988C3.04249 24.4215 3.04249 22.0322 2.13327 20.1549ZM4.23152 28.6881L4.09161 28.3468H21.0175H23.1158C24.6545 28.3468 25.9134 29.8828 25.9134 31.7601C25.9134 33.6374 24.6545 35.1734 23.1158 35.1734H4.09161L4.23152 34.8321C5.14074 32.9548 5.14074 30.5654 4.23152 28.6881ZM40.6012 40.2933H1.4338V36.88H2.83266H23.1158H31.4389H31.5788H40.6013V40.2933H40.6012Z" fill="white"/>
<path d="M7.72858 32.6134H23.1157C23.5354 32.6134 23.8151 32.2721 23.8151 31.7601C23.8151 31.2481 23.5354 30.9068 23.1157 30.9068H7.72858C7.30893 30.9068 7.02919 31.2481 7.02919 31.7601C7.02919 32.2721 7.30893 32.6134 7.72858 32.6134Z" fill="white"/>
<path d="M5.63034 24.0802H21.0175C21.4372 24.0802 21.7169 23.7389 21.7169 23.2269C21.7169 22.7149 21.4372 22.3736 21.0175 22.3736H5.63034C5.21069 22.3736 4.93095 22.7149 4.93095 23.2269C4.93095 23.7389 5.21069 24.0802 5.63034 24.0802Z" fill="white"/>
<path d="M7.72858 15.5469H23.1157C23.5354 15.5469 23.8151 15.2057 23.8151 14.6937C23.8151 14.1817 23.5354 13.8404 23.1157 13.8404H7.72858C7.30893 13.8404 7.02919 14.1817 7.02919 14.6937C7.02919 15.2057 7.30893 15.5469 7.72858 15.5469Z" fill="white"/>
<path d="M29.4105 13.755L31.5787 23.6536C31.7186 23.9949 31.9984 24.2509 32.2781 24.2509C32.2781 24.2509 32.348 24.2509 32.418 24.1656C32.7677 24.0803 32.9776 23.5683 32.9076 23.1416L30.7394 13.3284C30.6695 12.9017 30.2498 12.6457 29.9001 12.7311C29.5504 12.8165 29.3405 13.3283 29.4105 13.755Z" fill="white"/>
</svg>
