<svg width="56" height="35" viewBox="0 0 56 35" fill="none" xmlns="http://www.w3.org/2000/svg">
<mask id="path-1-outside-1_365_67" maskUnits="userSpaceOnUse" x="0" y="0" width="56" height="35" fill="black">
<rect fill="white" width="56" height="35"/>
<path d="M47.1239 19.9816C49.4551 18.7672 51.0488 16.3384 51.0488 13.54C51.0488 9.5404 47.7956 6.28 43.8049 6.28C39.8141 6.28 36.561 9.5404 36.561 13.54C36.561 16.3384 38.1546 18.7804 40.4859 19.9816C39.6956 20.2324 38.958 20.5624 38.2468 20.9716C36.9561 17.9752 34.3878 15.6784 31.2927 14.7148C33.6371 13.5136 35.2439 11.0716 35.2439 8.26C35.2439 4.2604 31.9907 1 28 1C24.0093 1 20.7561 4.2604 20.7561 8.26C20.7561 11.0716 22.3629 13.5136 24.7073 14.7148C21.6385 15.6784 19.0834 17.9488 17.7795 20.9056C17.0683 20.4964 16.3176 20.1532 15.5141 19.9024C17.8454 18.688 19.439 16.2592 19.439 13.4608C19.439 9.4612 16.1859 6.2008 12.1951 6.2008C8.20439 6.2008 4.95122 9.4612 4.95122 13.4608C4.95122 16.2592 6.54488 18.7012 8.8761 19.9024C4.31902 21.328 1 25.5916 1 30.6208V33.2608C1 33.6304 1.28976 33.9208 1.65854 33.9208H22.7317C23.1005 33.9208 23.3902 33.6304 23.3902 33.2608V30.6208C23.3902 29.974 23.3244 29.3404 23.219 28.72H32.7941C32.6756 29.3668 32.6098 30.0268 32.6098 30.7V33.34C32.6098 33.7096 32.8995 34 33.2683 34H54.3415C54.7102 34 55 33.7096 55 33.34V30.7C55 25.6708 51.681 21.4072 47.1239 19.9816ZM37.8781 13.54C37.8781 10.2664 40.5385 7.6 43.8049 7.6C47.0712 7.6 49.7317 10.2664 49.7317 13.54C49.7317 16.8136 47.0712 19.48 43.8049 19.48C40.5385 19.48 37.8781 16.8136 37.8781 13.54ZM44.4634 20.8396V27.9148L43.8049 29.2348L43.1463 27.9148V20.8396C43.3702 20.8264 43.581 20.8 43.8049 20.8C44.0288 20.8 44.2395 20.8132 44.4634 20.8396ZM22.0732 8.26C22.0732 4.9864 24.7337 2.32 28 2.32C31.2663 2.32 33.9268 4.9864 33.9268 8.26C33.9268 11.5336 31.2663 14.2 28.0132 14.2H28C24.7337 14.2 22.0732 11.5336 22.0732 8.26ZM28.6585 15.5596V22.6216L28 23.9416L27.3415 22.6216V15.5596C27.7761 15.5332 28.2239 15.5332 28.6585 15.5596ZM6.26829 13.4608C6.26829 10.1872 8.92878 7.5208 12.1951 7.5208C15.4615 7.5208 18.122 10.1872 18.122 13.4608C18.122 16.7344 15.4615 19.4008 12.1951 19.4008C8.92878 19.4008 6.26829 16.7344 6.26829 13.4608ZM12.8537 20.7604V27.8356L12.1951 29.1556L11.5366 27.8356V20.7604C11.7605 20.7472 11.9712 20.7208 12.1951 20.7208C12.419 20.7208 12.6298 20.734 12.8537 20.7604ZM22.0732 32.6008H2.31707V30.6208C2.31707 25.8424 5.71512 21.8428 10.2195 20.9188V27.9808C10.2195 28.0864 10.2459 28.1788 10.2854 28.2712L11.6024 30.9112C11.7078 31.1356 11.9449 31.2808 12.1951 31.2808C12.4454 31.2808 12.6693 31.1356 12.7878 30.9112L14.1049 28.2712C14.1444 28.1788 14.1707 28.0732 14.1707 27.9808V20.9188C18.6751 21.8428 22.0732 25.8424 22.0732 30.6208V32.6008ZM33.1102 27.4H22.9161C22.218 25.0768 20.7824 23.0704 18.899 21.658C20.1371 18.6352 22.8371 16.4044 26.0244 15.7444V22.78C26.0244 22.8856 26.0507 22.978 26.0902 23.0704L27.4073 25.7104C27.5127 25.9348 27.7498 26.08 28 26.08C28.2502 26.08 28.4741 25.9348 28.5927 25.7104L29.9098 23.0704C29.9493 22.978 29.9756 22.8724 29.9756 22.78V15.7444C33.1893 16.4044 35.9024 18.6616 37.1273 21.7108C35.2439 23.1232 33.8083 25.1032 33.1102 27.4ZM53.6829 32.68H33.9268V30.7C33.9268 25.9216 37.3249 21.922 41.8293 20.998V28.06C41.8293 28.1656 41.8556 28.258 41.8951 28.3504L43.2122 30.9904C43.3176 31.2148 43.5546 31.36 43.8049 31.36C44.0551 31.36 44.279 31.2148 44.3976 30.9904L45.7146 28.3504C45.7542 28.258 45.7805 28.1524 45.7805 28.06V20.998C50.2849 21.922 53.6829 25.9216 53.6829 30.7V32.68Z"/>
</mask>
<path d="M47.1239 19.9816C49.4551 18.7672 51.0488 16.3384 51.0488 13.54C51.0488 9.5404 47.7956 6.28 43.8049 6.28C39.8141 6.28 36.561 9.5404 36.561 13.54C36.561 16.3384 38.1546 18.7804 40.4859 19.9816C39.6956 20.2324 38.958 20.5624 38.2468 20.9716C36.9561 17.9752 34.3878 15.6784 31.2927 14.7148C33.6371 13.5136 35.2439 11.0716 35.2439 8.26C35.2439 4.2604 31.9907 1 28 1C24.0093 1 20.7561 4.2604 20.7561 8.26C20.7561 11.0716 22.3629 13.5136 24.7073 14.7148C21.6385 15.6784 19.0834 17.9488 17.7795 20.9056C17.0683 20.4964 16.3176 20.1532 15.5141 19.9024C17.8454 18.688 19.439 16.2592 19.439 13.4608C19.439 9.4612 16.1859 6.2008 12.1951 6.2008C8.20439 6.2008 4.95122 9.4612 4.95122 13.4608C4.95122 16.2592 6.54488 18.7012 8.8761 19.9024C4.31902 21.328 1 25.5916 1 30.6208V33.2608C1 33.6304 1.28976 33.9208 1.65854 33.9208H22.7317C23.1005 33.9208 23.3902 33.6304 23.3902 33.2608V30.6208C23.3902 29.974 23.3244 29.3404 23.219 28.72H32.7941C32.6756 29.3668 32.6098 30.0268 32.6098 30.7V33.34C32.6098 33.7096 32.8995 34 33.2683 34H54.3415C54.7102 34 55 33.7096 55 33.34V30.7C55 25.6708 51.681 21.4072 47.1239 19.9816ZM37.8781 13.54C37.8781 10.2664 40.5385 7.6 43.8049 7.6C47.0712 7.6 49.7317 10.2664 49.7317 13.54C49.7317 16.8136 47.0712 19.48 43.8049 19.48C40.5385 19.48 37.8781 16.8136 37.8781 13.54ZM44.4634 20.8396V27.9148L43.8049 29.2348L43.1463 27.9148V20.8396C43.3702 20.8264 43.581 20.8 43.8049 20.8C44.0288 20.8 44.2395 20.8132 44.4634 20.8396ZM22.0732 8.26C22.0732 4.9864 24.7337 2.32 28 2.32C31.2663 2.32 33.9268 4.9864 33.9268 8.26C33.9268 11.5336 31.2663 14.2 28.0132 14.2H28C24.7337 14.2 22.0732 11.5336 22.0732 8.26ZM28.6585 15.5596V22.6216L28 23.9416L27.3415 22.6216V15.5596C27.7761 15.5332 28.2239 15.5332 28.6585 15.5596ZM6.26829 13.4608C6.26829 10.1872 8.92878 7.5208 12.1951 7.5208C15.4615 7.5208 18.122 10.1872 18.122 13.4608C18.122 16.7344 15.4615 19.4008 12.1951 19.4008C8.92878 19.4008 6.26829 16.7344 6.26829 13.4608ZM12.8537 20.7604V27.8356L12.1951 29.1556L11.5366 27.8356V20.7604C11.7605 20.7472 11.9712 20.7208 12.1951 20.7208C12.419 20.7208 12.6298 20.734 12.8537 20.7604ZM22.0732 32.6008H2.31707V30.6208C2.31707 25.8424 5.71512 21.8428 10.2195 20.9188V27.9808C10.2195 28.0864 10.2459 28.1788 10.2854 28.2712L11.6024 30.9112C11.7078 31.1356 11.9449 31.2808 12.1951 31.2808C12.4454 31.2808 12.6693 31.1356 12.7878 30.9112L14.1049 28.2712C14.1444 28.1788 14.1707 28.0732 14.1707 27.9808V20.9188C18.6751 21.8428 22.0732 25.8424 22.0732 30.6208V32.6008ZM33.1102 27.4H22.9161C22.218 25.0768 20.7824 23.0704 18.899 21.658C20.1371 18.6352 22.8371 16.4044 26.0244 15.7444V22.78C26.0244 22.8856 26.0507 22.978 26.0902 23.0704L27.4073 25.7104C27.5127 25.9348 27.7498 26.08 28 26.08C28.2502 26.08 28.4741 25.9348 28.5927 25.7104L29.9098 23.0704C29.9493 22.978 29.9756 22.8724 29.9756 22.78V15.7444C33.1893 16.4044 35.9024 18.6616 37.1273 21.7108C35.2439 23.1232 33.8083 25.1032 33.1102 27.4ZM53.6829 32.68H33.9268V30.7C33.9268 25.9216 37.3249 21.922 41.8293 20.998V28.06C41.8293 28.1656 41.8556 28.258 41.8951 28.3504L43.2122 30.9904C43.3176 31.2148 43.5546 31.36 43.8049 31.36C44.0551 31.36 44.279 31.2148 44.3976 30.9904L45.7146 28.3504C45.7542 28.258 45.7805 28.1524 45.7805 28.06V20.998C50.2849 21.922 53.6829 25.9216 53.6829 30.7V32.68Z" fill="white"/>
<path d="M47.1239 19.9816C49.4551 18.7672 51.0488 16.3384 51.0488 13.54C51.0488 9.5404 47.7956 6.28 43.8049 6.28C39.8141 6.28 36.561 9.5404 36.561 13.54C36.561 16.3384 38.1546 18.7804 40.4859 19.9816C39.6956 20.2324 38.958 20.5624 38.2468 20.9716C36.9561 17.9752 34.3878 15.6784 31.2927 14.7148C33.6371 13.5136 35.2439 11.0716 35.2439 8.26C35.2439 4.2604 31.9907 1 28 1C24.0093 1 20.7561 4.2604 20.7561 8.26C20.7561 11.0716 22.3629 13.5136 24.7073 14.7148C21.6385 15.6784 19.0834 17.9488 17.7795 20.9056C17.0683 20.4964 16.3176 20.1532 15.5141 19.9024C17.8454 18.688 19.439 16.2592 19.439 13.4608C19.439 9.4612 16.1859 6.2008 12.1951 6.2008C8.20439 6.2008 4.95122 9.4612 4.95122 13.4608C4.95122 16.2592 6.54488 18.7012 8.8761 19.9024C4.31902 21.328 1 25.5916 1 30.6208V33.2608C1 33.6304 1.28976 33.9208 1.65854 33.9208H22.7317C23.1005 33.9208 23.3902 33.6304 23.3902 33.2608V30.6208C23.3902 29.974 23.3244 29.3404 23.219 28.72H32.7941C32.6756 29.3668 32.6098 30.0268 32.6098 30.7V33.34C32.6098 33.7096 32.8995 34 33.2683 34H54.3415C54.7102 34 55 33.7096 55 33.34V30.7C55 25.6708 51.681 21.4072 47.1239 19.9816ZM37.8781 13.54C37.8781 10.2664 40.5385 7.6 43.8049 7.6C47.0712 7.6 49.7317 10.2664 49.7317 13.54C49.7317 16.8136 47.0712 19.48 43.8049 19.48C40.5385 19.48 37.8781 16.8136 37.8781 13.54ZM44.4634 20.8396V27.9148L43.8049 29.2348L43.1463 27.9148V20.8396C43.3702 20.8264 43.581 20.8 43.8049 20.8C44.0288 20.8 44.2395 20.8132 44.4634 20.8396ZM22.0732 8.26C22.0732 4.9864 24.7337 2.32 28 2.32C31.2663 2.32 33.9268 4.9864 33.9268 8.26C33.9268 11.5336 31.2663 14.2 28.0132 14.2H28C24.7337 14.2 22.0732 11.5336 22.0732 8.26ZM28.6585 15.5596V22.6216L28 23.9416L27.3415 22.6216V15.5596C27.7761 15.5332 28.2239 15.5332 28.6585 15.5596ZM6.26829 13.4608C6.26829 10.1872 8.92878 7.5208 12.1951 7.5208C15.4615 7.5208 18.122 10.1872 18.122 13.4608C18.122 16.7344 15.4615 19.4008 12.1951 19.4008C8.92878 19.4008 6.26829 16.7344 6.26829 13.4608ZM12.8537 20.7604V27.8356L12.1951 29.1556L11.5366 27.8356V20.7604C11.7605 20.7472 11.9712 20.7208 12.1951 20.7208C12.419 20.7208 12.6298 20.734 12.8537 20.7604ZM22.0732 32.6008H2.31707V30.6208C2.31707 25.8424 5.71512 21.8428 10.2195 20.9188V27.9808C10.2195 28.0864 10.2459 28.1788 10.2854 28.2712L11.6024 30.9112C11.7078 31.1356 11.9449 31.2808 12.1951 31.2808C12.4454 31.2808 12.6693 31.1356 12.7878 30.9112L14.1049 28.2712C14.1444 28.1788 14.1707 28.0732 14.1707 27.9808V20.9188C18.6751 21.8428 22.0732 25.8424 22.0732 30.6208V32.6008ZM33.1102 27.4H22.9161C22.218 25.0768 20.7824 23.0704 18.899 21.658C20.1371 18.6352 22.8371 16.4044 26.0244 15.7444V22.78C26.0244 22.8856 26.0507 22.978 26.0902 23.0704L27.4073 25.7104C27.5127 25.9348 27.7498 26.08 28 26.08C28.2502 26.08 28.4741 25.9348 28.5927 25.7104L29.9098 23.0704C29.9493 22.978 29.9756 22.8724 29.9756 22.78V15.7444C33.1893 16.4044 35.9024 18.6616 37.1273 21.7108C35.2439 23.1232 33.8083 25.1032 33.1102 27.4ZM53.6829 32.68H33.9268V30.7C33.9268 25.9216 37.3249 21.922 41.8293 20.998V28.06C41.8293 28.1656 41.8556 28.258 41.8951 28.3504L43.2122 30.9904C43.3176 31.2148 43.5546 31.36 43.8049 31.36C44.0551 31.36 44.279 31.2148 44.3976 30.9904L45.7146 28.3504C45.7542 28.258 45.7805 28.1524 45.7805 28.06V20.998C50.2849 21.922 53.6829 25.9216 53.6829 30.7V32.68Z" stroke="white" mask="url(#path-1-outside-1_365_67)"/>
</svg>
