<svg width="57" height="33" viewBox="0 0 57 33" fill="none" xmlns="http://www.w3.org/2000/svg">
<path d="M56.1094 27.5001V2.75001C56.1086 2.02091 55.8268 1.3219 55.3259 0.806344C54.825 0.29079 54.1459 0.000800693 53.4375 0H15.1406C14.4322 0.000800693 13.7531 0.29079 13.2522 0.806344C12.7513 1.3219 12.4695 2.02091 12.4688 2.75001V3.66668H12.0782C11.4822 3.66601 10.9031 3.87078 10.4334 4.24835C9.96366 4.62591 9.6303 5.1545 9.48649 5.74982L7.25859 14.9201L2.50889 17.0148C2.02838 17.2268 1.6189 17.5793 1.33123 18.0286C1.04356 18.4779 0.89036 19.0042 0.890625 19.5423V27.5001C0.654417 27.5001 0.427883 27.5967 0.260858 27.7686C0.0938335 27.9405 0 28.1737 0 28.4168C0 28.6599 0.0938335 28.8931 0.260858 29.065C0.427883 29.2369 0.654417 29.3335 0.890625 29.3335H5.43379C5.6385 30.3664 6.18296 31.295 6.97539 31.9629C7.76781 32.6308 8.75974 32.9971 9.78396 33C10.8082 33.0029 11.802 32.6422 12.598 31.9788C13.394 31.3154 13.9434 30.3898 14.1536 29.3581L18.9525 29.3364C19.1078 29.6133 19.3311 29.8435 19.5999 30.0038C19.8687 30.1642 20.1737 30.2491 20.4844 30.2501H27.6094C27.9206 30.2491 28.2261 30.1638 28.4953 30.0029C28.7644 29.8421 28.9877 29.6112 29.1429 29.3335H38.3869C38.5923 30.3685 39.1387 31.2987 39.9337 31.9668C40.7288 32.6349 41.7236 32.9998 42.75 32.9998C43.7764 32.9998 44.7712 32.6349 45.5663 31.9668C46.3613 31.2987 46.9077 30.3685 47.1131 29.3335H56.1094C56.3456 29.3335 56.5721 29.2369 56.7391 29.065C56.9062 28.8931 57 28.6599 57 28.4168C57 28.1737 56.9062 27.9405 56.7391 27.7686C56.5721 27.5967 56.3456 27.5001 56.1094 27.5001ZM42.75 23.8334C41.724 23.8349 40.7298 24.2004 39.935 24.8683C39.1402 25.5362 38.5935 26.4657 38.3869 27.5001H29.3906V24.7501H35.625C35.8612 24.7501 36.0877 24.6535 36.2548 24.4816C36.4218 24.3097 36.5156 24.0766 36.5156 23.8334C36.5156 23.5903 36.4218 23.3572 36.2548 23.1852C36.0877 23.0133 35.8612 22.9168 35.625 22.9168H29.3906V20.1668H54.3281V22.9168H48.9844C48.7482 22.9168 48.5216 23.0133 48.3546 23.1852C48.1876 23.3572 48.0938 23.5903 48.0938 23.8334C48.0938 24.0766 48.1876 24.3097 48.3546 24.4816C48.5216 24.6535 48.7482 24.7501 48.9844 24.7501H54.3281V27.5001H47.1131C46.9065 26.4657 46.3598 25.5362 45.565 24.8683C44.7702 24.2004 43.776 23.8349 42.75 23.8334ZM20.4835 9.16671H23.1562V18.3334H20.4844L20.4835 9.16671ZM24.9375 9.16671H27.6094V18.3334H24.9375V9.16671ZM14.25 2.75001C14.2502 2.50696 14.3441 2.27393 14.5111 2.10207C14.6781 1.93021 14.9045 1.83356 15.1406 1.83334H53.4375C53.6736 1.83356 53.9001 1.93021 54.067 2.10207C54.234 2.27393 54.3279 2.50696 54.3281 2.75001V3.66668H14.25V2.75001ZM10.4916 9.16671H15.1406V14.6667H9.15562L10.4916 9.16671ZM3.21115 18.6995L4.45312 18.1517V20.1668C4.45291 20.4098 4.35901 20.6428 4.19203 20.8147C4.02505 20.9866 3.79864 21.0832 3.5625 21.0834H2.67188V19.5423C2.6719 19.363 2.723 19.1876 2.81884 19.0378C2.91468 18.888 3.05107 18.7704 3.21115 18.6995ZM2.67188 22.9168H3.5625C4.27089 22.916 4.95004 22.626 5.45094 22.1104C5.95185 21.5949 6.2336 20.8959 6.23438 20.1668V17.366L8.19767 16.5001H16.0312C16.2675 16.5001 16.494 16.4035 16.661 16.2316C16.828 16.0597 16.9219 15.8265 16.9219 15.5834V8.25004C16.9219 8.00692 16.828 7.77376 16.661 7.60185C16.494 7.42994 16.2675 7.33336 16.0312 7.33336H10.9369L11.213 6.19468C11.2611 5.99608 11.3725 5.8198 11.5293 5.69391C11.6861 5.56802 11.8793 5.49976 12.0782 5.50002H54.3281V18.3334H29.3906V9.16671C29.3901 8.68064 29.2022 8.21465 28.8683 7.87095C28.5344 7.52726 28.0816 7.33392 27.6094 7.33336H20.4844C20.0121 7.33392 19.5594 7.52726 19.2254 7.87095C18.8915 8.21465 18.7037 8.68064 18.7031 9.16671V27.5041L14.1624 27.5247C13.9625 26.4865 13.4195 25.5515 12.6257 24.8786C11.8319 24.2057 10.8362 23.8365 9.80785 23.8336C8.7795 23.8307 7.7819 24.1943 6.98453 24.8627C6.18716 25.5311 5.63922 26.463 5.43379 27.5001H2.67188V22.9168ZM9.79688 31.1668C9.26843 31.1668 8.75185 31.0055 8.31246 30.7033C7.87307 30.4012 7.53061 29.9717 7.32838 29.4692C7.12616 28.9667 7.07324 28.4137 7.17634 27.8803C7.27943 27.3468 7.53391 26.8568 7.90757 26.4722C8.28124 26.0876 8.75733 25.8257 9.27562 25.7196C9.79391 25.6135 10.3311 25.668 10.8194 25.8761C11.3076 26.0843 11.7249 26.4367 12.0185 26.889C12.312 27.3412 12.4688 27.8729 12.4688 28.4168C12.468 29.1459 12.1862 29.8449 11.6853 30.3605C11.1844 30.876 10.5053 31.166 9.79688 31.1668ZM20.4844 28.4128V20.1668H23.1562V28.4168H20.4844V28.4128ZM24.9375 28.4168V20.1668H27.6094V28.4168H24.9375ZM42.75 31.1668C42.2216 31.1668 41.705 31.0055 41.2656 30.7033C40.8262 30.4012 40.4837 29.9717 40.2815 29.4692C40.0793 28.9667 40.0264 28.4137 40.1295 27.8803C40.2326 27.3468 40.487 26.8568 40.8607 26.4722C41.2344 26.0876 41.7104 25.8257 42.2287 25.7196C42.747 25.6135 43.2843 25.668 43.7725 25.8761C44.2607 26.0843 44.678 26.4367 44.9716 26.889C45.2652 27.3412 45.4219 27.8729 45.4219 28.4168C45.4211 29.1459 45.1393 29.8449 44.6384 30.3605C44.1375 30.876 43.4584 31.166 42.75 31.1668Z" fill="white"/>
<path d="M32.0625 16.0312H51.6562C51.8925 16.0312 52.119 15.9374 52.286 15.7704C52.453 15.6034 52.5469 15.3768 52.5469 15.1406V8.01562C52.5469 7.77942 52.453 7.55288 52.286 7.38586C52.119 7.21883 51.8925 7.125 51.6562 7.125H32.0625C31.8263 7.125 31.5998 7.21883 31.4327 7.38586C31.2657 7.55288 31.1719 7.77942 31.1719 8.01562V15.1406C31.1719 15.3768 31.2657 15.6034 31.4327 15.7704C31.5998 15.9374 31.8263 16.0312 32.0625 16.0312ZM32.9531 12.4688H37.4062V14.25H32.9531V12.4688ZM44.5312 12.4688V14.25H39.1875V12.4688H44.5312ZM39.1875 10.6875V8.90625H44.5312V10.6875H39.1875ZM46.3125 14.25V12.4688H50.7656V14.25H46.3125ZM50.7656 10.6875H46.3125V8.90625H50.7656V10.6875ZM37.4062 8.90625V10.6875H32.9531V8.90625H37.4062Z" fill="white"/>
</svg>
