<svg width="33" height="39" viewBox="0 0 33 39" fill="none" xmlns="http://www.w3.org/2000/svg">
<path d="M28.875 0H4.125C3.03098 0 1.98177 0.432919 1.20818 1.20352C0.434597 1.97412 9.09425e-09 3.01928 9.09425e-09 4.10907V31.5029C-3.85327e-05 32.0806 0.12243 32.6517 0.359384 33.179C0.596338 33.7062 0.942432 34.1777 1.375 34.5624V36.1256C1.375 36.7159 1.61041 37.282 2.02943 37.6994C2.44846 38.1169 3.01678 38.3514 3.60938 38.3514H6.01562C6.60822 38.3514 7.17654 38.1169 7.59557 37.6994C8.01459 37.282 8.25 36.7159 8.25 36.1256V35.612H24.75V36.1256C24.75 36.7159 24.9854 37.282 25.4044 37.6994C25.8235 38.1169 26.3918 38.3514 26.9844 38.3514H29.3906C29.9832 38.3514 30.5515 38.1169 30.9706 37.6994C31.3896 37.282 31.625 36.7159 31.625 36.1256V34.5624C32.0576 34.1777 32.4037 33.7062 32.6406 33.179C32.8776 32.6517 33 32.0806 33 31.5029V4.10907C33 3.01928 32.5654 1.97412 31.7918 1.20352C31.0182 0.432919 29.969 0 28.875 0ZM7.1732 31.4875C6.60723 31.5488 6.03609 31.4337 5.5386 31.158C5.04111 30.8822 4.64179 30.4595 4.39575 29.9481C4.14971 29.4367 4.06907 28.8618 4.16497 28.3028C4.26086 27.7437 4.52856 27.2282 4.93113 26.8272C5.3337 26.4261 5.85128 26.1595 6.41246 26.0639C6.97364 25.9684 7.55075 26.0487 8.06415 26.2938C8.57755 26.5389 9.00194 26.9367 9.27874 27.4323C9.55555 27.9278 9.67113 28.4968 9.60953 29.0606C9.54174 29.6811 9.26327 30.2599 8.82022 30.7012C8.37716 31.1426 7.7961 31.42 7.1732 31.4875ZM14.7812 21.9151H4.125C3.76033 21.9151 3.41059 21.7708 3.15273 21.5139C2.89487 21.257 2.75 20.9086 2.75 20.5454V9.58784C2.75 9.22457 2.89487 8.87619 3.15273 8.61932C3.41059 8.36245 3.76033 8.21815 4.125 8.21815H14.7812C14.8724 8.21815 14.9599 8.25422 15.0243 8.31844C15.0888 8.38266 15.125 8.46975 15.125 8.56057V21.5726C15.125 21.6635 15.0888 21.7505 15.0243 21.8148C14.9599 21.879 14.8724 21.9151 14.7812 21.9151ZM16.5 5.47876H4.16453C3.42547 5.47876 2.78953 4.91377 2.75172 4.17841C2.74228 3.99294 2.77081 3.80749 2.83556 3.63334C2.90031 3.45919 2.99994 3.29997 3.12839 3.16537C3.25684 3.03077 3.41143 2.9236 3.58275 2.85037C3.75408 2.77714 3.93857 2.73938 4.125 2.73938H28.8355C29.5745 2.73938 30.2105 3.30438 30.2483 4.03973C30.2577 4.22521 30.2292 4.41066 30.1644 4.58481C30.0997 4.75896 30.0001 4.91817 29.8716 5.05277C29.7432 5.18737 29.5886 5.29455 29.4172 5.36778C29.2459 5.44101 29.0614 5.47877 28.875 5.47876H16.5ZM18.2188 8.21815H28.875C29.2397 8.21815 29.5894 8.36245 29.8473 8.61932C30.1051 8.87619 30.25 9.22457 30.25 9.58784V20.5454C30.25 20.9086 30.1051 21.257 29.8473 21.5139C29.5894 21.7708 29.2397 21.9151 28.875 21.9151H18.2188C18.1276 21.9151 18.0401 21.879 17.9757 21.8148C17.9112 21.7505 17.875 21.6635 17.875 21.5726V8.56057C17.875 8.46975 17.9112 8.38266 17.9757 8.31844C18.0401 8.25422 18.1276 8.21815 18.2188 8.21815ZM23.3905 29.0606C23.3289 28.4968 23.4445 27.9278 23.7213 27.4323C23.9981 26.9367 24.4224 26.5389 24.9358 26.2938C25.4492 26.0487 26.0264 25.9684 26.5875 26.0639C27.1487 26.1595 27.6663 26.4261 28.0689 26.8272C28.4714 27.2282 28.7391 27.7437 28.835 28.3028C28.9309 28.8618 28.8503 29.4367 28.6042 29.9481C28.3582 30.4595 27.9589 30.8822 27.4614 31.158C26.9639 31.4337 26.3928 31.5488 25.8268 31.4875C25.2039 31.42 24.6228 31.1426 24.1798 30.7012C23.7367 30.2599 23.4583 29.6811 23.3905 29.0606Z" fill="white"/>
</svg>
