<svg width="44" height="45" viewBox="0 0 44 45" fill="none" xmlns="http://www.w3.org/2000/svg">
<path d="M18.0456 23.9122C24.6488 23.9122 30.0017 18.5593 30.0017 11.9561C30.0017 5.35294 24.6488 7.62939e-06 18.0456 7.62939e-06C11.4424 7.62939e-06 6.08945 5.35294 6.08945 11.9561C6.08945 18.5593 11.4424 23.9122 18.0456 23.9122Z" fill="white"/>
<path d="M21.2388 44.3342C23.2439 44.3342 22.13 42.9232 22.13 42.9232C20.4891 40.8409 19.4489 38.3495 19.1216 35.7186C18.7944 33.0878 19.1927 30.4175 20.2734 27.9966L20.4219 27.6996C20.5235 27.5725 20.5873 27.4194 20.606 27.2578C20.6248 27.0961 20.5979 26.9325 20.5282 26.7855C20.4586 26.6384 20.349 26.5139 20.2121 26.4261C20.0751 26.3382 19.9163 26.2906 19.7536 26.2886C19.1617 26.2252 18.5664 26.2004 17.9713 26.2144C13.6042 26.2292 9.38762 27.8118 6.08922 30.674C2.79083 33.5363 0.629953 37.4878 0 41.8093C0 42.7004 0.297047 44.4085 3.11899 44.4085H20.8675C20.987 44.3657 21.1121 44.3407 21.2388 44.3342Z" fill="white"/>
<path fill-rule="evenodd" clip-rule="evenodd" d="M44 33.9747C44 39.8191 39.2621 44.557 33.4177 44.557C27.5733 44.557 22.8354 39.8191 22.8354 33.9747C22.8354 28.1303 27.5733 23.3924 33.4177 23.3924C39.2621 23.3924 44 28.1303 44 33.9747ZM36.7943 35.4947C36.5059 35.4947 36.2722 35.7285 36.2722 36.0169V39.1498H30.0064V28.7068H36.2722V31.8397C36.2722 32.128 36.5059 32.3618 36.7943 32.3618C37.0827 32.3618 37.3165 32.128 37.3165 31.8397V28.1846C37.3165 27.8962 37.0827 27.6624 36.7943 27.6624H29.4842C29.1958 27.6624 28.962 27.8962 28.962 28.1846V39.6719C28.962 39.9603 29.1958 40.1941 29.4842 40.1941H36.7943C37.0827 40.1941 37.3165 39.9603 37.3165 39.6719V36.0169C37.3165 35.7285 37.0827 35.4947 36.7943 35.4947ZM41.3846 34.2469C41.3816 34.2511 41.3786 34.2552 41.3753 34.2592C41.3646 34.2723 41.3532 34.2849 41.3413 34.297L41.3408 34.2975L39.2522 36.3861C39.0483 36.59 38.7176 36.59 38.5137 36.3861C38.3098 36.1822 38.3098 35.8516 38.5137 35.6477L39.711 34.4505H35.2279C34.9395 34.4505 34.7057 34.2167 34.7057 33.9283C34.7057 33.6399 34.9395 33.4062 35.2279 33.4062H39.711L38.5137 32.2089C38.3098 32.005 38.3098 31.6744 38.5137 31.4705C38.7176 31.2666 39.0483 31.2666 39.2522 31.4705L41.3408 33.5591L41.3413 33.5597C41.3532 33.5716 41.3646 33.5843 41.3753 33.5974C41.3777 33.6002 41.3799 33.6032 41.3821 33.6061C41.3845 33.6094 41.3869 33.6128 41.3893 33.616C41.3907 33.6179 41.3921 33.6198 41.3935 33.6216C41.3977 33.6271 41.4019 33.6326 41.4057 33.6384C41.4094 33.6439 41.4128 33.6496 41.4161 33.6553C41.4173 33.6573 41.4184 33.6593 41.4196 33.6612C41.4208 33.6633 41.4221 33.6653 41.4233 33.6673C41.4263 33.6722 41.4293 33.6771 41.432 33.6822C41.4351 33.688 41.4379 33.694 41.4407 33.7001C41.4416 33.702 41.4425 33.704 41.4434 33.7059C41.4454 33.7101 41.4475 33.7143 41.4494 33.7185C41.451 33.7218 41.4525 33.7251 41.4539 33.7285C41.4555 33.7324 41.457 33.7364 41.4584 33.7404C41.4598 33.7443 41.4611 33.7481 41.4625 33.7519C41.4654 33.7601 41.4686 33.7683 41.4711 33.7767C41.4729 33.7824 41.4743 33.7882 41.4757 33.794C41.4762 33.7962 41.4767 33.7983 41.4772 33.8004C41.4781 33.804 41.4791 33.8075 41.48 33.811C41.4813 33.816 41.4825 33.8211 41.4836 33.8262C41.4849 33.8332 41.4859 33.8402 41.4869 33.8471C41.4872 33.8494 41.4875 33.8517 41.4878 33.8539C41.4889 33.8615 41.4903 33.869 41.4911 33.8767C41.4945 33.911 41.4945 33.9455 41.4911 33.9798C41.4907 33.9841 41.49 33.9882 41.4894 33.9924C41.4888 33.9958 41.4883 33.9992 41.4878 34.0026C41.4874 34.0051 41.4871 34.0076 41.4867 34.0101C41.4858 34.0168 41.4849 34.0236 41.4836 34.0303C41.4823 34.0368 41.4806 34.0432 41.4789 34.0496C41.4784 34.0518 41.4778 34.054 41.4772 34.0561C41.4767 34.0584 41.4761 34.0606 41.4756 34.0628C41.4742 34.0685 41.4729 34.0742 41.4711 34.0798C41.4686 34.0883 41.4654 34.0964 41.4625 34.1046C41.4597 34.1125 41.4571 34.1203 41.4539 34.1281C41.4507 34.1357 41.447 34.1431 41.4434 34.1506C41.4397 34.1586 41.4361 34.1666 41.432 34.1744C41.4301 34.1779 41.4281 34.1813 41.4261 34.1846C41.4239 34.1882 41.4217 34.1918 41.4196 34.1953C41.4184 34.1973 41.4172 34.1993 41.4161 34.2013C41.4128 34.207 41.4094 34.2127 41.4057 34.2182C41.4019 34.2239 41.3978 34.2294 41.3936 34.2348C41.3922 34.2367 41.3907 34.2386 41.3893 34.2405C41.3877 34.2426 41.3862 34.2448 41.3846 34.2469Z" fill="white"/>
</svg>
