<svg width="24" height="25" viewBox="0 0 24 25" fill="none" xmlns="http://www.w3.org/2000/svg">
<path d="M23.0478 18.2483C22.8054 17.8154 22.511 17.3826 22.182 16.9237C21.3992 15.9462 20.8566 14.7986 20.5977 13.5733L20.2341 8.46544C20.0177 4.509 17.7062 0.509277 13.1091 0.509277H11.1871C6.59004 0.509277 4.2612 4.509 4.02745 8.45678L3.66384 13.5733C3.40611 14.8095 2.86364 15.9685 2.07953 16.9584C1.78518 17.4085 1.49083 17.8241 1.29171 18.2137C1.07801 18.5005 0.948581 18.8413 0.917992 19.1976C0.887403 19.554 0.956864 19.9118 1.11856 20.2309C1.30722 20.5659 1.58514 20.842 1.9214 21.0285C2.25767 21.215 2.63908 21.3045 3.02319 21.2871H9.70671C9.56433 21.6794 9.51858 22.1002 9.57333 22.5139C9.62808 22.9276 9.78172 23.3221 10.0213 23.6638C10.2608 24.0056 10.5791 24.2846 10.9494 24.4772C11.3196 24.6698 11.7308 24.7704 12.1481 24.7704C12.5654 24.7704 12.9766 24.6698 13.3468 24.4772C13.7171 24.2846 14.0354 24.0056 14.275 23.6638C14.5145 23.3221 14.6681 22.9276 14.7229 22.5139C14.7776 22.1002 14.7319 21.6794 14.5895 21.2871H21.273C21.6607 21.3012 22.0445 21.2064 22.3811 21.0137C22.7177 20.8209 22.9936 20.5377 23.1776 20.1962C23.3395 19.8916 23.413 19.5479 23.3901 19.2038C23.3672 18.8596 23.2486 18.5287 23.0478 18.2483ZM13.0138 22.1528C13.0138 22.324 12.9631 22.4914 12.8679 22.6338C12.7728 22.7762 12.6376 22.8871 12.4794 22.9526C12.3212 23.0182 12.1471 23.0353 11.9792 23.0019C11.8113 22.9685 11.657 22.8861 11.5359 22.765C11.4149 22.6439 11.3324 22.4896 11.299 22.3217C11.2656 22.1538 11.2827 21.9797 11.3483 21.8215C11.4138 21.6633 11.5248 21.5281 11.6671 21.433C11.8095 21.3378 11.9769 21.2871 12.1481 21.2871C12.3777 21.2871 12.5979 21.3783 12.7603 21.5406C12.9226 21.703 13.0138 21.9232 13.0138 22.1528ZM21.6713 19.4084C21.6713 19.4777 21.5241 19.5556 21.3076 19.5556H3.02319C2.80676 19.5556 2.69421 19.4777 2.65958 19.4084C2.62495 19.3391 2.65958 19.2439 2.74615 19.1054C2.9799 18.7072 3.24828 18.2916 3.52532 17.876C4.39106 16.6294 5.2568 15.2096 5.38666 13.6945L5.75893 8.57798C5.94074 5.65178 7.4731 2.24076 11.1871 2.24076H13.1091C16.8231 2.24076 18.3555 5.65178 18.5373 8.58664L18.9095 13.6945C19.0134 15.2269 19.9398 16.6294 20.8055 17.876C21.0826 18.2916 21.3509 18.7418 21.628 19.1833C21.6555 19.213 21.6742 19.2499 21.6819 19.2897C21.6895 19.3295 21.6858 19.3706 21.6713 19.4084Z" fill="#343434"/>
</svg>
