<svg width="11" height="16" viewBox="0 0 11 16" fill="none" xmlns="http://www.w3.org/2000/svg">
<path d="M9.42857 0H1.57143C0.704 0 0 0.7168 0 1.6V14.4C0 15.2832 0.704 16 1.57143 16H9.42857C10.296 16 11 15.2832 11 14.4V1.6C11 0.7168 10.2918 0 9.42857 0ZM5.4979 14.4C5.0621 14.4 4.7101 14.0416 4.7101 13.5979C4.7101 13.1541 5.0621 12.7957 5.4979 12.7957C5.93371 12.7957 6.28571 13.1541 6.28571 13.5979C6.28152 14.0416 5.93371 14.4 5.4979 14.4ZM9.42857 11.2H1.57143V1.6H9.42857V11.2Z" fill="#575757"/>
</svg>
