<svg width="40" height="40" viewBox="0 0 40 40" fill="none" xmlns="http://www.w3.org/2000/svg">
<circle cx="20" cy="20" r="20" fill="#5F3787"/>
<path d="M26.2501 10.5263H13.2238C12.648 10.5263 12.0958 10.7542 11.6886 11.1598C11.2815 11.5653 11.0527 12.1154 11.0527 12.689V27.1068C11.0527 27.4108 11.1172 27.7115 11.2419 27.989C11.3666 28.2665 11.5488 28.5146 11.7764 28.7171V29.5398C11.7764 29.8505 11.9003 30.1485 12.1209 30.3681C12.3414 30.5878 12.6405 30.7113 12.9524 30.7113H14.2189C14.5307 30.7113 14.8299 30.5878 15.0504 30.3681C15.2709 30.1485 15.3948 29.8505 15.3948 29.5398V29.2695H24.079V29.5398C24.079 29.8505 24.2029 30.1485 24.4235 30.3681C24.644 30.5878 24.9431 30.7113 25.255 30.7113H26.5215C26.8334 30.7113 27.1325 30.5878 27.353 30.3681C27.5736 30.1485 27.6975 29.8505 27.6975 29.5398V28.7171C27.9251 28.5146 28.1073 28.2665 28.232 27.989C28.3567 27.7115 28.4212 27.4108 28.4212 27.1068V12.689C28.4212 12.1154 28.1924 11.5653 27.7853 11.1598C27.3781 10.7542 26.8259 10.5263 26.2501 10.5263ZM14.8281 27.0987C14.5302 27.131 14.2296 27.0704 13.9678 26.9253C13.706 26.7801 13.4958 26.5576 13.3663 26.2885C13.2368 26.0193 13.1944 25.7167 13.2448 25.4225C13.2953 25.1283 13.4362 24.8569 13.6481 24.6459C13.8599 24.4348 14.1324 24.2945 14.4277 24.2442C14.7231 24.1939 15.0268 24.2362 15.297 24.3652C15.5672 24.4942 15.7906 24.7035 15.9363 24.9644C16.082 25.2252 16.1428 25.5246 16.1104 25.8214C16.0747 26.1479 15.9281 26.4526 15.695 26.6849C15.4618 26.9172 15.1559 27.0632 14.8281 27.0987ZM18.8323 22.0606H13.2238C13.0319 22.0606 12.8478 21.9846 12.7121 21.8494C12.5763 21.7142 12.5001 21.5309 12.5001 21.3397V15.5726C12.5001 15.3814 12.5763 15.198 12.7121 15.0628C12.8478 14.9276 13.0319 14.8517 13.2238 14.8517H18.8323C18.8803 14.8517 18.9263 14.8707 18.9603 14.9045C18.9942 14.9383 19.0133 14.9841 19.0133 15.0319V21.8804C19.0133 21.9282 18.9942 21.974 18.9603 22.0078C18.9263 22.0416 18.8803 22.0606 18.8323 22.0606ZM19.7369 13.4099H13.2446C12.8556 13.4099 12.5209 13.1125 12.501 12.7255C12.496 12.6279 12.5111 12.5303 12.5451 12.4386C12.5792 12.347 12.6317 12.2632 12.6993 12.1923C12.7669 12.1215 12.8482 12.0651 12.9384 12.0265C13.0286 11.988 13.1257 11.9681 13.2238 11.9681H26.2293C26.6183 11.9681 26.953 12.2655 26.9729 12.6525C26.9778 12.7501 26.9628 12.8477 26.9288 12.9394C26.8947 13.0311 26.8422 13.1148 26.7746 13.1857C26.707 13.2565 26.6257 13.3129 26.5355 13.3515C26.4453 13.39 26.3482 13.4099 26.2501 13.4099H19.7369ZM20.6415 14.8517H26.2501C26.442 14.8517 26.6261 14.9276 26.7618 15.0628C26.8975 15.198 26.9738 15.3814 26.9738 15.5726V21.3397C26.9738 21.5309 26.8975 21.7142 26.7618 21.8494C26.6261 21.9846 26.442 22.0606 26.2501 22.0606H20.6415C20.5936 22.0606 20.5475 22.0416 20.5136 22.0078C20.4797 21.974 20.4606 21.9282 20.4606 21.8804V15.0319C20.4606 14.9841 20.4797 14.9383 20.5136 14.9045C20.5475 14.8707 20.5936 14.8517 20.6415 14.8517ZM23.3635 25.8214C23.3311 25.5246 23.3919 25.2252 23.5376 24.9644C23.6833 24.7035 23.9067 24.4942 24.1769 24.3652C24.4471 24.2362 24.7508 24.1939 25.0462 24.2442C25.3415 24.2945 25.6139 24.4348 25.8258 24.6459C26.0377 24.8569 26.1786 25.1283 26.2291 25.4225C26.2795 25.7167 26.2371 26.0193 26.1076 26.2885C25.9781 26.5576 25.7679 26.7801 25.5061 26.9253C25.2443 27.0704 24.9437 27.131 24.6458 27.0987C24.3179 27.0632 24.0121 26.9172 23.7789 26.6849C23.5457 26.4526 23.3992 26.1479 23.3635 25.8214Z" fill="white"/>
</svg>
