<svg width="16" height="12" viewBox="0 0 16 12" fill="none" xmlns="http://www.w3.org/2000/svg">
<path d="M14.125 0H1.875C0.841125 0 0 0.859021 0 1.91489V10.0851C0 11.141 0.841125 12 1.875 12H14.125C15.1589 12 16 11.141 16 10.0851V1.91489C16 0.859021 15.1589 0 14.125 0ZM14.75 10.0851C14.75 10.4371 14.4696 10.7234 14.125 10.7234H1.875C1.53038 10.7234 1.25 10.4371 1.25 10.0851V1.91489C1.25 1.56294 1.53038 1.2766 1.875 1.2766H14.125C14.4696 1.2766 14.75 1.56294 14.75 1.91489V10.0851Z" fill="#575757"/>
<path d="M14.6439 0.795837L8.00004 5.84276L1.35617 0.795837L0.610107 1.82015L8.00004 7.43378L15.39 1.82015L14.6439 0.795837Z" fill="#575757"/>
</svg>
