<svg width="15" height="24" viewBox="0 0 15 24" fill="none" xmlns="http://www.w3.org/2000/svg">
<path d="M7.10822 2.7196C4.73036 2.7196 2.7959 4.65407 2.7959 7.03192C2.7959 9.4097 4.73036 11.3442 7.10822 11.3442C9.48607 11.3442 11.4205 9.4097 11.4205 7.03192C11.4205 4.65414 9.48592 2.7196 7.10822 2.7196ZM7.10822 9.91257C5.51986 9.91257 4.22756 8.62035 4.22756 7.03199C4.22756 5.44363 5.51986 4.15134 7.10822 4.15134C8.69658 4.15134 9.98887 5.44363 9.98887 7.03199C9.98887 8.62035 8.6965 9.91257 7.10822 9.91257Z" fill="#575757"/>
<path d="M10.1404 14.3706C11.1169 13.3251 12.1311 12.2093 12.6843 11.5117C13.6863 10.2483 14.2159 8.7255 14.2159 7.108C14.216 3.1886 11.0274 0 7.108 0C3.1886 0 0 3.1886 0 7.108C0 8.72535 0.530073 10.2486 1.53295 11.513C2.79232 13.101 6.44006 16.8562 6.59475 17.0153L7.108 17.5431L7.62125 17.0153C7.67473 16.9603 8.1451 16.4761 8.78978 15.8004H10.0688C10.8044 15.8004 11.4029 16.3989 11.4029 17.1345C11.4029 17.87 10.8045 18.4686 10.0688 18.4686H4.14696C2.62188 18.4686 1.3812 19.7092 1.3812 21.2343C1.3812 22.7593 2.62188 24 4.14696 24H7.10786V22.5683H4.14696C3.41137 22.5683 2.81286 21.9699 2.81286 21.2343C2.81286 20.4987 3.4113 19.9002 4.14696 19.9002H10.0688C11.5939 19.9002 12.8346 18.6595 12.8346 17.1345C12.8347 15.6335 11.6325 14.4088 10.1404 14.3706ZM7.108 15.4857C6.03898 14.3743 3.59598 11.8103 2.65466 10.6234C1.85458 9.61456 1.43166 8.39901 1.43166 7.108C1.43166 3.97802 3.97795 1.43166 7.108 1.43166C10.238 1.43166 12.7843 3.97802 12.7843 7.108C12.7843 8.39915 12.3619 9.61435 11.5626 10.6222C10.621 11.8094 8.1771 14.3742 7.108 15.4857Z" fill="#575757"/>
</svg>
