<?xml version="1.0" encoding="utf-8"?>
<!-- Generator: Adobe Illustrator 27.4.1, SVG Export Plug-In . SVG Version: 6.00 Build 0)  -->
<svg version="1.1" xmlns="http://www.w3.org/2000/svg" xmlns:xlink="http://www.w3.org/1999/xlink" x="0px" y="0px"
	 viewBox="0 0 1200 800" style="enable-background:new 0 0 1200 800;" xml:space="preserve">
<style type="text/css">
	.st0{fill:url(#SVGID_1_);}
	.st1{clip-path:url(#SVGID_00000091714969779202988560000010374978518816261274_);}
	.st2{fill:url(#SVGID_00000008120065443148142010000003652125058154368130_);}
	.st3{fill:url(#SVGID_00000089568475895337691290000003262192316021219261_);}
	.st4{fill:url(#SVGID_00000097468449361731346430000005854678131338351275_);}
	.st5{fill:url(#SVGID_00000158741607631053742600000002704933411876883631_);}
	.st6{fill:url(#SVGID_00000147928389683217041250000013143622921470490540_);}
	.st7{fill:url(#SVGID_00000183967537320417610720000015707000981071799218_);}
	.st8{fill:url(#SVGID_00000124158780989209463280000007402286237785309086_);}
	.st9{fill:url(#SVGID_00000126307604958381215310000010476449864374775467_);}
	.st10{fill:url(#SVGID_00000119083955554683991680000002072714525401721261_);}
	.st11{fill:url(#SVGID_00000044899456647716459940000014333637777620425649_);}
	.st12{fill:url(#SVGID_00000116954999663075207950000016674532392433051309_);}
	.st13{fill:url(#SVGID_00000178164243775849172870000012273140084378409098_);}
	.st14{fill:url(#SVGID_00000153697963573494848630000016409632817348764817_);}
	.st15{fill:url(#SVGID_00000072262351000976608980000009808263350588540606_);}
	.st16{fill:url(#SVGID_00000109019796403702757980000012151622258468144555_);}
	.st17{fill:url(#SVGID_00000119799420493025532940000004442479415157018251_);}
	.st18{fill:url(#SVGID_00000107588173363484627530000009817497396083314102_);}
	.st19{fill:url(#SVGID_00000119832809480377931220000007273200686013068959_);}
	.st20{fill:url(#SVGID_00000145034804537268466300000009012501843978718087_);}
	.st21{fill:url(#SVGID_00000020373792433228621510000014324260693359785607_);}
	.st22{fill:url(#SVGID_00000064347494369365817090000015659214862632332932_);}
	.st23{fill:url(#SVGID_00000078030273456583391330000017400125435729787535_);}
	.st24{fill:url(#SVGID_00000001626917803668338750000010828886568703750555_);}
</style>
<g id="Background">
	
		<radialGradient id="SVGID_1_" cx="522" cy="79.6061" r="577.7054" gradientTransform="matrix(1.5 0 0 0.6667 -300 133.593)" gradientUnits="userSpaceOnUse">
		<stop  offset="0.1802" style="stop-color:#FFFFFF"/>
		<stop  offset="0.9969" style="stop-color:#DCEDF7"/>
	</radialGradient>
	<rect class="st0" width="1200" height="800"/>
</g>
<g id="Graphic_Elements">
	<g>
		<defs>
			<rect id="SVGID_00000111883558064323152970000003144102778864895643_" width="1200" height="800"/>
		</defs>
		<clipPath id="SVGID_00000116915305364636032020000012058293802491797431_">
			<use xlink:href="#SVGID_00000111883558064323152970000003144102778864895643_"  style="overflow:visible;"/>
		</clipPath>
		<g style="clip-path:url(#SVGID_00000116915305364636032020000012058293802491797431_);">
			<g>
				
					<linearGradient id="SVGID_00000026866223263189975110000010679293112057375897_" gradientUnits="userSpaceOnUse" x1="-5.9571" y1="179.2255" x2="742.5528" y2="179.2255">
					<stop  offset="0" style="stop-color:#BEE7F0"/>
					<stop  offset="0.9991" style="stop-color:#BDE7FF"/>
				</linearGradient>
				<path style="fill:url(#SVGID_00000026866223263189975110000010679293112057375897_);" d="M742.6-11.9c-4,5.5-8.4,10.7-13.1,15.7
					c-9.6,10.1-20.6,18.9-32.4,26.4c-11.9,7.6-24.7,13.9-37.8,19c-13.4,5.2-27.2,9.4-41.2,12.5c-14.9,3.4-30,5.6-45.2,7.1
					c-18.1,1.8-36.2,2.5-54.4,2.9c-18.2,0.4-36.4,0.5-54.5,0.8c-18.2,0.4-36.3,1-54.4,2.6c-13.8,1.2-27.6,3.1-41.3,5.5
					c-13.4,2.4-26.7,5.3-39.8,8.8c-13.2,3.5-26.3,7.6-39.2,12.2c-12.9,4.6-25.5,9.7-38,15.3c-12.5,5.6-24.7,11.7-36.7,18.3
					c-12,6.6-23.8,13.7-35.3,21.2c-11.4,7.5-22.5,15.4-33.3,23.7c-10.9,8.4-21.4,17.2-31.6,26.4c-10.1,9.2-19.9,18.7-29.3,28.6
					c-9.4,9.9-18.3,20.2-26.9,30.9c-8.5,10.6-16.7,21.6-24.3,32.9c-7.6,11.3-14.8,22.9-21.5,34.8c-6.7,12-12.9,24.2-18.5,36.7V-11.9
					H742.6z"/>
				<g>
					<g>
						
							<linearGradient id="SVGID_00000092438398982989858240000006941655834008351631_" gradientUnits="userSpaceOnUse" x1="-19.5957" y1="108.5105" x2="649.2579" y2="-17.3726">
							<stop  offset="0" style="stop-color:#B1EBF2"/>
							<stop  offset="1" style="stop-color:#00B5FF"/>
						</linearGradient>
						<path style="fill:url(#SVGID_00000092438398982989858240000006941655834008351631_);" d="M-6.1,176.1l-0.9-0.4
							c29.3-58.3,82.4-98.8,138.6-105.7c23.2-2.8,46.9-0.2,69.9,2.4c10.8,1.2,22,2.5,32.9,3.1c71.5,4.3,143.1-16,201.7-57.2
							c13.7-9.6,26.8-20.5,39.5-31c16.6-13.8,33.9-28,52.5-39.6c17.6-11,36.3-18.7,54-22.5c20.5-4.4,39.6-3.5,56.8,2.7l-0.3,0.9
							c-18.5-6.6-57.4-12.9-109.9,19.7c-18.6,11.6-35.8,25.8-52.4,39.5c-12.7,10.5-25.9,21.4-39.6,31
							c-58.8,41.3-130.6,61.6-202.3,57.3c-11-0.7-22.2-1.9-33-3.1c-22.9-2.6-46.5-5.2-69.6-2.4C75.8,77.8,23,118.1-6.1,176.1z"/>
					</g>
					<g>
						
							<linearGradient id="SVGID_00000087385009994580510090000009934004261839292086_" gradientUnits="userSpaceOnUse" x1="-20.4119" y1="110.2539" x2="635.2199" y2="-13.1408">
							<stop  offset="0" style="stop-color:#B1EBF2"/>
							<stop  offset="1" style="stop-color:#00B5FF"/>
						</linearGradient>
						<path style="fill:url(#SVGID_00000087385009994580510090000009934004261839292086_);" d="M-6.7,178.5l-0.9-0.4
							c23.8-47.8,65.5-84.8,111.4-98.9c8.2-2.5,16.5-4.3,24.9-5.4c23-3,46.5-0.6,69.3,1.8c10.5,1.1,21.3,2.2,31.9,2.7
							c8.5,0.5,17.1,0.6,25.6,0.3c62.1-1.7,123.6-21.7,173.1-56.4C443,12.1,456.7,0.6,470-10.6c15.5-13,31.5-26.4,48.7-37.6
							c17-11.1,34.9-19.2,51.8-23.4c19.6-4.9,37.7-4.7,53.8,0.5l-0.3,1c-17.4-5.6-54.2-10.2-104.8,22.8
							c-17.1,11.1-33.1,24.6-48.6,37.5C457.4,1.4,443.6,12.9,429.1,23c-49.7,34.8-111.4,54.9-173.6,56.5c-8.6,0.2-17.2,0.1-25.7-0.3
							c-10.7-0.6-21.5-1.7-31.9-2.8c-22.7-2.3-46.1-4.7-69-1.8c-8.3,1.1-16.6,2.9-24.7,5.4C58.4,94.2,16.9,131-6.7,178.5z"/>
					</g>
					<g>
						
							<linearGradient id="SVGID_00000102527460107738671710000017269072479761286565_" gradientUnits="userSpaceOnUse" x1="-21.2461" y1="111.9013" x2="621.1602" y2="-9.0042">
							<stop  offset="0" style="stop-color:#B1EBF2"/>
							<stop  offset="1" style="stop-color:#00B5FF"/>
						</linearGradient>
						<path style="fill:url(#SVGID_00000102527460107738671710000017269072479761286565_);" d="M-7.4,181l-0.9-0.4
							C14.9,133.7,55.8,97.2,101.3,83c8-2.5,16.2-4.3,24.4-5.5c22.8-3.1,46.1-1,68.7,1.1c10.1,0.9,20.6,1.9,30.8,2.4
							c8.4,0.4,16.8,0.5,25.2,0.2c61.7-1.9,122.2-21.4,170.5-55.1c15.2-10.6,29.7-22.9,43.6-34.7c14.3-12.2,29.1-24.8,44.7-35.4
							c49-33.6,84-30.7,100.5-26l-0.3,1c-16.3-4.7-51-7.5-99.6,25.9c-15.5,10.7-30.3,23.2-44.6,35.4c-14,11.9-28.4,24.1-43.7,34.8
							c-48.5,33.8-109.2,53.4-171.1,55.3c-8.4,0.3-16.9,0.2-25.3-0.2c-10.3-0.5-20.8-1.5-30.9-2.4c-22.5-2.1-45.8-4.2-68.4-1.1
							c-8.1,1.1-16.3,2.9-24.3,5.4C56.4,98.1,15.6,134.4-7.4,181z"/>
					</g>
					<g>
						
							<linearGradient id="SVGID_00000022539290707113890630000015645330171681281722_" gradientUnits="userSpaceOnUse" x1="-22.0994" y1="113.4462" x2="607.0778" y2="-4.9696">
							<stop  offset="0" style="stop-color:#B1EBF2"/>
							<stop  offset="1" style="stop-color:#00B5FF"/>
						</linearGradient>
						<path style="fill:url(#SVGID_00000022539290707113890630000015645330171681281722_);" d="M-8.1,183.4L-9,183
							c22.6-46,62.8-81.9,107.7-96.1c7.9-2.5,16-4.4,24-5.5c22.6-3.3,45.7-1.3,68.1,0.5c9.7,0.8,19.8,1.6,29.7,2
							c8.2,0.3,16.6,0.4,24.8,0.1c61.3-2,120.9-21.2,168-53.8C429.5,19,444.6,5.9,459.2-6.7c13-11.3,26.5-23,40.5-33.1
							c20.2-14.6,59.5-37.8,95.3-29.1l-0.2,1c-35.5-8.6-74.4,14.5-94.5,29c-14,10.1-27.4,21.7-40.5,33c-14.6,12.7-29.7,25.7-45.9,37
							c-47.2,32.8-107,52-168.5,54c-8.3,0.3-16.7,0.2-24.9-0.1c-9.9-0.4-20-1.2-29.8-2c-22.3-1.9-45.4-3.8-67.9-0.5
							c-8,1.1-16,3-23.8,5.5C54.4,102,14.4,137.7-8.1,183.4z"/>
					</g>
					<g>
						
							<linearGradient id="SVGID_00000041270672231187062480000010990244623430492832_" gradientUnits="userSpaceOnUse" x1="-22.9707" y1="114.8979" x2="592.9741" y2="-1.0275">
							<stop  offset="0" style="stop-color:#B1EBF2"/>
							<stop  offset="1" style="stop-color:#00B5FF"/>
						</linearGradient>
						<path style="fill:url(#SVGID_00000041270672231187062480000010990244623430492832_);" d="M-8.8,185.9l-0.9-0.4
							c22-45,61.5-80.5,105.9-94.7c7.7-2.5,15.7-4.4,23.6-5.6c22.4-3.4,45.4-1.7,67.6-0.1c9.4,0.7,19,1.4,28.6,1.7
							c8.1,0.3,16.3,0.3,24.4,0c61.8-2.3,119-20.4,165.4-52.6C422.9,22.4,438.7,8.4,454-5.1c11.7-10.3,23.8-21,36.2-30.5
							c19.4-14.8,56.9-38.6,90.2-32.2l-0.2,1c-32.9-6.3-70.1,17.4-89.4,32c-12.4,9.4-24.5,20.1-36.2,30.5
							C439.3,9.2,423.5,23.2,406.3,35c-46.6,32.2-104,50.5-165.9,52.7c-8.1,0.3-16.4,0.3-24.5,0c-9.5-0.3-19.2-1-28.6-1.7
							c-22.2-1.6-45.1-3.3-67.4,0.1c-7.8,1.2-15.7,3-23.4,5.5C52.4,105.9,13.1,141.1-8.8,185.9z"/>
					</g>
					<g>
						
							<linearGradient id="SVGID_00000181079279336021451930000014398267373925298602_" gradientUnits="userSpaceOnUse" x1="-23.8672" y1="116.2159" x2="578.8409" y2="2.7818">
							<stop  offset="0" style="stop-color:#B1EBF2"/>
							<stop  offset="1" style="stop-color:#00B5FF"/>
						</linearGradient>
						<path style="fill:url(#SVGID_00000181079279336021451930000014398267373925298602_);" d="M-9.5,188.4l-0.9-0.4
							c21.3-44.1,60.2-79,104-93.3c7.6-2.5,15.4-4.4,23.1-5.6c22.2-3.6,45.1-2.1,67.2-0.8c9,0.6,18.2,1.1,27.4,1.4
							c8,0.2,16.1,0.2,24-0.2C296.7,87,353,69.3,398.2,38.1c18.1-12.5,34.7-27.5,50.8-41.9c10.3-9.3,21-19,31.8-27.6
							c18.6-14.9,54.3-39.4,85-35.3l-0.1,1c-30.3-4-65.8,20.3-84.2,35.1c-10.8,8.7-21.4,18.3-31.8,27.6
							c-16.1,14.5-32.7,29.5-50.9,42C353.4,70.2,297,88,235.4,90.5c-8,0.3-16.1,0.4-24.1,0.2c-9.1-0.2-18.4-0.8-27.4-1.4
							c-22-1.4-44.8-2.8-67,0.7c-7.7,1.2-15.4,3.1-23,5.6C50.4,109.8,11.8,144.5-9.5,188.4z"/>
					</g>
					<g>
						
							<linearGradient id="SVGID_00000129199202940756458190000002238797900096837810_" gradientUnits="userSpaceOnUse" x1="-24.7924" y1="117.3791" x2="564.6732" y2="6.4374">
							<stop  offset="0" style="stop-color:#B1EBF2"/>
							<stop  offset="1" style="stop-color:#00B5FF"/>
						</linearGradient>
						<path style="fill:url(#SVGID_00000129199202940756458190000002238797900096837810_);" d="M-10.2,190.8l-0.9-0.4
							c20.7-43.2,58.9-77.6,102.1-91.9c7.4-2.5,15.1-4.4,22.7-5.7c22.1-3.7,44.8-2.5,66.8-1.4c8.6,0.4,17.4,0.9,26.1,1.1
							c7.9,0.1,15.8,0.1,23.6-0.3c61-2.6,116.4-19.9,160.3-50c19.3-13.2,36.7-29.3,53.5-44.9c8.9-8.2,18-16.7,27.1-24.4
							c17.8-15.1,51.8-40.2,79.8-38.4l-0.1,1c-20.5-1.3-48.6,12.3-79.1,38.2c-9.1,7.7-18.3,16.2-27.1,24.4
							c-16.9,15.6-34.3,31.8-53.6,45c-44,30.2-99.6,47.6-160.8,50.2c-7.8,0.3-15.8,0.4-23.7,0.3c-8.7-0.2-17.6-0.6-26.1-1.1
							c-21.9-1.1-44.6-2.3-66.6,1.4c-7.6,1.3-15.2,3.2-22.6,5.6C48.4,113.7,10.5,147.9-10.2,190.8z"/>
					</g>
					<g>
						
							<linearGradient id="SVGID_00000099659236068141781590000010139928023461162412_" gradientUnits="userSpaceOnUse" x1="-25.752" y1="118.3643" x2="550.4635" y2="9.9163">
							<stop  offset="0" style="stop-color:#B1EBF2"/>
							<stop  offset="1" style="stop-color:#00B5FF"/>
						</linearGradient>
						<path style="fill:url(#SVGID_00000099659236068141781590000010139928023461162412_);" d="M-10.8,193.3l-0.9-0.4
							c20.1-42.3,57.6-76.1,100.3-90.5c7.3-2.5,14.8-4.4,22.3-5.7c22-3.9,44.6-3,66.5-2.1c8.1,0.3,16.5,0.7,24.8,0.8
							c7.7,0.1,15.6-0.1,23.2-0.4C285.9,92,340.5,75.2,383,46.1c20.6-14,38.8-31.5,56.5-48.3c7.3-7,14.8-14.1,22.3-20.8
							c17-15.3,49.3-41,74.7-41.5l0,1c-25.1,0.5-57.1,26.1-74,41.3c-7.4,6.7-15,13.9-22.2,20.8c-17.7,16.9-36,34.4-56.6,48.4
							C340.9,76.1,286.2,93,225.4,95.9c-7.7,0.4-15.5,0.5-23.3,0.4c-8.3-0.1-16.7-0.4-24.8-0.8c-21.8-0.9-44.4-1.8-66.2,2.1
							c-7.4,1.3-14.9,3.2-22.1,5.7C46.5,117.6,9.2,151.2-10.8,193.3z"/>
					</g>
					<g>
						
							<linearGradient id="SVGID_00000023242115805039080390000004903922632148929214_" gradientUnits="userSpaceOnUse" x1="-26.7504" y1="119.1387" x2="536.2042" y2="13.1865">
							<stop  offset="0" style="stop-color:#B1EBF2"/>
							<stop  offset="1" style="stop-color:#00B5FF"/>
						</linearGradient>
						<path style="fill:url(#SVGID_00000023242115805039080390000004903922632148929214_);" d="M-11.5,195.7l-0.9-0.4
							C7.1,154,43.9,120.6,86,106.2c7.2-2.5,14.5-4.4,21.9-5.8c21.9-4.1,44.4-3.4,66.2-2.8c7.7,0.2,15.6,0.5,23.4,0.5
							c7.6,0,15.3-0.2,22.8-0.5c60.3-3.1,113.9-19.5,155.2-47.5c22-15,41.2-33.9,59.8-52.3c5.6-5.6,11.4-11.3,17.1-16.7
							c35.9-34.2,57.6-43.1,69.5-44.6l0.1,1C510.1-61,488.6-52.1,453-18.2c-5.7,5.4-11.5,11.2-17.1,16.7
							c-18.6,18.4-37.8,37.4-59.9,52.4c-41.4,28.1-95.2,44.6-155.7,47.7c-7.5,0.4-15.2,0.6-22.9,0.5c-7.8,0-15.7-0.3-23.4-0.5
							c-21.8-0.6-44.3-1.3-66,2.7c-7.3,1.4-14.6,3.3-21.7,5.7C44.5,121.5,7.9,154.6-11.5,195.7z"/>
					</g>
					<g>
						
							<linearGradient id="SVGID_00000016056235658638159940000000272015795790391170_" gradientUnits="userSpaceOnUse" x1="-27.7889" y1="119.702" x2="521.9565" y2="16.2359">
							<stop  offset="0" style="stop-color:#B1EBF2"/>
							<stop  offset="1" style="stop-color:#00B5FF"/>
						</linearGradient>
						<path style="fill:url(#SVGID_00000016056235658638159940000000272015795790391170_);" d="M-12.2,198.2l-0.9-0.4
							c18.9-40.4,55-73.2,96.6-87.7c7-2.4,14.2-4.4,21.4-5.8c21.8-4.2,44.3-3.9,66.1-3.5c7.2,0.1,14.6,0.3,21.9,0.2
							c7.5,0,15-0.3,22.4-0.7c60.8-3.3,112.2-18.9,152.6-46.2c23.7-16,43.9-36.8,63.3-56.8c3.8-3.9,7.8-8,11.6-11.9
							c18.9-19.1,45.3-42.9,64.3-47.7l0.2,1c-18.7,4.8-45,28.4-63.8,47.4c-3.9,3.9-7.8,8-11.6,11.9c-19.5,20.1-39.7,40.9-63.5,57
							c-40.6,27.5-92.1,43.1-153.1,46.4c-7.4,0.4-14.9,0.6-22.5,0.7c-7.3,0-14.7-0.1-21.9-0.2c-21.7-0.4-44.2-0.8-65.8,3.5
							c-7.2,1.4-14.3,3.3-21.3,5.8C42.5,125.4,6.6,158-12.2,198.2z"/>
					</g>
					<g>
						
							<linearGradient id="SVGID_00000023276122758437142400000017002467792190170036_" gradientUnits="userSpaceOnUse" x1="-28.8332" y1="120.2356" x2="507.7749" y2="19.2421">
							<stop  offset="0" style="stop-color:#B1EBF2"/>
							<stop  offset="1" style="stop-color:#00B5FF"/>
						</linearGradient>
						<path style="fill:url(#SVGID_00000023276122758437142400000017002467792190170036_);" d="M-12.9,200.6l-0.9-0.4
							c18.3-39.5,53.7-71.8,94.7-86.3c6.9-2.4,13.9-4.4,21-5.8c21.7-4.5,44.2-4.3,66-4.2c6.6,0,13.5,0.1,20.3,0
							c7.4-0.1,14.8-0.4,22-0.8c60.5-3.5,111-18.7,150-45c25.7-17.3,46.8-40.2,67.3-62.3c1.9-2.1,3.9-4.2,5.8-6.3
							c26.2-28.2,46-45.3,59.1-50.8l0.4,0.9c-12.9,5.4-32.7,22.4-58.7,50.5c-1.9,2.1-3.9,4.2-5.8,6.3
							c-20.5,22.2-41.7,45.1-67.4,62.5C321.6,85.3,271,100.5,210.3,104c-7.2,0.4-14.6,0.7-22.1,0.8c-6.8,0.1-13.7,0.1-20.3,0
							c-21.7-0.1-44.2-0.2-65.8,4.2c-7,1.4-14,3.4-20.9,5.8C40.5,129.3,5.3,161.4-12.9,200.6z"/>
					</g>
					<g>
						
							<linearGradient id="SVGID_00000043433958967717817150000018432054268315021993_" gradientUnits="userSpaceOnUse" x1="-29.8759" y1="120.7774" x2="493.6045" y2="22.2545">
							<stop  offset="0" style="stop-color:#B1EBF2"/>
							<stop  offset="1" style="stop-color:#00B5FF"/>
						</linearGradient>
						<path style="fill:url(#SVGID_00000043433958967717817150000018432054268315021993_);" d="M-13.6,203.1l-0.9-0.4
							c17.7-38.6,52.4-70.3,92.9-84.9c6.7-2.4,13.6-4.4,20.6-5.9c21.7-4.7,44.3-4.8,66.1-5c6.1,0,12.4-0.1,18.5-0.2
							c7.3-0.2,14.6-0.5,21.6-0.9c61-3.8,109.3-18.1,147.5-43.7c28-18.7,51-45.1,71.2-68.4c25.4-29.2,43-46.8,53.9-53.8l0.5,0.8
							c-10.8,6.9-28.3,24.5-53.6,53.6c-20.3,23.3-43.2,49.7-71.4,68.6c-38.3,25.7-86.7,40-148,43.9c-7.1,0.4-14.3,0.8-21.6,0.9
							c-6.2,0.1-12.5,0.2-18.6,0.2c-21.8,0.1-44.3,0.3-65.9,4.9c-6.9,1.5-13.8,3.5-20.4,5.9C38.5,133.2,4,164.8-13.6,203.1z"/>
					</g>
					<g>
						
							<linearGradient id="SVGID_00000062876161743428384880000004554293401970805408_" gradientUnits="userSpaceOnUse" x1="-30.9165" y1="121.3275" x2="479.4372" y2="25.2752">
							<stop  offset="0" style="stop-color:#B1EBF2"/>
							<stop  offset="1" style="stop-color:#00B5FF"/>
						</linearGradient>
						<path style="fill:url(#SVGID_00000062876161743428384880000004554293401970805408_);" d="M-14.2,205.6l-0.9-0.4
							c17.1-37.6,51.1-68.8,91-83.5c6.6-2.4,13.3-4.4,20.1-5.9c21.8-4.9,44.5-5.3,66.4-5.8c5.4-0.1,11.1-0.2,16.6-0.4
							c7.2-0.2,14.3-0.6,21.2-1c60.8-4.1,108.2-18,144.9-42.4c27.9-18.5,50.4-44.9,69.3-68.2C434.9-27.4,452.7-49.1,463-59l0.7,0.7
							c-10.3,9.9-28.1,31.6-48.6,56.8c-18.9,23.3-41.5,49.8-69.5,68.4c-36.9,24.6-84.4,38.5-145.4,42.6c-6.9,0.5-14,0.8-21.2,1
							c-5.5,0.2-11.2,0.3-16.6,0.4c-21.9,0.4-44.5,0.9-66.2,5.7c-6.8,1.5-13.5,3.5-20,5.9C36.5,137.2,2.7,168.2-14.2,205.6z"/>
					</g>
					<g>
						
							<linearGradient id="SVGID_00000003802849409712420550000005764588356451852970_" gradientUnits="userSpaceOnUse" x1="-31.9559" y1="121.8869" x2="465.2632" y2="28.3066">
							<stop  offset="0" style="stop-color:#B1EBF2"/>
							<stop  offset="1" style="stop-color:#00B5FF"/>
						</linearGradient>
						<path style="fill:url(#SVGID_00000003802849409712420550000005764588356451852970_);" d="M-14.9,208l-0.9-0.4
							c16.5-36.7,49.8-67.4,89.1-82.1c6.4-2.4,13-4.4,19.7-6c21.9-5.2,44.8-5.9,66.9-6.6c4.8-0.2,9.6-0.3,14.5-0.5
							c7.1-0.3,14.1-0.7,20.8-1.2c61.3-4.4,106.6-17.5,142.3-41.2c28.1-18.6,49.8-44.8,67.4-68c21.1-27.8,38.6-52.9,43.4-59.9
							l0.8,0.6c-4.9,7-22.4,32.1-43.5,59.9c-17.6,23.3-39.4,49.5-67.6,68.2c-35.9,23.8-81.3,36.9-142.8,41.3
							c-6.7,0.5-13.7,0.9-20.8,1.2c-4.8,0.2-9.7,0.4-14.5,0.5c-22.1,0.7-44.9,1.4-66.7,6.6c-6.6,1.6-13.2,3.6-19.6,6
							C34.6,141.1,1.5,171.6-14.9,208z"/>
					</g>
					<g>
						
							<linearGradient id="SVGID_00000019636437985356743150000008449806262000325529_" gradientUnits="userSpaceOnUse" x1="-32.9949" y1="122.4509" x2="451.075" y2="31.3455">
							<stop  offset="0" style="stop-color:#B1EBF2"/>
							<stop  offset="1" style="stop-color:#00B5FF"/>
						</linearGradient>
						<path style="fill:url(#SVGID_00000019636437985356743150000008449806262000325529_);" d="M-15.6,210.5l-0.9-0.4
							c15.9-35.7,48.5-65.9,87.3-80.7c6.3-2.4,12.8-4.4,19.3-6c22.1-5.5,45.3-6.5,67.6-7.5c4-0.2,8-0.4,12.1-0.6
							c7.1-0.4,13.9-0.8,20.4-1.3c80.3-6.1,118.2-25.7,139.8-39.9c22.6-14.9,43.4-36.4,65.5-67.8c17.3-24.6,32-48.8,38.3-62.9
							l0.9,0.4c-6.3,14.2-21,38.4-38.4,63.1c-22.1,31.5-43,53.1-65.8,68c-21.6,14.3-59.7,33.9-140.2,40.1
							c-6.5,0.5-13.3,0.9-20.4,1.3c-4,0.2-8,0.4-12.1,0.6c-22.3,1-45.4,2-67.4,7.5c-6.5,1.6-12.9,3.6-19.2,6
							C32.6,145,0.2,175-15.6,210.5z"/>
					</g>
					<g>
						
							<linearGradient id="SVGID_00000096770908046267189370000006088820603191948718_" gradientUnits="userSpaceOnUse" x1="-34.0332" y1="123.0157" x2="436.8679" y2="34.3886">
							<stop  offset="0" style="stop-color:#B1EBF2"/>
							<stop  offset="1" style="stop-color:#00B5FF"/>
						</linearGradient>
						<path style="fill:url(#SVGID_00000096770908046267189370000006088820603191948718_);" d="M-16.3,212.9l-0.9-0.4
							c15.5-35.3,46.6-64.2,85.4-79.3c6.1-2.4,12.5-4.4,18.9-6.1c22.5-5.8,46-7.2,68.8-8.5c3.1-0.2,6.2-0.4,9.3-0.5
							c7.2-0.4,13.7-0.9,20-1.4c79.1-6.4,114.9-24,137.2-38.7c23-15,43.8-37.1,63.6-67.6c16.8-25.9,29.2-50.5,33.1-65.9l1,0.2
							C416.1-39.7,403.6-15,386.8,11c-19.9,30.6-40.8,52.8-63.9,67.9c-42.7,28-96,35.4-137.7,38.8c-6.3,0.5-12.8,1-20,1.4
							c-3.1,0.2-6.2,0.4-9.3,0.5c-22.7,1.3-46.2,2.7-68.6,8.5c-6.4,1.7-12.7,3.7-18.7,6.1C30,149.1-0.9,177.9-16.3,212.9z"/>
					</g>
					<g>
						
							<linearGradient id="SVGID_00000051373218133466657200000012354372887206431403_" gradientUnits="userSpaceOnUse" x1="-35.0723" y1="123.5773" x2="422.6436" y2="37.4319">
							<stop  offset="0" style="stop-color:#B1EBF2"/>
							<stop  offset="1" style="stop-color:#00B5FF"/>
						</linearGradient>
						<path style="fill:url(#SVGID_00000051373218133466657200000012354372887206431403_);" d="M-17,215.4l-0.9-0.4
							c14.9-34.3,45.3-62.7,83.6-77.9c6-2.4,12.2-4.4,18.4-6.1c22.9-6.3,47.1-8,70.4-9.6l6-0.4c7.2-0.5,13.7-1,19.6-1.5
							c78.4-6.8,112.1-22.7,134.6-37.4c23.2-15,43.9-37.7,61.7-67.4c16-26.6,26.2-51.8,28-69l1,0.1c-1.8,17.3-12,42.6-28.1,69.4
							c-17.8,29.8-38.7,52.5-62,67.7c-40.4,26.3-91,33.7-135.1,37.5c-5.9,0.5-12.3,1-19.6,1.5l-6,0.4c-23.3,1.7-47.4,3.4-70.2,9.6
							c-6.2,1.7-12.4,3.7-18.3,6.1C28.1,153.1-2.2,181.3-17,215.4z"/>
					</g>
					<g>
						
							<linearGradient id="SVGID_00000058567748700315888040000016517587835026630828_" gradientUnits="userSpaceOnUse" x1="-36.1125" y1="124.1345" x2="408.4073" y2="40.4726">
							<stop  offset="0" style="stop-color:#B1EBF2"/>
							<stop  offset="1" style="stop-color:#00B5FF"/>
						</linearGradient>
						<path style="fill:url(#SVGID_00000058567748700315888040000016517587835026630828_);" d="M-17.6,217.8l-0.9-0.4
							c14.3-33.4,44.1-61.3,81.7-76.5c5.8-2.4,11.9-4.4,18-6.2c23.6-6.8,48.6-8.8,72.8-10.8l2-0.2c5.7-0.5,12.3-1,19.2-1.7
							c43-3.9,92.1-10.3,132.1-36.1c23.2-15,43.9-38.2,59.8-67.2c14.8-26.9,23.1-53.2,22.8-72l1,0c0.3,19-8.1,45.4-22.9,72.5
							c-16,29.1-36.8,52.4-60.1,67.5c-40.1,26-89.5,32.3-132.5,36.3c-6.8,0.6-13.5,1.2-19.2,1.7l-2,0.2c-24.1,2-49,4.1-72.6,10.8
							c-6.1,1.7-12.1,3.8-17.9,6.1C26.1,157-3.5,184.7-17.6,217.8z"/>
					</g>
					<g>
						
							<linearGradient id="SVGID_00000144325231850782968070000007764422741818763185_" gradientUnits="userSpaceOnUse" x1="-37.1534" y1="124.6868" x2="394.1625" y2="43.51">
							<stop  offset="0" style="stop-color:#B1EBF2"/>
							<stop  offset="1" style="stop-color:#00B5FF"/>
						</linearGradient>
						<path style="fill:url(#SVGID_00000144325231850782968070000007764422741818763185_);" d="M-18.3,220.3l-0.9-0.4
							c13.7-32.4,42.8-59.8,79.8-75.1c5.7-2.3,11.6-4.4,17.6-6.2c22.8-6.8,45.6-9.4,73.1-12l6-0.6c4.3-0.4,8.5-0.8,12.8-1.2
							c44.9-4.3,91.8-10.6,129.5-34.9c29.7-19,47.9-46.9,57.9-66.9c13.6-27.1,20-54.5,17.7-75.1l1-0.1c2.4,20.8-4.1,48.3-17.8,75.6
							c-10.1,20.1-28.4,48.2-58.3,67.3c-37.9,24.4-85,30.6-130,35c-4.3,0.4-8.5,0.8-12.8,1.2l-6,0.6c-27.4,2.6-50.2,5.1-72.9,11.9
							c-6,1.8-11.8,3.9-17.5,6.2C24.2,161-4.7,188.1-18.3,220.3z"/>
					</g>
					<g>
						
							<linearGradient id="SVGID_00000038375297862235666440000005453794714675586224_" gradientUnits="userSpaceOnUse" x1="-38.1958" y1="125.2312" x2="379.9142" y2="46.5398">
							<stop  offset="0" style="stop-color:#B1EBF2"/>
							<stop  offset="1" style="stop-color:#00B5FF"/>
						</linearGradient>
						<path style="fill:url(#SVGID_00000038375297862235666440000005453794714675586224_);" d="M-19,222.8l-0.9-0.4
							c13.1-31.4,41.5-58.3,78-73.7c5.5-2.3,11.3-4.4,17.1-6.3c23.6-7.4,48.2-10.5,71.4-13c5.7-0.6,11.3-1.2,17-1.8l1.4-0.1
							c39.5-4.1,88.6-9.1,127-33.6c23.4-14.9,43.2-38.6,56-66.7c12.6-27.7,17-55.4,12.6-78.1l1-0.2c4.5,22.9,0,50.9-12.6,78.7
							c-12.8,28.3-32.9,52.2-56.4,67.2c-38.6,24.6-87.8,29.7-127.4,33.7l-1.4,0.1c-5.7,0.6-11.3,1.2-17,1.8
							c-23.2,2.5-47.8,5.5-71.2,12.9c-5.8,1.8-11.6,3.9-17,6.2C22.2,164.9-6,191.6-19,222.8z"/>
					</g>
					<g>
						
							<linearGradient id="SVGID_00000074434914296258550470000014579585643961735829_" gradientUnits="userSpaceOnUse" x1="-39.2445" y1="125.7434" x2="365.9215" y2="49.4882">
							<stop  offset="0" style="stop-color:#B1EBF2"/>
							<stop  offset="1" style="stop-color:#00B5FF"/>
						</linearGradient>
						<path style="fill:url(#SVGID_00000074434914296258550470000014579585643961735829_);" d="M-19.7,225.2l-0.9-0.4
							c12.5-30.5,40.2-56.8,76.1-72.3c5.3-2.3,11-4.4,16.7-6.3c23.3-7.7,47.3-11.2,69.8-13.9c6.5-0.8,13-1.5,18-2l2.3-0.2
							c42.4-4.6,86.3-9.4,122.1-32.1c23.5-14.9,42.7-38.5,54.1-66.5c11.3-27.8,14-56.7,7.4-81.2l1-0.3c6.6,24.8,3.9,53.8-7.5,81.8
							c-11.5,28.2-30.8,52-54.5,67c-36.1,22.8-80,27.6-122.6,32.2l-2.3,0.2c-4.9,0.5-11.5,1.3-18,2c-22.5,2.7-46.4,6.2-69.6,13.9
							c-5.7,1.9-11.3,4-16.6,6.3C20.3,168.8-7.3,195-19.7,225.2z"/>
					</g>
					<g>
						
							<linearGradient id="SVGID_00000136371148011409583710000008826407400770715062_" gradientUnits="userSpaceOnUse" x1="-40.2924" y1="126.2581" x2="352.3605" y2="52.358">
							<stop  offset="0" style="stop-color:#B1EBF2"/>
							<stop  offset="1" style="stop-color:#00B5FF"/>
						</linearGradient>
						<path style="fill:url(#SVGID_00000136371148011409583710000008826407400770715062_);" d="M-20.3,227.7l-0.9-0.4
							c12-29.9,38.4-55.1,74.3-70.9c33.1-14.6,70-19.8,102-23.4c2.6-0.3,5.3-0.6,7.9-0.9c39.5-4.5,80.4-9.1,113.9-30.2
							c23.5-14.8,42.1-38.3,52.2-66.3c10.1-27.9,10.9-57.9,2.3-84.3l1-0.3c8.7,26.6,7.9,56.8-2.3,85c-10.2,28.2-28.9,51.9-52.6,66.8
							c-33.7,21.2-74.7,25.8-114.4,30.3c-2.6,0.3-5.3,0.6-7.9,0.9c-31.9,3.7-68.7,8.8-101.7,23.4C17.8,173-8.4,198-20.3,227.7z"/>
					</g>
				</g>
			</g>
		</g>
	</g>
</g>
</svg>
