<svg width="47" height="42" viewBox="0 0 47 42" fill="none" xmlns="http://www.w3.org/2000/svg">
<path d="M43.0861 1H21.0272C19.582 1 18.4058 2.20143 18.4058 3.67777V13.9883H3.62272C2.17658 13.9883 1 15.1902 1 16.667V31.0695C1 32.5463 2.17658 33.7482 3.62272 33.7482H5.81201V40.6784C5.81201 40.9658 5.98212 41.2242 6.24271 41.3327C6.50575 41.4413 6.80352 41.3758 6.99843 41.1713L14.0861 33.7481H25.6812C27.1273 33.7481 28.3039 32.5462 28.3039 31.0695V20.7571H32.6203L39.7098 28.1803C39.9063 28.3866 40.206 28.4487 40.465 28.3412C40.7256 28.2327 40.8958 27.9744 40.8958 27.687V20.7572H43.0859C44.5312 20.7572 45.7073 19.5558 45.7073 18.0794V3.67777C45.7075 2.20143 44.5314 1 43.0861 1ZM26.9212 31.0695C26.9212 31.768 26.3649 32.3357 25.6812 32.3357H13.7945C13.6081 32.3357 13.4295 32.4125 13.2994 32.5491L7.19475 38.9427V33.042C7.19475 32.6521 6.88511 32.3357 6.50338 32.3357H3.62272C2.93899 32.3357 2.38266 31.7679 2.38266 31.0695V16.667C2.38266 15.9685 2.93899 15.4008 3.62272 15.4008H18.4058V18.0794C18.4058 19.5558 19.582 20.7572 21.0272 20.7572H26.9213L26.9212 31.0695ZM44.3247 18.0794C44.3247 18.7769 43.7689 19.3446 43.0861 19.3446H40.2046C39.8229 19.3446 39.5132 19.6609 39.5132 20.0509V25.9516L33.4063 19.5575C33.2761 19.4214 33.0979 19.3446 32.9116 19.3446H21.0272C20.3445 19.3446 19.7886 18.7768 19.7886 18.0794V3.67777C19.7886 2.98033 20.3445 2.41248 21.0272 2.41248H43.0861C43.7689 2.41248 44.3247 2.98033 44.3247 3.67777V18.0794Z" fill="#7133AD" stroke="#7133AD"/>
<path d="M26.2443 12.9563C27.2635 12.9563 28.0898 12.1246 28.0898 11.0986C28.0898 10.0726 27.2635 9.24094 26.2443 9.24094C25.225 9.24094 24.3987 10.0726 24.3987 11.0986C24.3987 12.1246 25.225 12.9563 26.2443 12.9563Z" fill="#7133AD"/>
<path d="M31.9974 12.9563C33.0167 12.9563 33.843 12.1246 33.843 11.0986C33.843 10.0726 33.0167 9.24094 31.9974 9.24094C30.9781 9.24094 30.1519 10.0726 30.1519 11.0986C30.1519 12.1246 30.9781 12.9563 31.9974 12.9563Z" fill="#7133AD"/>
<path d="M37.7507 12.9563C38.77 12.9563 39.5963 12.1246 39.5963 11.0986C39.5963 10.0726 38.77 9.24094 37.7507 9.24094C36.7314 9.24094 35.9052 10.0726 35.9052 11.0986C35.9052 12.1246 36.7314 12.9563 37.7507 12.9563Z" fill="#7133AD"/>
</svg>
