<svg width="41" height="41" viewBox="0 0 41 41" fill="none" xmlns="http://www.w3.org/2000/svg">
<path fill-rule="evenodd" clip-rule="evenodd" d="M11.1905 33.5714H6.71429C5.47774 33.5714 4.47619 34.573 4.47619 35.8095V38.0476C4.47619 39.2842 5.47774 40.2857 6.71429 40.2857H33.5412C34.7766 40.2857 35.7793 39.2842 35.7793 38.0476V35.8095C35.7793 34.573 34.7766 33.5714 33.5412 33.5714H27.9762V30.2143H36.9286C37.8193 30.2143 38.6732 29.8607 39.3021 29.2306C39.9321 28.6017 40.2857 27.7479 40.2857 26.8571V3.35714C40.2857 2.46638 39.9321 1.61255 39.3021 0.983643C38.6732 0.353619 37.8193 0 36.9286 0C30.183 0 10.1028 0 3.35714 0C2.46638 0 1.61255 0.353619 0.983643 0.983643C0.353619 1.61255 0 2.46638 0 3.35714V26.8571C0 27.7479 0.353619 28.6017 0.983643 29.2306C1.61255 29.8607 2.46638 30.2143 3.35714 30.2143H11.1905V33.5714ZM33.5412 35.8095H6.71429V38.0476H33.5412V35.8095ZM25.7381 33.5714H13.4286V30.2143H25.7381V33.5714ZM38.0476 3.35714V26.8571C38.0476 27.1537 37.9301 27.439 37.7197 27.6483C37.5105 27.8587 37.2251 27.9762 36.9286 27.9762H3.35714C3.0606 27.9762 2.77524 27.8587 2.56598 27.6483C2.3556 27.439 2.2381 27.1537 2.2381 26.8571V3.35714C2.2381 3.0606 2.3556 2.77524 2.56598 2.56598C2.77524 2.3556 3.0606 2.2381 3.35714 2.2381H36.9286C37.2251 2.2381 37.5105 2.3556 37.7197 2.56598C37.9301 2.77524 38.0476 3.0606 38.0476 3.35714Z" fill="#7133AD"/>
<path fill-rule="evenodd" clip-rule="evenodd" d="M13.7587 10.678C11.9537 10.735 10.509 12.2155 10.509 14.034V21.5417C10.509 23.3959 12.0119 24.8988 13.8661 24.8988H26.4196C28.2739 24.8988 29.7767 23.3959 29.7767 21.5417V14.034C29.7767 12.2155 28.332 10.735 26.527 10.678C25.9966 7.63415 23.3389 5.31548 20.1429 5.31548C16.9469 5.31548 14.2891 7.63415 13.7587 10.678ZM27.5386 14.034V21.5417C27.5386 22.1594 27.0373 22.6607 26.4196 22.6607C23.1564 22.6607 17.1293 22.6607 13.8661 22.6607C13.2484 22.6607 12.7471 22.1594 12.7471 21.5417V14.034C12.7471 13.4163 13.2484 12.9149 13.8661 12.9149H26.4196C27.0373 12.9149 27.5386 13.4163 27.5386 14.034ZM24.2352 10.6768C23.7439 8.87741 22.0967 7.55358 20.1429 7.55358C18.189 7.55358 16.5418 8.87741 16.0505 10.6768H24.2352Z" fill="#7133AD"/>
<path fill-rule="evenodd" clip-rule="evenodd" d="M15.5547 16.0527C15.5547 18.5851 17.6104 20.6408 20.1428 20.6408C22.6752 20.6408 24.7309 18.5851 24.7309 16.0527C24.7309 15.4361 24.2296 14.9337 23.6119 14.9337C22.9942 14.9337 22.4928 15.4361 22.4928 16.0527C22.4928 17.3497 21.4398 18.4027 20.1428 18.4027C18.8459 18.4027 17.7928 17.3497 17.7928 16.0527C17.7928 15.4361 17.2915 14.9337 16.6738 14.9337C16.0561 14.9337 15.5547 15.4361 15.5547 16.0527Z" fill="#7133AD"/>
</svg>
