<svg width="11" height="12" viewBox="0 0 11 12" fill="none" xmlns="http://www.w3.org/2000/svg">
<path d="M10.2487 10.1573C10.2487 8.1525 8.99648 6.44245 7.24355 5.77259C8.11814 5.21967 8.70304 4.2397 8.70304 3.12181C8.70304 1.39766 7.31622 -0.00509644 5.61167 -0.00509644C3.90711 -0.00509644 2.52029 1.39766 2.52029 3.12181C2.52029 4.2397 3.10519 5.21967 3.97978 5.77259C2.22685 6.44245 0.974609 8.1525 0.974609 10.1573V11.3299H1.74745V10.1573C1.74745 8.00225 3.48088 6.24871 5.61167 6.24871C7.74245 6.24871 9.47588 8.00225 9.47588 10.1573V11.3299H10.2487V10.1573ZM3.29314 3.12181C3.29314 1.8286 4.33316 0.77663 5.61167 0.77663C6.89017 0.77663 7.93019 1.8286 7.93019 3.12181C7.93019 4.41501 6.89017 5.46699 5.61167 5.46699C4.33316 5.46699 3.29314 4.41501 3.29314 3.12181Z" fill="white"/>
</svg>
