<svg width="42" height="42" viewBox="0 0 512 512" fill="none" xmlns="http://www.w3.org/2000/svg">
<path d="M394.667 266.667C368.299 266.667 342.528 275.606 322.176 291.819C293.675 314.07 277.333 347.67 277.333 384C277.333 448.704 329.984 501.333 394.666 501.333C405.759 501.333 416.533 499.818 426.645 496.874C476.885 482.731 512 436.309 512 384C512 319.296 459.349 266.667 394.667 266.667ZM420.757 476.352C412.501 478.763 403.712 480 394.666 480C341.738 480 298.666 436.928 298.666 384C298.666 354.283 312.021 326.805 335.381 308.565C352.043 295.296 373.099 288 394.667 288C447.595 288 490.667 331.072 490.667 384C490.667 426.795 461.952 464.768 420.757 476.352Z" fill="white"/>
<path d="M311.445 291.84C315.2 291.84 318.848 289.856 320.789 286.336C323.648 281.173 321.77 274.688 316.608 271.829C301.952 263.744 286.293 257.621 270.165 253.184C312.277 232.213 341.333 188.821 341.333 138.667C341.333 68.075 283.925 10.667 213.333 10.667C142.741 10.667 85.333 68.075 85.333 138.667C85.333 188.8 114.368 232.15 156.416 253.142C121.216 262.806 88.896 281.281 62.421 307.755C22.165 348.011 0 401.6 0 458.667V490.667C0 496.555 4.779 501.334 10.667 501.334C16.555 501.334 21.334 496.555 21.334 490.667V458.667C21.334 407.296 41.302 359.083 77.526 322.838C113.75 286.593 161.985 266.667 213.334 266.667C245.867 266.667 278.017 274.923 306.305 290.518C307.925 291.413 309.696 291.84 311.445 291.84ZM106.667 138.667C106.667 79.851 154.517 32 213.333 32C272.149 32 320 79.851 320 138.667C320 197.483 272.149 245.334 213.333 245.334C154.517 245.333 106.667 197.483 106.667 138.667Z" fill="white"/>
<path d="M448 373.333H405.333V330.666C405.333 324.778 400.554 319.999 394.666 319.999C388.778 319.999 384 324.779 384 330.667V373.334H341.333C335.445 373.334 330.666 378.113 330.666 384.001C330.666 389.889 335.445 394.668 341.333 394.668H384V437.335C384 443.223 388.779 448.002 394.667 448.002C400.555 448.002 405.334 443.223 405.334 437.335V394.668H448C453.888 394.668 458.667 389.889 458.667 384.001C458.667 378.113 453.888 373.333 448 373.333Z" fill="white"/>
</svg>
