<?xml version="1.0" encoding="utf-8"?>
<!-- Generator: Adobe Illustrator 25.2.1, SVG Export Plug-In . SVG Version: 6.00 Build 0)  -->
<svg version="1.1" id="Layer_1" xmlns="http://www.w3.org/2000/svg" xmlns:xlink="http://www.w3.org/1999/xlink" x="0px" y="0px"
	 viewBox="0 0 550.7 568" style="enable-background:new 0 0 550.7 568;" xml:space="preserve">
<style type="text/css">
	.st0{fill:#F2F2F2;}
	.st1{fill:#E6E6E6;}
	.st2{fill:#FFFFFF;}
</style>
<path class="st0" d="M321.6,568H170.9c-3.6,0-6.6-3-6.6-6.6V456c0-3.6,3-6.6,6.6-6.6h150.7c3.6,0,6.6,3,6.6,6.6v105.4
	C328.2,565,325.2,568,321.6,568z"/>
<path class="st0" d="M86.7,538.5c-2,0.1-3.7-1.5-3.8-3.4c0-1.1,0.4-2.1,1.2-2.8c0.1-0.4,0.2-0.6,0.2-1c0-0.1-0.1-0.2-0.1-0.2
	c-2.1-4.9-7.8-7.2-12.7-5.2c-2.3,1-4.2,2.9-5.2,5.2c-2.9,7.1-6.7,14.1-7.6,21.6c-0.4,3.3-0.2,6.6,0.5,9.9
	c-6.9-15-10.4-31.3-10.5-47.8c0-4.1,0.2-8.3,0.7-12.4c0.4-3.4,0.9-6.7,1.6-10c3.7-18,11.6-35,23.1-49.3c5.6-3,10.1-7.7,12.9-13.4
	c1-2,1.7-4.2,2.1-6.5c-0.6,0.1-1.3,0.1-1.9,0.2c-0.2,0-0.4,0-0.6,0l-0.1,0c-2,0.1-3.6-1.4-3.7-3.4c0-0.9,0.2-1.7,0.8-2.4
	c0.3-0.3,0.5-0.7,0.8-1c0.4-0.5,0.8-1,1.2-1.5c0,0,0.1-0.1,0.1-0.2c0.5-0.6,0.9-1.2,1.4-1.7c-0.9-1.3-2-2.5-3.4-3.3
	c-4.7-2.8-11.3-0.9-14.7,3.4c-3.4,4.3-4.1,10.3-2.9,15.7c1.2,4.6,3.1,8.9,5.7,12.8c-0.3,0.3-0.5,0.6-0.8,1
	c-4.7,6-8.8,12.5-12.2,19.4c0.8-7.7-0.2-15.4-2.9-22.6c-2.8-6.7-8-12.4-12.6-18.2c-5.5-7-16.8-3.9-17.8,4.9c0,0.1,0,0.2,0,0.3
	c0.7,0.4,1.4,0.8,2,1.2c2.3,1.5,2.9,4.5,1.4,6.8c-0.8,1.1-2,1.9-3.3,2.1l-0.1,0c0.2,2.5,0.7,4.9,1.3,7.3c3.6,13.5,12.6,24.9,25,31.5
	c0.4,0.2,0.8,0.4,1.2,0.6c-3.4,9.8-5.6,20-6.4,30.3c-0.5,6.1-0.4,12.2,0.1,18.3l0-0.2c-1.3-6.8-4.9-12.9-10.2-17.3
	c-7.9-6.5-19-8.9-27.5-14c-2.6-1.7-6.1-0.9-7.8,1.7c-0.7,1.1-1,2.5-0.8,3.8c0,0.1,0,0.2,0,0.2c1.3,0.5,2.5,1.1,3.7,1.8
	c0.7,0.4,1.4,0.8,2,1.2c2.3,1.5,2.9,4.5,1.4,6.8c-0.8,1.1-2,1.9-3.3,2.1l-0.1,0c-0.1,0-0.1,0-0.2,0c2.2,5.2,5.2,9.9,9,14.1
	c9.4,10.1,22.6,15.9,36.4,16h0c1.9,8.1,4.5,15.9,8,23.4H86c0.1-0.3,0.2-0.6,0.3-1c-2.7,0.2-5.3,0-7.9-0.5c2.1-2.6,4.3-5.2,6.4-7.9
	c0,0,0.1-0.1,0.1-0.2c1.1-1.3,2.2-2.7,3.2-4l0,0C88.2,546.5,87.7,542.4,86.7,538.5L86.7,538.5z"/>
<path class="st0" d="M444.7,538.5c-2,0.1-3.7-1.5-3.8-3.4c0-1.1,0.4-2.1,1.2-2.8c0.1-0.4,0.2-0.6,0.2-1c0-0.1-0.1-0.2-0.1-0.2
	c-2.1-4.9-7.8-7.2-12.7-5.2c-2.3,1-4.2,2.9-5.2,5.2c-2.9,7.1-6.7,14.1-7.6,21.6c-0.4,3.3-0.2,6.6,0.5,9.9
	c-6.9-15-10.4-31.3-10.5-47.8c0-4.1,0.2-8.3,0.7-12.4c0.4-3.4,0.9-6.7,1.6-10c3.7-18,11.6-35,23.1-49.3c5.6-3,10.1-7.7,12.9-13.4
	c1-2,1.7-4.2,2.1-6.5c-0.6,0.1-1.3,0.1-1.9,0.2c-0.2,0-0.4,0-0.6,0l-0.1,0c-2,0.1-3.6-1.4-3.7-3.4c0-0.9,0.2-1.7,0.8-2.4
	c0.3-0.3,0.5-0.7,0.8-1c0.4-0.5,0.8-1,1.2-1.5c0,0,0.1-0.1,0.1-0.2c0.5-0.6,0.9-1.2,1.4-1.7c-0.9-1.3-2-2.5-3.4-3.3
	c-4.7-2.8-11.3-0.9-14.7,3.4c-3.4,4.3-4.1,10.3-2.9,15.7c1.2,4.6,3.1,8.9,5.7,12.8c-0.3,0.3-0.5,0.6-0.8,1
	c-4.7,6-8.8,12.5-12.2,19.4c0.8-7.7-0.2-15.4-2.9-22.6c-2.8-6.7-8-12.4-12.6-18.2c-5.5-7-16.8-3.9-17.8,4.9c0,0.1,0,0.2,0,0.3
	c0.7,0.4,1.4,0.8,2,1.2c2.3,1.5,2.9,4.5,1.4,6.8c-0.8,1.1-2,1.9-3.3,2.1l-0.1,0c0.2,2.5,0.7,4.9,1.3,7.3c3.6,13.5,12.6,24.9,25,31.5
	c0.4,0.2,0.8,0.4,1.2,0.6c-3.5,9.8-5.6,20-6.4,30.3c-0.5,6.1-0.4,12.2,0.1,18.3l0-0.2c-1.3-6.8-4.9-12.9-10.2-17.3
	c-7.9-6.5-19-8.9-27.5-14c-2.6-1.7-6.1-0.9-7.8,1.7c-0.7,1.1-1,2.5-0.8,3.8c0,0.1,0,0.2,0,0.2c1.3,0.5,2.5,1.1,3.7,1.8
	c0.7,0.4,1.4,0.8,2,1.2c2.3,1.5,2.9,4.5,1.4,6.8c-0.8,1.1-2,1.9-3.3,2.1l-0.1,0c-0.1,0-0.1,0-0.2,0c2.2,5.2,5.2,9.9,9,14.1
	c9.4,10.1,22.6,15.9,36.4,16h0c1.9,8.1,4.5,15.9,8,23.4H444c0.1-0.3,0.2-0.6,0.3-1c-2.7,0.2-5.3,0-7.9-0.5c2.1-2.6,4.3-5.2,6.4-7.9
	c0,0,0.1-0.1,0.1-0.2c1.1-1.3,2.2-2.7,3.2-4l0,0C446.2,546.5,445.7,542.4,444.7,538.5L444.7,538.5z"/>
<path class="st1" d="M334.2,563.9c-0.1,0-0.2,0-0.2,0c-4.4-0.2-7.8-3.9-7.7-8.3c0-12.8-9.1-20.3-18.2-22c-9.1-1.7-20.3,1.9-25,13.8
	l-4.3,10.7c-7.7,7.7-20.1,7.7-27.8,0l-0.3-0.3l0.2-0.3l75.3-154.1v-3.8c-0.1-1.2-0.1-2.3,0-3.5l0-388.2c0-4.4,3.6-7.9,7.9-7.9
	c0.1,0,0.2,0,0.2,0c4.4,0.2,7.8,3.9,7.7,8.3v387.9c0.1,1.2,0.1,2.3,0,3.5l0,3.7l75.5,154.5l-0.3,0.3c-7.7,7.7-20.1,7.7-27.8,0
	l-0.1-0.2l-4.2-10.5c-4.7-11.9-15.9-15.5-25-13.8c-9.1,1.7-18.2,9.2-18.2,22v0.3C342.2,560.3,338.6,563.9,334.2,563.9L334.2,563.9z"
	/>
<path class="st2" d="M472.1,281H196.3c-6.7,0-12.1-5.4-12.1-12.1V76.1c0-6.7,5.4-12.1,12.1-12.1h275.8c6.7,0,12.1,5.4,12.1,12.1
	v192.8C484.2,275.6,478.8,281,472.1,281z"/>
<path class="st0" d="M472.1,282.5H196.3c-7.5,0-13.6-6.1-13.6-13.6V76.1c0-7.5,6.1-13.6,13.6-13.6h275.8c7.5,0,13.6,6.1,13.6,13.6
	v192.8C485.7,276.4,479.6,282.5,472.1,282.5z M196.3,65.5c-5.8,0-10.6,4.7-10.6,10.6v192.8c0,5.8,4.7,10.6,10.6,10.6h275.8
	c5.8,0,10.6-4.7,10.6-10.6V76.1c0-5.8-4.7-10.6-10.6-10.6L196.3,65.5z"/>
<path class="st1" d="M375,76h-81.6c-10.8,0-19.5-8.7-19.5-19.5v-0.4h120.6v0.4C394.5,67.3,385.8,76,375,76z"/>
<path class="st1" d="M375.3,293h-81.6c-10.8,0-19.5-8.7-19.5-19.5v-0.4h120.6v0.4C394.8,284.3,386.1,293,375.3,293z"/>
<path class="st2" d="M123.8,390.5l-60.4-60.4c-1.5-1.5-1.5-3.8,0-5.3c0,0,0,0,0,0l42.2-42.2c1.5-1.5,3.8-1.5,5.3,0l60.4,60.4
	c1.5,1.4,1.5,3.8,0.1,5.3c0,0,0,0-0.1,0l-42.2,42.2C127.7,392,125.3,392,123.8,390.5z"/>
<path class="st1" d="M126.5,392.6c-1.3,0-2.5-0.5-3.4-1.4l-60.4-60.4c-1.9-1.9-1.9-4.9,0-6.7L105,282c1.9-1.9,4.9-1.9,6.7,0
	l60.4,60.4c1.9,1.9,1.9,4.9,0,6.7l-42.2,42.2C129,392.1,127.7,392.6,126.5,392.6z M108.3,282.6c-0.7,0-1.4,0.3-1.9,0.8l-42.2,42.2
	c-1.1,1.1-1.1,2.8,0,3.9l60.4,60.4c1.1,1,2.8,1,3.9,0l42.2-42.2c1.1-1.1,1.1-2.8,0-3.9l-60.4-60.4
	C109.8,282.9,109.1,282.6,108.3,282.6z"/>
</svg>
