<svg width="15" height="15" viewBox="0 0 15 15" fill="none" xmlns="http://www.w3.org/2000/svg">
<path d="M3.74996 0C3.45408 0 3.21423 0.239847 3.21423 0.535724V1.60714H4.28565V0.535724C4.28565 0.239847 4.0458 0 3.74996 0Z" fill="#575757"/>
<path d="M11.25 0C10.9541 0 10.7142 0.239847 10.7142 0.535724V1.60714H11.7857V0.535724C11.7857 0.239847 11.5458 0 11.25 0Z" fill="#575757"/>
<path d="M13.3929 1.60715H11.7857V3.75001C11.7857 4.04589 11.5459 4.28574 11.25 4.28574C10.9541 4.28574 10.7143 4.04589 10.7143 3.75001V1.60715H4.2857V3.75001C4.2857 4.04589 4.04585 4.28574 3.74998 4.28574C3.4541 4.28574 3.21425 4.04589 3.21425 3.75001V1.60715H1.60714C0.719541 1.60715 0 2.32669 0 3.21429V13.3929C0 14.2805 0.719541 15 1.60714 15H13.3929C14.2805 15 15 14.2805 15 13.3929V3.21429C15 2.32669 14.2805 1.60715 13.3929 1.60715ZM13.9286 13.3929C13.9286 13.6887 13.6887 13.9286 13.3928 13.9286H1.60714C1.31126 13.9286 1.07142 13.6887 1.07142 13.3929V6.42857H13.9286V13.3929Z" fill="#575757"/>
<path d="M11.0933 7.65721C10.8841 7.44787 10.5449 7.44778 10.3355 7.65693L6.42857 11.5639L4.66445 9.79979C4.45512 9.59062 4.11586 9.59074 3.90668 9.80008C3.6975 10.0094 3.69763 10.3487 3.90696 10.5579L6.04983 12.7007C6.25904 12.9099 6.59814 12.9099 6.80732 12.7007L11.0931 8.41498C11.3024 8.2058 11.3025 7.86655 11.0933 7.65721Z" fill="#575757"/>
</svg>
