<svg width="13" height="15" viewBox="0 0 13 15" fill="none" xmlns="http://www.w3.org/2000/svg">
<path d="M11.6579 15H1.34207C0.600158 15 0 14.4087 0 13.6802V13.1474C0 10.1257 2.49094 7.67731 5.56261 7.67731H7.43739C10.5102 7.67731 13 10.1268 13 13.1474V13.6802C13.0011 14.4098 12.3998 15 11.6579 15Z" fill="#575757"/>
<path d="M10.8417 6.38568C10.2896 6.05181 9.32705 5.1806 9.3945 3.1785C9.40593 3.0762 9.41165 2.97166 9.41165 2.86599C9.66657 -0.200678 6.50002 0.00279255 6.50002 0.00279255C6.50002 0.00279255 3.33347 -0.200678 3.5884 2.86599C3.5884 2.97166 3.59411 3.0762 3.60554 3.1785C3.67299 5.1806 2.71159 6.05294 2.15831 6.38568C2.01312 6.47337 2.03484 6.68471 2.19489 6.73979C2.93451 6.99385 4.53836 7.27713 5.90329 5.66848C6.09534 5.70783 6.29425 5.72806 6.49888 5.72806C6.7035 5.72806 6.90241 5.7067 7.09446 5.66848C8.46054 7.27713 10.0644 6.99385 10.8029 6.73979C10.9652 6.68471 10.9858 6.47337 10.8417 6.38568Z" fill="#575757"/>
</svg>
