<svg width="19" height="19" viewBox="0 0 19 19" fill="none" xmlns="http://www.w3.org/2000/svg">
<path d="M9.3564 0.38V18.62C9.3564 18.829 9.17927 19 8.96278 19C8.74628 19 8.56915 18.829 8.56915 18.62V0.38C8.56915 0.171 8.74628 0 8.96278 0C9.17927 0 9.3564 0.171 9.3564 0.38Z" fill="#575757"/>
<path d="M0.716431 2.5954C0.716431 1.1628 1.92092 0 3.40094 0C4.88489 0 6.08938 1.1628 6.08938 2.5954C6.08938 4.0242 4.88489 5.187 3.40094 5.187C1.92092 5.187 0.716431 4.0242 0.716431 2.5954Z" fill="#575757"/>
<path d="M11.8362 2.5954C11.8362 1.1628 13.0407 0 14.5207 0C16.0047 0 17.2092 1.1628 17.2092 2.5954C17.2092 4.0242 16.0047 5.187 14.5207 5.187C13.0407 5.187 11.8362 4.0242 11.8362 2.5954Z" fill="#575757"/>
<path d="M6.80574 7.0072V12.4222C6.80574 13.015 6.39637 13.5166 5.83742 13.68V17.6852C5.83742 18.411 5.22731 19 4.47549 19H2.33025C1.57843 19 0.968312 18.411 0.968312 17.6852V13.68C0.409368 13.5166 0 13.015 0 12.4222V7.0072C0 6.2814 0.614051 5.6924 1.36193 5.6924H5.4438C6.19168 5.6924 6.80574 6.2814 6.80574 7.0072Z" fill="#575757"/>
<path d="M18.9923 13.281C19.0159 13.395 18.9844 13.509 18.9096 13.5964C18.8348 13.6838 18.7246 13.737 18.6065 13.737H16.9573V18.0614C16.9573 18.5782 16.5203 19 15.985 19H13.0604C12.5251 19 12.0882 18.5782 12.0882 18.0614V13.737H10.4389C10.3208 13.737 10.2106 13.6838 10.1358 13.5964C10.061 13.509 10.0295 13.395 10.0531 13.281L11.4387 6.4486C11.5253 6.0116 11.9268 5.6924 12.3912 5.6924H16.6542C17.1186 5.6924 17.5201 6.0116 17.6067 6.4524L18.9923 13.281Z" fill="#575757"/>
</svg>
