<svg width="13" height="13" viewBox="0 0 13 13" fill="none" xmlns="http://www.w3.org/2000/svg">
<path d="M8.89494 0.945396C8.28683 0.335735 7.43748 0 6.5 0C5.55753 0 4.70536 0.333703 4.10007 0.939593C3.48821 1.55216 3.19009 2.38467 3.26009 3.28364C3.39884 5.0572 4.85223 6.49996 6.5 6.49996C8.14777 6.49996 9.59867 5.05749 9.7396 3.28422C9.81054 2.39338 9.51054 1.5626 8.89494 0.945396Z" fill="#575757"/>
<path d="M11.9998 12.9999H1.00015C0.856175 13.0017 0.713592 12.9736 0.582776 12.9177C0.45196 12.8618 0.336202 12.7796 0.243922 12.677C0.0408026 12.4515 -0.0410701 12.1436 0.0195532 11.8323C0.283296 10.4736 1.1064 9.33238 2.40011 8.5312C3.54946 7.81998 5.00535 7.42853 6.5 7.42853C7.99465 7.42853 9.45054 7.82027 10.5999 8.5312C11.8936 9.33209 12.7167 10.4734 12.9804 11.832C13.0411 12.1433 12.9592 12.4512 12.7561 12.6767C12.6638 12.7794 12.5481 12.8617 12.4173 12.9176C12.2864 12.9735 12.1438 13.0016 11.9998 12.9999Z" fill="#575757"/>
</svg>
