<svg width="22" height="22" viewBox="0 0 22 22" fill="none" xmlns="http://www.w3.org/2000/svg">
<circle cx="11" cy="11" r="11" fill="#C2ACC8"/>
<path fill-rule="evenodd" clip-rule="evenodd" d="M7.55672 4.55195C7.54214 4.55205 7.52757 4.55289 7.51306 4.55446C7.40682 4.56656 7.3089 4.61779 7.23841 4.69815C7.16793 4.77851 7.12995 4.88223 7.13188 4.98907V5.41696H5.8439C5.13688 5.41696 4.55173 6.00169 4.55173 6.70818V7.99605H17.4483V6.70818C17.4483 6.00169 16.8673 5.41696 16.1603 5.41696H14.8715V4.98907C14.8726 4.9279 14.8606 4.8672 14.8363 4.81103C14.8121 4.75486 14.7761 4.70452 14.7308 4.66337C14.6855 4.62223 14.6319 4.59122 14.5736 4.57244C14.5153 4.55366 14.4537 4.54753 14.3929 4.55446C14.2867 4.56656 14.1887 4.61779 14.1183 4.69815C14.0478 4.77851 14.0098 4.88223 14.0117 4.98907V5.41696H11.4316V4.98907C11.4327 4.9279 11.4207 4.8672 11.3964 4.81103C11.3722 4.75486 11.3362 4.70452 11.2909 4.66337C11.2455 4.62223 11.192 4.59122 11.1337 4.57244C11.0754 4.55366 11.0138 4.54753 10.953 4.55446C10.8467 4.56656 10.7488 4.61779 10.6783 4.69815C10.6079 4.77851 10.5699 4.88223 10.5718 4.98907V5.41696H7.99165V4.98907C7.99266 4.9316 7.98212 4.87451 7.96065 4.82119C7.93918 4.76786 7.90722 4.71939 7.86667 4.67863C7.82611 4.63787 7.77778 4.60565 7.72455 4.58389C7.67131 4.56213 7.61424 4.55127 7.55672 4.55195ZM4.55173 8.85519V16.1579C4.55173 16.8644 5.13688 17.4482 5.8439 17.4482H16.1603C16.8673 17.4482 17.4483 16.8644 17.4483 16.1579V8.85519H4.55173ZM6.66085 10.1447C6.67513 10.1443 6.68942 10.1446 6.70367 10.1456H8.42321C8.53664 10.146 8.64529 10.1913 8.7255 10.2714C8.8057 10.3515 8.85096 10.4601 8.85142 10.5735V12.2917C8.85096 12.4051 8.8057 12.5137 8.7255 12.5938C8.64529 12.674 8.53664 12.7192 8.42321 12.7196H6.70367C6.58966 12.7201 6.48015 12.6752 6.39922 12.595C6.31828 12.5147 6.27256 12.4057 6.27211 12.2917V10.5735C6.272 10.4669 6.31156 10.364 6.38309 10.285C6.45463 10.2059 6.55303 10.1562 6.65917 10.1456C6.65973 10.1453 6.66029 10.145 6.66085 10.1447ZM10.1008 10.1447C10.115 10.1443 10.1293 10.1446 10.1436 10.1456H11.8598C11.9163 10.1452 11.9723 10.1561 12.0247 10.1774C12.077 10.1987 12.1246 10.2302 12.1648 10.2699C12.2049 10.3097 12.2369 10.3569 12.2587 10.409C12.2806 10.4611 12.292 10.517 12.2922 10.5735V12.2917C12.292 12.3482 12.2806 12.4041 12.2587 12.4562C12.2369 12.5083 12.2049 12.5555 12.1648 12.5953C12.1246 12.635 12.077 12.6665 12.0247 12.6878C11.9723 12.7091 11.9163 12.72 11.8598 12.7196H10.1436C10.0296 12.7201 9.92007 12.6752 9.83914 12.595C9.7582 12.5147 9.71248 12.4057 9.71203 12.2917V10.5735C9.71192 10.4669 9.75148 10.364 9.82301 10.285C9.89455 10.2059 9.99295 10.1562 10.0991 10.1456C10.0997 10.1453 10.1002 10.145 10.1008 10.1447ZM13.539 10.1456C13.5527 10.1449 13.5664 10.1449 13.5802 10.1456H15.2997C15.3562 10.1452 15.4122 10.1561 15.4646 10.1774C15.5169 10.1987 15.5645 10.2302 15.6047 10.2699C15.6449 10.3097 15.6768 10.3569 15.6986 10.409C15.7205 10.4611 15.7319 10.517 15.7321 10.5735V12.2917C15.7319 12.3482 15.7205 12.4041 15.6986 12.4562C15.6768 12.5083 15.6449 12.5555 15.6047 12.5953C15.5645 12.635 15.5169 12.6665 15.4646 12.6878C15.4122 12.7091 15.3562 12.72 15.2997 12.7196H13.5802C13.4667 12.7192 13.3581 12.674 13.2779 12.5938C13.1977 12.5137 13.1524 12.4051 13.1519 12.2917V10.5735C13.1518 10.4669 13.1914 10.364 13.2629 10.285C13.3345 10.2059 13.4329 10.1562 13.539 10.1456ZM7.13188 11.0047V11.8605H7.99165V11.0047H7.13188ZM10.5718 11.0047V11.8605H11.4316V11.0047H10.5718ZM14.0117 11.0047V11.8605H14.8715V11.0047H14.0117ZM6.70367 13.5796H8.42321C8.53722 13.5801 8.64638 13.6258 8.72668 13.7066C8.80698 13.7875 8.85185 13.8969 8.85142 14.0109V15.7291C8.85119 15.8426 8.80602 15.9514 8.72579 16.0317C8.64556 16.1121 8.53678 16.1574 8.42321 16.1579H6.70367C6.64715 16.1581 6.59114 16.1472 6.53885 16.1257C6.48655 16.1043 6.439 16.0727 6.39892 16.0329C6.35884 15.9931 6.327 15.9458 6.30524 15.8936C6.28348 15.8415 6.27222 15.7856 6.27211 15.7291V14.0109C6.27189 13.9542 6.28291 13.898 6.30452 13.8456C6.32613 13.7932 6.35791 13.7455 6.39803 13.7054C6.43814 13.6653 6.48581 13.6336 6.53826 13.612C6.59072 13.5904 6.64694 13.5794 6.70367 13.5796ZM10.1436 13.5796H11.8598C11.9166 13.5793 11.9729 13.5902 12.0254 13.6118C12.078 13.6333 12.1258 13.665 12.166 13.7051C12.2062 13.7452 12.238 13.7929 12.2597 13.8454C12.2814 13.8978 12.2924 13.9541 12.2922 14.0109V15.7291C12.2921 15.7857 12.2808 15.8417 12.259 15.8938C12.2371 15.946 12.2052 15.9934 12.1651 16.0332C12.1249 16.0731 12.0772 16.1046 12.0249 16.126C11.9725 16.1473 11.9164 16.1582 11.8598 16.1579H10.1436C10.0871 16.1581 10.0311 16.1472 9.97877 16.1257C9.92647 16.1043 9.87892 16.0727 9.83884 16.0329C9.79876 15.9931 9.76692 15.9458 9.74516 15.8936C9.7234 15.8415 9.71214 15.7856 9.71203 15.7291V14.0109C9.71181 13.9542 9.72283 13.898 9.74444 13.8456C9.76605 13.7932 9.79783 13.7455 9.83795 13.7054C9.87806 13.6653 9.92573 13.6336 9.97818 13.612C10.0306 13.5904 10.0869 13.5794 10.1436 13.5796ZM13.5802 13.5796H15.2997C15.3565 13.5793 15.4128 13.5902 15.4654 13.6118C15.5179 13.6333 15.5657 13.665 15.6059 13.7051C15.6461 13.7452 15.6779 13.7929 15.6996 13.8454C15.7213 13.8978 15.7323 13.9541 15.7321 14.0109V15.7291C15.732 15.7857 15.7207 15.8417 15.6989 15.8938C15.6771 15.946 15.6452 15.9934 15.605 16.0332C15.5648 16.0731 15.5172 16.1046 15.4648 16.126C15.4124 16.1473 15.3563 16.1582 15.2997 16.1579H13.5802C13.4666 16.1574 13.3578 16.1121 13.2776 16.0317C13.1973 15.9514 13.1522 15.8426 13.1519 15.7291V14.0109C13.1515 13.8969 13.1964 13.7875 13.2767 13.7066C13.357 13.6258 13.4661 13.5801 13.5802 13.5796ZM7.13188 14.4387V15.2979H7.99165V14.4387H7.13188ZM10.5718 14.4387V15.2979H11.4316V14.4387H10.5718ZM14.0117 14.4387V15.2979H14.8715V14.4387H14.0117Z" fill="#5F3787"/>
</svg>
