<svg width="22" height="22" viewBox="0 0 22 22" fill="none" xmlns="http://www.w3.org/2000/svg">
<circle cx="11" cy="11" r="11" fill="#C2ACC8"/>
<path d="M13.9803 5.31036H8.01969C7.36164 5.31036 6.82758 5.85414 6.82758 6.52416V16.2345C6.82758 16.9045 7.36164 17.4483 8.01969 17.4483H13.9803C14.6383 17.4483 15.1724 16.9045 15.1724 16.2345V6.52416C15.1724 5.85414 14.6352 5.31036 13.9803 5.31036ZM10.9984 16.2345C10.6678 16.2345 10.4008 15.9626 10.4008 15.626C10.4008 15.2894 10.6678 15.0175 10.9984 15.0175C11.329 15.0175 11.596 15.2894 11.596 15.626C11.5929 15.9626 11.329 16.2345 10.9984 16.2345ZM13.9803 13.8069H8.01969V6.52416H13.9803V13.8069Z" fill="#5F3787"/>
</svg>
