<svg width="48" height="48" viewBox="0 0 48 48" fill="none" xmlns="http://www.w3.org/2000/svg">
<path d="M23.986 47.8784C37.1917 47.8784 47.897 37.173 47.897 23.9673C47.897 10.7616 37.1917 0.0562439 23.986 0.0562439C10.7802 0.0562439 0.0748825 10.7616 0.0748825 23.9673C0.0748825 37.173 10.7802 47.8784 23.986 47.8784Z" fill="#71D0FF"/>
<path d="M28.0336 0.730957L11.6182 8.07664L28.0336 15.4973L44.524 8.07664L28.0336 0.730957Z" fill="#E1E6E9"/>
<path d="M28.0336 16.2468C27.9586 16.2468 27.8088 16.2468 27.7338 16.1718L11.3184 8.82615C11.0185 8.67619 10.8686 8.45135 10.8686 8.15153C10.8686 7.8517 11.0185 7.55188 11.3184 7.4769L27.7338 0.0562348C27.9586 -0.0187449 28.1836 -0.0187449 28.3334 0.0562348L44.7489 7.40192C45.0487 7.55188 45.1986 7.77672 45.1986 8.07655C45.1986 8.37637 45.0487 8.67619 44.7489 8.75117L28.3334 16.0969C28.2585 16.1719 28.1836 16.2468 28.0336 16.2468ZM13.4172 8.07664L28.0337 14.5978L42.6502 8.07664L28.0336 1.55544L13.4172 8.07664Z" fill="#193651"/>
<path d="M37.778 16.8465V9.50078C31.7065 6.7274 24.3608 6.7274 18.2893 9.50078V16.8465H37.778Z" fill="white"/>
<path d="M37.778 17.5961H18.2893C17.8396 17.5961 17.5397 17.2962 17.5397 16.8465V9.50076C17.5397 9.20094 17.6897 8.9761 17.9895 8.82614C21.0627 7.40201 24.5857 6.6524 28.0337 6.6524C31.5567 6.6524 35.0046 7.40201 38.0779 8.82614C38.3777 8.9761 38.5277 9.20094 38.5277 9.50076V16.8465C38.5277 17.0713 38.4527 17.2213 38.3028 17.3711C38.1528 17.5211 38.0028 17.5961 37.778 17.5961ZM19.0388 16.0969H37.0284V10.0255C31.4816 7.62695 24.5856 7.62695 19.0388 10.0255V16.0969Z" fill="#193651"/>
<path d="M14.3916 15.4223C13.9418 15.4223 13.642 15.1225 13.642 14.6727V9.35089C13.642 8.90111 13.9418 8.60129 14.3916 8.60129C14.8413 8.60129 15.1412 8.90111 15.1412 9.35089V14.6728C15.1412 15.0475 14.7664 15.4223 14.3916 15.4223Z" fill="#193651"/>
<path d="M33.2805 21.9435C33.2805 24.7169 35.4543 26.9656 38.2276 26.9656H5.69671C2.92333 26.9656 0.749596 24.7169 0.749596 21.9435C0.749596 19.1702 2.92333 16.9214 5.69671 16.9214H38.2277C35.5292 16.8465 33.2805 19.0952 33.2805 21.9435Z" fill="#E1E6E9"/>
<path d="M38.2276 26.216C35.904 26.216 34.0301 24.2671 34.0301 21.9435C34.0301 19.545 35.904 17.6711 38.2276 17.6711C38.6774 17.6711 38.9772 17.3712 38.9772 16.9215C38.9772 16.4717 38.6774 16.1719 38.2276 16.1719H5.69671C2.54854 16.097 0 18.7204 0 21.9435C0 25.0917 2.54854 27.7151 5.69671 27.7151H38.2277C38.6775 27.7151 38.9773 27.4153 38.9773 26.9655C38.9772 26.5908 38.6774 26.216 38.2276 26.216ZM5.69671 26.216C3.37312 26.216 1.49921 24.2671 1.49921 21.9435C1.49921 19.545 3.37312 17.6711 5.69671 17.6711H34.4799C33.3556 18.7205 32.606 20.2946 32.606 21.9435C32.606 23.5925 33.3556 25.1667 34.4799 26.216H5.69671Z" fill="#193651"/>
<path d="M5.69671 24.8669C4.42244 24.8669 3.37312 23.5926 3.37312 21.9435C3.37312 20.3694 4.42254 19.0202 5.69671 19.0202H31.1069C30.8821 19.9197 30.7321 20.8941 30.7321 21.9435C30.7321 22.993 30.8821 23.9673 31.1069 24.8669H5.69671Z" fill="white"/>
<path d="M33.2805 22.6931H7.94533C7.49555 22.6931 7.19572 22.3933 7.19572 21.9435C7.19572 21.4938 7.49555 21.1939 7.94533 21.1939H33.2805C33.7303 21.1939 34.0301 21.4938 34.0301 21.9435C34.0301 22.3183 33.7303 22.6931 33.2805 22.6931Z" fill="#193651"/>
<path d="M37.778 32.0626C37.778 29.2892 39.9517 27.0405 42.7251 27.0405H5.69671C2.92333 26.9655 0.749596 29.2143 0.749596 32.0626C0.749596 34.836 2.92333 37.0847 5.69671 37.0847H42.7251C40.0267 37.0847 37.778 34.836 37.778 32.0626Z" fill="#F16051"/>
<path d="M42.7251 37.8343H5.69672C2.54854 37.8343 0 35.2108 0 32.0626C0 28.9144 2.54854 26.216 5.69672 26.216H42.7251C43.1749 26.216 43.4747 26.5159 43.4747 26.9656C43.4747 27.4154 43.1749 27.7152 42.7251 27.7152C40.4015 27.7152 38.5276 29.6641 38.5276 31.9877C38.5276 34.3863 40.4015 36.2602 42.7251 36.2602C43.1749 36.2602 43.4747 36.56 43.4747 37.0098C43.4746 37.5345 43.1748 37.8343 42.7251 37.8343ZM5.69672 27.7151C3.37312 27.7151 1.49921 29.664 1.49921 32.0626C1.49921 34.4612 3.37312 36.3351 5.69672 36.3351H38.9773C37.8529 35.2858 37.1033 33.7117 37.1033 32.0626C37.1033 30.3387 37.8529 28.8395 38.9773 27.7901H5.69672V27.7151Z" fill="#193651"/>
<path d="M5.69671 34.9859C4.42244 34.9859 3.37312 33.7117 3.37312 32.0626C3.37312 30.4885 4.42254 29.1393 5.69671 29.1393H35.6042C35.3794 30.0387 35.2294 31.0132 35.2294 32.0626C35.2294 33.112 35.3794 34.0864 35.6042 34.9859H5.69671Z" fill="white"/>
<path d="M37.778 32.8122H7.94533C7.49555 32.8122 7.19572 32.5124 7.19572 32.0626C7.19572 31.6128 7.49555 31.313 7.94533 31.313H37.778C38.2277 31.313 38.5276 31.6128 38.5276 32.0626C38.5275 32.4374 38.2276 32.8122 37.778 32.8122Z" fill="#193651"/>
<path d="M42.2753 42.1818C42.2753 44.9551 44.449 47.2038 47.2224 47.2038H5.69671C2.92333 47.2038 0.749596 44.9551 0.749596 42.1818C0.749596 39.4084 2.92333 37.1597 5.69671 37.1597H47.2225C44.524 37.0847 42.2753 39.3334 42.2753 42.1818Z" fill="#FDBF5E"/>
<path d="M47.2224 47.9534H5.69672C2.54854 47.9534 0 45.3298 0 42.1818C0 38.9586 2.54854 36.4102 5.69672 36.4102H47.2225C47.6723 36.4102 47.9721 36.71 47.9721 37.1598C47.9721 37.6095 47.6723 37.9094 47.2225 37.9094C44.8989 37.9094 43.025 39.8583 43.025 42.1819C43.025 44.5804 44.8989 46.4543 47.2225 46.4543C47.6723 46.4543 47.9721 46.7542 47.9721 47.2039C47.9721 47.6537 47.6722 47.9534 47.2224 47.9534ZM5.69672 37.8343C3.37312 37.8343 1.49921 39.7832 1.49921 42.1068C1.49921 44.5054 3.37312 46.4542 5.69672 46.4542H43.3997C42.2754 45.4048 41.5258 43.8307 41.5258 42.1818C41.5258 40.4578 42.2754 38.9586 43.3997 37.9093H5.69672V37.8343Z" fill="#193651"/>
<path d="M5.69671 45.03C4.42244 45.03 3.37312 43.7558 3.37312 42.1067C3.37312 40.5326 4.42254 39.1833 5.69671 39.1833H40.1016C39.8767 40.0828 39.7268 41.0573 39.7268 42.1067C39.7268 43.1561 39.8767 44.1305 40.1016 45.03H5.69671Z" fill="white"/>
<path d="M42.2753 42.9312H7.94533C7.49555 42.9312 7.19572 42.6314 7.19572 42.1816C7.19572 41.7319 7.49555 41.432 7.94533 41.432H42.2753C42.7251 41.432 43.0249 41.7319 43.0249 42.1816C43.0249 42.5564 42.7251 42.9312 42.2753 42.9312Z" fill="#193651"/>
<path d="M24.7356 11.7495H23.2364V13.2486H24.7356V11.7495Z" fill="#193651"/>
<path d="M28.7832 11.7495H27.2841V13.2486H28.7832V11.7495Z" fill="#193651"/>
<path d="M32.8309 11.7495H31.3317V13.2486H32.8309V11.7495Z" fill="#193651"/>
</svg>
