<svg width="24" height="24" viewBox="0 0 24 24" fill="none" xmlns="http://www.w3.org/2000/svg">
<path d="M24 10.7735V20.4C23.9989 21.3544 23.6193 22.2695 22.9444 22.9444C22.2695 23.6193 21.3544 23.999 20.4 24H18C17.0455 23.999 16.1305 23.6193 15.4556 22.9444C14.7807 22.2695 14.401 21.3544 14.4 20.4V17.9999C14.3996 17.6818 14.273 17.3768 14.0481 17.1519C13.8231 16.9269 13.5181 16.8003 13.2 16.7999H10.8C10.4819 16.8003 10.1769 16.9269 9.95193 17.1519C9.72698 17.3768 9.60042 17.6818 9.6 17.9999V20.4C9.59896 21.3544 9.21934 22.2695 8.54444 22.9444C7.86953 23.6193 6.95447 23.999 6.00001 24H3.60001C2.64555 23.999 1.73049 23.6193 1.05558 22.9444C0.380678 22.2695 0.00105919 21.3544 1.73548e-05 20.4V10.7735C-0.00169072 10.2251 0.122706 9.68362 0.363594 9.19096C0.604482 8.69831 0.955413 8.26763 1.38927 7.93221L11.2635 0.252247C11.4742 0.0887433 11.7333 0 12 0C12.2667 0 12.5258 0.0887433 12.7365 0.252247L22.6101 7.93162C23.0441 8.26708 23.3952 8.69783 23.6362 9.19059C23.8772 9.68335 24.0016 10.2249 24 10.7735Z" fill="white"/>
</svg>
