<svg width="30" height="25" viewBox="0 0 30 25" fill="none" xmlns="http://www.w3.org/2000/svg">
<path d="M27.0418 0H2.95804C1.32516 0.00182186 0.00188259 1.3251 0 2.95798V16.2312C0.00182186 17.864 1.3251 19.1874 2.95804 19.1892H10.0714L10.07 24.1026C10.0699 24.4261 10.3322 24.6886 10.6558 24.6887C10.7668 24.6887 10.8756 24.6571 10.9694 24.5978L19.5135 19.1891H27.0415C28.6746 19.1875 29.9981 17.8642 30 16.2312V2.95798C29.9981 1.32504 28.6748 0.00182186 27.0418 0ZM28.8282 16.2312C28.827 17.2172 28.028 18.0162 27.042 18.0173H19.3439C19.2329 18.0173 19.1242 18.0488 19.0304 18.1082L11.2425 23.0382L11.2437 18.6034C11.2437 18.2798 10.9813 18.0175 10.6578 18.0175H2.95804C1.97192 18.0163 1.17291 17.2172 1.17188 16.2312V2.95798C1.17304 1.97198 1.97204 1.17298 2.95804 1.17188H27.0418C28.0278 1.17298 28.8269 1.97192 28.8281 2.95798V16.2312H28.8282Z" fill="white"/>
<path d="M24.6778 13.2558H5.32218C4.99862 13.2558 4.73627 13.5182 4.73627 13.8417C4.73627 14.1653 4.99862 14.4277 5.32218 14.4277H24.6779C25.0014 14.4277 25.2638 14.1653 25.2638 13.8417C25.2637 13.5182 25.0014 13.2558 24.6778 13.2558Z" fill="white"/>
<path d="M5.32218 5.93339H15.2467C15.5703 5.93339 15.8326 5.67104 15.8326 5.34748C15.8326 5.02391 15.5703 4.76157 15.2467 4.76157H5.32218C4.99862 4.76157 4.73627 5.02391 4.73627 5.34748C4.73627 5.6711 4.99855 5.93339 5.32218 5.93339Z" fill="white"/>
<path d="M24.6778 9.0087H5.32218C4.99862 9.0087 4.73627 9.27105 4.73627 9.59461C4.73627 9.91817 4.99862 10.1805 5.32218 10.1805H24.6779C25.0014 10.1805 25.2638 9.91817 25.2638 9.59461C25.2638 9.27105 25.0014 9.0087 24.6778 9.0087Z" fill="white"/>
</svg>
