<svg width="29" height="38" viewBox="0 0 29 38" fill="none" xmlns="http://www.w3.org/2000/svg">
<path d="M21.3235 9.04762C20.8711 9.04762 20.4372 8.85697 20.1173 8.51762C19.7974 8.17827 19.6176 7.71801 19.6176 7.2381V0H1.70588C1.25345 0 0.819556 0.190646 0.499641 0.529997C0.179726 0.869349 0 1.32961 0 1.80952V36.1905C0 36.6704 0.179726 37.1307 0.499641 37.47C0.819556 37.8094 1.25345 38 1.70588 38H27.2941C27.7465 38 28.1804 37.8094 28.5004 37.47C28.8203 37.1307 29 36.6704 29 36.1905V9.04762H21.3235ZM5.97059 8.14286H13.6471C13.8733 8.14286 14.0902 8.23818 14.2502 8.40786C14.4101 8.57753 14.5 8.80766 14.5 9.04762C14.5 9.28758 14.4101 9.51771 14.2502 9.68738C14.0902 9.85706 13.8733 9.95238 13.6471 9.95238H5.97059C5.74437 9.95238 5.52743 9.85706 5.36747 9.68738C5.20751 9.51771 5.11765 9.28758 5.11765 9.04762C5.11765 8.80766 5.20751 8.57753 5.36747 8.40786C5.52743 8.23818 5.74437 8.14286 5.97059 8.14286ZM23.0294 31.6667H5.97059C5.74437 31.6667 5.52743 31.5713 5.36747 31.4017C5.20751 31.232 5.11765 31.0019 5.11765 30.7619C5.11765 30.5219 5.20751 30.2918 5.36747 30.1221C5.52743 29.9525 5.74437 29.8571 5.97059 29.8571H23.0294C23.2556 29.8571 23.4726 29.9525 23.6325 30.1221C23.7925 30.2918 23.8824 30.5219 23.8824 30.7619C23.8824 31.0019 23.7925 31.232 23.6325 31.4017C23.4726 31.5713 23.2556 31.6667 23.0294 31.6667ZM23.0294 26.2381H5.97059C5.74437 26.2381 5.52743 26.1428 5.36747 25.9731C5.20751 25.8034 5.11765 25.5733 5.11765 25.3333C5.11765 25.0934 5.20751 24.8632 5.36747 24.6936C5.52743 24.5239 5.74437 24.4286 5.97059 24.4286H23.0294C23.2556 24.4286 23.4726 24.5239 23.6325 24.6936C23.7925 24.8632 23.8824 25.0934 23.8824 25.3333C23.8824 25.5733 23.7925 25.8034 23.6325 25.9731C23.4726 26.1428 23.2556 26.2381 23.0294 26.2381ZM23.0294 20.8095H5.97059C5.74437 20.8095 5.52743 20.7142 5.36747 20.5445C5.20751 20.3748 5.11765 20.1447 5.11765 19.9048C5.11765 19.6648 5.20751 19.4347 5.36747 19.265C5.52743 19.0953 5.74437 19 5.97059 19H23.0294C23.2556 19 23.4726 19.0953 23.6325 19.265C23.7925 19.4347 23.8824 19.6648 23.8824 19.9048C23.8824 20.1447 23.7925 20.3748 23.6325 20.5445C23.4726 20.7142 23.2556 20.8095 23.0294 20.8095ZM23.0294 15.381H5.97059C5.74437 15.381 5.52743 15.2856 5.36747 15.116C5.20751 14.9463 5.11765 14.7161 5.11765 14.4762C5.11765 14.2362 5.20751 14.0061 5.36747 13.8364C5.52743 13.6668 5.74437 13.5714 5.97059 13.5714H23.0294C23.2556 13.5714 23.4726 13.6668 23.6325 13.8364C23.7925 14.0061 23.8824 14.2362 23.8824 14.4762C23.8824 14.7161 23.7925 14.9463 23.6325 15.116C23.4726 15.2856 23.2556 15.381 23.0294 15.381Z" fill="white"/>
</svg>
