<svg width="44" height="40" viewBox="0 0 44 40" fill="none" xmlns="http://www.w3.org/2000/svg">
<path fill-rule="evenodd" clip-rule="evenodd" d="M30.4492 39H6.74219C5.18359 39 3.87109 37.684 3.87109 36.1212V34.5584C3.87109 34.2294 4.11719 33.9827 4.44531 33.9827C4.77344 33.9827 5.01953 34.2294 5.01953 34.5584V36.1212C5.01953 37.1082 5.75781 37.8485 6.74219 37.8485H30.4492C31.4336 37.8485 32.1719 37.1082 32.1719 36.1212V3.87879C32.1719 2.89177 31.4336 2.15152 30.4492 2.15152H6.74219C5.83984 2.15152 5.01953 2.97403 5.01953 3.87879V5.52381C5.01953 5.85281 4.77344 6.09957 4.44531 6.09957C4.11719 6.09957 3.87109 5.85281 3.87109 5.52381V3.87879C3.87109 2.31602 5.18359 1 6.74219 1H30.4492C32.0078 1 33.3203 2.31602 33.3203 3.87879V36.1212C33.3203 37.7662 32.0898 39 30.4492 39ZM4.44531 32.5844C4.11719 32.5844 3.87109 32.3377 3.87109 32.0087V27.8961C3.87109 27.5671 4.11719 27.3203 4.44531 27.3203C4.77344 27.3203 5.01953 27.5671 5.01953 27.8961V32.0087C5.01953 32.3377 4.77344 32.5844 4.44531 32.5844ZM4.44531 25.9221C4.11719 25.9221 3.87109 25.6753 3.87109 25.3463V21.2338C3.87109 20.9048 4.11719 20.658 4.44531 20.658C4.77344 20.658 5.01953 20.9048 5.01953 21.2338V25.3463C5.01953 25.6753 4.77344 25.9221 4.44531 25.9221ZM4.44531 19.342C4.11719 19.342 3.87109 19.0952 3.87109 18.7662V14.6537C3.87109 14.3247 4.11719 14.0779 4.44531 14.0779C4.77344 14.0779 5.01953 14.3247 5.01953 14.6537V18.7662C5.01953 19.0952 4.77344 19.342 4.44531 19.342ZM4.44531 12.6797C4.11719 12.6797 3.87109 12.4329 3.87109 12.1039V7.99134C3.87109 7.66234 4.11719 7.41558 4.44531 7.41558C4.77344 7.41558 5.01953 7.66234 5.01953 7.99134V12.1039C5.01953 12.4329 4.77344 12.6797 4.44531 12.6797Z" fill="white" stroke="white" stroke-width="0.5"/>
<path fill-rule="evenodd" clip-rule="evenodd" d="M42.4258 33.0779H35.8633C35.5352 33.0779 35.2891 32.8312 35.2891 32.5022C35.2891 32.1732 35.5352 31.9264 35.8633 31.9264H42.4258C42.7539 31.9264 43 32.1732 43 32.5022C43 32.8312 42.7539 33.0779 42.4258 33.0779Z" fill="white" stroke="white" stroke-width="0.5"/>
<path fill-rule="evenodd" clip-rule="evenodd" d="M38.9805 39C38.7344 39 38.5703 38.8355 38.4883 38.671L35.3711 32.7489C35.2891 32.6667 35.2891 32.5844 35.2891 32.5022V6.09957C35.2891 5.77056 35.5352 5.52381 35.8633 5.52381C36.1914 5.52381 36.4375 5.77056 36.4375 6.09957V32.3377L38.9805 37.2727L41.8516 32.3377V6.09957C41.8516 5.77056 42.0977 5.52381 42.4258 5.52381C42.7539 5.52381 43 5.77056 43 6.09957V32.5022C43 32.5844 43 32.7489 42.918 32.7489L39.4727 38.671C39.3906 38.9177 39.1445 39 38.9805 39Z" fill="white" stroke="white" stroke-width="0.5"/>
<path fill-rule="evenodd" clip-rule="evenodd" d="M42.4258 6.67532H35.8633C35.5352 6.67532 35.2891 6.42857 35.2891 6.09957V4.8658C35.2891 2.72727 37.0117 1 39.1445 1C41.2773 1 43 2.72727 43 4.8658V6.09957C43 6.42857 42.7539 6.67532 42.4258 6.67532ZM36.4375 5.52381H41.8516V4.8658C41.8516 3.38528 40.6211 2.15152 39.1445 2.15152C37.668 2.15152 36.4375 3.38528 36.4375 4.8658V5.52381Z" fill="white" stroke="white" stroke-width="0.5"/>
<path fill-rule="evenodd" clip-rule="evenodd" d="M28.8086 6.42857H16.0117C15.6836 6.42857 15.4375 6.18182 15.4375 5.85281C15.4375 5.52381 15.6836 5.27706 16.0117 5.27706H28.8086C29.1367 5.27706 29.3828 5.52381 29.3828 5.85281C29.3828 6.18182 29.1367 6.42857 28.8086 6.42857Z" fill="white" stroke="white" stroke-width="0.5"/>
<path fill-rule="evenodd" clip-rule="evenodd" d="M28.8086 12.1039H16.0117C15.6836 12.1039 15.4375 11.8571 15.4375 11.5281C15.4375 11.1991 15.6836 10.9524 16.0117 10.9524H28.8086C29.1367 10.9524 29.3828 11.1991 29.3828 11.5281C29.3828 11.8571 29.1367 12.1039 28.8086 12.1039Z" fill="white" stroke="white" stroke-width="0.5"/>
<path fill-rule="evenodd" clip-rule="evenodd" d="M28.8086 17.7792H16.0117C15.6836 17.7792 15.4375 17.5325 15.4375 17.2035C15.4375 16.8745 15.6836 16.6277 16.0117 16.6277H28.8086C29.1367 16.6277 29.3828 16.8745 29.3828 17.2035C29.3828 17.5325 29.1367 17.7792 28.8086 17.7792Z" fill="white" stroke="white" stroke-width="0.5"/>
<path fill-rule="evenodd" clip-rule="evenodd" d="M28.8086 23.3723H16.0117C15.6836 23.3723 15.4375 23.1255 15.4375 22.7965C15.4375 22.4675 15.6836 22.2208 16.0117 22.2208H28.8086C29.1367 22.2208 29.3828 22.4675 29.3828 22.7965C29.3828 23.1255 29.1367 23.3723 28.8086 23.3723Z" fill="white" stroke="white" stroke-width="0.5"/>
<path fill-rule="evenodd" clip-rule="evenodd" d="M28.8086 29.0476H16.0117C15.6836 29.0476 15.4375 28.8009 15.4375 28.4719C15.4375 28.1429 15.6836 27.8961 16.0117 27.8961H28.8086C29.1367 27.8961 29.3828 28.1429 29.3828 28.4719C29.3828 28.8009 29.1367 29.0476 28.8086 29.0476Z" fill="white" stroke="white" stroke-width="0.5"/>
<path fill-rule="evenodd" clip-rule="evenodd" d="M28.8086 34.7229H16.0117C15.6836 34.7229 15.4375 34.4762 15.4375 34.1472C15.4375 33.8182 15.6836 33.5714 16.0117 33.5714H28.8086C29.1367 33.5714 29.3828 33.8182 29.3828 34.1472C29.3828 34.4762 29.1367 34.7229 28.8086 34.7229Z" fill="white" stroke="white" stroke-width="0.5"/>
<path fill-rule="evenodd" clip-rule="evenodd" d="M12.1562 39C11.8281 39 11.582 38.7532 11.582 38.4242V1.57576C11.582 1.24675 11.8281 1 12.1562 1C12.4844 1 12.7305 1.24675 12.7305 1.57576V38.4242C12.7305 38.7532 12.4844 39 12.1562 39Z" fill="white" stroke="white" stroke-width="0.5"/>
<path fill-rule="evenodd" clip-rule="evenodd" d="M6.08594 8.5671H2.80469C1.82031 8.5671 1 7.74459 1 6.75758C1 5.77056 1.82031 4.94805 2.80469 4.94805H6.08594C7.15234 4.94805 7.97266 5.77056 7.97266 6.75758C7.97266 7.74459 7.15234 8.5671 6.08594 8.5671ZM2.80469 6.09957C2.47656 6.09957 2.14844 6.34632 2.14844 6.75758C2.14844 7.08658 2.47656 7.41558 2.80469 7.41558H6.08594C6.49609 7.41558 6.82422 7.08658 6.82422 6.75758C6.82422 6.26407 6.41406 6.09957 6.08594 6.09957H2.80469Z" fill="white" stroke="white" stroke-width="0.5"/>
<path fill-rule="evenodd" clip-rule="evenodd" d="M6.08594 15.2294H2.80469C1.82031 15.2294 1 14.4069 1 13.3377C1 12.3506 1.82031 11.5281 2.80469 11.5281H6.08594C7.15234 11.5281 7.97266 12.3506 7.97266 13.3377C7.97266 14.4069 7.15234 15.2294 6.08594 15.2294ZM2.80469 12.6797C2.47656 12.6797 2.14844 13.0087 2.14844 13.3377C2.14844 13.7489 2.47656 14.0779 2.80469 14.0779H6.08594C6.49609 14.0779 6.82422 13.7489 6.82422 13.3377C6.82422 13.0087 6.49609 12.6797 6.08594 12.6797H2.80469Z" fill="white" stroke="white" stroke-width="0.5"/>
<path fill-rule="evenodd" clip-rule="evenodd" d="M6.08594 21.8095H2.80469C1.82031 21.8095 1 20.987 1 20C1 19.013 1.82031 18.1905 2.80469 18.1905H6.08594C7.15234 18.1905 7.97266 19.013 7.97266 20C7.97266 20.987 7.15234 21.8095 6.08594 21.8095ZM2.80469 19.342C2.47656 19.342 2.14844 19.671 2.14844 20C2.14844 20.4113 2.47656 20.658 2.80469 20.658H6.08594C6.41406 20.658 6.82422 20.4935 6.82422 20C6.82422 19.671 6.49609 19.342 6.08594 19.342H2.80469Z" fill="white" stroke="white" stroke-width="0.5"/>
<path fill-rule="evenodd" clip-rule="evenodd" d="M6.08594 28.4719H2.80469C1.82031 28.4719 1 27.6494 1 26.6623C1 25.5931 1.82031 24.7706 2.80469 24.7706H6.08594C7.15234 24.7706 7.97266 25.5931 7.97266 26.6623C7.97266 27.6494 7.15234 28.4719 6.08594 28.4719ZM2.80469 25.9221C2.47656 25.9221 2.14844 26.2511 2.14844 26.6623C2.14844 26.9913 2.47656 27.3203 2.80469 27.3203H6.08594C6.49609 27.3203 6.82422 26.9913 6.82422 26.6623C6.82422 26.2511 6.49609 25.9221 6.08594 25.9221H2.80469Z" fill="white" stroke="white" stroke-width="0.5"/>
<path fill-rule="evenodd" clip-rule="evenodd" d="M6.08594 35.1342H2.80469C1.82031 35.1342 1 34.3117 1 33.2424C1 32.2554 1.82031 31.4329 2.80469 31.4329H6.08594C7.15234 31.4329 7.97266 32.2554 7.97266 33.2424C7.97266 34.3117 7.15234 35.1342 6.08594 35.1342ZM2.80469 32.5844C2.47656 32.5844 2.14844 32.9134 2.14844 33.2424C2.14844 33.6537 2.47656 33.9827 2.80469 33.9827H6.08594C6.49609 33.9827 6.82422 33.6537 6.82422 33.2424C6.82422 32.9134 6.49609 32.5844 6.08594 32.5844H2.80469Z" fill="white" stroke="white" stroke-width="0.5"/>
</svg>
