<svg width="40" height="40" viewBox="0 0 40 40" fill="none" xmlns="http://www.w3.org/2000/svg">
<path fill-rule="evenodd" clip-rule="evenodd" d="M11.1111 33.3333H6.66667C5.43889 33.3333 4.44444 34.3278 4.44444 35.5556V37.7778C4.44444 39.0056 5.43889 40 6.66667 40H33.3033C34.53 40 35.5256 39.0056 35.5256 37.7778V35.5556C35.5256 34.3278 34.53 33.3333 33.3033 33.3333H27.7778V30H36.6667C37.5511 30 38.3989 29.6489 39.0233 29.0233C39.6489 28.3989 40 27.5511 40 26.6667V3.33333C40 2.44889 39.6489 1.60111 39.0233 0.976667C38.3989 0.351111 37.5511 0 36.6667 0C29.9689 0 10.0311 0 3.33333 0C2.44889 0 1.60111 0.351111 0.976667 0.976667C0.351111 1.60111 0 2.44889 0 3.33333V26.6667C0 27.5511 0.351111 28.3989 0.976667 29.0233C1.60111 29.6489 2.44889 30 3.33333 30H11.1111V33.3333ZM33.3033 35.5556H6.66667V37.7778H33.3033V35.5556ZM25.5556 33.3333H13.3333V30H25.5556V33.3333ZM37.7778 3.33333V26.6667C37.7778 26.9611 37.6611 27.2444 37.4522 27.4522C37.2444 27.6611 36.9611 27.7778 36.6667 27.7778H3.33333C3.03889 27.7778 2.75556 27.6611 2.54778 27.4522C2.33889 27.2444 2.22222 26.9611 2.22222 26.6667V3.33333C2.22222 3.03889 2.33889 2.75556 2.54778 2.54778C2.75556 2.33889 3.03889 2.22222 3.33333 2.22222H36.6667C36.9611 2.22222 37.2444 2.33889 37.4522 2.54778C37.6611 2.75556 37.7778 3.03889 37.7778 3.33333Z" fill="white"/>
<path fill-rule="evenodd" clip-rule="evenodd" d="M13.6611 10.6022C11.8689 10.6589 10.4344 12.1289 10.4344 13.9345V21.3889C10.4344 23.23 11.9267 24.7222 13.7678 24.7222H26.2322C28.0733 24.7222 29.5656 23.23 29.5656 21.3889V13.9345C29.5656 12.1289 28.1311 10.6589 26.3389 10.6022C25.8122 7.58002 23.1733 5.2778 20 5.2778C16.8267 5.2778 14.1878 7.58002 13.6611 10.6022ZM27.3433 13.9345V21.3889C27.3433 22.0022 26.8456 22.5 26.2322 22.5C22.9922 22.5 17.0078 22.5 13.7678 22.5C13.1544 22.5 12.6567 22.0022 12.6567 21.3889V13.9345C12.6567 13.3211 13.1544 12.8234 13.7678 12.8234H26.2322C26.8456 12.8234 27.3433 13.3211 27.3433 13.9345ZM24.0633 10.6011C23.5756 8.81447 21.94 7.50002 20 7.50002C18.06 7.50002 16.4244 8.81447 15.9367 10.6011H24.0633Z" fill="white"/>
<path fill-rule="evenodd" clip-rule="evenodd" d="M15.4444 15.9389C15.4444 18.4533 17.4855 20.4945 20 20.4945C22.5144 20.4945 24.5555 18.4533 24.5555 15.9389C24.5555 15.3267 24.0578 14.8278 23.4444 14.8278C22.8311 14.8278 22.3333 15.3267 22.3333 15.9389C22.3333 17.2267 21.2878 18.2722 20 18.2722C18.7122 18.2722 17.6666 17.2267 17.6666 15.9389C17.6666 15.3267 17.1689 14.8278 16.5555 14.8278C15.9422 14.8278 15.4444 15.3267 15.4444 15.9389Z" fill="white"/>
</svg>
