<svg width="34" height="40" viewBox="0 0 34 40" fill="none" xmlns="http://www.w3.org/2000/svg">
<path d="M2.72 2.66645V29.9999H0.68C0.499653 29.9999 0.326692 30.0702 0.199168 30.1952C0.0716428 30.3202 0 30.4898 0 30.6666V31.3333C0.000989077 32.1014 0.272061 32.8457 0.767528 33.4408C1.263 34.0358 1.95256 34.4452 2.72 34.6V39.3333C2.72 39.5101 2.79164 39.6797 2.91917 39.8047C3.04669 39.9298 3.21965 40 3.4 40H33.32C33.5003 40 33.6733 39.9298 33.8008 39.8047C33.9284 39.6797 34 39.5101 34 39.3333V2.66645C34 2.48964 33.9284 2.32007 33.8008 2.19504C33.6733 2.07002 33.5003 1.99978 33.32 1.99978H21.4662C21.2038 1.40576 20.77 0.899955 20.218 0.544635C19.6661 0.189316 19.0203 0 18.36 0C17.6997 0 17.0539 0.189316 16.502 0.544635C15.95 0.899955 15.5162 1.40576 15.2538 1.99978H3.4C3.21965 1.99978 3.04669 2.07002 2.91917 2.19504C2.79164 2.32007 2.72 2.48964 2.72 2.66645ZM1.36 31.3333H24.48C24.4825 32.0569 24.7277 32.7597 25.1777 33.3333H3.4C2.85896 33.3333 2.34008 33.1226 1.9575 32.7475C1.57493 32.3724 1.36 31.8637 1.36 31.3333ZM25.16 3.33312H32.64V38.6667H4.08V34.6666H27.88C28.7814 34.6656 29.6456 34.314 30.283 33.6891C30.9204 33.0643 31.2789 32.217 31.28 31.3333V5.33313C31.28 5.15632 31.2084 4.98675 31.0808 4.86172C30.9533 4.7367 30.7803 4.66646 30.6 4.66646H25.16V3.33312ZM12.92 3.33312H15.7366C15.8871 3.33297 16.0333 3.28387 16.1523 3.19351C16.2713 3.10315 16.3563 2.97663 16.3941 2.83378C16.5048 2.40485 16.7582 2.02435 17.1143 1.75254C17.4703 1.48074 17.9087 1.33315 18.36 1.33315C18.8113 1.33315 19.2497 1.48074 19.6057 1.75254C19.9618 2.02435 20.2152 2.40485 20.3259 2.83378C20.3637 2.97663 20.4487 3.10315 20.5677 3.19351C20.6867 3.28387 20.8329 3.33297 20.9834 3.33312H23.8V5.9998H12.92V3.33312ZM12.92 7.33314H23.8C24.1607 7.33314 24.5066 7.19267 24.7617 6.94262C25.0167 6.69257 25.16 6.35343 25.16 5.9998H29.92V31.3333C29.92 31.8637 29.7051 32.3724 29.3225 32.7475C28.9399 33.1226 28.421 33.3333 27.88 33.3333C27.339 33.3333 26.8201 33.1226 26.4375 32.7475C26.0549 32.3724 25.84 31.8637 25.84 31.3333V30.6666C25.84 30.4898 25.7684 30.3202 25.6408 30.1952C25.5133 30.0702 25.3403 29.9999 25.16 29.9999H6.8V5.9998H11.56C11.56 6.35343 11.7033 6.69257 11.9583 6.94262C12.2134 7.19267 12.5593 7.33314 12.92 7.33314ZM4.08 3.33312H11.56V4.66646H6.12C5.93965 4.66646 5.76669 4.7367 5.63917 4.86172C5.51164 4.98675 5.44 5.15632 5.44 5.33313V29.9999H4.08V3.33312Z" fill="white"/>
<path d="M8.84003 8.66648C8.65969 8.66648 8.48673 8.73672 8.3592 8.86175C8.23168 8.98677 8.16003 9.15634 8.16003 9.33315V11.9998C8.16003 12.1766 8.23168 12.3462 8.3592 12.4712C8.48673 12.5963 8.65969 12.6665 8.84003 12.6665H11.56C11.7404 12.6665 11.9133 12.5963 12.0409 12.4712C12.1684 12.3462 12.24 12.1766 12.24 11.9998V9.33315C12.24 9.15634 12.1684 8.98677 12.0409 8.86175C11.9133 8.73672 11.7404 8.66648 11.56 8.66648H8.84003ZM10.88 11.3332H9.52003V9.99983H10.88V11.3332Z" fill="white"/>
<path d="M11.56 13.9998H8.84003C8.65969 13.9998 8.48673 14.0701 8.3592 14.1951C8.23168 14.3201 8.16003 14.4897 8.16003 14.6665V17.3332C8.16003 17.51 8.23168 17.6796 8.3592 17.8046C8.48673 17.9296 8.65969 17.9999 8.84003 17.9999H11.56C11.7404 17.9999 11.9133 17.9296 12.0409 17.8046C12.1684 17.6796 12.24 17.51 12.24 17.3332V14.6665C12.24 14.4897 12.1684 14.3201 12.0409 14.1951C11.9133 14.0701 11.7404 13.9998 11.56 13.9998ZM10.88 16.6665H9.52003V15.3332H10.88V16.6665Z" fill="white"/>
<path d="M11.56 19.3332H8.84003C8.65969 19.3332 8.48673 19.4034 8.3592 19.5285C8.23168 19.6535 8.16003 19.823 8.16003 19.9999V22.6665C8.16003 22.8434 8.23168 23.0129 8.3592 23.138C8.48673 23.263 8.65969 23.3332 8.84003 23.3332H11.56C11.7404 23.3332 11.9133 23.263 12.0409 23.138C12.1684 23.0129 12.24 22.8434 12.24 22.6665V19.9999C12.24 19.823 12.1684 19.6535 12.0409 19.5285C11.9133 19.4034 11.7404 19.3332 11.56 19.3332ZM10.88 21.9999H9.52003V20.6665H10.88V21.9999Z" fill="white"/>
<path d="M11.56 24.6665H8.84003C8.65969 24.6665 8.48673 24.7368 8.3592 24.8618C8.23168 24.9868 8.16003 25.1564 8.16003 25.3332V27.9999C8.16003 28.1767 8.23168 28.3463 8.3592 28.4713C8.48673 28.5963 8.65969 28.6666 8.84003 28.6666H11.56C11.7404 28.6666 11.9133 28.5963 12.0409 28.4713C12.1684 28.3463 12.24 28.1767 12.24 27.9999V25.3332C12.24 25.1564 12.1684 24.9868 12.0409 24.8618C11.9133 24.7368 11.7404 24.6665 11.56 24.6665ZM10.88 27.3332H9.52003V25.9999H10.88V27.3332Z" fill="white"/>
<path d="M13.5999 8.66648H25.1599V9.99983H13.5999V8.66648Z" fill="white"/>
<path d="M16.3201 11.3332H27.8801V12.6666H16.3201V11.3332Z" fill="white"/>
<path d="M13.5999 13.9998H25.1599V15.3332H13.5999V13.9998Z" fill="white"/>
<path d="M16.3201 16.6666H27.8801V17.9999H16.3201V16.6666Z" fill="white"/>
<path d="M13.5999 19.3332H25.1599V20.6665H13.5999V19.3332Z" fill="white"/>
<path d="M16.3201 21.9999H27.8801V23.3333H16.3201V21.9999Z" fill="white"/>
<path d="M13.5999 24.6665H25.1599V25.9999H13.5999V24.6665Z" fill="white"/>
<path d="M16.3201 27.3333H27.8801V28.6666H16.3201V27.3333Z" fill="white"/>
<path d="M13.5999 11.3332H14.9599V12.6666H13.5999V11.3332Z" fill="white"/>
<path d="M13.5999 16.6666H14.9599V17.9999H13.5999V16.6666Z" fill="white"/>
<path d="M13.5999 21.9999H14.9599V23.3333H13.5999V21.9999Z" fill="white"/>
<path d="M13.5999 27.3333H14.9599V28.6666H13.5999V27.3333Z" fill="white"/>
</svg>
