<svg width="36" height="40" viewBox="0 0 36 40" fill="none" xmlns="http://www.w3.org/2000/svg">
<path fill-rule="evenodd" clip-rule="evenodd" d="M32.056 39H1.41453C1.18557 39 1 38.8052 1 38.5649V1.4351C1 1.19477 1.18557 1 1.41453 1H32.056C32.2849 1 32.4705 1.19482 32.4705 1.43512L32.4705 32.01C32.4705 32.2501 32.2849 32.445 32.056 32.445C31.827 32.445 31.6414 32.2502 31.6414 32.01V1.87023H1.82912V38.1298H31.6414V36.8993C31.6414 36.6592 31.827 36.4645 32.056 36.4645C32.2849 36.4644 32.4705 36.6592 32.4705 36.8995L32.4705 38.5649C32.4705 38.8051 32.2849 39 32.056 39Z" fill="white" stroke="white" stroke-width="0.5"/>
<path fill-rule="evenodd" clip-rule="evenodd" d="M5.12521 10.5993H8.93875V5.42709H5.12521V10.5993ZM9.3533 11.4693H4.71067C4.48172 11.4693 4.29614 11.2746 4.29614 11.0343V4.99199C4.29614 4.75184 4.48172 4.55707 4.71067 4.55707H9.3533C9.58224 4.55707 9.76779 4.75186 9.76779 4.99214V11.0342C9.76779 11.2745 9.58224 11.4694 9.3533 11.4693Z" fill="white" stroke="white" stroke-width="0.5"/>
<path fill-rule="evenodd" clip-rule="evenodd" d="M5.12521 18.5904H8.93875V13.4184H5.12521V18.5904ZM9.3533 19.4606H4.71067C4.48172 19.4606 4.29614 19.2659 4.29614 19.0255V12.9833C4.29614 12.743 4.48172 12.5483 4.71067 12.5483L9.3533 12.5482C9.58224 12.5482 9.76779 12.7431 9.76779 12.9834V19.0255C9.76779 19.2658 9.58224 19.4606 9.3533 19.4606Z" fill="white" stroke="white" stroke-width="0.5"/>
<path fill-rule="evenodd" clip-rule="evenodd" d="M5.12521 26.5815H8.93875V21.4094H5.12521V26.5815ZM9.3533 27.4516H4.71067C4.48172 27.4516 4.29614 27.257 4.29614 27.0166V20.9744C4.29614 20.7342 4.48172 20.5394 4.71067 20.5394L9.3533 20.5393C9.58224 20.5393 9.76779 20.7342 9.76779 20.9745V27.0166C9.76779 27.2569 9.58224 27.4517 9.3533 27.4516Z" fill="white" stroke="white" stroke-width="0.5"/>
<path fill-rule="evenodd" clip-rule="evenodd" d="M5.12521 34.5727H8.93875V29.4007H5.12521V34.5727ZM9.3533 35.4429H4.71067C4.48172 35.4429 4.29614 35.2482 4.29614 35.0078V28.9656C4.29614 28.7253 4.48172 28.5306 4.71067 28.5306L9.3533 28.5305C9.58224 28.5305 9.76779 28.7254 9.76779 28.9657V35.0078C9.76779 35.2481 9.58224 35.4429 9.3533 35.4429Z" fill="white" stroke="white" stroke-width="0.5"/>
<path fill-rule="evenodd" clip-rule="evenodd" d="M28.7596 8.44832H12.5104C12.2814 8.44832 12.0958 8.25362 12.0958 8.01332C12.0958 7.77289 12.2814 7.57825 12.5104 7.57825L28.7596 7.57812C28.9886 7.57812 29.1741 7.77302 29.1741 8.01332C29.1741 8.25355 28.9885 8.44839 28.7596 8.44832Z" fill="white" stroke="white" stroke-width="0.5"/>
<path fill-rule="evenodd" clip-rule="evenodd" d="M28.7596 16.4394H12.5104C12.2814 16.4394 12.0958 16.2448 12.0958 16.0045C12.0958 15.7642 12.2814 15.5694 12.5104 15.5694L28.7596 15.5694C28.9886 15.5694 29.1741 15.7642 29.1741 16.0045C29.1741 16.2446 28.9885 16.4395 28.7596 16.4394Z" fill="white" stroke="white" stroke-width="0.5"/>
<path fill-rule="evenodd" clip-rule="evenodd" d="M17.7181 24.4307H12.5104C12.2814 24.4307 12.0958 24.236 12.0958 23.9957C12.0958 23.7553 12.2814 23.5606 12.5104 23.5606L17.7181 23.5605C17.9471 23.5605 18.1326 23.7554 18.1326 23.9957C18.1326 24.2359 17.9471 24.4308 17.7181 24.4307Z" fill="white" stroke="white" stroke-width="0.5"/>
<path fill-rule="evenodd" clip-rule="evenodd" d="M21.3278 32.4218H12.5104C12.2814 32.4218 12.0958 32.2271 12.0958 31.9869C12.0958 31.7465 12.2814 31.5518 12.5104 31.5518H21.3278C21.5568 31.5518 21.7424 31.7466 21.7424 31.9869C21.7424 32.227 21.5567 32.4219 21.3278 32.4218ZM27.3037 32.4218H26.318C26.089 32.4218 25.9035 32.2271 25.9035 31.9869C25.9035 31.7465 26.089 31.5518 26.318 31.5518H27.3037C27.5326 31.5518 27.7182 31.7466 27.7182 31.9869C27.7182 32.227 27.5326 32.4219 27.3037 32.4218Z" fill="white" stroke="white" stroke-width="0.5"/>
<path fill-rule="evenodd" clip-rule="evenodd" d="M23.8229 19.6166C22.2362 19.6166 20.7445 20.2651 19.6225 21.4427C18.5005 22.6202 17.8826 24.1859 17.8826 25.8512C17.8826 27.5164 18.5005 29.0822 19.6225 30.2598C21.9387 32.6906 25.7073 32.6906 28.0234 30.2598C29.1454 29.0821 29.7633 27.5165 29.7633 25.8512C29.7633 24.1857 29.1454 22.6202 28.0234 21.4427C26.9014 20.2651 25.4097 19.6167 23.8229 19.6166ZM23.8229 32.9527C22.0895 32.9527 20.356 32.2601 19.0363 30.875C17.7577 29.5331 17.0536 27.7489 17.0536 25.8512C17.0536 23.9534 17.7577 22.1693 19.0363 20.8273C20.3148 19.4853 22.0148 18.7464 23.8229 18.7464C25.6311 18.7464 27.3311 19.4854 28.6096 20.8273C29.8882 22.1692 30.5924 23.9534 30.5924 25.8512C30.5924 27.7489 29.8882 29.5331 28.6096 30.875C27.29 32.2601 25.5564 32.9527 23.8229 32.9527Z" fill="white" stroke="white" stroke-width="0.5"/>
<path fill-rule="evenodd" clip-rule="evenodd" d="M32.9151 37.5819C32.3564 37.5819 31.8323 37.355 31.4395 36.9426L26.6833 31.9508C26.5214 31.7809 26.5214 31.5054 26.6833 31.3355C26.8451 31.1654 27.1077 31.1655 27.2696 31.3355L32.0258 36.3272C32.262 36.5752 32.5778 36.7118 32.9151 36.7118C33.2524 36.7117 33.5682 36.5753 33.8044 36.3274C34.0408 36.0793 34.1709 35.7478 34.1709 35.3939C34.1709 35.0398 34.0408 34.7084 33.8045 34.4604L29.0483 29.4684C28.8864 29.2986 28.8864 29.0231 29.0483 28.8532C29.2102 28.6832 29.4727 28.6833 29.6346 28.8532L34.3907 33.845C34.7836 34.2573 35 34.8075 35 35.3939C35 35.9802 34.7836 36.5303 34.3907 36.9427C33.9979 37.3548 33.4739 37.582 32.9151 37.5819Z" fill="white" stroke="white" stroke-width="0.5"/>
<path fill-rule="evenodd" clip-rule="evenodd" d="M22.2543 28.7753C22.1443 28.7753 22.0389 28.7297 21.9612 28.648L20.3553 26.9626C20.1934 26.7927 20.1934 26.5173 20.3553 26.3474C20.5172 26.1773 20.7797 26.1774 20.9415 26.3474L22.2543 27.725L26.7044 23.0544C26.8662 22.8844 27.1287 22.8845 27.2906 23.0544C27.4525 23.2243 27.4525 23.4998 27.2906 23.6697L22.5473 28.648C22.4696 28.7296 22.3642 28.7755 22.2543 28.7753Z" fill="white" stroke="white" stroke-width="0.5"/>
</svg>
