<svg width="27" height="27" viewBox="0 0 27 27" fill="none" xmlns="http://www.w3.org/2000/svg">
<path d="M26.2212 13.3702C26.2212 20.4676 20.4676 26.2212 13.3702 26.2212C6.2728 26.2212 0.519231 20.4676 0.519231 13.3702C0.519231 6.2728 6.2728 0.519231 13.3702 0.519231C20.4676 0.519231 26.2212 6.2728 26.2212 13.3702Z" fill="#5F3787"/>
<path d="M13.5 0C6.04494 0 0 6.04402 0 13.5C0 20.956 6.04434 27 13.5 27C20.9563 27 27 20.956 27 13.5C27 6.04402 20.9563 0 13.5 0ZM13.5 4.03666C15.9668 4.03666 17.9658 6.03631 17.9658 8.50207C17.9658 10.9684 15.9668 12.9675 13.5 12.9675C11.0343 12.9675 9.03538 10.9684 9.03538 8.50207C9.03538 6.03631 11.0343 4.03666 13.5 4.03666ZM13.497 23.4704C11.0367 23.4704 8.78336 22.5743 7.04531 21.0912C6.62191 20.73 6.3776 20.2005 6.3776 19.6448C6.3776 17.1441 8.40148 15.1427 10.9027 15.1427H16.0985C18.6003 15.1427 20.6165 17.1441 20.6165 19.6448C20.6165 20.2011 20.3733 20.7295 19.9494 21.0906C18.2119 22.5743 15.9579 23.4704 13.497 23.4704Z" fill="#D7B4FB" fill-opacity="0.7"/>
</svg>
