<svg width="22" height="22" viewBox="0 0 22 22" fill="none" xmlns="http://www.w3.org/2000/svg">
<circle cx="11" cy="11" r="11" fill="#C2ACC8"/>
<path d="M16.0259 6.82758H6.73275C5.94843 6.82758 5.31033 7.47925 5.31033 8.28025V14.4783C5.31033 15.2794 5.94843 15.931 6.73275 15.931H16.0259C16.8102 15.931 17.4483 15.2794 17.4483 14.4783V8.28025C17.4483 7.47925 16.8102 6.82758 16.0259 6.82758ZM16.5 14.4783C16.5 14.7453 16.2873 14.9626 16.0259 14.9626H6.73275C6.47131 14.9626 6.25861 14.7453 6.25861 14.4783V8.28025C6.25861 8.01325 6.47131 7.79603 6.73275 7.79603H16.0259C16.2873 7.79603 16.5 8.01325 16.5 8.28025V14.4783Z" fill="#5F3787"/>
<path d="M16.4195 7.43134L11.3793 11.26L6.33914 7.43134L5.77316 8.2084L11.3793 12.467L16.9855 8.2084L16.4195 7.43134Z" fill="#5F3787"/>
</svg>
