<svg width="22" height="22" viewBox="0 0 22 22" fill="none" xmlns="http://www.w3.org/2000/svg">
<circle cx="11" cy="11" r="11" fill="#C2ACC8"/>
<path d="M14.9129 15.931H7.08709C6.52426 15.931 6.06897 15.4825 6.06897 14.9299V14.5256C6.06897 12.2333 7.95865 10.3759 10.2889 10.3759H11.7111C14.0422 10.3759 15.931 12.2342 15.931 14.5256V14.9299C15.9319 15.4833 15.4757 15.931 14.9129 15.931Z" fill="#5F3787"/>
<path d="M14.2937 9.39604C13.8749 9.14276 13.1447 8.48184 13.1958 6.963C13.2045 6.8854 13.2088 6.80609 13.2088 6.72592C13.4022 4.39949 11 4.55385 11 4.55385C11 4.55385 8.59782 4.39949 8.79121 6.72592C8.79121 6.80609 8.79555 6.8854 8.80422 6.963C8.85538 8.48184 8.12605 9.14361 7.70631 9.39604C7.59618 9.46256 7.61265 9.62288 7.73406 9.66467C8.29516 9.8574 9.51187 10.0723 10.5473 8.85195C10.693 8.8818 10.8439 8.89715 10.9992 8.89715C11.1544 8.89715 11.3053 8.88095 11.451 8.85195C12.4873 10.0723 13.704 9.8574 14.2643 9.66467C14.3874 9.62288 14.403 9.46256 14.2937 9.39604Z" fill="#5F3787"/>
</svg>
