<svg width="40" height="40" viewBox="0 0 20 20" fill="none" xmlns="http://www.w3.org/2000/svg">
<path d="M9.84395 4.20203C7.98511 4.20203 6.47266 5.71448 6.47266 7.57364C6.47266 9.43248 7.98511 10.9453 9.84395 10.9453C11.7028 10.9453 13.2152 9.43248 13.2152 7.57364C13.2152 5.71448 11.7028 4.20203 9.84395 4.20203ZM9.84395 9.63243C8.70865 9.63243 7.78516 8.70893 7.78516 7.57364C7.78516 6.43834 8.70865 5.51453 9.84395 5.51453C10.9792 5.51453 11.9027 6.43834 11.9027 7.57364C11.9027 8.70895 10.9792 9.63243 9.84395 9.63243Z" fill="#ffffff"/>
<path d="M9.83798 0.161987C4.41335 0.161987 0 4.57533 0 9.99997C0 13.0189 1.3693 15.7215 3.51645 17.5275C3.51797 17.5288 3.51921 17.5302 3.52074 17.5314C5.23138 18.9686 7.43412 19.838 9.83798 19.838C13.2631 19.838 16.3893 18.1031 18.2004 15.1974C19.1732 13.6388 19.6875 11.8412 19.6875 9.99997C19.6875 8.15811 19.1732 6.36079 18.2007 4.80252C16.3893 1.89682 13.2631 0.161987 9.83798 0.161987ZM4.71071 16.7951C4.94903 16.188 5.30295 15.6313 5.76173 15.1731C6.66343 14.2714 7.86442 13.7747 9.14424 13.7747H10.5429C12.5199 13.7747 14.2745 15.0078 14.9719 16.8108C13.5173 17.9082 11.7322 18.5254 9.83798 18.5254C7.91225 18.5255 6.13961 17.8761 4.71071 16.7951ZM17.0869 14.5027C16.7739 15.0049 16.4046 15.4542 16.008 15.8718C15.0094 13.8229 12.8917 12.4622 10.5429 12.4622H9.14424C7.51387 12.4622 5.98283 13.0954 4.83375 14.2451C4.35915 14.7193 3.97615 15.2779 3.68235 15.8825C2.21812 14.351 1.3125 12.281 1.3125 9.99997C1.3125 5.29888 5.13689 1.47449 9.83798 1.47449C12.8068 1.47449 15.5167 2.97828 17.0872 5.4969C17.9296 6.84721 18.375 8.40421 18.375 9.99997C18.375 11.5957 17.9296 13.1524 17.0869 14.5027Z" fill="#ffffff"/>
</svg>
