<svg width="21" height="21" viewBox="0 0 21 21" fill="none" xmlns="http://www.w3.org/2000/svg">
<g id="Group 4">
<circle id="Ellipse 44" cx="10.5" cy="10.5" r="10.5" fill="#69A4CE" fill-opacity="0.8"/>
<g id="Page-1">
<g id="141---Calendar">
<path id="Shape" d="M15.2091 5.50456H15.209H14.7317V4.64547C14.7317 4.48731 14.6035 4.3591 14.4454 4.3591C14.2872 4.3591 14.159 4.48731 14.159 4.64547V5.50456H7.47718V4.64547C7.47718 4.48731 7.34897 4.3591 7.19082 4.3591C7.03267 4.3591 6.90446 4.48731 6.90446 4.64547V5.50456H6.42718L6.42707 5.50456C5.63674 5.50546 4.99627 6.14593 4.99537 6.93627V6.93638L4.99537 14.5727L4.99537 14.5728C4.99627 15.3632 5.63674 16.0037 6.42708 16.0046H6.42718H15.209H15.2091C15.9994 16.0037 16.6399 15.3632 16.6408 14.5728V14.5727V6.93638V6.93627C16.6399 6.14593 15.9994 5.50546 15.2091 5.50456ZM16.0681 7.79547H6.809C6.65085 7.79547 6.52264 7.92368 6.52264 8.08183C6.52264 8.23999 6.65085 8.3682 6.809 8.3682H16.0681V14.5726C16.0675 15.0469 15.6832 15.4313 15.2089 15.4318H6.4273C5.95301 15.4313 5.56866 15.0469 5.56809 14.5726L5.56809 8.3682H5.85446C6.01261 8.3682 6.14082 8.23999 6.14082 8.08183C6.14082 7.92368 6.01261 7.79547 5.85446 7.79547H5.56809V6.93644C5.56869 6.46221 5.95297 6.07791 6.4272 6.07729C6.42723 6.07729 6.42727 6.07729 6.4273 6.07729L6.92075 6.07729C6.96006 6.18851 7.06614 6.2682 7.19082 6.2682C7.3155 6.2682 7.42158 6.18851 7.46089 6.07729H14.1753C14.2146 6.18851 14.3207 6.2682 14.4454 6.2682C14.5701 6.2682 14.6761 6.18851 14.7154 6.07729L15.2089 6.07729C15.2089 6.07729 15.209 6.07729 15.209 6.07729C15.6832 6.07791 16.0675 6.46223 16.0681 6.93649V7.79547Z" fill="#050505" stroke="#050505" stroke-width="0.190909"/>
<path id="Shape_2" d="M7.19091 6.45908C7.03275 6.45908 6.90455 6.58729 6.90455 6.74544V6.93635C6.90455 7.09451 7.03275 7.22272 7.19091 7.22272C7.34906 7.22272 7.47727 7.09451 7.47727 6.93635V6.74544C7.47727 6.58729 7.34906 6.45908 7.19091 6.45908Z" fill="#050505" stroke="#050505" stroke-width="0.190909"/>
<path id="Shape_3" d="M14.4453 6.45908C14.2871 6.45908 14.1589 6.58729 14.1589 6.74544V6.93635C14.1589 7.09451 14.2871 7.22272 14.4453 7.22272C14.6035 7.22272 14.7317 7.09451 14.7317 6.93635V6.74544C14.7317 6.58729 14.6035 6.45908 14.4453 6.45908Z" fill="#050505" stroke="#050505" stroke-width="0.190909"/>
<path id="Shape_4" d="M12.5361 15.2409H13.8725C14.0306 15.2409 14.1589 15.1127 14.1589 14.9546C14.1589 14.7964 14.0306 14.6682 13.8725 14.6682H12.5361C12.378 14.6682 12.2498 14.7964 12.2498 14.9546C12.2498 15.1127 12.378 15.2409 12.5361 15.2409Z" fill="#050505" stroke="#050505" stroke-width="0.190909"/>
<path id="Shape_5" d="M15.0185 14.6682H14.6367C14.4786 14.6682 14.3503 14.7964 14.3503 14.9546C14.3503 15.1127 14.4786 15.2409 14.6367 15.2409H15.0185C15.1767 15.2409 15.3049 15.1127 15.3049 14.9546C15.3049 14.7964 15.1767 14.6682 15.0185 14.6682Z" fill="#050505" stroke="#050505" stroke-width="0.190909"/>
<path id="Shape_6" d="M6.14087 9.99094V10.7546C6.14087 11.1236 6.44003 11.4228 6.80906 11.4228H7.38178C7.53994 11.4228 7.66815 11.2945 7.66815 11.1364C7.66815 10.9782 7.53994 10.85 7.38178 10.85H6.80906C6.75634 10.85 6.7136 10.8073 6.7136 10.7546V9.99094C6.7136 9.93822 6.75634 9.89549 6.80906 9.89549H8.33633C8.38905 9.89549 8.43178 9.93822 8.43178 9.99094V10.7546C8.43178 10.8073 8.38905 10.85 8.33633 10.85C8.17817 10.85 8.04996 10.9782 8.04996 11.1364C8.04996 11.2945 8.17817 11.4228 8.33633 11.4228C8.70535 11.4228 9.00451 11.1236 9.00451 10.7546V9.99094C9.00451 9.62191 8.70535 9.32276 8.33633 9.32276H6.80906C6.44003 9.32276 6.14087 9.62191 6.14087 9.99094Z" fill="#050505" stroke="#050505" stroke-width="0.190909"/>
<path id="Shape_7" d="M13.2998 11.4228H13.8725C14.0307 11.4228 14.1589 11.2945 14.1589 11.1364C14.1589 10.9782 14.0307 10.85 13.8725 10.85H13.2998C13.2471 10.85 13.2043 10.8073 13.2043 10.7546V9.99094C13.2043 9.93822 13.2471 9.89549 13.2998 9.89549H14.8271C14.8798 9.89549 14.9225 9.93822 14.9225 9.99094V10.7546C14.9225 10.8073 14.8798 10.85 14.8271 10.85C14.6689 10.85 14.5407 10.9782 14.5407 11.1364C14.5407 11.2945 14.6689 11.4228 14.8271 11.4228C15.1961 11.4228 15.4952 11.1236 15.4952 10.7546V9.99094C15.4952 9.62191 15.1961 9.32276 14.8271 9.32276H13.2998C12.9308 9.32276 12.6316 9.62191 12.6316 9.99094V10.7546C12.6316 11.1236 12.9308 11.4228 13.2998 11.4228Z" fill="#050505" stroke="#050505" stroke-width="0.190909"/>
<path id="Shape_8" d="M10.0547 11.4228H10.6274C10.7855 11.4228 10.9138 11.2945 10.9138 11.1364C10.9138 10.9782 10.7855 10.85 10.6274 10.85H10.0547C10.0019 10.85 9.95921 10.8073 9.95921 10.7546V9.99094C9.95921 9.93822 10.0019 9.89549 10.0547 9.89549H11.5819C11.6347 9.89549 11.6774 9.93822 11.6774 9.99094V10.7546C11.6774 10.8073 11.6347 10.85 11.5819 10.85C11.4238 10.85 11.2956 10.9782 11.2956 11.1364C11.2956 11.2945 11.4238 11.4228 11.5819 11.4228C11.951 11.4228 12.2501 11.1236 12.2501 10.7546V9.99094C12.2501 9.62191 11.951 9.32276 11.5819 9.32276H10.0547C9.68563 9.32276 9.38648 9.62191 9.38648 9.99094V10.7546C9.38648 11.1236 9.68563 11.4228 10.0547 11.4228Z" fill="#050505" stroke="#050505" stroke-width="0.190909"/>
<path id="Shape_9" d="M8.33633 11.9955H6.80906C6.44003 11.9955 6.14087 12.2946 6.14087 12.6637V13.4273C6.14087 13.7963 6.44003 14.0955 6.80906 14.0955H7.38178C7.53994 14.0955 7.66815 13.9673 7.66815 13.8091C7.66815 13.651 7.53994 13.5228 7.38178 13.5228H6.80906C6.75634 13.5228 6.7136 13.48 6.7136 13.4273V12.6637C6.7136 12.611 6.75634 12.5682 6.80906 12.5682H8.33633C8.38905 12.5682 8.43178 12.611 8.43178 12.6637V13.4273C8.43178 13.48 8.38905 13.5228 8.33633 13.5228C8.17817 13.5228 8.04996 13.651 8.04996 13.8091C8.04996 13.9673 8.17817 14.0955 8.33633 14.0955C8.70535 14.0955 9.00451 13.7963 9.00451 13.4273V12.6637C9.00451 12.2946 8.70535 11.9955 8.33633 11.9955Z" fill="#050505" stroke="#050505" stroke-width="0.190909"/>
<path id="Shape_10" d="M13.2998 14.0955H13.8725C14.0307 14.0955 14.1589 13.9673 14.1589 13.8091C14.1589 13.651 14.0307 13.5228 13.8725 13.5228H13.2998C13.2471 13.5228 13.2043 13.48 13.2043 13.4273V12.6637C13.2043 12.611 13.2471 12.5682 13.2998 12.5682H14.8271C14.8798 12.5682 14.9225 12.611 14.9225 12.6637V13.4273C14.9225 13.48 14.8798 13.5228 14.8271 13.5228C14.6689 13.5228 14.5407 13.651 14.5407 13.8091C14.5407 13.9673 14.6689 14.0955 14.8271 14.0955C15.1961 14.0955 15.4952 13.7963 15.4952 13.4273V12.6637C15.4952 12.2946 15.1961 11.9955 14.8271 11.9955H13.2998C12.9308 11.9955 12.6316 12.2946 12.6316 12.6637V13.4273C12.6316 13.7963 12.9308 14.0955 13.2998 14.0955Z" fill="#050505" stroke="#050505" stroke-width="0.190909"/>
<path id="Shape_11" d="M10.0547 14.0955H10.6274C10.7855 14.0955 10.9138 13.9673 10.9138 13.8091C10.9138 13.651 10.7855 13.5228 10.6274 13.5228H10.0547C10.0019 13.5228 9.95921 13.48 9.95921 13.4273V12.6637C9.95921 12.611 10.0019 12.5682 10.0547 12.5682H11.5819C11.6347 12.5682 11.6774 12.611 11.6774 12.6637V13.4273C11.6774 13.48 11.6347 13.5228 11.5819 13.5228C11.4238 13.5228 11.2956 13.651 11.2956 13.8091C11.2956 13.9673 11.4238 14.0955 11.5819 14.0955C11.951 14.0955 12.2501 13.7963 12.2501 13.4273V12.6637C12.2501 12.2946 11.951 11.9955 11.5819 11.9955H10.0547C9.68563 11.9955 9.38648 12.2946 9.38648 12.6637V13.4273C9.38648 13.7963 9.68563 14.0955 10.0547 14.0955Z" fill="#050505" stroke="#050505" stroke-width="0.190909"/>
</g>
</g>
</g>
</svg>
