<svg width="33" height="33" viewBox="0 0 33 33" fill="none" xmlns="http://www.w3.org/2000/svg">
<g id="Group 8">
<circle id="Ellipse 44" cx="16.5" cy="16.5" r="16.5" fill="#B44848" fill-opacity="0.8"/>
<g id="Page-1">
<g id="141---Calendar">
<path id="Shape" d="M10.7 12.25H25.25V10.9002C25.2491 10.1549 24.6452 9.55099 23.9 9.55C23.8999 9.55 23.8999 9.55 23.8998 9.55M10.7 12.25L23.9 9.4L23.8998 9.55M10.7 12.25C10.4515 12.25 10.25 12.4515 10.25 12.7C10.25 12.9485 10.4515 13.15 10.7 13.15H25.25V22.8998C25.2491 23.6451 24.6451 24.2491 23.8998 24.25H10.1002C9.35487 24.2491 8.75089 23.6451 8.75 22.8998L8.75 13.15H9.2C9.44853 13.15 9.65 12.9485 9.65 12.7C9.65 12.4515 9.44853 12.25 9.2 12.25H8.75L8.75 10.9002C8.75 10.9002 8.75 10.9001 8.75 10.9001M10.7 12.25L8.75 10.9001M23.8998 9.55L23.1244 9.55M23.8998 9.55L23.1244 9.55M23.1244 9.55C23.0626 9.72478 22.8959 9.85 22.7 9.85C22.5041 9.85 22.3374 9.72478 22.2756 9.55H11.7244C11.6626 9.72478 11.4959 9.85 11.3 9.85C11.1041 9.85 10.9374 9.72478 10.8756 9.55L10.1002 9.55L10.1 9.55M23.1244 9.55L8.6 10.9C8.60099 10.072 9.27198 9.40099 10.1 9.4V9.55M10.1 9.55C9.35479 9.55099 8.75092 10.1549 8.75 10.9001M10.1 9.55L8.75 10.9001M23.9002 8.65H23.9H23.15V7.3C23.15 7.05147 22.9485 6.85 22.7 6.85C22.4515 6.85 22.25 7.05147 22.25 7.3V8.65H11.75V7.3C11.75 7.05147 11.5485 6.85 11.3 6.85C11.0515 6.85 10.85 7.05147 10.85 7.3V8.65L10.1 8.65L10.0998 8.65C8.85787 8.65142 7.85142 9.65787 7.85 10.8998V10.9L7.85 22.9L7.85 22.9002C7.85142 24.1421 8.85787 25.1486 10.0998 25.15H10.1H23.9H23.9002C25.1421 25.1486 26.1486 24.1421 26.15 22.9002V22.9V10.9V10.8998C26.1486 9.65787 25.1421 8.65142 23.9002 8.65Z" fill="white" stroke="white" stroke-width="0.3"/>
<path id="Shape_2" d="M11.3 10.15C11.0515 10.15 10.85 10.3515 10.85 10.6V10.9C10.85 11.1485 11.0515 11.35 11.3 11.35C11.5485 11.35 11.75 11.1485 11.75 10.9V10.6C11.75 10.3515 11.5485 10.15 11.3 10.15Z" fill="white" stroke="white" stroke-width="0.3"/>
<path id="Shape_3" d="M22.6999 10.15C22.4514 10.15 22.2499 10.3515 22.2499 10.6V10.9C22.2499 11.1485 22.4514 11.35 22.6999 11.35C22.9484 11.35 23.1499 11.1485 23.1499 10.9V10.6C23.1499 10.3515 22.9484 10.15 22.6999 10.15Z" fill="white" stroke="white" stroke-width="0.3"/>
<path id="Shape_4" d="M19.6999 23.95H21.7999C22.0484 23.95 22.2499 23.7485 22.2499 23.5C22.2499 23.2515 22.0484 23.05 21.7999 23.05H19.6999C19.4514 23.05 19.2499 23.2515 19.2499 23.5C19.2499 23.7485 19.4514 23.95 19.6999 23.95Z" fill="white" stroke="white" stroke-width="0.3"/>
<path id="Shape_5" d="M23.6002 23.05H23.0002C22.7517 23.05 22.5502 23.2515 22.5502 23.5C22.5502 23.7485 22.7517 23.95 23.0002 23.95H23.6002C23.8487 23.95 24.0502 23.7485 24.0502 23.5C24.0502 23.2515 23.8487 23.05 23.6002 23.05Z" fill="white" stroke="white" stroke-width="0.3"/>
<path id="Shape_6" d="M9.6498 15.7V16.9C9.6498 17.4799 10.1199 17.95 10.6998 17.95H11.5998C11.8483 17.95 12.0498 17.7485 12.0498 17.5C12.0498 17.2515 11.8483 17.05 11.5998 17.05H10.6998C10.617 17.05 10.5498 16.9828 10.5498 16.9V15.7C10.5498 15.6171 10.617 15.55 10.6998 15.55H13.0998C13.1826 15.55 13.2498 15.6171 13.2498 15.7V16.9C13.2498 16.9828 13.1826 17.05 13.0998 17.05C12.8513 17.05 12.6498 17.2515 12.6498 17.5C12.6498 17.7485 12.8513 17.95 13.0998 17.95C13.6797 17.95 14.1498 17.4799 14.1498 16.9V15.7C14.1498 15.1201 13.6797 14.65 13.0998 14.65H10.6998C10.1199 14.65 9.6498 15.1201 9.6498 15.7Z" fill="white" stroke="white" stroke-width="0.3"/>
<path id="Shape_7" d="M20.9 17.95H21.8C22.0485 17.95 22.25 17.7485 22.25 17.5C22.25 17.2515 22.0485 17.05 21.8 17.05H20.9C20.8172 17.05 20.75 16.9828 20.75 16.9V15.7C20.75 15.6171 20.8172 15.55 20.9 15.55H23.3C23.3828 15.55 23.45 15.6171 23.45 15.7V16.9C23.45 16.9828 23.3828 17.05 23.3 17.05C23.0515 17.05 22.85 17.2515 22.85 17.5C22.85 17.7485 23.0515 17.95 23.3 17.95C23.8799 17.95 24.35 17.4799 24.35 16.9V15.7C24.35 15.1201 23.8799 14.65 23.3 14.65H20.9C20.3201 14.65 19.85 15.1201 19.85 15.7V16.9C19.85 17.4799 20.3201 17.95 20.9 17.95Z" fill="white" stroke="white" stroke-width="0.3"/>
<path id="Shape_8" d="M15.7999 17.95H16.6999C16.9484 17.95 17.1499 17.7485 17.1499 17.5C17.1499 17.2515 16.9484 17.05 16.6999 17.05H15.7999C15.7171 17.05 15.6499 16.9828 15.6499 16.9V15.7C15.6499 15.6171 15.7171 15.55 15.7999 15.55H18.1999C18.2827 15.55 18.3499 15.6171 18.3499 15.7V16.9C18.3499 16.9828 18.2827 17.05 18.1999 17.05C17.9514 17.05 17.7499 17.2515 17.7499 17.5C17.7499 17.7485 17.9514 17.95 18.1999 17.95C18.7798 17.95 19.2499 17.4799 19.2499 16.9V15.7C19.2499 15.1201 18.7798 14.65 18.1999 14.65H15.7999C15.22 14.65 14.7499 15.1201 14.7499 15.7V16.9C14.7499 17.4799 15.22 17.95 15.7999 17.95Z" fill="white" stroke="white" stroke-width="0.3"/>
<path id="Shape_9" d="M13.0998 18.85H10.6998C10.1199 18.85 9.6498 19.3201 9.6498 19.9V21.1C9.6498 21.6799 10.1199 22.15 10.6998 22.15H11.5998C11.8483 22.15 12.0498 21.9485 12.0498 21.7C12.0498 21.4515 11.8483 21.25 11.5998 21.25H10.6998C10.617 21.25 10.5498 21.1828 10.5498 21.1V19.9C10.5498 19.8172 10.617 19.75 10.6998 19.75H13.0998C13.1826 19.75 13.2498 19.8172 13.2498 19.9V21.1C13.2498 21.1828 13.1826 21.25 13.0998 21.25C12.8513 21.25 12.6498 21.4515 12.6498 21.7C12.6498 21.9485 12.8513 22.15 13.0998 22.15C13.6797 22.15 14.1498 21.6799 14.1498 21.1V19.9C14.1498 19.3201 13.6797 18.85 13.0998 18.85Z" fill="white" stroke="white" stroke-width="0.3"/>
<path id="Shape_10" d="M20.9 22.15H21.8C22.0485 22.15 22.25 21.9485 22.25 21.7C22.25 21.4515 22.0485 21.25 21.8 21.25H20.9C20.8172 21.25 20.75 21.1828 20.75 21.1V19.9C20.75 19.8172 20.8172 19.75 20.9 19.75H23.3C23.3828 19.75 23.45 19.8172 23.45 19.9V21.1C23.45 21.1828 23.3828 21.25 23.3 21.25C23.0515 21.25 22.85 21.4515 22.85 21.7C22.85 21.9485 23.0515 22.15 23.3 22.15C23.8799 22.15 24.35 21.6799 24.35 21.1V19.9C24.35 19.3201 23.8799 18.85 23.3 18.85H20.9C20.3201 18.85 19.85 19.3201 19.85 19.9V21.1C19.85 21.6799 20.3201 22.15 20.9 22.15Z" fill="white" stroke="white" stroke-width="0.3"/>
<path id="Shape_11" d="M15.7999 22.15H16.6999C16.9484 22.15 17.1499 21.9485 17.1499 21.7C17.1499 21.4515 16.9484 21.25 16.6999 21.25H15.7999C15.7171 21.25 15.6499 21.1828 15.6499 21.1V19.9C15.6499 19.8172 15.7171 19.75 15.7999 19.75H18.1999C18.2827 19.75 18.3499 19.8172 18.3499 19.9V21.1C18.3499 21.1828 18.2827 21.25 18.1999 21.25C17.9514 21.25 17.7499 21.4515 17.7499 21.7C17.7499 21.9485 17.9514 22.15 18.1999 22.15C18.7798 22.15 19.2499 21.6799 19.2499 21.1V19.9C19.2499 19.3201 18.7798 18.85 18.1999 18.85H15.7999C15.22 18.85 14.7499 19.3201 14.7499 19.9V21.1C14.7499 21.6799 15.22 22.15 15.7999 22.15Z" fill="white" stroke="white" stroke-width="0.3"/>
</g>
</g>
</g>
</svg>
