<svg width="39" height="39" viewBox="0 0 39 39" fill="none" xmlns="http://www.w3.org/2000/svg">
<path d="M27.5417 36.0872H4.79167C3.79763 36.0872 2.99583 35.3006 2.99583 34.3352V4.70391C2.99583 3.73853 3.79763 2.95196 4.79167 2.95196H27.5417C28.5357 2.95196 29.3375 3.73853 29.3375 4.70391V34.3352C29.3375 35.3006 28.5357 36.0872 27.5417 36.0872ZM4.79167 38.1391H27.5417C29.6887 38.1391 31.4333 36.4382 31.4333 34.3352V4.70391C31.4333 2.60087 29.6887 0.9 27.5417 0.9H4.79167C2.64458 0.9 0.9 2.60087 0.9 4.70391V34.3352C0.9 36.4382 2.64458 38.1391 4.79167 38.1391Z" fill="#7133AD" stroke="#7133AD" stroke-width="0.2"/>
<path d="M14.9993 8.30731C14.4293 8.30731 13.9659 8.7659 13.9659 9.33329C13.9659 9.90068 14.4293 10.3593 14.9993 10.3593H26.1993C26.7692 10.3593 27.2326 9.90068 27.2326 9.33329C27.2326 8.7659 26.7692 8.30731 26.1993 8.30731H14.9993Z" fill="#7133AD" stroke="#7133AD" stroke-width="0.2"/>
<path d="M14.9993 12.0114C14.4293 12.0114 13.9659 12.47 13.9659 13.0374C13.9659 13.6048 14.4293 14.0634 14.9993 14.0634H26.1993C26.7692 14.0634 27.2326 13.6048 27.2326 13.0374C27.2326 12.47 26.7692 12.0114 26.1993 12.0114H14.9993Z" fill="#7133AD" stroke="#7133AD" stroke-width="0.2"/>
<path d="M14.9993 19.4187C14.4293 19.4187 13.9659 19.8773 13.9659 20.4447C13.9659 21.0121 14.4293 21.4707 14.9993 21.4707H26.1993C26.7692 21.4707 27.2326 21.0121 27.2326 20.4447C27.2326 19.8773 26.7692 19.4187 26.1993 19.4187H14.9993Z" fill="#7133AD" stroke="#7133AD" stroke-width="0.2"/>
<path d="M14.9993 23.1236C14.4293 23.1236 13.9659 23.5822 13.9659 24.1496C13.9659 24.717 14.4293 25.1756 14.9993 25.1756H26.1993C26.7692 25.1756 27.2326 24.717 27.2326 24.1496C27.2326 23.5822 26.7692 23.1236 26.1993 23.1236H14.9993Z" fill="#7133AD" stroke="#7133AD" stroke-width="0.2"/>
<path d="M9.30007 24.0486H6.70007V21.4707H9.30007V24.0486ZM10.3334 19.4187H5.66673C5.09679 19.4187 4.6334 19.8773 4.6334 20.4447V25.0746C4.6334 25.642 5.09679 26.1006 5.66673 26.1006H10.3334C10.9034 26.1006 11.3667 25.642 11.3667 25.0746V20.4447C11.3667 19.8773 10.9034 19.4187 10.3334 19.4187Z" fill="#7133AD" stroke="#7133AD" stroke-width="0.2"/>
<path d="M7.46297 14.4177L7.5334 14.4876L7.60383 14.4177L11.9971 10.059C12.401 9.65831 12.401 9.00823 11.9971 8.60752C11.5937 8.20725 10.9398 8.20725 10.5363 8.60752L7.5334 11.5868L6.39713 10.4595L6.39713 10.4595C5.99365 10.0592 5.33982 10.0592 4.93633 10.4595L5.00676 10.5305L4.93633 10.4595C4.53242 10.8602 4.53242 11.5103 4.93633 11.911C4.93633 11.911 4.93633 11.911 4.93633 11.911L7.46297 14.4177Z" fill="#7133AD" stroke="#7133AD" stroke-width="0.2"/>
<path d="M38.4133 34.395L38.4335 34.3683V34.3347V17.6671V17.5671H38.3335H32.7335H32.6335V17.6671V34.3347V34.3683L32.6537 34.395L35.4537 38.0989L35.5335 38.2045L35.6133 38.0989L38.4133 34.395ZM34.7002 33.6838V19.6191H36.3669V33.6838L35.5335 34.7862L34.7002 33.6838Z" fill="#7133AD" stroke="#7133AD" stroke-width="0.2"/>
<path d="M38.3335 16.8415H38.4335V16.7415V13.0376C38.4335 11.9587 37.5523 11.0856 36.4669 11.0856H34.6002C33.5147 11.0856 32.6335 11.9587 32.6335 13.0376V16.7415V16.8415H32.7335H38.3335ZM34.7002 14.7895V13.1376H36.3669V14.7895H34.7002Z" fill="#7133AD" stroke="#7133AD" stroke-width="0.2"/>
</svg>
