<svg width="44" height="44" viewBox="0 0 44 44" fill="none" xmlns="http://www.w3.org/2000/svg">
<path d="M10.9656 19.3812V22.0553C10.9656 25.1543 13.487 27.6759 16.5859 27.6759C18.1317 27.6759 19.5325 27.0477 20.5498 26.0339H16.6423C16.158 26.0339 15.7658 25.6417 15.7658 25.1574C15.7658 24.6736 16.158 24.2808 16.6423 24.2808H21.6637C21.6915 24.2808 21.7194 24.2793 21.7472 24.2768C22.0421 23.5949 22.2062 22.8443 22.2062 22.0553V19.3812H21.6793C20.9696 19.3812 20.2885 19.0811 19.81 18.5569M10.9656 19.3812L19.5567 18.1225C19.6409 18.263 19.7393 18.3962 19.8515 18.519L19.81 18.5569C19.81 18.5569 19.81 18.5569 19.81 18.5569M10.9656 19.3812H15.1045C16.6637 19.3812 18.1876 18.9509 19.5087 18.1518C19.5947 18.2953 19.6953 18.4314 19.81 18.5569M10.9656 19.3812L19.81 18.5569M12.6568 30.4194L15.6977 41.3033H11.7297C11.2457 41.3033 10.8531 41.6956 10.8531 42.1799C10.8531 42.6642 11.2457 43.0564 11.7297 43.0564H31.3516C31.8358 43.0564 32.2281 42.6642 32.2281 42.1799V35.9083C32.2281 34.5769 31.7685 33.2727 30.9337 32.2355L30.9337 32.2355C30.0984 31.1983 28.9226 30.4705 27.6219 30.1863L20.8399 28.7033V28.0745C21.7255 27.4469 22.4668 26.6293 23.0046 25.6812C23.5882 25.3507 24.0386 24.812 24.2542 24.1665C25.9255 24.0195 27.2409 22.6131 27.2409 20.9041C27.2409 19.0978 25.7712 17.6281 23.9649 17.6281H23.9596V16.8397C23.9596 12.7737 20.6519 9.46597 16.5859 9.46597C12.5202 9.46597 9.2125 12.7737 9.2125 16.8397V17.6281H9.20723C7.40069 17.6281 5.93125 19.0978 5.93125 20.9041C5.93125 22.7106 7.4007 24.18 9.20723 24.18H9.52497C9.99996 25.7553 10.988 27.1101 12.2946 28.0484V28.7041L5.54607 30.1843L5.54182 30.1852C4.5828 30.3955 3.43448 30.6474 2.52648 31.2505C1.61208 31.8578 0.94375 32.8195 0.94375 34.4382V42.1799C0.94375 42.6642 1.33602 43.0564 1.82031 43.0564H5.16693C5.65095 43.0564 6.04349 42.6642 6.04349 42.1799C6.04349 41.6956 5.65095 41.3033 5.16693 41.3033H2.69687V34.4382C2.69687 34.0441 2.74981 33.7235 2.86389 33.4559C2.97763 33.189 3.15342 32.9716 3.40398 32.7852C3.90862 32.4099 4.71416 32.1615 5.92163 31.8966L12.6568 30.4194ZM15.1045 17.6281H10.9656V16.8397C10.9656 13.7407 13.487 11.2191 16.5859 11.2191C19.6849 11.2191 22.2062 13.7407 22.2062 16.8397V17.6281H21.6793C21.4575 17.6281 21.2539 17.5383 21.1046 17.3747C20.9553 17.211 20.8844 17 20.9045 16.7794L20.9045 16.7793C20.9363 16.4249 20.7514 16.0866 20.4356 15.9223C20.3079 15.8557 20.1693 15.8234 20.0315 15.8234C19.8283 15.8234 19.627 15.8938 19.4648 16.0307L19.4648 16.0308C18.2478 17.0606 16.6993 17.6281 15.1045 17.6281ZM25.4875 20.9041C25.4875 21.7438 24.8044 22.4269 23.9646 22.4269H23.9594V19.3812H23.9646C24.8044 19.3812 25.4875 20.0646 25.4875 20.9041ZM9.2125 22.4269H9.20723C8.36748 22.4269 7.68437 21.7438 7.68437 20.9041C7.68437 20.0646 8.36749 19.3812 9.20723 19.3812H9.2125V22.4269ZM19.0869 29.414L16.6283 38.1187L14.077 28.9888C14.8605 29.2731 15.7055 29.429 16.5859 29.429C17.4636 29.429 18.3056 29.2744 19.0868 28.992V29.4089L19.0869 29.414ZM30.475 41.3033H17.5501L20.6165 30.449L27.2477 31.8989C29.1173 32.308 30.475 33.9942 30.475 35.9083V41.3033Z" fill="white" stroke="white" stroke-width="0.1125"/>
<path d="M28.5922 20.3159L28.5921 20.3158C28.3429 20.1542 28.1922 19.8773 28.1922 19.5801V17.5263C25.9146 15.7802 24.5687 13.0707 24.5687 10.1875C24.5687 5.09049 28.7155 0.94375 33.8125 0.94375C38.9095 0.94375 43.0562 5.09049 43.0562 10.1875C43.0562 15.2845 38.9095 19.4312 33.8125 19.4312C33.1903 19.4312 32.5691 19.3685 31.9617 19.2453L29.4268 20.3802L28.5922 20.3159ZM28.5922 20.3159C28.7363 20.409 28.9025 20.4566 29.0688 20.4566M28.5922 20.3159L29.0688 20.4566M29.0688 20.4566C29.1906 20.4566 29.3125 20.4314 29.4268 20.3802L29.0688 20.4566ZM33.8125 17.6781C33.225 17.6781 32.639 17.6094 32.0706 17.4743C31.8829 17.4294 31.6857 17.4478 31.5093 17.5269L29.9453 18.2272V17.0804C29.9453 16.7921 29.8041 16.5222 29.5665 16.3589C27.535 14.9579 26.3219 12.6507 26.3219 10.1875C26.3219 6.05702 29.682 2.69687 33.8125 2.69687C37.943 2.69687 41.3031 6.05702 41.3031 10.1875C41.3031 14.318 37.943 17.6781 33.8125 17.6781Z" fill="white" stroke="white" stroke-width="0.1125"/>
<path d="M8.44434 41.3031C8.21384 41.3031 7.98779 41.3967 7.8247 41.5601C7.66163 41.7229 7.56777 41.9492 7.56777 42.1797C7.56777 42.4102 7.66164 42.6365 7.82474 42.7994L7.86448 42.7595L7.82467 42.7993C7.98776 42.9626 8.21383 43.0562 8.44434 43.0562C8.67506 43.0562 8.9011 42.9627 9.06419 42.7994C9.22732 42.6365 9.3209 42.4102 9.3209 42.1797C9.3209 41.9492 9.22732 41.7229 9.06419 41.56L9.02446 41.5998L9.06426 41.5601C8.90116 41.3967 8.67509 41.3031 8.44434 41.3031Z" fill="white" stroke="white" stroke-width="0.1125"/>
<path d="M31.4541 9.37588C31.2236 9.37588 30.9976 9.46947 30.8345 9.63281C30.6714 9.79563 30.5775 10.0219 30.5775 10.2524C30.5775 10.483 30.6714 10.7093 30.8345 10.8721L30.8742 10.8323L30.8344 10.872C30.9975 11.0354 31.2236 11.129 31.4541 11.129C31.6848 11.129 31.9109 11.0354 32.074 10.8721C32.2371 10.7093 32.3307 10.4829 32.3307 10.2524C32.3307 10.022 32.2371 9.79563 32.074 9.63277L32.0342 9.67258L32.074 9.63284C31.9109 9.46947 31.6849 9.37588 31.4541 9.37588Z" fill="white" stroke="white" stroke-width="0.1125"/>
<path d="M34.0381 9.37588C33.8076 9.37588 33.5815 9.46947 33.4185 9.63281C33.2554 9.79563 33.1615 10.0219 33.1615 10.2524C33.1615 10.483 33.2554 10.7093 33.4185 10.8721L33.4582 10.8323L33.4184 10.872C33.5815 11.0354 33.8076 11.129 34.0381 11.129C34.2688 11.129 34.4949 11.0354 34.6579 10.8721C34.8211 10.7093 34.9146 10.4829 34.9146 10.2524C34.9146 10.022 34.8211 9.79563 34.6579 9.63277L34.6182 9.67258L34.658 9.63284C34.4949 9.46947 34.2688 9.37588 34.0381 9.37588Z" fill="white" stroke="white" stroke-width="0.1125"/>
<path d="M37.3044 9.70159C37.1596 9.52231 36.9447 9.40529 36.7151 9.38109C36.486 9.35657 36.251 9.4258 36.0717 9.57067C35.8924 9.71554 35.7753 9.93079 35.7512 10.16L35.8071 10.1659L35.7512 10.1599C35.7266 10.3894 35.7959 10.6241 35.9408 10.8034C36.0858 10.9828 36.3006 11.0999 36.5302 11.1241C36.7593 11.1486 36.9942 11.0792 37.1735 10.9343C37.3528 10.7895 37.47 10.5744 37.4942 10.3452L37.4382 10.3393L37.4941 10.3453C37.5187 10.1158 37.4494 9.88108 37.3044 9.70159Z" fill="white" stroke="white" stroke-width="0.1125"/>
</svg>
