<svg width="27" height="27" viewBox="0 0 27 27" fill="none" xmlns="http://www.w3.org/2000/svg">
<g id="date icon">
<circle id="Ellipse 56" cx="13.5" cy="13.5" r="13.5" fill="#2D8FA5"/>
<g id="Capa_1">
<g id="Group">
<g id="Group_2">
<path id="Vector" d="M19.5694 7.24921C19.1282 7.02808 18.6414 6.91341 18.1479 6.91436H17.7467V5.99193C17.7467 5.81747 17.6052 5.67603 17.4308 5.67603C17.2563 5.67603 17.1149 5.81747 17.1149 5.99193V6.91436H9.81754V5.99193C9.81754 5.81747 9.6761 5.67603 9.50164 5.67603C9.32718 5.67603 9.18574 5.81747 9.18574 5.99193V6.91436H8.7877C8.29418 6.91341 7.80734 7.02808 7.36614 7.24921C6.78489 7.56512 6.10254 8.21271 6.10254 9.61532V18.8744C6.10254 20.1791 6.81332 21.5753 8.8035 21.5753H18.1447C20.1349 21.5753 20.8457 20.1791 20.8457 18.8744V9.61532C20.8457 8.21271 20.1507 7.55248 19.5694 7.24921ZM20.2139 18.8744C20.2139 19.4936 20.0117 20.9404 18.1447 20.9404V20.9435H8.7877C6.92072 20.9435 6.71855 19.4967 6.71855 18.8744V11.6624H20.2139V18.8744ZM20.2233 11.0337H6.71855V9.61532C6.71855 8.74343 7.03445 8.13374 7.65677 7.80836C8.00806 7.63371 8.39539 7.54391 8.7877 7.54616H9.1889V8.36119C8.6108 8.6455 8.71504 9.70377 9.5048 9.70377C10.2946 9.70377 10.3988 8.6455 9.8207 8.36119V7.54616H17.1149V8.36119C16.5368 8.6455 16.641 9.70377 17.4308 9.70377C18.2205 9.70377 18.3248 8.6455 17.7467 8.36119V7.54616H18.1479C18.5391 7.54431 18.9253 7.6341 19.2756 7.80836C19.9074 8.12426 20.2233 8.75606 20.2233 9.61532V11.0337Z" fill="white"/>
</g>
</g>
<g id="Group_3">
<g id="Group_4">
<path id="Vector_2" d="M13.01 17.8731C12.8762 17.7826 12.7162 17.7392 12.5551 17.7499H10.5712C10.6273 17.6633 10.6896 17.581 10.7576 17.5035C10.9983 17.2409 11.2615 16.9999 11.5442 16.7832C11.9254 16.4715 12.1981 16.242 12.3624 16.0945C12.5481 15.9141 12.7067 15.7077 12.8331 15.4817C12.9894 15.2226 13.0704 14.925 13.0668 14.6224C13.0655 14.2234 12.9131 13.8397 12.6404 13.5484C12.5076 13.4076 12.3488 13.294 12.1728 13.2135C11.8576 13.0836 11.5186 13.0211 11.1778 13.0303C10.8902 13.0241 10.604 13.0724 10.3343 13.1725C10.1128 13.2562 9.91079 13.3841 9.7404 13.5484C9.58901 13.6957 9.46869 13.8719 9.38659 14.0665C9.31168 14.2402 9.27196 14.427 9.26971 14.6161C9.2628 14.7434 9.30849 14.8679 9.39607 14.9605C9.47927 15.0446 9.5937 15.0903 9.71197 15.0868C9.83233 15.0912 9.9483 15.0414 10.0279 14.951C10.117 14.8328 10.1854 14.7004 10.23 14.5593C10.2626 14.4504 10.3049 14.3446 10.3564 14.2434C10.5193 13.9664 10.8186 13.7987 11.1398 13.8043C11.2918 13.8031 11.4417 13.84 11.5758 13.9117C11.7068 13.9806 11.8161 14.0845 11.8917 14.2118C11.9703 14.3435 12.0107 14.4944 12.0086 14.6477C12.0066 14.8064 11.97 14.9627 11.9012 15.1058C11.8208 15.2742 11.7142 15.4288 11.5853 15.5638C11.427 15.7285 11.2523 15.8767 11.064 16.0061C10.859 16.1579 10.6639 16.3225 10.4796 16.4989C10.2227 16.7495 9.92469 17.0549 9.58561 17.415C9.4923 17.516 9.41554 17.6312 9.35816 17.7562C9.29936 17.869 9.2639 17.9926 9.25391 18.1195C9.25316 18.2608 9.31157 18.396 9.41502 18.4922C9.53605 18.603 9.69673 18.6599 9.86044 18.6502H12.6625C12.8004 18.6613 12.9367 18.6144 13.0384 18.5207C13.1201 18.4361 13.1645 18.3223 13.1616 18.2048C13.1677 18.0762 13.1112 17.9526 13.01 17.8731Z" fill="white"/>
</g>
</g>
<g id="Group_5">
<g id="Group_6">
<path id="Vector_3" d="M16.5789 13.1945C16.5051 13.0901 16.3846 13.0286 16.2567 13.0302C16.1696 13.0204 16.0822 13.0454 16.0134 13.0997C15.9692 13.1461 15.8765 13.2682 15.7355 13.4662C15.5937 13.6637 15.4294 13.8439 15.2458 14.0032C15.0221 14.1883 14.7746 14.3424 14.5098 14.4613C14.3596 14.527 14.2158 14.6062 14.0801 14.6982C13.995 14.7671 13.949 14.8733 13.9569 14.9825C13.9568 15.093 14.0012 15.199 14.0801 15.2763C14.1529 15.3565 14.2561 15.4024 14.3644 15.4027C14.5877 15.4027 15.0215 15.1552 15.666 14.6603V18.1352C15.6541 18.3013 15.7048 18.4658 15.8081 18.5964C15.9028 18.7018 16.0394 18.7597 16.1809 18.7544C16.5284 18.7544 16.7021 18.4996 16.7021 17.9899V13.6241C16.7104 13.4712 16.667 13.3199 16.5789 13.1945Z" fill="white"/>
</g>
</g>
</g>
</g>
</svg>
