<svg width="17" height="17" viewBox="0 0 17 17" fill="none" xmlns="http://www.w3.org/2000/svg">
<path d="M8.5 0C6.81886 0 5.17547 0.498516 3.77766 1.43251C2.37984 2.3665 1.29037 3.69402 0.647028 5.24719C0.00368291 6.80036 -0.164645 8.50943 0.163329 10.1583C0.491303 11.8071 1.30085 13.3217 2.4896 14.5104C3.67834 15.6992 5.1929 16.5087 6.84174 16.8367C8.49057 17.1646 10.1996 16.9963 11.7528 16.353C13.306 15.7096 14.6335 14.6202 15.5675 13.2223C16.5015 11.8245 17 10.1811 17 8.5C16.9974 6.24647 16.101 4.086 14.5075 2.49252C12.914 0.89903 10.7535 0.00264654 8.5 0ZM8.5 16C7.01664 16 5.5666 15.5601 4.33323 14.736C3.09986 13.9119 2.13856 12.7406 1.57091 11.3701C1.00325 9.99968 0.854725 8.49168 1.14411 7.03682C1.4335 5.58196 2.14781 4.24559 3.1967 3.1967C4.2456 2.14781 5.58197 1.4335 7.03683 1.14411C8.49168 0.854721 9.99968 1.00325 11.3701 1.5709C12.7406 2.13856 13.9119 3.09985 14.736 4.33322C15.5601 5.56659 16 7.01664 16 8.5C15.9974 10.4883 15.2063 12.3944 13.8004 13.8004C12.3944 15.2063 10.4883 15.9974 8.5 16Z" fill="#3F334B"/>
<path d="M12.2798 5.27L7.7698 10.75L4.6298 8.51C4.52215 8.44625 4.39451 8.42517 4.27207 8.45092C4.14964 8.47668 4.04131 8.54739 3.96847 8.64912C3.89564 8.75084 3.86358 8.87618 3.87863 9.00038C3.89369 9.12458 3.95476 9.23863 4.0498 9.32L7.5498 11.82C7.64538 11.8881 7.76187 11.9204 7.87888 11.9113C7.99589 11.9021 8.10595 11.8521 8.18979 11.77L12.9998 5.9C13.0681 5.7967 13.0957 5.67171 13.0772 5.54924C13.0586 5.42677 12.9953 5.31554 12.8994 5.23711C12.8036 5.15867 12.682 5.11861 12.5583 5.12469C12.4346 5.13076 12.3175 5.18255 12.2298 5.27H12.2798Z" fill="#3F334B"/>
</svg>
