<svg width="21" height="21" viewBox="0 0 21 21" fill="none" xmlns="http://www.w3.org/2000/svg">
<g id="Group 3">
<circle id="Ellipse 43" cx="10.5" cy="10.5" r="10.5" fill="#69A4CE" fill-opacity="0.8"/>
<g id="Group">
<path id="Vector" d="M11.6221 14.3974H12.1579V14.885H11.6221V14.3974Z" fill="#050505" stroke="#050505" stroke-width="0.127273"/>
<path id="Vector_2" d="M11.6221 15.3727H12.1579V15.8603H11.6221V15.3727Z" fill="#050505" stroke="#050505" stroke-width="0.127273"/>
<path id="Vector_3" d="M11.6221 16.348H12.1579V16.8355H11.6221V16.348Z" fill="#050505" stroke="#050505" stroke-width="0.127273"/>
<path id="Vector_4" d="M14.3009 13.9098H13.7651V14.3974C13.7651 14.4621 13.7934 14.5241 13.8436 14.5697C14.1294 14.8573 14.2919 15.2288 14.3009 15.6165C14.2893 16.0036 14.1273 16.3745 13.8436 16.6632C13.7934 16.7089 13.7651 16.7709 13.7651 16.8355V17.3232H14.3009V16.9282C15.0154 16.1746 15.0154 15.0584 14.3009 14.3047V13.9098Z" fill="#050505" stroke="#050505" stroke-width="0.127273"/>
<path id="Vector_5" d="M7.3356 14.3047C6.6212 15.0584 6.6212 16.1746 7.3356 16.9282V17.3232H7.87146V16.8355C7.87146 16.7709 7.84313 16.7089 7.79298 16.6632C7.50703 16.3757 7.34473 16.0041 7.3356 15.6165C7.34722 15.2294 7.50928 14.8584 7.79298 14.5697C7.84313 14.5241 7.87146 14.4621 7.87146 14.3974V13.9098H7.3356V14.3047Z" fill="#050505" stroke="#050505" stroke-width="0.127273"/>
<path id="Vector_6" d="M11.0864 8.05814C10.9384 8.05814 10.8185 8.16732 10.8185 8.30197V8.78963H10.5505C10.4026 8.78963 10.2827 8.89882 10.2827 9.03347C10.2827 9.16811 10.4026 9.27719 10.5505 9.27719H10.8185C11.1144 9.27719 11.3543 9.05893 11.3543 8.78963V8.30197C11.3543 8.16732 11.2343 8.05814 11.0864 8.05814Z" fill="#050505" stroke="#050505" stroke-width="0.127273"/>
<path id="Vector_7" d="M9.7468 8.30197C9.7468 8.43662 9.62682 8.5458 9.47887 8.5458C9.33091 8.5458 9.21094 8.43662 9.21094 8.30197C9.21094 8.16732 9.33091 8.05814 9.47887 8.05814C9.62682 8.05814 9.7468 8.16732 9.7468 8.30197Z" fill="#050505" stroke="#050505" stroke-width="0.127273"/>
<path id="Vector_8" d="M12.4254 8.30197C12.4254 8.43662 12.3055 8.5458 12.1576 8.5458C12.0095 8.5458 11.8896 8.43662 11.8896 8.30197C11.8896 8.16732 12.0095 8.05814 12.1576 8.05814C12.3055 8.05814 12.4254 8.16732 12.4254 8.30197Z" fill="#050505" stroke="#050505" stroke-width="0.127273"/>
<path id="Vector_9" d="M13.689 10.984H15.6405C15.7884 10.9842 15.9086 10.8753 15.9089 10.7406C15.909 10.6977 15.8965 10.6555 15.8729 10.6183C15.1947 9.53668 14.8376 8.31309 14.8367 7.06782V6.83909C14.8367 4.81928 13.0375 3.18182 10.818 3.18182C8.59854 3.18182 6.79927 4.81928 6.79927 6.83909V7.06782C6.79844 8.31309 6.44124 9.53668 5.763 10.6183C5.68902 10.7349 5.73288 10.884 5.86104 10.9513C5.90194 10.9728 5.94841 10.984 5.9956 10.984H7.94709C8.06351 11.1083 8.18965 11.2249 8.32457 11.3328C6.79772 11.7033 5.73336 12.9594 5.72767 14.3975V17.3232H6.26353V14.3975C6.26862 13.1237 7.25403 12.0278 8.62486 11.771L8.41052 13.1437C8.38953 13.277 8.49125 13.4006 8.63778 13.4197C8.67205 13.4241 8.70702 13.4225 8.74057 13.4148L9.66516 13.2044L10.55 14.0107V17.3232H11.0859V14.0108L11.9718 13.2044L12.8964 13.4148C13.04 13.4475 13.1855 13.368 13.2213 13.2373C13.2297 13.2067 13.2315 13.175 13.2265 13.1438L13.0121 11.771C14.3826 12.0281 15.3674 13.124 15.3725 14.3975V17.3232H15.9084V14.3975C15.9027 12.9594 14.8383 11.7033 13.3115 11.3328C13.4463 11.2249 13.5724 11.1083 13.689 10.984ZM10.818 11.7154C9.89504 11.7161 9.01644 11.355 8.40672 10.7243V7.76091C8.85794 7.63446 9.24086 7.35923 9.48081 6.98928C9.82011 7.50111 10.429 7.8141 11.0859 7.81431H12.4254C12.8694 7.81431 13.2292 8.14187 13.2292 8.54581V10.7243C12.6195 11.355 11.741 11.7161 10.818 11.7154ZM7.33512 7.06782V6.83909C7.33512 5.08857 8.89445 3.66949 10.818 3.66949C12.7415 3.66949 14.3008 5.08857 14.3008 6.83909V7.06782C14.3015 8.25818 14.6069 9.43213 15.193 10.4964H13.7651V8.54581C13.7641 7.8729 13.165 7.32751 12.4254 7.32676H11.0859C10.3465 7.32589 9.7472 6.78062 9.74637 6.1076C9.74637 5.97295 9.6264 5.86387 9.47844 5.86387C9.33049 5.86387 9.21051 5.97295 9.21051 6.1076C9.21039 6.70035 8.75065 7.21056 8.11212 7.32676L8.08533 7.33161C7.96049 7.35481 7.87098 7.45461 7.87098 7.57059V10.4964H6.44301C7.02902 9.43213 7.33453 8.25818 7.33512 7.06782ZM9.15456 11.8466C9.26007 11.8954 9.3689 11.9358 9.47844 11.9744V12.7446L8.99617 12.8543L9.15456 11.8466ZM10.818 13.565L10.0143 12.8336V12.1234C10.5438 12.2296 11.0923 12.2296 11.6218 12.1234V12.8336L10.818 13.565ZM12.1576 12.7442V11.9739C12.2676 11.9354 12.3759 11.8937 12.4815 11.8461L12.6398 12.8538L12.1576 12.7442Z" fill="#050505" stroke="#050505" stroke-width="0.127273"/>
<path id="Vector_10" d="M11.0864 10.7402H10.5505C10.4026 10.7402 10.2827 10.8494 10.2827 10.984C10.2827 11.1187 10.4026 11.2277 10.5505 11.2277H11.0864C11.2343 11.2277 11.3543 11.1187 11.3543 10.984C11.3543 10.8494 11.2343 10.7402 11.0864 10.7402Z" fill="#050505" stroke="#050505" stroke-width="0.127273"/>
</g>
</g>
</svg>
