<svg width="27" height="27" viewBox="0 0 27 27" fill="none" xmlns="http://www.w3.org/2000/svg">
<g id="facuality icon">
<circle id="Ellipse 56" cx="13.5" cy="13.5" r="13.5" fill="#2D8FA5"/>
<g id="Capa_1">
<g id="XMLID_129_">
<path id="XMLID_134_" d="M20.295 7.01172H12.6035C12.3476 7.01172 12.1406 7.21933 12.1406 7.47484V10.7414L12.4753 10.3501C12.6342 10.1641 12.8437 10.0494 13.0664 10.0015V7.93778H19.8321V13.9849H13.0664V12.9727L12.858 13.2164C12.6758 13.4289 12.4187 13.5608 12.1406 13.5868V14.4479C12.1406 14.7034 12.3476 14.9108 12.6035 14.9108H15.1015L13.8324 20.6725C13.7755 20.9309 13.9388 21.1864 14.1974 21.2434C14.4537 21.2997 14.7113 21.1369 14.7676 20.8788L16.0821 14.9108H16.8462L18.1606 20.8788C18.2098 21.1023 18.408 21.2547 18.6278 21.2545C18.6619 21.2545 18.6968 21.251 18.7313 21.2434C18.9899 21.1864 19.1532 20.9309 19.0958 20.6725L17.8269 14.9108H20.2951C20.5507 14.9108 20.7579 14.7034 20.7579 14.4479V7.47484C20.7579 7.21933 20.5507 7.01172 20.295 7.01172Z" fill="white"/>
<path id="XMLID_132_" d="M16.6185 9.71578C16.582 9.62383 16.4785 9.57868 16.3867 9.61508L13.6597 10.5776C13.4094 10.3838 13.0483 10.4184 12.8396 10.6612L11.9743 11.6717L11.207 11.014C11.2121 11.0683 11.2236 11.1211 11.2236 11.1768V12.6046L11.6505 12.9703C11.9038 13.1873 12.2827 13.1538 12.4945 12.9054L13.5247 11.7007L14.3555 11.2147L16.5419 9.93548C16.6175 9.8919 16.651 9.79877 16.6185 9.71578Z" fill="white"/>
<path id="XMLID_131_" d="M9.5392 9.9718H9.02531C8.63185 9.9718 8.28587 10.163 8.06596 10.4545L6.48856 11.9068C6.24278 12.1257 6.22048 12.505 6.44181 12.7522L7.72876 14.1887C7.94817 14.4344 8.32797 14.4561 8.57372 14.2353C8.82013 14.0145 8.84094 13.6362 8.62014 13.3901L7.73308 12.3996L8.99306 11.2721L8.25923 12.2691L8.97706 13.0705C9.37372 13.5138 9.33632 14.1948 8.89327 14.5918C8.59078 14.863 8.17798 14.9266 7.82012 14.8015C7.82012 14.8015 7.82568 17.5706 7.82568 20.5362C7.82568 20.9328 8.14718 21.2544 8.54386 21.2544C8.94014 21.2544 9.26205 20.9328 9.26205 20.5362C9.26205 17.5715 9.26205 19.2633 9.26205 16.2559H9.74111C9.74111 19.2612 9.74111 17.5706 9.74111 20.5362C9.74111 20.7433 9.68336 20.935 9.5913 21.1048C9.71181 21.1975 9.86176 21.2544 10.0252 21.2544C10.4221 21.2544 10.7436 20.9328 10.7436 20.5362C10.7436 17.5715 10.7445 18.8144 10.7445 11.1768C10.7446 10.5113 10.2051 9.9718 9.5392 9.9718Z" fill="white"/>
<path id="XMLID_130_" d="M8.64215 9.54081C8.83418 9.64063 9.04978 9.70257 9.28137 9.70257C9.51355 9.70257 9.72915 9.64063 9.92174 9.54064C10.3713 9.30774 10.6811 8.84409 10.6811 8.30295C10.6811 7.52992 10.0544 6.90344 9.28134 6.90344C8.50837 6.90344 7.88184 7.52992 7.88184 8.30295C7.88187 8.84439 8.19204 9.30822 8.64215 9.54081Z" fill="white"/>
</g>
</g>
</g>
</svg>
