<svg width="126" height="98" viewBox="0 0 126 98" fill="none" xmlns="http://www.w3.org/2000/svg">
<g opacity="0.7">
<path d="M23.8946 82.1969C17.3312 79.6961 8.28822 70.4902 6.74 58.8377C5.62831 50.4738 7.37248 44.3489 9.95091 39.9176C14.4152 32.2463 22.7247 29.534 31.3893 28.2982C42.4442 26.7228 47.57 20.1438 55.0725 12.1175C63.4558 3.15022 85.486 -5.73751 97.7379 4.74501C105.712 11.5665 102.951 22.472 108.492 28.0983C114.066 33.7558 121.561 32.0446 124.636 42.8433C127.032 51.2557 121.922 65.3488 106.95 75.8682C93.1553 85.5591 46.8017 90.9178 23.8946 82.193V82.1969Z" fill="#DEF9FF"/>
<path d="M55.4489 97.2406H97.7883C99.1658 97.2406 100.281 96.158 100.281 94.8232V10.7671C100.281 9.43232 99.1639 8.34973 97.7883 8.34973H55.4489C54.0714 8.34973 52.9558 9.43232 52.9558 10.7671V94.8232C52.9558 96.158 54.0733 97.2406 55.4489 97.2406Z" fill="#976063"/>
<path d="M98.869 16.8029V23.0889C98.869 23.345 98.6595 23.5565 98.4015 23.5565H98.3627V94.8213C98.3627 96.1561 97.2452 97.2387 95.8677 97.2387H53.5282C52.1507 97.2387 51.0332 96.158 51.0332 94.8213V40.325H50.9731C50.717 40.325 50.5074 40.1135 50.5074 39.8574V33.5714C50.5074 33.3153 50.717 33.1058 50.9731 33.1058H51.0332V30.9309H50.9731C50.717 30.9309 50.5074 30.7214 50.5074 30.4633V24.1792C50.5074 23.9212 50.717 23.7117 50.9731 23.7117H51.0332V10.7671C51.0332 9.43232 52.1507 8.34973 53.5282 8.34973H95.8677C97.2452 8.34973 98.3627 9.43038 98.3627 10.7671V16.3392H98.4015C98.6595 16.3392 98.869 16.5487 98.869 16.8048V16.8029Z" fill="#FDFFFE"/>
<path d="M51.2291 55.1398H50.8411V40.5035C50.5423 40.4414 50.3153 40.1736 50.3153 39.8555V33.5694C50.3153 33.2513 50.5404 32.9855 50.8411 32.9234V31.1094C50.5423 31.0473 50.3153 30.7795 50.3153 30.4614V24.1773C50.3153 23.8591 50.5404 23.5914 50.8411 23.5293V10.7671C50.8411 9.32754 52.0478 8.1557 53.5301 8.1557H95.8695C97.3518 8.1557 98.5586 9.32754 98.5586 10.7671V16.1626C98.8496 16.2325 99.0669 16.4944 99.0669 16.8048V23.0908C99.0669 23.4032 98.8496 23.6651 98.5586 23.7349V50.6309H98.1705V23.3644H98.4033C98.5547 23.3644 98.6769 23.2421 98.6769 23.0908V16.8048C98.6769 16.6554 98.5547 16.5332 98.4033 16.5332H98.1705V10.7691C98.1705 9.54289 97.1384 8.54567 95.8695 8.54567H53.5301C52.2613 8.54567 51.2291 9.54289 51.2291 10.7691V23.9057H50.975C50.8256 23.9057 50.7033 24.0279 50.7033 24.1792V30.4633C50.7033 30.6146 50.8256 30.7369 50.975 30.7369H51.2291V33.2998H50.975C50.8256 33.2998 50.7033 33.422 50.7033 33.5714V39.8574C50.7033 40.0068 50.8275 40.131 50.975 40.131H51.2291V55.1417V55.1398Z" fill="#976063"/>
<path d="M95.8676 97.4346H53.5281C52.0459 97.4346 50.8391 96.2628 50.8391 94.8232V79.5234H51.2271V94.8232C51.2271 96.0494 52.2593 97.0466 53.5281 97.0466H95.8676C97.1364 97.0466 98.1686 96.0494 98.1686 94.8232V62.848H98.5566V94.8232C98.5566 96.2628 97.3498 97.4346 95.8676 97.4346Z" fill="#976063"/>
<path d="M96.0771 13.1341V91.7946C96.0771 93.0441 95.0702 94.0568 93.8285 94.0568H55.6371C54.3935 94.0568 53.3865 93.0441 53.3865 91.7927V13.1321C53.3865 11.8827 54.3935 10.8699 55.6351 10.8699H66.7851C67.142 10.8699 67.4311 11.161 67.4311 11.5199V12.5772C67.4311 13.0448 67.8095 13.429 68.277 13.429H81.1867C81.6523 13.429 82.0325 13.0448 82.0325 12.5772V11.5199C82.0325 11.161 82.3216 10.8699 82.6786 10.8699H93.8266C95.0702 10.8699 96.0771 11.8827 96.0771 13.1341Z" fill="#FCEADC"/>
<path d="M69.4915 11.2696C69.4915 11.4908 69.313 11.6693 69.0919 11.6693C68.8707 11.6693 68.6922 11.4908 68.6922 11.2696C68.6922 11.0484 68.8707 10.8699 69.0919 10.8699C69.313 10.8699 69.4915 11.0484 69.4915 11.2696Z" fill="#5E3B3B"/>
<path d="M80.7016 11.4908H71.5345C71.4123 11.4908 71.3134 11.3919 71.3134 11.2696C71.3134 11.1474 71.4123 11.0485 71.5345 11.0485H80.7016C80.8239 11.0485 80.9228 11.1474 80.9228 11.2696C80.9228 11.3919 80.8239 11.4908 80.7016 11.4908Z" fill="#5E3B3B"/>
<path d="M56.8807 58.3546L92.5131 58.3546C93.2503 58.3546 93.8479 57.757 93.8479 57.0198V21.9753C93.8479 21.2381 93.2503 20.6404 92.5131 20.6404L56.8807 20.6404C56.1435 20.6404 55.5459 21.2381 55.5459 21.9753L55.5459 57.0198C55.5459 57.757 56.1435 58.3546 56.8807 58.3546Z" fill="white"/>
<path d="M90.895 58.5486H57.0747C56.124 58.5486 55.3519 57.7765 55.3519 56.8258V25.4365H55.7399V56.8258C55.7399 57.5611 56.3394 58.1606 57.0747 58.1606H90.895V58.5486Z" fill="#976063"/>
<path d="M93.8499 49.2244H93.4618V21.9753C93.4618 21.4534 93.0369 21.0285 92.515 21.0285H60.3749V20.6404H92.515C93.2504 20.6404 93.8499 21.2399 93.8499 21.9753V49.2244Z" fill="#976063"/>
<path d="M86.6985 65.0985H62.6972C61.495 65.0985 60.5204 66.0731 60.5204 67.2753V70.2651C60.5204 71.4673 61.495 72.4419 62.6972 72.4419H86.6985C87.9008 72.4419 88.8754 71.4673 88.8754 70.2651V67.2753C88.8754 66.0731 87.9008 65.0985 86.6985 65.0985Z" fill="#FD755F"/>
<path d="M86.6985 72.6339H66.4241V72.2459H86.6985C87.7927 72.2459 88.6813 71.3554 88.6813 70.2631V67.2753H89.0693V70.2631C89.0693 71.5707 88.0061 72.6339 86.6985 72.6339Z" fill="#976063"/>
<path d="M62.6991 72.634C61.3915 72.634 60.3283 71.5708 60.3283 70.2631V67.2753C60.3283 65.9677 61.3915 64.9045 62.6991 64.9045H77.3976V65.2925H62.6991C61.6049 65.2925 60.7163 66.183 60.7163 67.2753V70.2631C60.7163 71.3574 61.6069 72.2459 62.6991 72.2459V72.634Z" fill="#976063"/>
<path d="M86.6986 64.9045H81.1188V65.2925H86.6986V64.9045Z" fill="#976063"/>
<path d="M69.9184 66.8116H71.2416C71.6878 66.8116 72.0234 66.8931 72.2466 67.058C72.4697 67.223 72.5822 67.4635 72.5822 67.7798V68.1659C72.5822 68.4821 72.4697 68.7227 72.2466 68.8876C72.0234 69.0525 71.6878 69.134 71.2416 69.134H70.8167V70.7288H69.9184V66.8136V66.8116ZM71.2416 68.5733C71.389 68.5733 71.4996 68.5461 71.5733 68.4899C71.6471 68.4336 71.6839 68.3385 71.6839 68.2047V67.741C71.6839 67.6071 71.6471 67.512 71.5733 67.4558C71.4996 67.3995 71.389 67.3723 71.2416 67.3723H70.8167V68.5752H71.2416V68.5733Z" fill="#FDFFFE"/>
<path d="M73.9713 66.8116H75.1878L76.119 70.7268H75.2207L75.0578 69.9488V69.9605H74.0373L73.8743 70.7268H73.04L73.9713 66.8116ZM74.9511 69.4289L74.5514 67.4926H74.5359L74.144 69.4289H74.953H74.9511Z" fill="#FDFFFE"/>
<path d="M77.4927 69.0603L76.4062 66.8116H77.3627L77.9757 68.2493H77.9913L78.6043 66.8116H79.4793L78.3929 69.0603V70.7268H77.4946V69.0603H77.4927Z" fill="#FDFFFE"/>
<path d="M111.815 94.9591L112.13 91.2786H109.431L109.594 94.9591H111.815Z" fill="#FFB486"/>
<path d="M112.122 91.3369L111.943 93.4089C110.993 93.4691 110.075 93.3526 109.518 93.2576L109.421 91.1176L112.124 91.3369H112.122Z" fill="#FCA377"/>
<path d="M107.295 92.4834C109.848 92.8831 112.221 93.0519 114.025 92.4834C114.025 92.4834 115.552 75.3715 112.846 59.6487L107.433 59.672C107.433 59.672 105.351 78.5669 107.295 92.4834Z" fill="#BB8A5C"/>
<path d="M107.087 43.9996C106.055 43.7493 105.415 43.3011 105.184 42.6648C104.846 41.7374 105.506 40.7984 105.582 40.6956L105.785 40.8449C105.758 40.8818 105.124 41.7607 105.421 42.5794C105.621 43.1304 106.201 43.5262 107.146 43.7551L107.087 43.9996Z" fill="#5E3B3B"/>
<path d="M96.0053 94.9591L97.1656 91.2786H94.4668L93.6423 94.9591H96.0053Z" fill="#FFB486"/>
<path d="M97.1713 91.2456L96.5311 93.2692C95.3166 93.4865 94.3795 93.2808 94.0477 93.1877L94.5075 91.1312H95.4718L97.1713 91.2456Z" fill="#FCA377"/>
<path d="M110.285 48.7704C110.285 48.7704 117.57 50.1052 116.914 57.3128C116.641 60.3083 114.376 62.3785 114.376 62.3785L113.544 59.8466L110.63 60.8263L110.283 48.7704H110.285Z" fill="#4E94AA"/>
<path d="M106.238 49.4669L106.75 45.5479H109.066L109.611 49.4669H106.238Z" fill="#FFB587"/>
<path d="M107.421 47.0611C108.886 46.6498 110.615 44.6282 109.968 42.2923C109.456 40.4395 106.292 40.9516 105.446 42.5406C104.136 45.0065 104.055 48.006 107.421 47.0611Z" fill="#FFB587"/>
<path d="M94.0575 53.3879C93.9158 53.287 93.4541 52.9785 93.3784 52.8214C93.3105 52.6759 93.0389 51.8435 92.8662 51.9173C92.6858 51.9949 92.9923 52.5284 92.841 52.5653C92.7479 52.5886 92.1309 51.5506 91.966 51.7194C91.8574 51.83 92.3172 52.4062 92.2396 52.443C92.1678 52.476 91.7506 51.6476 91.5819 51.8028C91.4053 51.9658 92.16 52.6642 92.0747 52.7341C92.032 52.769 91.3762 51.8474 91.2423 51.9774C91.0638 52.152 91.805 52.7923 91.7293 52.8796C91.6924 52.9223 91.4713 52.6487 91.318 52.5032C91.2326 52.4217 91.155 52.478 91.1802 52.5536C91.4383 53.3355 92.678 54.0592 92.7595 54.1717C92.8798 54.3405 93.002 54.5054 93.1243 54.6626L94.0555 53.3879H94.0575Z" fill="#FFBA8C"/>
<path d="M92.4142 92.3204C94.8781 92.6697 97.183 92.7492 99.1852 92.3204C107.491 76.9139 110.966 59.509 110.966 59.509H104.55C96.2615 73.7864 92.4142 92.3204 92.4142 92.3204Z" fill="#BB8A5C"/>
<path d="M97.7592 55.0331L94.1157 53.0735L92.7886 54.8003C92.7886 54.8003 94.9363 60.3975 99.1464 59.9261C102.514 59.5497 104.546 53.2365 104.546 53.2365L97.7592 55.035V55.0331Z" fill="#4E94AA"/>
<path d="M114.45 64.1983C108.657 66.8349 100.235 64.5262 100.235 64.5262L100.491 63.6725L100.53 63.5406L102.72 56.2457L96.9599 56.1759C96.9599 56.1759 100.819 50.761 103.065 49.4436C103.653 49.1002 104.439 48.8402 105.33 48.6773C105.399 48.6656 105.469 48.652 105.541 48.6423C106.988 48.4056 108.682 48.4231 110.223 48.749C110.277 48.7607 110.331 48.7723 110.384 48.784C111.249 48.9799 112.062 49.2748 112.751 49.6803C112.751 49.6803 112.337 52.0065 112.916 53.5877C114.233 57.1808 114.431 61.4705 114.45 63.3C114.45 63.3524 114.45 63.4009 114.45 63.4475C114.454 63.9228 114.444 64.1963 114.444 64.1963L114.45 64.1983Z" fill="#4E94AA"/>
<path d="M109.384 65.3953C109.299 65.4012 109.214 65.4089 109.126 65.4147C109.064 65.4186 109.002 65.4225 108.94 65.4264C104.433 65.6786 100.233 64.5262 100.233 64.5262L100.491 63.6725L100.53 63.5425L102.231 57.8521C102.518 57.5592 103.962 55.2058 104.187 54.2551C104.187 54.2551 104.282 56.69 103.518 58.6864C103.034 59.9475 102.491 61.8197 103.135 63.007C103.97 64.5475 109.313 65.374 109.386 65.3953H109.384Z" fill="#376580"/>
<path d="M99.6543 52.6466L97.2479 55.6035L97.4435 55.7627L99.8499 52.8058L99.6543 52.6466Z" fill="#5E3B3B"/>
<path d="M106.226 47.2979C105.502 47.2979 105.108 46.9253 105.087 46.904L105.264 46.7236C105.289 46.7488 105.91 47.3347 107.089 46.8671L107.182 47.1019C106.82 47.2455 106.5 47.2979 106.228 47.2979H106.226Z" fill="#5E3B3B"/>
<path d="M109.493 48.5841C107.784 49.3873 106.366 48.5104 106.366 48.5104L106.406 48.198L109.431 48.1573L109.493 48.5841Z" fill="#FFB587"/>
<path d="M107.664 64.7939C104.332 64.7939 101.513 64.0955 100.456 63.7947L100.526 63.5522C101.574 63.8491 104.365 64.5398 107.664 64.5398C110.19 64.5398 112.458 64.1343 114.407 63.3311L114.503 63.5639C112.524 64.3787 110.223 64.79 107.664 64.79V64.7939Z" fill="#5E3B3B"/>
<path d="M114.65 64.1983H114.398C114.398 64.1362 114.38 57.9375 112.869 53.6071L113.108 53.5237C114.632 57.8948 114.65 64.1362 114.65 64.1983Z" fill="#5E3B3B"/>
<path d="M108.281 49.595C107.072 49.595 105.927 49.0129 105.479 48.7549L105.605 48.5356C106.274 48.9217 108.579 50.0683 110.139 48.6579L110.308 48.8441C109.691 49.4009 108.975 49.593 108.281 49.593V49.595Z" fill="#5E3B3B"/>
<path d="M89.7388 96.9302H96.762L96.2828 94.1713C94.7909 94.8465 94.1118 94.4216 93.6598 94.2742C93.6598 94.2742 93.3086 94.5923 92.8895 94.7514C91.7798 95.1744 89.8183 95.7972 89.7698 96.3152C89.7698 96.3152 89.7698 96.3171 89.7698 96.321C89.7155 96.5907 89.7329 96.8468 89.7407 96.9302H89.7388Z" fill="#5E3B3B"/>
<path d="M91.6711 95.6904L91.5741 95.6769C91.5838 95.4227 91.6168 95.1569 91.6653 94.926L91.8554 94.9668C91.8089 95.186 91.7778 95.4421 91.7681 95.6846L91.6711 95.6904Z" fill="#FDFFFE"/>
<path d="M92.2745 95.5469H92.0804C92.0804 95.5469 92.0863 95.1531 92.1833 94.7301L92.3715 94.7728C92.2803 95.1686 92.2745 95.543 92.2745 95.545V95.5469Z" fill="#FDFFFE"/>
<path d="M105.462 96.9302H112.485L112.006 94.1713C110.514 94.8465 109.835 94.4216 109.383 94.2742C109.383 94.2742 109.031 94.5923 108.612 94.7514C107.503 95.1744 105.541 95.7972 105.493 96.3152C105.493 96.3152 105.493 96.3171 105.493 96.321C105.438 96.5907 105.456 96.8468 105.463 96.9302H105.462Z" fill="#5E3B3B"/>
<path d="M107.394 95.6905L107.297 95.6749C107.309 95.4169 107.34 95.1569 107.388 94.928L107.578 94.9687C107.532 95.186 107.501 95.4402 107.491 95.6846L107.394 95.6943V95.6905Z" fill="#FDFFFE"/>
<path d="M107.995 95.5469H107.801C107.801 95.5469 107.807 95.1531 107.904 94.7301L108.092 94.7728C108.001 95.1686 107.995 95.543 107.995 95.545V95.5469Z" fill="#FDFFFE"/>
<path d="M104.654 54.4102L103.381 55.8383L103.57 56.0061L104.843 54.578L104.654 54.4102Z" fill="#5E3B3B"/>
<path d="M113.922 63.6745H113.67C113.67 62.2465 113.486 60.2346 113.484 60.2133L113.734 60.19C113.734 60.2094 113.922 62.2368 113.922 63.6745Z" fill="#5E3B3B"/>
<path d="M98.6536 60.1512C94.6822 60.1512 92.6237 54.9225 92.6043 54.8702L92.8391 54.779C92.8585 54.8294 94.8529 59.899 98.6536 59.899C98.8147 59.899 98.9796 59.8893 99.1425 59.8718C102.437 59.5032 104.414 53.4752 104.497 53.2172L104.738 53.2948C104.653 53.5567 102.627 59.736 99.1716 60.1221C99.0009 60.1415 98.8263 60.1512 98.6556 60.1512H98.6536Z" fill="#5E3B3B"/>
<path d="M114.31 52.9746C112.789 53.8826 109.179 53.6634 107.883 50.6445C106.928 48.4192 107.396 45.9009 107.621 45.1986L107.227 43.953C107.227 43.953 105.246 43.0877 105.743 40.8042C105.743 40.8042 105.962 40.9769 106.631 40.9226C107.004 40.8896 107.99 40.5248 108.962 40.7324C108.963 40.7324 108.967 40.7324 108.969 40.7344C109.848 40.8488 111.682 41.4561 111.868 44.3643C112.023 46.7623 114.019 47.0184 114.964 47.9827C116.856 49.9092 116.026 51.9483 114.307 52.9746H114.31Z" fill="#5E3B3B"/>
<path d="M108.118 44.5545C108.118 44.9153 107.827 45.2064 107.466 45.2064C107.105 45.2064 106.814 44.9153 106.814 44.5545C106.814 44.1936 107.105 43.9026 107.466 43.9026C107.827 43.9026 108.118 44.1936 108.118 44.5545Z" fill="#FFB587"/>
<path d="M116.575 49.2321C116.421 48.6113 116.033 48.0273 115.42 47.4957C115.133 47.2454 114.763 47.0592 114.371 46.8632C113.373 46.3627 112.341 45.8447 112.099 44.1703C111.689 41.328 109.821 40.9264 109.035 40.8857H109.016C108.308 40.7906 107.615 41.0021 107.157 41.1437C107 41.1922 106.864 41.233 106.767 41.2504L106.727 41.0021C106.806 40.9885 106.942 40.9478 107.083 40.9032C107.563 40.7557 108.288 40.5345 109.051 40.6335C109.899 40.6781 111.914 41.1069 112.351 44.1335C112.574 45.6778 113.546 46.1648 114.485 46.6382C114.891 46.8419 115.275 47.0359 115.587 47.3056C116.239 47.8721 116.654 48.5007 116.819 49.172L116.575 49.2321Z" fill="#5E3B3B"/>
<path d="M112.815 92.7473C111.216 92.9723 109.311 92.8036 107.295 92.4854C106.536 87.0549 106.432 80.9474 106.534 75.4161C106.538 75.4801 108.193 70.1467 108.193 70.1467C108.193 70.1467 107.471 74.3122 107.72 76.8208C107.976 79.4108 108.923 80.1753 109.287 83.0932C109.501 84.7986 108.649 86.0829 108.96 87.8698C109.285 89.7498 110.727 90.9139 112.136 92.1788C112.339 92.3631 112.591 92.5475 112.815 92.7473Z" fill="#9B6C49"/>
<path d="M106.571 75.7712L106.333 75.6878C107.008 73.7457 107.656 71.7493 108.257 69.751L108.498 69.8247C107.894 71.8269 107.246 73.8272 106.569 75.7731L106.571 75.7712Z" fill="#FDFFFE"/>
<path d="M99.5713 91.5948C99.4452 91.8373 99.3172 92.0799 99.1852 92.3204C97.185 92.7492 94.8781 92.6677 92.4142 92.3204C92.4142 92.3204 94.1661 83.877 97.8543 73.9979C98.025 75.808 97.5807 77.6938 97.0491 79.4613C96.3488 81.7855 95.4932 84.1525 95.7085 86.5718C95.8637 88.3238 96.7678 90.1921 98.3044 91.1331C98.6711 91.3581 99.1173 91.4842 99.5713 91.5929V91.5948Z" fill="#9B6C49"/>
<path d="M97.5051 75.5461L97.2684 75.4607C98.7759 71.2681 100.309 67.5159 101.704 64.6115L101.931 64.7202C100.539 67.6168 99.0087 71.3593 97.5051 75.5441V75.5461Z" fill="#FDFFFE"/>
<path d="M42.4772 31.6488C42.1764 49.238 16.0119 49.236 15.715 31.6488C16.0157 14.0595 42.1803 14.0615 42.4772 31.6488Z" fill="#4E94AA"/>
<path d="M42.4772 31.6488C42.1764 49.238 16.0119 49.236 15.715 31.6488C16.0157 14.0595 42.1803 14.0615 42.4772 31.6488Z" fill="#FD755F"/>
<path d="M40.7505 31.6487C40.4886 46.968 17.7017 46.9661 17.4418 31.6487C17.7037 16.3295 40.4905 16.3314 40.7505 31.6487Z" fill="white"/>
<path d="M40.7505 31.6487C40.4886 46.968 17.7017 46.9661 17.4418 31.6487C17.7037 16.3295 40.4905 16.3314 40.7505 31.6487Z" fill="white"/>
<path d="M35.97 33.3522L29.5211 31.2763L26.153 23.2829C26.0773 23.1025 25.9027 22.9861 25.7068 22.9861C25.3692 22.9803 25.1228 23.347 25.2605 23.6574L28.4385 31.1987L19.7176 28.6202C19.5915 28.5814 19.4498 28.659 19.4149 28.7871C19.38 28.9132 19.4537 29.0471 19.5798 29.0839L28.681 31.7749L28.7237 31.8758L28.6771 32.0174L28.7993 32.0562L28.8439 32.1648L28.9701 32.1125L35.6713 34.2699C36.2649 34.4717 36.5695 33.5326 35.9681 33.3483L35.97 33.3522Z" fill="#5E3B3B"/>
<path d="M27.7419 23.702V24.0512H29.0185V23.702H28.6053V21.7949H28.289L27.5906 22.4002C27.7982 22.7863 27.9495 22.5961 28.194 22.3788V23.702H27.7419Z" fill="#5E3B3B"/>
<path d="M30.559 23.6534C30.559 23.6534 29.8392 23.6534 29.8315 23.6534C31.9113 22.0451 29.5016 20.9625 29.2067 22.5049C29.8062 22.7202 29.5113 22.0218 30.0876 22.1692C30.8345 22.7823 29.0496 23.4187 29.1738 24.0512H30.7259C30.7181 23.9134 30.7782 23.6515 30.559 23.6534Z" fill="#5E3B3B"/>
<path d="M29.6878 40.1251C29.5268 39.9719 29.2862 39.9156 29.0689 39.9525L29.7208 39.1279C29.6315 39.1415 29.294 39.1008 29.2183 39.1551C29.1659 39.1396 28.6421 39.9001 28.6013 39.9389C27.315 41.7257 30.7316 41.9042 29.6878 40.1271V40.1251ZM28.7313 40.6567C28.7177 40.1795 29.5171 40.1698 29.4841 40.6626C29.5054 41.1515 28.6886 41.1612 28.7313 40.6567Z" fill="#5E3B3B"/>
<path d="M38.8259 31.6701C38.7813 31.6138 38.723 31.5673 38.6532 31.5304C39.6446 30.5506 37.4911 29.8697 37.4406 31.1676C37.5784 31.187 37.8209 31.2743 37.8636 31.0706C38.2594 30.2751 38.9753 31.4858 37.9974 31.3907V31.7302C38.7192 31.5886 38.6842 32.5199 38.0149 32.3375C37.7142 32.1687 37.8267 31.8059 37.3688 32.0698C37.5124 33.2164 39.4622 32.7081 38.8259 31.6682V31.6701Z" fill="#5E3B3B"/>
<path d="M20.5712 30.6515C19.4537 29.695 18.5573 31.9766 20.09 31.835L19.4188 32.7139C19.5623 32.6945 19.9174 32.7759 20.0066 32.6207C20.3461 32.0872 21.1629 31.2801 20.5712 30.6515ZM19.6981 31.0124C19.8728 30.603 20.5343 30.8649 20.352 31.2898C20.1735 31.7069 19.5041 31.4528 19.6981 31.0124Z" fill="#5E3B3B"/>
<path d="M23.6816 21.5008L23.2935 21.7249L24.0473 23.0304L24.4354 22.8063L23.6816 21.5008Z" fill="#976063"/>
<path d="M34.1457 40.2189L33.7576 40.443L34.5113 41.7485L34.8994 41.5244L34.1457 40.2189Z" fill="#976063"/>
<path d="M19.093 25.5824L18.865 25.9772L20.2243 26.762L20.4522 26.3672L19.093 25.5824Z" fill="#976063"/>
<path d="M19.093 25.5824L18.865 25.9772L20.2243 26.762L20.4522 26.3672L19.093 25.5824Z" fill="#976063"/>
<path d="M37.9648 36.4785L37.7368 36.8734L39.0961 37.6581L39.3241 37.2633L37.9648 36.4785Z" fill="#976063"/>
<path d="M20.2255 36.4811L18.8662 37.2659L19.0942 37.6607L20.4535 36.8759L20.2255 36.4811Z" fill="#976063"/>
<path d="M20.2255 36.4811L18.8662 37.2659L19.0942 37.6607L20.4535 36.8759L20.2255 36.4811Z" fill="#976063"/>
<path d="M39.0973 25.5775L37.7382 26.3625L37.9662 26.7573L39.3253 25.9723L39.0973 25.5775Z" fill="#976063"/>
<path d="M24.0474 40.2141L23.2936 41.5197L23.6818 41.7437L24.4355 40.4382L24.0474 40.2141Z" fill="#976063"/>
<path d="M24.0474 40.2141L23.2936 41.5197L23.6818 41.7437L24.4355 40.4382L24.0474 40.2141Z" fill="#976063"/>
<path d="M34.5087 21.4948L33.755 22.8004L34.1431 23.0244L34.8969 21.7189L34.5087 21.4948Z" fill="#976063"/>
<path d="M30.3048 31.6487C30.3281 33.2164 27.8641 33.2164 27.8874 31.6487C27.8641 30.0811 30.3281 30.0811 30.3048 31.6487Z" fill="#F75D59"/>
<path d="M29.0961 43.303C23.4989 43.303 17.4146 39.6556 17.2788 31.6526C17.4146 23.6418 23.5008 19.9963 29.0981 19.9963C34.6953 19.9963 40.7796 23.6418 40.9154 31.6468V31.6526C40.7796 39.6575 34.6934 43.303 29.0961 43.303ZM29.0981 20.3242C23.6579 20.3242 17.7406 23.8688 17.6067 31.6506C17.7386 39.4267 23.6541 42.9713 29.0961 42.9732C34.5363 42.9732 40.4517 39.4305 40.5875 31.6487C40.4536 23.8688 34.5382 20.3242 29.0981 20.3242Z" fill="#976063"/>
<path d="M40.9678 25.6538C39.9337 23.5138 38.2904 21.7367 36.2125 20.5105L36.3794 20.2272C38.5135 21.4844 40.2014 23.312 41.2646 25.5102L40.9678 25.6538Z" fill="#976063"/>
<path d="M15.9013 34.784C15.6859 33.7925 15.5676 32.7391 15.5501 31.6506C15.6452 26.0611 18.2585 22.8638 20.4334 21.1662C23.6987 18.6169 28.1959 17.6856 32.4661 18.677L32.3924 18.9971C28.2192 18.029 23.8228 18.937 20.6371 21.4262C18.5185 23.0811 15.9731 26.1969 15.8799 31.6526C15.8974 32.7119 16.0138 33.744 16.2253 34.716L15.9032 34.7859L15.9013 34.784Z" fill="#976063"/>
<path d="M29.1077 45.0085C25.0703 45.0085 21.1513 43.369 18.6291 40.4026L18.8794 40.1892C22.3522 44.2751 28.549 45.7767 33.9483 43.8444C39.1634 41.978 42.2133 37.5312 42.3142 31.6468L42.644 31.6526C42.5897 34.8053 41.7244 37.5331 40.0714 39.7662C38.595 41.7587 36.5171 43.2759 34.0609 44.1548C32.4506 44.731 30.7704 45.0085 29.1097 45.0085H29.1077Z" fill="#976063"/>
<path d="M73.6104 27.8248H59.7947V38.4528H73.6104V27.8248Z" fill="#226F91"/>
<path d="M89.601 27.8248H75.7853V38.4528H89.601V27.8248Z" fill="#226F91"/>
<path d="M73.6104 40.5423H59.7947V51.1703H73.6104V40.5423Z" fill="#226F91"/>
<path d="M89.601 40.5423H75.7853V51.1703H89.601V40.5423Z" fill="#226F91"/>
<path d="M82.2187 48.8635C81.8094 48.7898 81.499 48.6229 81.2836 48.3629C81.0683 48.101 80.9615 47.7673 80.9615 47.3618V46.9428H82.0597V47.4259C82.0597 47.7964 82.2595 47.9807 82.6611 47.9807C83.0627 47.9807 83.2625 47.7887 83.2625 47.4065C83.2625 47.1698 83.1927 46.9563 83.0511 46.7643C82.9094 46.5722 82.6495 46.3491 82.2692 46.0949C81.7977 45.7729 81.466 45.4721 81.2758 45.1928C81.0857 44.9134 80.9907 44.5972 80.9907 44.246C80.9907 43.8521 81.0954 43.5262 81.303 43.272C81.5106 43.0179 81.8152 42.8491 82.2168 42.7715V42.2166H83.1675V42.7715C83.5768 42.8452 83.8853 43.0101 84.0968 43.2682C84.3083 43.5262 84.413 43.858 84.413 44.2654V44.4478H83.3149V44.2014C83.3149 43.825 83.1209 43.6368 82.7348 43.6368C82.3487 43.6368 82.1547 43.8192 82.1547 44.1839C82.1547 44.4031 82.2246 44.6049 82.3662 44.7892C82.5078 44.9755 82.7678 45.1986 83.1481 45.4586C83.6195 45.7864 83.9513 46.0911 84.1414 46.3743C84.3316 46.6576 84.4266 46.9796 84.4266 47.3444C84.4266 47.7576 84.3199 48.0952 84.1046 48.3591C83.8892 48.6229 83.5788 48.7917 83.1694 48.8654V49.5037H82.2187V48.8654V48.8635Z" fill="white"/>
<path d="M58.8072 63.5968V68.1018H14.9875V63.5968C14.9875 62.2407 16.0972 61.1309 17.4534 61.1309H56.3413C57.6975 61.1309 58.8072 62.2407 58.8072 63.5968Z" fill="#4E94AA"/>
<path d="M58.8072 68.1019V94.571C58.8072 95.9272 57.6975 97.037 56.3413 97.037H17.4534C16.0972 97.037 14.9875 95.9272 14.9875 94.571V68.1019H58.8072Z" fill="#FDFFFE"/>
<path d="M21.6945 72.7562H17.595V76.1087H21.6945V72.7562Z" fill="#E2EDD3"/>
<path d="M21.6945 78.0818H17.595V81.4344H21.6945V78.0818Z" fill="#E2EDD3"/>
<path d="M21.6945 83.4075H17.595V86.7601H21.6945V83.4075Z" fill="#E2EDD3"/>
<path d="M21.6945 88.7351H17.595V92.0876H21.6945V88.7351Z" fill="#E2EDD3"/>
<path d="M27.4451 72.7562H23.3456V76.1087H27.4451V72.7562Z" fill="#E2EDD3"/>
<path d="M27.4451 78.0818H23.3456V81.4344H27.4451V78.0818Z" fill="#E2EDD3"/>
<path d="M27.4451 83.4075H23.3456V86.7601H27.4451V83.4075Z" fill="#E2EDD3"/>
<path d="M27.4451 88.7351H23.3456V92.0876H27.4451V88.7351Z" fill="#E2EDD3"/>
<path d="M33.1956 72.7562H29.0961V76.1087H33.1956V72.7562Z" fill="#E2EDD3"/>
<path d="M33.1956 78.0818H29.0961V81.4344H33.1956V78.0818Z" fill="#E2EDD3"/>
<path d="M33.1956 83.4075H29.0961V86.7601H33.1956V83.4075Z" fill="#E2EDD3"/>
<path d="M33.1956 88.7351H29.0961V92.0876H33.1956V88.7351Z" fill="#E2EDD3"/>
<path d="M38.9461 72.7562H34.8466V76.1087H38.9461V72.7562Z" fill="#E2EDD3"/>
<path d="M38.9461 78.0818H34.8466V81.4344H38.9461V78.0818Z" fill="#FD755F"/>
<path d="M38.9461 83.4075H34.8466V86.7601H38.9461V83.4075Z" fill="#E2EDD3"/>
<path d="M38.9461 88.7351H34.8466V92.0876H38.9461V88.7351Z" fill="#E2EDD3"/>
<path d="M44.6967 72.7562H40.5972V76.1087H44.6967V72.7562Z" fill="#E2EDD3"/>
<path d="M44.6967 78.0818H40.5972V81.4344H44.6967V78.0818Z" fill="#E2EDD3"/>
<path d="M44.6967 83.4075H40.5972V86.7601H44.6967V83.4075Z" fill="#E2EDD3"/>
<path d="M44.6967 88.7351H40.5972V92.0876H44.6967V88.7351Z" fill="#E2EDD3"/>
<path d="M50.4492 83.4075H46.3497V86.7601H50.4492V83.4075Z" fill="#FFD4CF"/>
<path d="M50.4492 72.7562H46.3497V76.1087H50.4492V72.7562Z" fill="#FFD4CF"/>
<path d="M50.4492 78.0818H46.3497V81.4344H50.4492V78.0818Z" fill="#FFD4CF"/>
<path d="M50.4492 88.7351H46.3497V92.0876H50.4492V88.7351Z" fill="#FFD4CF"/>
<path d="M56.1997 88.7351H52.1002V92.0876H56.1997V88.7351Z" fill="#FFD4CF"/>
<path d="M56.1997 72.7562H52.1002V76.1087H56.1997V72.7562Z" fill="#FFD4CF"/>
<path d="M56.1997 78.0818H52.1002V81.4344H56.1997V78.0818Z" fill="#FFD4CF"/>
<path d="M56.1997 83.4075H52.1002V86.7601H56.1997V83.4075Z" fill="#FFD4CF"/>
<path d="M36.6936 81.0251L35.4966 79.4225L35.8749 79.1043L36.6878 80.1928L37.9276 78.4893L38.3098 78.8036L36.6936 81.0251Z" fill="#FDFFFE"/>
<path d="M54.535 67.8768H19.2577V68.2648H54.535V67.8768Z" fill="#976063"/>
<path d="M59.0012 70.7734H58.6132V63.5969C58.6132 62.3435 57.5946 61.325 56.3413 61.325H17.4534V60.937H56.3413C57.8081 60.937 59.0012 62.1301 59.0012 63.5969V70.7734Z" fill="#976063"/>
<path d="M56.3414 97.2309H17.4534C15.9867 97.2309 14.7935 96.0378 14.7935 94.571V63.5969H15.1815V94.571C15.1815 95.8243 16.2001 96.8429 17.4534 96.8429H56.3414C57.5947 96.8429 58.6133 95.8243 58.6133 94.571V79.083H59.0013V94.571C59.0013 96.0378 57.8081 97.2309 56.3414 97.2309Z" fill="#976063"/>
<path d="M28.4578 64.1362C28.4578 64.7765 27.9689 65.2945 27.3655 65.2945C26.7622 65.2945 26.2733 64.7765 26.2733 64.1362C26.2733 63.496 26.7622 62.978 27.3655 62.978C27.9689 62.978 28.4578 63.496 28.4578 64.1362Z" fill="#BDD6A5"/>
<path d="M27.3713 58.8726H27.3577C26.973 58.8726 26.6612 59.1845 26.6612 59.5691V63.9461C26.6612 64.3307 26.973 64.6426 27.3577 64.6426H27.3713C27.7559 64.6426 28.0678 64.3307 28.0678 63.9461V59.5691C28.0678 59.1845 27.7559 58.8726 27.3713 58.8726Z" fill="#5E3B3B"/>
<path d="M22.7868 64.1362C22.7868 64.7765 22.2979 65.2945 21.6945 65.2945C21.0911 65.2945 20.6003 64.7765 20.6003 64.1362C20.6003 63.496 21.0892 62.978 21.6945 62.978C22.2998 62.978 22.7868 63.496 22.7868 64.1362Z" fill="#BDD6A5"/>
<path d="M21.6868 58.8726H21.7023C22.0865 58.8726 22.3988 59.185 22.3988 59.5691V63.948C22.3988 64.3321 22.0865 64.6445 21.7023 64.6445H21.6868C21.3027 64.6445 20.9903 64.3321 20.9903 63.948V59.5691C20.9903 59.185 21.3027 58.8726 21.6868 58.8726Z" fill="#5E3B3B"/>
<path d="M34.643 64.1362C34.643 64.7765 34.154 65.2945 33.5487 65.2945C32.9434 65.2945 32.4564 64.7765 32.4564 64.1362C32.4564 63.496 32.9453 62.978 33.5487 62.978C34.1521 62.978 34.643 63.496 34.643 64.1362Z" fill="#BDD6A5"/>
<path d="M33.5565 58.8726H33.5429C33.1582 58.8726 32.8464 59.1845 32.8464 59.5691V63.9461C32.8464 64.3307 33.1582 64.6426 33.5429 64.6426H33.5565C33.9411 64.6426 34.253 64.3307 34.253 63.9461V59.5691C34.253 59.1845 33.9411 58.8726 33.5565 58.8726Z" fill="#5E3B3B"/>
<path d="M40.8261 64.1362C40.8261 64.7765 40.3372 65.2945 39.7338 65.2945C39.1305 65.2945 38.6415 64.7765 38.6415 64.1362C38.6415 63.496 39.1305 62.978 39.7338 62.978C40.3372 62.978 40.8261 63.496 40.8261 64.1362Z" fill="#BDD6A5"/>
<path d="M39.7397 58.8726H39.7261C39.3414 58.8726 39.0296 59.1845 39.0296 59.5691V63.9461C39.0296 64.3307 39.3414 64.6426 39.7261 64.6426H39.7397C40.1244 64.6426 40.4362 64.3307 40.4362 63.9461V59.5691C40.4362 59.1845 40.1244 58.8726 39.7397 58.8726Z" fill="#5E3B3B"/>
<path d="M47.0094 64.1362C47.0094 64.7765 46.5204 65.2945 45.9171 65.2945C45.3137 65.2945 44.8248 64.7765 44.8248 64.1362C44.8248 63.496 45.3137 62.978 45.9171 62.978C46.5204 62.978 47.0094 63.496 47.0094 64.1362Z" fill="#BDD6A5"/>
<path d="M45.9229 58.8726H45.9093C45.5246 58.8726 45.2128 59.1845 45.2128 59.5691V63.9461C45.2128 64.3307 45.5246 64.6426 45.9093 64.6426H45.9229C46.3075 64.6426 46.6194 64.3307 46.6194 63.9461V59.5691C46.6194 59.1845 46.3075 58.8726 45.9229 58.8726Z" fill="#5E3B3B"/>
<path d="M53.1925 64.1362C53.1925 64.7765 52.7036 65.2945 52.1002 65.2945C51.4968 65.2945 51.0079 64.7765 51.0079 64.1362C51.0079 63.496 51.4968 62.978 52.1002 62.978C52.7036 62.978 53.1925 63.496 53.1925 64.1362Z" fill="#BDD6A5"/>
<path d="M52.1061 58.8726H52.0925C51.7078 58.8726 51.396 59.1845 51.396 59.5691V63.9461C51.396 64.3307 51.7078 64.6426 52.0925 64.6426H52.1061C52.4908 64.6426 52.8026 64.3307 52.8026 63.9461V59.5691C52.8026 59.1845 52.4908 58.8726 52.1061 58.8726Z" fill="#5E3B3B"/>
<path d="M81.3483 97.0913C86.2394 96.8555 90.0132 92.6993 89.7775 87.8083C89.5417 82.9172 85.3855 79.1433 80.4944 79.3791C75.6033 79.6149 71.8295 83.771 72.0652 88.6621C72.301 93.5532 76.4572 97.3271 81.3483 97.0913Z" fill="#FFC76C"/>
<path d="M85.4336 92.7447C87.9248 90.2535 87.9248 86.2144 85.4336 83.7232C82.9424 81.232 78.9034 81.232 76.4122 83.7232C73.9209 86.2144 73.921 90.2535 76.4122 92.7447C78.9034 95.2359 82.9424 95.2359 85.4336 92.7447Z" fill="#FFE9AB"/>
<path d="M76.639 96.2027C73.2457 94.3771 71.2706 90.4929 72.0389 86.5137C72.4987 84.141 73.8529 82.0883 75.8552 80.736C77.8574 79.3818 80.267 78.891 82.6398 79.3488C83.701 79.5545 84.7041 79.9406 85.6179 80.4955L85.4297 80.8059C84.5508 80.2704 83.5885 79.9018 82.5699 79.7039C80.2922 79.2635 77.9796 79.7369 76.0569 81.0348C74.1343 82.3347 72.8344 84.3039 72.394 86.5816C71.484 91.2826 74.5689 95.8477 79.2717 96.7576C81.4291 97.1747 83.6448 96.7654 85.5092 95.6052L85.7013 95.9137C83.7592 97.1224 81.4505 97.5492 79.2038 97.1146C78.2842 96.9361 77.4228 96.6237 76.639 96.2027Z" fill="#976063"/>
<path d="M88.0954 93.7503L87.8083 93.5291C88.6367 92.4523 89.1897 91.2262 89.4496 89.8816C89.9211 87.4429 89.3235 84.913 87.8083 82.9399L88.0954 82.7187C89.6728 84.7733 90.2955 87.408 89.8047 89.9495C89.5331 91.3484 88.9588 92.6269 88.0954 93.7483V93.7503Z" fill="#976063"/>
<path d="M79.4599 92.239C78.9089 92.0275 78.5189 91.7152 78.288 91.298C78.0572 90.8809 77.997 90.392 78.1057 89.8332L78.2162 89.257L79.7509 89.5539L79.6228 90.2174C79.5239 90.7276 79.7548 91.0361 80.3155 91.1448C80.8762 91.2534 81.2079 91.0439 81.3088 90.5181C81.3709 90.1922 81.3302 89.8798 81.1847 89.5771C81.0391 89.2764 80.7345 88.8981 80.2708 88.446C79.6985 87.8756 79.3163 87.3731 79.1242 86.9386C78.9322 86.504 78.8837 86.0442 78.9787 85.5591C79.0835 85.0159 79.3144 84.5968 79.6733 84.3039C80.0303 84.009 80.5017 83.8615 81.0818 83.8615L81.2293 83.0971L82.5563 83.3532L82.4089 84.1176C82.9599 84.3271 83.3479 84.6395 83.5749 85.0508C83.8019 85.4621 83.8601 85.9491 83.7514 86.5079L83.7029 86.7581L82.1683 86.4613L82.2343 86.1237C82.3351 85.6057 82.114 85.2953 81.5727 85.1905C81.0314 85.0857 80.7132 85.2836 80.6162 85.7842C80.558 86.0849 80.6026 86.3817 80.7501 86.6747C80.8975 86.9677 81.2021 87.344 81.6639 87.8058C82.2362 88.384 82.6165 88.8923 82.8066 89.3327C82.9967 89.7731 83.0433 90.2426 82.9463 90.7432C82.8357 91.3116 82.5971 91.7481 82.2265 92.0527C81.8559 92.3573 81.3767 92.5048 80.7869 92.4951L80.6181 93.372L79.2911 93.1159L79.4599 92.239Z" fill="#FFC76C"/>
<path d="M77.4461 81.5062C77.8691 82.1154 78.0243 82.7848 77.9932 83.4987C78.5733 83.0777 79.2194 82.8372 79.9605 82.8546C79.5376 82.2454 79.3804 81.5761 79.4115 80.8602C78.8314 81.2812 78.1853 81.5217 77.4461 81.5043V81.5062Z" fill="#FFF9EE"/>
<path d="M81.1886 94.2761C81.435 94.6292 81.5242 95.0192 81.5068 95.4344C81.8444 95.1899 82.2188 95.0502 82.6495 95.0599C82.4031 94.7068 82.3119 94.3169 82.3313 93.9017C81.9938 94.1461 81.6193 94.2858 81.1886 94.2761Z" fill="#FFF9EE"/>
<path d="M18.5942 93.6223H1.39301V96.9516H18.5942V93.6223Z" fill="#FFC76C"/>
<path d="M22.2164 89.9419H5.0152V93.2712H22.2164V89.9419Z" fill="#FFC76C"/>
<path d="M18.6058 86.2731H1.4046V89.6023H18.6058V86.2731Z" fill="#FFC76C"/>
<path d="M16.9761 86.2731H16.6133V89.6023H16.9761V86.2731Z" fill="#976063"/>
<path d="M15.166 86.2731H14.8032V89.6023H15.166V86.2731Z" fill="#976063"/>
<path d="M9.73164 86.2731H9.36884V89.6023H9.73164V86.2731Z" fill="#976063"/>
<path d="M6.10945 86.2731H5.74664V89.6023H6.10945V86.2731Z" fill="#976063"/>
<path d="M20.5867 89.9419H20.2239V93.2712H20.5867V89.9419Z" fill="#976063"/>
<path d="M18.7766 89.9419H18.4138V93.2712H18.7766V89.9419Z" fill="#976063"/>
<path d="M13.3423 89.9419H12.9795V93.2712H13.3423V89.9419Z" fill="#976063"/>
<path d="M11.5321 89.9419H11.1693V93.2712H11.5321V89.9419Z" fill="#976063"/>
<path d="M9.7201 93.6223H9.3573V96.9516H9.7201V93.6223Z" fill="#976063"/>
<path d="M6.09785 93.6223H5.73505V96.9516H6.09785V93.6223Z" fill="#976063"/>
<path d="M4.28767 93.6223H3.92487V96.9516H4.28767V93.6223Z" fill="#976063"/>
<path d="M18.5127 89.5829H1.40271V89.9457H18.5127V89.5829Z" fill="#976063"/>
<path d="M22.2164 93.2867H5.02686V93.6495H22.2164V93.2867Z" fill="#976063"/>
<path d="M6.33649 91.104C7.00777 91.4455 7.46758 91.9674 7.78382 92.6212C8.09813 91.9674 8.56182 91.4416 9.2331 91.1001C8.56182 90.7587 8.10007 90.2368 7.78382 89.5829C7.46758 90.2368 7.00777 90.7625 6.33649 91.104Z" fill="#FFF9EE"/>
<path d="M12.1511 95.4149C12.5352 95.6109 12.7991 95.9097 12.9795 96.2841C13.1599 95.9097 13.4257 95.609 13.8099 95.413C13.4257 95.217 13.1599 94.9183 12.9795 94.5438C12.7991 94.9183 12.5352 95.219 12.1511 95.4149Z" fill="#FFF9EE"/>
<path d="M15.7849 88.0774C16.1691 88.2734 16.4329 88.5721 16.6133 88.9466C16.7938 88.5721 17.0596 88.2714 17.4437 88.0755C17.0596 87.8795 16.7938 87.5807 16.6133 87.2063C16.4329 87.5807 16.1691 87.8815 15.7849 88.0774Z" fill="#FFF9EE"/>
<path d="M22.3988 89.9419H22.036V93.6495H22.3988V89.9419Z" fill="#976063"/>
<path d="M69.1559 43.8793H68.277L68.2731 42.7133H69.1501L69.1559 43.8793Z" fill="#FD755F"/>
<path d="M69.3809 42.3951H68.0384L68.0364 42.0303H69.3809V42.3951Z" fill="#FD755F"/>
<path d="M69.2742 42.7502H68.149L68.147 42.4068H69.2723L69.2742 42.7502Z" fill="#FD755F"/>
<path d="M63.0329 44.9484L63.029 44.1277L66.7055 42.496L70.3724 44.1277L70.3763 44.9484H63.0329Z" fill="#FD755F"/>
<path d="M63.6343 48.9973H65.8169L65.8208 49.6822H63.6382L63.6343 48.9973Z" fill="#976063"/>
<path d="M69.8563 48.9973L69.8582 49.6822H67.6756L67.6717 48.9973H69.8563Z" fill="#976063"/>
<path d="M66.7094 43.175L63.6091 44.5196L63.6324 48.9974H69.8543L69.8349 44.5196L66.7094 43.175ZM65.3688 47.1426H64.1096L64.1019 45.476H65.361L65.3688 47.1426ZM69.3616 47.1426H68.1044L68.0966 45.476H69.3538L69.3616 47.1426Z" fill="white"/>
<path d="M67.6717 48.9973L67.6755 49.6822H65.8208L65.8169 48.9973H67.6717Z" fill="#976063"/>
<path d="M67.6562 45.6642L67.6717 48.9973H65.817L65.8015 45.6642H67.6562Z" fill="#FD755F"/>
<path d="M66.3466 47.5151H65.9935V47.3832H66.3466V47.5151Z" fill="white"/>
<path d="M79.6811 33.2358C79.4483 33.0495 79.3318 32.7818 79.3318 32.4345V30.7427C79.3318 30.3954 79.4483 30.1277 79.6811 29.9414C79.9139 29.7552 80.2554 29.662 80.7055 29.662C81.1556 29.662 81.497 29.7552 81.7299 29.9414C81.9627 30.1277 82.0791 30.3954 82.0791 30.7427V32.4345C82.0791 32.7818 81.9627 33.0495 81.7299 33.2358C81.497 33.422 81.1556 33.5151 80.7055 33.5151C80.2554 33.5151 79.9139 33.422 79.6811 33.2358ZM81.1711 32.4811V30.6923C81.1711 30.409 81.0159 30.2674 80.7035 30.2674C80.3912 30.2674 80.236 30.409 80.236 30.6923V32.4811C80.236 32.7643 80.3912 32.9059 80.7035 32.9059C81.0159 32.9059 81.1711 32.7643 81.1711 32.4811ZM83.9959 29.7552H84.9039L81.3923 36.5204H80.4843L83.9979 29.7552H83.9959ZM83.6603 36.338C83.4275 36.1518 83.3111 35.884 83.3111 35.5368V33.845C83.3111 33.4977 83.4275 33.2299 83.6603 33.0437C83.8931 32.8574 84.2346 32.7643 84.6847 32.7643C85.1348 32.7643 85.4743 32.8574 85.7091 33.0437C85.9419 33.2299 86.0583 33.4977 86.0583 33.845V35.5368C86.0583 35.884 85.9419 36.1518 85.7091 36.338C85.4762 36.5243 85.1348 36.6174 84.6847 36.6174C84.2346 36.6174 83.895 36.5243 83.6603 36.338ZM85.1503 35.5833V33.7945C85.1503 33.5113 84.9951 33.3696 84.6847 33.3696C84.3742 33.3696 84.219 33.5113 84.219 33.7945V35.5833C84.219 35.8666 84.3742 36.0082 84.6847 36.0082C84.9951 36.0082 85.1503 35.8666 85.1503 35.5833Z" fill="#FD755F"/>
<path d="M70.8593 31.5188V31.6992H62.8156V31.5188L66.8394 29.2798L70.8593 31.5188Z" fill="white"/>
<path d="M66.8374 31.22C66.461 31.22 66.1545 30.9367 66.1545 30.5895C66.1545 30.2422 66.461 29.9589 66.8374 29.9589C67.2138 29.9589 67.5203 30.2422 67.5203 30.5895C67.5203 30.9367 67.2138 31.22 66.8374 31.22ZM66.8374 30.1743C66.5891 30.1743 66.3873 30.3605 66.3873 30.5895C66.3873 30.8184 66.5891 31.0047 66.8374 31.0047C67.0857 31.0047 67.2875 30.8184 67.2875 30.5895C67.2875 30.3605 67.0857 30.1743 66.8374 30.1743Z" fill="#226F91"/>
<path d="M64.8488 32.1221H63.8302V36.3361H64.8488V32.1221Z" fill="white"/>
<path d="M67.3477 32.1221H66.3291V36.3361H67.3477V32.1221Z" fill="white"/>
<path d="M69.8466 32.1221H68.8281V36.3361H69.8466V32.1221Z" fill="white"/>
<path d="M70.8574 31.6837H62.8156V31.9533H70.8574V31.6837Z" fill="#226F91"/>
<path d="M70.4364 31.9883H63.2366V32.258H70.4364V31.9883Z" fill="white"/>
<path d="M70.3723 36.1945H63.0328V36.4641H70.3723V36.1945Z" fill="#976063"/>
<path d="M70.8845 36.73H62.5206V36.9997H70.8845V36.73Z" fill="#976063"/>
<path d="M121.341 96.8525H0V97.4346H121.341V96.8525Z" fill="#976063"/>
</g>
</svg>
