<svg width="50" height="46" viewBox="0 0 50 46" fill="none" xmlns="http://www.w3.org/2000/svg">
<path d="M10.75 12V12.0001C10.7501 12.6909 11.3093 13.2501 12 13.2501H34C34.6909 13.2501 35.2501 12.6908 35.2501 12C35.2501 11.3092 34.6909 10.75 34 10.75H12C11.3092 10.75 10.75 11.3092 10.75 12Z" fill="white" stroke="white" stroke-width="0.5"/>
<path d="M24 22.75H12C11.3092 22.75 10.75 23.3092 10.75 24C10.75 24.6908 11.3092 25.2501 12 25.2501H24C24.6908 25.2501 25.25 24.6908 25.25 24C25.25 23.3092 24.6908 22.75 24 22.75Z" fill="white" stroke="white" stroke-width="0.5"/>
<mask id="path-3-outside-1_108_22" maskUnits="userSpaceOnUse" x="0" y="0" width="50" height="46" fill="black">
<rect fill="white" width="50" height="46"/>
<path d="M45.1718 5.00003C45.1139 5.00003 45.0578 5.01456 45 5.01728V5.00003C45 2.794 43.2051 1 41 1H5.00003C2.79493 1 1 2.794 1 5.00003V44C1 44.4043 1.24412 44.7695 1.61716 44.9238C1.74025 44.9755 1.87103 45 1.99994 45C2.25972 45 2.51556 44.8985 2.707 44.707L12.414 35H41C43.2051 35 45 33.2061 45 31V14.4135L47.8789 11.5351C47.8789 11.5351 47.8789 11.5351 47.8789 11.5342C48.5917 10.8213 48.9999 9.83499 48.9999 8.82811C48.9999 6.71687 47.2832 5.00003 45.1718 5.00003ZM42.9999 31C42.9999 32.1025 42.1034 32.9999 41 32.9999H12C11.7344 32.9999 11.4804 33.1054 11.2929 33.2929L2.99997 41.5859V5.00003C2.99997 3.89753 3.8965 3.00006 4.99993 3.00006H40.9999C42.1035 3.00006 42.9999 3.89753 42.9999 5.00003V5.68309C42.8101 5.81359 42.6285 5.95712 42.4648 6.12109L31.5842 17H12C11.4472 17 10.9999 17.4473 10.9999 18C10.9999 18.5528 11.4472 19.0001 12 19.0001H29.9798L29.0195 23.8038C28.9531 24.1319 29.0566 24.4708 29.293 24.7071C29.4824 24.8966 29.7383 25.0001 30 25.0001C30.0645 25.0001 30.1309 24.9932 30.1953 24.9806L35.1934 23.9805C35.3887 23.9414 35.5664 23.8467 35.7051 23.7071L42.9999 16.4133V31ZM34.5058 22.0791L31.2754 22.7256L31.9219 19.4912L40.9995 10.4136L43.5858 12.9999L34.5058 22.0791ZM46.4647 10.1211L44.9999 11.586L42.4134 8.99949L43.8788 7.53418C44.2186 7.19527 44.6893 6.99999 45.1717 6.99999C46.1796 6.99999 46.9999 7.8203 46.9999 8.82811C47 9.30858 46.8046 9.78033 46.4647 10.1211Z"/>
</mask>
<path d="M45.1718 5.00003C45.1139 5.00003 45.0578 5.01456 45 5.01728V5.00003C45 2.794 43.2051 1 41 1H5.00003C2.79493 1 1 2.794 1 5.00003V44C1 44.4043 1.24412 44.7695 1.61716 44.9238C1.74025 44.9755 1.87103 45 1.99994 45C2.25972 45 2.51556 44.8985 2.707 44.707L12.414 35H41C43.2051 35 45 33.2061 45 31V14.4135L47.8789 11.5351C47.8789 11.5351 47.8789 11.5351 47.8789 11.5342C48.5917 10.8213 48.9999 9.83499 48.9999 8.82811C48.9999 6.71687 47.2832 5.00003 45.1718 5.00003ZM42.9999 31C42.9999 32.1025 42.1034 32.9999 41 32.9999H12C11.7344 32.9999 11.4804 33.1054 11.2929 33.2929L2.99997 41.5859V5.00003C2.99997 3.89753 3.8965 3.00006 4.99993 3.00006H40.9999C42.1035 3.00006 42.9999 3.89753 42.9999 5.00003V5.68309C42.8101 5.81359 42.6285 5.95712 42.4648 6.12109L31.5842 17H12C11.4472 17 10.9999 17.4473 10.9999 18C10.9999 18.5528 11.4472 19.0001 12 19.0001H29.9798L29.0195 23.8038C28.9531 24.1319 29.0566 24.4708 29.293 24.7071C29.4824 24.8966 29.7383 25.0001 30 25.0001C30.0645 25.0001 30.1309 24.9932 30.1953 24.9806L35.1934 23.9805C35.3887 23.9414 35.5664 23.8467 35.7051 23.7071L42.9999 16.4133V31ZM34.5058 22.0791L31.2754 22.7256L31.9219 19.4912L40.9995 10.4136L43.5858 12.9999L34.5058 22.0791ZM46.4647 10.1211L44.9999 11.586L42.4134 8.99949L43.8788 7.53418C44.2186 7.19527 44.6893 6.99999 45.1717 6.99999C46.1796 6.99999 46.9999 7.8203 46.9999 8.82811C47 9.30858 46.8046 9.78033 46.4647 10.1211Z" fill="white"/>
<path d="M45 5.01728H44.5V5.54137L45.0235 5.51672L45 5.01728ZM1.61716 44.9238L1.81094 44.4629L1.80828 44.4618L1.61716 44.9238ZM2.707 44.707L2.35344 44.3535L2.35344 44.3535L2.707 44.707ZM12.414 35V34.5H12.2069L12.0605 34.6464L12.414 35ZM45 14.4135L44.6465 14.06L44.5 14.2064V14.4135H45ZM47.8789 11.5351H48.3789V10.3282L47.5253 11.1816L47.8789 11.5351ZM47.8789 11.5342L47.5253 11.1807L47.3789 11.3271V11.5342H47.8789ZM48.9999 8.82811H48.4999H48.9999ZM11.2929 33.2929L10.9393 32.9393L10.9393 32.9393L11.2929 33.2929ZM2.99997 41.5859H2.49997V42.793L3.35352 41.9395L2.99997 41.5859ZM42.9999 5.68309L43.2832 6.09513L43.4999 5.94612V5.68309H42.9999ZM42.4648 6.12109L42.8183 6.47467L42.8187 6.47434L42.4648 6.12109ZM31.5842 17V17.5H31.7913L31.9377 17.3536L31.5842 17ZM29.9798 19.0001L30.4701 19.0981L30.5896 18.5001H29.9798V19.0001ZM29.0195 23.8038L29.5096 23.9029L29.5098 23.9018L29.0195 23.8038ZM29.293 24.7071L29.6465 24.3535L29.6464 24.3535L29.293 24.7071ZM30.1953 24.9806L30.2917 25.4712L30.2934 25.4708L30.1953 24.9806ZM35.1934 23.9805L35.2915 24.4708L35.2915 24.4708L35.1934 23.9805ZM35.7051 23.7071L35.3515 23.3535L35.3502 23.3548L35.7051 23.7071ZM42.9999 16.4133H43.4999V15.2063L42.6464 16.0597L42.9999 16.4133ZM34.5058 22.0791L34.6039 22.5694L34.7523 22.5397L34.8594 22.4327L34.5058 22.0791ZM31.2754 22.7256L30.7851 22.6276L30.6381 23.3631L31.3735 23.2159L31.2754 22.7256ZM31.9219 19.4912L31.5683 19.1377L31.4613 19.2447L31.4316 19.3932L31.9219 19.4912ZM40.9995 10.4136L41.3531 10.0601L40.9995 9.70651L40.646 10.0601L40.9995 10.4136ZM43.5858 12.9999L43.9393 13.3535L44.2929 12.9999L43.9393 12.6463L43.5858 12.9999ZM46.4647 10.1211L46.8183 10.4747L46.8188 10.4742L46.4647 10.1211ZM44.9999 11.586L44.6464 11.9395L44.9999 12.2931L45.3535 11.9395L44.9999 11.586ZM42.4134 8.99949L42.0599 8.64594L41.7063 8.99949L42.0599 9.35304L42.4134 8.99949ZM43.8788 7.53418L43.5257 7.18014L43.5252 7.18063L43.8788 7.53418ZM46.9999 8.82811L46.4999 8.82811L46.4999 8.82821L46.9999 8.82811ZM45.1718 4.50003C45.1046 4.50003 45.0454 4.50844 45.0168 4.51242C44.9986 4.51496 44.9912 4.51605 44.9825 4.51712C44.9753 4.51799 44.9742 4.51793 44.9765 4.51783L45.0235 5.51672C45.0546 5.51526 45.0822 5.51237 45.1037 5.50975C45.1235 5.50732 45.1446 5.50428 45.1549 5.50284C45.1833 5.49888 45.1811 5.50003 45.1718 5.50003V4.50003ZM45.5 5.01728V5.00003H44.5V5.01728H45.5ZM45.5 5.00003C45.5 2.51778 43.4811 0.5 41 0.5V1.5C42.929 1.5 44.5 3.07022 44.5 5.00003H45.5ZM41 0.5H5.00003V1.5H41V0.5ZM5.00003 0.5C2.51887 0.5 0.5 2.51778 0.5 5.00003H1.5C1.5 3.07022 3.071 1.5 5.00003 1.5V0.5ZM0.5 5.00003V44H1.5V5.00003H0.5ZM0.5 44C0.5 44.6065 0.865882 45.1541 1.42603 45.3858L1.80828 44.4618C1.62237 44.3848 1.5 44.2022 1.5 44H0.5ZM1.42338 45.3847C1.61115 45.4637 1.8082 45.5 1.99994 45.5V44.5C1.93386 44.5 1.86934 44.4874 1.81093 44.4629L1.42338 45.3847ZM1.99994 45.5C2.38953 45.5 2.77338 45.3478 3.06055 45.0606L2.35344 44.3535C2.25774 44.4492 2.12991 44.5 1.99994 44.5V45.5ZM3.06055 45.0606L12.7676 35.3535L12.0605 34.6464L2.35344 44.3535L3.06055 45.0606ZM12.414 35.5H41V34.5H12.414V35.5ZM41 35.5C43.4811 35.5 45.5 33.4823 45.5 31H44.5C44.5 32.9299 42.929 34.5 41 34.5V35.5ZM45.5 31V14.4135H44.5V31H45.5ZM45.3535 14.7671L48.2324 11.8887L47.5253 11.1816L44.6465 14.06L45.3535 14.7671ZM47.8789 11.5351C47.3789 11.5351 47.8789 11.5351 48.3789 11.5351C48.3789 11.5351 48.3789 11.5351 48.3789 11.5351C48.3789 11.5351 48.3789 11.5351 48.3789 11.5351C48.3789 11.5351 48.3789 11.5351 48.3789 11.5351C48.3789 11.5351 48.3789 11.5351 48.3789 11.5351C48.3789 11.5351 48.3789 11.5351 48.3789 11.5351C48.3789 11.5351 48.3789 11.5351 48.3789 11.5351C48.3789 11.5351 48.3789 11.5351 48.3789 11.5351C48.3789 11.5351 48.3789 11.5351 48.3789 11.5351C48.3789 11.5351 48.3789 11.5351 48.3789 11.5351C48.3789 11.5351 48.3789 11.5351 48.3789 11.5351C48.3789 11.5351 48.3789 11.5351 48.3789 11.5351C48.3789 11.5351 48.3789 11.5351 48.3789 11.5351C48.3789 11.5351 48.3789 11.5351 48.3789 11.5351C48.3789 11.5351 48.3789 11.5351 48.3789 11.5351C48.3789 11.5351 48.3789 11.5351 48.3789 11.5351C48.3789 11.5351 48.3789 11.5351 48.3789 11.5351C48.3789 11.5351 48.3789 11.5351 48.3789 11.5351C48.3789 11.5351 48.3789 11.5351 48.3789 11.5351C48.3789 11.5351 48.3789 11.5351 48.3789 11.5351C48.3789 11.5351 48.3789 11.5351 48.3789 11.5351C48.3789 11.5351 48.3789 11.5351 48.3789 11.5351C48.3789 11.5351 48.3789 11.5351 48.3789 11.5351C48.3789 11.5351 48.3789 11.5351 48.3789 11.5351C48.3789 11.5351 48.3789 11.5351 48.3789 11.5351C48.3789 11.5351 48.3789 11.5351 48.3789 11.5351C48.3789 11.5351 48.3789 11.5351 48.3789 11.5351C48.3789 11.5351 48.3789 11.5351 48.3789 11.5351C48.3789 11.5351 48.3789 11.5351 48.3789 11.5351C48.3789 11.5351 48.3789 11.5351 48.3789 11.5351C48.3789 11.5351 48.3789 11.5351 48.3789 11.5351C48.3789 11.5351 48.3789 11.5351 48.3789 11.5351C48.3789 11.5351 48.3789 11.5351 48.3789 11.5351C48.3789 11.5351 48.3789 11.5351 48.3789 11.5351C48.3789 11.5351 48.3789 11.5351 48.3789 11.5351C48.3789 11.5351 48.3789 11.5351 48.3789 11.5351C48.3789 11.5351 48.3789 11.5351 48.3789 11.5351C48.3789 11.5351 48.3789 11.5351 48.3789 11.5351C48.3789 11.5351 48.3789 11.5351 48.3789 11.5351C48.3789 11.5351 48.3789 11.5351 48.3789 11.5351C48.3789 11.5351 48.3789 11.5351 48.3789 11.5351C48.3789 11.5351 48.3789 11.5351 48.3789 11.5351C48.3789 11.5351 48.3789 11.5351 48.3789 11.5351C48.3789 11.5351 48.3789 11.5351 48.3789 11.5351C48.3789 11.5351 48.3789 11.5351 48.3789 11.5351C48.3789 11.5351 48.3789 11.5351 48.3789 11.5351C48.3789 11.5351 48.3789 11.5351 48.3789 11.5351C48.3789 11.5351 48.3789 11.5351 48.3789 11.5351C48.3789 11.5351 48.3789 11.5351 48.3789 11.5351C48.3789 11.5351 48.3789 11.5351 48.3789 11.5351C48.3789 11.5351 48.3789 11.5351 48.3789 11.5351C48.3789 11.5351 48.3789 11.5351 48.3789 11.5351C48.3789 11.5351 48.3789 11.5351 48.3789 11.5351C48.3789 11.5351 48.3789 11.5351 48.3789 11.5351C48.3789 11.5351 48.3789 11.5351 48.3789 11.5351C48.3789 11.5351 48.3789 11.5351 48.3789 11.5351C48.3789 11.5351 48.3789 11.5351 48.3789 11.5351C48.3789 11.5351 48.3789 11.5351 48.3789 11.5351C48.3789 11.5351 48.3789 11.5351 48.3789 11.5351C48.3789 11.5351 48.3789 11.5351 48.3789 11.5351C48.3789 11.5351 48.3789 11.5351 48.3789 11.5351C48.3789 11.5351 48.3789 11.5351 48.3789 11.5351C48.3789 11.5351 48.3789 11.5351 48.3789 11.5351C48.3789 11.5351 48.3789 11.5351 48.3789 11.5351C48.3789 11.5351 48.3789 11.5351 48.3789 11.5351C48.3789 11.5351 48.3789 11.5351 48.3789 11.5351C48.3789 11.5351 48.3789 11.5351 48.3789 11.5351C48.3789 11.5351 48.3789 11.5351 48.3789 11.5351C48.3789 11.5351 48.3789 11.5351 48.3789 11.5351C48.3789 11.5351 48.3789 11.5351 48.3789 11.5351C48.3789 11.5351 48.3789 11.5351 48.3789 11.5351C48.3789 11.5351 48.3789 11.5351 48.3789 11.5351C48.3789 11.5351 48.3789 11.5351 48.3789 11.5351C48.3789 11.5351 48.3789 11.5351 48.3789 11.5351C48.3789 11.5351 48.3789 11.5351 48.3789 11.5351C48.3789 11.5351 48.3789 11.5351 48.3789 11.5351C48.3789 11.5351 48.3789 11.5351 48.3789 11.5351C48.3789 11.5351 48.3789 11.5351 48.3789 11.5351C48.3789 11.5351 48.3789 11.5351 48.3789 11.5351C48.3789 11.5351 48.3789 11.5351 48.3789 11.5351C48.3789 11.5351 48.3789 11.5351 48.3789 11.5351C48.3789 11.5351 48.3789 11.5351 48.3789 11.5351C48.3789 11.5351 48.3789 11.5351 48.3789 11.5351C48.3789 11.5351 48.3789 11.5351 48.3789 11.5351C48.3789 11.5351 48.3789 11.5351 48.3789 11.5351C48.3789 11.5351 48.3789 11.5351 48.3789 11.5351C48.3789 11.5351 48.3789 11.5351 48.3789 11.5351C48.3789 11.5351 48.3789 11.5351 48.3789 11.5351C48.3789 11.5351 48.3789 11.5351 48.3789 11.5351C48.3789 11.5351 48.3789 11.5351 48.3789 11.5351C48.3789 11.5351 48.3789 11.5351 48.3789 11.5351C48.3789 11.5351 48.3789 11.5351 48.3789 11.5351C48.3789 11.5351 48.3789 11.5351 48.3789 11.5351C48.3789 11.5351 48.3789 11.5351 48.3789 11.5351C48.3789 11.5351 48.3789 11.5351 48.3789 11.5351C48.3789 11.5351 48.3789 11.5351 48.3789 11.5351C48.3789 11.5351 48.3789 11.5351 48.3789 11.5351C48.3789 11.5351 48.3789 11.5351 48.3789 11.5351C48.3789 11.5351 48.3789 11.5351 48.3789 11.5351C48.3789 11.5351 48.3789 11.5351 48.3789 11.5351C48.3789 11.5351 48.3789 11.5351 48.3789 11.5351C48.3789 11.5351 48.3789 11.5351 48.3789 11.5351C48.3789 11.5351 48.3789 11.5351 48.3789 11.5351C48.3789 11.5351 48.3789 11.5351 48.3789 11.5351C48.3789 11.5351 48.3789 11.5351 48.3789 11.5351C48.3789 11.5351 48.3789 11.5351 48.3789 11.5351C48.3789 11.5351 48.3789 11.5351 48.3789 11.5351C48.3789 11.5351 48.3789 11.5351 48.3789 11.5351C48.3789 11.5351 48.3789 11.5351 48.3789 11.5351C48.3789 11.5351 48.3789 11.5351 48.3789 11.5351C48.3789 11.5351 48.3789 11.5351 48.3789 11.5351C48.3789 11.5351 48.3789 11.5351 48.3789 11.5351C48.3789 11.5351 48.3789 11.5351 48.3789 11.5351C48.3789 11.5351 48.3789 11.5351 48.3789 11.5351C48.3789 11.5351 48.3789 11.5351 48.3789 11.5351C48.3789 11.5351 48.3789 11.5351 48.3789 11.5351C48.3789 11.5351 48.3789 11.5351 48.3789 11.5351C48.3789 11.5351 48.3789 11.5351 48.3789 11.5351C48.3789 11.5351 48.3789 11.5351 48.3789 11.5351C48.3789 11.5351 48.3789 11.5351 48.3789 11.5351C48.3789 11.5351 48.3789 11.5351 48.3789 11.5351C48.3789 11.5351 48.3789 11.5351 48.3789 11.5351C48.3789 11.5351 48.3789 11.5351 48.3789 11.5351C48.3789 11.5351 48.3789 11.5351 48.3789 11.5351C48.3789 11.5351 48.3789 11.5351 48.3789 11.5351C48.3789 11.5351 48.3789 11.5351 48.3789 11.5351C48.3789 11.5351 48.3789 11.5351 48.3789 11.5351C48.3789 11.5351 48.3789 11.5351 48.3789 11.5351C48.3789 11.5351 48.3789 11.5351 48.3789 11.5351C48.3789 11.5351 48.3789 11.5351 48.3789 11.5351C48.3789 11.5351 48.3789 11.5351 48.3789 11.5351C48.3789 11.5351 48.3789 11.5351 48.3789 11.5351C48.3789 11.5351 48.3789 11.5351 48.3789 11.5351C48.3789 11.5351 48.3789 11.5351 48.3789 11.5351C48.3789 11.5351 48.3789 11.5351 48.3789 11.5351C48.3789 11.5351 48.3789 11.5351 48.3789 11.5351C48.3789 11.5351 48.3789 11.5351 48.3789 11.5351C48.3789 11.5351 48.3789 11.5351 48.3789 11.5351C48.3789 11.5351 48.3789 11.5351 48.3789 11.5351C48.3789 11.5351 48.3789 11.5351 48.3789 11.5351C48.3789 11.5351 48.3789 11.5351 48.3789 11.5351C48.3789 11.5351 48.3789 11.5351 48.3789 11.5351C48.3789 11.5351 48.3789 11.5351 48.3789 11.5351C48.3789 11.5351 48.3789 11.5351 48.3789 11.5351C48.3789 11.5351 48.3789 11.5351 48.3789 11.5351C48.3789 11.5351 48.3789 11.5351 48.3789 11.5351C48.3789 11.5351 48.3789 11.5351 48.3789 11.5351C48.3789 11.5351 48.3789 11.5351 48.3789 11.5351C48.3789 11.5351 48.3789 11.5351 48.3789 11.5351C48.3789 11.5351 48.3789 11.5351 48.3789 11.5351C48.3789 11.5351 48.3789 11.5351 48.3789 11.5351C48.3789 11.5351 48.3789 11.5351 48.3789 11.5351C48.3789 11.5351 48.3789 11.5351 48.3789 11.5351C48.3789 11.5351 48.3789 11.5351 48.3789 11.5351C48.3789 11.5351 48.3789 11.5351 48.3789 11.5351C48.3789 11.5351 48.3789 11.5351 48.3789 11.5351C48.3789 11.5351 48.3789 11.5351 48.3789 11.5351C48.3789 11.5351 48.3789 11.5351 48.3789 11.5351C48.3789 11.5351 48.3789 11.5351 48.3789 11.5351C48.3789 11.5351 48.3789 11.5351 48.3789 11.5351C48.3789 11.5351 48.3789 11.5351 48.3789 11.5351C48.3789 11.5351 48.3789 11.5351 48.3789 11.5351C48.3789 11.5351 48.3789 11.5351 48.3789 11.5351C48.3789 11.5351 48.3789 11.5351 48.3789 11.5351C48.3789 11.5351 48.3789 11.5351 48.3789 11.5351C48.3789 11.5351 48.3789 11.5351 48.3789 11.5351C48.3789 11.5351 48.3789 11.5351 48.3789 11.5351C48.3789 11.5351 48.3789 11.5351 48.3789 11.5351C48.3789 11.5351 48.3789 11.5351 48.3789 11.5351C48.3789 11.5351 48.3789 11.5351 48.3789 11.5351C48.3789 11.5351 48.3789 11.5351 48.3789 11.5351C48.3789 11.5351 48.3789 11.5351 48.3789 11.5351C48.3789 11.5351 48.3789 11.5351 48.3789 11.5351C48.3789 11.5351 48.3789 11.5351 48.3789 11.5351C48.3789 11.5351 48.3789 11.5351 48.3789 11.5351C48.3789 11.5351 48.3789 11.5351 48.3789 11.5351C48.3789 11.5351 48.3789 11.5351 48.3789 11.5351C48.3789 11.5351 48.3789 11.5351 48.3789 11.5351C48.3789 11.5351 48.3789 11.5351 48.3789 11.5351C48.3789 11.5351 48.3789 11.5351 48.3789 11.5351C48.3789 11.5351 48.3789 11.5351 48.3789 11.5351C48.3789 11.5351 48.3789 11.5351 48.3789 11.5351C48.3789 11.5351 48.3789 11.5351 48.3789 11.5351C48.3789 11.5351 48.3789 11.5351 48.3789 11.5351C48.3789 11.5351 48.3789 11.5351 48.3789 11.5351C48.3789 11.5351 48.3789 11.5351 48.3789 11.5351C48.3789 11.5351 48.3789 11.5351 48.3789 11.5351C48.3789 11.5351 48.3789 11.5351 48.3789 11.5351C48.3789 11.5351 48.3789 11.5351 48.3789 11.5351C48.3789 11.5351 48.3789 11.5351 48.3789 11.5351C48.3789 11.5351 48.3789 11.5351 48.3789 11.5351C48.3789 11.5351 48.3789 11.5351 48.3789 11.5351C48.3789 11.5351 48.3789 11.5351 48.3789 11.5351C48.3789 11.5351 48.3789 11.5351 48.3789 11.5351C48.3789 11.5351 48.3789 11.5351 48.3789 11.5351C48.3789 11.5351 48.3789 11.5351 48.3789 11.5351C48.3789 11.5351 48.3789 11.5351 48.3789 11.5351C48.3789 11.5351 48.3789 11.5351 48.3789 11.5351C48.3789 11.5351 48.3789 11.5351 48.3789 11.5351C48.3789 11.5351 48.3789 11.5351 48.3789 11.5351C48.3789 11.5351 48.3789 11.5351 48.3789 11.5351C48.3789 11.5351 48.3789 11.5351 48.3789 11.5351C48.3789 11.5351 48.3789 11.5351 48.3789 11.5351C48.3789 11.5351 48.3789 11.5351 48.3789 11.5351C48.3789 11.5351 48.3789 11.5351 48.3789 11.5351C48.3789 11.5351 48.3789 11.5351 48.3789 11.5351C48.3789 11.5351 48.3789 11.5351 48.3789 11.5351C48.3789 11.5351 48.3789 11.5351 48.3789 11.5351C48.3789 11.5351 48.3789 11.5351 48.3789 11.5351C48.3789 11.5351 48.3789 11.5351 48.3789 11.5351C48.3789 11.5351 48.3789 11.5351 48.3789 11.5351C48.3789 11.5351 48.3789 11.5351 48.3789 11.5351C48.3789 11.5351 48.3789 11.5351 48.3789 11.5351C48.3789 11.5351 48.3789 11.5351 48.3789 11.5351C48.3789 11.5351 48.3789 11.5351 48.3789 11.5351C48.3789 11.5351 48.3789 11.5351 48.3789 11.5351C48.3789 11.5351 48.3789 11.5351 48.3789 11.5351C48.3789 11.5351 48.3789 11.5351 48.3789 11.5351C48.3789 11.5351 48.3789 11.5351 48.3789 11.5351C48.3789 11.5351 48.3789 11.5351 48.3789 11.5351C48.3789 11.5351 48.3789 11.5351 48.3789 11.5351C48.3789 11.5351 48.3789 11.5351 48.3789 11.5351C48.3789 11.5351 48.3789 11.5351 48.3789 11.5351C48.3789 11.5351 48.3789 11.5351 48.3789 11.5351C48.3789 11.5351 48.3789 11.5351 48.3789 11.5351C48.3789 11.5351 48.3789 11.5351 48.3789 11.5351C48.3789 11.5351 48.3789 11.5351 48.3789 11.5351C48.3789 11.5351 48.3789 11.5351 48.3789 11.5351C48.3789 11.5351 48.3789 11.5351 48.3789 11.5351C48.3789 11.5351 48.3789 11.5351 48.3789 11.5351C48.3789 11.5351 48.3789 11.5351 48.3789 11.5351C48.3789 11.5351 48.3789 11.5351 48.3789 11.5351C48.3789 11.5351 48.3789 11.5351 48.3789 11.5351C48.3789 11.5351 48.3789 11.5351 48.3789 11.5351C48.3789 11.5351 48.3789 11.5351 48.3789 11.5351C48.3789 11.5351 48.3789 11.5351 48.3789 11.535C48.3789 11.535 48.3789 11.535 48.3789 11.535C48.3789 11.535 48.3789 11.535 48.3789 11.535C48.3789 11.535 48.3789 11.535 48.3789 11.535C48.3789 11.535 48.3789 11.535 48.3789 11.535C48.3789 11.535 48.3789 11.535 48.3789 11.535C48.3789 11.535 48.3789 11.535 48.3789 11.535C48.3789 11.535 48.3789 11.535 48.3789 11.535C48.3789 11.535 48.3789 11.535 48.3789 11.535C48.3789 11.535 48.3789 11.535 48.3789 11.535C48.3789 11.535 48.3789 11.535 48.3789 11.535C48.3789 11.535 48.3789 11.535 48.3789 11.535C48.3789 11.535 48.3789 11.535 48.3789 11.535C48.3789 11.535 48.3789 11.535 48.3789 11.535C48.3789 11.535 48.3789 11.535 48.3789 11.535C48.3789 11.535 48.3789 11.535 48.3789 11.535C48.3789 11.535 48.3789 11.535 48.3789 11.535C48.3789 11.535 48.3789 11.535 48.3789 11.535C48.3789 11.535 48.3789 11.535 48.3789 11.535C48.3789 11.535 48.3789 11.535 48.3789 11.535C48.3789 11.535 48.3789 11.535 48.3789 11.535C48.3789 11.535 48.3789 11.535 48.3789 11.535C48.3789 11.535 48.3789 11.535 48.3789 11.535C48.3789 11.535 48.3789 11.535 48.3789 11.535C48.3789 11.535 48.3789 11.535 48.3789 11.535C48.3789 11.535 48.3789 11.535 48.3789 11.535C48.3789 11.535 48.3789 11.535 48.3789 11.535C48.3789 11.535 48.3789 11.535 48.3789 11.535C48.3789 11.535 48.3789 11.535 48.3789 11.535C48.3789 11.535 48.3789 11.535 48.3789 11.535C48.3789 11.535 48.3789 11.535 48.3789 11.535C48.3789 11.535 48.3789 11.535 48.3789 11.535C48.3789 11.535 48.3789 11.535 48.3789 11.535C48.3789 11.535 48.3789 11.535 48.3789 11.535C48.3789 11.535 48.3789 11.535 48.3789 11.535C48.3789 11.535 48.3789 11.535 48.3789 11.535C48.3789 11.535 48.3789 11.535 48.3789 11.535C48.3789 11.535 48.3789 11.535 48.3789 11.535C48.3789 11.535 48.3789 11.535 48.3789 11.535C48.3789 11.535 48.3789 11.535 48.3789 11.535C48.3789 11.535 48.3789 11.535 48.3789 11.535C48.3789 11.535 48.3789 11.535 48.3789 11.535C48.3789 11.535 48.3789 11.535 48.3789 11.535C48.3789 11.535 48.3789 11.535 48.3789 11.535C48.3789 11.535 48.3789 11.535 48.3789 11.535C48.3789 11.535 48.3789 11.535 48.3789 11.535C48.3789 11.535 48.3789 11.535 48.3789 11.535C48.3789 11.535 48.3789 11.535 48.3789 11.535C48.3789 11.535 48.3789 11.535 48.3789 11.535C48.3789 11.535 48.3789 11.535 48.3789 11.535C48.3789 11.535 48.3789 11.535 48.3789 11.535C48.3789 11.535 48.3789 11.535 48.3789 11.535C48.3789 11.535 48.3789 11.535 48.3789 11.535C48.3789 11.535 48.3789 11.535 48.3789 11.535C48.3789 11.535 48.3789 11.535 48.3789 11.535C48.3789 11.535 48.3789 11.535 48.3789 11.535C48.3789 11.535 48.3789 11.535 48.3789 11.535C48.3789 11.535 48.3789 11.535 48.3789 11.535C48.3789 11.535 48.3789 11.535 48.3789 11.535C48.3789 11.535 48.3789 11.535 48.3789 11.535C48.3789 11.535 48.3789 11.535 48.3789 11.535C48.3789 11.535 48.3789 11.535 48.3789 11.535C48.3789 11.535 48.3789 11.535 48.3789 11.535C48.3789 11.535 48.3789 11.535 48.3789 11.535C48.3789 11.535 48.3789 11.535 48.3789 11.535C48.3789 11.535 48.3789 11.535 48.3789 11.535C48.3789 11.535 48.3789 11.5349 48.3789 11.5349C48.3789 11.5349 48.3789 11.5349 48.3789 11.5349C48.3789 11.5349 48.3789 11.5349 48.3789 11.5349C48.3789 11.5349 48.3789 11.5349 48.3789 11.5349C48.3789 11.5349 48.3789 11.5349 48.3789 11.5349C48.3789 11.5349 48.3789 11.5349 48.3789 11.5349C48.3789 11.5349 48.3789 11.5349 48.3789 11.5349C48.3789 11.5349 48.3789 11.5349 48.3789 11.5349C48.3789 11.5349 48.3789 11.5349 48.3789 11.5349C48.3789 11.5349 48.3789 11.5349 48.3789 11.5349C48.3789 11.5349 48.3789 11.5349 48.3789 11.5349C48.3789 11.5349 48.3789 11.5349 48.3789 11.5349C48.3789 11.5349 48.3789 11.5349 48.3789 11.5349C48.3789 11.5349 48.3789 11.5349 48.3789 11.5349C48.3789 11.5349 48.3789 11.5349 48.3789 11.5349C48.3789 11.5349 48.3789 11.5349 48.3789 11.5349C48.3789 11.5349 48.3789 11.5349 48.3789 11.5349C48.3789 11.5349 48.3789 11.5349 48.3789 11.5349C48.3789 11.5349 48.3789 11.5349 48.3789 11.5349C48.3789 11.5349 48.3789 11.5349 48.3789 11.5349C48.3789 11.5349 48.3789 11.5349 48.3789 11.5349C48.3789 11.5349 48.3789 11.5349 48.3789 11.5349C48.3789 11.5349 48.3789 11.5349 48.3789 11.5349C48.3789 11.5349 48.3789 11.5349 48.3789 11.5349C48.3789 11.5349 48.3789 11.5349 48.3789 11.5349C48.3789 11.5349 48.3789 11.5349 48.3789 11.5349C48.3789 11.5349 48.3789 11.5349 48.3789 11.5349C48.3789 11.5349 48.3789 11.5349 48.3789 11.5349C48.3789 11.5349 48.3789 11.5349 48.3789 11.5349C48.3789 11.5349 48.3789 11.5349 48.3789 11.5349C48.3789 11.5349 48.3789 11.5349 48.3789 11.5349C48.3789 11.5349 48.3789 11.5349 48.3789 11.5349C48.3789 11.5349 48.3789 11.5349 48.3789 11.5349C48.3789 11.5349 48.3789 11.5349 48.3789 11.5349C48.3789 11.5349 48.3789 11.5349 48.3789 11.5349C48.3789 11.5349 48.3789 11.5349 48.3789 11.5349C48.3789 11.5349 48.3789 11.5349 48.3789 11.5349C48.3789 11.5349 48.3789 11.5349 48.3789 11.5349C48.3789 11.5349 48.3789 11.5349 48.3789 11.5349C48.3789 11.5349 48.3789 11.5349 48.3789 11.5349C48.3789 11.5349 48.3789 11.5349 48.3789 11.5349C48.3789 11.5349 48.3789 11.5349 48.3789 11.5349C48.3789 11.5349 48.3789 11.5349 48.3789 11.5349C48.3789 11.5349 48.3789 11.5349 48.3789 11.5349C48.3789 11.5349 48.3789 11.5349 48.3789 11.5349C48.3789 11.5349 48.3789 11.5349 48.3789 11.5348C48.3789 11.5348 48.3789 11.5348 48.3789 11.5348C48.3789 11.5348 48.3789 11.5348 48.3789 11.5348C48.3789 11.5348 48.3789 11.5348 48.3789 11.5348C48.3789 11.5348 48.3789 11.5348 48.3789 11.5348C48.3789 11.5348 48.3789 11.5348 48.3789 11.5348C48.3789 11.5348 48.3789 11.5348 48.3789 11.5348C48.3789 11.5348 48.3789 11.5348 48.3789 11.5348C48.3789 11.5348 48.3789 11.5348 48.3789 11.5348C48.3789 11.5348 48.3789 11.5348 48.3789 11.5348C48.3789 11.5348 48.3789 11.5348 48.3789 11.5348C48.3789 11.5348 48.3789 11.5348 48.3789 11.5348C48.3789 11.5348 48.3789 11.5348 48.3789 11.5348C48.3789 11.5348 48.3789 11.5348 48.3789 11.5348C48.3789 11.5348 48.3789 11.5348 48.3789 11.5348C48.3789 11.5348 48.3789 11.5348 48.3789 11.5348C48.3789 11.5348 48.3789 11.5348 48.3789 11.5348C48.3789 11.5348 48.3789 11.5348 48.3789 11.5348C48.3789 11.5348 48.3789 11.5348 48.3789 11.5348C48.3789 11.5348 48.3789 11.5348 48.3789 11.5348C48.3789 11.5348 48.3789 11.5348 48.3789 11.5348C48.3789 11.5348 48.3789 11.5348 48.3789 11.5348C48.3789 11.5348 48.3789 11.5348 48.3789 11.5348C48.3789 11.5348 48.3789 11.5348 48.3789 11.5348C48.3789 11.5348 48.3789 11.5348 48.3789 11.5348C48.3789 11.5348 48.3789 11.5348 48.3789 11.5348C48.3789 11.5348 48.3789 11.5348 48.3789 11.5348C48.3789 11.5348 48.3789 11.5348 48.3789 11.5348C48.3789 11.5348 48.3789 11.5348 48.3789 11.5348C48.3789 11.5348 48.3789 11.5348 48.3789 11.5348C48.3789 11.5348 48.3789 11.5348 48.3789 11.5348C48.3789 11.5348 48.3789 11.5348 48.3789 11.5348C48.3789 11.5348 48.3789 11.5348 48.3789 11.5348C48.3789 11.5348 48.3789 11.5348 48.3789 11.5348C48.3789 11.5348 48.3789 11.5348 48.3789 11.5348C48.3789 11.5348 48.3789 11.5348 48.3789 11.5348C48.3789 11.5348 48.3789 11.5348 48.3789 11.5347C48.3789 11.5347 48.3789 11.5347 48.3789 11.5347C48.3789 11.5347 48.3789 11.5347 48.3789 11.5347C48.3789 11.5347 48.3789 11.5347 48.3789 11.5347C48.3789 11.5347 48.3789 11.5347 48.3789 11.5347C48.3789 11.5347 48.3789 11.5347 48.3789 11.5347C48.3789 11.5347 48.3789 11.5347 48.3789 11.5347C48.3789 11.5347 48.3789 11.5347 48.3789 11.5347C48.3789 11.5347 48.3789 11.5347 48.3789 11.5347C48.3789 11.5347 48.3789 11.5347 48.3789 11.5347C48.3789 11.5347 48.3789 11.5347 48.3789 11.5347C48.3789 11.5347 48.3789 11.5347 48.3789 11.5347C48.3789 11.5347 48.3789 11.5347 48.3789 11.5347C48.3789 11.5347 48.3789 11.5347 48.3789 11.5347C48.3789 11.5347 48.3789 11.5347 48.3789 11.5347C48.3789 11.5347 48.3789 11.5347 48.3789 11.5347C48.3789 11.5347 48.3789 11.5347 48.3789 11.5347C48.3789 11.5347 48.3789 11.5347 48.3789 11.5347C48.3789 11.5347 48.3789 11.5347 48.3789 11.5347C48.3789 11.5347 48.3789 11.5347 48.3789 11.5347C48.3789 11.5347 48.3789 11.5347 48.3789 11.5347C48.3789 11.5347 48.3789 11.5347 48.3789 11.5347C48.3789 11.5347 48.3789 11.5347 48.3789 11.5347C48.3789 11.5347 48.3789 11.5347 48.3789 11.5347C48.3789 11.5347 48.3789 11.5347 48.3789 11.5347C48.3789 11.5347 48.3789 11.5347 48.3789 11.5347C48.3789 11.5347 48.3789 11.5347 48.3789 11.5347C48.3789 11.5347 48.3789 11.5347 48.3789 11.5347C48.3789 11.5347 48.3789 11.5347 48.3789 11.5347C48.3789 11.5347 48.3789 11.5347 48.3789 11.5347C48.3789 11.5347 48.3789 11.5347 48.3789 11.5346C48.3789 11.5346 48.3789 11.5346 48.3789 11.5346C48.3789 11.5346 48.3789 11.5346 48.3789 11.5346C48.3789 11.5346 48.3789 11.5346 48.3789 11.5346C48.3789 11.5346 48.3789 11.5346 48.3789 11.5346C48.3789 11.5346 48.3789 11.5346 48.3789 11.5346C48.3789 11.5346 48.3789 11.5346 48.3789 11.5346C48.3789 11.5346 48.3789 11.5346 48.3789 11.5346C48.3789 11.5346 48.3789 11.5346 48.3789 11.5346C48.3789 11.5346 48.3789 11.5346 48.3789 11.5346C48.3789 11.5346 48.3789 11.5346 48.3789 11.5346C48.3789 11.5346 48.3789 11.5346 48.3789 11.5346C48.3789 11.5346 48.3789 11.5346 48.3789 11.5346C48.3789 11.5346 48.3789 11.5346 48.3789 11.5346C48.3789 11.5346 48.3789 11.5346 48.3789 11.5346C48.3789 11.5346 48.3789 11.5346 48.3789 11.5346C48.3789 11.5346 48.3789 11.5346 48.3789 11.5346C48.3789 11.5346 48.3789 11.5346 48.3789 11.5346C48.3789 11.5346 48.3789 11.5346 48.3789 11.5346C48.3789 11.5346 48.3789 11.5346 48.3789 11.5346C48.3789 11.5346 48.3789 11.5346 48.3789 11.5346C48.3789 11.5346 48.3789 11.5346 48.3789 11.5346C48.3789 11.5346 48.3789 11.5346 48.3789 11.5346C48.3789 11.5346 48.3789 11.5346 48.3789 11.5346C48.3789 11.5346 48.3789 11.5346 48.3789 11.5346C48.3789 11.5346 48.3789 11.5346 48.3789 11.5346C48.3789 11.5346 48.3789 11.5346 48.3789 11.5346C48.3789 11.5345 48.3789 11.5345 48.3789 11.5345C48.3789 11.5345 48.3789 11.5345 48.3789 11.5345C48.3789 11.5345 48.3789 11.5345 48.3789 11.5345C48.3789 11.5345 48.3789 11.5345 48.3789 11.5345C48.3789 11.5345 48.3789 11.5345 48.3789 11.5345C48.3789 11.5345 48.3789 11.5345 48.3789 11.5345C48.3789 11.5345 48.3789 11.5345 48.3789 11.5345C48.3789 11.5345 48.3789 11.5345 48.3789 11.5345C48.3789 11.5345 48.3789 11.5345 48.3789 11.5345C48.3789 11.5345 48.3789 11.5345 48.3789 11.5345C48.3789 11.5345 48.3789 11.5345 48.3789 11.5345C48.3789 11.5345 48.3789 11.5345 48.3789 11.5345C48.3789 11.5345 48.3789 11.5345 48.3789 11.5345C48.3789 11.5345 48.3789 11.5345 48.3789 11.5345C48.3789 11.5345 48.3789 11.5345 48.3789 11.5345C48.3789 11.5345 48.3789 11.5345 48.3789 11.5345C48.3789 11.5345 48.3789 11.5345 48.3789 11.5345C48.3789 11.5345 48.3789 11.5345 48.3789 11.5345C48.3789 11.5345 48.3789 11.5345 48.3789 11.5345C48.3789 11.5345 48.3789 11.5345 48.3789 11.5345C48.3789 11.5345 48.3789 11.5345 48.3789 11.5345C48.3789 11.5345 48.3789 11.5345 48.3789 11.5345C48.3789 11.5345 48.3789 11.5345 48.3789 11.5345C48.3789 11.5345 48.3789 11.5345 48.3789 11.5344C48.3789 11.5344 48.3789 11.5344 48.3789 11.5344C48.3789 11.5344 48.3789 11.5344 48.3789 11.5344C48.3789 11.5344 48.3789 11.5344 48.3789 11.5344C48.3789 11.5344 48.3789 11.5344 48.3789 11.5344C48.3789 11.5344 48.3789 11.5344 48.3789 11.5344C48.3789 11.5344 48.3789 11.5344 48.3789 11.5344C48.3789 11.5344 48.3789 11.5344 48.3789 11.5344C48.3789 11.5344 48.3789 11.5344 48.3789 11.5344C48.3789 11.5344 48.3789 11.5344 48.3789 11.5344C48.3789 11.5344 48.3789 11.5344 48.3789 11.5344C48.3789 11.5344 48.3789 11.5344 48.3789 11.5344C48.3789 11.5344 48.3789 11.5344 48.3789 11.5344C48.3789 11.5344 48.3789 11.5344 48.3789 11.5344C48.3789 11.5344 48.3789 11.5344 48.3789 11.5344C48.3789 11.5344 48.3789 11.5344 48.3789 11.5344C48.3789 11.5344 48.3789 11.5344 48.3789 11.5344C48.3789 11.5344 48.3789 11.5344 48.3789 11.5344C48.3789 11.5344 48.3789 11.5344 48.3789 11.5344C48.3789 11.5344 48.3789 11.5344 48.3789 11.5344C48.3789 11.5344 48.3789 11.5344 48.3789 11.5344C48.3789 11.5344 48.3789 11.5344 48.3789 11.5343C48.3789 11.5343 48.3789 11.5343 48.3789 11.5343C48.3789 11.5343 48.3789 11.5343 48.3789 11.5343C48.3789 11.5343 48.3789 11.5343 48.3789 11.5343C48.3789 11.5343 48.3789 11.5343 48.3789 11.5343C48.3789 11.5343 48.3789 11.5343 48.3789 11.5343C48.3789 11.5343 48.3789 11.5343 48.3789 11.5343C48.3789 11.5343 48.3789 11.5343 48.3789 11.5343C48.3789 11.5343 48.3789 11.5343 48.3789 11.5343C48.3789 11.5343 48.3789 11.5343 48.3789 11.5343C48.3789 11.5343 48.3789 11.5343 48.3789 11.5343C48.3789 11.5343 48.3789 11.5343 48.3789 11.5343C48.3789 11.5343 48.3789 11.5343 48.3789 11.5343C48.3789 11.5343 48.3789 11.5343 48.3789 11.5343C48.3789 11.5343 48.3789 11.5343 48.3789 11.5343C48.3789 11.5343 48.3789 11.5343 48.3789 11.5343C48.3789 11.5343 48.3789 11.5343 48.3789 11.5343C48.3789 11.5343 48.3789 11.5343 48.3789 11.5343C48.3789 11.5343 48.3789 11.5343 48.3789 11.5343C48.3789 11.5343 48.3789 11.5343 48.3789 11.5343C48.3789 11.5343 48.3789 11.5342 48.3789 11.5342C48.3789 11.5342 48.3789 11.5342 48.3789 11.5342C48.3789 11.5342 48.3789 11.5342 48.3789 11.5342C48.3789 11.5342 48.3789 11.5342 48.3789 11.5342C48.3789 11.5342 48.3789 11.5342 48.3789 11.5342C48.3789 11.5342 48.3789 11.5342 48.3789 11.5342C48.3789 11.5342 48.3789 11.5342 48.3789 11.5342C48.3789 11.5342 48.3789 11.5342 48.3789 11.5342C48.3789 11.5342 48.3789 11.5342 48.3789 11.5342H47.3789C47.3789 11.5342 47.3789 11.5342 47.3789 11.5342C47.3789 11.5342 47.3789 11.5342 47.3789 11.5342C47.3789 11.5342 47.3789 11.5342 47.3789 11.5342C47.3789 11.5342 47.3789 11.5342 47.3789 11.5342C47.3789 11.5342 47.3789 11.5342 47.3789 11.5342C47.3789 11.5342 47.3789 11.5342 47.3789 11.5342C47.3789 11.5342 47.3789 11.5342 47.3789 11.5342C47.3789 11.5342 47.3789 11.5342 47.3789 11.5342C47.3789 11.5342 47.3789 11.5343 47.3789 11.5343C47.3789 11.5343 47.3789 11.5343 47.3789 11.5343C47.3789 11.5343 47.3789 11.5343 47.3789 11.5343C47.3789 11.5343 47.3789 11.5343 47.3789 11.5343C47.3789 11.5343 47.3789 11.5343 47.3789 11.5343C47.3789 11.5343 47.3789 11.5343 47.3789 11.5343C47.3789 11.5343 47.3789 11.5343 47.3789 11.5343C47.3789 11.5343 47.3789 11.5343 47.3789 11.5343C47.3789 11.5343 47.3789 11.5343 47.3789 11.5343C47.3789 11.5343 47.3789 11.5343 47.3789 11.5343C47.3789 11.5343 47.3789 11.5343 47.3789 11.5343C47.3789 11.5343 47.3789 11.5343 47.3789 11.5343C47.3789 11.5343 47.3789 11.5343 47.3789 11.5343C47.3789 11.5343 47.3789 11.5343 47.3789 11.5343C47.3789 11.5343 47.3789 11.5343 47.3789 11.5343C47.3789 11.5343 47.3789 11.5343 47.3789 11.5343C47.3789 11.5343 47.3789 11.5343 47.3789 11.5343C47.3789 11.5343 47.3789 11.5343 47.3789 11.5343C47.3789 11.5343 47.3789 11.5343 47.3789 11.5343C47.3789 11.5343 47.3789 11.5343 47.3789 11.5343C47.3789 11.5344 47.3789 11.5344 47.3789 11.5344C47.3789 11.5344 47.3789 11.5344 47.3789 11.5344C47.3789 11.5344 47.3789 11.5344 47.3789 11.5344C47.3789 11.5344 47.3789 11.5344 47.3789 11.5344C47.3789 11.5344 47.3789 11.5344 47.3789 11.5344C47.3789 11.5344 47.3789 11.5344 47.3789 11.5344C47.3789 11.5344 47.3789 11.5344 47.3789 11.5344C47.3789 11.5344 47.3789 11.5344 47.3789 11.5344C47.3789 11.5344 47.3789 11.5344 47.3789 11.5344C47.3789 11.5344 47.3789 11.5344 47.3789 11.5344C47.3789 11.5344 47.3789 11.5344 47.3789 11.5344C47.3789 11.5344 47.3789 11.5344 47.3789 11.5344C47.3789 11.5344 47.3789 11.5344 47.3789 11.5344C47.3789 11.5344 47.3789 11.5344 47.3789 11.5344C47.3789 11.5344 47.3789 11.5344 47.3789 11.5344C47.3789 11.5344 47.3789 11.5344 47.3789 11.5344C47.3789 11.5344 47.3789 11.5344 47.3789 11.5344C47.3789 11.5344 47.3789 11.5344 47.3789 11.5344C47.3789 11.5344 47.3789 11.5344 47.3789 11.5344C47.3789 11.5344 47.3789 11.5344 47.3789 11.5344C47.3789 11.5344 47.3789 11.5344 47.3789 11.5344C47.3789 11.5345 47.3789 11.5345 47.3789 11.5345C47.3789 11.5345 47.3789 11.5345 47.3789 11.5345C47.3789 11.5345 47.3789 11.5345 47.3789 11.5345C47.3789 11.5345 47.3789 11.5345 47.3789 11.5345C47.3789 11.5345 47.3789 11.5345 47.3789 11.5345C47.3789 11.5345 47.3789 11.5345 47.3789 11.5345C47.3789 11.5345 47.3789 11.5345 47.3789 11.5345C47.3789 11.5345 47.3789 11.5345 47.3789 11.5345C47.3789 11.5345 47.3789 11.5345 47.3789 11.5345C47.3789 11.5345 47.3789 11.5345 47.3789 11.5345C47.3789 11.5345 47.3789 11.5345 47.3789 11.5345C47.3789 11.5345 47.3789 11.5345 47.3789 11.5345C47.3789 11.5345 47.3789 11.5345 47.3789 11.5345C47.3789 11.5345 47.3789 11.5345 47.3789 11.5345C47.3789 11.5345 47.3789 11.5345 47.3789 11.5345C47.3789 11.5345 47.3789 11.5345 47.3789 11.5345C47.3789 11.5345 47.3789 11.5345 47.3789 11.5345C47.3789 11.5345 47.3789 11.5345 47.3789 11.5345C47.3789 11.5345 47.3789 11.5345 47.3789 11.5345C47.3789 11.5345 47.3789 11.5345 47.3789 11.5345C47.3789 11.5345 47.3789 11.5345 47.3789 11.5345C47.3789 11.5345 47.3789 11.5345 47.3789 11.5345C47.3789 11.5345 47.3789 11.5345 47.3789 11.5345C47.3789 11.5345 47.3789 11.5345 47.3789 11.5346C47.3789 11.5346 47.3789 11.5346 47.3789 11.5346C47.3789 11.5346 47.3789 11.5346 47.3789 11.5346C47.3789 11.5346 47.3789 11.5346 47.3789 11.5346C47.3789 11.5346 47.3789 11.5346 47.3789 11.5346C47.3789 11.5346 47.3789 11.5346 47.3789 11.5346C47.3789 11.5346 47.3789 11.5346 47.3789 11.5346C47.3789 11.5346 47.3789 11.5346 47.3789 11.5346C47.3789 11.5346 47.3789 11.5346 47.3789 11.5346C47.3789 11.5346 47.3789 11.5346 47.3789 11.5346C47.3789 11.5346 47.3789 11.5346 47.3789 11.5346C47.3789 11.5346 47.3789 11.5346 47.3789 11.5346C47.3789 11.5346 47.3789 11.5346 47.3789 11.5346C47.3789 11.5346 47.3789 11.5346 47.3789 11.5346C47.3789 11.5346 47.3789 11.5346 47.3789 11.5346C47.3789 11.5346 47.3789 11.5346 47.3789 11.5346C47.3789 11.5346 47.3789 11.5346 47.3789 11.5346C47.3789 11.5346 47.3789 11.5346 47.3789 11.5346C47.3789 11.5346 47.3789 11.5346 47.3789 11.5346C47.3789 11.5346 47.3789 11.5346 47.3789 11.5346C47.3789 11.5346 47.3789 11.5346 47.3789 11.5346C47.3789 11.5346 47.3789 11.5346 47.3789 11.5346C47.3789 11.5346 47.3789 11.5346 47.3789 11.5346C47.3789 11.5346 47.3789 11.5346 47.3789 11.5346C47.3789 11.5346 47.3789 11.5346 47.3789 11.5346C47.3789 11.5346 47.3789 11.5346 47.3789 11.5346C47.3789 11.5346 47.3789 11.5346 47.3789 11.5346C47.3789 11.5347 47.3789 11.5347 47.3789 11.5347C47.3789 11.5347 47.3789 11.5347 47.3789 11.5347C47.3789 11.5347 47.3789 11.5347 47.3789 11.5347C47.3789 11.5347 47.3789 11.5347 47.3789 11.5347C47.3789 11.5347 47.3789 11.5347 47.3789 11.5347C47.3789 11.5347 47.3789 11.5347 47.3789 11.5347C47.3789 11.5347 47.3789 11.5347 47.3789 11.5347C47.3789 11.5347 47.3789 11.5347 47.3789 11.5347C47.3789 11.5347 47.3789 11.5347 47.3789 11.5347C47.3789 11.5347 47.3789 11.5347 47.3789 11.5347C47.3789 11.5347 47.3789 11.5347 47.3789 11.5347C47.3789 11.5347 47.3789 11.5347 47.3789 11.5347C47.3789 11.5347 47.3789 11.5347 47.3789 11.5347C47.3789 11.5347 47.3789 11.5347 47.3789 11.5347C47.3789 11.5347 47.3789 11.5347 47.3789 11.5347C47.3789 11.5347 47.3789 11.5347 47.3789 11.5347C47.3789 11.5347 47.3789 11.5347 47.3789 11.5347C47.3789 11.5347 47.3789 11.5347 47.3789 11.5347C47.3789 11.5347 47.3789 11.5347 47.3789 11.5347C47.3789 11.5347 47.3789 11.5347 47.3789 11.5347C47.3789 11.5347 47.3789 11.5347 47.3789 11.5347C47.3789 11.5347 47.3789 11.5347 47.3789 11.5347C47.3789 11.5347 47.3789 11.5347 47.3789 11.5347C47.3789 11.5347 47.3789 11.5347 47.3789 11.5347C47.3789 11.5347 47.3789 11.5347 47.3789 11.5347C47.3789 11.5347 47.3789 11.5347 47.3789 11.5347C47.3789 11.5347 47.3789 11.5347 47.3789 11.5347C47.3789 11.5347 47.3789 11.5347 47.3789 11.5347C47.3789 11.5347 47.3789 11.5347 47.3789 11.5347C47.3789 11.5347 47.3789 11.5347 47.3789 11.5347C47.3789 11.5348 47.3789 11.5348 47.3789 11.5348C47.3789 11.5348 47.3789 11.5348 47.3789 11.5348C47.3789 11.5348 47.3789 11.5348 47.3789 11.5348C47.3789 11.5348 47.3789 11.5348 47.3789 11.5348C47.3789 11.5348 47.3789 11.5348 47.3789 11.5348C47.3789 11.5348 47.3789 11.5348 47.3789 11.5348C47.3789 11.5348 47.3789 11.5348 47.3789 11.5348C47.3789 11.5348 47.3789 11.5348 47.3789 11.5348C47.3789 11.5348 47.3789 11.5348 47.3789 11.5348C47.3789 11.5348 47.3789 11.5348 47.3789 11.5348C47.3789 11.5348 47.3789 11.5348 47.3789 11.5348C47.3789 11.5348 47.3789 11.5348 47.3789 11.5348C47.3789 11.5348 47.3789 11.5348 47.3789 11.5348C47.3789 11.5348 47.3789 11.5348 47.3789 11.5348C47.3789 11.5348 47.3789 11.5348 47.3789 11.5348C47.3789 11.5348 47.3789 11.5348 47.3789 11.5348C47.3789 11.5348 47.3789 11.5348 47.3789 11.5348C47.3789 11.5348 47.3789 11.5348 47.3789 11.5348C47.3789 11.5348 47.3789 11.5348 47.3789 11.5348C47.3789 11.5348 47.3789 11.5348 47.3789 11.5348C47.3789 11.5348 47.3789 11.5348 47.3789 11.5348C47.3789 11.5348 47.3789 11.5348 47.3789 11.5348C47.3789 11.5348 47.3789 11.5348 47.3789 11.5348C47.3789 11.5348 47.3789 11.5348 47.3789 11.5348C47.3789 11.5348 47.3789 11.5348 47.3789 11.5348C47.3789 11.5348 47.3789 11.5348 47.3789 11.5348C47.3789 11.5348 47.3789 11.5348 47.3789 11.5348C47.3789 11.5348 47.3789 11.5348 47.3789 11.5348C47.3789 11.5348 47.3789 11.5348 47.3789 11.5348C47.3789 11.5348 47.3789 11.5348 47.3789 11.5348C47.3789 11.5348 47.3789 11.5348 47.3789 11.5348C47.3789 11.5348 47.3789 11.5348 47.3789 11.5348C47.3789 11.5348 47.3789 11.5348 47.3789 11.5348C47.3789 11.5348 47.3789 11.5348 47.3789 11.5348C47.3789 11.5348 47.3789 11.5348 47.3789 11.5348C47.3789 11.5348 47.3789 11.5348 47.3789 11.5348C47.3789 11.5349 47.3789 11.5349 47.3789 11.5349C47.3789 11.5349 47.3789 11.5349 47.3789 11.5349C47.3789 11.5349 47.3789 11.5349 47.3789 11.5349C47.3789 11.5349 47.3789 11.5349 47.3789 11.5349C47.3789 11.5349 47.3789 11.5349 47.3789 11.5349C47.3789 11.5349 47.3789 11.5349 47.3789 11.5349C47.3789 11.5349 47.3789 11.5349 47.3789 11.5349C47.3789 11.5349 47.3789 11.5349 47.3789 11.5349C47.3789 11.5349 47.3789 11.5349 47.3789 11.5349C47.3789 11.5349 47.3789 11.5349 47.3789 11.5349C47.3789 11.5349 47.3789 11.5349 47.3789 11.5349C47.3789 11.5349 47.3789 11.5349 47.3789 11.5349C47.3789 11.5349 47.3789 11.5349 47.3789 11.5349C47.3789 11.5349 47.3789 11.5349 47.3789 11.5349C47.3789 11.5349 47.3789 11.5349 47.3789 11.5349C47.3789 11.5349 47.3789 11.5349 47.3789 11.5349C47.3789 11.5349 47.3789 11.5349 47.3789 11.5349C47.3789 11.5349 47.3789 11.5349 47.3789 11.5349C47.3789 11.5349 47.3789 11.5349 47.3789 11.5349C47.3789 11.5349 47.3789 11.5349 47.3789 11.5349C47.3789 11.5349 47.3789 11.5349 47.3789 11.5349C47.3789 11.5349 47.3789 11.5349 47.3789 11.5349C47.3789 11.5349 47.3789 11.5349 47.3789 11.5349C47.3789 11.5349 47.3789 11.5349 47.3789 11.5349C47.3789 11.5349 47.3789 11.5349 47.3789 11.5349C47.3789 11.5349 47.3789 11.5349 47.3789 11.5349C47.3789 11.5349 47.3789 11.5349 47.3789 11.5349C47.3789 11.5349 47.3789 11.5349 47.3789 11.5349C47.3789 11.5349 47.3789 11.5349 47.3789 11.5349C47.3789 11.5349 47.3789 11.5349 47.3789 11.5349C47.3789 11.5349 47.3789 11.5349 47.3789 11.5349C47.3789 11.5349 47.3789 11.5349 47.3789 11.5349C47.3789 11.5349 47.3789 11.5349 47.3789 11.5349C47.3789 11.5349 47.3789 11.5349 47.3789 11.5349C47.3789 11.5349 47.3789 11.5349 47.3789 11.5349C47.3789 11.5349 47.3789 11.5349 47.3789 11.5349C47.3789 11.5349 47.3789 11.5349 47.3789 11.5349C47.3789 11.5349 47.3789 11.5349 47.3789 11.5349C47.3789 11.5349 47.3789 11.5349 47.3789 11.5349C47.3789 11.5349 47.3789 11.5349 47.3789 11.5349C47.3789 11.5349 47.3789 11.5349 47.3789 11.5349C47.3789 11.5349 47.3789 11.5349 47.3789 11.5349C47.3789 11.5349 47.3789 11.5349 47.3789 11.5349C47.3789 11.5349 47.3789 11.5349 47.3789 11.5349C47.3789 11.5349 47.3789 11.5349 47.3789 11.5349C47.3789 11.5349 47.3789 11.535 47.3789 11.535C47.3789 11.535 47.3789 11.535 47.3789 11.535C47.3789 11.535 47.3789 11.535 47.3789 11.535C47.3789 11.535 47.3789 11.535 47.3789 11.535C47.3789 11.535 47.3789 11.535 47.3789 11.535C47.3789 11.535 47.3789 11.535 47.3789 11.535C47.3789 11.535 47.3789 11.535 47.3789 11.535C47.3789 11.535 47.3789 11.535 47.3789 11.535C47.3789 11.535 47.3789 11.535 47.3789 11.535C47.3789 11.535 47.3789 11.535 47.3789 11.535C47.3789 11.535 47.3789 11.535 47.3789 11.535C47.3789 11.535 47.3789 11.535 47.3789 11.535C47.3789 11.535 47.3789 11.535 47.3789 11.535C47.3789 11.535 47.3789 11.535 47.3789 11.535C47.3789 11.535 47.3789 11.535 47.3789 11.535C47.3789 11.535 47.3789 11.535 47.3789 11.535C47.3789 11.535 47.3789 11.535 47.3789 11.535C47.3789 11.535 47.3789 11.535 47.3789 11.535C47.3789 11.535 47.3789 11.535 47.3789 11.535C47.3789 11.535 47.3789 11.535 47.3789 11.535C47.3789 11.535 47.3789 11.535 47.3789 11.535C47.3789 11.535 47.3789 11.535 47.3789 11.535C47.3789 11.535 47.3789 11.535 47.3789 11.535C47.3789 11.535 47.3789 11.535 47.3789 11.535C47.3789 11.535 47.3789 11.535 47.3789 11.535C47.3789 11.535 47.3789 11.535 47.3789 11.535C47.3789 11.535 47.3789 11.535 47.3789 11.535C47.3789 11.535 47.3789 11.535 47.3789 11.535C47.3789 11.535 47.3789 11.535 47.3789 11.535C47.3789 11.535 47.3789 11.535 47.3789 11.535C47.3789 11.535 47.3789 11.535 47.3789 11.535C47.3789 11.535 47.3789 11.535 47.3789 11.535C47.3789 11.535 47.3789 11.535 47.3789 11.535C47.3789 11.535 47.3789 11.535 47.3789 11.535C47.3789 11.535 47.3789 11.535 47.3789 11.535C47.3789 11.535 47.3789 11.535 47.3789 11.535C47.3789 11.535 47.3789 11.535 47.3789 11.535C47.3789 11.535 47.3789 11.535 47.3789 11.535C47.3789 11.535 47.3789 11.535 47.3789 11.535C47.3789 11.535 47.3789 11.535 47.3789 11.535C47.3789 11.535 47.3789 11.535 47.3789 11.535C47.3789 11.535 47.3789 11.535 47.3789 11.535C47.3789 11.535 47.3789 11.535 47.3789 11.535C47.3789 11.535 47.3789 11.535 47.3789 11.535C47.3789 11.535 47.3789 11.535 47.3789 11.535C47.3789 11.535 47.3789 11.535 47.3789 11.535C47.3789 11.535 47.3789 11.535 47.3789 11.535C47.3789 11.535 47.3789 11.535 47.3789 11.535C47.3789 11.535 47.3789 11.535 47.3789 11.535C47.3789 11.535 47.3789 11.535 47.3789 11.535C47.3789 11.535 47.3789 11.535 47.3789 11.535C47.3789 11.535 47.3789 11.535 47.3789 11.535C47.3789 11.535 47.3789 11.535 47.3789 11.535C47.3789 11.535 47.3789 11.535 47.3789 11.535C47.3789 11.535 47.3789 11.535 47.3789 11.535C47.3789 11.535 47.3789 11.535 47.3789 11.535C47.3789 11.535 47.3789 11.535 47.3789 11.535C47.3789 11.535 47.3789 11.535 47.3789 11.535C47.3789 11.535 47.3789 11.535 47.3789 11.535C47.3789 11.535 47.3789 11.535 47.3789 11.535C47.3789 11.535 47.3789 11.535 47.3789 11.535C47.3789 11.535 47.3789 11.535 47.3789 11.535C47.3789 11.535 47.3789 11.535 47.3789 11.535C47.3789 11.535 47.3789 11.535 47.3789 11.535C47.3789 11.535 47.3789 11.535 47.3789 11.535C47.3789 11.535 47.3789 11.535 47.3789 11.535C47.3789 11.5351 47.3789 11.5351 47.3789 11.5351C47.3789 11.5351 47.3789 11.5351 47.3789 11.5351C47.3789 11.5351 47.3789 11.5351 47.3789 11.5351C47.3789 11.5351 47.3789 11.5351 47.3789 11.5351C47.3789 11.5351 47.3789 11.5351 47.3789 11.5351C47.3789 11.5351 47.3789 11.5351 47.3789 11.5351C47.3789 11.5351 47.3789 11.5351 47.3789 11.5351C47.3789 11.5351 47.3789 11.5351 47.3789 11.5351C47.3789 11.5351 47.3789 11.5351 47.3789 11.5351C47.3789 11.5351 47.3789 11.5351 47.3789 11.5351C47.3789 11.5351 47.3789 11.5351 47.3789 11.5351C47.3789 11.5351 47.3789 11.5351 47.3789 11.5351C47.3789 11.5351 47.3789 11.5351 47.3789 11.5351C47.3789 11.5351 47.3789 11.5351 47.3789 11.5351C47.3789 11.5351 47.3789 11.5351 47.3789 11.5351C47.3789 11.5351 47.3789 11.5351 47.3789 11.5351C47.3789 11.5351 47.3789 11.5351 47.3789 11.5351C47.3789 11.5351 47.3789 11.5351 47.3789 11.5351C47.3789 11.5351 47.3789 11.5351 47.3789 11.5351C47.3789 11.5351 47.3789 11.5351 47.3789 11.5351C47.3789 11.5351 47.3789 11.5351 47.3789 11.5351C47.3789 11.5351 47.3789 11.5351 47.3789 11.5351C47.3789 11.5351 47.3789 11.5351 47.3789 11.5351C47.3789 11.5351 47.3789 11.5351 47.3789 11.5351C47.3789 11.5351 47.3789 11.5351 47.3789 11.5351C47.3789 11.5351 47.3789 11.5351 47.3789 11.5351C47.3789 11.5351 47.3789 11.5351 47.3789 11.5351C47.3789 11.5351 47.3789 11.5351 47.3789 11.5351C47.3789 11.5351 47.3789 11.5351 47.3789 11.5351C47.3789 11.5351 47.3789 11.5351 47.3789 11.5351C47.3789 11.5351 47.3789 11.5351 47.3789 11.5351C47.3789 11.5351 47.3789 11.5351 47.3789 11.5351C47.3789 11.5351 47.3789 11.5351 47.3789 11.5351C47.3789 11.5351 47.3789 11.5351 47.3789 11.5351C47.3789 11.5351 47.3789 11.5351 47.3789 11.5351C47.3789 11.5351 47.3789 11.5351 47.3789 11.5351C47.3789 11.5351 47.3789 11.5351 47.3789 11.5351C47.3789 11.5351 47.3789 11.5351 47.3789 11.5351C47.3789 11.5351 47.3789 11.5351 47.3789 11.5351C47.3789 11.5351 47.3789 11.5351 47.3789 11.5351C47.3789 11.5351 47.3789 11.5351 47.3789 11.5351C47.3789 11.5351 47.3789 11.5351 47.3789 11.5351C47.3789 11.5351 47.3789 11.5351 47.3789 11.5351C47.3789 11.5351 47.3789 11.5351 47.3789 11.5351C47.3789 11.5351 47.3789 11.5351 47.3789 11.5351C47.3789 11.5351 47.3789 11.5351 47.3789 11.5351C47.3789 11.5351 47.3789 11.5351 47.3789 11.5351C47.3789 11.5351 47.3789 11.5351 47.3789 11.5351C47.3789 11.5351 47.3789 11.5351 47.3789 11.5351C47.3789 11.5351 47.3789 11.5351 47.3789 11.5351C47.3789 11.5351 47.3789 11.5351 47.3789 11.5351C47.3789 11.5351 47.3789 11.5351 47.3789 11.5351C47.3789 11.5351 47.3789 11.5351 47.3789 11.5351C47.3789 11.5351 47.3789 11.5351 47.3789 11.5351C47.3789 11.5351 47.3789 11.5351 47.3789 11.5351C47.3789 11.5351 47.3789 11.5351 47.3789 11.5351C47.3789 11.5351 47.3789 11.5351 47.3789 11.5351C47.3789 11.5351 47.3789 11.5351 47.3789 11.5351C47.3789 11.5351 47.3789 11.5351 47.3789 11.5351C47.3789 11.5351 47.3789 11.5351 47.3789 11.5351C47.3789 11.5351 47.3789 11.5351 47.3789 11.5351C47.3789 11.5351 47.3789 11.5351 47.3789 11.5351C47.3789 11.5351 47.3789 11.5351 47.3789 11.5351C47.3789 11.5351 47.3789 11.5351 47.3789 11.5351C47.3789 11.5351 47.3789 11.5351 47.3789 11.5351C47.3789 11.5351 47.3789 11.5351 47.3789 11.5351C47.3789 11.5351 47.3789 11.5351 47.3789 11.5351C47.3789 11.5351 47.3789 11.5351 47.3789 11.5351C47.3789 11.5351 47.3789 11.5351 47.3789 11.5351C47.3789 11.5351 47.3789 11.5351 47.3789 11.5351C47.3789 11.5351 47.3789 11.5351 47.3789 11.5351C47.3789 11.5351 47.3789 11.5351 47.3789 11.5351C47.3789 11.5351 47.3789 11.5351 47.3789 11.5351C47.3789 11.5351 47.3789 11.5351 47.3789 11.5351C47.3789 11.5351 47.3789 11.5351 47.3789 11.5351C47.3789 11.5351 47.3789 11.5351 47.3789 11.5351C47.3789 11.5351 47.3789 11.5351 47.3789 11.5351C47.3789 11.5351 47.3789 11.5351 47.3789 11.5351C47.3789 11.5351 47.3789 11.5351 47.3789 11.5351C47.3789 11.5351 47.3789 11.5351 47.3789 11.5351C47.3789 11.5351 47.3789 11.5351 47.3789 11.5351C47.3789 11.5351 47.3789 11.5351 47.3789 11.5351C47.3789 11.5351 47.3789 11.5351 47.3789 11.5351C47.3789 11.5351 47.3789 11.5351 47.3789 11.5351C47.3789 11.5351 47.3789 11.5351 47.3789 11.5351C47.3789 11.5351 47.3789 11.5351 47.3789 11.5351C47.3789 11.5351 47.3789 11.5351 47.3789 11.5351C47.3789 11.5351 47.3789 11.5351 47.3789 11.5351C47.3789 11.5351 47.3789 11.5351 47.3789 11.5351C47.3789 11.5351 47.3789 11.5351 47.3789 11.5351C47.3789 11.5351 47.3789 11.5351 47.3789 11.5351C47.3789 11.5351 47.3789 11.5351 47.3789 11.5351C47.3789 11.5351 47.3789 11.5351 47.3789 11.5351C47.3789 11.5351 47.3789 11.5351 47.3789 11.5351C47.3789 11.5351 47.3789 11.5351 47.3789 11.5351C47.3789 11.5351 47.3789 11.5351 47.3789 11.5351C47.3789 11.5351 47.3789 11.5351 47.3789 11.5351C47.3789 11.5351 47.3789 11.5351 47.3789 11.5351C47.3789 11.5351 47.3789 11.5351 47.3789 11.5351C47.3789 11.5351 47.3789 11.5351 47.3789 11.5351C47.3789 11.5351 47.3789 11.5351 47.3789 11.5351C47.3789 11.5351 47.3789 11.5351 47.3789 11.5351C47.3789 11.5351 47.3789 11.5351 47.3789 11.5351C47.3789 11.5351 47.3789 11.5351 47.3789 11.5351C47.3789 11.5351 47.3789 11.5351 47.3789 11.5351C47.3789 11.5351 47.3789 11.5351 47.3789 11.5351C47.3789 11.5351 47.3789 11.5351 47.3789 11.5351C47.3789 11.5351 47.3789 11.5351 47.3789 11.5351C47.3789 11.5351 47.3789 11.5351 47.3789 11.5351C47.3789 11.5351 47.3789 11.5351 47.3789 11.5351C47.3789 11.5351 47.3789 11.5351 47.3789 11.5351C47.3789 11.5351 47.3789 11.5351 47.3789 11.5351C47.3789 11.5351 47.3789 11.5351 47.3789 11.5351C47.3789 11.5351 47.3789 11.5351 47.3789 11.5351C47.3789 11.5351 47.3789 11.5351 47.3789 11.5351C47.3789 11.5351 47.3789 11.5351 47.3789 11.5351C47.3789 11.5351 47.3789 11.5351 47.3789 11.5351C47.3789 11.5351 47.3789 11.5351 47.3789 11.5351C47.3789 11.5351 47.3789 11.5351 47.3789 11.5351C47.3789 11.5351 47.3789 11.5351 47.3789 11.5351C47.3789 11.5351 47.3789 11.5351 47.3789 11.5351C47.3789 11.5351 47.3789 11.5351 47.3789 11.5351C47.3789 11.5351 47.3789 11.5351 47.3789 11.5351C47.3789 11.5351 47.3789 11.5351 47.3789 11.5351C47.3789 11.5351 47.3789 11.5351 47.3789 11.5351C47.3789 11.5351 47.3789 11.5351 47.3789 11.5351C47.3789 11.5351 47.3789 11.5351 47.3789 11.5351C47.3789 11.5351 47.3789 11.5351 47.3789 11.5351C47.3789 11.5351 47.3789 11.5351 47.3789 11.5351C47.3789 11.5351 47.3789 11.5351 47.3789 11.5351C47.3789 11.5351 47.3789 11.5351 47.3789 11.5351C47.3789 11.5351 47.3789 11.5351 47.3789 11.5351C47.3789 11.5351 47.3789 11.5351 47.3789 11.5351C47.3789 11.5351 47.3789 11.5351 47.3789 11.5351C47.3789 11.5351 47.3789 11.5351 47.3789 11.5351C47.3789 11.5351 47.3789 11.5351 47.3789 11.5351C47.3789 11.5351 47.3789 11.5351 47.3789 11.5351C47.3789 11.5351 47.3789 11.5351 47.3789 11.5351C47.3789 11.5351 47.3789 11.5351 47.3789 11.5351C47.3789 11.5351 47.3789 11.5351 47.3789 11.5351C47.3789 11.5351 47.3789 11.5351 47.3789 11.5351C47.3789 11.5351 47.3789 11.5351 47.3789 11.5351C47.3789 11.5351 47.3789 11.5351 47.3789 11.5351C47.3789 11.5351 47.3789 11.5351 47.3789 11.5351C47.3789 11.5351 47.3789 11.5351 47.3789 11.5351C47.3789 11.5351 47.3789 11.5351 47.3789 11.5351C47.3789 11.5351 47.3789 11.5351 47.3789 11.5351C47.3789 11.5351 47.3789 11.5351 47.3789 11.5351C47.3789 11.5351 47.3789 11.5351 47.3789 11.5351C47.3789 11.5351 47.3789 11.5351 47.3789 11.5351C47.3789 11.5351 47.3789 11.5351 47.3789 11.5351C47.3789 11.5351 47.3789 11.5351 47.3789 11.5351C47.3789 11.5351 47.3789 11.5351 47.3789 11.5351C47.3789 11.5351 47.3789 11.5351 47.3789 11.5351C47.3789 11.5351 47.3789 11.5351 47.3789 11.5351C47.3789 11.5351 47.3789 11.5351 47.3789 11.5351C47.3789 11.5351 47.3789 11.5351 47.3789 11.5351C47.3789 11.5351 47.3789 11.5351 47.3789 11.5351C47.3789 11.5351 47.3789 11.5351 47.3789 11.5351C47.3789 11.5351 47.3789 11.5351 47.3789 11.5351C47.3789 11.5351 47.3789 11.5351 47.3789 11.5351C47.3789 11.5351 47.3789 11.5351 47.3789 11.5351C47.3789 11.5351 47.3789 11.5351 47.3789 11.5351C47.3789 11.5351 47.3789 11.5351 47.3789 11.5351C47.3789 11.5351 47.3789 11.5351 47.3789 11.5351C47.3789 11.5351 47.3789 11.5351 47.3789 11.5351C47.3789 11.5351 47.3789 11.5351 47.3789 11.5351C47.3789 11.5351 47.3789 11.5351 47.3789 11.5351C47.3789 11.5351 47.3789 11.5351 47.3789 11.5351C47.3789 11.5351 47.3789 11.5351 47.3789 11.5351C47.3789 11.5351 47.3789 11.5351 47.3789 11.5351C47.3789 11.5351 47.3789 11.5351 47.3789 11.5351C47.3789 11.5351 47.3789 11.5351 47.3789 11.5351C47.3789 11.5351 47.3789 11.5351 47.3789 11.5351C47.3789 11.5351 47.3789 11.5351 47.3789 11.5351C47.3789 11.5351 47.3789 11.5351 47.3789 11.5351C47.3789 11.5351 47.3789 11.5351 47.3789 11.5351C47.3789 11.5351 47.3789 11.5351 47.3789 11.5351C47.3789 11.5351 47.3789 11.5351 47.3789 11.5351C47.3789 11.5351 47.3789 11.5351 47.3789 11.5351C47.3789 11.5351 47.3789 11.5351 47.3789 11.5351C47.3789 11.5351 47.3789 11.5351 47.3789 11.5351C47.3789 11.5351 47.3789 11.5351 47.3789 11.5351C47.3789 11.5351 47.3789 11.5351 47.3789 11.5351C47.3789 11.5351 47.3789 11.5351 47.3789 11.5351C47.3789 11.5351 47.3789 11.5351 47.3789 11.5351C47.3789 11.5351 47.3789 11.5351 47.3789 11.5351C47.3789 11.5351 47.3789 11.5351 47.3789 11.5351C47.3789 11.5351 47.3789 11.5351 47.3789 11.5351C47.3789 11.5351 47.3789 11.5351 47.3789 11.5351C47.3789 11.5351 47.3789 11.5351 47.3789 11.5351C47.3789 11.5351 47.3789 11.5351 47.3789 11.5351C47.3789 11.5351 47.3789 11.5351 47.3789 11.5351C47.3789 11.5351 47.3789 11.5351 47.3789 11.5351C47.3789 11.5351 47.3789 11.5351 47.3789 11.5351C47.3789 11.5351 47.3789 11.5351 47.3789 11.5351C47.3789 11.5351 47.3789 11.5351 47.3789 11.5351C47.3789 11.5351 47.3789 11.5351 47.3789 11.5351C47.3789 11.5351 47.3789 11.5351 47.3789 11.5351C47.3789 11.5351 47.3789 11.5351 47.3789 11.5351C47.3789 11.5351 47.3789 11.5351 47.3789 11.5351C47.3789 11.5351 47.3789 11.5351 47.3789 11.5351C47.3789 11.5351 47.3789 11.5351 47.3789 11.5351C47.3789 11.5351 47.3789 11.5351 47.3789 11.5351C47.3789 11.5351 47.3789 11.5351 47.3789 11.5351C47.3789 11.5351 47.3789 11.5351 47.3789 11.5351C47.3789 11.5351 47.3789 11.5351 47.3789 11.5351C47.3789 11.5351 47.3789 11.5351 47.3789 11.5351C47.3789 11.5351 47.3789 11.5351 47.3789 11.5351C47.3789 11.5351 47.3789 11.5351 47.3789 11.5351C47.3789 11.5351 47.3789 11.5351 47.3789 11.5351C47.3789 11.5351 47.3789 11.5351 47.3789 11.5351C47.3789 11.5351 47.3789 11.5351 47.3789 11.5351C47.3789 11.5351 47.3789 11.5351 47.3789 11.5351C47.3789 11.5351 47.3789 11.5351 47.3789 11.5351C47.3789 11.5351 47.3789 11.5351 47.3789 11.5351C47.3789 11.5351 47.3789 11.5351 47.3789 11.5351C47.3789 11.5351 47.3789 11.5351 47.3789 11.5351C47.3789 11.5351 47.3789 11.5351 47.3789 11.5351C47.3789 11.5351 47.3789 11.5351 47.3789 11.5351C47.3789 11.5351 47.3789 11.5351 47.3789 11.5351C47.3789 11.5351 47.3789 11.5351 47.3789 11.5351C47.3789 11.5351 47.3789 11.5351 47.3789 11.5351C47.3789 11.5351 47.3789 11.5351 47.3789 11.5351C47.3789 11.5351 47.3789 11.5351 47.3789 11.5351C47.3789 11.5351 47.3789 11.5351 47.3789 11.5351C47.3789 11.5351 47.3789 11.5351 47.3789 11.5351C47.3789 11.5351 47.3789 11.5351 47.3789 11.5351C47.3789 11.5351 47.3789 11.5351 47.3789 11.5351C47.3789 11.5351 47.3789 11.5351 47.3789 11.5351C47.3789 11.5351 47.3789 11.5351 47.3789 11.5351C47.3789 11.5351 47.3789 11.5351 47.3789 11.5351C47.3789 11.5351 47.3789 11.5351 47.3789 11.5351C47.3789 11.5351 47.3789 11.5351 47.3789 11.5351C47.3789 11.5351 47.3789 11.5351 47.3789 11.5351C47.8789 11.5351 48.3789 11.5351 47.8789 11.5351ZM48.2324 11.8878C49.0391 11.0811 49.4999 9.96756 49.4999 8.82811H48.4999C48.4999 9.70241 48.1444 10.5616 47.5253 11.1807L48.2324 11.8878ZM49.4999 8.82811C49.4999 6.44073 47.5593 4.50003 45.1718 4.50003V5.50003C47.007 5.50003 48.4999 6.993 48.4999 8.82811L49.4999 8.82811ZM42.4999 31C42.4999 31.8265 41.8271 32.4999 41 32.4999V33.4999C42.3797 33.4999 43.4999 32.3784 43.4999 31H42.4999ZM41 32.4999H12V33.4999H41V32.4999ZM12 32.4999C11.6015 32.4999 11.2204 32.6582 10.9393 32.9393L11.6464 33.6464C11.7403 33.5525 11.8672 33.4999 12 33.4999V32.4999ZM10.9393 32.9393L2.64641 41.2324L3.35352 41.9395L11.6464 33.6464L10.9393 32.9393ZM3.49997 41.5859V5.00003H2.49997V41.5859H3.49997ZM3.49997 5.00003C3.49997 4.17352 4.17279 3.50006 4.99993 3.50006V2.50006C3.6202 2.50006 2.49997 3.62154 2.49997 5.00003H3.49997ZM4.99993 3.50006H40.9999V2.50006H4.99993V3.50006ZM40.9999 3.50006C41.8272 3.50006 42.4999 4.17352 42.4999 5.00003H43.4999C43.4999 3.62154 42.3798 2.50006 40.9999 2.50006V3.50006ZM42.4999 5.00003V5.68309H43.4999V5.00003H42.4999ZM42.7167 5.27105C42.509 5.41383 42.3019 5.57658 42.111 5.76784L42.8187 6.47434C42.9551 6.33765 43.1112 6.21334 43.2832 6.09513L42.7167 5.27105ZM42.1113 5.76751L31.2307 16.6464L31.9377 17.3536L42.8183 6.47467L42.1113 5.76751ZM31.5842 16.5H12V17.5H31.5842V16.5ZM12 16.5C11.1711 16.5 10.4999 17.1712 10.4999 18H11.4999C11.4999 17.7234 11.7233 17.5 12 17.5V16.5ZM10.4999 18C10.4999 18.8289 11.1711 19.5001 12 19.5001V18.5001C11.7233 18.5001 11.4999 18.2766 11.4999 18H10.4999ZM12 19.5001H29.9798V18.5001H12V19.5001ZM29.4895 18.9021L28.5292 23.7058L29.5098 23.9018L30.4701 19.0981L29.4895 18.9021ZM28.5294 23.7047C28.4296 24.1983 28.5855 24.7069 28.9395 25.0607L29.6464 24.3535C29.5278 24.2348 29.4767 24.0656 29.5096 23.9029L28.5294 23.7047ZM28.9394 25.0606C29.2237 25.345 29.6072 25.5001 30 25.5001V24.5001C29.8694 24.5001 29.7411 24.4482 29.6465 24.3535L28.9394 25.0606ZM30 25.5001C30.0991 25.5001 30.1978 25.4896 30.2917 25.4712L30.0989 24.4899C30.064 24.4968 30.03 24.5001 30 24.5001V25.5001ZM30.2934 25.4708L35.2915 24.4708L35.0953 23.4902L30.0972 24.4903L30.2934 25.4708ZM35.2915 24.4708C35.5822 24.4126 35.8499 24.2709 36.0599 24.0593L35.3502 23.3548C35.2829 23.4226 35.1951 23.4703 35.0952 23.4903L35.2915 24.4708ZM36.0586 24.0606L43.3535 16.7669L42.6464 16.0597L35.3515 23.3535L36.0586 24.0606ZM42.4999 16.4133V31H43.4999V16.4133H42.4999ZM34.4077 21.5888L31.1773 22.2353L31.3735 23.2159L34.6039 22.5694L34.4077 21.5888ZM31.7657 22.8236L32.4122 19.5892L31.4316 19.3932L30.7851 22.6276L31.7657 22.8236ZM32.2754 19.8448L41.3531 10.7672L40.646 10.0601L31.5683 19.1377L32.2754 19.8448ZM40.646 10.7672L43.2322 13.3534L43.9393 12.6463L41.3531 10.0601L40.646 10.7672ZM43.2322 12.6463L34.1523 21.7255L34.8594 22.4327L43.9393 13.3535L43.2322 12.6463ZM46.1112 9.76756L44.6464 11.2324L45.3535 11.9395L46.8183 10.4747L46.1112 9.76756ZM45.3535 11.2324L42.767 8.64594L42.0599 9.35304L44.6464 11.9395L45.3535 11.2324ZM42.767 9.35304L44.2323 7.88773L43.5252 7.18063L42.0599 8.64594L42.767 9.35304ZM44.2318 7.88822C44.478 7.6427 44.8218 7.49999 45.1717 7.49999V6.49999C44.5568 6.49999 43.9592 6.74785 43.5257 7.18014L44.2318 7.88822ZM45.1717 7.49999C45.9034 7.49999 46.4999 8.09645 46.4999 8.82811H47.4999C47.4999 7.54416 46.4557 6.49999 45.1717 6.49999V7.49999ZM46.4999 8.82821C46.4999 9.17588 46.3573 9.52074 46.1107 9.76805L46.8188 10.4742C47.2518 10.0399 47.5 9.44129 47.4999 8.82802L46.4999 8.82821Z" fill="white" mask="url(#path-3-outside-1_108_22)"/>
</svg>
