<svg width="35" height="50" viewBox="0 0 35 50" fill="none" xmlns="http://www.w3.org/2000/svg">
<path d="M17.7301 49.7942L17.738 49.7941L17.7459 49.7935L17.7823 49.7904C17.9575 49.7801 18.1278 49.7293 18.28 49.6419C18.431 49.5552 18.56 49.4349 18.657 49.2903C34.459 28.3986 34.6728 18.6282 34.6388 17.5191L34.6388 17.4995L34.6388 17.4968C34.5803 13.0507 32.774 8.80639 29.6105 5.68178C26.447 2.55716 22.1806 0.803467 17.7341 0.800005C13.2877 0.796543 9.01855 2.54359 5.85017 5.66328C2.68242 8.78235 0.869555 13.0228 0.803492 17.4679C0.768347 18.3414 0.700841 28.0254 16.7856 49.2974C16.877 49.4316 16.9966 49.5443 17.136 49.6277C17.2082 49.6738 17.2863 49.7101 17.3681 49.7356C17.4848 49.7749 17.6071 49.7947 17.7301 49.7942ZM7.38188 7.15306C10.1267 4.40883 13.8479 2.86528 17.7293 2.86098C21.6034 2.86524 25.3183 4.40306 28.0619 7.13828C30.8036 9.87149 32.3525 13.5782 32.371 17.4492C32.3676 17.4925 32.3678 17.5361 32.3715 17.5794C32.3719 17.5898 32.377 17.7315 32.3583 18.0106C32.339 18.2998 32.2941 18.734 32.1928 19.3178C31.9902 20.4855 31.5618 22.2517 30.6591 24.6531C28.8665 29.4221 25.2043 36.6949 17.7293 46.7567C3.01702 26.9316 3.08008 17.9296 3.08728 17.5815C3.08922 17.5521 3.0893 17.5226 3.08754 17.4931C3.09438 13.6141 4.63855 9.89579 7.38188 7.15306Z" fill="white" stroke="white" stroke-width="0.4"/>
<path d="M28.1989 16.9757V16.9756C28.1989 14.9056 27.5851 12.8821 26.4352 11.161C25.2853 9.43986 23.6508 8.09834 21.7385 7.30605C19.8262 6.51377 17.7219 6.3063 15.6917 6.70989C13.6614 7.11347 11.7965 8.10998 10.3326 9.57342C8.86867 11.0369 7.87157 12.9015 7.46734 14.9316C7.06311 16.9617 7.26991 19.0661 8.06159 20.9786C8.85327 22.8912 10.1943 24.5261 11.9151 25.6765C13.6358 26.827 15.6591 27.4414 17.729 27.4421H17.7292C20.5048 27.4403 23.1663 26.3372 25.1293 24.3748C27.0923 22.4125 28.1963 19.7514 28.1989 16.9757ZM13.1805 10.1747C14.5267 9.27456 16.1096 8.79376 17.7291 8.79311C19.901 8.79398 21.9837 9.65692 23.5198 11.1924C25.0559 12.7279 25.9196 14.8103 25.9213 16.9822C25.9213 18.6017 25.4411 20.1847 24.5414 21.5313C23.6418 22.8779 22.363 23.9275 20.8669 24.5474C19.3707 25.1673 17.7244 25.3296 16.1359 25.0139C14.5475 24.6982 13.0884 23.9186 11.943 22.7736C10.7977 21.6287 10.0175 20.1699 9.70115 18.5816C9.38482 16.9933 9.54653 15.3469 10.1658 13.8505C10.7852 12.3541 11.8343 11.0749 13.1805 10.1747Z" fill="white" stroke="white" stroke-width="0.4"/>
</svg>
