<svg width="24" height="24" viewBox="0 0 24 24" fill="none" xmlns="http://www.w3.org/2000/svg">
<path d="M2 5.00002C1.99996 4.86869 2.0258 4.73864 2.07604 4.6173C2.12628 4.49595 2.19994 4.3857 2.2928 4.29283C2.38567 4.19996 2.49592 4.1263 2.61726 4.07605C2.7386 4.02581 2.86865 3.99996 2.99998 3.99999H16C16.1319 3.99909 16.2626 4.02429 16.3848 4.07414C16.5069 4.12399 16.6179 4.19751 16.7115 4.29046C16.8051 4.3834 16.8794 4.49395 16.9301 4.61572C16.9808 4.7375 17.0068 4.8681 17.0068 5C17.0068 5.1319 16.9808 5.2625 16.9301 5.38428C16.8794 5.50605 16.8051 5.6166 16.7115 5.70955C16.6179 5.8025 16.5069 5.87601 16.3848 5.92586C16.2626 5.97571 16.1319 6.00091 16 6.00001H2.99998C2.86866 6.00004 2.73861 5.97419 2.61727 5.92395C2.49593 5.87371 2.38568 5.80005 2.29282 5.70719C2.19996 5.61433 2.1263 5.50408 2.07606 5.38274C2.02581 5.2614 1.99997 5.13135 2 5.00002ZM21 11H2.99998C2.73477 11 2.48042 11.1054 2.29289 11.2929C2.10536 11.4804 2 11.7348 2 12C2 12.2652 2.10536 12.5196 2.29289 12.7071C2.48042 12.8946 2.73477 13 2.99998 13H21C21.2652 13 21.5195 12.8946 21.7071 12.7071C21.8946 12.5196 22 12.2652 22 12C22 11.7348 21.8946 11.4804 21.7071 11.2929C21.5195 11.1054 21.2652 11 21 11ZM12 18H2.99998C2.73595 18.0018 2.48335 18.108 2.29729 18.2953C2.11122 18.4827 2.0068 18.736 2.0068 19C2.0068 19.2641 2.11122 19.5174 2.29729 19.7047C2.48335 19.8921 2.73595 19.9982 2.99998 20H12C12.264 19.9982 12.5166 19.8921 12.7027 19.7047C12.8887 19.5174 12.9932 19.2641 12.9932 19C12.9932 18.736 12.8887 18.4827 12.7027 18.2953C12.5166 18.108 12.264 18.0018 12 18Z" fill="white"/>
</svg>
