<svg width="20" height="18" viewBox="0 0 20 18" fill="none" xmlns="http://www.w3.org/2000/svg">
<path d="M4.49992 4.90909H13.4999C13.726 4.90909 13.909 4.72611 13.909 4.49998C13.909 4.27386 13.726 4.09088 13.4999 4.09088H4.49992C4.2738 4.09088 4.09082 4.27386 4.09082 4.49998C4.09086 4.72615 4.27384 4.90909 4.49992 4.90909Z" fill="#515151"/>
<path d="M9.40901 9H4.49992C4.2738 9 4.09082 9.18298 4.09082 9.4091C4.09082 9.63523 4.2738 9.81821 4.49992 9.81821H9.40901C9.63513 9.81821 9.81811 9.63523 9.81811 9.4091C9.81811 9.18298 9.63513 9 9.40901 9Z" fill="#ffffff"/>
<path d="M18.0703 1.63637C18.0466 1.63637 18.0236 1.64232 18 1.64343V1.63637C18 0.733908 17.2657 0 16.3636 0H1.63637C0.734292 0 0 0.733908 0 1.63637V17.5909C0 17.7563 0.0998692 17.9057 0.252473 17.9688C0.302829 17.99 0.356331 18 0.409065 18C0.515339 18 0.620002 17.9585 0.698317 17.8801L4.66938 13.9091H16.3636C17.2657 13.9091 18 13.1752 18 12.2727V5.48736L19.1777 4.30983C19.1777 4.30983 19.1777 4.30983 19.1777 4.30945C19.4694 4.01782 19.6363 3.61431 19.6363 3.20241C19.6363 2.33872 18.934 1.63637 18.0703 1.63637ZM17.1818 12.2727C17.1818 12.7237 16.815 13.0909 16.3636 13.0909H4.49998C4.39133 13.0909 4.28743 13.134 4.21073 13.2107L0.818168 16.6033V1.63637C0.818168 1.18535 1.18493 0.818206 1.63634 0.818206H16.3636C16.8151 0.818206 17.1818 1.18535 17.1818 1.63637V1.91581C17.1041 1.96919 17.0298 2.02791 16.9629 2.09499L12.5117 6.54546H4.49998C4.27386 6.54546 4.09088 6.72844 4.09088 6.95456C4.09088 7.18069 4.27386 7.36367 4.49998 7.36367H11.8554L11.4625 9.32883C11.4354 9.46307 11.4777 9.60171 11.5744 9.69836C11.6519 9.77587 11.7566 9.81821 11.8636 9.81821C11.89 9.81821 11.9172 9.81541 11.9435 9.81023L13.9882 9.40113C14.0681 9.38513 14.1408 9.3464 14.1975 9.28925L17.1818 6.30545V12.2727ZM13.7069 8.62327L12.3854 8.88774L12.6499 7.56459L16.3634 3.85102L17.4215 4.90905L13.7069 8.62327ZM18.5992 3.73136L18 4.33062L16.9419 3.27252L17.5413 2.67307C17.6803 2.53443 17.8729 2.45454 18.0703 2.45454C18.4825 2.45454 18.8181 2.79012 18.8181 3.20241C18.8182 3.39897 18.7382 3.59195 18.5992 3.73136Z" fill="#ffffff"/>
</svg>
