<svg width="234" height="235" viewBox="0 0 234 235" fill="none" xmlns="http://www.w3.org/2000/svg">
<g id="OBJECTS">
<g id="Group">
<path id="Vector" d="M96.8107 37.1129C96.8107 37.1129 86.7955 37.1129 83.1264 50.3059C79.462 63.4988 60.1617 64.7203 62.6046 79.3827C65.0476 94.0405 99.2537 106.503 117.824 73.2753C136.394 40.0426 109.026 32.2223 96.8107 37.1129Z" fill="#A7C5FF"/>
<path id="Vector_2" d="M135.149 83.1173C135.884 83.1173 152.741 68.7029 164.226 78.9615C175.711 89.2247 138.57 117.81 123.912 109.26C109.25 100.709 135.149 83.1173 135.149 83.1173Z" fill="#A7C5FF"/>
</g>
<g id="Group_2">
<g id="Group_3">
<path id="Vector_3" d="M155.512 46.2952H78.0811V121.231H155.512V46.2952Z" fill="white" stroke="#252D3B" stroke-width="0.234" stroke-miterlimit="10" stroke-linecap="round"/>
<path id="Vector_4" d="M161.862 43.5012H72.1328V48.1905H161.862V43.5012Z" fill="#252D3B"/>
</g>
<path id="Vector_5" d="M98.692 71.9463H89.084V81.7041H98.692V71.9463Z" fill="#A7C5FF"/>
<path id="Vector_6" d="M110.851 71.9463H101.243V81.7041H110.851V71.9463Z" fill="#A7C5FF"/>
<path id="Vector_7" d="M94.788 70.093H93.3887V72.9899H94.788V70.093Z" fill="white" stroke="#252D3B" stroke-width="0.234" stroke-miterlimit="10" stroke-linecap="round"/>
<path id="Vector_8" d="M106.975 70.093H105.576V72.9899H106.975V70.093Z" fill="white" stroke="#252D3B" stroke-width="0.234" stroke-miterlimit="10" stroke-linecap="round"/>
<path id="Vector_9" d="M137.616 100.363C140.2 100.363 142.296 98.2679 142.296 95.6832C142.296 93.0985 140.2 91.0032 137.616 91.0032C135.031 91.0032 132.936 93.0985 132.936 95.6832C132.936 98.2679 135.031 100.363 137.616 100.363Z" fill="#A7C5FF"/>
<path id="Vector_10" d="M133.769 88.958L137.026 95.3556L142.745 89.1827" stroke="#252D3B" stroke-width="0.234" stroke-miterlimit="10" stroke-linecap="round"/>
<path id="Vector_11" d="M137.401 61.7017H124.292V80.3H137.401V61.7017Z" stroke="#252D3B" stroke-width="0.234" stroke-miterlimit="10" stroke-linecap="round"/>
<path id="Vector_12" d="M126.954 64.7999H134.821" stroke="#252D3B" stroke-width="0.234" stroke-miterlimit="10" stroke-linecap="round"/>
<path id="Vector_13" d="M126.954 67.5939H134.821" stroke="#252D3B" stroke-width="0.234" stroke-miterlimit="10" stroke-linecap="round"/>
<path id="Vector_14" d="M126.954 70.3925H134.821" stroke="#252D3B" stroke-width="0.234" stroke-miterlimit="10" stroke-linecap="round"/>
<g id="Group_4">
<path id="Vector_15" d="M111.169 92.8986H89.4209V108.076H111.169V92.8986Z" stroke="#252D3B" stroke-width="0.234" stroke-miterlimit="10" stroke-linecap="round"/>
<path id="Vector_16" d="M92.543 96.2169H107.982" stroke="#252D3B" stroke-width="0.234" stroke-miterlimit="10" stroke-linecap="round"/>
<path id="Vector_17" d="M92.543 100.101H107.982" stroke="#252D3B" stroke-width="0.234" stroke-miterlimit="10" stroke-linecap="round"/>
<path id="Vector_18" d="M92.543 103.981H107.982" stroke="#252D3B" stroke-width="0.234" stroke-miterlimit="10" stroke-linecap="round"/>
</g>
</g>
<g id="Group_5">
<g id="Clip path group">
<mask id="mask0_2186_2345" style="mask-type:luminance" maskUnits="userSpaceOnUse" x="0" y="34" width="234" height="201">
<g id="SVGID_00000007419808858086860220000017236786852602583229_">
<path id="Vector_19" d="M234 34.773H0V234.553H234V34.773Z" fill="white"/>
</g>
</mask>
<g mask="url(#mask0_2186_2345)">
<path id="Vector_20" d="M-7.04785 193.837H273.439" stroke="#252D3B" stroke-width="0.234" stroke-miterlimit="10" stroke-linecap="round"/>
</g>
</g>
</g>
<g id="Group_6">
<g id="Group_7">
<g id="Vector_21">
<path d="M148.048 129.969C148.048 129.969 149.115 130.039 149.414 130.633C149.667 131.134 148.085 131.2 148.085 131.2" fill="white"/>
<path d="M148.048 129.969C148.048 129.969 149.115 130.039 149.414 130.633C149.667 131.134 148.085 131.2 148.085 131.2" stroke="#252D3B" stroke-width="0.234" stroke-miterlimit="10" stroke-linecap="round"/>
</g>
<path id="Vector_22" d="M142.507 136.039C142.507 136.039 143.176 136.086 142.507 133.694C141.837 131.303 141.931 127.283 143.466 127.184C144.996 127.091 145.291 128.167 145.291 128.167C145.291 128.167 146.756 127.919 146.925 129.169C146.925 129.169 147.491 129.141 147.879 129.693C148.268 130.25 147.711 130.999 147.795 132.945C147.879 134.892 148.712 136.834 146.293 138.449C143.873 140.059 146.377 138.646 146.377 138.646L142.507 136.039Z" fill="white" stroke="#252D3B" stroke-width="0.234" stroke-miterlimit="10" stroke-linecap="round"/>
<g id="Group_8">
<path id="Vector_23" d="M138.744 126.047C138.852 126.08 150.917 133.46 150.917 133.46L138.744 126.047Z" fill="white"/>
<path id="Vector_24" d="M150.917 134.008C151.099 134.008 152.078 134.265 152.078 134.265C152.078 134.265 151.464 133.151 151.202 132.997C139.081 125.579 138.992 125.551 138.903 125.528C138.613 125.439 138.309 125.603 138.22 125.893C138.141 126.155 138.267 126.431 138.506 126.543C138.927 126.777 145.965 131.078 150.631 133.933C150.72 133.98 150.819 134.008 150.917 134.008Z" fill="#252D3B"/>
</g>
<path id="Vector_25" d="M134.939 134.457H110.724C106.367 134.457 102.834 137.99 102.834 142.347V182.881C102.834 188.249 107.186 192.597 112.55 192.597H144.664C144.664 192.597 142.628 158.372 142.825 142.436C142.881 138.042 139.333 134.457 134.939 134.457Z" fill="#252D3B"/>
<path id="Vector_26" d="M144.935 154.483C146.942 153.168 148.875 144.051 147.949 137.092C147.949 137.092 145.941 135.313 142.384 135.622C142.384 135.622 141.046 137.864 139.684 140.714C138.757 137.073 137.068 133.877 133.759 132.323C132.004 131.499 128.578 132.36 125.672 132.047C117.529 131.167 111.505 133.011 107.495 145.483C106.83 147.547 105.127 150.879 105.417 152.676C107.022 162.542 118.89 157.295 118.89 157.295C118.89 157.295 111.122 177.153 145.782 164.671C145.782 164.671 142.286 161.166 141.336 154.913C142.679 155.26 144.003 155.086 144.935 154.483Z" fill="white" stroke="#252D3B" stroke-width="0.234" stroke-miterlimit="10" stroke-linecap="round"/>
<path id="Vector_27" d="M133.96 141.833C133.96 141.833 135.322 144.117 134.7 146.611C134.077 149.105 132.584 153.542 133.052 156.139" stroke="white" stroke-width="0.234" stroke-miterlimit="10" stroke-linecap="round"/>
<path id="Vector_28" d="M135.711 150.102C135.711 150.102 133.6 148.01 132.144 146.396C130.637 144.725 122.724 147.233 122.724 147.233C122.724 147.233 121.933 150.102 124.015 151.394C126.098 152.686 132.631 151.225 132.715 150.5C132.795 149.779 131.232 148.296 131.232 148.296C131.232 148.296 134.522 150.781 135.322 150.86C136.127 150.945 135.711 150.102 135.711 150.102Z" fill="white" stroke="#252D3B" stroke-width="0.234" stroke-miterlimit="10" stroke-linecap="round"/>
<g id="Vector_29">
<path d="M129.706 149.208C129.706 149.208 130.151 149.456 130.895 150.201L129.706 149.208Z" fill="white"/>
<path d="M129.706 149.208C129.706 149.208 130.151 149.456 130.895 150.201" stroke="#252D3B" stroke-width="0.234" stroke-miterlimit="10" stroke-linecap="round"/>
</g>
<g id="Vector_30">
<path d="M128.12 149.555C128.12 149.555 128.518 149.854 128.813 150.201L128.12 149.555Z" fill="white"/>
<path d="M128.12 149.555C128.12 149.555 128.518 149.854 128.813 150.201" stroke="#252D3B" stroke-width="0.234" stroke-miterlimit="10" stroke-linecap="round"/>
</g>
<g id="Vector_31">
<path d="M122.729 147.233C122.729 147.233 118.779 147.36 113.701 149.798L122.729 147.233Z" fill="white"/>
<path d="M122.729 147.233C122.729 147.233 118.779 147.36 113.701 149.798" stroke="#252D3B" stroke-width="0.234" stroke-miterlimit="10" stroke-linecap="round"/>
</g>
<g id="Vector_32">
<path d="M117.58 141.121C117.58 141.121 117.276 146.297 116.462 148.53L117.58 141.121Z" fill="white"/>
<path d="M117.58 141.121C117.58 141.121 117.276 146.297 116.462 148.53" stroke="#252D3B" stroke-width="0.234" stroke-miterlimit="10" stroke-linecap="round"/>
</g>
<path id="Vector_33" d="M139.927 152.765C139.927 152.765 133.595 149.18 125.321 150.439L124.956 154.604L142.731 154.993L139.927 152.765Z" fill="white" stroke="#252D3B" stroke-width="0.234" stroke-miterlimit="10" stroke-linecap="round"/>
<path id="Vector_34" d="M141.079 153.243C141.079 153.243 147.411 149.658 155.685 150.917L156.05 155.082L138.275 155.47L141.079 153.243Z" fill="white" stroke="#252D3B" stroke-width="0.234" stroke-miterlimit="10" stroke-linecap="round"/>
<g id="Group_9">
<g id="Group_10">
<path id="Vector_35" d="M133.6 129.033C125.326 133.184 120.201 130.245 116.841 128.71C116.616 127.517 116.49 125.588 117.421 123.843C118.09 122.588 118.671 122.046 119.106 121.826C119.569 121.592 119.878 121.124 119.878 120.581C119.873 119.228 120.444 118.489 121.708 117.567C124.132 115.802 125.775 117.852 125.775 117.852C125.775 117.852 125.971 116.912 127.787 117.094C129.931 117.309 130.474 118.33 131.601 118.961C133.511 120.029 133.511 122.677 132.575 125.364C132.06 126.843 132.804 128.612 133.6 129.033Z" fill="#435388"/>
<path id="Vector_36" d="M127.6 121.779C128.686 121.086 130.02 120.777 130.235 122.242C130.371 123.187 130.488 123.412 130.843 124.84C131.606 127.891 129.617 130.006 126.73 129.159C123.795 128.298 123.131 127.016 123.238 123.403C123.318 120.749 124.862 121.69 124.862 121.69C124.862 121.69 125.948 122.827 127.6 121.779Z" fill="white"/>
<path id="Vector_37" d="M129.808 123.632C129.808 123.875 129.71 124.067 129.593 124.067C129.472 124.067 129.378 123.871 129.378 123.632C129.378 123.393 129.476 123.197 129.593 123.197C129.71 123.197 129.808 123.393 129.808 123.632Z" fill="#252D3B"/>
<path id="Vector_38" d="M127.006 123.922C127.062 124.152 127.015 124.376 126.903 124.414C126.79 124.456 126.65 124.301 126.589 124.067C126.533 123.838 126.58 123.613 126.692 123.576C126.809 123.534 126.95 123.688 127.006 123.922Z" fill="#252D3B"/>
<path id="Vector_39" d="M129.29 126.618C129.29 126.618 128.527 126.983 127.376 126.843C127.376 126.843 127.938 128.036 128.569 127.924C129.201 127.811 129.29 126.618 129.29 126.618Z" stroke="#252D3B" stroke-width="0.234" stroke-miterlimit="10" stroke-linecap="round"/>
<path id="Vector_40" d="M128.896 129.239C128.896 129.239 128.625 130.694 129.514 131.93C129.514 131.93 130.23 134.326 129.505 136.816C129.289 137.56 128.367 137.822 127.773 137.321C126.514 136.259 124.6 134.368 124.076 132.29C124.076 132.29 124.169 128.518 123.683 126.552C123.683 126.557 128.569 128.981 128.896 129.239Z" fill="white"/>
<path id="Vector_41" d="M128.896 129.239C128.896 129.239 127.548 129.515 126.069 128.78C124.595 128.041 126.654 130.877 129.022 130.76C129.022 130.76 128.802 130.245 128.896 129.239Z" fill="#252D3B"/>
<path id="Vector_42" d="M128.929 122.336C128.929 122.336 129.579 122.289 130.085 122.551C130.59 122.818 129.434 121.376 128.929 122.336Z" fill="#252D3B"/>
<path id="Vector_43" d="M126.551 122.865C126.551 122.865 125.924 123.103 125.686 123.417C125.447 123.73 125.564 122.046 126.551 122.865Z" fill="#252D3B"/>
<path id="Vector_44" d="M124.038 125.261C124.038 125.261 123.262 124.418 122.452 124.582C121.642 124.746 122.26 127.17 123.94 126.688C125.625 126.201 124.038 125.261 124.038 125.261Z" fill="white"/>
<path id="Vector_45" d="M123.458 125.598C123.458 125.598 123.219 124.989 122.625 125.055" stroke="#252D3B" stroke-width="0.234" stroke-miterlimit="10" stroke-linecap="round"/>
</g>
<path id="Vector_46" d="M115.615 128.509C115.615 128.509 114.141 124.896 118.091 122.485" stroke="#435388" stroke-width="0.234" stroke-miterlimit="10" stroke-linecap="round"/>
<path id="Vector_47" d="M123.267 124.591C123.267 124.591 124.909 123.744 124.909 120.89C124.905 118.035 120.716 121.198 123.267 124.591Z" fill="#435388"/>
</g>
<path id="Vector_48" d="M147.832 130.034C147.734 129.566 147.523 129.697 147.523 129.697L146.662 129.239L145.263 128.551L144.785 128.607L145.146 130.465C145.146 130.465 145.244 131.906 145.904 131.41C146.007 131.335 146.007 131.19 146.016 131.106C146.072 131.246 146.292 131.906 146.709 131.546C146.709 131.546 146.769 132.482 147.528 132.023C147.939 131.771 147.949 130.587 147.832 130.034Z" fill="white"/>
<g id="Vector_49">
<path d="M143.218 132.421C143.218 132.421 143.695 131.682 143.527 130.516C143.358 129.351 144.168 128.588 144.552 128.78C144.931 128.972 146.096 131.991 144.622 134.059" fill="white"/>
<path d="M143.218 132.421C143.218 132.421 143.695 131.682 143.527 130.516C143.358 129.351 144.168 128.588 144.552 128.78C144.931 128.972 146.096 131.991 144.622 134.059" stroke="#252D3B" stroke-width="0.234" stroke-miterlimit="10" stroke-linecap="round"/>
</g>
<g id="Vector_50">
<path d="M147.851 131.785C147.851 131.785 147.224 132.936 146.863 131.471L147.851 131.785Z" fill="white"/>
<path d="M147.851 131.785C147.851 131.785 147.224 132.936 146.863 131.471" stroke="#252D3B" stroke-width="0.234" stroke-miterlimit="10" stroke-linecap="round"/>
</g>
<g id="Vector_51">
<path d="M143.741 127.184C145 127.339 146.793 126.698 147.05 127.372C147.303 128.05 146.315 128.832 144.977 128.429" fill="white"/>
<path d="M143.741 127.184C145 127.339 146.793 126.698 147.05 127.372C147.303 128.05 146.315 128.832 144.977 128.429" stroke="#252D3B" stroke-width="0.234" stroke-miterlimit="10" stroke-linecap="round"/>
</g>
<path id="Vector_52" d="M145.562 129.571C145.562 129.571 145.557 130.919 145.903 131.406C145.903 131.406 146.217 132.061 146.788 131.443C147.354 130.825 146.923 129.169 146.923 129.169" stroke="#252D3B" stroke-width="0.234" stroke-miterlimit="10" stroke-linecap="round"/>
<path id="Vector_53" d="M123.717 126.805C123.717 126.805 124.335 129.805 123.998 132.243" stroke="#252D3B" stroke-width="0.234" stroke-miterlimit="10" stroke-linecap="round"/>
<path id="Vector_54" d="M129.022 130.76C129.022 130.76 129.266 131.878 129.654 132.187" stroke="#252D3B" stroke-width="0.234" stroke-miterlimit="10" stroke-linecap="round"/>
<path id="Vector_55" d="M139.684 140.714C139.684 140.714 138.664 142.9 138.406 144.804" stroke="#252D3B" stroke-width="0.234" stroke-miterlimit="10" stroke-linecap="round"/>
<path id="Vector_56" d="M117.721 132.702C117.721 132.702 122.251 136.783 128.705 136.161C134.499 135.604 135.107 133.268 135.107 133.268L133.684 132.463C133.684 132.463 131.489 134.686 126.636 134.392C121.778 134.097 120.416 132.145 120.416 132.145C120.416 132.145 118.437 132.412 117.721 132.702Z" fill="#A7C5FF"/>
<path id="Vector_57" d="M142.614 153.753C142.614 153.06 141.945 152.503 141.121 152.503C140.297 152.503 139.628 153.065 139.628 153.753C139.628 154.445 140.297 155.002 141.121 155.002C141.945 155.002 142.614 154.441 142.614 153.753Z" fill="white" stroke="#252D3B" stroke-width="0.234" stroke-miterlimit="10" stroke-linecap="round"/>
<path id="Vector_58" d="M158.086 154.899C158.034 154.492 157.711 154.188 157.332 154.188L139.6 154.033L139.595 154.09L122.743 153.945C122.345 153.94 122.012 154.263 121.975 154.689L121.956 154.904C121.909 155.391 122.265 155.812 122.724 155.812L157.337 155.84C157.791 155.835 158.147 155.391 158.086 154.899Z" fill="#252D3B"/>
<g id="Group_11">
<path id="Vector_59" d="M159.817 164.816H127.043V181.234H159.817V164.816Z" fill="#435388"/>
<path id="Vector_60" d="M123.987 164.348C123.987 164.348 146.784 160.445 151.319 161.344C168.892 164.811 142.338 175.912 142.338 175.912L123.987 164.348Z" fill="#435388"/>
<path id="Vector_61" d="M132.355 173.039C132.355 173.039 141.94 167.821 150.191 170.006" stroke="white" stroke-width="0.234" stroke-miterlimit="10" stroke-linecap="round"/>
</g>
<path id="Vector_62" d="M124.872 162.588H108.642L106.602 185.979L135.304 186.859V173.02C135.299 167.259 130.633 162.588 124.872 162.588Z" fill="#252D3B"/>
<path id="Vector_63" d="M112.887 212.969H110.921V189.7H115.83L112.887 212.969Z" fill="#252D3B"/>
<path id="Vector_64" d="M135.276 181.056V192.466" stroke="white" stroke-width="0.234" stroke-miterlimit="10" stroke-linecap="round"/>
</g>
<path id="Vector_65" d="M118.33 162.621H111.469" stroke="white" stroke-width="0.234" stroke-miterlimit="10" stroke-linecap="round"/>
</g>
<g id="Group_12">
<g id="Group_13">
<path id="Vector_66" d="M199.995 110.472C199.995 110.472 188.679 135.487 201.333 147.547C201.338 147.547 211.311 121.044 199.995 110.472Z" fill="#A7C5FF"/>
<path id="Vector_67" d="M204.277 143.138C204.277 143.138 206.875 130.587 214.653 124.208C220.723 119.233 226.737 122.392 226.737 122.392C226.737 122.392 221.088 124.456 219.249 128.275C217.358 132.206 217.966 144.21 204.277 143.138Z" fill="#A7C5FF"/>
<path id="Vector_68" d="M200.81 142.408C200.81 142.408 198.722 128.27 200.618 116.219" stroke="white" stroke-width="0.234" stroke-miterlimit="10" stroke-linecap="round"/>
<path id="Vector_69" d="M209.944 137.836C209.944 137.836 206.987 132.622 212.083 130.952C218.551 128.832 217.765 122.266 225.487 121.835" stroke="white" stroke-width="0.234" stroke-miterlimit="10" stroke-linecap="round"/>
</g>
<path id="Vector_70" d="M199.368 207.531H213.132C214.035 207.531 214.765 206.801 214.765 205.897V189.391C214.765 188.488 214.035 187.758 213.132 187.758H199.368C198.464 187.758 197.734 188.488 197.734 189.391V205.897C197.734 206.801 198.464 207.531 199.368 207.531Z" fill="#A7C5FF"/>
</g>
<g id="Group_14">
<path id="Vector_71" d="M63.9338 127.952C63.9338 127.952 64.5188 133.849 63.2646 138.618C61.0884 146.878 56.8108 156.046 59.0245 156.191C66.1334 156.65 76.4528 142.792 76.9114 142.104C77.3701 141.416 65.4595 147.921 65.4595 147.921C65.4595 147.921 68.7589 126.801 63.9338 127.952Z" fill="#A7C5FF"/>
<g id="Group_15">
<path id="Vector_72" d="M50.1873 185.577H29.8574V200.333H50.1873V185.577Z" fill="#A7C5FF"/>
<g id="Group_16">
<path id="Vector_73" d="M8.49829 119.439C7.88053 120.061 23.4696 116.008 32.97 123.347C32.97 123.347 33.686 114.141 44.7823 109.218C44.7823 109.218 37.7015 104.94 31.697 113.069C31.697 113.069 25.6598 105.717 15.2702 108.956C15.2702 108.956 19.3793 109.765 25.1731 114.118C25.1778 114.118 14.353 113.528 8.49829 119.439Z" fill="#A7C5FF"/>
<path id="Vector_74" d="M29.2217 120.946C29.2217 120.946 31.4587 118.947 33.9344 119.509C36.4102 120.066 37.4491 139.563 35.4508 143.878C33.4524 148.193 30.6584 143.56 30.6584 143.56C30.6584 143.56 34.8143 128.373 29.2217 120.946Z" fill="white" stroke="#252D3B" stroke-width="0.234" stroke-miterlimit="10" stroke-linecap="round"/>
<g id="Vector_75">
<path d="M31.0322 124.002L31.9542 124.315C32.6468 124.549 33.4097 124.329 33.8683 123.763L35.277 122.027" fill="white"/>
<path d="M31.0322 124.002L31.9542 124.315C32.6468 124.549 33.4097 124.329 33.8683 123.763L35.277 122.027" stroke="#252D3B" stroke-width="0.234" stroke-miterlimit="10" stroke-linecap="round"/>
</g>
<g id="Vector_76">
<path d="M32.0947 128.35L33.5876 128.925C34.4254 129.248 35.3801 129.028 35.9885 128.364L36.1429 128.195" fill="white"/>
<path d="M32.0947 128.35L33.5876 128.925C34.4254 129.248 35.3801 129.028 35.9885 128.364L36.1429 128.195" stroke="#252D3B" stroke-width="0.234" stroke-miterlimit="10" stroke-linecap="round"/>
</g>
</g>
</g>
</g>
<g id="Group_17">
<g id="Group_18">
<path id="Vector_77" d="M184.662 73.9585C184.662 75.7089 186.08 77.1222 187.826 77.1222C189.571 77.1222 190.989 75.7042 190.989 73.9585C190.989 72.2082 189.571 70.7949 187.826 70.7949C186.08 70.7949 184.662 72.2082 184.662 73.9585Z" fill="white" stroke="#252D3B" stroke-width="0.234" stroke-miterlimit="10" stroke-linecap="round"/>
<path id="Vector_78" d="M187.977 70.837V0.950562" stroke="#252D3B" stroke-width="0.234" stroke-miterlimit="10" stroke-linecap="round"/>
<path id="Vector_79" d="M189.394 58.8374H186.455C185.65 58.8374 184.999 59.4879 184.999 60.2929V67.1818C184.999 67.9868 185.65 68.6373 186.455 68.6373H189.394C190.199 68.6373 190.849 67.9868 190.849 67.1818V60.2929C190.849 59.4879 190.194 58.8374 189.394 58.8374Z" fill="white" stroke="#252D3B" stroke-width="0.234" stroke-miterlimit="10" stroke-linecap="round"/>
<path id="Vector_80" d="M197.865 73.9679H177.399C178.069 70.7575 182.393 66.5127 187.63 66.5127C192.867 66.5127 197.196 70.7575 197.865 73.9679Z" fill="#252D3B"/>
</g>
<g id="Group_19">
<path id="Vector_81" d="M43.3975 73.9586C43.3975 75.7089 44.8155 77.1223 46.5611 77.1223C48.3068 77.1223 49.7248 75.7042 49.7248 73.9586C49.7248 72.2083 48.3068 70.7949 46.5611 70.7949C44.8155 70.7949 43.3975 72.2083 43.3975 73.9586Z" fill="white" stroke="#252D3B" stroke-width="0.234" stroke-miterlimit="10" stroke-linecap="round"/>
<path id="Vector_82" d="M46.7119 70.8371V0.950623" stroke="#252D3B" stroke-width="0.234" stroke-miterlimit="10" stroke-linecap="round"/>
<path id="Vector_83" d="M48.125 58.8375H45.1859C44.381 58.8375 43.7305 59.488 43.7305 60.293V67.182C43.7305 67.9869 44.381 68.6374 45.1859 68.6374H48.125C48.9299 68.6374 49.5805 67.9869 49.5805 67.182V60.293C49.5805 59.488 48.9299 58.8375 48.125 58.8375Z" fill="white" stroke="#252D3B" stroke-width="0.234" stroke-miterlimit="10" stroke-linecap="round"/>
<path id="Vector_84" d="M56.6004 73.968H36.1348C36.804 70.7575 41.1283 66.5128 46.3652 66.5128C51.6022 66.5128 55.9265 70.7575 56.6004 73.968Z" fill="#252D3B"/>
</g>
</g>
<g id="Group_20">
<g id="Vector_85">
<path d="M88.6628 183.466C88.6628 183.466 85.6583 180.868 86.9827 180.063C88.5599 179.104 88.7798 182.389 88.8126 183.157C88.8126 183.204 88.8734 183.213 88.8968 183.176L91.2883 178.931" fill="white"/>
<path d="M88.6628 183.466C88.6628 183.466 85.6583 180.868 86.9827 180.063C88.5599 179.104 88.7798 182.389 88.8126 183.157C88.8126 183.204 88.8734 183.213 88.8968 183.176L91.2883 178.931" stroke="#252D3B" stroke-width="0.234" stroke-miterlimit="10" stroke-linecap="round"/>
</g>
<g id="Group_21">
<path id="Vector_86" d="M44.329 125.453C44.329 125.453 44.7034 122.939 43.5568 119.5C42.4102 116.06 46.4257 115.054 47.2868 115.339C47.2868 115.339 48.1479 113.617 50.8717 113.907C53.5954 114.193 56.3941 118.568 59.188 117.993C59.188 117.993 58.2801 120.908 55.1164 120.815C51.9527 120.721 44.329 125.453 44.329 125.453Z" fill="#252D3B"/>
<path id="Vector_87" d="M71.6501 156.181C71.6501 156.181 75.8012 156.949 78.305 155.119C79.5172 154.23 81.2113 154.253 82.2362 155.348C82.3111 155.428 82.386 155.517 82.4609 155.606C82.6247 155.807 82.8727 155.919 83.1301 155.915C83.7806 155.901 84.1784 155.185 83.8415 154.628C82.9242 153.13 81.5389 151.45 79.0117 150.608C75.235 149.349 71.2148 150.926 71.2148 150.926C71.2148 150.926 72.2351 153.832 71.6501 156.181Z" fill="white" stroke="#252D3B" stroke-width="0.234" stroke-miterlimit="10" stroke-linecap="round"/>
<path id="Vector_88" d="M77.529 170.778C77.3932 163.67 71.59 157.946 64.4484 157.946C64.1956 157.946 63.9476 157.955 63.6996 157.969H51.9387V165.41H52.6267C51.817 167.114 51.3584 169.019 51.3584 171.031C51.3584 178.257 57.2178 184.116 64.4437 184.116C64.542 184.116 64.6402 184.112 64.7385 184.107V186.236H77.5758V170.774H77.529V170.778Z" fill="white" stroke="#252D3B" stroke-width="0.234" stroke-miterlimit="10" stroke-linecap="round"/>
<path id="Vector_89" d="M45.5179 131.729H21.3036C16.9465 131.729 13.4131 135.262 13.4131 139.619V180.152C13.4131 185.52 17.7655 189.868 23.1288 189.868H55.2429C55.2429 189.868 53.2071 155.643 53.4037 139.708C53.4598 135.318 49.9124 131.729 45.5179 131.729Z" fill="white" stroke="#252D3B" stroke-width="0.234" stroke-miterlimit="10" stroke-linecap="round"/>
<g id="Group_22">
<path id="Vector_90" d="M54.9579 119.022C53.3105 117.436 49.7023 117.314 47.5822 119.401C46.2765 120.688 45.2516 123.061 45.5417 124.877L41.9756 130.179C41.9756 130.179 46.2437 132.632 49.721 132.22C49.721 132.22 49.5151 130.704 50.3294 129.449C50.7787 129.651 51.2467 129.725 51.6913 129.557C53.4229 128.902 54.1202 126.819 54.1202 126.819C54.1202 126.819 54.9064 127.292 55.1217 127.067C55.3417 126.843 54.9392 125.485 55.4259 124.554C55.9126 123.618 56.6053 120.609 54.9579 119.022Z" fill="white" stroke="#252D3B" stroke-width="0.234" stroke-miterlimit="10" stroke-linecap="round"/>
<path id="Vector_91" d="M45.444 125.981C45.0088 126.44 44.26 126.075 44.3302 125.448C44.391 124.938 44.3957 124.297 44.3021 123.492C43.9277 120.314 46.352 114.979 51.8697 115.611C56.6714 116.158 57.0036 119.635 55.9694 120.744C55.7447 120.983 55.375 121.007 55.1176 120.81C54.3173 120.202 52.0569 118.737 49.2348 119.008C48.9728 119.032 48.7622 119.223 48.692 119.476C48.369 120.642 47.3301 123.988 45.444 125.981Z" fill="#252D3B"/>
<path id="Vector_92" d="M45.1298 126.178C45.1298 126.178 47.5821 125.64 48.9627 123.361L49.9175 123.66C49.9175 123.66 51.3168 123.23 51.6537 120.267C51.6537 120.267 55.8002 122.247 57.6535 120.136C59.5068 118.025 54.0967 116.781 51.1904 116.734C48.2841 116.687 44.6384 123.609 45.1298 126.178Z" fill="#252D3B"/>
<path id="Vector_93" d="M50.1281 123.941C50.1281 123.941 50.5446 122.205 49.1453 122.144C47.746 122.083 47.54 124.9 48.5837 125.083C49.6179 125.27 50.1281 123.941 50.1281 123.941Z" fill="white"/>
<g id="Vector_94">
<path d="M49.5994 124.035C49.5994 124.035 49.9972 122.977 48.874 122.93L49.5994 124.035Z" fill="white"/>
<path d="M49.5994 124.035C49.5994 124.035 49.9972 122.977 48.874 122.93" stroke="#252D3B" stroke-width="0.234" stroke-miterlimit="10" stroke-linecap="round"/>
</g>
<path id="Vector_95" d="M53.6623 124.807C53.6389 125.05 53.7184 125.261 53.8401 125.275C53.9618 125.289 54.0835 125.097 54.1069 124.854C54.1303 124.61 54.0507 124.4 53.929 124.386C53.8074 124.376 53.6857 124.563 53.6623 124.807Z" fill="#252D3B"/>
<path id="Vector_96" d="M53.4189 123.857C53.4189 123.857 53.8167 123.787 54.3035 123.899C54.7902 124.011 54.7902 123.403 54.1163 123.412C53.447 123.422 53.1849 123.852 53.4189 123.857Z" fill="#252D3B"/>
<path id="Vector_97" d="M50.4794 129.351C50.4794 129.351 48.5512 128.27 48.364 128.527C48.1815 128.785 49.4124 131.265 49.8055 130.956C49.8429 130.924 49.9318 129.828 50.4794 129.351Z" fill="#252D3B"/>
<g id="Vector_98">
<path d="M52.6416 127.919C52.6416 127.919 52.7118 128.359 53.1096 128.457L52.6416 127.919Z" fill="white"/>
<path d="M52.6416 127.919C52.6416 127.919 52.7118 128.359 53.1096 128.457" stroke="#252D3B" stroke-width="0.234" stroke-miterlimit="10" stroke-linecap="round"/>
</g>
</g>
<g id="Group_23">
<path id="Vector_99" d="M38.2492 189.536H34.7158V207.643H38.2492V189.536Z" fill="#252D3B"/>
<g id="Group_24">
<g id="Group_25">
<g id="Group_26">
<path id="Vector_100" d="M23.9053 210.437C23.9053 211.509 24.7758 212.374 25.8428 212.374C26.9145 212.374 27.7803 211.504 27.7803 210.437C27.7803 209.365 26.9098 208.499 25.8428 208.499C24.7758 208.499 23.9053 209.37 23.9053 210.437Z" fill="#252D3B"/>
<path id="Vector_101" d="M44.876 210.437C44.876 211.508 45.7465 212.374 46.8135 212.374C47.8805 212.374 48.751 211.504 48.751 210.437C48.751 209.365 47.8805 208.499 46.8135 208.499C45.7465 208.499 44.876 209.37 44.876 210.437Z" fill="#252D3B"/>
</g>
<path id="Vector_102" d="M25.4961 210.437H46.4672" stroke="#252D3B" stroke-width="0.234" stroke-miterlimit="10" stroke-linecap="round"/>
</g>
<path id="Vector_103" d="M31.8389 210.376V209.454C31.8389 208.499 32.6064 207.727 33.5517 207.727H39.5421C40.4875 207.727 41.255 208.499 41.255 209.454V210.418" stroke="#252D3B" stroke-width="0.234" stroke-miterlimit="10" stroke-linecap="round"/>
</g>
</g>
<path id="Vector_104" d="M71.9878 155.882C71.9878 155.882 60.1988 156.247 57.9478 155.686C55.6967 155.124 48.4474 149.962 48.4474 149.962L47.1276 173.189L25.7119 172.379C25.7119 172.379 25.8336 165.748 26.5075 157.778C26.5309 157.81 26.5543 157.838 26.5777 157.866C26.5777 157.866 26.6105 157.52 26.6947 156.902C27.2329 152.878 29.8163 137.391 38.3386 131.513C42.4148 128.701 47.97 129.449 51.3536 133.058L63.7697 146.302L71.0986 149.779C75.596 151.469 71.9878 155.882 71.9878 155.882Z" fill="#252D3B"/>
<path id="Vector_105" d="M18.4721 173.189H47.123C51.7001 173.189 55.4113 176.9 55.4113 181.477C55.4113 186.054 51.7001 189.765 47.123 189.765H24.514C24.514 189.765 18.3317 173.189 18.4721 173.189Z" fill="white"/>
<path id="Vector_106" d="M80.5611 212.14L57.1799 211.766L56.1222 206.899L55.6167 204.563C55.4904 203.978 55.336 203.403 55.1628 202.832C53.1457 196.121 51.8259 186.335 53.1457 181.215C53.1457 181.215 49.3549 182.647 45.7466 182.647C39.452 182.647 30.1903 181.561 26.7599 175.594C23.395 169.735 26.437 161.896 26.437 161.896C26.437 161.896 52.9538 157.838 60.5869 160.426C71.0608 163.983 74.8375 176.806 81.8435 181.72C81.0198 182.886 79.9668 185.048 80.3412 188.216C80.7483 191.609 78.0807 194.45 76.3257 195.929C74.1683 194.09 71.0888 191.08 68.9407 187.378C68.9407 187.378 67.9486 195.802 69.9469 201.657C70.5647 203.468 71.4679 205.036 72.7783 206.033C76.5504 208.892 80.0604 208.892 80.5611 212.14Z" fill="#435388"/>
<path id="Vector_107" d="M69.1654 187.158C69.1654 187.158 72.7971 170.544 63.9613 170.395C54.3439 170.236 53.3938 177.775 43.9355 177.794" stroke="#252D3B" stroke-width="0.234" stroke-miterlimit="10" stroke-linecap="round"/>
<path id="Vector_108" d="M47.8626 159.631C47.8626 159.631 45.298 166.173 33.0598 167.605C20.8169 169.038 31.6277 155.044 31.6277 155.044L47.8626 159.631Z" fill="#252D3B"/>
<g id="Group_27">
<path id="Vector_109" d="M26.5783 157.866H20.2275" stroke="#252D3B" stroke-width="0.234" stroke-miterlimit="10" stroke-linecap="round"/>
<path id="Vector_110" d="M43.6131 170.778C43.4774 163.669 37.6742 157.946 30.5325 157.946C30.2798 157.946 30.0318 157.955 29.7837 157.969H18.0276V165.41H18.7155C17.9059 167.114 17.4473 169.019 17.4473 171.031C17.4473 178.257 23.3066 184.116 30.5325 184.116C30.6308 184.116 30.7291 184.112 30.8274 184.107V186.236H43.6646V170.774H43.6131V170.778Z" fill="white"/>
</g>
<path id="Vector_111" d="M53.0342 181.332C53.0342 181.332 54.2323 180.045 55.6175 179.118" stroke="#252D3B" stroke-width="0.234" stroke-miterlimit="10" stroke-linecap="round"/>
<path id="Vector_112" d="M90.923 155.671L96.2723 141.416C96.4267 141 96.2161 140.536 95.7996 140.382L95.4533 140.251C95.0367 140.096 94.5734 140.307 94.419 140.724L89.5471 153.706C89.4301 154.019 89.1306 154.225 88.7936 154.225H74.4026C73.958 154.225 73.5977 154.586 73.5977 155.03C73.5977 155.475 73.958 155.835 74.4026 155.835H90.8481L90.8622 155.84V155.835H90.923V155.671Z" fill="#252D3B"/>
<g id="Vector_113">
<path d="M78.8496 152.175C78.8496 152.175 80.8105 152.774 82.3924 154.684L78.8496 152.175Z" fill="white"/>
<path d="M78.8496 152.175C78.8496 152.175 80.8105 152.774 82.3924 154.684" stroke="#252D3B" stroke-width="0.234" stroke-miterlimit="10" stroke-linecap="round"/>
</g>
<g id="Vector_114">
<path d="M78.0303 152.831C78.0303 152.831 79.2284 153.266 80.5388 154.52L78.0303 152.831Z" fill="white"/>
<path d="M78.0303 152.831C78.0303 152.831 79.2284 153.266 80.5388 154.52" stroke="#252D3B" stroke-width="0.234" stroke-miterlimit="10" stroke-linecap="round"/>
</g>
<path id="Vector_115" d="M43.5801 182.422V190.004" stroke="#252D3B" stroke-width="0.234" stroke-miterlimit="10" stroke-linecap="round"/>
<path id="Vector_116" d="M97.0729 184.823L78.8677 197.908C78.8677 197.908 76.5652 196.125 75.0723 194.857C76.8273 193.378 80.7491 191.609 80.3419 188.216C79.9675 185.048 81.0205 182.886 81.8442 181.72C82.8972 182.46 84.0251 183.021 85.2559 183.344C86.3791 183.634 87.5585 183.639 88.7098 183.457C90.3852 183.194 94.1713 182.89 97.0729 184.823Z" fill="white" stroke="#252D3B" stroke-width="0.234" stroke-miterlimit="10" stroke-linecap="round"/>
<path id="Vector_117" d="M80.562 212.14L57.1807 211.766L56.123 206.899C58.2103 207.109 62.7593 207.362 65.2678 205.977C67.7341 204.615 68.0336 202.537 69.9478 201.657C70.5655 203.468 71.4688 205.036 72.7792 206.033C76.5512 208.892 80.0612 208.892 80.562 212.14Z" fill="white" stroke="#252D3B" stroke-width="0.234" stroke-miterlimit="10" stroke-linecap="round"/>
<path id="Vector_118" d="M48.4474 149.962C48.4474 149.962 46.0465 147.528 44.4834 147.285" stroke="white" stroke-width="0.234" stroke-miterlimit="10" stroke-linecap="round"/>
<g id="Vector_119">
<path d="M76.5644 205.172C76.4381 205.172 73.499 206.496 73.499 206.496L74.9077 203.099" fill="white"/>
<path d="M76.5644 205.172C76.4381 205.172 73.499 206.496 73.499 206.496L74.9077 203.099" stroke="#252D3B" stroke-width="0.234" stroke-miterlimit="10" stroke-linecap="round"/>
</g>
<path id="Vector_120" d="M53.0293 152.597C53.0293 152.597 60.0633 148.375 62.0991 156.041" stroke="white" stroke-width="0.234" stroke-miterlimit="10" stroke-linecap="round"/>
<path id="Vector_121" d="M97.2135 184.767L78.8398 198.021L80.6276 199.35L98.7298 185.857L97.2135 184.767Z" fill="#252D3B"/>
<path id="Vector_122" d="M57.0449 211.682L57.3772 213.32L80.7912 213.703L80.6789 212.117L57.0449 211.682Z" fill="#252D3B"/>
</g>
</g>
<g id="Group_28">
<path id="Vector_123" d="M177.493 159.912H51.6342C50.5064 159.912 49.5938 158.999 49.5938 157.871C49.5938 156.743 50.5064 155.831 51.6342 155.831H177.493C178.621 155.831 179.534 156.743 179.534 157.871C179.534 158.999 178.621 159.912 177.493 159.912Z" fill="#A7C5FF"/>
<path id="Vector_124" d="M65.9647 158.765H64.0225V217.111H65.9647V158.765Z" fill="#A7C5FF"/>
</g>
<g id="Group_29">
<path id="Vector_125" d="M165.602 148.314C165.602 148.314 164.362 147.378 162.911 146.859C160.758 145.558 159.476 146.129 158.193 146.499C156.85 146.887 155.947 146.26 155.788 146.545C155.685 146.733 156.818 147.823 158.643 147.439C157.403 147.893 154.44 148.637 153.317 148.478C151.047 148.151 152.334 148.885 154.974 149.372C155.049 149.386 155.049 149.494 154.974 149.508C154.524 149.583 153.659 149.756 152.521 149.597C150.514 149.311 150.027 150.2 153.977 150.523C154.099 150.533 154.74 150.57 154.637 150.636C154.15 150.931 153.125 150.851 152.007 150.683C150.78 150.495 152.587 151.679 155.011 151.801C154.983 151.965 153.63 152.087 153.06 151.965C151.693 151.679 152.615 152.882 155.68 152.339C158.165 151.899 160.065 151.848 160.693 151.843C162.443 152.255 163.767 152.938 163.767 152.938C163.767 152.938 165.635 150.509 165.602 148.314Z" fill="white" stroke="#252D3B" stroke-width="0.234" stroke-miterlimit="10" stroke-linecap="round"/>
<g id="Group_30">
<g id="Group_31">
<path id="Vector_126" d="M214.091 168.036C216.909 158.241 221.593 148.792 223.648 141.669C225 136.984 221.579 132.271 216.712 132.019C213.235 131.841 210.188 133.591 208.513 137.419L199.878 155.695C198.324 158.793 195.156 160.749 191.688 160.749H170.932C163.538 160.749 158.053 167.61 159.682 174.822C162.7 188.197 174.644 197.651 188.351 197.525C198.198 197.436 206.87 191.043 209.884 181.673C211.41 176.928 212.968 171.944 214.091 168.036Z" fill="#252D3B"/>
<path id="Vector_127" d="M216.801 132.009L209.145 131.878L179.876 197.665L188.351 197.525C188.351 197.525 203.454 193.519 211.012 163.627C218.566 133.741 216.801 132.009 216.801 132.009Z" fill="#252D3B"/>
</g>
<path id="Vector_128" d="M188.627 140.419L186.329 130.807C186.329 130.807 182.108 132.019 178.256 136.142C174.035 140.667 172.767 143.129 172.346 144.304C172.098 144.996 172.158 148.015 171.971 149.325C171.494 152.611 170.268 155.437 170.268 157.08C170.254 167.03 173.483 173.259 173.483 173.259L194.889 163.487L188.627 140.419Z" fill="#435388"/>
<path id="Vector_129" d="M187.663 191.249H184.13V209.356H187.663V191.249Z" fill="#252D3B"/>
<path id="Vector_130" d="M167.951 204.325C168.162 204.858 168.363 205.392 168.569 205.953L159.106 211.925C156.911 213.31 154.365 214.04 151.768 214.022L144.177 213.97C144.177 213.97 144.252 213.282 144.766 212.239C145.319 211.111 146.381 209.566 148.403 208.031C151.108 205.977 151.22 200.618 151.66 197.848C151.988 195.793 152.802 194.155 152.802 194.155C152.236 187.093 151.281 176.717 150.289 172.22C149.386 168.134 147.911 166.028 149.877 162.336C149.975 162.153 150.074 161.975 150.177 161.802C153.546 156.027 161.114 154.305 166.814 157.791L183.288 164.933L185.043 185.502L154.3 166.075C157.122 175.239 160.599 180.241 165.466 197.01C166.5 200.576 167.244 202.49 167.951 204.325Z" fill="white" stroke="#252D3B" stroke-width="0.234" stroke-miterlimit="10" stroke-linecap="round"/>
<path id="Vector_131" d="M176.043 165.532L170.61 185.45L155.971 179.399C155.47 188.974 152.203 196.813 150.107 201.072C149.685 202.181 148.801 204.123 148.043 206.515C147.514 208.204 147.046 210.114 146.859 212.108C146.798 212.721 146.765 213.338 146.765 213.961H120.814C120.814 213.961 121.039 213.132 121.793 212.108C122.598 211.017 124.016 209.707 126.435 208.963C128.111 208.448 129.491 207.521 130.624 206.407C131.686 205.364 132.533 204.156 133.193 202.972C134.213 201.156 134.798 199.397 135.084 198.367C135.093 198.339 135.098 198.316 135.107 198.292C135.252 197.763 135.318 197.445 135.318 197.445L135.341 197.454C137.241 190.626 139.918 180.56 140.536 175.992C141.093 171.846 142.436 167.844 145.553 165.055C149.213 161.769 154.239 160.482 159.031 161.587L176.043 165.532Z" fill="white" stroke="#252D3B" stroke-width="0.234" stroke-miterlimit="10" stroke-linecap="round"/>
<path id="Vector_132" d="M175.111 117.871C175.111 117.871 175.247 117.67 175.5 117.389C176.038 116.79 177.142 115.948 178.612 115.615C182.698 114.693 187.658 118.377 187.031 121.638C186.404 124.9 184.925 126.903 184.925 126.903L175.111 117.871Z" fill="#252D3B"/>
<path id="Vector_133" d="M173.97 123.716C173.97 123.716 171.41 124.404 171.017 122.088C170.619 119.776 173.207 117.342 175.88 117.412" stroke="#252D3B" stroke-width="0.234" stroke-miterlimit="10" stroke-linecap="round"/>
<path id="Vector_134" d="M164.465 146.574C163.988 146.424 163.501 146.789 163.407 147.28C163.159 148.619 162.457 151.02 160.51 152.358C157.707 154.281 174.19 164.727 176.436 162.13C178.196 160.094 174.288 148.899 173.806 146.892C173.689 146.405 174.967 150.411 174.48 150.537C173.1 150.893 167.221 147.449 164.465 146.574Z" fill="#435388"/>
<path id="Vector_135" d="M175.5 117.389C175.5 117.389 171.335 118.62 171.718 123.038C171.718 123.038 172.074 125.2 173.871 124.344C175.673 123.487 174.919 125.256 176.81 126.014C178.706 126.772 184.064 125.139 182.431 121.194C180.807 117.244 175.5 117.389 175.5 117.389Z" fill="#252D3B"/>
<path id="Vector_136" d="M175.449 123.885C175.449 123.885 174.555 128.35 180.335 129.562C186.115 130.769 189.428 125.041 186.85 120.576C184.276 116.107 175.449 123.885 175.449 123.885Z" fill="#252D3B"/>
<path id="Vector_137" d="M184.056 126.304C184.056 126.304 188.811 125.322 188.516 129.964C188.216 134.602 182.212 133.891 181.262 132.103" stroke="#252D3B" stroke-width="0.234" stroke-miterlimit="10" stroke-linecap="round"/>
<g id="Vector_138">
<path d="M151.856 169.847C151.856 169.847 152.09 165.921 152.17 164.194C152.25 162.467 157.271 158.405 157.271 158.405C157.271 158.405 158.764 159.078 159.667 161.245" fill="white"/>
<path d="M151.856 169.847C151.856 169.847 152.09 165.921 152.17 164.194C152.25 162.467 157.271 158.405 157.271 158.405C157.271 158.405 158.764 159.078 159.667 161.245" stroke="#252D3B" stroke-width="0.234" stroke-miterlimit="10" stroke-linecap="round"/>
</g>
<path id="Vector_139" d="M156.799 158.568C156.799 158.568 158.212 155.349 169.912 154.015C181.612 152.681 185.773 154.562 185.773 154.562L183.938 160.749L158.839 163.515L156.799 158.568Z" fill="#435388"/>
<path id="Vector_140" d="M206.341 168.036C209.159 158.241 213.843 148.792 215.898 141.669C217.25 136.984 213.829 132.271 208.962 132.019C205.485 131.841 202.438 133.591 200.763 137.419L192.128 155.695C190.574 158.793 187.406 160.749 183.938 160.749H163.182C155.788 160.749 150.303 167.61 151.932 174.822C154.95 188.197 166.894 197.651 180.601 197.525C190.448 197.436 199.12 191.043 202.134 181.673C203.66 176.928 205.218 171.944 206.341 168.036Z" fill="white" stroke="#252D3B" stroke-width="0.234" stroke-miterlimit="10" stroke-linecap="round"/>
<path id="Vector_141" d="M162.293 155.26C162.293 155.26 169.219 152.863 177.517 153.205" stroke="#252D3B" stroke-width="0.234" stroke-miterlimit="10" stroke-linecap="round"/>
<path id="Vector_142" d="M178.117 141.06C178.117 141.06 177.775 150.814 175.81 153.121" stroke="#252D3B" stroke-width="0.234" stroke-miterlimit="10" stroke-linecap="round"/>
<path id="Vector_143" d="M187.355 160.136C187.355 160.136 188.721 157.141 186.84 147.561" stroke="#252D3B" stroke-width="0.234" stroke-miterlimit="10" stroke-linecap="round"/>
<g id="Group_32">
<g id="Group_33">
<g id="Group_34">
<path id="Vector_144" d="M173.319 212.154C173.319 213.226 174.19 214.092 175.257 214.092C176.329 214.092 177.194 213.222 177.194 212.154C177.194 211.083 176.324 210.217 175.257 210.217C174.19 210.212 173.319 211.083 173.319 212.154Z" fill="#252D3B"/>
<path id="Vector_145" d="M194.291 212.154C194.291 213.226 195.162 214.092 196.229 214.092C197.3 214.092 198.166 213.222 198.166 212.154C198.166 211.083 197.296 210.217 196.229 210.217C195.162 210.212 194.291 211.083 194.291 212.154Z" fill="#252D3B"/>
</g>
<path id="Vector_146" d="M174.911 212.154H195.882" stroke="#252D3B" stroke-width="0.234" stroke-miterlimit="10" stroke-linecap="round"/>
</g>
<path id="Vector_147" d="M181.248 212.093V211.172C181.248 210.217 182.016 209.445 182.961 209.445H188.951C189.897 209.445 190.664 210.217 190.664 211.172V212.136" stroke="#252D3B" stroke-width="0.234" stroke-miterlimit="10" stroke-linecap="round"/>
</g>
<path id="Vector_148" d="M146.859 212.107C146.798 212.721 146.765 213.338 146.765 213.961H120.814C120.814 213.961 121.039 213.132 121.793 212.107H146.859Z" fill="#252D3B"/>
<path id="Vector_149" d="M168.569 205.953L159.106 211.925C156.911 213.31 154.365 214.04 151.768 214.022L144.177 213.97C144.177 213.97 144.252 213.282 144.766 212.239C146.011 212.154 146.858 212.108 146.858 212.108C146.858 212.108 151.964 212.763 155.502 211.513C158.17 210.573 164.83 206.346 167.951 204.325C168.162 204.858 168.363 205.392 168.569 205.953Z" fill="#252D3B"/>
<g id="Vector_150">
<path d="M158.643 147.439C158.643 147.439 159.279 148.722 161.61 148.525L158.643 147.439Z" fill="white"/>
<path d="M158.643 147.439C158.643 147.439 159.279 148.722 161.61 148.525" stroke="#252D3B" stroke-width="0.234" stroke-miterlimit="10" stroke-linecap="round"/>
</g>
<g id="Vector_151">
<path d="M153.547 163.557C153.547 163.557 153.037 164.067 152.892 164.938C152.747 165.808 152.494 167.736 152.494 167.736" fill="white"/>
<path d="M153.547 163.557C153.547 163.557 153.037 164.067 152.892 164.938C152.747 165.808 152.494 167.736 152.494 167.736" stroke="#252D3B" stroke-width="0.234" stroke-miterlimit="10" stroke-linecap="round"/>
</g>
<path id="Vector_152" d="M134.382 200.529C134.382 200.529 149.709 201.18 150.107 201.077C150.107 201.077 152.03 197.019 152.419 195.718L135.959 195.026L134.382 200.529Z" fill="#252D3B"/>
<path id="Vector_153" d="M151.276 200.993C151.276 200.993 155.142 202.485 165.036 195.704L164.291 192.653L162.19 191.23C162.19 191.23 159.995 189.803 155.605 183.826C155.605 183.826 154.323 191.768 151.707 197.871C151.393 198.596 151.276 200.993 151.276 200.993Z" fill="#252D3B"/>
<g id="Vector_154">
<path d="M172.982 124.489C172.982 124.489 174.166 126.524 174.625 129.024C175.084 131.523 177.124 133.034 180.082 131.785" fill="white"/>
<path d="M172.982 124.489C172.982 124.489 174.166 126.524 174.625 129.024C175.084 131.523 177.124 133.034 180.082 131.785" stroke="#252D3B" stroke-width="0.234" stroke-miterlimit="10" stroke-linecap="round"/>
</g>
<g id="Vector_155">
<path d="M178.898 132.159C178.898 132.159 179.713 133.722 179.516 134.841L178.898 132.159Z" fill="white"/>
<path d="M178.898 132.159C178.898 132.159 179.713 133.722 179.516 134.841" stroke="#252D3B" stroke-width="0.234" stroke-miterlimit="10" stroke-linecap="round"/>
</g>
<path id="Vector_156" d="M184.042 134.714C186.495 134.714 188.483 132.879 188.483 130.615C188.483 128.351 186.495 126.515 184.042 126.515C181.589 126.515 179.601 128.351 179.601 130.615C179.601 132.879 181.589 134.714 184.042 134.714Z" fill="#252D3B"/>
<path id="Vector_157" d="M180.386 131.813C180.386 131.813 180.938 133.432 179.431 133.694L179.057 132.491C179.057 132.491 178.641 132.089 180.513 131.771" fill="#252D3B"/>
<path id="Vector_158" d="M171.877 122.528C171.877 122.528 171.391 126.529 176.82 126.01C182.248 125.49 174.489 121.592 173.675 121.751C172.851 121.905 171.877 122.528 171.877 122.528Z" fill="#252D3B"/>
</g>
</g>
</g>
</svg>
