<svg width="39" height="39" viewBox="0 0 39 39" fill="none" xmlns="http://www.w3.org/2000/svg">
<path d="M27.3046 36.05H4.75779C3.77387 36.05 2.9789 35.2651 2.9789 34.3V4.7C2.9789 3.73496 3.77387 2.95 4.75779 2.95H27.3046C28.2885 2.95 29.0835 3.73496 29.0835 4.7V34.3C29.0835 35.2651 28.2885 36.05 27.3046 36.05ZM4.75779 38.1H27.3046C29.4337 38.1 31.1624 36.4001 31.1624 34.3V4.7C31.1624 2.59986 29.4337 0.9 27.3046 0.9H4.75779C2.62866 0.9 0.9 2.59986 0.9 4.7V34.3C0.9 36.4001 2.62866 38.1 4.75779 38.1Z" fill="white" stroke="white" stroke-width="0.2"/>
<path d="M14.8742 8.29952C14.3081 8.29952 13.8492 8.75842 13.8492 9.32452C13.8492 9.89063 14.3081 10.3495 14.8742 10.3495H25.9742C26.5403 10.3495 26.9992 9.89063 26.9992 9.32452C26.9992 8.75842 26.5403 8.29952 25.9742 8.29952H14.8742Z" fill="white" stroke="white" stroke-width="0.2"/>
<path d="M14.8742 11.9997C14.3081 11.9997 13.8492 12.4586 13.8492 13.0247C13.8492 13.5908 14.3081 14.0497 14.8742 14.0497H25.9742C26.5403 14.0497 26.9992 13.5908 26.9992 13.0247C26.9992 12.4586 26.5403 11.9997 25.9742 11.9997H14.8742Z" fill="white" stroke="white" stroke-width="0.2"/>
<path d="M14.8742 19.3991C14.3081 19.3991 13.8492 19.858 13.8492 20.4241C13.8492 20.9902 14.3081 21.4491 14.8742 21.4491H25.9742C26.5403 21.4491 26.9992 20.9902 26.9992 20.4241C26.9992 19.858 26.5403 19.3991 25.9742 19.3991H14.8742Z" fill="white" stroke="white" stroke-width="0.2"/>
<path d="M14.8742 23.1001C14.3081 23.1001 13.8492 23.559 13.8492 24.1251C13.8492 24.6913 14.3081 25.1501 14.8742 25.1501H25.9742C26.5403 25.1501 26.9992 24.6913 26.9992 24.1251C26.9992 23.559 26.5403 23.1001 25.9742 23.1001H14.8742Z" fill="white" stroke="white" stroke-width="0.2"/>
<path d="M9.22505 24.0241H6.65006V21.4491H9.22505V24.0241ZM10.25 19.3991H5.62507C5.05898 19.3991 4.60007 19.858 4.60007 20.4241V25.0491C4.60007 25.6152 5.05898 26.0741 5.62507 26.0741H10.25C10.8161 26.0741 11.275 25.6152 11.275 25.0491V20.4241C11.275 19.858 10.8161 19.3991 10.25 19.3991Z" fill="white" stroke="white" stroke-width="0.2"/>
<path d="M7.40435 14.4033L7.47506 14.4741L7.54577 14.4033L11.8998 10.0493C12.3001 9.64901 12.3001 8.99998 11.8998 8.59972C11.4996 8.19945 10.8505 8.19945 10.4503 8.59972L7.47506 11.5749L6.34985 10.4497L6.34985 10.4497C5.94956 10.0495 5.30058 10.0495 4.90029 10.4497L4.97071 10.5201L4.90029 10.4497C4.5 10.85 4.5 11.499 4.90028 11.8993C4.90028 11.8993 4.90029 11.8993 4.90029 11.8993L7.40435 14.4033Z" fill="white" stroke="white" stroke-width="0.2"/>
<path d="M38.08 34.3595L38.1 34.3328V34.2995V17.6495V17.5495H38H32.4501H32.3501V17.6495V34.2995V34.3328L32.3701 34.3595L35.1451 38.0595L35.2251 38.1662L35.3051 38.0595L38.08 34.3595ZM34.4001 33.6495V19.5995H36.0501V33.6495L35.2251 34.7495L34.4001 33.6495Z" fill="white" stroke="white" stroke-width="0.2"/>
<path d="M38 16.8248H38.1V16.7248V13.0248C38.1 11.9478 37.227 11.0748 36.1501 11.0748H34.3001C33.2231 11.0748 32.3501 11.9478 32.3501 13.0248V16.7248V16.8248H32.4501H38ZM34.4001 14.7748V13.1248H36.0501V14.7748H34.4001Z" fill="white" stroke="white" stroke-width="0.2"/>
</svg>
