<svg width="16" height="18" viewBox="0 0 16 18" fill="none" xmlns="http://www.w3.org/2000/svg">
<path d="M1.17919 16.5H6.07141C6.25231 17.355 7.04671 18 7.99841 18C8.95011 18 9.74057 17.355 9.92541 16.5H14.8176C15.1912 16.5 15.5334 16.335 15.7615 16.05C15.9856 15.765 16.0564 15.4012 15.9542 15.06C15.9384 15.015 15.9188 14.9738 15.8873 14.9363C14.0193 12.63 13.221 10.1663 13.1266 6.435C13.1266 6.405 13.1227 6.375 13.1227 6.345C14.448 6.1575 15.4704 5.06625 15.4704 3.75C15.4704 2.3025 14.2356 1.125 12.7176 1.125C11.8288 1.125 11.0423 1.53 10.5389 2.1525C10.5035 2.13375 10.472 2.11125 10.4288 2.0925C10.1535 1.95 9.86642 1.845 9.57147 1.755V1.5C9.57147 1.09875 9.4063 0.72375 9.11135 0.43875C8.81247 0.1575 8.4192 0 7.99841 0C7.12929 0 6.42535 0.67125 6.42535 1.5V1.755C6.13433 1.845 5.84332 1.95 5.57196 2.0925C3.95564 2.92125 2.92529 4.58625 2.87416 6.435C2.77978 10.17 1.98145 12.6338 0.113443 14.9363C0.0819822 14.9738 0.0623189 15.015 0.0465883 15.06C-0.0556606 15.405 0.0111947 15.765 0.239289 16.05C0.46345 16.335 0.80559 16.5 1.17919 16.5ZM7.99841 17.25C7.48716 17.25 7.05457 16.935 6.8894 16.5H9.10349C8.94225 16.935 8.50965 17.25 7.99841 17.25ZM12.7176 1.875C13.803 1.875 14.6839 2.715 14.6839 3.75C14.6839 4.785 13.803 5.625 12.7176 5.625C12.7097 5.625 12.7058 5.62125 12.6979 5.62125C12.694 5.62125 12.694 5.62125 12.6901 5.62125C11.6204 5.61 10.7513 4.77375 10.7513 3.75C10.7513 2.715 11.6322 1.875 12.7176 1.875ZM7.21188 1.5C7.21188 1.0875 7.56582 0.75 7.99841 0.75C8.20684 0.75 8.40347 0.82875 8.55291 0.97125C8.70235 1.11375 8.78494 1.30125 8.78494 1.5V1.575C8.2619 1.5 7.73492 1.5 7.21188 1.575V1.5ZM3.6607 6.45C3.70002 4.87125 4.577 3.45375 5.94557 2.74875C7.21975 2.0925 8.78494 2.0925 10.0513 2.745C10.0906 2.76375 10.1181 2.7825 10.1535 2.80125C10.0316 3.10125 9.96474 3.41625 9.96474 3.75C9.96474 5.07 10.9951 6.165 12.3283 6.345C12.3283 6.37875 12.3361 6.41625 12.3361 6.45C12.4344 10.3238 13.2682 12.9037 15.207 15.3263C15.2188 15.4237 15.1912 15.5212 15.1322 15.6C15.0575 15.6937 14.9435 15.75 14.8176 15.75H1.17919C1.05335 15.75 0.9393 15.6937 0.86458 15.6C0.801657 15.5212 0.774129 15.4237 0.78986 15.3263C2.72866 12.9037 3.56238 10.3238 3.6607 6.45Z" fill="black"/>
</svg>
