<svg width="23" height="23" viewBox="0 0 23 23" fill="none" xmlns="http://www.w3.org/2000/svg">
<rect width="23" height="23" fill="#1E1E1E"/>
<g id="dashboard" clip-path="url(#clip0_0_1)">
<rect width="1920" height="1326" transform="translate(-1228 -435)" fill="#EAEAEA"/>
<rect id="Rectangle 859" x="-917" y="-53" width="1101" height="744" rx="21" fill="white"/>
<g id="button">
<rect id="Rectangle 826" x="-14" y="-12" width="160" height="47" rx="8.83857" fill="#316BA2"/>
<g id="Layer_2">
<path id="Vector" d="M11.5 23C5.15919 23 0 17.8408 0 11.5C0 5.15919 5.15919 0 11.5 0C17.8408 0 23 5.15919 23 11.5C23 17.8408 17.8408 23 11.5 23ZM11.5 1.4375C5.95125 1.4375 1.4375 5.95125 1.4375 11.5C1.4375 17.0487 5.95125 21.5625 11.5 21.5625C17.0487 21.5625 21.5625 17.0487 21.5625 11.5C21.5625 5.95125 17.0487 1.4375 11.5 1.4375ZM11.4899 16.187C11.4892 16.187 11.4885 16.187 11.4878 16.187C11.091 16.1863 10.7705 15.8635 10.7712 15.4668L10.7791 12.2173L7.52962 12.2094C7.13287 12.2087 6.81231 11.886 6.81303 11.4892C6.81375 11.0932 7.13575 10.7719 7.53178 10.7719H7.53394L10.7834 10.7798L10.7913 7.53034C10.792 7.13431 11.114 6.81303 11.5101 6.81303H11.5122C11.909 6.81375 12.2295 7.13647 12.2288 7.53322L12.2209 10.7827L15.4704 10.7906C15.8671 10.7913 16.1877 11.114 16.187 11.5108C16.1863 11.9068 15.8643 12.2281 15.4682 12.2281C15.4682 12.2281 15.4668 12.2281 15.4661 12.2281L12.2166 12.2202L12.2087 15.4697C12.208 15.8664 11.886 16.187 11.4899 16.187Z" fill="white"/>
</g>
</g>
</g>
<defs>
<clipPath id="clip0_0_1">
<rect width="1920" height="1326" fill="white" transform="translate(-1228 -435)"/>
</clipPath>
</defs>
</svg>
