<svg width="59" height="47" viewBox="0 0 59 47" fill="none" xmlns="http://www.w3.org/2000/svg">
<g id="Group 57">
<rect id="Rectangle 883" width="59" height="47" rx="10" fill="#D9D9D9"/>
<g id="Group">
<g id="Group_2">
<path id="Vector" d="M23.7163 28.3337C22.9452 27.6394 22.3889 26.8069 22.0245 25.9131C21.0578 23.5423 21.5105 20.7227 23.3979 18.7778L25.1395 20.5194C25.2354 20.6153 25.408 20.5463 25.431 20.4043L26.3824 14.1782C26.3978 14.0746 26.3095 13.9864 26.2059 14.0017L19.976 14.9531C19.834 14.9761 19.765 15.1488 19.8609 15.2447L21.6064 16.9901C18.7254 19.9363 18.2343 24.3556 20.1256 27.8082C20.6933 28.8478 21.4798 29.7992 22.481 30.5971C24.1843 31.9513 26.2788 32.5996 28.358 32.5574L28.7493 29.9987C26.9578 30.1521 25.1165 29.5997 23.7163 28.3337Z" fill="#838383"/>
<path id="Vector_2" d="M35.3012 29.872C38.1822 26.9259 38.6732 22.5066 36.782 19.054C36.2142 18.0144 35.4278 17.063 34.4265 16.2651C32.7233 14.9109 30.6287 14.2626 28.5495 14.3048L28.1582 16.8635C29.9459 16.7101 31.7911 17.2625 33.1913 18.5284C33.9624 19.2228 34.5186 20.0552 34.883 20.9491C35.8498 23.3198 35.3971 26.1394 33.5097 28.0844L31.7681 26.3428C31.6722 26.2468 31.4995 26.3159 31.4765 26.4578L30.5251 32.684C30.5098 32.7876 30.598 32.8758 30.7016 32.8604L36.9316 31.9091C37.0735 31.886 37.1387 31.7134 37.0467 31.6175L35.3012 29.872Z" fill="#838383"/>
</g>
</g>
</g>
</svg>
