<svg width="33" height="44" viewBox="0 0 33 44" fill="none" xmlns="http://www.w3.org/2000/svg">
<path d="M3.89291 21.1132C6.03955 21.1132 7.78594 19.3667 7.78594 17.2202C7.78594 15.0736 6.03955 13.3271 3.89291 13.3271C1.74628 13.3271 0 15.0735 0 17.2202C0 19.3668 1.74639 21.1132 3.89291 21.1132ZM3.89291 15.2406C4.98441 15.2406 5.87247 16.1286 5.87247 17.2202C5.87247 18.3118 4.98452 19.1997 3.89291 19.1997C2.80153 19.1997 1.91347 18.3118 1.91347 17.2202C1.91347 16.1286 2.80153 15.2406 3.89291 15.2406Z" fill="white"/>
<path d="M10.5196 31.8146H7.41891V26.1393C7.41891 24.1951 5.83707 22.6133 3.89287 22.6133C1.94867 22.6133 0.366943 24.1951 0.366943 26.1393V34.0097C0.366943 35.8765 1.88556 37.395 3.75222 37.395H7.77532V42.9387C7.77532 43.4672 8.20366 43.8955 8.73211 43.8955H12.4466C12.975 43.8955 13.4034 43.4672 13.4034 42.9387V34.6987C13.4035 33.1083 12.1098 31.8146 10.5196 31.8146ZM11.4899 41.9819H9.6889V36.4382C9.6889 35.9098 9.26056 35.4814 8.73211 35.4814H3.75233C2.94082 35.4814 2.28052 34.8212 2.28052 34.0096V26.1392C2.28052 25.25 3.00382 24.5268 3.89287 24.5268C4.78203 24.5268 5.50533 25.25 5.50533 26.1392V32.7713C5.50533 33.2998 5.93366 33.7281 6.46212 33.7281H10.5195C11.0545 33.7281 11.4899 34.1634 11.4899 34.6985V41.9819Z" fill="white"/>
<path d="M28.8188 21.1132C30.9654 21.1132 32.7117 19.3667 32.7117 17.2202C32.7117 15.0736 30.9653 13.3271 28.8188 13.3271C26.6722 13.3271 24.9258 15.0736 24.9258 17.2202C24.9258 19.3667 26.6722 21.1132 28.8188 21.1132ZM28.8188 15.2406C29.9102 15.2406 30.7982 16.1286 30.7982 17.2202C30.7982 18.3118 29.9103 19.1997 28.8188 19.1997C27.7273 19.1997 26.8393 18.3118 26.8393 17.2202C26.8393 16.1286 27.7272 15.2406 28.8188 15.2406Z" fill="white"/>
<path d="M28.8188 22.6133C26.8746 22.6133 25.2928 24.1951 25.2928 26.1393V31.8146H22.1923C20.6019 31.8146 19.3083 33.1083 19.3083 34.6986V42.9386C19.3083 43.4671 19.7367 43.8954 20.2651 43.8954H23.9796C24.5081 43.8954 24.9364 43.4671 24.9364 42.9386V37.3949H28.9595C30.8263 37.3949 32.3448 35.8763 32.3448 34.0096V26.1392C32.3448 24.1951 30.763 22.6133 28.8188 22.6133ZM30.4312 34.0097C30.4312 34.8212 29.771 35.4815 28.9594 35.4815H23.9795C23.4511 35.4815 23.0227 35.9099 23.0227 36.4383V41.982H21.2217V34.6987C21.2217 34.1636 21.657 33.7282 22.1922 33.7282H26.2495C26.778 33.7282 27.2063 33.2999 27.2063 32.7714V26.1393C27.2063 25.2502 27.9296 24.5269 28.8188 24.5269C29.7078 24.5269 30.4311 25.2502 30.4311 26.1393V34.0097H30.4312Z" fill="white"/>
<path d="M21.9278 28.2412C22.4562 28.2412 22.8845 27.8129 22.8845 27.2844C22.8845 26.756 22.4562 26.3276 21.9278 26.3276H10.7842C10.2557 26.3276 9.82739 26.756 9.82739 27.2844C9.82739 27.8129 10.2557 28.2412 10.7842 28.2412H15.3992V43.0431C15.3992 43.5716 15.8275 43.9999 16.356 43.9999C16.8844 43.9999 17.3128 43.5716 17.3128 43.0431V28.2412H21.9278Z" fill="white"/>
<path d="M23.4215 0H9.24189C7.97207 0 6.93896 1.03311 6.93896 2.30299V11.6045C6.93896 12.8744 7.97207 13.9075 9.24195 13.9075H17.0073V18.3822C17.0073 18.6168 17.1531 18.8267 17.3729 18.9087C17.437 18.9326 17.5034 18.9441 17.5691 18.9441C17.7291 18.9441 17.8851 18.8758 17.994 18.7501L22.189 13.9075H23.4214C24.6913 13.9075 25.7244 12.8744 25.7244 11.6045V2.30299C25.7245 1.03311 24.6914 0 23.4215 0ZM24.6005 11.6046C24.6005 12.2546 24.0716 12.7836 23.4215 12.7836C23.4215 12.7836 21.9675 12.784 21.959 12.7836C21.7929 12.7758 21.6249 12.8421 21.5076 12.9776L18.1313 16.8752V13.3456C18.1313 13.0353 17.8797 12.7837 17.5693 12.7837H9.24189C8.59178 12.7837 8.06286 12.2547 8.06286 11.6046V2.30299C8.06292 1.65291 8.59178 1.12396 9.24189 1.12396H23.4214C24.0715 1.12396 24.6004 1.65291 24.6004 2.30299V11.6045L24.6005 11.6046Z" fill="white"/>
<path d="M22.6242 3.70703H10.0388C9.72844 3.70703 9.47681 3.95866 9.47681 4.26901C9.47681 4.57936 9.72844 4.83099 10.0388 4.83099H22.6242C22.9345 4.83099 23.1862 4.57936 23.1862 4.26901C23.1862 3.95866 22.9346 3.70703 22.6242 3.70703Z" fill="white"/>
<path d="M22.6242 6.3916H10.0388C9.72844 6.3916 9.47681 6.64323 9.47681 6.95358C9.47681 7.26393 9.72844 7.51556 10.0388 7.51556H22.6242C22.9345 7.51556 23.1862 7.26393 23.1862 6.95358C23.1862 6.64323 22.9346 6.3916 22.6242 6.3916Z" fill="white"/>
<path d="M15.9959 9.07666H10.0388C9.72844 9.07666 9.47681 9.32829 9.47681 9.63864C9.47681 9.94899 9.72844 10.2006 10.0388 10.2006H15.9959C16.3063 10.2006 16.5579 9.94899 16.5579 9.63864C16.5578 9.32832 16.3063 9.07666 15.9959 9.07666Z" fill="white"/>
</svg>
