<?xml version="1.0" encoding="utf-8"?>
<!-- Generator: Adobe Illustrator 28.3.0, SVG Export Plug-In . SVG Version: 6.00 Build 0)  -->
<svg version="1.1" xmlns="http://www.w3.org/2000/svg" xmlns:xlink="http://www.w3.org/1999/xlink" x="0px" y="0px"
	 viewBox="0 0 500 500" style="enable-background:new 0 0 500 500;" xml:space="preserve">
<g id="BACKGROUND">
</g>
<g id="OBJECTS">
	<g>
		<g>
			<g>
				<g>
					<path style="fill:#6CDD6C;" d="M317.66,333.88c-0.54-1.76-1.78-3.41-3.53-3.98c-1.76-0.57-3.98,0.29-4.53,2.05
						c-1.62-1.35-4.09-0.28-5.39,1.38c-2.1,2.68-0.48,7.06-0.13,7.35c0.38,0.31,1.4,0.25,1.4,0.25l15.71-0.09
						c0,0,2.88-0.21,4.21-0.74c2.68-1.07,4.5-5.67,2.77-7.98c-1.17-1.57-3.49-1.91-5.36-1.31
						C320.95,331.41,319.13,332.58,317.66,333.88"/>
				</g>
				<g>
					<path style="fill:#50AA50;" d="M305.26,341.46c-0.4,0-1.11-0.05-1.51-0.38c-0.62-0.5-2.18-5.23,0.05-8.07
						c0.94-1.2,2.34-2.03,3.67-2.17c0.69-0.08,1.34,0.04,1.9,0.34c0.34-0.61,0.87-1.11,1.55-1.47c1.03-0.54,2.29-0.65,3.37-0.31
						c1.56,0.5,2.87,1.82,3.61,3.6c1.53-1.24,3.2-2.18,4.77-2.68c1.88-0.6,4.53-0.39,5.93,1.49c0.81,1.08,0.99,2.68,0.51,4.39
						c-0.58,2.04-1.95,3.76-3.51,4.38c-1.39,0.55-4.24,0.77-4.37,0.78l-15.74,0.09C305.44,341.45,305.36,341.46,305.26,341.46z
						 M307.87,331.86c-0.1,0-0.19,0.01-0.29,0.02c-1.04,0.11-2.2,0.81-2.96,1.78c-1.84,2.35-0.47,6.27-0.17,6.67
						c0.07,0.05,0.59,0.12,1.01,0.1l15.73-0.09c-0.01,0,2.78-0.21,4.02-0.7c1.25-0.5,2.41-1.98,2.89-3.7
						c0.4-1.4,0.27-2.67-0.34-3.49c-1.1-1.47-3.25-1.62-4.79-1.13c-1.63,0.52-3.4,1.57-4.97,2.96c-0.13,0.12-0.31,0.16-0.48,0.11
						c-0.17-0.05-0.3-0.18-0.36-0.35c-0.55-1.81-1.75-3.17-3.19-3.64c-0.82-0.26-1.78-0.17-2.57,0.24c-0.65,0.34-1.11,0.86-1.3,1.47
						c-0.05,0.17-0.18,0.29-0.35,0.34c-0.17,0.05-0.35,0.01-0.48-0.1C308.88,332.02,308.41,331.86,307.87,331.86z"/>
				</g>
			</g>
			<g>
				<g>
					<g>
						<path style="fill:#50AA50;" d="M301.14,333.28c-0.45,0.87-0.64,1.82-0.54,2.8c0.05,0.49,0.83,0.5,0.78,0
							c-0.09-0.85,0.04-1.65,0.43-2.41C302.04,333.23,301.37,332.84,301.14,333.28L301.14,333.28z"/>
					</g>
				</g>
			</g>
			<g>
				<g>
					<g>
						<path style="fill:#50AA50;" d="M298.87,333.91c-0.24,0.88-0.26,1.76-0.07,2.65c0.11,0.49,0.86,0.28,0.75-0.21
							c-0.17-0.75-0.14-1.49,0.07-2.24C299.76,333.63,299.01,333.43,298.87,333.91L298.87,333.91z"/>
					</g>
				</g>
			</g>
			<g>
				<g>
					<g>
						<path style="fill:#50AA50;" d="M303.24,332.33c0.5,0,0.5-0.78,0-0.78C302.74,331.55,302.74,332.33,303.24,332.33
							L303.24,332.33z"/>
					</g>
				</g>
			</g>
			<g>
				<g>
					<g>
						<path style="fill:#50AA50;" d="M305.44,336.09c0,0.23,0,0.46,0,0.69c0,0.5,0.78,0.5,0.78,0c0-0.23,0-0.46,0-0.69
							C306.22,335.59,305.44,335.59,305.44,336.09L305.44,336.09z"/>
					</g>
				</g>
			</g>
			<g>
				<g>
					<g>
						<path style="fill:#50AA50;" d="M318.58,337.3c0,0.12,0,0.23,0,0.35c0,0.5,0.78,0.5,0.78,0c0-0.12,0-0.23,0-0.35
							C319.35,336.8,318.58,336.8,318.58,337.3L318.58,337.3z"/>
					</g>
				</g>
			</g>
			<g>
				<g>
					<g>
						<path style="fill:#50AA50;" d="M317.14,336.36c0.06,0.06,0.12,0.12,0.17,0.17c0.35,0.35,0.9-0.2,0.55-0.55
							c-0.06-0.06-0.12-0.12-0.17-0.17C317.33,335.46,316.78,336.01,317.14,336.36L317.14,336.36z"/>
					</g>
				</g>
			</g>
		</g>
		<g>
			<path style="fill:#405B91;" d="M96.12,319.22H69.79c-0.57,0-1.04-0.46-1.04-1.04c0-0.57,0.46-1.04,1.04-1.04h26.33
				c0.57,0,1.04,0.46,1.04,1.04C97.15,318.76,96.69,319.22,96.12,319.22z"/>
		</g>
		<g>
			<g>
				<path style="fill:#FFFFFF;" d="M327.96,227.91h-0.75c0-0.62-0.51-1.13-1.13-1.13s-1.13,0.51-1.13,1.13h-0.75
					c0-1.04,0.84-1.88,1.88-1.88C327.12,226.03,327.96,226.87,327.96,227.91z"/>
			</g>
		</g>
		<g>
			<g>
				<path style="fill:#FFFFFF;" d="M330.65,184.12h-0.75c0-0.62-0.51-1.13-1.13-1.13c-0.62,0-1.13,0.51-1.13,1.13h-0.75
					c0-1.04,0.84-1.88,1.88-1.88C329.81,182.24,330.65,183.08,330.65,184.12z"/>
			</g>
		</g>
		<g>
			<g>
				<g>
					<path style="fill:#415B91;" d="M237.04,336.27h-35.79l0.61-1.44c2.35-5.57,2.59-10.33,2.23-15.78l-0.07-1.1l30.17-0.09
						l0.01,1.03c0.03,3.52,0.98,11.51,2.41,16.03L237.04,336.27z M204.35,334.2h29.9c-1.15-4.35-1.93-10.64-2.09-14.26l-25.93,0.08
						C206.48,324.85,206.18,329.24,204.35,334.2z"/>
				</g>
			</g>
		</g>
		<g>
			<g>
				<g>
					<path style="fill:#415B91;" d="M190.97,319.92c-27.17,0-49.18-0.15-50.14-0.49c-2.33-0.83-5.36-4.05-5.41-6.34
						c-0.09-4.95-0.3-11.69-0.55-19.5c-0.74-23.54-1.76-55.77-0.44-73.61c0.24-3.25,2.93-5.76,6.13-5.76c0.03,0,0.07,0,0.1,0
						l156.63,0.23c3.31,0.06,5.97,2.73,6.05,6.09c0.12,5.21,0.29,10.54,0.46,15.93c0.72,22.6,1.46,45.97-1.04,68.06
						c-0.1,0.87-0.14,1.83-0.19,2.83c-0.21,4.64-0.47,10.41-6.45,11.59C293.21,319.53,235.24,319.92,190.97,319.92z M140.58,215.89
						c-2.35,0-4.31,1.84-4.49,4.22c-1.31,17.75-0.3,49.94,0.44,73.44c0.25,7.81,0.46,14.56,0.55,19.52c0.03,1.44,2.44,4.13,4.3,4.8
						c3.33,0.68,150.59,0.18,154.42-0.54c4.69-0.93,4.9-5.55,5.11-10.03c0.05-1.04,0.09-2.04,0.2-2.94
						c2.49-21.98,1.75-45.28,1.03-67.82c-0.17-5.4-0.34-10.73-0.46-15.95c-0.06-2.46-1.99-4.41-4.4-4.46l-156.62-0.23
						C140.63,215.89,140.61,215.89,140.58,215.89z"/>
				</g>
			</g>
		</g>
		<g>
			<g>
				<path style="fill-rule:evenodd;clip-rule:evenodd;fill:#B6D0FB;" d="M292.92,219.85l-147.58-0.19
					c-2.65-0.04-4.88,1.78-5.08,4.16c-1.65,19.75,0.6,60.96,0.93,77.55c0.03,1.62,2.67,4.04,4.57,4.64
					c2.24,0.71,142.48,0.17,145.91-0.43c6.16-1.07,5.11-7.38,5.62-11.41c2.92-22.81,1.13-47.61,0.55-69.92
					C297.78,221.82,295.61,219.89,292.92,219.85z"/>
			</g>
		</g>
		<g>
			<g>
				<g>
					<path style="fill:#415B91;" d="M249.85,341.95h-61.4c-2.44,0-3.71-1.92-3.71-3.81c0-1.9,1.27-3.82,3.71-3.82h61.4
						c2.44,0,3.71,1.92,3.71,3.81C253.56,340.03,252.28,341.95,249.85,341.95z M188.44,335.99c-1.61,0-2.04,1.35-2.04,2.15
						c0,0.8,0.43,2.14,2.04,2.14h61.4c1.61,0,2.04-1.35,2.04-2.15c0-0.8-0.43-2.14-2.04-2.14H188.44z"/>
				</g>
			</g>
		</g>
		<g>
			<g>
				<g>
					<g>
						<g>
							<g>
								<path style="fill:#415B91;" d="M145.68,314.11c2.76,0,2.76-4.29,0-4.29C142.92,309.83,142.92,314.11,145.68,314.11
									L145.68,314.11z"/>
							</g>
						</g>
					</g>
				</g>
			</g>
			<g>
				<g>
					<g>
						<g>
							<g>
								<path style="fill:#415B91;" d="M154.32,314.11c2.76,0,2.76-4.29,0-4.29C151.56,309.83,151.56,314.11,154.32,314.11
									L154.32,314.11z"/>
							</g>
						</g>
					</g>
				</g>
			</g>
			<g>
				<g>
					<g>
						<g>
							<g>
								<path style="fill:#415B91;" d="M162.96,314.11c2.76,0,2.76-4.29,0-4.29C160.2,309.83,160.2,314.11,162.96,314.11
									L162.96,314.11z"/>
							</g>
						</g>
					</g>
				</g>
			</g>
		</g>
		<g>
			<g>
				<g>
					<g>
						<g>
							<path style="fill:#415B91;" d="M219.14,218.57c1.29,0,1.3-2.01,0-2.01C217.85,216.56,217.85,218.57,219.14,218.57
								L219.14,218.57z"/>
						</g>
					</g>
				</g>
			</g>
		</g>
		<g>
			<g>
				<polygon style="fill:#B6D0FB;" points="392.32,337.88 371.16,337.88 379.3,311.15 384.18,311.15 				"/>
			</g>
			<g>
				<rect x="369.41" y="337.88" style="fill:#B6D0FB;" width="24.65" height="3.05"/>
			</g>
			<g>
				<polygon style="fill:#415B91;" points="373.19,331.2 371.16,337.88 392.32,337.88 390.28,331.2 				"/>
			</g>
			<g>
				<polygon style="fill:#415B91;" points="375.23,324.51 388.25,324.51 386.21,317.83 377.26,317.83 				"/>
			</g>
		</g>
		<g id="XMLID_11_">
			<g id="XMLID_493_">
				<path style="fill:#B6D0FB;" d="M400.97,340.76h4.69v-18.18h24.1v18.18h4.69v-18.18h4.97v-14.52h-3.97v-1.34h-6.84v1.34h-21.35
					v-1.34h-6.84v1.34h-4.35v14.52h4.89V340.76z M437.91,309.58v0.06l-2.89,11.42h-5.16l2.91-11.48H437.91z M424.45,321.07h-5.16
					l2.91-11.48h5.16L424.45,321.07z M413.87,321.07h-5.16l2.91-11.48h5.16L413.87,321.07z M401.04,309.58h5.16l-2.91,11.48h-5.16
					L401.04,309.58z"/>
			</g>
		</g>
		<g>
			<g>
				<g>
					<path style="fill:#B6D0FB;" d="M170.05,163.05l1.41-1.41c0.29-0.28,0.29-0.75,0-1.03l-1.23-1.22c-0.28-0.29-0.36-0.8-0.16-1.16
						l1-2.42c0.11-0.39,0.54-0.7,0.94-0.7h1.73c0.4,0,0.73-0.33,0.73-0.73v-1.99c0-0.4-0.33-0.73-0.73-0.73H172
						c-0.4,0-0.82-0.32-0.94-0.7l-1-2.42c-0.19-0.35-0.12-0.87,0.16-1.16l1.23-1.22c0.29-0.29,0.29-0.75,0-1.03l-1.41-1.41
						c-0.29-0.28-0.75-0.28-1.03,0l-1.23,1.23c-0.29,0.28-0.8,0.36-1.15,0.17l-2.43-1c-0.39-0.11-0.7-0.53-0.7-0.94v-1.73
						c0-0.4-0.33-0.73-0.73-0.73h-1.99c-0.4,0-0.73,0.33-0.73,0.73v1.73c0,0.4-0.31,0.82-0.7,0.94l-2.43,1
						c-0.35,0.19-0.87,0.12-1.15-0.17l-1.23-1.22c-0.28-0.29-0.75-0.29-1.03,0l-1.41,1.41c-0.29,0.28-0.29,0.74,0,1.03l1.22,1.22
						c0.28,0.29,0.36,0.81,0.17,1.16l-1,2.42c-0.11,0.39-0.54,0.7-0.94,0.7h-1.74c-0.4,0-0.73,0.32-0.73,0.73v1.99
						c0,0.4,0.33,0.73,0.73,0.73h1.74c0.4,0,0.82,0.32,0.94,0.7l1,2.42c0.19,0.35,0.12,0.87-0.17,1.16l-1.22,1.22
						c-0.29,0.29-0.29,0.75,0,1.03l1.41,1.41c0.28,0.29,0.74,0.29,1.03,0l1.23-1.22c0.28-0.28,0.8-0.36,1.16-0.16l2.42,1
						c0.39,0.11,0.7,0.53,0.7,0.94v1.74c0,0.4,0.33,0.73,0.73,0.73h1.99c0.4,0,0.73-0.33,0.73-0.73v-1.74c0-0.4,0.31-0.82,0.7-0.94
						l2.43-1c0.35-0.19,0.87-0.12,1.15,0.16l1.23,1.22C169.3,163.34,169.76,163.34,170.05,163.05z M161.78,159.2
						c-3.21,0-5.82-2.61-5.82-5.82c0-3.21,2.61-5.82,5.82-5.82c3.21,0,5.82,2.6,5.82,5.82C167.6,156.59,165,159.2,161.78,159.2z"/>
				</g>
			</g>
			<g>
				<g>
					<path style="fill:#B6D0FB;" d="M183.5,168.55l-0.36-1.18c-0.07-0.24-0.33-0.37-0.56-0.3l-1.03,0.31
						c-0.24,0.07-0.55-0.04-0.68-0.25l-1.03-1.25c-0.17-0.17-0.22-0.5-0.11-0.72l0.51-0.95c0.12-0.22,0.03-0.5-0.18-0.61l-1.09-0.58
						c-0.22-0.12-0.49-0.03-0.61,0.19l-0.51,0.95c-0.12,0.22-0.41,0.36-0.66,0.31l-1.62-0.16c-0.25,0-0.51-0.19-0.58-0.43
						l-0.31-1.03c-0.07-0.24-0.32-0.37-0.56-0.3l-1.18,0.35c-0.24,0.07-0.37,0.33-0.3,0.57l0.31,1.03c0.07,0.24-0.04,0.54-0.25,0.68
						l-1.25,1.03c-0.17,0.18-0.5,0.22-0.72,0.11l-0.95-0.51c-0.22-0.12-0.49-0.04-0.61,0.19l-0.59,1.08
						c-0.11,0.22-0.03,0.5,0.18,0.61l0.95,0.51c0.22,0.12,0.36,0.41,0.31,0.65l-0.16,1.62c0,0.25-0.19,0.51-0.43,0.58l-1.03,0.31
						c-0.24,0.07-0.38,0.33-0.3,0.56l0.36,1.18c0.07,0.24,0.32,0.37,0.56,0.3l1.03-0.31c0.24-0.07,0.54,0.04,0.68,0.25l1.03,1.26
						c0.18,0.17,0.22,0.5,0.11,0.72l-0.51,0.95c-0.12,0.22-0.03,0.49,0.19,0.61l1.09,0.58c0.22,0.12,0.49,0.03,0.61-0.18l0.51-0.95
						c0.11-0.22,0.41-0.36,0.65-0.31l1.61,0.16c0.25,0,0.51,0.19,0.59,0.43l0.31,1.03c0.07,0.24,0.33,0.38,0.56,0.3l1.18-0.36
						c0.24-0.07,0.37-0.33,0.31-0.56l-0.31-1.03c-0.07-0.24,0.04-0.55,0.25-0.68l1.26-1.03c0.17-0.18,0.5-0.23,0.72-0.11l0.95,0.51
						c0.22,0.12,0.5,0.04,0.61-0.18l0.58-1.09c0.12-0.22,0.03-0.49-0.19-0.61l-0.95-0.51c-0.22-0.12-0.36-0.41-0.31-0.65l0.16-1.62
						c0-0.25,0.19-0.51,0.43-0.58l1.03-0.31C183.44,169.04,183.57,168.79,183.5,168.55z M178.98,171.93
						c-0.94,1.76-3.13,2.42-4.88,1.48c-1.76-0.94-2.42-3.13-1.48-4.88c0.94-1.76,3.13-2.42,4.88-1.48
						C179.26,168,179.92,170.18,178.98,171.93z"/>
				</g>
			</g>
		</g>
		<g>
			<path style="fill:#405B91;" d="M242.39,191.33h-32.6c-0.57,0-1.04-0.46-1.04-1.04c0-0.57,0.46-1.04,1.04-1.04h32.6
				c0.57,0,1.04,0.46,1.04,1.04C243.43,190.87,242.96,191.33,242.39,191.33z"/>
		</g>
		<g>
			<path style="fill:#405B91;" d="M176.02,206.14h-52.66c-0.57,0-1.04-0.46-1.04-1.04c0-0.57,0.46-1.04,1.04-1.04h52.66
				c0.57,0,1.04,0.46,1.04,1.04C177.06,205.67,176.59,206.14,176.02,206.14z"/>
		</g>
		<g>
			<path style="fill:#405B91;" d="M428.5,234.18h-52.66c-0.57,0-1.04-0.46-1.04-1.04c0-0.57,0.46-1.04,1.04-1.04h52.66
				c0.57,0,1.04,0.46,1.04,1.04C429.54,233.71,429.07,234.18,428.5,234.18z"/>
		</g>
		<g>
			<path style="fill:#405B91;" d="M449.2,342.99H50.8c-0.57,0-1.04-0.46-1.04-1.04c0-0.57,0.46-1.04,1.04-1.04h398.4
				c0.57,0,1.04,0.46,1.04,1.04C450.24,342.52,449.77,342.99,449.2,342.99z"/>
		</g>
		<g>
			<g>
				<g>
					<path style="fill:#B6D0FB;" d="M303.06,178.3c-2.23,0-4.33,0.87-5.91,2.45c-2.69,2.69-3.23,6.87-1.3,10.15l0.14,0.23
						l-8.47,8.47c-0.01,0.01-0.41,0.4-0.42,0.96c0,0.43,0.21,0.86,0.64,1.29c0.46,0.45,0.93,0.68,1.42,0.68c0.58,0,0.99-0.34,1-0.34
						l8.45-8.45l0.23,0.14c1.28,0.75,2.74,1.15,4.23,1.15c2.23,0,4.33-0.87,5.91-2.45c3.26-3.26,3.26-8.57,0-11.83
						C307.4,179.17,305.3,178.3,303.06,178.3z M303.06,192.55c-3.24,0-5.88-2.64-5.88-5.88c0-3.24,2.64-5.88,5.88-5.88l0,0
						c3.24,0,5.88,2.64,5.88,5.88C308.94,189.91,306.31,192.55,303.06,192.55z"/>
				</g>
			</g>
			<g>
				<g>
					<path style="fill:#B6D0FB;" d="M299.96,187.89h6.06v-1.55h-6.06V187.89z"/>
				</g>
			</g>
		</g>
		<g>
			<g>
				<path style="fill:#405B91;" d="M147.75,341.07c-0.57,0-1.04-0.46-1.04-1.04v-79.87c0-0.57,0.46-1.04,1.04-1.04
					c0.57,0,1.04,0.46,1.04,1.04v79.87C148.79,340.6,148.32,341.07,147.75,341.07z"/>
			</g>
			<g>
				<path style="fill:#405B91;" d="M166.31,341.07c-0.57,0-1.04-0.46-1.04-1.04v-79.87c0-0.57,0.46-1.04,1.04-1.04
					c0.57,0,1.04,0.46,1.04,1.04v79.87C167.35,340.6,166.88,341.07,166.31,341.07z"/>
			</g>
			<g>
				<path style="fill:#405B91;" d="M166.31,266.65h-18.56c-0.57,0-1.04-0.46-1.04-1.04s0.46-1.04,1.04-1.04h18.56
					c0.57,0,1.04,0.46,1.04,1.04S166.88,266.65,166.31,266.65z"/>
			</g>
			<g>
				<path style="fill:#405B91;" d="M166.31,275.78h-18.56c-0.57,0-1.04-0.46-1.04-1.04c0-0.57,0.46-1.04,1.04-1.04h18.56
					c0.57,0,1.04,0.46,1.04,1.04C167.35,275.31,166.88,275.78,166.31,275.78z"/>
			</g>
			<g>
				<path style="fill:#405B91;" d="M166.31,284.9h-18.56c-0.57,0-1.04-0.46-1.04-1.04c0-0.57,0.46-1.04,1.04-1.04h18.56
					c0.57,0,1.04,0.46,1.04,1.04C167.35,284.44,166.88,284.9,166.31,284.9z"/>
			</g>
			<g>
				<path style="fill:#405B91;" d="M166.31,294.03h-18.56c-0.57,0-1.04-0.46-1.04-1.04c0-0.57,0.46-1.04,1.04-1.04h18.56
					c0.57,0,1.04,0.46,1.04,1.04C167.35,293.56,166.88,294.03,166.31,294.03z"/>
			</g>
			<g>
				<path style="fill:#405B91;" d="M166.31,303.15h-18.56c-0.57,0-1.04-0.46-1.04-1.04c0-0.57,0.46-1.04,1.04-1.04h18.56
					c0.57,0,1.04,0.46,1.04,1.04C167.35,302.69,166.88,303.15,166.31,303.15z"/>
			</g>
			<g>
				<path style="fill:#405B91;" d="M166.31,312.28h-18.56c-0.57,0-1.04-0.46-1.04-1.04c0-0.57,0.46-1.04,1.04-1.04h18.56
					c0.57,0,1.04,0.46,1.04,1.04C167.35,311.81,166.88,312.28,166.31,312.28z"/>
			</g>
			<g>
				<path style="fill:#405B91;" d="M166.31,321.4h-18.56c-0.57,0-1.04-0.46-1.04-1.04c0-0.57,0.46-1.04,1.04-1.04h18.56
					c0.57,0,1.04,0.46,1.04,1.04C167.35,320.94,166.88,321.4,166.31,321.4z"/>
			</g>
			<g>
				<path style="fill:#405B91;" d="M166.31,330.53h-18.56c-0.57,0-1.04-0.46-1.04-1.04c0-0.57,0.46-1.04,1.04-1.04h18.56
					c0.57,0,1.04,0.46,1.04,1.04C167.35,330.06,166.88,330.53,166.31,330.53z"/>
			</g>
		</g>
		<g>
			<g>
				<path style="fill:#405B91;" d="M122.47,264.03c-0.57,0-1.04-0.46-1.04-1.04v-4.04c0-0.57,0.46-1.04,1.04-1.04
					c0.57,0,1.04,0.46,1.04,1.04v4.04C123.51,263.57,123.04,264.03,122.47,264.03z"/>
			</g>
			<g>
				<path style="fill:#405B91;" d="M124.49,262.01h-4.04c-0.57,0-1.04-0.46-1.04-1.04s0.46-1.04,1.04-1.04h4.04
					c0.57,0,1.04,0.46,1.04,1.04S125.06,262.01,124.49,262.01z"/>
			</g>
		</g>
		<g>
			<g>
				<path style="fill:#405B91;" d="M215.74,119.6c-0.57,0-1.04-0.46-1.04-1.04v-4.04c0-0.57,0.46-1.04,1.04-1.04
					c0.57,0,1.04,0.46,1.04,1.04v4.04C216.77,119.13,216.31,119.6,215.74,119.6z"/>
			</g>
			<g>
				<path style="fill:#405B91;" d="M217.76,117.58h-4.04c-0.57,0-1.04-0.46-1.04-1.04s0.46-1.04,1.04-1.04h4.04
					c0.57,0,1.04,0.46,1.04,1.04S218.33,117.58,217.76,117.58z"/>
			</g>
		</g>
		<g>
			<g>
				<path style="fill:#405B91;" d="M248.43,328.66c-0.09,0-0.19-0.01-0.29-0.04l-3.88-1.11c-0.55-0.16-0.87-0.73-0.71-1.28
					c0.16-0.55,0.73-0.86,1.28-0.71l3.88,1.11c0.55,0.16,0.87,0.73,0.71,1.28C249.3,328.36,248.88,328.66,248.43,328.66z"/>
			</g>
			<g>
				<path style="fill:#405B91;" d="M245.93,330.05c-0.09,0-0.19-0.01-0.29-0.04c-0.55-0.16-0.87-0.73-0.71-1.28l1.11-3.88
					c0.16-0.55,0.73-0.86,1.28-0.71c0.55,0.16,0.87,0.73,0.71,1.28l-1.11,3.88C246.8,329.75,246.38,330.05,245.93,330.05z"/>
			</g>
		</g>
		<g>
			<g>
				<path style="fill:#405B91;" d="M228.03,206.69c-0.09,0-0.19-0.01-0.29-0.04l-3.88-1.11c-0.55-0.16-0.87-0.73-0.71-1.28
					c0.16-0.55,0.73-0.87,1.28-0.71l3.88,1.11c0.55,0.16,0.87,0.73,0.71,1.28C228.9,206.4,228.48,206.69,228.03,206.69z"/>
			</g>
			<g>
				<path style="fill:#405B91;" d="M225.54,208.08c-0.09,0-0.19-0.01-0.29-0.04c-0.55-0.16-0.87-0.73-0.71-1.28l1.11-3.88
					c0.16-0.55,0.73-0.87,1.28-0.71c0.55,0.16,0.87,0.73,0.71,1.28l-1.11,3.88C226.4,207.78,225.99,208.08,225.54,208.08z"/>
			</g>
		</g>
		<g>
			<g>
				<g>
					
						<ellipse transform="matrix(0.7071 -0.7071 0.7071 0.7071 -53.1371 208.6632)" style="fill:#B6D0FB;" cx="225.31" cy="168.47" rx="14.41" ry="14.41"/>
				</g>
			</g>
			<g>
				<g>
					<g>
						<circle style="fill:#FFFFFF;" cx="225.31" cy="168.47" r="10.79"/>
					</g>
				</g>
				<g>
					<g>
						<g>
							<path style="fill:#405B91;" d="M225.31,179.68c-6.18,0-11.21-5.03-11.21-11.21s5.03-11.21,11.21-11.21
								s11.21,5.03,11.21,11.21S231.49,179.68,225.31,179.68z M225.31,158.1c-5.72,0-10.37,4.65-10.37,10.38s4.65,10.37,10.37,10.37
								c5.72,0,10.37-4.65,10.37-10.37S231.03,158.1,225.31,158.1z"/>
						</g>
					</g>
				</g>
			</g>
			<g>
				<g>
					<g>
						<path style="fill:#405B91;" d="M225.31,168.89c-0.23,0-0.42-0.19-0.42-0.42v-5.49c0-0.23,0.19-0.42,0.42-0.42
							c0.23,0,0.42,0.19,0.42,0.42v5.49C225.73,168.7,225.54,168.89,225.31,168.89z"/>
					</g>
				</g>
				<g>
					<g>
						<path style="fill:#405B91;" d="M231.75,168.89h-6.44c-0.23,0-0.42-0.19-0.42-0.42c0-0.23,0.19-0.42,0.42-0.42h6.44
							c0.23,0,0.42,0.19,0.42,0.42C232.17,168.7,231.98,168.89,231.75,168.89z"/>
					</g>
				</g>
			</g>
			<g>
				<g>
					<g>
						<path style="fill:#405B91;" d="M225.74,158.9c0,0.24-0.19,0.43-0.43,0.43s-0.43-0.19-0.43-0.43c0-0.24,0.19-0.43,0.43-0.43
							S225.74,158.66,225.74,158.9z"/>
					</g>
				</g>
				<g>
					<g>
						<path style="fill:#405B91;" d="M232.38,162.01c-0.17,0.17-0.44,0.17-0.6,0c-0.17-0.17-0.17-0.44,0-0.6
							c0.17-0.17,0.44-0.17,0.6,0C232.55,161.57,232.55,161.84,232.38,162.01z"/>
					</g>
				</g>
				<g>
					<g>
						<path style="fill:#405B91;" d="M234.88,168.9c-0.24,0-0.43-0.19-0.43-0.43c0-0.24,0.19-0.43,0.43-0.43
							c0.24,0,0.43,0.19,0.43,0.43C235.31,168.71,235.12,168.9,234.88,168.9z"/>
					</g>
				</g>
				<g>
					<g>
						<path style="fill:#405B91;" d="M231.78,175.54c-0.17-0.17-0.17-0.44,0-0.6c0.17-0.17,0.44-0.17,0.6,0
							c0.17,0.17,0.17,0.44,0,0.6C232.21,175.71,231.95,175.71,231.78,175.54z"/>
					</g>
				</g>
				<g>
					<g>
						<path style="fill:#405B91;" d="M224.88,178.05c0-0.24,0.19-0.43,0.43-0.43s0.43,0.19,0.43,0.43s-0.19,0.43-0.43,0.43
							S224.88,178.28,224.88,178.05z"/>
					</g>
				</g>
				<g>
					<g>
						<path style="fill:#405B91;" d="M218.24,174.94c0.17-0.17,0.44-0.17,0.6,0c0.17,0.17,0.17,0.44,0,0.6
							c-0.17,0.17-0.44,0.17-0.6,0C218.07,175.38,218.07,175.11,218.24,174.94z"/>
					</g>
				</g>
				<g>
					<g>
						<circle style="fill:#405B91;" cx="215.74" cy="168.47" r="0.43"/>
					</g>
				</g>
				<g>
					<g>
						<path style="fill:#405B91;" d="M218.84,161.4c0.17,0.17,0.17,0.44,0,0.6c-0.17,0.17-0.44,0.17-0.6,0s-0.17-0.44,0-0.6
							C218.41,161.24,218.68,161.24,218.84,161.4z"/>
					</g>
				</g>
			</g>
			<g>
				<g>
					<g>
						<path style="fill:#405B91;" d="M246.39,162.97h-6.05c-0.23,0-0.42-0.19-0.42-0.42c0-0.23,0.19-0.42,0.42-0.42h6.05
							c0.23,0,0.42,0.19,0.42,0.42C246.8,162.79,246.62,162.97,246.39,162.97z"/>
					</g>
				</g>
				<g>
					<g>
						<path style="fill:#405B91;" d="M246.39,174.81h-6.05c-0.23,0-0.42-0.19-0.42-0.42c0-0.23,0.19-0.42,0.42-0.42h6.05
							c0.23,0,0.42,0.19,0.42,0.42C246.8,174.62,246.62,174.81,246.39,174.81z"/>
					</g>
				</g>
				<g>
					<g>
						<path style="fill:#405B91;" d="M253.91,168.89h-11.3c-0.23,0-0.42-0.19-0.42-0.42c0-0.23,0.19-0.42,0.42-0.42h11.3
							c0.23,0,0.42,0.19,0.42,0.42C254.32,168.71,254.14,168.89,253.91,168.89z"/>
					</g>
				</g>
			</g>
		</g>
		<g>
			<g>
				<rect x="266.94" y="324.51" style="fill:#FFFFFF;" width="6.68" height="6.68"/>
				<path style="fill:#415B91;" d="M274.14,331.72h-7.72V324h7.72V331.72z M267.46,330.68h5.65v-5.65h-5.65V330.68z"/>
			</g>
			<g>
				<g>
					<g>
						<path style="fill:#405B91;" d="M282.08,325.98h-6.05c-0.23,0-0.42-0.19-0.42-0.42s0.19-0.42,0.42-0.42h6.05
							c0.23,0,0.42,0.19,0.42,0.42S282.31,325.98,282.08,325.98z"/>
					</g>
				</g>
				<g>
					<g>
						<path style="fill:#405B91;" d="M284.35,330.56h-8.18c-0.31,0-0.56-0.19-0.56-0.42c0-0.23,0.25-0.42,0.56-0.42h8.18
							c0.31,0,0.56,0.19,0.56,0.42C284.92,330.38,284.66,330.56,284.35,330.56z"/>
					</g>
				</g>
				<g>
					<g>
						<path style="fill:#405B91;" d="M287.33,328.14h-11.3c-0.23,0-0.42-0.19-0.42-0.42c0-0.23,0.19-0.42,0.42-0.42h11.3
							c0.23,0,0.42,0.19,0.42,0.42C287.75,327.96,287.56,328.14,287.33,328.14z"/>
					</g>
				</g>
			</g>
		</g>
		<g>
			<g>
				
					<rect x="120.21" y="226.46" transform="matrix(-1 -1.224647e-16 1.224647e-16 -1 247.1112 459.6004)" style="fill:#FFFFFF;" width="6.68" height="6.68"/>
				<path style="fill:#415B91;" d="M127.42,233.66h-7.72v-7.72h7.72V233.66z M120.73,232.62h5.64v-5.64h-5.64V232.62z"/>
			</g>
			<g>
				<g>
					<g>
						<path style="fill:#405B91;" d="M111.76,227.93h6.05c0.23,0,0.42-0.19,0.42-0.42c0-0.23-0.19-0.42-0.42-0.42h-6.05
							c-0.23,0-0.42,0.19-0.42,0.42C111.34,227.74,111.53,227.93,111.76,227.93z"/>
					</g>
				</g>
				<g>
					<g>
						<path style="fill:#405B91;" d="M109.48,232.51h8.18c0.31,0,0.56-0.19,0.56-0.42s-0.25-0.42-0.56-0.42h-8.18
							c-0.31,0-0.56,0.19-0.56,0.42S109.17,232.51,109.48,232.51z"/>
					</g>
				</g>
				<g>
					<g>
						<path style="fill:#405B91;" d="M106.51,230.09h11.3c0.23,0,0.42-0.19,0.42-0.42c0-0.23-0.19-0.42-0.42-0.42h-11.3
							c-0.23,0-0.42,0.19-0.42,0.42C106.09,229.9,106.28,230.09,106.51,230.09z"/>
					</g>
				</g>
			</g>
		</g>
		<g>
			<g>
				<rect x="324.01" y="251.57" style="fill:#3F5B91;" width="2.07" height="89.19"/>
			</g>
			<g>
				<path style="fill:#B6D0FB;" d="M325.27,262.36h-0.46c-3.38,0-6.15-2.77-6.15-6.15v-8.24c0-3.38,2.77-6.15,6.15-6.15h0.46
					c3.38,0,6.15,2.77,6.15,6.15v8.24C331.42,259.59,328.66,262.36,325.27,262.36z"/>
			</g>
			<g>
				<g>
					<path style="fill:#3F5B91;" d="M333.4,256.39c0.73,0.12,1.46,0.23,2.19,0.35c0.49,0.08,0.7-0.67,0.21-0.75
						c-0.73-0.12-1.46-0.23-2.19-0.35C333.11,255.56,332.9,256.31,333.4,256.39L333.4,256.39z"/>
				</g>
			</g>
			<g>
				<g>
					<path style="fill:#3F5B91;" d="M333.32,251.64c0.57-0.1,1.14-0.11,1.72-0.06c0.5,0.05,0.49-0.73,0-0.78
						c-0.65-0.06-1.28-0.03-1.93,0.09C332.62,250.98,332.83,251.73,333.32,251.64L333.32,251.64z"/>
				</g>
			</g>
			<g>
				<g>
					<path style="fill:#3F5B91;" d="M333.08,247.31c0.56-0.22,1.12-0.44,1.68-0.67c0.46-0.18,0.26-0.93-0.21-0.75
						c-0.56,0.22-1.12,0.44-1.68,0.67C332.42,246.74,332.62,247.49,333.08,247.31L333.08,247.31z"/>
				</g>
			</g>
			<g>
				<g>
					<path style="fill:#3F5B91;" d="M314.01,257.12c0.57-0.08,1.13-0.21,1.68-0.4c0.47-0.16,0.27-0.91-0.21-0.75
						c-0.55,0.19-1.1,0.32-1.68,0.4C313.31,256.43,313.52,257.18,314.01,257.12L314.01,257.12z"/>
				</g>
			</g>
			<g>
				<g>
					<path style="fill:#3F5B91;" d="M313,251.59c0.72,0.02,1.42,0.13,2.11,0.32c0.48,0.14,0.69-0.61,0.21-0.75
						c-0.76-0.21-1.53-0.33-2.32-0.35C312.5,250.8,312.5,251.57,313,251.59L313,251.59z"/>
				</g>
			</g>
			<g>
				<g>
					<path style="fill:#3F5B91;" d="M313.68,245.19c0.56,0.18,1.12,0.36,1.68,0.54c0.48,0.15,0.68-0.6,0.21-0.75
						c-0.56-0.18-1.12-0.36-1.68-0.54C313.41,244.29,313.21,245.04,313.68,245.19L313.68,245.19z"/>
				</g>
			</g>
			<g>
				<polygon style="fill:#405B91;" points="320.2,341.97 321.59,330.05 328.33,330.05 329.88,341.8 				"/>
			</g>
		</g>
		<g>
			<g>
				<g>
					<g>
						<path style="fill:#6CDD6C;" d="M129.87,284.89c-0.31-1.9-1.65-6.79-4.6-5.24c-4.78,2.51,0.99,12.02-4.77,13.7
							c-0.31-3.79-1.12-6.4-2.84-6.25c-3.53,0.32-2.59,8.53-2.65,10.38c-0.06,1.84-0.15,3.73-0.23,5.63
							c-4.16,0.75-3.33-10.09-5.86-11.59c-3.93-2.33-4.76,2.86-4.66,5.26c0.18,4.08,1.28,8.97,5.12,11.13
							c1.26,0.72,3.49,1.52,5.23,1.38c-0.02,3.26,0.12,6.51,0.66,9.61c0.01,0.03,0.06,0.03,0.07,0c0,0,0-0.01,0-0.01l2.33,0.13
							c0,0.01,0,0.03,0,0.04c-0.02,1.02,1.58,1.03,1.59,0c0.03-1.97,1.24-11.64,1.38-19.84c1.86,0.28,4.2-0.59,5.53-1.57
							C130.13,294.75,130.6,289.4,129.87,284.89z"/>
					</g>
					<g>
						<path style="fill:#50AA50;" d="M118.44,320.28c-0.24,0-0.47-0.06-0.67-0.18c-0.25-0.15-0.42-0.38-0.5-0.65l-1.72-0.09
							l-0.62,0.02l-0.1-0.39c-0.46-2.63-0.67-5.57-0.67-9.22c-1.91,0-4.01-0.89-5-1.45c-4.09-2.31-5.16-7.53-5.34-11.5
							c-0.07-1.6,0.26-4.9,2.05-5.97c0.91-0.54,2.01-0.44,3.27,0.31c1.22,0.72,1.69,2.95,2.23,5.53c0.73,3.49,1.39,6,2.99,6.04
							l0.04-0.86c0.07-1.48,0.13-2.95,0.18-4.39c0.01-0.28-0.01-0.72-0.03-1.25c-0.11-3.23-0.32-9.25,3.08-9.56
							c0.52-0.05,1,0.1,1.42,0.45c0.95,0.8,1.55,2.64,1.85,5.62c2.15-0.96,2.03-3.44,1.91-6.29c-0.13-2.88-0.26-5.86,2.27-7.19
							c0.82-0.43,1.61-0.47,2.33-0.1c2.11,1.06,2.84,5.19,2.91,5.66l0,0c0.56,3.46,0.8,9.77-3.88,13.2c-1.3,0.96-3.5,1.8-5.36,1.7
							c-0.12,5.35-0.67,11.25-1.04,15.19c-0.18,1.97-0.33,3.53-0.34,4.17c-0.01,0.45-0.23,0.83-0.61,1.04
							C118.88,320.23,118.66,320.28,118.44,320.28z M115.64,318.48l2.47,0.13l-0.01,0.43c-0.01,0.21,0.07,0.27,0.12,0.3
							c0.12,0.07,0.3,0.07,0.43,0c0.1-0.06,0.15-0.15,0.15-0.28c0.01-0.67,0.15-2.17,0.34-4.24c0.38-4.04,0.95-10.15,1.04-15.6
							l0.01-0.5l0.5,0.07c1.72,0.26,3.96-0.58,5.21-1.49c4.3-3.15,4.06-9.09,3.53-12.34l0,0c-0.23-1.43-1.04-4.31-2.43-5.01
							c-0.46-0.23-0.96-0.2-1.53,0.09c-2.04,1.07-1.92,3.64-1.8,6.37c0.13,3,0.28,6.39-3.06,7.37l-0.52,0.15l-0.04-0.54
							c-0.31-3.78-1.03-5.13-1.59-5.59c-0.23-0.2-0.48-0.28-0.77-0.25c-2.56,0.23-2.37,5.92-2.27,8.65
							c0.02,0.56,0.03,1.01,0.03,1.31c-0.05,1.44-0.11,2.91-0.18,4.4l-0.07,1.59l-0.35,0.06c-2.84,0.51-3.64-3.32-4.35-6.7
							c-0.46-2.17-0.93-4.42-1.81-4.95c-0.96-0.57-1.76-0.68-2.37-0.31c-1.32,0.79-1.69,3.59-1.62,5.17
							c0.17,3.75,1.15,8.66,4.89,10.77c1.29,0.73,3.4,1.45,4.97,1.32l0.48-0.04l0,0.48C115.02,312.95,115.21,315.88,115.64,318.48z"
							/>
					</g>
				</g>
				<g>
					<g>
						<g>
							<path style="fill:#415B91;" d="M125.29,340.95h-16.88c-0.9,0-1.62-0.59-1.79-1.46l-3.83-19.68l1.59-0.31l3.83,19.68
								c0.03,0.15,0.16,0.15,0.2,0.15h16.88c0.04,0,0.17,0,0.2-0.15l3.8-19.68l1.59,0.31l-3.8,19.68
								C126.92,340.36,126.2,340.95,125.29,340.95z"/>
						</g>
					</g>
				</g>
				<g>
					<g>
						<g>
							<path style="fill:#B6D0FB;" d="M102.96,313.48h28.02c0.48,0,0.87,0.53,0.87,1.17v4.26c0,0.65-0.39,1.17-0.87,1.17h-28.02
								c-0.48,0-0.87-0.53-0.87-1.17v-4.26C102.09,314,102.48,313.48,102.96,313.48z"/>
						</g>
						<g>
							<path style="fill:#405B91;" d="M130.98,320.53h-28.02c-0.72,0-1.31-0.73-1.31-1.62v-4.26c0-0.89,0.59-1.62,1.31-1.62h28.02
								c0.72,0,1.31,0.73,1.31,1.62v4.26C132.29,319.8,131.71,320.53,130.98,320.53z M102.96,313.92c-0.2,0-0.43,0.31-0.43,0.73
								v4.26c0,0.42,0.23,0.73,0.43,0.73h28.02c0.2,0,0.43-0.31,0.43-0.73v-4.26c0-0.42-0.23-0.73-0.43-0.73H102.96z"/>
						</g>
					</g>
					<g>
						<g>
							<path style="fill:#B6D0FB;" d="M130.98,320.45h-28.02c-0.68,0-1.24-0.69-1.24-1.54v-4.26c0-0.85,0.56-1.54,1.24-1.54h28.02
								c0.68,0,1.24,0.69,1.24,1.54v4.26C132.22,319.76,131.67,320.45,130.98,320.45z M102.96,313.85c-0.24,0-0.5,0.33-0.5,0.81
								v4.26c0,0.47,0.26,0.81,0.5,0.81h28.02c0.24,0,0.5-0.33,0.5-0.81v-4.26c0-0.48-0.26-0.81-0.5-0.81H102.96z"/>
						</g>
						<g>
							<path style="fill:#405B91;" d="M130.98,320.9h-28.02c-0.93,0-1.68-0.89-1.68-1.98v-4.26c0-1.09,0.75-1.99,1.68-1.99h28.02
								c0.93,0,1.68,0.89,1.68,1.99v4.26C132.66,320.01,131.91,320.9,130.98,320.9z M103.01,314.29c-0.04,0.04-0.11,0.17-0.11,0.36
								v4.26c0,0.23,0.09,0.36,0.12,0.38l27.96-0.01c-0.03-0.01,0.06-0.14,0.06-0.36v-4.26c0-0.23-0.09-0.36-0.12-0.38
								L103.01,314.29z"/>
						</g>
					</g>
				</g>
			</g>
			<g>
				<g>
					<path style="fill:#50AA50;" d="M106.02,296.75c0.46,0.06,0.92,0.12,1.38,0.18c0.5,0.06,0.49-0.72,0-0.78
						c-0.46-0.06-0.92-0.12-1.38-0.18C105.52,295.91,105.53,296.69,106.02,296.75L106.02,296.75z"/>
				</g>
			</g>
			<g>
				<g>
					<path style="fill:#50AA50;" d="M108.05,290.63c0,0.23,0,0.46,0,0.69c0,0.5,0.78,0.5,0.78,0c0-0.23,0-0.46,0-0.69
						C108.83,290.13,108.05,290.13,108.05,290.63L108.05,290.63z"/>
				</g>
			</g>
			<g>
				<g>
					<path style="fill:#50AA50;" d="M110.74,297.76c0.34-0.19,0.67-0.38,1.01-0.56c0.44-0.24,0.05-0.92-0.39-0.67
						c-0.34,0.19-0.67,0.38-1.01,0.56C109.91,297.34,110.3,298.01,110.74,297.76L110.74,297.76z"/>
				</g>
			</g>
			<g>
				<g>
					<path style="fill:#50AA50;" d="M106.75,306.71c0.41-0.28,0.81-0.57,1.22-0.85c0.41-0.28,0.02-0.96-0.39-0.67
						c-0.41,0.28-0.81,0.57-1.22,0.85C105.95,306.33,106.33,307,106.75,306.71L106.75,306.71z"/>
				</g>
			</g>
			<g>
				<g>
					<path style="fill:#50AA50;" d="M103.83,300.02c0.29,0.11,0.58,0.23,0.87,0.34c0.47,0.18,0.67-0.57,0.21-0.75
						c-0.29-0.11-0.58-0.23-0.87-0.34C103.57,299.09,103.37,299.84,103.83,300.02L103.83,300.02z"/>
				</g>
			</g>
			<g>
				<g>
					<path style="fill:#50AA50;" d="M109.48,303.64c0.19,0.01,0.3,0.1,0.41,0.24c0.32,0.39,0.87-0.17,0.55-0.55
						c-0.25-0.3-0.57-0.44-0.96-0.47C108.98,302.82,108.98,303.6,109.48,303.64L109.48,303.64z"/>
				</g>
			</g>
			<g>
				<g>
					<path style="fill:#50AA50;" d="M111.18,307.3c-0.08,0.54-0.02,1.01,0.19,1.52c0.19,0.46,0.86,0.06,0.67-0.39
						c-0.13-0.3-0.16-0.6-0.11-0.92C112.01,307.01,111.26,306.8,111.18,307.3L111.18,307.3z"/>
				</g>
			</g>
			<g>
				<g>
					<path style="fill:#50AA50;" d="M115.25,307.44c0.23,0.06,0.46,0.12,0.69,0.18c0.48,0.13,0.69-0.62,0.21-0.75
						c-0.23-0.06-0.46-0.12-0.69-0.18C114.97,306.56,114.76,307.31,115.25,307.44L115.25,307.44z"/>
				</g>
			</g>
			<g>
				<g>
					<path style="fill:#50AA50;" d="M117.73,299.79c-0.04,0.44,0.13,0.85,0.47,1.13c0.38,0.32,0.93-0.23,0.55-0.55
						c-0.2-0.17-0.26-0.33-0.24-0.58C118.55,299.29,117.77,299.3,117.73,299.79L117.73,299.79z"/>
				</g>
			</g>
			<g>
				<g>
					<path style="fill:#50AA50;" d="M116.74,294.23c-0.23,0.31-0.27,0.62-0.2,0.99c0.09,0.49,0.84,0.28,0.75-0.21
						c-0.02-0.16,0.02-0.29,0.12-0.39C117.71,294.22,117.04,293.83,116.74,294.23L116.74,294.23z"/>
				</g>
			</g>
			<g>
				<g>
					<path style="fill:#50AA50;" d="M121.01,296.51c0,0.23,0,0.46,0,0.69c0,0.5,0.78,0.5,0.78,0c0-0.23,0-0.46,0-0.69
						C121.79,296.01,121.01,296.01,121.01,296.51L121.01,296.51z"/>
				</g>
			</g>
			<g>
				<g>
					<path style="fill:#50AA50;" d="M113.77,295.29c0.17,0.12,0.35,0.23,0.52,0.35c0.42,0.28,0.81-0.39,0.39-0.67
						c-0.17-0.12-0.35-0.23-0.52-0.35C113.75,294.34,113.36,295.01,113.77,295.29L113.77,295.29z"/>
				</g>
			</g>
			<g>
				<g>
					<path style="fill:#50AA50;" d="M115.07,288.83c0.15,0.18,0.22,0.36,0.24,0.59c0.04,0.5,0.82,0.5,0.78,0
						c-0.03-0.45-0.18-0.8-0.47-1.14C115.3,287.9,114.75,288.46,115.07,288.83L115.07,288.83z"/>
				</g>
			</g>
			<g>
				<g>
					<path style="fill:#50AA50;" d="M117.04,286.48c0,0.35,0,0.69,0,1.04c0,0.5,0.78,0.5,0.78,0c0-0.35,0-0.69,0-1.04
						C117.82,285.98,117.04,285.98,117.04,286.48L117.04,286.48z"/>
				</g>
			</g>
			<g>
				<g>
					<path style="fill:#50AA50;" d="M121.85,291.05c0.11,0.12,0.22,0.24,0.34,0.35c0.35,0.36,0.9-0.19,0.55-0.55
						c-0.11-0.12-0.22-0.24-0.34-0.35C122.05,290.14,121.5,290.69,121.85,291.05L121.85,291.05z"/>
				</g>
			</g>
			<g>
				<g>
					<path style="fill:#50AA50;" d="M122.62,286.42c0.34,0.02,0.69,0.04,1.03,0.06c0.5,0.03,0.5-0.75,0-0.78
						c-0.34-0.02-0.69-0.04-1.03-0.06C122.12,285.61,122.12,286.39,122.62,286.42L122.62,286.42z"/>
				</g>
			</g>
			<g>
				<g>
					<path style="fill:#50AA50;" d="M123.72,280.19c0.23,0.23,0.46,0.46,0.69,0.69c0.35,0.35,0.9-0.2,0.55-0.55
						c-0.23-0.23-0.46-0.46-0.69-0.69C123.92,279.29,123.37,279.83,123.72,280.19L123.72,280.19z"/>
				</g>
			</g>
			<g>
				<g>
					<path style="fill:#50AA50;" d="M126.72,278.19c0,0.4,0,0.81,0,1.21c0,0.5,0.78,0.5,0.78,0c0-0.4,0-0.81,0-1.21
						C127.5,277.69,126.72,277.68,126.72,278.19L126.72,278.19z"/>
				</g>
			</g>
			<g>
				<g>
					<path style="fill:#50AA50;" d="M128.13,285.46c0.11-0.17,0.23-0.35,0.34-0.52c0.28-0.42-0.4-0.81-0.67-0.39
						c-0.11,0.17-0.23,0.35-0.34,0.52C127.18,285.49,127.85,285.88,128.13,285.46L128.13,285.46z"/>
				</g>
			</g>
			<g>
				<g>
					<path style="fill:#50AA50;" d="M125.49,293.1c0.29-0.11,0.58-0.22,0.87-0.34c0.46-0.18,0.26-0.93-0.21-0.75
						c-0.29,0.11-0.58,0.22-0.87,0.34C124.82,292.53,125.02,293.29,125.49,293.1L125.49,293.1z"/>
				</g>
			</g>
			<g>
				<g>
					<path style="fill:#50AA50;" d="M128.93,292.02c0.29-0.06,0.58-0.12,0.86-0.18c0.49-0.1,0.28-0.85-0.21-0.75
						c-0.29,0.06-0.58,0.12-0.86,0.18C128.24,291.37,128.44,292.12,128.93,292.02L128.93,292.02z"/>
				</g>
			</g>
			<g>
				<g>
					<path style="fill:#50AA50;" d="M126.72,295.64c0,0.06,0,0.12,0,0.17c0,0.5,0.78,0.5,0.78,0c0-0.06,0-0.12,0-0.17
						C127.5,295.14,126.72,295.14,126.72,295.64L126.72,295.64z"/>
				</g>
			</g>
			<g>
				<g>
					<path style="fill:#50AA50;" d="M120.04,307.55c0.17-0.12,0.35-0.23,0.52-0.35c0.41-0.28,0.03-0.95-0.39-0.67
						c-0.17,0.12-0.35,0.23-0.52,0.35C119.23,307.16,119.62,307.83,120.04,307.55L120.04,307.55z"/>
				</g>
			</g>
			<g>
				<g>
					<path style="fill:#50AA50;" d="M119.58,310.42c0.31-0.3,0.64-0.47,1.06-0.57c0.49-0.11,0.28-0.86-0.21-0.75
						c-0.54,0.13-1,0.38-1.4,0.77C118.67,310.22,119.22,310.77,119.58,310.42L119.58,310.42z"/>
				</g>
			</g>
			<g>
				<g>
					<path style="fill:#50AA50;" d="M116.38,310.89c0.06,0.11,0.12,0.23,0.18,0.34c0.23,0.45,0.9,0.05,0.67-0.39
						c-0.06-0.11-0.12-0.23-0.18-0.34C116.82,310.05,116.15,310.44,116.38,310.89L116.38,310.89z"/>
				</g>
			</g>
			<g>
				<g>
					<path style="fill:#50AA50;" d="M113.42,311.72c0.44,0.23,0.86,0.28,1.34,0.19c0.49-0.1,0.28-0.85-0.21-0.75
						c-0.27,0.06-0.5,0.02-0.74-0.11C113.37,310.82,112.97,311.49,113.42,311.72L113.42,311.72z"/>
				</g>
			</g>
			<g>
				<g>
					<path style="fill:#50AA50;" d="M119.85,304.35c0.52-0.06,1.04-0.13,1.55-0.19c0.49-0.06,0.5-0.84,0-0.78
						c-0.52,0.06-1.04,0.13-1.55,0.19C119.36,303.63,119.35,304.41,119.85,304.35L119.85,304.35z"/>
				</g>
			</g>
		</g>
		<g>
			<g>
				<g>
					<path style="fill:#D7E7FF;" d="M189.51,270.26c8.37-7.57,16.74-15.14,25.11-22.7c1.24-1.12-0.6-2.95-1.83-1.83
						c-8.37,7.57-16.74,15.14-25.11,22.7C186.44,269.55,188.27,271.38,189.51,270.26L189.51,270.26z"/>
				</g>
			</g>
			<g>
				<g>
					<path style="fill:#D7E7FF;" d="M217.89,281.84c8.37-7.57,16.74-15.14,25.11-22.7c1.24-1.12-0.6-2.95-1.83-1.83
						c-8.37,7.57-16.74,15.14-25.11,22.7C214.82,281.13,216.66,282.96,217.89,281.84L217.89,281.84z"/>
				</g>
			</g>
			<g>
				<g>
					<path style="fill:#D7E7FF;" d="M187.05,290.42c17.55-17.11,35.09-34.22,52.64-51.33c1.2-1.17-0.64-3-1.83-1.83
						c-17.55,17.11-35.09,34.22-52.64,51.33C184.02,289.75,185.86,291.59,187.05,290.42L187.05,290.42z"/>
				</g>
			</g>
		</g>
		<g>
			<g>
				<g>
					<g>
						<g>
							<rect x="266.37" y="130.81" style="fill:#415B91;" width="1.13" height="72.44"/>
						</g>
					</g>
					<g>
						<g>
							<path style="fill:#415B91;" d="M271.54,203.25c0,2.54-2.06,4.6-4.6,4.6c-2.54,0-4.6-2.06-4.6-4.6c0-2.54,2.06-4.6,4.6-4.6
								C269.48,198.65,271.54,200.71,271.54,203.25z"/>
						</g>
					</g>
					<g>
						<g>
							<path style="fill:#415B91;" d="M267,218.68c-0.08,0-1.58-0.01-2.67-1.11c-0.73-0.73-1.1-1.74-1.1-3.01
								c0-0.34,0.27-0.61,0.61-0.61c0.34,0,0.61,0.27,0.61,0.61c0,0.93,0.25,1.66,0.74,2.15c0.74,0.73,1.8,0.75,1.81,0.75
								c1.72,0,3.11-1.4,3.11-3.11c0-1.72-1.4-3.11-3.11-3.11c-0.34,0-0.61-0.27-0.61-0.61v-3.38c0-0.34,0.27-0.61,0.61-0.61
								c0.34,0,0.61,0.27,0.61,0.61v2.81c2.1,0.3,3.72,2.11,3.72,4.29C271.33,216.74,269.39,218.68,267,218.68
								C267,218.68,267,218.68,267,218.68z"/>
						</g>
					</g>
				</g>
				<g>
					<g>
						<g>
							<path style="fill:#415B91;" d="M242.86,221.51c-0.23-0.04-0.43-0.23-0.46-0.47c-0.05-0.31,0.17-0.6,0.48-0.64l24.89-3.67
								c0.31-0.05,0.6,0.17,0.64,0.48c0.05,0.31-0.17,0.59-0.48,0.64l-24.89,3.67C242.97,221.52,242.91,221.52,242.86,221.51z"/>
						</g>
					</g>
					<g>
						<g>
							<path style="fill:#415B91;" d="M290.63,229.79c-0.06-0.01-0.11-0.03-0.16-0.06l-22.89-11.95c-0.28-0.14-0.38-0.49-0.24-0.76
								c0.14-0.28,0.48-0.38,0.76-0.24l22.89,11.95c0.28,0.14,0.38,0.49,0.24,0.76C291.11,229.72,290.87,229.83,290.63,229.79z"/>
						</g>
					</g>
					<g>
						<path style="fill:#FFFFFF;" d="M288.76,277.57l-60.96-10.59c-3.19-0.55-5.33-3.59-4.78-6.79l6.1-35.1
							c0.55-3.19,3.59-5.33,6.79-4.78l60.96,10.59c3.19,0.55,5.33,3.59,4.78,6.79l-6.1,35.1C295,275.99,291.96,278.13,288.76,277.57
							z"/>
						<path style="fill:#415B91;" d="M289.6,278.4c-0.39,0-0.78-0.03-1.18-0.1l-60.53-10.52c-1.81-0.31-3.38-1.31-4.44-2.81
							c-1.06-1.5-1.46-3.32-1.15-5.13l6.02-34.67c0.65-3.73,4.21-6.24,7.94-5.59l60.53,10.52c1.81,0.31,3.38,1.31,4.44,2.81
							c1.06,1.5,1.46,3.32,1.15,5.13l-6.02,34.67C295.78,276.05,292.87,278.4,289.6,278.4z M235.09,221.04
							c-2.53,0-4.78,1.82-5.23,4.4l-6.02,34.67c-0.24,1.4,0.07,2.81,0.89,3.96c0.82,1.16,2.04,1.93,3.43,2.18l60.53,10.52
							c2.88,0.51,5.64-1.44,6.14-4.32l6.02-34.67c0.24-1.4-0.07-2.81-0.89-3.96c-0.82-1.16-2.04-1.93-3.43-2.18L236,221.12
							C235.69,221.07,235.39,221.04,235.09,221.04z"/>
					</g>
					<g>
						<path style="fill:#B6D0FB;" d="M288.31,273.77l-58.79-10.21c-2.04-0.35-3.41-2.3-3.05-4.34l5.57-32.05
							c0.35-2.04,2.3-3.41,4.34-3.05l58.79,10.21c2.04,0.35,3.41,2.3,3.05,4.34l-5.57,32.05
							C292.29,272.76,290.35,274.13,288.31,273.77z"/>
						<path style="fill:#405B91;" d="M288.85,274.58c-0.27,0-0.54-0.02-0.81-0.07l-58.51-10.17c-1.23-0.21-2.3-0.89-3.02-1.91
							c-0.72-1.02-1-2.26-0.78-3.49l5.52-31.78c0.44-2.53,2.86-4.24,5.4-3.8l58.51,10.17c2.54,0.44,4.24,2.86,3.8,5.4l-5.52,31.78
							c-0.21,1.23-0.89,2.3-1.91,3.02C290.73,274.29,289.8,274.58,288.85,274.58z M288.3,272.98c0.82,0.14,1.64-0.04,2.32-0.52
							c0.68-0.48,1.13-1.19,1.27-2.01l5.52-31.78c0.29-1.69-0.84-3.3-2.53-3.6l-58.51-10.17c-1.69-0.29-3.3,0.84-3.6,2.53
							l-5.52,31.78c-0.14,0.82,0.04,1.64,0.52,2.32c0.48,0.68,1.19,1.13,2.01,1.27L288.3,272.98z"/>
					</g>
					<g>
						<polygon style="fill:#FFFFFF;" points="260.42,268.93 275.63,254.98 284.05,273.03 						"/>
						<path style="fill:#415B91;" d="M284.94,273.71l-25.65-4.46l16.51-15.13L284.94,273.71z M261.55,268.6l21.61,3.76l-7.7-16.51
							L261.55,268.6z"/>
					</g>
					<g>
						<polygon style="fill:#FFFFFF;" points="230.34,263.7 257.31,238.98 272.24,270.98 						"/>
						<path style="fill:#415B91;" d="M273.13,271.66l-43.91-7.63l28.27-25.91L273.13,271.66z M231.47,263.37l39.87,6.93
							l-14.21-30.45L231.47,263.37z"/>
					</g>
					<g>
						<path style="fill:#FFFFFF;" d="M289.38,243.67c-0.36,2.05-2.31,3.43-4.36,3.07c-2.05-0.36-3.43-2.31-3.07-4.36
							c0.36-2.05,2.31-3.43,4.36-3.07C288.36,239.66,289.73,241.62,289.38,243.67z"/>
						<path style="fill:#415B91;" d="M285.67,247.31c-0.25,0-0.5-0.02-0.74-0.06c-2.33-0.41-3.9-2.63-3.49-4.96
							c0.2-1.13,0.82-2.11,1.76-2.77c0.94-0.66,2.07-0.92,3.2-0.72c1.13,0.2,2.11,0.82,2.77,1.76c0.66,0.94,0.91,2.07,0.72,3.2
							c-0.2,1.13-0.82,2.11-1.76,2.77C287.4,247.05,286.55,247.31,285.67,247.31z M285.65,239.77c-0.66,0-1.31,0.2-1.87,0.59
							c-0.71,0.5-1.18,1.25-1.33,2.1c-0.15,0.86,0.05,1.72,0.54,2.43c0.5,0.71,1.25,1.18,2.1,1.33c0.85,0.15,1.72-0.04,2.43-0.54
							c0.71-0.5,1.18-1.25,1.33-2.1l0,0c0.31-1.77-0.88-3.45-2.65-3.76C286.03,239.79,285.84,239.77,285.65,239.77z"/>
					</g>
				</g>
				<g>
					<g>
						<rect x="257.04" y="128.38" style="fill:#B6D0FB;" width="56.53" height="6.22"/>
					</g>
				</g>
				<g>
					<g>
						<g>
							<g>
								<g>
									<g>
										<path style="fill:#415B91;" d="M362.69,256.98h-18.77V91.06h18.77V256.98z M345.78,255.12h15.05V92.92h-15.05V255.12z"/>
									</g>
								</g>
								<g>
									<g>
										<g>
											<path style="fill:#415B91;" d="M362.46,109.27h-18.3V90.98h18.3V109.27z M346.04,107.39h14.53V92.86h-14.53V107.39z"/>
										</g>
									</g>
									<g>
										<g>
											
												<rect x="352.37" y="88.52" transform="matrix(0.7071 -0.7071 0.7071 0.7071 32.6823 279.153)" style="fill:#415B91;" width="1.88" height="23.21"/>
										</g>
									</g>
									<g>
										<g>
											
												<rect x="341.7" y="99.18" transform="matrix(0.7071 -0.7071 0.7071 0.7071 32.6828 279.1539)" style="fill:#415B91;" width="23.21" height="1.88"/>
										</g>
									</g>
								</g>
								<g>
									<g>
										<g>
											<path style="fill:#415B91;" d="M362.46,125.69h-18.3v-18.29h18.3V125.69z M346.04,123.81h14.53v-14.53h-14.53V123.81z"/>
										</g>
									</g>
									<g>
										<g>
											
												<rect x="352.37" y="104.93" transform="matrix(0.7071 -0.7071 0.7071 0.7071 21.0762 283.9615)" style="fill:#415B91;" width="1.88" height="23.21"/>
										</g>
									</g>
									<g>
										<g>
											
												<rect x="341.7" y="115.6" transform="matrix(0.7071 -0.7071 0.7071 0.7071 21.0762 283.9615)" style="fill:#415B91;" width="23.21" height="1.88"/>
										</g>
									</g>
								</g>
								<g>
									<g>
										<g>
											<path style="fill:#415B91;" d="M362.46,142.1h-18.3v-18.3h18.3V142.1z M346.04,140.22h14.53v-14.53h-14.53V140.22z"/>
										</g>
									</g>
									<g>
										<g>
											
												<rect x="352.37" y="121.35" transform="matrix(0.7071 -0.7071 0.7071 0.7071 9.4686 288.7671)" style="fill:#415B91;" width="1.88" height="23.21"/>
										</g>
									</g>
									<g>
										<g>
											
												<rect x="341.7" y="132.01" transform="matrix(0.7071 -0.7071 0.7071 0.7071 9.4754 288.7821)" style="fill:#415B91;" width="23.21" height="1.88"/>
										</g>
									</g>
								</g>
								<g>
									<g>
										<g>
											<path style="fill:#415B91;" d="M362.46,158.52h-18.3v-18.29h18.3V158.52z M346.04,156.63h14.53V142.1h-14.53V156.63z"/>
										</g>
									</g>
									<g>
										<g>
											
												<rect x="352.37" y="137.76" transform="matrix(0.7071 -0.7071 0.7071 0.7071 -2.1376 293.5757)" style="fill:#415B91;" width="1.88" height="23.21"/>
										</g>
									</g>
									<g>
										<g>
											
												<rect x="341.7" y="148.43" transform="matrix(0.7071 -0.7071 0.7071 0.7071 -2.1371 293.5768)" style="fill:#415B91;" width="23.21" height="1.88"/>
										</g>
									</g>
								</g>
								<g>
									<g>
										<g>
											<path style="fill:#415B91;" d="M362.46,174.93h-18.3v-18.29h18.3V174.93z M346.04,173.05h14.53v-14.53h-14.53V173.05z"/>
										</g>
									</g>
									<g>
										<g>
											
												<rect x="352.37" y="154.18" transform="matrix(0.7071 -0.7071 0.7071 0.7071 -13.7438 298.3845)" style="fill:#415B91;" width="1.88" height="23.21"/>
										</g>
									</g>
									<g>
										<g>
											
												<rect x="341.7" y="164.84" transform="matrix(0.7071 -0.7071 0.7071 0.7071 -13.7388 298.3983)" style="fill:#415B91;" width="23.21" height="1.88"/>
										</g>
									</g>
								</g>
								<g>
									<g>
										<g>
											<path style="fill:#415B91;" d="M362.46,191.34h-18.3v-18.3h18.3V191.34z M346.04,189.46h14.53v-14.53h-14.53V189.46z"/>
										</g>
									</g>
									<g>
										<g>
											
												<rect x="352.37" y="170.59" transform="matrix(0.7071 -0.7071 0.7071 0.7071 -25.3512 303.1898)" style="fill:#415B91;" width="1.88" height="23.21"/>
										</g>
									</g>
									<g>
										<g>
											
												<rect x="341.7" y="181.26" transform="matrix(0.7071 -0.7071 0.7071 0.7071 -25.3459 303.2063)" style="fill:#415B91;" width="23.21" height="1.88"/>
										</g>
									</g>
								</g>
								<g>
									<g>
										<g>
											<path style="fill:#415B91;" d="M362.46,207.76h-18.3v-18.29h18.3V207.76z M346.04,205.88h14.53v-14.53h-14.53V205.88z"/>
										</g>
									</g>
									<g>
										<g>
											
												<rect x="352.37" y="187" transform="matrix(0.7071 -0.7071 0.7071 0.7071 -36.9571 307.9997)" style="fill:#415B91;" width="1.88" height="23.21"/>
										</g>
									</g>
									<g>
										<g>
											
												<rect x="341.7" y="197.67" transform="matrix(0.7071 -0.7071 0.7071 0.7071 -36.953 308.0144)" style="fill:#415B91;" width="23.21" height="1.88"/>
										</g>
									</g>
								</g>
								<g>
									<g>
										<g>
											<path style="fill:#415B91;" d="M362.46,224.17h-18.3v-18.29h18.3V224.17z M346.04,222.29h14.53v-14.53h-14.53V222.29z"/>
										</g>
									</g>
									<g>
										<g>
											
												<rect x="352.37" y="203.42" transform="matrix(0.7071 -0.7071 0.7071 0.7071 -48.564 312.8061)" style="fill:#415B91;" width="1.88" height="23.21"/>
										</g>
									</g>
									<g>
										<g>
											
												<rect x="341.7" y="214.08" transform="matrix(0.7071 -0.7071 0.7071 0.7071 -48.5601 312.8225)" style="fill:#415B91;" width="23.21" height="1.88"/>
										</g>
									</g>
								</g>
								<g>
									<g>
										<g>
											<path style="fill:#415B91;" d="M362.46,240.59h-18.3v-18.29h18.3V240.59z M346.04,238.71h14.53v-14.53h-14.53V238.71z"/>
										</g>
									</g>
									<g>
										<g>
											
												<rect x="352.37" y="219.83" transform="matrix(0.7071 -0.7071 0.7071 0.7071 -60.1704 317.615)" style="fill:#415B91;" width="1.88" height="23.21"/>
										</g>
									</g>
									<g>
										<g>
											
												<rect x="341.7" y="230.5" transform="matrix(0.7071 -0.7071 0.7071 0.7071 -60.1671 317.6305)" style="fill:#415B91;" width="23.21" height="1.88"/>
										</g>
									</g>
								</g>
								<g>
									<g>
										<g>
											<path style="fill:#415B91;" d="M362.46,257h-18.3v-18.29h18.3V257z M346.04,255.12h14.53v-14.53h-14.53V255.12z"/>
										</g>
									</g>
									<g>
										<g>
											
												<rect x="352.37" y="236.25" transform="matrix(0.7071 -0.7071 0.7071 0.7071 -71.7776 322.4187)" style="fill:#415B91;" width="1.88" height="23.21"/>
										</g>
									</g>
									<g>
										<g>
											
												<rect x="341.7" y="246.91" transform="matrix(0.7072 -0.707 0.707 0.7072 -71.791 322.3427)" style="fill:#415B91;" width="23.21" height="1.88"/>
										</g>
									</g>
								</g>
							</g>
							<g>
								<g>
									<g>
										<g>
											<path style="fill:#415B91;" d="M395.12,125.44h-18.29v-18.3h18.29V125.44z M378.7,123.56h14.53v-14.53H378.7V123.56z"/>
										</g>
									</g>
									<g>
										<g>
											
												<rect x="374.36" y="115.35" transform="matrix(0.707 -0.7072 0.7072 0.707 30.8533 307.0509)" style="fill:#415B91;" width="23.21" height="1.88"/>
										</g>
									</g>
									<g>
										<g>
											
												<rect x="385.03" y="104.69" transform="matrix(0.7071 -0.7071 0.7071 0.7071 30.8168 306.983)" style="fill:#415B91;" width="1.88" height="23.21"/>
										</g>
									</g>
								</g>
								<g>
									<g>
										<g>
											<path style="fill:#415B91;" d="M378.7,125.44h-18.29v-18.3h18.29V125.44z M362.29,123.56h14.53v-14.53h-14.53V123.56z"/>
										</g>
									</g>
									<g>
										<g>
											
												<rect x="357.95" y="115.35" transform="matrix(0.707 -0.7072 0.7072 0.707 26.0435 295.4421)" style="fill:#415B91;" width="23.21" height="1.88"/>
										</g>
									</g>
									<g>
										<g>
											
												<rect x="368.62" y="104.69" transform="matrix(0.7071 -0.7071 0.7071 0.7071 26.0087 295.3754)" style="fill:#415B91;" width="1.88" height="23.21"/>
										</g>
									</g>
								</g>
								<g>
									<g>
										<path style="fill:#415B91;" d="M362.29,125.44H344v-18.3h18.29V125.44z M345.88,123.56h14.53v-14.53h-14.53V123.56z"/>
									</g>
								</g>
								<g>
									<g>
										<g>
											<path style="fill:#415B91;" d="M345.88,125.44h-18.29v-18.3h18.29V125.44z M329.46,123.56H344v-14.53h-14.53V123.56z"/>
										</g>
									</g>
									<g>
										<g>
											
												<rect x="325.12" y="115.35" transform="matrix(0.7071 -0.7071 0.7071 0.7071 16.3945 272.1641)" style="fill:#415B91;" width="23.21" height="1.88"/>
										</g>
									</g>
									<g>
										<g>
											
												<rect x="335.79" y="104.69" transform="matrix(0.7071 -0.7071 0.7071 0.7071 16.3936 272.1622)" style="fill:#415B91;" width="1.88" height="23.21"/>
										</g>
									</g>
								</g>
								<g>
									<g>
										<g>
											<path style="fill:#415B91;" d="M329.46,125.44h-18.29v-18.3h18.29V125.44z M313.05,123.56h14.53v-14.53h-14.53V123.56z"
												/>
										</g>
									</g>
									<g>
										<g>
											
												<rect x="308.71" y="115.35" transform="matrix(0.7071 -0.7071 0.7071 0.7071 11.5864 260.5565)" style="fill:#415B91;" width="23.21" height="1.88"/>
										</g>
									</g>
									<g>
										<g>
											
												<rect x="319.37" y="104.69" transform="matrix(0.7071 -0.7071 0.7071 0.7071 11.5873 260.5583)" style="fill:#415B91;" width="1.88" height="23.21"/>
										</g>
									</g>
								</g>
								<g>
									<g>
										<g>
											<path style="fill:#415B91;" d="M313.05,125.44h-18.29v-18.3h18.29V125.44z M296.63,123.56h14.53v-14.53h-14.53V123.56z"
												/>
										</g>
									</g>
									<g>
										<g>
											<path style="fill:#415B91;" d="M295.69,125.44h-16.41c-0.38,0-0.72-0.23-0.87-0.58c-0.15-0.35-0.06-0.76,0.2-1.02
												l16.41-16.41l1.33,1.33l-14.81,14.81h13.75l16.14-16.14l1.33,1.33l-16.41,16.41
												C296.18,125.34,295.94,125.44,295.69,125.44z"/>
										</g>
									</g>
									<g>
										<g>
											
												<rect x="302.96" y="104.69" transform="matrix(0.7071 -0.7071 0.7071 0.7071 6.7784 248.949)" style="fill:#415B91;" width="1.88" height="23.21"/>
										</g>
									</g>
								</g>
							</g>
						</g>
						<g>
							<g>
								<g>
									<path style="fill:#415B91;" d="M362.73,275.28h-18.81v-18.29h18.81V275.28z M345.86,273.39h14.94v-14.53h-14.94V273.39z"/>
								</g>
							</g>
							<g>
								<g>
									<polygon style="fill:#415B91;" points="361.08,275 344.21,258.59 345.58,257.26 362.45,273.67 									"/>
								</g>
							</g>
							<g>
								<g>
									<polygon style="fill:#415B91;" points="345.58,275 344.21,273.67 361.08,257.26 362.45,258.59 									"/>
								</g>
							</g>
						</g>
						<g>
							<g>
								<g>
									<path style="fill:#415B91;" d="M362.73,340.93h-18.81v-18.29h18.81V340.93z M345.86,339.05h14.94v-14.53h-14.94V339.05z"/>
								</g>
							</g>
							<g>
								<g>
									<polygon style="fill:#415B91;" points="361.08,340.66 344.21,324.24 345.58,322.91 362.45,339.33 									"/>
								</g>
							</g>
							<g>
								<g>
									<polygon style="fill:#415B91;" points="345.58,340.66 344.21,339.33 361.08,322.91 362.45,324.24 									"/>
								</g>
							</g>
						</g>
					</g>
					<g>
						<g>
							<g>
								<path style="fill:#415B91;" d="M362.73,290.13h-18.81v-18.29h18.81V290.13z M345.86,288.25h14.94v-14.53h-14.94V288.25z"/>
							</g>
						</g>
						<g>
							<g>
								<polygon style="fill:#415B91;" points="361.08,289.86 344.21,273.44 345.58,272.11 362.45,288.53 								"/>
							</g>
						</g>
						<g>
							<g>
								<polygon style="fill:#415B91;" points="345.58,289.86 344.21,288.53 361.08,272.11 362.45,273.44 								"/>
							</g>
						</g>
					</g>
					<g>
						<g>
							<g>
								<path style="fill:#415B91;" d="M362.73,306.55h-18.81v-18.29h18.81V306.55z M345.86,304.67h14.94v-14.53h-14.94V304.67z"/>
							</g>
						</g>
						<g>
							<g>
								<polygon style="fill:#415B91;" points="361.08,306.27 344.21,289.86 345.58,288.53 362.45,304.94 								"/>
							</g>
						</g>
						<g>
							<g>
								<polygon style="fill:#415B91;" points="345.58,306.27 344.21,304.94 361.08,288.53 362.45,289.86 								"/>
							</g>
						</g>
					</g>
					<g>
						<g>
							<g>
								<path style="fill:#415B91;" d="M362.73,322.96h-18.81v-18.29h18.81V322.96z M345.86,321.08h14.94v-14.53h-14.94V321.08z"/>
							</g>
						</g>
						<g>
							<g>
								<polygon style="fill:#415B91;" points="361.08,322.69 344.21,306.27 345.58,304.94 362.45,321.36 								"/>
							</g>
						</g>
						<g>
							<g>
								<polygon style="fill:#415B91;" points="345.58,322.69 344.21,321.36 361.08,304.94 362.45,306.27 								"/>
							</g>
						</g>
					</g>
				</g>
			</g>
		</g>
		<g>
			<g>
				<path style="fill:#405B91;" d="M152.86,190.53c2,0,2.01-3.11,0-3.11C150.86,187.42,150.86,190.53,152.86,190.53L152.86,190.53z"
					/>
			</g>
		</g>
		<g>
			<g>
				<path style="fill:#405B91;" d="M321.56,158.04c2,0,2.01-3.11,0-3.11C319.56,154.93,319.55,158.04,321.56,158.04L321.56,158.04z"
					/>
			</g>
		</g>
		<g>
			<g>
				<path style="fill:#405B91;" d="M391.39,269.35c0.23,0,0.46,0,0.69,0c0.81,0,1.59-0.72,1.56-1.56c-0.04-0.84-0.68-1.56-1.56-1.56
					c-0.23,0-0.46,0-0.69,0c-0.81,0-1.59,0.72-1.56,1.56C389.87,268.64,390.52,269.35,391.39,269.35L391.39,269.35z"/>
			</g>
		</g>
		<g>
			<g>
				<path style="fill:#405B91;" d="M91.33,292.17c2,0,2.01-3.11,0-3.11C89.33,289.05,89.32,292.17,91.33,292.17L91.33,292.17z"/>
			</g>
		</g>
		<g>
			<g>
				<path style="fill:#405B91;" d="M239.97,142.83c2,0,2.01-3.11,0-3.11C237.97,139.72,237.97,142.83,239.97,142.83L239.97,142.83z"
					/>
			</g>
		</g>
	</g>
	<text transform="matrix(1 0 0 1 98.3942 392.3422)" style="fill:#4F4F4F; font-family:'Poppins-SemiBold'; font-size:16px;">This page currently under processing !</text>
	<text transform="matrix(1 0 0 1 157.6315 411.2461)" style="fill:#4F4F4F; font-family:'Poppins-Medium'; font-size:10px;">We are creating something amazing</text>
</g>
<g id="DESIGNED_BY_FREEPIK">
</g>
</svg>
