<svg width="167" height="116" viewBox="0 0 167 116" fill="none" xmlns="http://www.w3.org/2000/svg">
<path d="M164.062 116H11.7905C10.1685 116 8.85645 114.688 8.85645 113.066C8.85645 111.444 10.1685 110.132 11.7905 110.132H164.066C165.688 110.132 167 111.444 167 113.066C167 114.688 165.684 116 164.062 116Z" fill="#FF7129"/>
<path d="M149.415 80.7991H53.701C49.0303 80.7991 45.2432 77.012 45.2432 72.3412V8.45786C45.2432 3.7871 49.0303 0 53.701 0H149.415C154.086 0 157.873 3.7871 157.873 8.45786V72.3412C157.873 77.0158 154.086 80.7991 149.415 80.7991Z" fill="#F5F5F5"/>
<path opacity="0.5" d="M157.873 12.2834H45.2432V8.46184C45.2432 3.79108 49.0303 0.00398254 53.701 0.00398254H149.415C154.086 0.00398254 157.873 3.79108 157.873 8.46184V12.2834Z" fill="#D6D6D6"/>
<path d="M139.025 7.99883H72.3987C71.3736 7.99883 70.5435 7.16872 70.5435 6.14353C70.5435 5.11833 71.3736 4.28823 72.3987 4.28823H139.029C140.054 4.28823 140.884 5.11833 140.884 6.14353C140.88 7.16872 140.05 7.99883 139.025 7.99883Z" fill="#F5F5F5"/>
<path d="M53.33 6.14351C53.33 6.98126 52.6529 7.65834 51.8151 7.65834C50.9774 7.65834 50.3003 6.98126 50.3003 6.14351C50.3003 5.30575 50.9774 4.62867 51.8151 4.62867C52.6529 4.62867 53.33 5.30575 53.33 6.14351Z" fill="#F5F5F5"/>
<path d="M58.9872 6.14351C58.9872 6.98126 58.3101 7.65834 57.4724 7.65834C56.6346 7.65834 55.9575 6.98126 55.9575 6.14351C55.9575 5.30575 56.6346 4.62867 57.4724 4.62867C58.3063 4.62867 58.9872 5.30575 58.9872 6.14351Z" fill="#F5F5F5"/>
<path d="M64.5492 6.14351C64.5492 6.98126 63.8721 7.65834 63.0344 7.65834C62.1966 7.65834 61.5195 6.98126 61.5195 6.14351C61.5195 5.30575 62.1966 4.62867 63.0344 4.62867C63.8683 4.62867 64.5492 5.30575 64.5492 6.14351Z" fill="#F5F5F5"/>
<path d="M109.597 29.9716L100.072 39.4929L90.5509 29.9716L84.8052 35.7173L94.3265 45.2386L84.8052 54.7637L90.5509 60.5094L100.072 50.9881L109.597 60.5094L115.343 54.7637L105.822 45.2386L115.343 35.7173L109.597 29.9716Z" fill="#AB4242"/>
<path d="M139.607 110.132H100.604L103.683 66.0103C103.867 63.3784 106.15 61.2439 108.782 61.2439H138.253C140.884 61.2439 142.87 63.3784 142.686 66.0103L139.607 110.132Z" fill="#375D7A"/>
<path d="M133.869 110.132H94.8657L97.9451 66.0103C98.1288 63.3784 100.412 61.2439 103.044 61.2439H132.515C135.147 61.2439 137.132 63.3784 136.948 66.0103L133.869 110.132Z" fill="#557189"/>
<path d="M118.062 61.2439C119.516 62.5981 120.09 63.8872 120.33 64.8665C120.82 66.8672 120.403 69.5487 120.399 69.5717C121.153 70.4668 122.109 71.668 123.142 73.1484C123.142 73.1484 125.445 76.4611 127.067 79.9001C129.091 84.1845 132.369 91.1275 130.839 98.5181C129.664 104.18 125.663 110.136 125.663 110.136H103.472L106.192 61.2401L118.062 61.2439Z" fill="#1282D6"/>
<path d="M76.5383 33.5636C76.6492 33.2155 78.4319 27.7261 82.6244 25.8555C84.6327 24.9604 86.8935 24.8763 86.8935 24.8763C87.1269 24.8686 88.0909 24.838 89.3953 25.0522C89.3953 25.0522 92.3982 25.4156 94.5863 26.9687C98.4385 29.7 100.669 36.5359 100.259 42.4844C100.114 44.5998 99.6128 46.7688 100.986 48.3945C101.728 49.2705 102.956 49.5613 104.704 50.0968C108.331 51.2062 114.295 52.6101 116.693 57.4644C119.092 62.3188 119.382 69.1585 117.802 71.033C116.223 72.9036 78.5428 72.7276 77.2077 71.2663C75.8727 69.805 73.4168 62.7281 73.1261 57.1163C72.866 52.1242 76.3623 50.0586 77.2077 43.9074C77.7968 39.623 77.1618 35.9698 76.5383 33.5636Z" fill="#262626"/>
<path d="M98.0366 33.0204C98.7596 34.4282 99.7963 36.7004 100.55 39.6421C101.743 44.2899 100.802 45.0282 101.896 46.8185C104.325 50.793 109.601 48.3639 114.642 52.9008C117.473 55.4447 118.453 58.5776 118.782 59.6831C120.216 64.4801 118.877 68.5962 118.311 70.0804" stroke="#262626" stroke-width="0.382535" stroke-miterlimit="10" stroke-linecap="round" stroke-linejoin="round"/>
<path d="M77.9188 42.3199C77.2111 43.9112 76.075 46.4321 74.5869 49.5115C71.8671 55.1386 71.1097 56.16 71.3162 58.1645C71.672 61.6379 74.6367 65.2796 74.6367 65.2796" stroke="#262626" stroke-width="0.382535" stroke-miterlimit="10" stroke-linecap="round" stroke-linejoin="round"/>
<path d="M83.6834 54.5189C83.6834 54.5189 93.3539 54.5189 93.396 54.5189C101.077 54.5189 109.489 60.016 114.539 65.3867C118.578 69.6826 121.535 74.9042 123.781 80.3592C126.703 87.4629 129.565 97.3055 125.992 104.658C125.46 105.756 124.247 108.162 121.685 109.462C118.861 110.893 115.912 110.04 114.998 110.04C109.034 110.04 56.1715 110.055 56.1715 110.055C54.7599 96.3224 57.4798 85.9786 59.446 80.3324C61.2707 75.0878 63.4091 69.1662 68.9826 63.5429C74.3152 58.1568 80.2024 55.6742 83.6834 54.5189Z" fill="#FEC02D"/>
<path d="M83.2399 54.5189L76.4576 110.289L72.0737 110.254L78.8637 56.2595L83.2399 54.5189Z" fill="#EAA418"/>
<path d="M88.5189 58.6235C91.2387 58.635 93.4536 56.4354 93.4651 53.7156L93.5072 43.1155L83.6569 43.0772L83.6148 53.6773C83.6033 56.4009 85.7991 58.6158 88.5189 58.6235Z" fill="#F7A99C"/>
<path d="M83.6262 50.7127L90.0413 47.4152C89.9763 47.9699 89.6129 50.5711 87.3215 52.3691C85.8602 53.5167 84.3263 53.7768 83.6147 53.8533L83.6262 50.7127Z" fill="#FF7769"/>
<path d="M93.7447 39.8334C93.7753 39.6727 94.1961 39.4317 94.3261 39.3475C94.5442 39.206 94.7813 39.0951 95.03 39.0147C95.512 38.8617 96.0399 38.8235 96.5333 38.9382C97.5165 39.1639 98.3848 39.9902 98.5493 41.0001C98.6449 41.5854 98.5072 42.1936 98.2586 42.733C97.8799 43.544 97.2372 44.2249 96.4645 44.6686C95.8218 45.0397 95.0912 45.2462 94.3529 45.2921C94.2037 45.2998 92.6927 45.2654 92.7042 45.208C93.0484 43.4177 93.3966 41.6275 93.7447 39.8334Z" fill="#F7A99C"/>
<path d="M95.0942 39.9367C94.9794 40.7285 94.2832 44.8981 90.5229 47.8475C89.8305 48.3907 85.2248 51.998 81.0131 50.2383C75.6002 47.9737 76.1893 39.0836 76.2276 38.6016C76.3576 36.972 76.7363 32.1788 80.707 29.6197C83.9471 27.531 87.4588 28.2999 87.9561 28.4147C88.4802 28.5371 91.8235 29.3825 93.8701 32.6608C95.7292 35.6331 95.2855 38.6437 95.0942 39.9367Z" fill="#F7A99C"/>
<path d="M79.2999 38.6054C79.2119 39.2978 78.6764 39.8027 78.1026 39.7339C77.5288 39.665 77.1348 39.0415 77.2227 38.3453C77.3107 37.6529 77.8463 37.1479 78.4201 37.2168C78.9939 37.2895 79.3879 37.913 79.2999 38.6054Z" fill="#262626"/>
<path d="M85.5543 39.3896C85.4663 40.082 84.9308 40.587 84.357 40.5181C83.7832 40.4454 83.3891 39.8257 83.4771 39.1295C83.5651 38.4371 84.1007 37.9322 84.6745 38.001C85.2483 38.0775 85.6423 38.6972 85.5543 39.3896Z" fill="#262626"/>
<path d="M81.1897 39.6459L80.2295 40.9427C80.0535 41.1799 80.1186 41.5203 80.371 41.6734L81.2509 42.2089" stroke="#262626" stroke-width="0.515581" stroke-miterlimit="10" stroke-linecap="round" stroke-linejoin="round"/>
<path d="M87.6546 42.6603C87.5552 43.4407 86.8475 43.9915 86.0671 43.8921C85.2867 43.7926 84.7359 43.0849 84.8353 42.3045C84.9348 41.5242 85.6425 40.9733 86.4228 41.0728C87.1994 41.1722 87.7502 41.8837 87.6546 42.6603Z" fill="#FF7769"/>
<path d="M94.4065 43.3947C94.4026 43.2379 94.3873 42.1821 95.2365 41.417C95.9022 40.8203 96.6749 40.7782 96.8853 40.7782" stroke="#262626" stroke-width="0.515581" stroke-miterlimit="10" stroke-linecap="round" stroke-linejoin="round"/>
<path d="M95.1528 41.6275C95.1987 41.6198 95.7687 41.5395 96.1665 41.9717C96.4917 42.3237 96.4649 42.7636 96.4573 42.8363" stroke="#262626" stroke-width="0.515581" stroke-miterlimit="10" stroke-linecap="round" stroke-linejoin="round"/>
<path d="M76.9624 40.4148C76.6946 40.3804 76.4345 40.4301 76.2012 40.5334C76.2279 41.2985 76.3006 42.2204 76.4689 43.2035C76.5148 43.215 76.5569 43.2303 76.6067 43.2341C77.387 43.3336 78.0947 42.7789 78.1942 42.0023C78.2936 41.222 77.7428 40.5105 76.9624 40.4148Z" fill="#FF7769"/>
<path d="M79.8853 44.8025C80.0497 44.6036 80.5585 44.0374 81.4422 43.8155C82.4406 43.5669 83.2439 43.9303 83.4581 44.0336" stroke="#262626" stroke-width="0.515581" stroke-miterlimit="10" stroke-linecap="round" stroke-linejoin="round"/>
<path d="M75.7847 36.1496H81.9817C81.9817 36.1496 82.2151 34.1336 82.831 33.139C83.4468 32.1444 84.3802 31.5324 84.3802 31.5324C84.2387 31.8881 84.078 32.3586 83.9556 32.9286C83.8676 33.3341 83.7529 33.8735 83.7567 34.5735C83.7567 34.5735 83.7605 34.8375 83.9097 36.1534H89.2882C89.1658 35.8244 88.898 34.9905 89.1275 33.9615C89.3264 33.0625 89.8008 32.4696 90.0341 32.2056C89.8505 33.8199 90.0571 35.1053 90.2522 35.9201C90.5926 37.3354 91.1588 38.3798 91.5834 39.1601C91.9889 39.9061 92.3905 40.5067 92.6966 40.9313C92.6966 40.9313 93.4272 40.0094 94.0201 39.6498C94.6131 39.2902 95.2175 38.9689 95.2175 38.9689C95.3514 38.265 95.4738 37.1939 95.2863 35.9201C94.8961 33.3035 93.4463 31.5936 92.8381 30.9586C90.7801 28.7934 88.3165 28.3076 87.4214 28.1431C85.5087 27.795 83.9747 28.0857 83.4468 28.2005C83.0337 28.2923 82.0735 28.5295 80.9527 29.1147C80.1762 29.5202 77.9804 30.6984 76.676 33.2806C76.3699 33.8888 75.9645 34.8604 75.7847 36.1496Z" fill="#262626"/>
<path d="M82.3711 54.9818C82.3711 54.9818 76.3691 79.5673 75.6691 87.8148C74.9691 96.0584 74.7051 110.289 74.7051 110.289L56.1674 110.052C55.7887 107.389 55.4521 103.766 55.5822 99.4821C55.8882 89.4597 58.5659 82.0079 59.6179 79.3072C62.0967 72.9533 65.0882 65.2758 72.8613 59.6602C76.4571 57.0589 79.9535 55.7124 82.3711 54.9818Z" fill="#666666"/>
<path d="M70.1424 70.5051L62.4229 110.132H67.0439L70.1424 70.5051Z" fill="#939393"/>
<path d="M71.4885 63.4282C71.0639 65.8113 70.4021 69.7974 69.8092 74.7742C69.0824 80.8718 69.1933 82.333 67.9998 97.9175C67.6402 102.588 67.0435 110.132 67.0435 110.132" stroke="#262626" stroke-width="0.382535" stroke-miterlimit="10" stroke-linecap="round" stroke-linejoin="round"/>
<path d="M88.3202 101.28C89.0203 102.007 89.4258 102.703 89.6591 103.189C90.3897 104.708 90.4165 106.15 90.4356 107.171C90.4471 107.779 90.4127 108.284 90.3783 108.632C90.3783 108.632 81.316 105.71 79.9695 105.825C78.7836 105.928 72.8773 107.439 71.4887 107.795C71.2974 107.844 71.0947 107.841 70.9034 107.779L68.9142 107.167L67.0398 107.248C66.3665 107.274 65.9037 106.586 66.1791 105.974C66.2479 105.821 66.3397 105.652 66.4583 105.473C67.277 104.245 68.0956 103.369 68.0956 103.369L65.0889 103.912C64.7981 103.912 64.32 103.874 64.1555 103.579C63.9106 103.143 64.5112 102.409 64.9205 101.915C65.8731 100.771 66.9135 100.155 67.2464 99.9641C68.4207 99.2832 69.5148 98.6482 71.3089 98.1088C72.7243 97.6842 76.6185 96.4448 81.4116 97.6612C84.5561 98.4569 86.8628 100.033 88.3202 101.28Z" fill="#F7A99C"/>
<path d="M87.8419 100.882C87.8802 101.188 88.0906 103.055 86.7479 104.654C85.2522 106.433 83.0794 106.391 82.8154 106.379L90.3743 108.629C90.3743 108.629 90.4317 105.924 90.2978 105.258C90.1639 104.593 89.6972 103.059 89.2191 102.401C88.7371 101.751 87.8419 100.882 87.8419 100.882Z" fill="#FF7769"/>
<path d="M68.9141 107.171C69.7824 106.219 71.2858 104.811 73.5083 103.701C75.6046 102.653 77.5173 102.286 78.7682 102.145" stroke="#262626" stroke-width="0.382535" stroke-miterlimit="10" stroke-linecap="round" stroke-linejoin="round"/>
<path d="M67.0396 107.251C68.409 104.914 69.9277 103.698 71.0485 103.021C71.0485 103.021 71.8748 102.519 76.2242 100.886" stroke="#262626" stroke-width="0.382535" stroke-miterlimit="10" stroke-linecap="round" stroke-linejoin="round"/>
<path d="M67.9575 103.395C69.0592 101.77 70.2107 101.012 71.0484 100.622C72.5326 99.9297 74.7896 99.5701 74.7896 99.5701" stroke="#262626" stroke-width="0.382535" stroke-miterlimit="10" stroke-linecap="round" stroke-linejoin="round"/>
<path d="M94.4061 54.5189C94.4061 54.5189 92.5125 68.6039 92.2485 77.0235C91.9846 85.4431 91.7168 99.8302 91.7168 99.8302L88.3237 101.276C88.3237 101.276 89.9419 106.058 90.0451 107.546C90.1446 109.038 90.0451 110.285 90.0451 110.285C95.0066 110.189 99.0385 110.312 101.812 110.442C104.168 110.553 107.684 110.576 114.707 110.618C117.205 110.633 119.317 110.622 121.685 109.459C121.964 109.321 124.343 108.12 126.111 105.706C127.254 104.145 129.045 100.832 128.039 92.6347C127.614 89.1843 126.145 78.393 117.775 68.164C112.993 62.3188 108.273 59.4842 106.961 58.7306C102.979 56.4431 99.4785 55.5097 98.7516 55.3222C97.0149 54.8747 95.5154 54.6452 94.4061 54.5189Z" fill="#666666"/>
<path d="M105.794 81.4418C105.886 83.6452 105.733 87.6006 103.71 91.8811C102.627 94.1687 101.307 95.9092 100.202 97.141C102.619 96.5175 105.037 95.8939 107.455 95.2742L105.794 81.4418Z" fill="#939393"/>
<path d="M115.694 93.4266C115.694 93.4266 94.5207 98.6329 91.7129 99.8302C88.9013 101.028 88.3198 101.276 88.3198 101.276" stroke="#262626" stroke-width="0.382535" stroke-miterlimit="10" stroke-linecap="round" stroke-linejoin="round"/>
<path d="M117.332 71.4997C117.332 71.4997 127.741 91.0893 124.642 99.0996C124.168 100.324 123.12 102.975 120.503 104.899C118.047 106.704 115.4 106.987 110.84 107.11C106.854 107.217 101.548 107.194 95.2251 106.701" stroke="white" stroke-width="0.382535" stroke-miterlimit="10" stroke-linecap="round" stroke-linejoin="round"/>
<path d="M114.286 64.3692C109.99 66.0715 107.99 68.3629 106.98 69.9198C106.98 69.9198 103.877 74.6977 107.699 95.4272" stroke="#262626" stroke-width="0.382535" stroke-miterlimit="10" stroke-linecap="round" stroke-linejoin="round"/>
<path d="M89.2883 110.622H60.8735V107.217H90.7534V109.153C90.7572 109.967 90.0992 110.622 89.2883 110.622Z" fill="#414FA9"/>
<path d="M63.9826 110.622H24.7727C23.8776 110.622 23.0628 109.895 22.9519 109L19.3904 79.8772C19.2795 78.982 19.9183 78.2552 20.8135 78.2552H60.0234C60.9185 78.2552 61.7333 78.982 61.8442 79.8772L65.4056 109C65.5166 109.895 64.8777 110.622 63.9826 110.622Z" fill="#414FA9"/>
<path d="M61.6882 110.622H22.4783C21.5832 110.622 20.7684 109.895 20.6574 109L17.096 79.8772C16.9851 78.982 17.6239 78.2552 18.519 78.2552H57.7289C58.6241 78.2552 59.4389 78.982 59.5498 79.8772L63.1112 109C63.2221 109.895 62.5833 110.622 61.6882 110.622Z" fill="#44487E"/>
<path d="M17.0998 79.8772C17.3829 79.8007 18.4234 88.8782 24.3565 97.053C25.3817 98.4684 27.2332 100.978 30.3814 103.426C30.3814 103.426 33.5794 105.916 45.4992 110.622C44.8566 110.622 44.2139 110.622 43.5712 110.622C41.9914 110.622 40.4115 110.622 38.8316 110.622C36.831 110.622 34.8303 110.622 32.8296 110.622C30.9284 110.622 29.0272 110.622 27.1222 110.622C26.1008 110.622 25.0795 110.622 24.0619 110.622C23.2471 110.622 22.2372 110.801 21.5104 110.35C20.9098 109.975 20.6459 109.233 20.5617 108.529C20.5005 108.032 20.5082 107.527 20.4508 107.03C20.3934 106.536 20.3016 106.046 20.2404 105.553C20.1103 104.474 19.9765 103.399 19.8464 102.32C19.6322 100.557 19.4141 98.7974 19.1999 97.0339C18.9666 95.1327 18.737 93.2315 18.5037 91.3341C18.2895 89.5706 18.0714 87.8033 17.8572 86.0398C17.6927 84.6856 17.5512 83.3276 17.3599 81.9773C17.138 80.428 17.0309 79.8963 17.0998 79.8772Z" fill="#4F5688"/>
<path d="M18.5225 78.2552H57.7323C58.6275 78.2552 59.4423 78.982 59.5532 79.8772L63.1146 109" stroke="#262626" stroke-width="0.382535" stroke-miterlimit="10" stroke-linecap="round" stroke-linejoin="round"/>
<path d="M41.2415 93.6293C41.2415 94.8764 40.2316 95.8863 38.9845 95.8863C37.7374 95.8863 36.7275 94.8764 36.7275 93.6293C36.7275 92.3822 37.7374 91.3723 38.9845 91.3723C40.2277 91.3685 41.2415 92.3822 41.2415 93.6293Z" fill="#FEC02D"/>
<path d="M124.937 63.8987H129.29C131.203 63.8987 132.71 65.5244 132.565 67.4295L131.237 85.1255" stroke="white" stroke-width="0.382535" stroke-miterlimit="10" stroke-linecap="round" stroke-linejoin="round"/>
<path d="M50.4379 84.3911H5.16099C2.94993 84.3911 1.15967 82.6008 1.15967 80.3898V50.1695C1.15967 47.9584 2.94993 46.1682 5.16099 46.1682H50.4379C52.6489 46.1682 54.4392 47.9584 54.4392 50.1695V80.3898C54.4392 82.6008 52.6489 84.3911 50.4379 84.3911Z" fill="#F5F5F5"/>
<path opacity="0.5" d="M54.4392 51.9789H1.15967V50.1695C1.15967 47.9584 2.94993 46.1682 5.16099 46.1682H50.4379C52.6489 46.1682 54.4392 47.9584 54.4392 50.1695V51.9789Z" fill="#D6D6D6"/>
<path d="M45.5225 49.9515H14.0054C13.5196 49.9515 13.1294 49.5574 13.1294 49.0755C13.1294 48.5896 13.5234 48.1994 14.0054 48.1994H45.5225C46.0083 48.1994 46.3985 48.5935 46.3985 49.0755C46.4023 49.5574 46.0083 49.9515 45.5225 49.9515Z" fill="#F5F5F5"/>
<path d="M4.98488 49.0755C4.98488 49.4695 4.66355 49.7908 4.26954 49.7908C3.87553 49.7908 3.5542 49.4695 3.5542 49.0755C3.5542 48.6814 3.87553 48.3601 4.26954 48.3601C4.66355 48.3563 4.98488 48.6776 4.98488 49.0755Z" fill="#F5F5F5"/>
<path d="M7.65871 49.0755C7.65871 49.4695 7.33738 49.7908 6.94337 49.7908C6.54936 49.7908 6.22803 49.4695 6.22803 49.0755C6.22803 48.6814 6.54936 48.3601 6.94337 48.3601C7.33738 48.3563 7.65871 48.6776 7.65871 49.0755Z" fill="#F5F5F5"/>
<path d="M10.291 49.0755C10.291 49.4695 9.9697 49.7908 9.57569 49.7908C9.18168 49.7908 8.86035 49.4695 8.86035 49.0755C8.86035 48.6814 9.18168 48.3601 9.57569 48.3601C9.9697 48.3563 10.291 48.6776 10.291 49.0755Z" fill="#F5F5F5"/>
<path d="M31.6016 60.3449L27.0953 64.8512L22.5929 60.3449L19.873 63.0648L24.3793 67.5672L19.873 72.0735L22.5929 74.7933L27.0953 70.287L31.6016 74.7933L34.3214 72.0735L29.8151 67.5672L34.3214 63.0648L31.6016 60.3449Z" fill="#AB4242"/>
<path d="M50.4379 84.3911H5.16099C2.94993 84.3911 1.15967 82.6008 1.15967 80.3898V50.1695C1.15967 47.9584 2.94993 46.1682 5.16099 46.1682H50.4379C52.6489 46.1682 54.4392 47.9584 54.4392 50.1695V80.3898C54.4392 82.6008 52.6489 84.3911 50.4379 84.3911Z" stroke="#262626" stroke-width="0.382535" stroke-miterlimit="10" stroke-linecap="round" stroke-linejoin="round"/>
<path d="M69.1094 25.4156L75.0272 27.8715" stroke="#FF7129" stroke-width="0.382535" stroke-miterlimit="10" stroke-linecap="round" stroke-linejoin="round"/>
<path d="M68.8525 18.9393L76.3426 26.0507" stroke="#FF7129" stroke-width="0.382535" stroke-miterlimit="10" stroke-linecap="round" stroke-linejoin="round"/>
<path d="M75.3599 18.8322L78.1179 24.6161" stroke="#FF7129" stroke-width="0.382535" stroke-miterlimit="10" stroke-linecap="round" stroke-linejoin="round"/>
<path d="M147.032 50.6094C147.567 49.2017 148.107 48.1115 148.65 47.3349C149.193 46.5584 149.908 45.931 150.803 45.4528C151.324 45.1583 151.871 44.9441 152.444 44.8064C153.014 44.6686 153.558 44.5003 154.07 44.3014C154.583 44.1025 155.053 43.8347 155.478 43.5057C155.903 43.1768 156.251 42.668 156.515 41.9756C156.958 40.8089 156.951 39.8678 156.484 39.1563C156.017 38.4448 155.344 37.9207 154.46 37.5841C153.194 37.1021 152.192 37.1212 151.446 37.6415C150.7 38.1617 150.042 38.9956 149.468 40.1432L144.855 38.3836C145.303 37.2169 145.895 36.2261 146.641 35.4189C147.387 34.6118 148.24 34.0074 149.197 33.6057C150.153 33.2079 151.197 33.0166 152.322 33.0357C153.447 33.0549 154.606 33.292 155.799 33.7473C158.374 34.7304 160.206 36.031 161.3 37.6491C162.39 39.2672 162.486 41.2564 161.583 43.6167C161.293 44.3817 160.96 45.0168 160.585 45.5332C160.21 46.0458 159.782 46.478 159.292 46.8223C158.806 47.1704 158.255 47.4573 157.651 47.6907C157.043 47.924 156.369 48.1459 155.635 48.3563C154.954 48.5629 154.388 48.7771 153.936 48.9989C153.481 49.2208 153.099 49.4924 152.789 49.8099C152.475 50.1274 152.215 50.487 152.008 50.8848C151.802 51.2827 151.599 51.7456 151.396 52.2696L147.032 50.6094ZM144.254 57.4606L146.041 52.7746L150.868 54.6184L149.082 59.3044L144.254 57.4606Z" fill="#656565"/>
<path d="M22.5048 26.3834C22.1643 25.5074 21.9539 24.7768 21.8774 24.1915C21.8009 23.6062 21.8698 23.0133 22.0802 22.4204C22.1988 22.0646 22.3594 21.7395 22.566 21.4334C22.7726 21.1312 22.9523 20.8252 23.1054 20.5192C23.2584 20.2132 23.3655 19.8918 23.4229 19.5628C23.4802 19.2339 23.4267 18.8513 23.2584 18.4229C22.9753 17.6961 22.5736 17.2676 22.061 17.1337C21.5484 16.9999 21.0167 17.0419 20.4697 17.2562C19.6817 17.5622 19.2265 17.9945 19.104 18.5491C18.9778 19.1038 19.0237 19.7656 19.2379 20.5345L16.3689 21.6553C16.0858 20.9285 15.9443 20.2246 15.952 19.5361C15.9558 18.8513 16.0973 18.2125 16.3727 17.6272C16.6482 17.0419 17.0498 16.5179 17.5777 16.055C18.1056 15.5921 18.7406 15.2172 19.4828 14.9265C21.0856 14.2992 22.4742 14.1308 23.6562 14.4216C24.8382 14.7123 25.7143 15.5921 26.2919 17.0572C26.4793 17.5316 26.5903 17.9677 26.6362 18.3579C26.6782 18.7519 26.6591 19.1306 26.5826 19.494C26.5023 19.8574 26.3722 20.2208 26.1886 20.5842C26.005 20.9476 25.7869 21.3302 25.5383 21.7356C25.3088 22.1144 25.1405 22.451 25.0219 22.7455C24.9071 23.0401 24.8421 23.3232 24.8306 23.6024C24.8191 23.8817 24.8497 24.1533 24.9224 24.4249C24.9951 24.6965 25.0945 24.9948 25.2208 25.32L22.5048 26.3834ZM24.0923 30.7099L22.9524 27.795L25.9553 26.6206L27.0952 29.5355L24.0923 30.7099Z" fill="#656565"/>
<path d="M156.618 110.132H144.415L143.601 97.1372H157.433L156.618 110.132Z" fill="#FEC02D"/>
<path d="M155.777 97.1372H145.257V86.0628C145.257 83.1555 147.614 80.8029 150.517 80.8029C153.424 80.8029 155.777 83.1593 155.777 86.0628V97.1372Z" fill="#608448"/>
<mask id="mask0_2179_922" style="mask-type:luminance" maskUnits="userSpaceOnUse" x="145" y="80" width="11" height="18">
<path d="M155.777 97.1372H145.257V86.0628C145.257 83.1555 147.613 80.8029 150.517 80.8029C153.424 80.8029 155.777 83.1593 155.777 86.0628V97.1372Z" fill="white"/>
</mask>
<g mask="url(#mask0_2179_922)">
<path d="M147.178 82.4058C147.178 83.8785 146.294 83.8785 146.294 85.3513C146.294 86.824 147.178 86.8241 147.178 88.2968C147.178 89.7696 146.294 89.7696 146.294 91.2423C146.294 92.7151 147.178 92.7151 147.178 94.1917C147.178 95.6644 146.294 95.6644 146.294 97.141" stroke="#262626" stroke-width="0.191268" stroke-miterlimit="10" stroke-linecap="round" stroke-linejoin="round"/>
<path d="M149.492 81.021C149.492 82.6315 148.524 82.6315 148.524 84.2419C148.524 85.8524 149.492 85.8524 149.492 87.4667C149.492 89.0772 148.524 89.0772 148.524 90.6877C148.524 92.2981 149.492 92.2981 149.492 93.9124C149.492 95.5229 148.524 95.5229 148.524 97.1372" stroke="#262626" stroke-width="0.191268" stroke-miterlimit="10" stroke-linecap="round" stroke-linejoin="round"/>
<path d="M152.896 81.1549C152.896 82.7539 151.936 82.7539 151.936 84.349C151.936 85.948 152.896 85.948 152.896 87.547C152.896 89.146 151.936 89.146 151.936 90.7412C151.936 92.3402 152.896 92.3402 152.896 93.9392C152.896 95.5382 151.936 95.5382 151.936 97.1372" stroke="#262626" stroke-width="0.191268" stroke-miterlimit="10" stroke-linecap="round" stroke-linejoin="round"/>
<path d="M155.276 83.0828C155.276 84.4867 154.434 84.4867 154.434 85.8945C154.434 87.2984 155.276 87.2984 155.276 88.7061C155.276 90.11 154.434 90.11 154.434 91.5177C154.434 92.9255 155.276 92.9255 155.276 94.3294C155.276 95.7371 154.434 95.7371 154.434 97.141" stroke="#262626" stroke-width="0.191268" stroke-miterlimit="10" stroke-linecap="round" stroke-linejoin="round"/>
</g>
<path d="M157.433 97.1372L156.618 110.128H144.416C146.045 109.684 149.255 108.579 152.261 105.752C155.727 102.493 156.986 98.7783 157.433 97.1372Z" fill="#EAA418"/>
<path d="M156.732 99.2029C156.239 100.435 155.401 102.129 153.99 103.881C152.582 105.629 151.105 106.811 150.011 107.557" stroke="#262626" stroke-width="0.191268" stroke-miterlimit="10" stroke-linecap="round" stroke-linejoin="round"/>
</svg>
