<svg width="189" height="124" viewBox="0 0 189 124" fill="none" xmlns="http://www.w3.org/2000/svg">
<path d="M167.046 0.350763C167.046 0.350763 164.022 -1.97251 159.613 5.33933C155.205 12.6512 153.423 16.9265 153.423 16.9265C153.423 16.9265 152.289 18.4448 151.271 17.3269C150.253 16.2091 148.969 13.1559 147.071 13.5521C145.106 13.9651 144.318 16.0673 144.46 19.2539C144.602 22.4406 144.656 29.4271 144.66 30.0569C144.664 30.6784 144.243 31.5627 143.43 30.912C142.612 30.2613 138.074 24.4177 135.43 26.7368C132.785 29.0559 134.637 37.8651 134.821 38.8286C135.004 39.7963 134.791 40.1884 134.324 40.3886C133.857 40.593 132.514 38.4824 131.154 36.8724C129.795 35.2624 127.934 33.6357 126.52 35.0997C125.106 36.5679 124.226 43.0122 129.64 53.9695L132.481 58.883L138.178 58.9748C150.387 58.4242 155.605 54.5451 156.21 52.5973C156.81 50.6494 154.487 49.811 152.422 49.3939C150.358 48.981 147.863 48.8225 147.813 48.3178C147.763 47.8089 148.005 47.4335 148.94 47.129C149.874 46.8245 158.479 44.1968 159.238 40.7598C159.993 37.3229 152.681 36.1675 151.718 35.7671C150.754 35.3667 151.325 34.5742 151.872 34.278C152.427 33.9735 158.571 30.6492 161.428 29.2352C164.285 27.8213 165.749 26.1153 165.161 24.1966C164.594 22.3447 161.298 22.695 159.83 22.3405C158.362 21.9901 159.142 20.2592 159.142 20.2592C159.142 20.2592 162.024 16.6387 166.299 9.2476C170.575 1.85651 166.984 0.309056 166.984 0.309056" fill="#EAEAEA"/>
<path d="M163.084 6.89514C163.084 6.89514 163.059 6.94937 163 7.05364C162.938 7.16209 162.854 7.31642 162.746 7.51245C162.512 7.92122 162.179 8.50934 161.749 9.26847C160.881 10.7909 159.609 12.989 158.028 15.696C154.867 21.1142 150.437 28.5595 145.515 36.7682C140.593 44.9768 136.147 52.4137 132.956 57.8152C131.367 60.5139 130.078 62.6954 129.186 64.2136C128.743 64.9644 128.397 65.5484 128.16 65.953C128.043 66.1448 127.955 66.295 127.888 66.4034C127.826 66.5035 127.792 66.5536 127.792 66.5536C127.792 66.5536 127.817 66.4994 127.876 66.3951C127.938 66.2866 128.022 66.1323 128.13 65.9363C128.364 65.5275 128.698 64.9394 129.127 64.1803C129.995 62.6578 131.267 60.4597 132.848 57.7527C136.009 52.3345 140.439 44.8892 145.361 36.6806C150.279 28.472 154.729 21.0392 157.916 15.6377C159.505 12.939 160.794 10.7575 161.686 9.23927C162.129 8.48848 162.475 7.90453 162.712 7.49994C162.829 7.30807 162.917 7.15792 162.984 7.04947C163.05 6.94103 163.084 6.89514 163.084 6.89514Z" fill="#A0A0A0"/>
<path d="M148.697 17.8983C148.71 17.8942 148.752 18.036 148.814 18.2904C148.877 18.5449 148.96 18.9203 149.056 19.3791C149.248 20.3009 149.482 21.5855 149.711 23.0037C149.932 24.4052 150.136 25.669 150.287 26.6408C150.358 27.0788 150.42 27.4459 150.47 27.742C150.516 28.0006 150.533 28.1466 150.52 28.1508C150.508 28.1549 150.466 28.0131 150.403 27.7587C150.341 27.5043 150.257 27.1289 150.166 26.6659C149.982 25.7399 149.769 24.4552 149.536 23.0371C149.302 21.6398 149.094 20.3759 148.931 19.4083C148.856 18.9703 148.793 18.6032 148.743 18.3071C148.706 18.0443 148.685 17.8983 148.697 17.8983Z" fill="#A0A0A0"/>
<path d="M151.034 28.2843C151.025 28.2384 153.645 27.6419 156.89 26.9537C160.135 26.2655 162.771 25.7483 162.784 25.7942C162.792 25.84 160.172 26.4365 156.927 27.1247C153.682 27.8171 151.046 28.3343 151.034 28.2843Z" fill="#A0A0A0"/>
<path d="M142.912 40.5513C142.912 40.5388 143.062 40.5429 143.329 40.5638C143.634 40.5847 144.013 40.6139 144.464 40.6472C145.423 40.7181 146.745 40.8099 148.214 40.8558C149.678 40.9058 151.008 40.9058 151.968 40.8975C152.418 40.8933 152.802 40.8933 153.106 40.8891C153.377 40.8891 153.523 40.8933 153.523 40.9058C153.523 40.9183 153.377 40.935 153.106 40.9559C152.839 40.9767 152.447 41.0018 151.968 41.0184C151.004 41.0602 149.673 41.0768 148.205 41.0268C146.737 40.9809 145.411 40.8683 144.451 40.764C143.972 40.7098 143.588 40.6639 143.321 40.6222C143.054 40.593 142.908 40.5638 142.912 40.5513Z" fill="#A0A0A0"/>
<path d="M138.729 31.6211C138.742 31.6169 138.808 31.7337 138.929 31.9548C139.063 32.2092 139.221 32.522 139.413 32.8891C139.813 33.6816 140.36 34.7827 140.948 36.0049C141.54 37.227 142.066 38.3365 142.437 39.1415C142.608 39.521 142.754 39.8422 142.871 40.1008C142.971 40.3302 143.021 40.4595 143.008 40.4637C142.996 40.4679 142.929 40.3511 142.808 40.13C142.675 39.8756 142.516 39.5627 142.324 39.1957C141.924 38.4032 141.378 37.302 140.789 36.0799C140.197 34.8578 139.672 33.7483 139.3 32.9433C139.129 32.5637 138.983 32.2426 138.867 31.984C138.767 31.7546 138.721 31.6253 138.729 31.6211Z" fill="#A0A0A0"/>
<path d="M130.182 41.5357C130.195 41.5315 130.282 41.6817 130.432 41.9653C130.595 42.2781 130.804 42.6785 131.058 43.1624C131.579 44.1759 132.284 45.5816 133.06 47.1374C133.832 48.6932 134.524 50.1113 135.012 51.1374C135.246 51.6296 135.438 52.0384 135.588 52.3595C135.721 52.6515 135.788 52.8142 135.776 52.8183C135.763 52.8225 135.675 52.6723 135.525 52.3887C135.363 52.0759 135.154 51.6755 134.9 51.1916C134.378 50.1781 133.673 48.7724 132.897 47.2166C132.126 45.6608 131.433 44.2468 130.945 43.2166C130.712 42.7244 130.52 42.3157 130.37 41.9945C130.236 41.7067 130.17 41.544 130.182 41.5357Z" fill="#A0A0A0"/>
<path d="M135.717 52.5097C135.717 52.4972 135.909 52.4972 136.247 52.5097C136.618 52.5222 137.106 52.5431 137.69 52.5639C138.908 52.6098 140.593 52.6682 142.454 52.6765C144.314 52.689 145.999 52.6557 147.217 52.6265C147.801 52.6098 148.289 52.5973 148.66 52.5889C149.002 52.5806 149.19 52.5848 149.19 52.5973C149.19 52.6098 149.002 52.6307 148.664 52.6599C148.322 52.6891 147.83 52.7224 147.221 52.7516C146.003 52.8142 144.314 52.8684 142.449 52.8559C140.585 52.8476 138.9 52.7683 137.682 52.6932C137.073 52.6515 136.581 52.614 136.239 52.5806C135.901 52.5472 135.713 52.5222 135.717 52.5097Z" fill="#A0A0A0"/>
<path d="M15.6649 14.3317L13.2666 14.3445L13.8377 120.923L16.2361 120.91L15.6649 14.3317Z" fill="#A0A0A0"/>
<path d="M21.4047 14.2984L19.0063 14.3112L19.5775 120.89L21.9758 120.877L21.4047 14.2984Z" fill="#A0A0A0"/>
<path d="M71.5707 14.0314L69.1724 14.0443L69.7435 120.623L72.1418 120.61L71.5707 14.0314Z" fill="#A0A0A0"/>
<path d="M77.3149 14.0021L74.9165 14.015L75.4857 120.593L77.8841 120.581L77.3149 14.0021Z" fill="#A0A0A0"/>
<path d="M77.313 13.9989L13.2666 14.342L13.2796 16.7738L77.326 16.4307L77.313 13.9989Z" fill="#A0A0A0"/>
<path d="M77.4302 35.8805L13.3838 36.2236L13.3877 36.9494L77.434 36.6063L77.4302 35.8805Z" fill="#A0A0A0"/>
<path d="M77.539 56.5067L13.4927 56.8498L13.4966 57.5756L77.5429 57.2325L77.539 56.5067Z" fill="#A0A0A0"/>
<path d="M77.6518 77.1286L13.6055 77.4717L13.6094 78.1974L77.6557 77.8543L77.6518 77.1286Z" fill="#A0A0A0"/>
<path d="M77.7602 97.7547L13.7139 98.0978L13.7178 98.8236L77.7641 98.4805L77.7602 97.7547Z" fill="#A0A0A0"/>
<path d="M50.9932 85.8623L39.6479 85.9231L39.7124 97.9607L51.0577 97.9L50.9932 85.8623Z" fill="#EBEBEB"/>
<path d="M62.2886 85.7997L50.9434 85.8605L51.0079 97.8982L62.3531 97.8373L62.2886 85.7997Z" fill="#F5F5F5"/>
<path d="M39.6673 89.2148C47.2043 89.2899 54.7664 89.2274 62.3035 89.1064C62.4161 89.1064 62.4161 88.9312 62.3035 88.9312C54.7664 88.8895 47.2043 88.9104 39.6673 89.0647C39.5672 89.0689 39.5713 89.2148 39.6673 89.2148Z" fill="#A0A0A0"/>
<path d="M47.7155 40.5556L39.4067 40.6001L39.4539 49.4135L47.7627 49.369L47.7155 40.5556Z" fill="#EBEBEB"/>
<path d="M55.9865 40.5097L47.6777 40.5542L47.7249 49.3676L56.0337 49.3231L55.9865 40.5097Z" fill="#F5F5F5"/>
<path d="M39.4213 43.0331C44.9437 43.079 50.4787 43.0457 56.0012 42.9581C56.1138 42.9581 56.1138 42.7829 56.0012 42.7829C50.4787 42.7537 44.9437 42.7787 39.4213 42.883C39.3212 42.883 39.3212 43.0331 39.4213 43.0331Z" fill="#A0A0A0"/>
<path d="M49.3253 49.2258L34.2261 49.3066L34.2646 56.4892L49.3637 56.4083L49.3253 49.2258Z" fill="#EBEBEB"/>
<path d="M64.3502 49.1423L49.251 49.2232L49.2895 56.4057L64.3886 56.3249L64.3502 49.1423Z" fill="#F5F5F5"/>
<path d="M34.2366 51.3001C44.268 51.4127 54.3327 51.3126 64.3599 51.1499C64.4725 51.1499 64.4725 50.9748 64.3599 50.9748C54.3285 50.9205 44.2638 50.9289 34.2366 51.1499C34.1365 51.1499 34.1407 51.3001 34.2366 51.3001Z" fill="#A0A0A0"/>
<path d="M38.4311 21.3431L34.6396 21.3634L34.7189 36.1497L38.5103 36.1294L38.4311 21.3431Z" fill="#EBEBEB"/>
<path d="M34.5835 25.3601L30.792 25.3804L30.8496 36.1334L34.6411 36.1131L34.5835 25.3601Z" fill="#A0A0A0"/>
<path d="M44.3869 24.082L38.4932 24.1136L38.5574 36.097L44.4511 36.0654L44.3869 24.082Z" fill="#A0A0A0"/>
<path d="M46.1677 24.0721L44.2949 24.0821L44.359 36.0655L46.2318 36.0555L46.1677 24.0721Z" fill="#EBEBEB"/>
<path d="M48.0559 26.8292L46.1831 26.8392L46.2326 36.0531L48.1054 36.043L48.0559 26.8292Z" fill="#A0A0A0"/>
<path d="M37.6202 64.637L34.1123 63.1985L28.8521 76.026L32.36 77.4645L37.6202 64.637Z" fill="#A0A0A0"/>
<path d="M40.9131 62.6289L37.1216 62.6492L37.2008 77.4355L40.9923 77.4152L40.9131 62.6289Z" fill="#EBEBEB"/>
<path d="M48.7662 65.3592L42.8726 65.3908L42.9368 77.3742L48.8305 77.3426L48.7662 65.3592Z" fill="#A0A0A0"/>
<path d="M42.8479 60.9504L41.5591 60.9573L41.6473 77.3787L42.9361 77.3718L42.8479 60.9504Z" fill="#EBEBEB"/>
<path d="M41.5747 63.5173L40.9282 63.5208L41.0027 77.3853L41.6492 77.3819L41.5747 63.5173Z" fill="#F5F5F5"/>
<path d="M48.8871 76.7238L48.8906 77.3703L62.7552 77.2958L62.7517 76.6493L48.8871 76.7238Z" fill="#F5F5F5"/>
<path d="M63.9164 72.8133L48.8047 72.8943L48.8252 76.7274L63.9369 76.6465L63.9164 72.8133Z" fill="#EBEBEB"/>
<path d="M60.9219 68.9672L48.7842 69.0322L48.8047 72.8654L60.9425 72.8003L60.9219 68.9672Z" fill="#A0A0A0"/>
<path d="M188.806 120.94C188.806 120.998 146.537 121.048 94.4074 121.048C42.261 121.048 0 120.998 0 120.94C0 120.881 42.261 120.831 94.4074 120.831C146.537 120.831 188.806 120.877 188.806 120.94Z" fill="#263238"/>
<path d="M127.839 120.802H59.2082C56.5471 120.802 54.3906 118.646 54.3906 115.985V4.81798C54.3906 2.15686 56.5471 0.000427246 59.2082 0.000427246H127.839C130.5 0.000427246 132.656 2.15686 132.656 4.81798V115.985C132.656 118.646 130.5 120.802 127.839 120.802Z" fill="#455A64"/>
<path d="M95.9213 115.184C95.9213 116.969 94.5783 118.412 92.9182 118.412C91.2581 118.412 89.915 116.965 89.915 115.184C89.915 113.399 91.2581 111.955 92.9182 111.955C94.5783 111.955 95.9213 113.403 95.9213 115.184Z" fill="#263238"/>
<path d="M104.802 4.81382H82.2447C81.9652 4.81382 81.7358 4.58859 81.7358 4.30495V3.98378C81.7358 3.70432 81.9611 3.47491 82.2447 3.47491H104.802C105.081 3.47491 105.311 3.70015 105.311 3.98378V4.30495C105.311 4.58441 105.081 4.81382 104.802 4.81382Z" fill="#263238"/>
<path d="M130.387 6.93268H57.0596V108.852H130.387V6.93268Z" fill="#263238"/>
<path d="M112.109 98.7421C112.109 98.7421 112.21 98.7295 112.407 98.717C112.605 98.7128 112.894 98.6752 113.27 98.6124C113.641 98.5287 114.1 98.4199 114.6 98.1898C115.1 97.968 115.655 97.6501 116.164 97.1814C116.678 96.717 117.159 96.1103 117.476 95.3613C117.797 94.6166 117.939 93.7337 117.847 92.8007C117.751 91.876 117.375 90.8927 116.655 90.0601C115.948 89.2233 114.903 88.5413 113.664 88.2275C113.357 88.1438 113.036 88.0978 112.71 88.0601C112.384 88.0434 112.05 88.0266 111.705 88.035C111.022 88.035 110.325 88.0392 109.614 88.0392C108.192 88.0392 106.71 88.0434 105.178 88.0434C102.11 88.0475 98.8347 88.0517 95.3854 88.0517C88.4867 88.0559 80.9092 88.0559 72.951 88.0601C71.9785 88.0685 71.0107 88.2902 70.1667 88.7212C69.3365 89.1563 68.6072 89.763 68.1118 90.5036C67.6072 91.2358 67.2999 92.0768 67.254 92.9304C67.1898 93.7881 67.3183 94.6417 67.6715 95.4199C68.0246 96.194 68.5888 96.876 69.2723 97.4116C69.9603 97.9429 70.7859 98.3111 71.6483 98.4952C72.506 98.6961 73.4051 98.625 74.2903 98.6375C75.171 98.6375 76.0471 98.6375 76.9094 98.6375C83.8035 98.6459 90.0141 98.6542 95.234 98.6626C100.445 98.6752 104.66 98.6877 107.586 98.6961C109.041 98.7044 110.169 98.7128 110.944 98.717C111.32 98.7212 111.614 98.7254 111.816 98.7296C112.008 98.7337 112.109 98.7421 112.109 98.7421C112.109 98.7421 112.008 98.7505 111.811 98.7547C111.605 98.7588 111.316 98.7588 110.939 98.7672C110.164 98.7714 109.031 98.7798 107.582 98.7881C104.655 98.7965 100.44 98.809 95.2294 98.8216C90.0096 98.83 83.8035 98.8342 76.9048 98.8467C76.0425 98.8467 75.171 98.8467 74.2857 98.8467C73.8454 98.8467 73.4005 98.8467 72.9555 98.8467C72.7308 98.8342 72.5014 98.8341 72.2721 98.809C72.0473 98.7714 71.818 98.7588 71.5932 98.7003C70.6988 98.5078 69.841 98.127 69.1209 97.5747C68.4099 97.0183 67.8228 96.3111 67.4513 95.5036C67.0843 94.6961 66.9513 93.7965 67.0155 92.9178C67.066 92.0308 67.3825 91.1521 67.91 90.3906C68.4237 89.6166 69.1851 88.9848 70.052 88.5329C70.9281 88.0852 71.9372 87.8551 72.951 87.8467C80.9092 87.8509 88.4867 87.8509 95.3854 87.8551C98.8347 87.8593 102.11 87.8635 105.178 87.8635C106.71 87.8676 108.192 87.8676 109.614 87.8676C110.325 87.8676 111.022 87.8718 111.705 87.8718C112.045 87.8676 112.389 87.8844 112.724 87.9011C113.059 87.9429 113.389 87.9931 113.705 88.0768C114.981 88.4032 116.054 89.1103 116.774 89.9722C117.508 90.83 117.884 91.8383 117.976 92.7881C118.063 93.7379 117.912 94.6417 117.577 95.399C117.246 96.1605 116.751 96.7756 116.228 97.2442C115.705 97.717 115.141 98.035 114.627 98.2484C114.118 98.4743 113.65 98.5789 113.274 98.6542C112.894 98.7086 112.6 98.7421 112.403 98.7379C112.21 98.7463 112.109 98.7421 112.109 98.7421Z" fill="white"/>
<path d="M65.3895 42.4658L120.931 42.0612L122.479 79.8217L64.9683 79.2878L65.3895 42.4658Z" fill="#428B56"/>
<path d="M65.3892 42.4658L93.5854 19.6461L120.931 42.0612" fill="#428B56"/>
<g opacity="0.3">
<path d="M65.3892 42.4658L93.5854 19.6461L120.931 42.0612" fill="black"/>
</g>
<path d="M64.9681 79.2878C64.8972 79.2211 69.3436 74.366 74.8994 68.4473C80.4552 62.5244 85.0142 57.7736 85.0809 57.8403C85.1518 57.907 80.7055 62.758 75.1496 68.685C69.598 74.6037 65.039 79.3545 64.9681 79.2878Z" fill="#263238"/>
<path d="M122.479 79.8217C122.408 79.8842 118.078 75.1293 112.806 69.198C107.534 63.2668 103.321 58.4075 103.392 58.345C103.463 58.2824 107.792 63.0374 113.065 68.9686C118.337 74.8998 122.55 79.7591 122.479 79.8217Z" fill="#263238"/>
<g opacity="0.5">
<path d="M120.931 42.0612L93.0432 64.3388L65.3892 42.4658" fill="black"/>
</g>
<path d="M68.1884 44.5263L68.105 28.3719L116.752 27.179L117.282 44.8558L93.0395 64.051L68.1884 44.5263Z" fill="#EBEBEB"/>
<path d="M93.7189 58.2449C93.2601 58.2449 92.7971 58.2199 92.3341 58.1656C89.1224 57.8028 86.2444 56.2094 84.2298 53.6818C82.2152 51.1541 81.3059 47.9925 81.6729 44.7808C82.4237 38.1488 88.43 33.3646 95.062 34.1196C98.2737 34.4825 101.152 36.0758 103.166 38.6035C105.181 41.1311 106.09 44.2928 105.723 47.5045C105.36 50.7162 103.767 53.5942 101.239 55.6088C99.0704 57.3314 96.4426 58.2449 93.7189 58.2449ZM93.6856 34.4574C87.8252 34.4574 82.7574 38.8704 82.0859 44.8266C81.7355 47.9299 82.6114 50.9789 84.5551 53.4232C86.4988 55.8632 89.2768 57.4023 92.38 57.7527C95.4791 58.1073 98.5323 57.2272 100.977 55.2835C103.417 53.3397 104.956 50.5618 105.306 47.4586C105.656 44.3595 104.781 41.3063 102.837 38.8621C100.893 36.422 98.1152 34.8829 95.0119 34.5325C94.5656 34.4825 94.1235 34.4574 93.6856 34.4574Z" fill="#428B56"/>
<path d="M85.4688 47.8215L87.4917 45.3439L92.2217 48.7599L99.9089 39.7004L102.228 41.7401L92.3385 53.1354L85.4688 47.8215Z" fill="#428B56"/>
<path d="M146.049 64.2011C146.091 64.5139 146.516 64.6599 146.787 64.4972C147.058 64.3345 147.163 63.9842 147.117 63.6755C147.071 63.3668 146.908 63.0874 146.746 62.8204C147.234 63.0957 147.943 62.7996 148.084 62.2574C148.23 61.7193 147.763 61.1061 147.204 61.0978C147.596 61.0186 147.997 60.9059 148.297 60.6432C148.598 60.3804 148.773 59.9341 148.606 59.5712C148.443 59.2083 147.876 59.0665 147.626 59.3793C147.83 59.2459 148.043 59.104 148.18 58.8997C148.318 58.6953 148.356 58.4033 148.21 58.2073C148.039 57.9779 147.692 57.9612 147.425 58.0613C147.159 58.1614 146.942 58.3574 146.691 58.4951C146.095 58.8204 145.323 58.7912 144.756 58.42L143.2 59.7089L146.049 64.2011Z" fill="#263238"/>
<path d="M137.732 57.1395C136.864 57.4064 136.197 58.224 136.11 59.1291C136.076 59.4586 136.126 59.8173 136.343 60.0676C136.602 60.3721 137.052 60.4513 137.44 60.3679C137.828 60.2845 138.17 60.0551 138.491 59.8215C138.942 59.4878 139.409 59.0749 139.471 58.5159C139.534 57.9695 139.159 57.4315 138.654 57.2104C138.149 56.9935 137.553 57.0602 137.056 57.3022" fill="#263238"/>
<path d="M139.083 64.8434C138.921 65.3898 138.729 65.9362 138.395 66.395C138.057 66.8539 137.557 67.2167 136.989 67.271C136.422 67.3252 135.809 66.9998 135.634 66.4576C135.538 66.7829 135.271 67.0582 134.942 67.1291C134.612 67.2 134.237 67.0457 134.082 66.7454C133.928 66.4451 134.032 66.028 134.328 65.8653C133.995 66.053 133.578 66.2449 133.248 66.0488C133.106 65.9654 133.006 65.8153 132.956 65.6568C132.789 65.1312 133.115 64.5848 133.473 64.1677C133.832 63.7506 134.262 63.3418 134.353 62.7954C134.424 62.3616 134.262 61.9237 134.157 61.4941C134.036 61.0144 133.986 60.5097 134.099 60.03C134.212 59.5504 134.491 59.0957 134.921 58.8538C135.35 58.6119 135.93 58.6202 136.31 58.933L136.381 59.6421L139.083 64.8434Z" fill="#263238"/>
<path d="M145.569 73.1104C145.569 73.1104 146.541 83.392 145.724 84.7309C144.906 86.0698 134.896 100.064 134.896 100.064L134.921 100.08C134.725 100.16 134.52 100.243 134.287 100.326C133.941 100.452 133.569 100.514 133.198 100.518C132.748 100.523 132.151 100.502 131.83 100.389C131.43 100.251 131.067 100.668 131.288 100.985C131.505 101.302 132.602 101.711 133.957 101.582C135.317 101.448 133.79 102.958 133.244 103.521C132.698 104.08 131.088 105.895 131.125 106.199C131.184 106.646 131.672 106.666 132.205 106.095C132.744 105.515 134.458 103.918 134.737 104.222C135.017 104.523 132.193 107.334 132.193 107.334C132.193 107.334 131.492 107.839 131.805 108.197C132.372 108.848 135.15 105.636 135.409 105.323C135.588 105.106 135.905 105.423 135.701 105.649C135.492 105.878 132.823 108.389 133.394 109.061C133.832 109.574 135.705 106.441 136.548 106.224C137.39 106.012 134.887 108.456 135.325 108.927C135.488 109.102 135.634 109.211 136.869 107.601C137.561 106.696 138.683 104.777 139.559 103.23C140.873 101.807 153.824 87.7466 153.924 85.1188C154.028 82.3534 154.525 72.9936 154.525 72.9936L145.569 73.1104Z" fill="#EB996E"/>
<path d="M130.124 118.875L130.007 115.059L137.157 114.792L137.39 120.373L136.948 120.418C134.979 120.602 126.925 121.211 125.594 120.861C124.101 120.468 130.124 118.875 130.124 118.875Z" fill="#626672"/>
<g opacity="0.4">
<path d="M127.184 119.759C127.184 119.759 125.077 120.452 125.357 120.794C125.636 121.136 133.795 120.823 137.386 120.373L137.369 120.214L127.851 120.656C127.851 120.656 127.601 119.759 127.184 119.759Z" fill="white"/>
</g>
<path d="M137.478 120.206C137.478 120.21 137.436 120.214 137.357 120.222C137.252 120.235 137.136 120.243 137.006 120.256C136.652 120.285 136.222 120.318 135.709 120.36C134.612 120.439 133.098 120.535 131.421 120.598C129.744 120.664 128.226 120.689 127.129 120.694C126.616 120.694 126.182 120.689 125.828 120.689C125.699 120.685 125.582 120.685 125.473 120.681C125.394 120.677 125.348 120.677 125.348 120.673C125.348 120.669 125.39 120.669 125.473 120.664C125.578 120.66 125.694 120.66 125.828 120.656C126.182 120.648 126.616 120.644 127.129 120.631C128.226 120.61 129.744 120.577 131.421 120.51C133.094 120.443 134.612 120.364 135.709 120.297C136.222 120.268 136.656 120.239 137.006 120.218C137.136 120.21 137.252 120.206 137.361 120.201C137.436 120.201 137.478 120.201 137.478 120.206Z" fill="#263238"/>
<path d="M127.855 120.769C127.83 120.773 127.796 120.464 127.588 120.16C127.384 119.851 127.112 119.701 127.125 119.68C127.129 119.659 127.442 119.78 127.659 120.114C127.884 120.435 127.88 120.773 127.855 120.769Z" fill="#263238"/>
<path d="M129.924 119.618C129.903 119.63 129.799 119.513 129.686 119.351C129.574 119.192 129.503 119.05 129.524 119.038C129.545 119.025 129.649 119.142 129.761 119.305C129.87 119.463 129.945 119.605 129.924 119.618Z" fill="#263238"/>
<path d="M130.492 119.288C130.475 119.305 130.362 119.234 130.233 119.13C130.104 119.025 130.016 118.921 130.029 118.904C130.045 118.888 130.158 118.959 130.287 119.063C130.416 119.171 130.508 119.271 130.492 119.288Z" fill="#263238"/>
<path d="M130.833 118.6C130.833 118.625 130.666 118.65 130.462 118.662C130.257 118.671 130.086 118.662 130.086 118.637C130.086 118.612 130.253 118.587 130.458 118.575C130.662 118.566 130.833 118.575 130.833 118.6Z" fill="#263238"/>
<path d="M130.941 118.12C130.95 118.141 130.77 118.229 130.529 118.258C130.287 118.287 130.095 118.241 130.095 118.216C130.099 118.191 130.287 118.199 130.516 118.17C130.75 118.145 130.933 118.095 130.941 118.12Z" fill="#263238"/>
<path d="M129.657 119.004C129.657 119.013 129.482 119.042 129.198 119.017C129.056 119.004 128.889 118.979 128.706 118.929C128.614 118.9 128.522 118.879 128.422 118.825C128.376 118.796 128.322 118.754 128.301 118.687C128.28 118.621 128.314 118.541 128.364 118.5C128.793 118.254 129.244 118.487 129.415 118.708C129.511 118.821 129.553 118.933 129.578 119.009C129.598 119.088 129.598 119.13 129.594 119.134C129.578 119.142 129.557 118.954 129.369 118.75C129.277 118.65 129.14 118.554 128.969 118.508C128.806 118.466 128.572 118.462 128.422 118.566C128.351 118.625 128.385 118.708 128.464 118.754C128.543 118.8 128.639 118.825 128.727 118.854C128.902 118.908 129.065 118.942 129.206 118.959C129.482 118.996 129.657 118.988 129.657 119.004Z" fill="#263238"/>
<path d="M129.54 119.029C129.532 119.034 129.461 118.921 129.473 118.712C129.481 118.612 129.515 118.487 129.586 118.37C129.665 118.266 129.761 118.12 129.961 118.12C130.07 118.128 130.124 118.249 130.111 118.329C130.107 118.408 130.074 118.479 130.04 118.537C129.978 118.654 129.903 118.75 129.836 118.825C129.698 118.971 129.586 119.029 129.582 119.021C129.573 119.009 129.669 118.933 129.79 118.783C129.849 118.708 129.915 118.612 129.974 118.5C130.032 118.4 130.07 118.224 129.953 118.208C129.836 118.199 129.723 118.32 129.657 118.416C129.59 118.516 129.552 118.629 129.54 118.721C129.507 118.908 129.557 119.025 129.54 119.029Z" fill="#263238"/>
<path d="M137.257 118.254C137.257 118.27 137.053 118.241 136.732 118.291C136.415 118.337 135.972 118.487 135.597 118.808C135.222 119.134 135.009 119.547 134.917 119.851C134.821 120.16 134.817 120.368 134.8 120.368C134.796 120.368 134.792 120.318 134.796 120.222C134.8 120.131 134.817 119.997 134.859 119.834C134.942 119.513 135.151 119.079 135.543 118.742C135.935 118.404 136.398 118.262 136.723 118.229C136.89 118.212 137.023 118.212 137.115 118.224C137.211 118.237 137.261 118.249 137.257 118.254Z" fill="#263238"/>
<path d="M136.405 115.309C136.43 115.309 136.48 115.964 136.522 116.773C136.564 117.582 136.576 118.241 136.551 118.245C136.526 118.245 136.476 117.59 136.435 116.781C136.393 115.968 136.38 115.309 136.405 115.309Z" fill="#263238"/>
<path d="M133.865 119.751C133.87 119.772 133.407 119.868 132.827 119.893C132.247 119.922 131.776 119.872 131.78 119.847C131.78 119.822 132.247 119.834 132.823 119.805C133.394 119.78 133.861 119.726 133.865 119.751Z" fill="#263238"/>
<path d="M135.267 119.697C135.284 119.713 135.233 119.797 135.188 119.905C135.142 120.014 135.121 120.11 135.096 120.11C135.071 120.11 135.054 119.997 135.104 119.872C135.158 119.747 135.25 119.68 135.267 119.697Z" fill="#263238"/>
<path d="M135.768 119.017C135.784 119.034 135.743 119.109 135.672 119.188C135.601 119.267 135.53 119.317 135.509 119.301C135.492 119.284 135.534 119.209 135.605 119.13C135.68 119.05 135.751 119 135.768 119.017Z" fill="#263238"/>
<path d="M136.514 118.687C136.51 118.712 136.414 118.717 136.31 118.754C136.205 118.792 136.134 118.854 136.114 118.838C136.093 118.825 136.151 118.721 136.28 118.671C136.405 118.629 136.518 118.667 136.514 118.687Z" fill="#263238"/>
<path d="M137.044 118.529C137.052 118.55 137.015 118.587 136.956 118.612C136.898 118.637 136.844 118.642 136.831 118.617C136.823 118.596 136.86 118.558 136.919 118.529C136.981 118.508 137.036 118.504 137.044 118.529Z" fill="#263238"/>
<g opacity="0.3">
<path d="M137.24 118.062L130.095 118.216L130.074 117.353L137.282 117.607L137.24 118.062Z" fill="black"/>
</g>
<path d="M157.036 92.9813L134.437 92.6726C134.437 92.6726 128.147 93.2732 128.147 101.448L128.944 117.578H138.57L137.916 102.12C138.454 102.128 145.749 102.362 145.749 102.362L157.036 92.9813Z" fill="#263238"/>
<path d="M128.944 117.578C128.935 117.578 128.927 117.482 128.914 117.298C128.902 117.094 128.889 116.827 128.869 116.498C128.827 115.776 128.768 114.775 128.697 113.553C128.547 111.067 128.268 107.634 128.08 103.834C128.013 101.936 127.867 100.118 128.097 98.462C128.159 98.0491 128.226 97.6528 128.347 97.2691C128.468 96.8895 128.627 96.535 128.806 96.2096C129.177 95.5631 129.64 95.0376 130.116 94.6246C130.595 94.2117 131.088 93.9197 131.534 93.6987C131.988 93.4943 132.393 93.3483 132.735 93.2607C132.902 93.219 133.052 93.1856 133.186 93.1523C133.311 93.1314 133.423 93.1147 133.523 93.1022C133.707 93.0772 133.803 93.0647 133.803 93.073C133.803 93.0814 133.711 93.1064 133.532 93.1439C133.436 93.1648 133.327 93.1898 133.202 93.2148C133.069 93.2524 132.923 93.2941 132.76 93.34C132.426 93.4401 132.03 93.5902 131.588 93.8029C131.154 94.0323 130.679 94.3285 130.216 94.7373C129.757 95.146 129.315 95.6674 128.96 96.2931C128.789 96.6101 128.639 96.9521 128.526 97.3191C128.418 97.682 128.351 98.0824 128.293 98.4829C128.08 100.105 128.23 101.924 128.297 103.818C128.485 107.613 128.743 111.046 128.852 113.54C128.91 114.787 128.939 115.793 128.952 116.493C128.952 116.823 128.956 117.09 128.956 117.298C128.956 117.482 128.952 117.578 128.944 117.578Z" fill="#455A64"/>
<path d="M172.076 118.879L168.264 119.134L167.747 112.001L173.319 111.572L173.382 112.014C173.636 113.974 174.529 121.999 174.224 123.346C173.882 124.844 172.076 118.879 172.076 118.879Z" fill="#626672"/>
<g opacity="0.4">
<path d="M173.065 121.786C173.065 121.786 173.832 123.868 174.162 123.576C174.491 123.284 173.895 115.142 173.319 111.572L173.161 111.597L173.936 121.09C173.936 121.09 173.048 121.369 173.065 121.786Z" fill="white"/>
</g>
<path d="M173.144 111.484C173.148 111.484 173.157 111.526 173.165 111.605C173.177 111.709 173.194 111.826 173.211 111.955C173.252 112.306 173.303 112.74 173.361 113.248C173.482 114.341 173.628 115.851 173.749 117.524C173.874 119.196 173.953 120.715 173.995 121.812C174.012 122.325 174.024 122.758 174.037 123.113C174.037 123.242 174.041 123.359 174.041 123.467C174.041 123.547 174.041 123.593 174.037 123.593C174.032 123.593 174.028 123.551 174.024 123.472C174.016 123.367 174.012 123.251 174.003 123.117C173.987 122.763 173.962 122.329 173.937 121.82C173.878 120.723 173.791 119.209 173.665 117.536C173.54 115.864 173.407 114.354 173.303 113.261C173.252 112.752 173.211 112.318 173.177 111.968C173.165 111.839 173.157 111.722 173.148 111.613C173.144 111.526 173.144 111.484 173.144 111.484Z" fill="#263238"/>
<path d="M174.045 121.077C174.049 121.102 173.741 121.148 173.444 121.365C173.144 121.578 173.002 121.857 172.981 121.845C172.961 121.841 173.073 121.524 173.394 121.294C173.716 121.061 174.049 121.057 174.045 121.077Z" fill="#263238"/>
<path d="M172.823 119.05C172.836 119.071 172.723 119.18 172.564 119.296C172.41 119.413 172.268 119.492 172.256 119.472C172.243 119.451 172.356 119.342 172.514 119.225C172.673 119.113 172.811 119.034 172.823 119.05Z" fill="#263238"/>
<path d="M172.477 118.496C172.498 118.512 172.431 118.629 172.327 118.758C172.227 118.888 172.126 118.984 172.11 118.971C172.089 118.954 172.156 118.838 172.26 118.708C172.36 118.575 172.456 118.483 172.477 118.496Z" fill="#263238"/>
<path d="M171.776 118.183C171.801 118.179 171.834 118.345 171.851 118.55C171.868 118.754 171.864 118.925 171.839 118.925C171.813 118.925 171.78 118.762 171.763 118.558C171.747 118.35 171.751 118.183 171.776 118.183Z" fill="#263238"/>
<path d="M171.292 118.091C171.313 118.083 171.408 118.258 171.442 118.496C171.479 118.737 171.438 118.933 171.417 118.929C171.392 118.925 171.392 118.737 171.358 118.508C171.325 118.283 171.267 118.099 171.292 118.091Z" fill="#263238"/>
<path d="M172.218 119.338C172.227 119.338 172.264 119.513 172.247 119.797C172.239 119.939 172.218 120.11 172.177 120.293C172.152 120.385 172.135 120.481 172.081 120.581C172.056 120.627 172.014 120.681 171.947 120.706C171.88 120.731 171.801 120.698 171.759 120.652C171.501 120.231 171.714 119.772 171.93 119.593C172.039 119.492 172.147 119.447 172.227 119.422C172.302 119.397 172.348 119.396 172.348 119.401C172.356 119.417 172.168 119.447 171.972 119.638C171.876 119.734 171.784 119.872 171.747 120.047C171.709 120.214 171.714 120.443 171.826 120.589C171.885 120.66 171.968 120.623 172.01 120.539C172.051 120.46 172.076 120.36 172.101 120.272C172.147 120.093 172.177 119.93 172.189 119.793C172.218 119.517 172.206 119.342 172.218 119.338Z" fill="#263238"/>
<path d="M172.251 119.455C172.255 119.459 172.143 119.538 171.938 119.53C171.838 119.526 171.713 119.497 171.596 119.43C171.488 119.355 171.342 119.263 171.333 119.067C171.338 118.959 171.454 118.9 171.534 118.908C171.613 118.913 171.688 118.942 171.742 118.971C171.863 119.029 171.959 119.1 172.034 119.167C172.184 119.301 172.247 119.409 172.239 119.417C172.226 119.426 172.151 119.334 171.997 119.217C171.922 119.159 171.822 119.096 171.709 119.046C171.609 118.992 171.429 118.959 171.417 119.075C171.413 119.192 171.538 119.301 171.634 119.363C171.738 119.43 171.847 119.459 171.942 119.472C172.13 119.492 172.247 119.442 172.251 119.455Z" fill="#263238"/>
<path d="M171.205 111.772C171.221 111.772 171.2 111.976 171.263 112.297C171.321 112.614 171.484 113.048 171.822 113.411C172.16 113.774 172.577 113.97 172.89 114.053C173.202 114.141 173.411 114.137 173.407 114.153C173.407 114.158 173.357 114.166 173.265 114.166C173.173 114.166 173.036 114.153 172.873 114.116C172.548 114.045 172.105 113.849 171.755 113.469C171.405 113.09 171.246 112.635 171.2 112.306C171.175 112.139 171.175 112.005 171.184 111.914C171.188 111.822 171.2 111.772 171.205 111.772Z" fill="#263238"/>
<path d="M168.289 112.727C168.289 112.702 168.94 112.627 169.749 112.556C170.558 112.485 171.217 112.448 171.217 112.473C171.217 112.498 170.566 112.573 169.757 112.644C168.948 112.714 168.293 112.752 168.289 112.727Z" fill="#263238"/>
<path d="M172.818 115.109C172.839 115.104 172.952 115.563 172.998 116.143C173.048 116.723 173.014 117.194 172.989 117.194C172.964 117.194 172.96 116.727 172.91 116.151C172.864 115.576 172.793 115.117 172.818 115.109Z" fill="#263238"/>
<path d="M172.714 113.711C172.731 113.695 172.814 113.741 172.927 113.782C173.035 113.824 173.136 113.841 173.136 113.866C173.136 113.891 173.027 113.912 172.898 113.866C172.769 113.82 172.698 113.728 172.714 113.711Z" fill="#263238"/>
<path d="M172.018 113.232C172.035 113.215 172.11 113.253 172.193 113.323C172.272 113.39 172.327 113.461 172.31 113.482C172.293 113.499 172.218 113.461 172.135 113.39C172.056 113.323 172.006 113.253 172.018 113.232Z" fill="#263238"/>
<path d="M171.663 112.502C171.688 112.506 171.692 112.602 171.738 112.702C171.78 112.806 171.842 112.877 171.83 112.894C171.817 112.915 171.713 112.86 171.659 112.735C171.605 112.61 171.642 112.498 171.663 112.502Z" fill="#263238"/>
<path d="M171.484 111.976C171.504 111.968 171.546 112.005 171.571 112.064C171.6 112.122 171.605 112.176 171.58 112.185C171.559 112.193 171.517 112.156 171.492 112.097C171.467 112.039 171.463 111.985 171.484 111.976Z" fill="#263238"/>
<g opacity="0.3">
<path d="M171.013 111.793L171.417 118.929L170.558 118.984V111.772L171.013 111.793Z" fill="black"/>
</g>
<path d="M148.706 111.826L148.71 111.834C148.71 111.834 167.964 101.319 170.149 97.8989C172.397 94.3702 170.796 91.0584 170.796 91.0584L154.591 93.219L143.067 104.76C140.556 106.75 136.026 110.908 136.026 115.009C136.026 122.024 145.098 120.877 151.609 120.894C160.514 120.915 170.504 120.956 170.504 120.956L170.529 111.392L148.706 111.826Z" fill="#263238"/>
<path d="M144.13 113.828C144.151 113.874 145.215 113.457 146.503 112.898C147.792 112.335 148.823 111.843 148.802 111.797C148.781 111.751 147.721 112.168 146.428 112.727C145.139 113.286 144.113 113.778 144.13 113.828Z" fill="#455A64"/>
<path d="M145.649 111.484C145.649 111.534 146.4 111.601 147.334 111.634C148.264 111.663 149.023 111.647 149.023 111.597C149.023 111.547 148.273 111.48 147.338 111.446C146.404 111.413 145.649 111.43 145.649 111.484Z" fill="#455A64"/>
<path d="M153.315 94.8332C153.319 94.8374 153.256 94.9083 153.135 95.0334C152.994 95.1752 152.81 95.3546 152.585 95.5757C152.08 96.0595 151.388 96.731 150.537 97.5486C148.777 99.2128 146.374 101.486 143.725 103.993C142.395 105.252 141.102 106.425 139.98 107.542C138.862 108.66 137.944 109.757 137.327 110.779C136.693 111.793 136.389 112.719 136.234 113.365C136.201 113.524 136.168 113.67 136.138 113.799C136.122 113.92 136.105 114.028 136.092 114.12C136.067 114.295 136.051 114.387 136.042 114.387C136.034 114.387 136.038 114.295 136.051 114.116C136.059 114.02 136.067 113.912 136.076 113.786C136.092 113.657 136.122 113.511 136.151 113.344C136.28 112.685 136.572 111.734 137.198 110.696C137.807 109.649 138.724 108.531 139.842 107.396C140.964 106.266 142.253 105.094 143.584 103.83C146.253 101.34 148.668 99.0835 150.441 97.4318C151.308 96.6351 152.022 95.9803 152.535 95.5089C152.772 95.2962 152.964 95.1252 153.11 94.9959C153.24 94.8874 153.311 94.829 153.315 94.8332Z" fill="#455A64"/>
<path d="M147.534 73.9404C145.812 74.8706 143.664 74.1031 142.917 72.2929C142.512 71.3085 142.187 70.5077 142.187 70.5077C142.187 70.5077 139.701 71.3878 138.433 69.1104C137.72 67.8299 136.719 65.6401 135.976 63.9716C135.347 62.5577 135.501 60.9226 136.377 59.6504C138.416 57.0769 140.035 57.5065 143.276 58.0321L143.755 58.1113L148.973 69.686C149.682 71.2585 149.057 73.1187 147.534 73.9404Z" fill="#FFBE9D"/>
<path d="M137.561 65.0978C137.632 64.9018 137.528 64.6849 137.332 64.614C137.136 64.5431 136.919 64.6474 136.848 64.8434C136.777 65.0394 136.881 65.2563 137.077 65.3272C137.278 65.3981 137.494 65.2939 137.561 65.0978Z" fill="#263238"/>
<path d="M136.535 64.7141C136.594 64.735 136.723 64.4388 137.04 64.2678C137.353 64.0926 137.674 64.1343 137.686 64.0759C137.695 64.0467 137.62 63.9967 137.478 63.9758C137.34 63.955 137.132 63.9717 136.936 64.0801C136.74 64.1886 136.614 64.3554 136.56 64.4847C136.502 64.6182 136.51 64.7058 136.535 64.7141Z" fill="#263238"/>
<path d="M140.306 63.2375C140.202 63.4169 140.264 63.6505 140.444 63.7548C140.623 63.859 140.856 63.7965 140.961 63.6171C141.065 63.4378 141.002 63.2042 140.823 63.0999C140.64 62.9956 140.41 63.054 140.306 63.2375Z" fill="#263238"/>
<path d="M139.989 63.15C140.047 63.1708 140.177 62.8747 140.494 62.7037C140.806 62.5285 141.128 62.5702 141.14 62.5118C141.148 62.4826 141.073 62.4325 140.931 62.4117C140.794 62.3908 140.585 62.4075 140.389 62.516C140.193 62.6244 140.068 62.7912 140.014 62.9205C139.955 63.054 139.964 63.1416 139.989 63.15Z" fill="#263238"/>
<path d="M140.256 66.4993C140.243 66.4743 140.026 66.541 139.684 66.6661C139.597 66.7037 139.522 66.7162 139.492 66.6787C139.451 66.6369 139.434 66.5327 139.426 66.4117C139.392 66.1573 139.363 65.9028 139.33 65.6359C139.18 64.5347 139.017 63.6505 138.959 63.6546C138.904 63.663 138.979 64.5598 139.125 65.6609C139.163 65.9279 139.2 66.1823 139.238 66.4367C139.259 66.5494 139.263 66.6912 139.38 66.8038C139.438 66.858 139.53 66.8747 139.593 66.858C139.655 66.8455 139.701 66.8205 139.743 66.7996C140.072 66.6369 140.268 66.5243 140.256 66.4993Z" fill="#263238"/>
<path d="M142.162 70.4743C142.162 70.4743 143.676 69.8111 144.694 68.0092C144.694 68.0092 144.877 70.0405 142.479 71.0708L142.162 70.4743Z" fill="#EB996E"/>
<path d="M144.798 60.6765C144.835 60.639 146.633 59.5712 147.167 61.5316C147.63 63.2292 145.711 63.5212 145.686 63.4669C145.661 63.4169 144.798 60.6765 144.798 60.6765Z" fill="#FFBE9D"/>
<path d="M146.032 62.4701C146.037 62.4617 146.07 62.4784 146.124 62.4826C146.178 62.4868 146.266 62.4701 146.337 62.4075C146.483 62.2824 146.529 61.957 146.429 61.6609C146.379 61.5107 146.295 61.3814 146.199 61.2855C146.108 61.1854 145.999 61.1312 145.907 61.1478C145.816 61.1604 145.774 61.2354 145.77 61.2855C145.766 61.3397 145.786 61.3689 145.778 61.3731C145.774 61.3773 145.732 61.3606 145.72 61.2855C145.715 61.2521 145.72 61.2062 145.745 61.1604C145.774 61.1145 145.824 61.0769 145.887 61.0603C146.016 61.0227 146.17 61.0978 146.274 61.2021C146.387 61.3063 146.483 61.4523 146.537 61.6192C146.646 61.9487 146.591 62.3157 146.383 62.4701C146.279 62.541 146.17 62.541 146.108 62.5243C146.049 62.5118 146.028 62.4784 146.032 62.4701Z" fill="#EB996E"/>
<path d="M143.964 73.6568C143.964 73.6568 148.448 66.1323 155.38 72.4639C159.905 76.5974 167.284 85.1105 169.924 88.4473C170.517 89.194 171.438 90.3327 170.792 91.0334C168.815 93.1731 163.426 97.9573 153.453 94.3869L144.001 81.2106C142.383 78.9582 142.366 75.93 143.964 73.6568Z" fill="#626672"/>
<path d="M149.711 70.0781L148.447 68.0092L141.99 73.148L143.196 75.0875L149.711 70.0781Z" fill="#626672"/>
<g opacity="0.3">
<path d="M149.436 70.345C149.436 70.345 144.351 74.7413 144.28 74.6704C144.205 74.5995 142.249 73.1855 142.249 73.1855L144.043 74.1907L149.436 70.345Z" fill="black"/>
</g>
<path d="M149.765 70.053C149.757 70.0405 149.644 70.1073 149.44 70.2282C149.24 70.3534 148.952 70.541 148.601 70.7788C147.905 71.2585 146.962 71.955 145.928 72.7225C145.223 73.2439 144.56 73.7236 143.992 74.1156L144.076 74.1115C143.471 73.7861 142.966 73.515 142.612 73.3356C142.257 73.1521 142.049 73.0562 142.04 73.0729C142.032 73.0896 142.224 73.2147 142.566 73.4191C142.908 73.6235 143.4 73.9154 143.997 74.2533L144.038 74.2783L144.08 74.2491C144.66 73.8695 145.331 73.394 146.036 72.8727C147.046 72.1135 147.963 71.4253 148.676 70.8872C148.989 70.6537 149.256 70.4535 149.477 70.2866C149.669 70.149 149.773 70.0614 149.765 70.053Z" fill="#263238"/>
<path d="M122.199 89.7904L120.973 89.2899C120.973 89.2899 120.185 89.1063 118.896 88.4932C118.562 88.3347 118.258 88.1136 117.999 87.8509C117.682 87.5339 117.277 87.0917 117.131 86.7831C116.952 86.3993 116.397 86.4369 116.326 86.8164C116.256 87.196 116.727 88.2638 117.774 89.1397C118.821 90.0156 116.673 89.9864 115.889 89.9864C115.104 89.9906 112.685 90.1116 112.493 90.3535C112.214 90.708 112.543 91.0709 113.323 91.0501C114.116 91.0292 116.452 91.1293 116.435 91.5422C116.418 91.951 112.431 91.9093 112.431 91.9093C112.431 91.9093 111.58 91.7633 111.542 92.2388C111.476 93.098 115.713 92.8311 116.118 92.7936C116.397 92.7685 116.393 93.219 116.093 93.2273C115.78 93.2398 112.118 93.0939 112.043 93.9698C111.984 94.6413 115.53 93.7821 116.276 94.2326C117.019 94.683 113.519 94.6121 113.49 95.2545C113.478 95.4922 113.503 95.6757 115.521 95.4255C117.586 95.1711 123.067 93.5694 123.067 93.5694L122.141 89.732" fill="#FFBE9D"/>
<path d="M146.158 76.2721C146.158 76.2721 139.563 85.3649 138.037 85.7195C136.51 86.074 119.509 88.7435 119.509 88.7435L120.36 94.291C120.36 94.291 141.457 93.7029 143.505 91.8342C145.553 89.9698 151.722 80.489 151.722 80.489L146.158 76.2721Z" fill="#FFBE9D"/>
<path d="M141.515 91.6799C141.507 91.6882 141.561 91.755 141.691 91.8342C141.82 91.9093 142.037 91.9885 142.316 91.9677C142.587 91.951 142.925 91.7925 143.13 91.4797C143.338 91.1793 143.409 90.708 143.184 90.3243C143.075 90.1366 142.904 89.9823 142.696 89.9197C142.496 89.8571 142.279 89.8738 142.104 89.9656C141.737 90.1574 141.682 90.6204 141.853 90.8624C142.041 91.1168 142.329 91.1001 142.466 91.0459C142.617 90.9833 142.65 90.8915 142.642 90.8874C142.629 90.8749 142.575 90.9458 142.446 90.975C142.325 91.0083 142.087 90.9833 141.966 90.7914C141.845 90.6079 141.908 90.2492 142.183 90.1199C142.316 90.0532 142.487 90.0448 142.642 90.0949C142.796 90.1449 142.934 90.2659 143.021 90.4202C143.205 90.7331 143.155 91.1251 142.984 91.3921C142.817 91.6674 142.542 91.8092 142.3 91.8425C141.799 91.8968 141.528 91.6465 141.515 91.6799Z" fill="#EB996E"/>
<path d="M153.686 79.0416L147.426 89.7821L140.214 83.8091C140.214 83.8091 145.211 75.6297 147.572 73.0895L153.686 79.0416Z" fill="#626672"/>
<path d="M135.742 99.5465C135.751 99.4923 136.577 99.7884 137.202 100.618C137.84 101.44 137.907 102.312 137.853 102.308C137.786 102.324 137.628 101.519 137.027 100.752C136.443 99.9678 135.709 99.6049 135.742 99.5465Z" fill="#455A64"/>
<path d="M143.213 61.6526C143.288 61.8278 143.476 61.932 143.663 61.9737C143.851 62.0154 144.043 62.0113 144.235 62.0446C144.531 62.103 144.806 62.2615 145.002 62.4909C145.086 62.591 145.161 62.7037 145.265 62.7829C145.369 62.8622 145.524 62.8955 145.632 62.8205C145.799 62.6995 145.724 62.4367 145.632 62.2532C145.244 61.4774 144.852 60.7016 144.464 59.9258L142.253 60.4054L143.204 61.5108" fill="#263238"/>
<path d="M135.992 59.0123C136.247 58.7078 136.631 58.4575 136.927 58.7203C137.227 58.9831 137.356 59.3876 137.448 59.7797C137.54 60.1676 137.611 60.5764 137.836 60.9059C138.12 61.323 138.641 61.5608 139.137 61.5065C139.638 61.4523 140.097 61.1061 140.284 60.639C140.585 61.0894 140.893 61.5524 141.327 61.8778C141.761 62.2031 142.353 62.3741 142.858 62.1739C143.363 61.9737 143.688 61.3272 143.425 60.8517C143.717 61.0728 144.063 61.2396 144.431 61.2354C144.793 61.2354 145.173 61.0352 145.306 60.6932C145.44 60.3553 145.256 59.9007 144.898 59.8214C145.302 60.0884 145.878 60.0926 146.262 59.7922C146.645 59.4961 146.779 58.8996 146.524 58.4867C146.27 58.0738 145.644 57.932 145.256 58.2239C145.527 58.0571 145.815 57.8777 145.965 57.5941C146.116 57.3105 146.057 56.8934 145.769 56.7599C145.423 56.5972 145.048 56.9184 144.672 56.9893C144.055 57.1019 143.55 56.5472 143.054 56.1676C142.153 55.4836 140.935 55.3 139.826 55.5253C138.716 55.7505 137.711 56.3511 136.86 57.0977C136.305 57.5983 135.767 58.3073 135.992 59.0123Z" fill="#263238"/>
<path d="M137.298 63.5087C137.303 63.6922 137.123 63.8423 136.919 63.9258C136.71 64.005 136.477 64.0175 136.356 63.8841C136.235 63.7547 136.352 63.4503 136.677 63.321C137.006 63.1917 137.298 63.3293 137.298 63.5087Z" fill="#263238"/>
<path d="M140.606 61.9237C140.572 62.103 140.347 62.2156 140.126 62.3199C139.901 62.4159 139.667 62.5034 139.513 62.4117C139.442 62.3616 139.413 62.249 139.471 62.1114C139.525 61.9737 139.663 61.8152 139.863 61.7276C140.063 61.64 140.272 61.64 140.41 61.6901C140.547 61.7443 140.614 61.8361 140.606 61.9237Z" fill="#263238"/>
<path d="M141.561 65.7694C141.615 65.7485 141.757 66.1698 141.544 66.6453C141.34 67.1208 140.931 67.3043 140.91 67.2501C140.877 67.1959 141.173 66.9665 141.344 66.5577C141.528 66.1531 141.498 65.7777 141.561 65.7694Z" fill="#263238"/>
<path d="M146.375 59.104C146.379 59.1082 146.345 59.1332 146.279 59.1624C146.212 59.1916 146.104 59.225 145.962 59.2292C145.695 59.2375 145.207 59.1291 144.952 58.6285L145.065 58.6536C144.752 58.9497 144.26 59.1875 143.689 59.2C143.125 59.2167 142.462 59.0164 142.003 58.5034L142.187 58.4283C142.204 58.7161 142.028 58.9873 141.795 59.1374C141.561 59.2917 141.274 59.3668 140.986 59.3335C140.498 59.2584 140.135 58.9414 139.851 58.6411C139.563 58.3282 139.334 58.0071 139.067 57.7484C138.804 57.4898 138.508 57.298 138.195 57.2438C137.882 57.1854 137.574 57.2521 137.319 57.3522C136.802 57.5649 136.473 57.9111 136.247 58.1322C136.026 58.3616 135.901 58.4951 135.889 58.4826C135.88 58.4742 135.976 58.324 136.181 58.0738C136.389 57.8319 136.706 57.4565 137.253 57.2062C137.524 57.0894 137.857 57.006 138.216 57.0644C138.579 57.1186 138.917 57.3313 139.196 57.6025C139.484 57.8694 139.722 58.1989 139.997 58.4951C140.268 58.7829 140.606 59.0623 141.002 59.1207C141.461 59.1833 141.991 58.8579 141.966 58.4408L141.949 58.1364L142.154 58.3699C142.554 58.8287 143.155 59.0248 143.672 59.0206C144.202 59.0206 144.656 58.8162 144.952 58.5535L145.027 58.4867L145.069 58.5743C145.265 59.0081 145.699 59.1416 145.949 59.1541C146.229 59.1624 146.366 59.0832 146.375 59.104Z" fill="#455A64"/>
<path d="M154.733 77.3816C154.712 77.3816 154.712 77.1313 154.637 76.6934C154.558 76.2596 154.383 75.6297 153.957 74.9624C153.54 74.2992 152.856 73.5943 151.897 73.1938C150.946 72.7934 149.736 72.6975 148.602 73.0771C148.035 73.2689 147.53 73.5776 147.084 73.9279C146.637 74.2783 146.254 74.6746 145.916 75.075C145.244 75.88 144.756 76.7059 144.331 77.3816C143.914 78.0656 143.572 78.6162 143.317 78.9874C143.192 79.1751 143.092 79.3169 143.021 79.4087C142.95 79.5046 142.913 79.5505 142.904 79.5463C142.892 79.538 143.017 79.3253 143.246 78.9374C143.488 78.5161 143.809 77.9655 144.197 77.2981C144.606 76.6099 145.081 75.7715 145.757 74.9415C146.433 74.124 147.33 73.2814 148.527 72.8685C149.72 72.4681 150.979 72.5765 151.968 73.0061C152.973 73.4358 153.665 74.1865 154.083 74.8748C154.504 75.5755 154.662 76.2262 154.717 76.6725C154.742 76.8977 154.75 77.0729 154.746 77.1897C154.746 77.319 154.742 77.3816 154.733 77.3816Z" fill="#263238"/>
<path d="M152.893 81.3107C152.872 81.3149 152.927 81.1397 152.726 80.9728C152.631 80.8894 152.489 80.8352 152.305 80.8144C152.126 80.7893 151.896 80.8018 151.655 80.6976C151.162 80.4932 150.841 79.9218 150.674 79.3086C150.587 78.9999 150.52 78.6788 150.403 78.3659C150.291 78.0531 150.115 77.7528 149.84 77.5568C149.565 77.3566 149.227 77.269 148.897 77.2273C148.568 77.1856 148.238 77.2022 147.921 77.2106C147.292 77.2356 146.683 77.2106 146.236 76.9603C145.794 76.7226 145.561 76.3513 145.498 76.0802C145.465 75.9468 145.473 75.8341 145.477 75.7632C145.49 75.6923 145.502 75.6548 145.511 75.6589C145.531 75.6589 145.494 75.8133 145.581 76.0594C145.661 76.3013 145.894 76.6225 146.307 76.8268C146.716 77.0354 147.287 77.0479 147.913 77.0145C148.526 76.9895 149.302 76.9311 149.965 77.3858C150.291 77.6152 150.487 77.9655 150.599 78.295C150.72 78.6287 150.783 78.9582 150.862 79.2586C151.012 79.8508 151.296 80.3722 151.709 80.5599C151.909 80.6559 152.126 80.66 152.318 80.6976C152.51 80.7268 152.681 80.8102 152.777 80.9145C152.877 81.0187 152.918 81.1313 152.914 81.2064C152.918 81.2773 152.898 81.3107 152.893 81.3107Z" fill="#FAFAFA"/>
<path d="M150.404 84.8769C150.383 84.8811 150.37 84.7351 150.224 84.5433C150.087 84.3472 149.79 84.1387 149.373 84.0177C148.965 83.8801 148.422 83.8968 147.834 83.7049C147.546 83.609 147.238 83.4296 147.042 83.1418C146.841 82.8623 146.737 82.537 146.558 82.2742C146.191 81.7403 145.528 81.561 144.973 81.4233C144.406 81.2899 143.863 81.148 143.488 80.8602C143.113 80.5766 142.933 80.2179 142.896 79.9635C142.858 79.7049 142.921 79.5672 142.929 79.5714C142.95 79.5756 142.917 79.7132 142.979 79.9468C143.038 80.1762 143.225 80.4932 143.58 80.7393C143.934 80.9854 144.447 81.1105 145.023 81.2315C145.311 81.294 145.619 81.3733 145.924 81.5067C146.224 81.6402 146.533 81.8446 146.737 82.1533C146.937 82.4536 147.042 82.7747 147.217 83.0208C147.384 83.2669 147.634 83.4254 147.901 83.5172C148.435 83.7049 148.985 83.7091 149.419 83.8717C149.853 84.0177 150.162 84.2721 150.291 84.4974C150.358 84.61 150.387 84.7059 150.399 84.7727C150.408 84.8436 150.412 84.8769 150.404 84.8769Z" fill="#FAFAFA"/>
<path d="M161.916 79.2251C161.924 79.2251 161.92 79.2877 161.903 79.4003C161.882 79.513 161.832 79.6756 161.724 79.8675C161.511 80.2512 161.027 80.7059 160.318 81.0312C159.968 81.1981 159.572 81.3399 159.163 81.5234C158.758 81.7028 158.333 81.928 157.995 82.2825C157.286 82.9833 156.936 84.0677 156.439 85.1272C156.189 85.6569 155.893 86.1741 155.472 86.5662C155.367 86.6621 155.263 86.7622 155.142 86.8331C155.029 86.9166 154.913 86.9916 154.787 87.05C154.541 87.171 154.283 87.2544 154.033 87.3128C153.019 87.5255 152.097 87.4755 151.376 87.7049C150.646 87.9051 150.178 88.3556 149.978 88.7184C149.77 89.0855 149.791 89.3399 149.766 89.3358C149.761 89.3358 149.753 89.2774 149.761 89.1606C149.77 89.048 149.807 88.877 149.903 88.6809C150.091 88.2888 150.571 87.7883 151.33 87.5631C152.076 87.3086 153.019 87.342 153.987 87.1251C154.229 87.0667 154.47 86.9875 154.696 86.8749C154.813 86.8206 154.917 86.7497 155.025 86.6705C155.138 86.5996 155.23 86.512 155.33 86.4202C155.718 86.0531 156.001 85.561 156.247 85.0396C156.74 84.001 157.094 82.8873 157.857 82.1449C158.229 81.7695 158.679 81.5401 159.096 81.3607C159.517 81.1814 159.914 81.0479 160.26 80.8936C160.956 80.5933 161.432 80.1803 161.657 79.8258C161.878 79.4671 161.895 79.221 161.916 79.2251Z" fill="#FAFAFA"/>
<path d="M166.12 84.3847C166.12 84.3847 166.112 84.6517 165.853 85.0354C165.607 85.4233 165.077 85.8696 164.331 86.1908C163.588 86.5287 162.621 86.6872 161.703 87.1835C161.244 87.4296 160.84 87.8008 160.564 88.293C160.285 88.781 160.105 89.3525 159.859 89.9239C159.376 91.0834 158.5 91.9802 157.561 92.5183C156.618 93.0647 155.626 93.244 154.812 93.2232C153.995 93.2023 153.353 93.0146 152.935 92.8394C152.727 92.756 152.568 92.6726 152.468 92.6142C152.364 92.5558 152.314 92.5183 152.318 92.5141C152.326 92.4974 152.548 92.6142 152.969 92.7644C153.386 92.9104 154.024 93.073 154.817 93.073C155.605 93.0772 156.56 92.8853 157.461 92.3514C158.358 91.8259 159.192 90.9583 159.659 89.8446C159.897 89.2899 160.08 88.7101 160.377 88.1929C160.669 87.6715 161.119 87.2669 161.603 87.0167C162.571 86.512 163.538 86.3743 164.268 86.0615C165.006 85.7654 165.524 85.3566 165.782 85.0021C166.053 84.635 166.095 84.3764 166.12 84.3847Z" fill="#FAFAFA"/>
<path d="M169.903 88.4641C169.924 88.5099 169.16 88.7018 168.226 89.4818C167.767 89.8739 167.275 90.4161 166.904 91.121C166.716 91.4714 166.579 91.8676 166.403 92.2806C166.228 92.6851 165.99 93.1314 165.565 93.4109C165.148 93.6904 164.664 93.7821 164.226 93.8322C163.78 93.8822 163.358 93.8948 162.962 93.9615C162.17 94.0866 161.486 94.3327 160.939 94.5997C159.846 95.1377 159.308 95.7008 159.279 95.6633C159.271 95.6549 159.396 95.5089 159.655 95.2837C159.913 95.0585 160.318 94.754 160.868 94.4662C161.415 94.1784 162.116 93.9073 162.929 93.7696C163.338 93.6987 163.767 93.6779 164.197 93.6278C164.626 93.5778 165.073 93.486 165.44 93.2399C165.807 92.9938 166.032 92.5976 166.203 92.2055C166.374 91.8092 166.52 91.3963 166.72 91.0334C167.117 90.3077 167.638 89.7571 168.122 89.3692C168.614 88.9854 169.064 88.756 169.386 88.6267C169.548 88.5642 169.673 88.5183 169.761 88.4974C169.853 88.4682 169.899 88.4557 169.903 88.4641Z" fill="#FAFAFA"/>
<path d="M153.157 80.7393C153.14 80.6976 153.615 80.6475 154.112 80.1386C154.358 79.8926 154.596 79.5422 154.779 79.1167C154.963 78.6913 155.092 78.1908 155.226 77.661C155.359 77.1313 155.501 76.6183 155.722 76.1803C155.939 75.7424 156.218 75.3962 156.506 75.1584C156.794 74.9207 157.073 74.7997 157.273 74.7538C157.474 74.708 157.59 74.7205 157.59 74.7288C157.603 74.7705 157.123 74.7872 156.606 75.271C156.352 75.5046 156.097 75.8467 155.901 76.2638C155.705 76.6809 155.572 77.1814 155.438 77.7111C155.305 78.2408 155.171 78.7539 154.963 79.196C154.758 79.6381 154.496 79.9968 154.22 80.2471C153.945 80.4974 153.67 80.635 153.474 80.6934C153.273 80.756 153.157 80.7518 153.157 80.7393Z" fill="#FAFAFA"/>
<path d="M151.964 73.2523C151.91 73.2439 152.043 72.6224 152.56 72.0635C153.073 71.5004 153.678 71.3085 153.691 71.3628C153.72 71.4212 153.194 71.6839 152.719 72.2095C152.239 72.7267 152.022 73.2731 151.964 73.2523Z" fill="#FAFAFA"/>
<path d="M149.035 68.9644C149.06 68.9811 148.806 69.3565 148.381 69.9446C148.16 70.2366 147.93 70.5953 147.596 70.9623C147.425 71.1417 147.221 71.321 146.962 71.4337C146.7 71.5504 146.408 71.5713 146.128 71.5713C145.845 71.5713 145.582 71.5546 145.336 71.588C145.09 71.6213 144.864 71.7006 144.664 71.8132C144.264 72.0385 143.997 72.3805 143.859 72.6975C143.584 73.3523 143.734 73.8237 143.688 73.8237C143.676 73.8278 143.63 73.7194 143.605 73.515C143.58 73.3106 143.584 72.9978 143.717 72.6433C143.847 72.2887 144.126 71.8966 144.564 71.6422C144.781 71.5129 145.035 71.417 145.307 71.3794C145.582 71.3419 145.857 71.3586 146.128 71.3586C146.399 71.3586 146.658 71.3377 146.879 71.2418C147.1 71.1459 147.292 70.9915 147.455 70.8289C147.776 70.491 148.03 70.1323 148.264 69.8528C148.718 69.2856 149.01 68.9435 149.035 68.9644Z" fill="#FAFAFA"/>
<g opacity="0.2">
<path d="M154.575 78.7288L151.409 91.5548L148.639 87.6966L154.575 78.7288Z" fill="black"/>
</g>
<path d="M168.306 120.952C168.247 120.952 168.197 118.821 168.197 116.193C168.197 113.565 168.247 111.434 168.306 111.434C168.364 111.434 168.414 113.565 168.414 116.193C168.414 118.821 168.368 120.952 168.306 120.952Z" fill="#455A64"/>
<path d="M27.2831 97.315C28.5386 97.3693 29.7106 98.0616 30.5323 99.0168C31.354 99.9678 31.8504 101.161 32.1674 102.379C32.7763 104.735 32.3676 107.505 31.6752 109.837C29.1392 108.906 27.5959 106.178 26.8952 104.748C25.794 102.479 25.1767 97.7196 27.2831 97.315Z" fill="#478C6B"/>
<path d="M35.3122 112.715C34.5197 111.555 34.5155 109.953 35.1579 108.706C35.8044 107.459 37.0307 106.566 38.3737 106.166C38.9952 105.982 39.7168 105.907 40.2549 106.27C40.7554 106.612 40.9681 107.275 40.8972 107.876C40.8263 108.481 40.5176 109.027 40.1506 109.515C38.9035 111.18 37.3894 112.56 35.3122 112.715Z" fill="#478C6B"/>
<path d="M35.5247 120.569C35.5122 120.569 35.4747 120.398 35.4163 120.081C35.3495 119.73 35.2661 119.28 35.166 118.737C34.9741 117.611 34.6697 116.005 34.9283 114.237C35.1744 112.477 35.8876 110.975 36.6342 110.083C37.0013 109.632 37.3475 109.311 37.6061 109.115C37.7312 109.011 37.8397 108.948 37.9106 108.898C37.9815 108.852 38.0232 108.831 38.0232 108.835C38.0524 108.869 37.4267 109.244 36.7302 110.158C36.0252 111.054 35.3454 112.531 35.1034 114.262C34.8532 115.993 35.1326 117.582 35.2911 118.717C35.3787 119.284 35.4455 119.747 35.4872 120.068C35.5206 120.389 35.5372 120.564 35.5247 120.569Z" fill="#263238"/>
<path d="M28.0753 100.898C28.0795 100.894 28.117 100.961 28.1754 101.09C28.2421 101.236 28.3256 101.424 28.434 101.657C28.6551 102.153 28.9637 102.871 29.3391 103.763C30.0899 105.549 31.0951 108.03 32.1379 110.796C33.1848 113.561 34.0733 116.089 34.6906 117.924C34.9992 118.842 35.2453 119.588 35.4038 120.106C35.4789 120.352 35.5415 120.548 35.5874 120.702C35.6291 120.84 35.6457 120.911 35.6416 120.915C35.6374 120.915 35.6082 120.848 35.554 120.715C35.4998 120.564 35.4289 120.368 35.3413 120.131C35.1536 119.601 34.8908 118.867 34.5738 117.97C33.9273 116.143 33.018 113.628 31.9752 110.863C30.9283 108.097 29.9481 105.611 29.2265 103.814C28.872 102.929 28.5842 102.208 28.3714 101.686C28.2797 101.449 28.2046 101.257 28.1462 101.107C28.092 100.973 28.067 100.898 28.0753 100.898Z" fill="#263238"/>
<path d="M32.5465 115.346C31.0699 112.781 28.2837 111.017 25.3306 110.779C24.5798 110.717 23.6747 110.838 23.3326 111.509C22.9906 112.181 23.4328 112.986 23.9416 113.545C26.0522 115.872 29.6518 116.706 32.5715 115.551" fill="#478C6B"/>
<path d="M26.461 112.798C26.461 112.785 26.6278 112.794 26.9323 112.819C27.0824 112.831 27.2701 112.844 27.4829 112.886C27.6956 112.927 27.9417 112.952 28.2003 113.027C28.4631 113.094 28.755 113.161 29.0553 113.273C29.364 113.365 29.6768 113.503 30.0063 113.645C30.6612 113.949 31.3494 114.345 32.0084 114.854C32.6633 115.371 33.2097 115.951 33.6602 116.514C33.8729 116.802 34.0815 117.077 34.24 117.357C34.4151 117.624 34.5486 117.895 34.6696 118.137C34.803 118.375 34.8781 118.612 34.9615 118.808C35.0491 119.004 35.1034 119.184 35.1451 119.33C35.2327 119.622 35.2744 119.78 35.2619 119.784C35.2243 119.797 35.0491 119.146 34.557 118.191C34.4276 117.953 34.2942 117.695 34.1148 117.432C33.9522 117.161 33.7478 116.894 33.5309 116.61C33.0846 116.06 32.5423 115.497 31.9 114.988C31.2535 114.483 30.5778 114.091 29.9396 113.786C29.6143 113.64 29.3098 113.503 29.0095 113.407C28.7133 113.29 28.4297 113.219 28.1711 113.144C27.1283 112.881 26.4568 112.84 26.461 112.798Z" fill="#263238"/>
<path d="M75.296 93.208C75.296 92.664 75.4213 92.176 75.672 91.744C75.928 91.312 76.272 90.976 76.704 90.736C77.1413 90.4907 77.6187 90.368 78.136 90.368C78.728 90.368 79.2533 90.5147 79.712 90.808C80.176 91.096 80.512 91.5067 80.72 92.04H79.624C79.48 91.7467 79.28 91.528 79.024 91.384C78.768 91.24 78.472 91.168 78.136 91.168C77.768 91.168 77.44 91.2507 77.152 91.416C76.864 91.5813 76.6373 91.8187 76.472 92.128C76.312 92.4373 76.232 92.7973 76.232 93.208C76.232 93.6187 76.312 93.9787 76.472 94.288C76.6373 94.5973 76.864 94.8373 77.152 95.008C77.44 95.1733 77.768 95.256 78.136 95.256C78.472 95.256 78.768 95.184 79.024 95.04C79.28 94.896 79.48 94.6773 79.624 94.384H80.72C80.512 94.9173 80.176 95.328 79.712 95.616C79.2533 95.904 78.728 96.048 78.136 96.048C77.6133 96.048 77.136 95.928 76.704 95.688C76.272 95.4427 75.928 95.104 75.672 94.672C75.4213 94.24 75.296 93.752 75.296 93.208ZM83.6995 96.072C83.2835 96.072 82.9075 95.9787 82.5715 95.792C82.2355 95.6 81.9715 95.3333 81.7795 94.992C81.5875 94.6453 81.4915 94.2453 81.4915 93.792C81.4915 93.344 81.5902 92.9467 81.7875 92.6C81.9848 92.2533 82.2542 91.9867 82.5955 91.8C82.9368 91.6133 83.3182 91.52 83.7395 91.52C84.1608 91.52 84.5422 91.6133 84.8835 91.8C85.2248 91.9867 85.4942 92.2533 85.6915 92.6C85.8888 92.9467 85.9875 93.344 85.9875 93.792C85.9875 94.24 85.8862 94.6373 85.6835 94.984C85.4808 95.3307 85.2035 95.6 84.8515 95.792C84.5048 95.9787 84.1208 96.072 83.6995 96.072ZM83.6995 95.28C83.9342 95.28 84.1528 95.224 84.3555 95.112C84.5635 95 84.7315 94.832 84.8595 94.608C84.9875 94.384 85.0515 94.112 85.0515 93.792C85.0515 93.472 84.9902 93.2027 84.8675 92.984C84.7448 92.76 84.5822 92.592 84.3795 92.48C84.1768 92.368 83.9582 92.312 83.7235 92.312C83.4888 92.312 83.2702 92.368 83.0675 92.48C82.8702 92.592 82.7128 92.76 82.5955 92.984C82.4782 93.2027 82.4195 93.472 82.4195 93.792C82.4195 94.2667 82.5395 94.6347 82.7795 94.896C83.0248 95.152 83.3315 95.28 83.6995 95.28ZM89.1131 91.52C89.4597 91.52 89.7691 91.592 90.0411 91.736C90.3184 91.88 90.5344 92.0933 90.6891 92.376C90.8437 92.6587 90.9211 93 90.9211 93.4V96H90.0171V93.536C90.0171 93.1413 89.9184 92.84 89.7211 92.632C89.5237 92.4187 89.2544 92.312 88.9131 92.312C88.5717 92.312 88.2997 92.4187 88.0971 92.632C87.8997 92.84 87.8011 93.1413 87.8011 93.536V96H86.8891V91.592H87.8011V92.096C87.9504 91.9147 88.1397 91.7733 88.3691 91.672C88.6037 91.5707 88.8517 91.52 89.1131 91.52ZM93.9324 92.336H93.1164V96H92.1964V92.336H91.6764V91.592H92.1964V91.28C92.1964 90.7733 92.3297 90.4053 92.5964 90.176C92.8684 89.9413 93.2924 89.824 93.8684 89.824V90.584C93.591 90.584 93.3964 90.6373 93.2844 90.744C93.1724 90.8453 93.1164 91.024 93.1164 91.28V91.592H93.9324V92.336ZM95.2046 91.008C95.0393 91.008 94.9006 90.952 94.7886 90.84C94.6766 90.728 94.6206 90.5893 94.6206 90.424C94.6206 90.2587 94.6766 90.12 94.7886 90.008C94.9006 89.896 95.0393 89.84 95.2046 89.84C95.3646 89.84 95.5006 89.896 95.6126 90.008C95.7246 90.12 95.7806 90.2587 95.7806 90.424C95.7806 90.5893 95.7246 90.728 95.6126 90.84C95.5006 90.952 95.3646 91.008 95.2046 91.008ZM95.6526 91.592V96H94.7406V91.592H95.6526ZM97.762 92.232C97.8953 92.008 98.0713 91.8347 98.29 91.712C98.514 91.584 98.778 91.52 99.082 91.52V92.464H98.85C98.4927 92.464 98.2207 92.5547 98.034 92.736C97.8527 92.9173 97.762 93.232 97.762 93.68V96H96.85V91.592H97.762V92.232ZM105.256 91.52C105.603 91.52 105.912 91.592 106.184 91.736C106.462 91.88 106.678 92.0933 106.832 92.376C106.992 92.6587 107.072 93 107.072 93.4V96H106.168V93.536C106.168 93.1413 106.07 92.84 105.872 92.632C105.675 92.4187 105.406 92.312 105.064 92.312C104.723 92.312 104.451 92.4187 104.248 92.632C104.051 92.84 103.952 93.1413 103.952 93.536V96H103.048V93.536C103.048 93.1413 102.95 92.84 102.752 92.632C102.555 92.4187 102.286 92.312 101.944 92.312C101.603 92.312 101.331 92.4187 101.128 92.632C100.931 92.84 100.832 93.1413 100.832 93.536V96H99.9203V91.592H100.832V92.096C100.982 91.9147 101.171 91.7733 101.4 91.672C101.63 91.5707 101.875 91.52 102.136 91.52C102.488 91.52 102.803 91.5947 103.08 91.744C103.358 91.8933 103.571 92.1093 103.72 92.392C103.854 92.1253 104.062 91.9147 104.344 91.76C104.627 91.6 104.931 91.52 105.256 91.52Z" fill="white"/>
</svg>
