<svg width="21" height="21" viewBox="0 0 21 21" fill="none" xmlns="http://www.w3.org/2000/svg">
<g id="Group 5">
<circle id="Ellipse 44" cx="10.5" cy="10.5" r="10.5" fill="#69A4CE" fill-opacity="0.8"/>
<g id="Layer_3">
<path id="Vector" d="M14.0953 7.35367C14.0949 7.46007 14.1237 7.56454 14.1787 7.65564C14.2337 7.74674 14.3127 7.82095 14.407 7.87016C14.5013 7.91936 14.6074 7.94166 14.7136 7.93461C14.8197 7.92756 14.9219 7.89143 15.0089 7.83018C15.0959 7.76893 15.1644 7.68492 15.2068 7.58735C15.2493 7.48979 15.2641 7.38242 15.2495 7.27701C15.235 7.17161 15.1918 7.07222 15.1246 6.98975C15.0574 6.90728 14.9687 6.84489 14.8684 6.80942V6.00077C14.8684 5.96019 14.8557 5.92064 14.8319 5.88772C14.8082 5.8548 14.7747 5.83018 14.7362 5.81736L10.6775 4.46446C10.6379 4.45126 10.595 4.45126 10.5554 4.46446L6.49669 5.81736C6.45802 5.83007 6.42436 5.85466 6.40049 5.88763C6.37662 5.9206 6.36377 5.96027 6.36377 6.00097C6.36377 6.04167 6.37662 6.08133 6.40049 6.1143C6.42436 6.14727 6.45802 6.17187 6.49669 6.18458L7.79876 6.61847L7.52992 7.69325C7.52471 7.71561 7.52359 7.73872 7.52663 7.76147C7.49731 7.81705 7.47112 7.87422 7.44817 7.93271C7.30434 8.30479 7.2926 8.71497 7.41492 9.09466L7.75508 10.1466C7.59992 10.2247 7.47567 10.3528 7.40247 10.5103C7.32928 10.6678 7.31142 10.8454 7.35181 11.0143C7.39219 11.1832 7.48845 11.3335 7.62497 11.4408C7.76149 11.5482 7.93027 11.6062 8.10393 11.6056H8.22685C8.43132 12.2322 8.87277 12.7539 9.45683 13.0592V13.4044L7.8695 13.9997C7.42829 14.1667 7.04818 14.4638 6.77944 14.8515C6.51071 15.2393 6.36602 15.6995 6.36449 16.1713V16.2441C6.36449 16.2954 6.38486 16.3446 6.4211 16.3808C6.45735 16.4171 6.50651 16.4374 6.55777 16.4374H14.6752C14.7264 16.4374 14.7756 16.4171 14.8118 16.3808C14.8481 16.3446 14.8684 16.2954 14.8684 16.2441V16.1713C14.8669 15.6995 14.7222 15.2393 14.4535 14.8515C14.1847 14.4638 13.8046 14.1667 13.3634 13.9997L11.7761 13.4044V13.0592C12.3601 12.7539 12.8016 12.2322 13.0061 11.6056H13.129C13.3026 11.606 13.4712 11.5478 13.6075 11.4404C13.7439 11.333 13.84 11.1826 13.8802 11.0138C13.9205 10.8449 13.9026 10.6674 13.8294 10.5101C13.7562 10.3527 13.6319 10.2246 13.4769 10.1466L13.817 9.09466C13.9395 8.71531 13.9281 8.30544 13.7848 7.93349C13.7618 7.87499 13.7356 7.81782 13.7063 7.76225C13.7093 7.73949 13.7082 7.71638 13.703 7.69402L13.4342 6.61886L14.4819 6.26903V6.81019C14.3693 6.84998 14.2718 6.92353 14.2026 7.0208C14.1335 7.11806 14.096 7.23431 14.0953 7.35367ZM14.6752 7.54694C14.6369 7.54694 14.5996 7.53561 14.5678 7.51437C14.536 7.49313 14.5112 7.46295 14.4966 7.42763C14.482 7.39232 14.4781 7.35346 14.4856 7.31597C14.4931 7.27848 14.5115 7.24404 14.5385 7.21701C14.5655 7.18998 14.6 7.17157 14.6374 7.16411C14.6749 7.15666 14.7138 7.16049 14.7491 7.17511C14.7844 7.18974 14.8146 7.21451 14.8358 7.2463C14.8571 7.27808 14.8684 7.31545 14.8684 7.35367C14.8684 7.40493 14.8481 7.45409 14.8118 7.49034C14.7756 7.52658 14.7264 7.54694 14.6752 7.54694ZM8.10393 11.2191C8.00142 11.2191 7.9031 11.1784 7.83061 11.1059C7.75812 11.0334 7.71739 10.9351 7.71739 10.8326C7.71739 10.73 7.75812 10.6317 7.83061 10.5592C7.9031 10.4867 8.00142 10.446 8.10393 10.446V10.8326C8.10495 10.9621 8.11594 11.0913 8.13679 11.2191H8.10393ZM11.6178 13.7579L11.8708 13.8528L11.3472 14.7689L10.9064 14.3275L11.6178 13.7579ZM9.61512 13.7579L10.3266 14.3275L9.88512 14.7689L9.36155 13.8528L9.61512 13.7579ZM14.478 16.0509H6.7549C6.77932 15.679 6.91017 15.3221 7.13186 15.0226C7.35354 14.7231 7.6567 14.4937 8.00517 14.3617L8.99549 13.9902L9.67561 15.1812C9.69036 15.2069 9.71085 15.229 9.7355 15.2456C9.76015 15.2622 9.78829 15.2728 9.81774 15.2768C9.84718 15.2807 9.87714 15.2778 9.90528 15.2683C9.93343 15.2588 9.959 15.2429 9.98002 15.2219L10.6165 14.5847L11.2529 15.2212C11.2739 15.2422 11.2995 15.258 11.3276 15.2675C11.3558 15.2771 11.3857 15.28 11.4152 15.276C11.4446 15.2721 11.4728 15.2614 11.4974 15.2448C11.5221 15.2282 11.5426 15.2062 11.5573 15.1804L12.2374 13.9902L13.2277 14.3617C13.5762 14.4937 13.8794 14.7231 14.1011 15.0226C14.3227 15.3221 14.4536 15.679 14.478 16.0509ZM11.3895 13.4456L10.6165 14.064L9.84337 13.4456V13.2222C10.3457 13.386 10.8872 13.386 11.3895 13.2222V13.4456ZM12.7424 10.8326C12.7424 11.3964 12.5185 11.9371 12.1198 12.3358C11.7211 12.7345 11.1803 12.9585 10.6165 12.9585C10.0526 12.9585 9.51186 12.7345 9.11316 12.3358C8.71446 11.9371 8.49048 11.3964 8.49048 10.8326V9.75294L9.12692 10.3894C9.15851 10.421 9.20008 10.4407 9.24455 10.4451C9.28902 10.4495 9.33365 10.4383 9.37083 10.4135L10.2299 9.84088V10.2527C10.2299 10.2895 10.2404 10.3254 10.2601 10.3564C10.2798 10.3874 10.308 10.4121 10.3412 10.4277C10.3745 10.4433 10.4115 10.449 10.4479 10.4443C10.4843 10.4397 10.5187 10.4247 10.5469 10.4012L11.3895 9.69902V10.2527C11.3895 10.2882 11.3993 10.3231 11.4178 10.3534C11.4363 10.3837 11.4628 10.4083 11.4943 10.4246C11.5259 10.4408 11.5613 10.4481 11.5968 10.4455C11.6322 10.443 11.6662 10.4307 11.6951 10.4101L12.7424 9.66191V10.8326ZM13.129 11.2191H13.0961C13.117 11.0913 13.128 10.9621 13.129 10.8326V10.446C13.2315 10.446 13.3298 10.4867 13.4023 10.5592C13.4748 10.6317 13.5155 10.73 13.5155 10.8326C13.5155 10.9351 13.4748 11.0334 13.4023 11.1059C13.3298 11.1784 13.2315 11.2191 13.129 11.2191ZM13.4502 8.9758L13.129 9.96902V9.28638C13.129 9.25088 13.1192 9.21605 13.1007 9.18574C13.0822 9.15542 13.0558 9.13079 13.0242 9.11453C12.9926 9.09828 12.9572 9.09103 12.9218 9.0936C12.8863 9.09616 12.8523 9.10843 12.8234 9.12906L11.7761 9.87721V9.28638C11.7761 9.24966 11.7656 9.2137 11.7459 9.18271C11.7262 9.15173 11.698 9.127 11.6648 9.11143C11.6315 9.09585 11.5945 9.09008 11.5581 9.09477C11.5217 9.09947 11.4873 9.11445 11.4591 9.13795L10.6165 9.84011V9.47965C10.6165 9.44466 10.607 9.41033 10.589 9.38031C10.571 9.35029 10.5452 9.32572 10.5144 9.30921C10.4835 9.29271 10.4488 9.28488 10.4138 9.28658C10.3789 9.28828 10.345 9.29943 10.3159 9.31885L9.28811 10.004L8.43385 9.14974C8.40682 9.12272 8.37238 9.10432 8.3349 9.09686C8.29741 9.08941 8.25856 9.09324 8.22325 9.10786C8.18794 9.12249 8.15776 9.14725 8.13652 9.17903C8.11528 9.2108 8.10394 9.24816 8.10393 9.28638V9.96902L7.78272 8.9758C7.68763 8.68061 7.6967 8.36174 7.80842 8.07245C7.82118 8.03959 7.83606 8.0077 7.85133 7.97581L10.5666 8.69981C10.5993 8.70853 10.6337 8.70853 10.6663 8.69981L13.3816 7.97601C13.3969 8.0077 13.4117 8.03959 13.4245 8.07264C13.5362 8.36188 13.5452 8.68067 13.4502 8.9758ZM13.2819 7.60357L10.6165 8.31326L7.95106 7.60261L8.16655 6.74081L10.5554 7.53709C10.595 7.55029 10.6379 7.55029 10.6775 7.53709L13.0664 6.74081L13.2819 7.60357ZM10.6165 7.14996L7.16889 6.00077L10.6165 4.85158L14.064 6.00077L10.6165 7.14996Z" fill="black"/>
</g>
</g>
</svg>
