<svg width="27" height="27" viewBox="0 0 27 27" fill="none" xmlns="http://www.w3.org/2000/svg">
<g id="student icon">
<circle id="Ellipse 56" cx="13.5" cy="13.5" r="13.5" fill="#2D8FA5"/>
<g id="Group">
<g id="Group_2">
<g id="Group_3">
<path id="Vector" d="M13.4071 13.7284C15.4414 13.7284 17.11 12.0271 17.11 9.99275C17.11 7.95835 15.4414 6.28979 13.4071 6.28979C11.3727 6.28979 9.7041 7.99107 9.7041 10.0255C9.7041 12.0599 11.3727 13.7284 13.4071 13.7284ZM13.4071 7.50329C14.7722 7.50329 15.8965 8.6573 15.8965 10.0225C15.8965 11.3877 14.7722 12.5119 13.4071 12.5119C12.0419 12.5119 10.9176 11.3579 10.9176 9.99275C10.9176 8.62756 12.0389 7.50329 13.4071 7.50329Z" fill="white"/>
<path id="Vector_2" d="M16.0779 14.002C15.7447 13.8801 15.4086 14.002 15.257 14.3054C15.135 14.6385 15.257 14.9746 15.5603 15.1263C17.3836 15.9769 18.2937 17.1904 18.2937 18.8292V19.6799H8.6095V18.8292C8.6095 17.1904 9.48988 15.9739 11.3428 15.1263C11.6462 14.9746 11.7979 14.6088 11.6462 14.3054C11.4945 14.002 11.1287 13.8503 10.8253 14.002C8.54704 15.0341 7.36328 16.7026 7.36328 18.7995V20.2569C7.36328 20.59 7.63691 20.8636 7.97003 20.8636H18.8409C19.1741 20.8636 19.4477 20.59 19.5399 20.2569V18.7995C19.5399 16.7026 18.3234 15.0341 16.0779 14.002Z" fill="white"/>
<path id="Vector_3" d="M12.7998 14.6712V18.2849C12.7998 18.6181 13.0734 18.8917 13.4066 18.8917C13.7397 18.8917 14.0133 18.6181 14.0133 18.2849V14.6712C14.0133 14.3381 13.7397 14.0645 13.4066 14.0645C13.0705 14.0615 12.7998 14.3351 12.7998 14.6712Z" fill="white"/>
</g>
</g>
</g>
</g>
</svg>
