<svg width="58" height="57" viewBox="0 0 58 57" fill="none" xmlns="http://www.w3.org/2000/svg">
<path d="M43.2148 11.2381C43.6429 10.8263 43.89 10.2613 43.9015 9.66741C43.9131 9.07351 43.6882 8.49935 43.2764 8.07122L37.0659 1.61425C36.6542 1.18613 36.0892 0.93912 35.4953 0.927564C34.9014 0.916009 34.3272 1.14085 33.8991 1.55263L1.61424 32.6051C1.18612 33.0169 0.939109 33.5819 0.927553 34.1758C0.915998 34.7697 1.14084 35.3438 1.55262 35.772L7.76311 42.2289C8.1749 42.657 8.73988 42.9041 9.33378 42.9156C9.92769 42.9272 10.5019 42.7023 10.93 42.2905C11.3581 41.8788 11.9323 41.6539 12.5262 41.6655C13.1201 41.677 13.6851 41.924 14.0968 42.3522C14.5086 42.7803 14.7335 43.3545 14.7219 43.9484C14.7104 44.5423 14.4633 45.1072 14.0352 45.519C13.6071 45.9308 13.3601 46.4958 13.3485 47.0897C13.337 47.6836 13.5618 48.2578 13.9736 48.6859L20.1841 55.1429C20.5959 55.571 21.1609 55.818 21.7548 55.8296C22.3487 55.8411 22.9228 55.6163 23.351 55.2045L55.6358 24.152C56.0639 23.7402 56.3109 23.1753 56.3225 22.5814C56.334 21.9874 56.1092 21.4133 55.6974 20.9852L49.4869 14.5282C49.0751 14.1001 48.5102 13.8531 47.9163 13.8415C47.3224 13.8299 46.7482 14.0548 46.3201 14.4666C45.8919 14.8784 45.3178 15.1032 44.7239 15.0916C44.13 15.0801 43.565 14.8331 43.1532 14.405C42.7414 13.9768 42.5166 13.4027 42.5281 12.8088C42.5397 12.2149 42.7867 11.6499 43.2148 11.2381ZM38.7593 9.83665C38.1334 11.0792 37.9087 12.4855 38.1162 13.8612C38.3236 15.2369 38.953 16.5144 39.9175 17.5171C40.882 18.5199 42.134 19.1985 43.5006 19.4593C44.8672 19.7202 46.2811 19.5503 47.5471 18.9733L50.9163 22.4762L44.4593 28.6867L41.3541 25.4582L38.1256 28.5634L41.2309 31.7919L21.86 50.4234L18.4908 46.9205C19.1166 45.6779 19.3414 44.2717 19.1339 42.8959C18.9264 41.5202 18.297 40.2427 17.3325 39.24C16.3681 38.2372 15.1161 37.5586 13.7494 37.2978C12.3828 37.037 10.9689 37.2068 9.70292 37.7839L6.33373 34.281L25.7046 15.6495L28.8099 18.878L32.0384 15.7727L28.9331 12.5442L35.3901 6.33374L38.7593 9.83665ZM31.9151 22.1064L35.1436 19.0012L38.2489 22.2297L35.0204 25.3349L31.9151 22.1064Z" fill="white"/>
</svg>
