<svg width="21" height="21" viewBox="0 0 21 21" fill="none" xmlns="http://www.w3.org/2000/svg">
<g id="Group 44">
<circle id="Ellipse 45" cx="10.5" cy="10.5" r="10.5" fill="#69A4CE" fill-opacity="0.8"/>
<g id="Group">
<g id="Group_2">
<g id="Group_3">
<path id="Vector" d="M15.7988 9.83932C15.6481 9.68951 15.4047 9.68951 15.254 9.83932L14.0949 10.9984L14.6397 11.5432L15.0995 11.0834C14.7773 13.6237 12.4568 15.4217 9.91655 15.0995C7.37631 14.7773 5.57824 12.4568 5.90045 9.91659C6.19437 7.59945 8.16606 5.86275 10.5017 5.86364V5.09091C7.51438 5.0899 5.09183 7.5108 5.09082 10.4982C5.08981 13.4855 7.51071 15.9081 10.4981 15.9091C13.2841 15.91 15.6151 13.7946 15.8838 11.0216L16.4092 11.547L16.954 11.0023L15.7988 9.83932Z" fill="black"/>
<path id="Vector_2" d="M10.502 8.56818V10.5C10.5014 10.6027 10.5417 10.7014 10.614 10.7743L11.7731 11.9334L12.3179 11.3886L11.2747 10.3416V8.56818H10.502Z" fill="black"/>
</g>
</g>
</g>
</g>
</svg>
