<svg width="27" height="27" viewBox="0 0 27 27" fill="none" xmlns="http://www.w3.org/2000/svg">
<g id="time icon">
<circle id="Ellipse 56" cx="13.5" cy="13.5" r="13.5" fill="#2D8FA5"/>
<g id="Layer_1">
<path id="Vector" d="M13.4231 21.7074H13.4232C15.5788 21.7049 17.6455 20.8476 19.1697 19.3233C20.694 17.799 21.5514 15.7324 21.5538 13.5768V13.5767C21.5538 11.9686 21.0769 10.3966 20.1835 9.05952C19.2901 7.72244 18.0203 6.68031 16.5346 6.06492C15.0489 5.44952 13.4141 5.28851 11.8369 5.60223C10.2597 5.91596 8.81096 6.69033 7.67386 7.82743C6.53677 8.96452 5.76239 10.4133 5.44867 11.9905C5.13494 13.5677 5.29596 15.2025 5.91135 16.6882C6.52674 18.1739 7.56887 19.4437 8.90596 20.3371C10.243 21.2305 11.815 21.7074 13.4231 21.7074ZM9.34076 7.467C10.5491 6.65959 11.9698 6.22864 13.4231 6.22863C15.3712 6.23085 17.239 7.00574 18.6165 8.38329C19.9941 9.76084 20.7689 11.6285 20.7712 13.5767C20.7712 15.03 20.3402 16.4507 19.5328 17.659C18.7254 18.8674 17.5778 19.8092 16.2351 20.3654C14.8924 20.9216 13.415 21.0671 11.9896 20.7836C10.5642 20.5 9.25491 19.8002 8.22726 18.7725C7.19962 17.7449 6.49978 16.4356 6.21626 15.0102C5.93273 13.5848 6.07825 12.1074 6.6344 10.7647C7.19056 9.42203 8.13238 8.27442 9.34076 7.467Z" fill="white" stroke="white" stroke-width="0.153409"/>
<path id="Vector_2" d="M13.1463 7.98967C13.2197 8.06306 13.3192 8.10429 13.423 8.10429C13.5268 8.10429 13.6263 8.06306 13.6997 7.98967C13.7731 7.91629 13.8143 7.81676 13.8143 7.71297V6.93979C13.8143 6.83601 13.7731 6.73648 13.6997 6.66309C13.6263 6.58971 13.5268 6.54848 13.423 6.54848C13.3192 6.54848 13.2197 6.58971 13.1463 6.66309C13.0729 6.73648 13.0317 6.83601 13.0317 6.93979V7.71297C13.0317 7.81676 13.0729 7.91629 13.1463 7.98967Z" fill="white" stroke="white" stroke-width="0.153409"/>
<path id="Vector_3" d="M6.78629 13.968H7.55947C7.66325 13.968 7.76278 13.9268 7.83617 13.8534C7.90956 13.78 7.95078 13.6805 7.95078 13.5767C7.95078 13.4729 7.90956 13.3734 7.83617 13.3C7.76278 13.2266 7.66325 13.1854 7.55947 13.1854H6.78629C6.68251 13.1854 6.58297 13.2266 6.50959 13.3C6.4362 13.3734 6.39498 13.4729 6.39498 13.5767C6.39498 13.6805 6.4362 13.78 6.50959 13.8534C6.58297 13.9268 6.68251 13.968 6.78629 13.968Z" fill="white" stroke="white" stroke-width="0.153409"/>
<path id="Vector_4" d="M13.1463 20.4903C13.2197 20.5637 13.3192 20.605 13.423 20.605C13.5268 20.605 13.6263 20.5637 13.6997 20.4903C13.7731 20.417 13.8143 20.3174 13.8143 20.2136V19.4405C13.8143 19.3367 13.7731 19.2371 13.6997 19.1638C13.6263 19.0904 13.5268 19.0491 13.423 19.0491C13.3192 19.0491 13.2197 19.0904 13.1463 19.1638C13.0729 19.2371 13.0317 19.3367 13.0317 19.4405V20.2136C13.0317 20.3174 13.0729 20.417 13.1463 20.4903Z" fill="white" stroke="white" stroke-width="0.153409"/>
<path id="Vector_5" d="M19.2873 13.968H20.0604C20.1642 13.968 20.2638 13.9268 20.3371 13.8534C20.4105 13.78 20.4518 13.6805 20.4518 13.5767C20.4518 13.4729 20.4105 13.3734 20.3371 13.3C20.2638 13.2266 20.1642 13.1854 20.0604 13.1854H19.2873C19.1835 13.1854 19.084 13.2266 19.0106 13.3C18.9372 13.3734 18.896 13.4729 18.896 13.5767C18.896 13.6805 18.9372 13.78 19.0106 13.8534C19.084 13.9268 19.1835 13.968 19.2873 13.968Z" fill="white" stroke="white" stroke-width="0.153409"/>
<path id="Vector_6" d="M13.2268 13.9156L13.2266 13.9155C13.1673 13.8811 13.118 13.8317 13.0838 13.7722C13.0496 13.7127 13.0316 13.6453 13.0317 13.5767M13.2268 13.9156L13.0317 13.5767C13.0317 13.5767 13.0317 13.5767 13.0317 13.5767M13.2268 13.9156L15.0829 14.9871C15.0829 14.9871 15.0829 14.9871 15.0829 14.9871M13.2268 13.9156L15.0829 14.9871M13.0317 13.5767V9.14774C13.0317 9.09635 13.0418 9.04547 13.0615 8.99799C13.0811 8.95051 13.11 8.90738 13.1463 8.87104C13.1826 8.8347 13.2258 8.80588 13.2733 8.78621C13.3207 8.76655 13.3716 8.75643 13.423 8.75643C13.4744 8.75643 13.5253 8.76655 13.5728 8.78621C13.6202 8.80588 13.6634 8.8347 13.6997 8.87104C13.736 8.90738 13.7649 8.95051 13.7845 8.99799C13.8042 9.04547 13.8143 9.09635 13.8143 9.14774V13.3507L15.4748 14.3094C15.4748 14.3094 15.4748 14.3094 15.4749 14.3094C15.5495 14.3525 15.6078 14.4189 15.6408 14.4985C15.6738 14.5781 15.6796 14.6664 15.6573 14.7496C15.635 14.8329 15.5858 14.9064 15.5175 14.9588C15.4491 15.0113 15.3654 15.0397 15.2792 15.0397C15.2792 15.0397 15.2792 15.0397 15.2792 15.0397H15.2787L13.0317 13.5767ZM15.0829 14.9871C15.1424 15.0216 15.2099 15.0397 15.2786 15.0397L15.0829 14.9871Z" fill="white" stroke="white" stroke-width="0.153409"/>
</g>
</g>
</svg>
