<svg width="50" height="46" viewBox="0 0 50 46" fill="none" xmlns="http://www.w3.org/2000/svg">
<path fill-rule="evenodd" clip-rule="evenodd" d="M45.6914 39C45.4453 39 45.2812 38.8355 45.1992 38.671L42.082 32.7489C42 32.6667 42 32.5844 42 32.5022V6.09956C42 5.77056 42.2461 5.5238 42.5742 5.5238C42.9023 5.5238 43.1484 5.77056 43.1484 6.09956V32.3377L45.6914 37.2727L48.5625 32.3377V6.09956C48.5625 5.77056 48.8086 5.5238 49.1367 5.5238C49.4648 5.5238 49.7109 5.77056 49.7109 6.09956V32.5022C49.7109 32.5844 49.7109 32.7489 49.6289 32.7489L46.1836 38.671C46.1016 38.9177 45.8555 39 45.6914 39Z" fill="white" stroke="white" stroke-width="0.5"/>
<path fill-rule="evenodd" clip-rule="evenodd" d="M49.1367 6.67532H42.5742C42.2461 6.67532 42 6.42857 42 6.09957V4.8658C42 2.72727 43.7227 1 45.8555 1C47.9883 1 49.7109 2.72727 49.7109 4.8658V6.09957C49.7109 6.42857 49.4648 6.67532 49.1367 6.67532ZM43.1484 5.52381H48.5625V4.8658C48.5625 3.38528 47.332 2.15152 45.8555 2.15152C44.3789 2.15152 43.1484 3.38528 43.1484 4.8658V5.52381Z" fill="white" stroke="white" stroke-width="0.5"/>
<path d="M32.8571 1H7.14289C3.20455 1 0 4.15441 0 8.03121V38.9687C0 40.7997 1.19783 42.346 2.85711 42.9284V44.5937C2.85711 45.371 3.49604 46 4.2857 46H10C10.7897 46 11.4286 45.371 11.4286 44.5937V43.1875H28.5714V44.5937C28.5714 45.371 29.2103 46 30 46H35.7143C36.504 46 37.1429 45.371 37.1429 44.5937V42.9284C38.8022 42.346 40 40.7997 40 38.9687V8.03121C40 4.15441 36.7954 1 32.8571 1ZM7.14289 3.81247H32.8571C35.2204 3.81247 37.1428 5.70485 37.1428 8.03121V22.2648C34.1995 22.6284 26.472 23.4999 20 23.4999C13.532 23.4999 5.80154 22.6282 2.85719 22.2648V8.03121C2.85719 5.70493 4.7796 3.81247 7.14289 3.81247ZM35.7143 40.375H4.2857C3.49747 40.375 2.85711 39.7446 2.85711 38.9687V25.1003C6.08341 25.4949 13.5407 26.3126 19.9999 26.3126C26.4591 26.3126 33.9164 25.4949 37.1427 25.1003V38.9688C37.1428 39.7446 36.5025 40.375 35.7143 40.375Z" fill="white"/>
</svg>
