<svg width="182" height="179" viewBox="0 0 182 179" fill="none" xmlns="http://www.w3.org/2000/svg">
<g filter="url(#filter0_d_22_1600)">
<rect x="3" y="1" width="175.919" height="172.361" rx="20" fill="url(#paint0_linear_22_1600)"/>
</g>
<path d="M25.2457 54.4804C23.459 54.4804 22.0524 53.967 21.0257 52.9404C19.999 51.9137 19.4857 50.3937 19.4857 48.3804V40.3604H20.9657V48.3204C20.9657 49.9737 21.339 51.1937 22.0857 51.9804C22.8324 52.767 23.8857 53.1604 25.2457 53.1604C26.619 53.1604 27.679 52.767 28.4257 51.9804C29.1724 51.1937 29.5457 49.9737 29.5457 48.3204V40.3604H30.9857V48.3804C30.9857 50.3937 30.4724 51.9137 29.4457 52.9404C28.4324 53.967 27.0324 54.4804 25.2457 54.4804ZM40.5655 54.4604C39.6589 54.4604 38.8389 54.2537 38.1055 53.8404C37.3722 53.4137 36.7855 52.807 36.3455 52.0204C35.9189 51.2204 35.7055 50.247 35.7055 49.1004C35.7055 47.9537 35.9189 46.987 36.3455 46.2004C36.7722 45.4004 37.3522 44.7937 38.0855 44.3804C38.8189 43.967 39.6455 43.7604 40.5655 43.7604C41.5655 43.7604 42.4589 43.987 43.2455 44.4404C44.0455 44.8804 44.6722 45.507 45.1255 46.3204C45.5789 47.1204 45.8055 48.047 45.8055 49.1004C45.8055 50.167 45.5789 51.1004 45.1255 51.9004C44.6722 52.7004 44.0455 53.327 43.2455 53.7804C42.4589 54.2337 41.5655 54.4604 40.5655 54.4604ZM35.1455 58.2404V43.8604H36.5055V47.0204L36.3655 49.1204L36.5655 51.2404V58.2404H35.1455ZM40.4655 53.2004C41.2122 53.2004 41.8789 53.0337 42.4655 52.7004C43.0522 52.3537 43.5189 51.8737 43.8655 51.2604C44.2122 50.6337 44.3855 49.9137 44.3855 49.1004C44.3855 48.287 44.2122 47.5737 43.8655 46.9604C43.5189 46.347 43.0522 45.867 42.4655 45.5204C41.8789 45.1737 41.2122 45.0004 40.4655 45.0004C39.7189 45.0004 39.0455 45.1737 38.4455 45.5204C37.8589 45.867 37.3922 46.347 37.0455 46.9604C36.7122 47.5737 36.5455 48.287 36.5455 49.1004C36.5455 49.9137 36.7122 50.6337 37.0455 51.2604C37.3922 51.8737 37.8589 52.3537 38.4455 52.7004C39.0455 53.0337 39.7189 53.2004 40.4655 53.2004ZM53.0602 54.4604C52.0202 54.4604 51.0869 54.2337 50.2602 53.7804C49.4469 53.3137 48.8069 52.6804 48.3402 51.8804C47.8735 51.067 47.6402 50.1404 47.6402 49.1004C47.6402 48.047 47.8735 47.1204 48.3402 46.3204C48.8069 45.5204 49.4469 44.8937 50.2602 44.4404C51.0869 43.987 52.0202 43.7604 53.0602 43.7604C53.9535 43.7604 54.7602 43.9337 55.4802 44.2804C56.2002 44.627 56.7669 45.147 57.1802 45.8404L56.1202 46.5604C55.7602 46.027 55.3135 45.6337 54.7802 45.3804C54.2469 45.127 53.6669 45.0004 53.0402 45.0004C52.2935 45.0004 51.6202 45.1737 51.0202 45.5204C50.4202 45.8537 49.9469 46.327 49.6002 46.9404C49.2535 47.5537 49.0802 48.2737 49.0802 49.1004C49.0802 49.927 49.2535 50.647 49.6002 51.2604C49.9469 51.8737 50.4202 52.3537 51.0202 52.7004C51.6202 53.0337 52.2935 53.2004 53.0402 53.2004C53.6669 53.2004 54.2469 53.0737 54.7802 52.8204C55.3135 52.567 55.7602 52.1804 56.1202 51.6604L57.1802 52.3804C56.7669 53.0604 56.2002 53.5804 55.4802 53.9404C54.7602 54.287 53.9535 54.4604 53.0602 54.4604ZM64.074 54.4604C63.0606 54.4604 62.1473 54.2337 61.334 53.7804C60.534 53.3137 59.9006 52.6804 59.434 51.8804C58.9673 51.067 58.734 50.1404 58.734 49.1004C58.734 48.047 58.9673 47.1204 59.434 46.3204C59.9006 45.5204 60.534 44.8937 61.334 44.4404C62.134 43.987 63.0473 43.7604 64.074 43.7604C65.114 43.7604 66.034 43.987 66.834 44.4404C67.6473 44.8937 68.2806 45.5204 68.734 46.3204C69.2006 47.1204 69.434 48.047 69.434 49.1004C69.434 50.1404 69.2006 51.067 68.734 51.8804C68.2806 52.6804 67.6473 53.3137 66.834 53.7804C66.0206 54.2337 65.1006 54.4604 64.074 54.4604ZM64.074 53.2004C64.834 53.2004 65.5073 53.0337 66.094 52.7004C66.6806 52.3537 67.1406 51.8737 67.474 51.2604C67.8206 50.6337 67.994 49.9137 67.994 49.1004C67.994 48.2737 67.8206 47.5537 67.474 46.9404C67.1406 46.327 66.6806 45.8537 66.094 45.5204C65.5073 45.1737 64.8406 45.0004 64.094 45.0004C63.3473 45.0004 62.6806 45.1737 62.094 45.5204C61.5073 45.8537 61.0406 46.327 60.694 46.9404C60.3473 47.5537 60.174 48.2737 60.174 49.1004C60.174 49.9137 60.3473 50.6337 60.694 51.2604C61.0406 51.8737 61.5073 52.3537 62.094 52.7004C62.6806 53.0337 63.3406 53.2004 64.074 53.2004ZM85.453 43.7604C86.3064 43.7604 87.0464 43.927 87.673 44.2604C88.313 44.5804 88.8064 45.0737 89.153 45.7404C89.513 46.407 89.693 47.247 89.693 48.2604V54.3604H88.273V48.4004C88.273 47.2937 88.0064 46.4604 87.473 45.9004C86.953 45.327 86.213 45.0404 85.253 45.0404C84.533 45.0404 83.9064 45.1937 83.373 45.5004C82.853 45.7937 82.4464 46.227 82.153 46.8004C81.873 47.3604 81.733 48.0404 81.733 48.8404V54.3604H80.313V48.4004C80.313 47.2937 80.0464 46.4604 79.513 45.9004C78.9797 45.327 78.233 45.0404 77.273 45.0404C76.5664 45.0404 75.9464 45.1937 75.413 45.5004C74.8797 45.7937 74.4664 46.227 74.173 46.8004C73.893 47.3604 73.753 48.0404 73.753 48.8404V54.3604H72.333V43.8604H73.693V46.7004L73.473 46.2004C73.793 45.4404 74.3064 44.847 75.013 44.4204C75.733 43.9804 76.5797 43.7604 77.553 43.7604C78.5797 43.7604 79.453 44.0204 80.173 44.5404C80.893 45.047 81.3597 45.8137 81.573 46.8404L81.013 46.6204C81.3197 45.767 81.8597 45.0804 82.633 44.5604C83.4197 44.027 84.3597 43.7604 85.453 43.7604ZM93.544 54.3604V43.8604H94.964V54.3604H93.544ZM94.264 41.5404C93.9706 41.5404 93.724 41.4404 93.524 41.2404C93.324 41.0404 93.224 40.8004 93.224 40.5204C93.224 40.2404 93.324 40.007 93.524 39.8204C93.724 39.6204 93.9706 39.5204 94.264 39.5204C94.5573 39.5204 94.804 39.6137 95.004 39.8004C95.204 39.987 95.304 40.2204 95.304 40.5004C95.304 40.7937 95.204 41.0404 95.004 41.2404C94.8173 41.4404 94.5706 41.5404 94.264 41.5404ZM104.275 43.7604C105.128 43.7604 105.875 43.927 106.515 44.2604C107.168 44.5804 107.675 45.0737 108.035 45.7404C108.408 46.407 108.595 47.247 108.595 48.2604V54.3604H107.175V48.4004C107.175 47.2937 106.895 46.4604 106.335 45.9004C105.788 45.327 105.015 45.0404 104.015 45.0404C103.268 45.0404 102.615 45.1937 102.055 45.5004C101.508 45.7937 101.082 46.227 100.775 46.8004C100.482 47.3604 100.335 48.0404 100.335 48.8404V54.3604H98.9151V43.8604H100.275V46.7404L100.055 46.2004C100.388 45.4404 100.922 44.847 101.655 44.4204C102.388 43.9804 103.262 43.7604 104.275 43.7604ZM116.911 58.3404C115.951 58.3404 115.031 58.2004 114.151 57.9204C113.271 57.6404 112.557 57.2404 112.011 56.7204L112.731 55.6404C113.224 56.0804 113.831 56.427 114.551 56.6804C115.284 56.947 116.057 57.0804 116.871 57.0804C118.204 57.0804 119.184 56.767 119.811 56.1404C120.437 55.527 120.751 54.567 120.751 53.2604V50.6404L120.951 48.8404L120.811 47.0404V43.8604H122.171V53.0804C122.171 54.8937 121.724 56.2204 120.831 57.0604C119.951 57.9137 118.644 58.3404 116.911 58.3404ZM116.651 53.9604C115.651 53.9604 114.751 53.747 113.951 53.3204C113.151 52.8804 112.517 52.2737 112.051 51.5004C111.597 50.727 111.371 49.8404 111.371 48.8404C111.371 47.8404 111.597 46.9604 112.051 46.2004C112.517 45.427 113.151 44.827 113.951 44.4004C114.751 43.9737 115.651 43.7604 116.651 43.7604C117.584 43.7604 118.424 43.9537 119.171 44.3404C119.917 44.727 120.511 45.3004 120.951 46.0604C121.391 46.8204 121.611 47.747 121.611 48.8404C121.611 49.9337 121.391 50.8604 120.951 51.6204C120.511 52.3804 119.917 52.9604 119.171 53.3604C118.424 53.7604 117.584 53.9604 116.651 53.9604ZM116.791 52.7004C117.564 52.7004 118.251 52.5404 118.851 52.2204C119.451 51.887 119.924 51.4337 120.271 50.8604C120.617 50.2737 120.791 49.6004 120.791 48.8404C120.791 48.0804 120.617 47.4137 120.271 46.8404C119.924 46.267 119.451 45.8204 118.851 45.5004C118.251 45.167 117.564 45.0004 116.791 45.0004C116.031 45.0004 115.344 45.167 114.731 45.5004C114.131 45.8204 113.657 46.267 113.311 46.8404C112.977 47.4137 112.811 48.0804 112.811 48.8404C112.811 49.6004 112.977 50.2737 113.311 50.8604C113.657 51.4337 114.131 51.887 114.731 52.2204C115.344 52.5404 116.031 52.7004 116.791 52.7004ZM22.8937 69.3284H30.9817V72.3524H22.8937V69.3284ZM23.1817 76.2404H32.3257V79.3604H19.3177V62.5604H32.0137V65.6804H23.1817V76.2404ZM33.3826 79.3604L39.1666 71.7764L39.0946 73.8404L33.5506 66.4484H37.7506L41.2546 71.2724L39.6706 71.3204L43.2946 66.4484H47.2786L41.7106 73.7684V71.7524L47.4706 79.3604H43.2226L39.5506 74.2244L41.1106 74.4404L37.4626 79.3604H33.3826ZM56.9737 79.3604V76.8404L56.7337 76.2884V71.7764C56.7337 70.9764 56.4857 70.3524 55.9897 69.9044C55.5097 69.4564 54.7657 69.2324 53.7577 69.2324C53.0697 69.2324 52.3897 69.3444 51.7177 69.5684C51.0617 69.7764 50.5017 70.0644 50.0377 70.4324L48.6937 67.8164C49.3977 67.3204 50.2457 66.9364 51.2377 66.6644C52.2297 66.3924 53.2377 66.2564 54.2617 66.2564C56.2297 66.2564 57.7577 66.7204 58.8457 67.6484C59.9337 68.5764 60.4777 70.0244 60.4777 71.9924V79.3604H56.9737ZM53.0377 79.5524C52.0297 79.5524 51.1657 79.3844 50.4457 79.0484C49.7257 78.6964 49.1737 78.2244 48.7897 77.6324C48.4057 77.0404 48.2137 76.3764 48.2137 75.6404C48.2137 74.8724 48.3977 74.2004 48.7657 73.6244C49.1497 73.0484 49.7497 72.6004 50.5657 72.2804C51.3817 71.9444 52.4457 71.7764 53.7577 71.7764H57.1897V73.9604H54.1657C53.2857 73.9604 52.6777 74.1044 52.3417 74.3924C52.0217 74.6804 51.8617 75.0404 51.8617 75.4724C51.8617 75.9524 52.0457 76.3364 52.4137 76.6244C52.7977 76.8964 53.3177 77.0324 53.9737 77.0324C54.5977 77.0324 55.1577 76.8884 55.6537 76.6004C56.1497 76.2964 56.5097 75.8564 56.7337 75.2804L57.3097 77.0084C57.0377 77.8404 56.5417 78.4724 55.8217 78.9044C55.1017 79.3364 54.1737 79.5524 53.0377 79.5524ZM80.4022 66.2564C81.4262 66.2564 82.3302 66.4644 83.1142 66.8804C83.9142 67.2804 84.5382 67.9044 84.9862 68.7524C85.4502 69.5844 85.6822 70.6564 85.6822 71.9684V79.3604H81.9382V72.5444C81.9382 71.5044 81.7222 70.7364 81.2902 70.2404C80.8582 69.7444 80.2502 69.4964 79.4662 69.4964C78.9222 69.4964 78.4342 69.6244 78.0022 69.8804C77.5702 70.1204 77.2342 70.4884 76.9942 70.9844C76.7542 71.4804 76.6342 72.1124 76.6342 72.8804V79.3604H72.8902V72.5444C72.8902 71.5044 72.6742 70.7364 72.2422 70.2404C71.8262 69.7444 71.2262 69.4964 70.4422 69.4964C69.8982 69.4964 69.4102 69.6244 68.9782 69.8804C68.5462 70.1204 68.2102 70.4884 67.9702 70.9844C67.7302 71.4804 67.6102 72.1124 67.6102 72.8804V79.3604H63.8662V66.4484H67.4422V69.9764L66.7702 68.9444C67.2182 68.0644 67.8502 67.4004 68.6662 66.9524C69.4982 66.4884 70.4422 66.2564 71.4982 66.2564C72.6822 66.2564 73.7142 66.5604 74.5942 67.1684C75.4902 67.7604 76.0822 68.6724 76.3702 69.9044L75.0502 69.5444C75.4822 68.5364 76.1702 67.7364 77.1142 67.1444C78.0742 66.5524 79.1702 66.2564 80.4022 66.2564ZM93.3821 79.5524C92.2781 79.5524 91.2141 79.4244 90.1901 79.1684C89.1821 78.8964 88.3821 78.5604 87.7901 78.1604L89.0381 75.4724C89.6301 75.8404 90.3261 76.1444 91.1261 76.3844C91.9421 76.6084 92.7421 76.7204 93.5261 76.7204C94.3901 76.7204 94.9981 76.6164 95.3501 76.4084C95.7181 76.2004 95.9021 75.9124 95.9021 75.5444C95.9021 75.2404 95.7581 75.0164 95.4701 74.8724C95.1981 74.7124 94.8301 74.5924 94.3661 74.5124C93.9021 74.4324 93.3901 74.3524 92.8301 74.2724C92.2861 74.1924 91.7341 74.0884 91.1741 73.9604C90.6141 73.8164 90.1021 73.6084 89.6381 73.3364C89.1741 73.0644 88.7981 72.6964 88.5101 72.2324C88.2381 71.7684 88.1021 71.1684 88.1021 70.4324C88.1021 69.6164 88.3341 68.8964 88.7981 68.2724C89.2781 67.6484 89.9661 67.1604 90.8621 66.8084C91.7581 66.4404 92.8301 66.2564 94.0781 66.2564C94.9581 66.2564 95.8541 66.3524 96.7661 66.5444C97.6781 66.7364 98.4381 67.0164 99.0461 67.3844L97.7981 70.0484C97.1741 69.6804 96.5421 69.4324 95.9021 69.3044C95.2781 69.1604 94.6701 69.0884 94.0781 69.0884C93.2461 69.0884 92.6381 69.2004 92.2541 69.4244C91.8701 69.6484 91.6781 69.9364 91.6781 70.2884C91.6781 70.6084 91.8141 70.8484 92.0861 71.0084C92.3741 71.1684 92.7501 71.2964 93.2141 71.3924C93.6781 71.4884 94.1821 71.5764 94.7261 71.6564C95.2861 71.7204 95.8461 71.8244 96.4061 71.9684C96.9661 72.1124 97.4701 72.3204 97.9181 72.5924C98.3821 72.8484 98.7581 73.2084 99.0461 73.6724C99.3341 74.1204 99.4781 74.7124 99.4781 75.4484C99.4781 76.2484 99.2381 76.9604 98.7581 77.5844C98.2781 78.1924 97.5821 78.6724 96.6701 79.0244C95.7741 79.3764 94.6781 79.5524 93.3821 79.5524Z" fill="white"/>
<path d="M75.7744 153.26L88.6651 153.206L101.556 153.186L127.337 153.147L153.119 153.186L166.009 153.206L178.9 153.26L166.009 153.317L153.119 153.338L127.337 153.374L101.556 153.335L88.6651 153.317L75.7744 153.26Z" fill="#263238"/>
<path d="M88.3985 112.865C88.3985 112.865 94.3475 112.071 92.9573 105.226C92.9573 105.228 86.3108 106.648 88.3985 112.865Z" fill="#59D3AF"/>
<path opacity="0.1" d="M88.3985 112.865C88.3985 112.865 94.3475 112.071 92.9573 105.226C92.9573 105.228 86.3108 106.648 88.3985 112.865Z" fill="black"/>
<path d="M88.7006 111.438C88.8172 111.09 88.9529 110.752 89.1053 110.417C89.11 110.374 89.1172 110.328 89.1196 110.287C89.1291 110.192 89.1362 110.099 89.1434 110.004C89.16 109.799 89.1743 109.595 89.1862 109.391C89.2124 108.983 89.2386 108.572 89.2457 108.164C89.2457 108.141 89.2814 108.143 89.2814 108.164C89.2862 108.574 89.291 108.983 89.2743 109.393C89.2672 109.598 89.2529 109.802 89.2386 110.006C89.2362 110.051 89.2315 110.097 89.2291 110.142C89.5623 109.459 89.9647 108.808 90.4217 108.198C90.6265 107.925 90.8407 107.664 91.0716 107.413C91.3097 107.154 91.5596 106.907 91.8001 106.653C91.8144 106.637 91.8405 106.662 91.8239 106.678C91.3859 107.113 91.024 107.628 90.6764 108.13C90.4955 108.391 90.3241 108.658 90.1622 108.931C90.1813 108.924 90.2003 108.917 90.217 108.91C90.2884 108.883 90.3575 108.856 90.4289 108.828C90.5907 108.769 90.7526 108.71 90.9145 108.654C91.2335 108.54 91.5525 108.429 91.8715 108.313C91.8905 108.307 91.9048 108.338 91.8858 108.345C91.5692 108.465 91.2573 108.592 90.9431 108.722C90.7907 108.785 90.636 108.847 90.4812 108.91C90.4051 108.942 90.3265 108.971 90.2479 109.001C90.1956 109.021 90.1456 109.046 90.0908 109.053C89.9718 109.257 89.8528 109.464 89.7433 109.675C89.4671 110.203 89.2219 110.75 89.0172 111.308C89.0029 111.347 88.9886 111.388 88.9744 111.426C89.1219 111.331 89.3076 111.27 89.4624 111.202C89.6671 111.111 89.8742 111.025 90.0789 110.934C90.4955 110.75 90.9097 110.566 91.3097 110.351C91.3311 110.339 91.3478 110.371 91.3263 110.38C90.9169 110.594 90.517 110.82 90.1075 111.031C89.9028 111.138 89.698 111.24 89.4886 111.338C89.3172 111.417 89.1219 111.528 88.9291 111.551C88.7434 112.075 88.5863 112.604 88.5387 113.16C88.4721 113.933 88.4792 114.714 88.4602 115.49C88.4602 115.503 88.4387 115.503 88.4387 115.49C88.3792 114.787 88.3459 114.076 88.3435 113.368C88.3459 112.699 88.4863 112.073 88.7006 111.438Z" fill="#263238"/>
<path d="M89.6174 107.411C89.665 107.81 89.7055 108.216 89.6769 108.618C89.6769 108.629 89.6602 108.629 89.6578 108.618C89.634 108.218 89.6293 107.819 89.5817 107.42C89.5793 107.397 89.6126 107.39 89.6174 107.411Z" fill="#263238"/>
<path d="M91.317 107.753C91.5812 107.646 91.8431 107.547 92.0811 107.395C92.1002 107.383 92.1192 107.413 92.0978 107.424C91.8574 107.567 91.6003 107.705 91.3241 107.776C91.3122 107.783 91.3027 107.76 91.317 107.753Z" fill="#263238"/>
<path d="M88.2104 123.733C88.2152 123.107 88.2271 122.48 88.2342 121.854C88.2461 119.774 88.2652 117.693 88.3033 115.612C88.3342 113.961 88.3747 112.309 88.4247 110.657C88.4247 110.648 88.4318 110.641 88.4389 110.637C88.4413 110.185 88.4437 109.734 88.4461 109.284C88.4461 109.273 88.4604 109.269 88.4747 109.269C88.4889 109.269 88.5032 109.275 88.5032 109.287C88.5056 109.738 88.5104 110.19 88.5127 110.641C88.5199 110.646 88.527 110.653 88.527 110.662C88.6151 113.602 88.6937 116.543 88.7103 119.483C88.7151 120.082 88.7127 120.679 88.7175 121.278C88.7389 123.195 88.7484 125.112 88.7413 127.029C88.7437 127.336 88.7484 127.64 88.7484 127.946C88.7556 129.7 88.7294 131.454 88.7294 133.208C88.7294 133.303 88.6199 133.348 88.5032 133.353C88.3699 133.357 88.2271 133.307 88.2271 133.199C88.2271 131.263 88.2128 129.33 88.2128 127.395C88.2056 126.172 88.2009 124.951 88.2104 123.733Z" fill="#263238"/>
<path d="M90.693 121.829C90.693 121.829 93.5544 119.808 96.2706 121.174C98.9868 122.539 99.4129 127.801 99.4129 127.801C99.4129 127.801 95.4255 128.345 92.914 126.068C90.493 123.871 90.693 121.829 90.693 121.829Z" fill="#59D3AF"/>
<path d="M89.9148 121.954C90.4338 121.748 91.0098 121.695 91.5717 121.748C91.6859 121.723 91.8073 121.723 91.9216 121.716C92.0549 121.707 92.1906 121.698 92.3239 121.686C92.6024 121.666 92.881 121.65 93.1595 121.63C93.7237 121.589 94.2902 121.557 94.8544 121.503C94.8735 121.5 94.8782 121.534 94.8592 121.537C94.3021 121.605 93.7475 121.68 93.1881 121.734C92.9 121.761 92.612 121.791 92.3239 121.809C92.2573 121.813 92.1858 121.82 92.1144 121.829C92.2001 121.847 92.2858 121.868 92.3691 121.888C92.8191 122.009 93.2499 122.183 93.6665 122.39C93.8927 122.428 94.1165 122.487 94.3379 122.537C94.6926 122.617 95.0449 122.703 95.3972 122.791C96.0923 122.964 96.7803 123.159 97.4683 123.352C97.4897 123.359 97.4802 123.39 97.4588 123.386C96.7708 123.225 96.078 123.077 95.3877 122.921C95.052 122.843 94.7164 122.769 94.3807 122.691C94.295 122.671 94.2069 122.653 94.1165 122.632C94.8878 123.084 95.5805 123.665 96.1495 124.318C96.7184 124.969 97.1731 125.684 97.5635 126.442C97.573 126.462 97.5445 126.48 97.5326 126.46C97.0707 125.689 96.4875 124.96 95.8209 124.321C95.8328 124.357 95.8471 124.393 95.859 124.429C95.9114 124.591 95.9662 124.752 96.0185 124.91C96.1257 125.233 96.2328 125.553 96.3328 125.875C96.3399 125.897 96.3066 125.904 96.2971 125.884C96.1756 125.573 96.0614 125.26 95.9471 124.947C95.89 124.792 95.8328 124.64 95.7781 124.486C95.7495 124.407 95.721 124.327 95.6924 124.246C95.6829 124.221 95.6733 124.196 95.6638 124.173C95.3425 123.876 95.0044 123.599 94.6497 123.349C94.1807 123.018 93.6665 122.741 93.1309 122.519C93.1404 122.567 93.15 122.614 93.1595 122.66C93.1881 122.784 93.2166 122.909 93.2428 123.032C93.2999 123.29 93.3523 123.549 93.4047 123.808C93.5118 124.336 93.5785 124.87 93.6832 125.398C93.688 125.421 93.6523 125.428 93.6475 125.407C93.5189 124.876 93.3547 124.355 93.2285 123.821C93.1666 123.556 93.1024 123.29 93.0452 123.023C93.019 122.898 92.9928 122.773 92.9667 122.648C92.9524 122.578 92.9357 122.51 92.9262 122.44C92.8738 122.419 92.8238 122.396 92.7715 122.378C92.0216 122.113 91.1908 121.92 90.3909 122.068C89.6244 122.208 88.9697 122.696 88.6698 123.383C88.6436 123.442 88.546 123.406 88.5603 123.345C88.7102 122.691 89.2863 122.206 89.9148 121.954Z" fill="#263238"/>
<path d="M94.2949 124.2C94.3759 124.545 94.4568 124.892 94.5354 125.237C94.6115 125.566 94.7068 125.909 94.7353 126.245C94.7353 126.258 94.7163 126.258 94.7115 126.247C94.5949 125.922 94.5377 125.568 94.4687 125.23C94.3973 124.89 94.3283 124.547 94.2592 124.207C94.2545 124.187 94.2902 124.18 94.2949 124.2Z" fill="#263238"/>
<path d="M97.0614 125.081C97.4256 125.258 97.7779 125.457 98.1588 125.6C98.1826 125.609 98.1683 125.643 98.1445 125.632C97.7779 125.457 97.3994 125.303 97.0518 125.094C97.0447 125.087 97.0542 125.076 97.0614 125.081Z" fill="#263238"/>
<path d="M90.0506 118.118C90.0506 118.118 93.5476 118.331 95.1759 116.132C96.8018 113.934 96.4376 110.796 96.4376 110.796C96.4376 110.796 92.7644 111.222 91.3052 112.799C89.8459 114.378 90.0506 118.118 90.0506 118.118Z" fill="#59D3AF"/>
<path d="M88.4104 121.408C88.5318 121.051 88.6818 120.7 88.8223 120.348C88.9579 120.012 89.1032 119.679 89.2579 119.35C89.5721 118.678 89.9197 118.022 90.3053 117.385C90.5529 116.979 90.8172 116.586 91.0885 116.198C91.0933 116.139 91.1076 116.08 91.1147 116.021C91.1314 115.919 91.1457 115.815 91.1647 115.713C91.2004 115.502 91.2385 115.291 91.2742 115.08C91.3552 114.619 91.4551 114.163 91.5313 113.702C91.5361 113.682 91.5718 113.682 91.567 113.702C91.4956 114.156 91.448 114.614 91.3813 115.07C91.348 115.295 91.3171 115.517 91.2814 115.742C91.2695 115.824 91.2552 115.903 91.2409 115.985C91.7765 115.243 92.3502 114.528 92.9716 113.845C93.0549 113.752 93.1406 113.664 93.2263 113.573C93.2358 113.548 93.2477 113.523 93.2596 113.496C93.2858 113.432 93.312 113.369 93.3358 113.305C93.3882 113.174 93.4381 113.04 93.4881 112.908C93.5857 112.647 93.6738 112.384 93.7476 112.116C93.7548 112.094 93.7881 112.105 93.7833 112.125C93.7119 112.4 93.6381 112.672 93.5548 112.942C93.5143 113.074 93.4691 113.201 93.4215 113.33C93.4143 113.351 93.4048 113.373 93.3977 113.394C93.8452 112.929 94.3118 112.482 94.7808 112.039C94.7974 112.023 94.8212 112.048 94.807 112.064C93.8928 112.956 93.0858 113.941 92.3288 114.957C92.4145 114.932 92.5026 114.909 92.5883 114.894C92.8573 114.844 93.1287 114.807 93.4001 114.776C93.969 114.707 94.538 114.637 95.1045 114.553C95.1283 114.549 95.1355 114.583 95.1141 114.587C94.5713 114.689 94.0357 114.805 93.4977 114.923C93.2429 114.98 92.9882 115.025 92.7335 115.075C92.5216 115.116 92.324 115.177 92.1193 115.243C92.0622 115.32 92.0051 115.395 91.9479 115.474C91.6908 115.831 91.4456 116.194 91.2028 116.559C91.3218 116.536 91.4409 116.514 91.5599 116.493C91.8289 116.443 92.1003 116.396 92.3717 116.355C92.9049 116.271 93.4381 116.182 93.9666 116.069C93.9904 116.064 93.9976 116.098 93.9762 116.103C93.4405 116.223 92.912 116.361 92.3812 116.498C92.1241 116.563 91.867 116.622 91.6075 116.677C91.479 116.704 91.348 116.731 91.2195 116.756C91.1647 116.768 91.1123 116.781 91.0624 116.781C90.5505 117.571 90.072 118.379 89.6293 119.204C89.4341 119.567 89.246 119.933 89.0651 120.303C88.877 120.681 88.7175 121.067 88.5461 121.451C88.508 121.523 88.3819 121.491 88.4104 121.408Z" fill="#263238"/>
<path d="M91.9886 113.745C92.0552 113.428 92.1266 113.11 92.2004 112.795C92.2052 112.772 92.2409 112.783 92.2361 112.804C92.1695 113.117 92.1076 113.43 92.0481 113.743C91.9886 114.054 91.9409 114.374 91.8505 114.678C91.8481 114.682 91.8386 114.682 91.841 114.676C91.8552 114.365 91.9243 114.052 91.9886 113.745Z" fill="#263238"/>
<path d="M94.0287 113.655C94.1906 113.577 94.362 113.516 94.531 113.453C94.6191 113.421 94.7071 113.387 94.7952 113.353C94.8405 113.335 94.8857 113.319 94.9309 113.301C94.9785 113.282 95.038 113.269 95.0785 113.239C95.1047 113.221 95.1214 113.264 95.0952 113.269C95.0428 113.278 94.9928 113.307 94.9452 113.328C94.9 113.346 94.8571 113.366 94.8119 113.385C94.7262 113.421 94.6429 113.457 94.5572 113.493C94.3882 113.564 94.2168 113.636 94.0406 113.689C94.0215 113.693 94.0096 113.664 94.0287 113.655Z" fill="#263238"/>
<path d="M86.4702 115.497C86.4702 115.497 84.3539 111.728 81.133 111.145C77.9121 110.562 75.9434 113.72 75.9434 113.72C75.9434 113.72 78.293 116.579 81.2472 117.078C84.2015 117.577 86.4702 115.497 86.4702 115.497Z" fill="#59D3AF"/>
<path d="M78.9763 112.833C79.8095 112.724 80.6641 112.738 81.5021 112.863C81.4545 112.838 81.4069 112.813 81.3593 112.79C81.1212 112.674 80.8831 112.556 80.6451 112.438C80.1499 112.193 79.65 111.932 79.1334 111.735C79.1096 111.726 79.1239 111.694 79.1477 111.703C79.6524 111.928 80.1737 112.114 80.6784 112.336C80.9308 112.447 81.1807 112.563 81.4259 112.686C81.5854 112.765 81.7616 112.842 81.9163 112.938C82.6233 113.076 83.3137 113.289 83.9636 113.586C83.8303 113.448 83.6946 113.307 83.5613 113.169C83.2613 112.856 82.9661 112.527 82.6352 112.241C82.6186 112.225 82.6448 112.202 82.6614 112.216C82.9995 112.509 83.3542 112.779 83.6803 113.08C83.8398 113.228 83.9898 113.38 84.1374 113.537C84.2112 113.614 84.285 113.695 84.354 113.779C85.7538 114.505 86.9464 115.599 87.732 116.924C88.1795 117.677 88.4914 118.49 88.6723 119.336C88.6771 119.356 88.6437 119.37 88.639 119.347C88.1962 117.925 87.363 116.588 86.2727 115.529C85.0896 114.381 83.5946 113.55 81.9592 113.151C80.9879 112.913 79.9833 112.831 78.9811 112.892C78.9406 112.897 78.9358 112.84 78.9763 112.833Z" fill="#263238"/>
<path opacity="0.1" d="M75.9434 113.72C75.9434 113.72 78.293 116.579 81.2472 117.078C83.5016 117.459 85.3561 116.338 86.1083 115.787L86.2702 115.533C86.2702 115.533 84.7466 114.308 81.8614 113.602C78.9809 112.894 75.9434 113.72 75.9434 113.72Z" fill="black"/>
<path d="M80.8473 111.49C81.0925 111.633 81.3353 111.773 81.5615 111.939C81.7852 112.102 81.9947 112.282 82.1828 112.481C82.1994 112.5 82.1733 112.522 82.1542 112.506C81.94 112.329 81.7257 112.152 81.5043 111.984C81.2853 111.819 81.0639 111.658 80.8282 111.519C80.8068 111.508 80.8259 111.479 80.8473 111.49Z" fill="#263238"/>
<path d="M79.0787 112.127C79.1978 112.175 79.3192 112.216 79.4382 112.264C79.5572 112.311 79.6762 112.359 79.7977 112.406C79.8238 112.416 79.8119 112.456 79.7858 112.447C79.6667 112.402 79.5453 112.354 79.4263 112.309C79.3073 112.264 79.1882 112.209 79.0692 112.164C79.0478 112.152 79.0573 112.121 79.0787 112.127Z" fill="#263238"/>
<path d="M86.8938 120.239C86.8938 120.239 86.3272 123.976 83.3801 125.285C80.4306 126.592 76.8359 125.285 76.8359 125.285C76.8359 125.285 78.2476 117.198 86.8938 120.239Z" fill="#59D3AF"/>
<path d="M78.8668 122.852C79.1381 122.823 79.4095 122.777 79.6785 122.732C79.8118 122.709 79.9428 122.684 80.0737 122.662C80.1404 122.648 80.2094 122.634 80.2808 122.623C80.3594 122.553 80.4379 122.48 80.5189 122.412C81.0783 121.942 81.683 121.527 82.3233 121.167C82.6709 120.969 83.0327 120.792 83.4041 120.638C83.385 120.638 83.366 120.64 83.3493 120.64C83.0256 120.654 82.7018 120.665 82.3781 120.681C81.7306 120.71 81.0831 120.724 80.4355 120.763C80.4117 120.765 80.4141 120.729 80.4355 120.729C81.0854 120.685 81.7306 120.62 82.3781 120.565C82.6923 120.54 83.0065 120.513 83.3208 120.486C83.4827 120.472 83.6445 120.459 83.8064 120.445C83.8469 120.44 83.8897 120.436 83.9302 120.431C84.0992 120.372 84.2682 120.316 84.4396 120.263C85.2466 120.025 86.1108 119.93 86.9368 120.132C87.6796 120.313 88.4199 120.776 88.6104 121.523C88.6175 121.548 88.5747 121.566 88.5628 121.541C88.2866 120.917 87.5605 120.604 86.9059 120.474C86.4655 120.388 86.0156 120.393 85.5704 120.45C85.5514 120.64 85.4752 120.838 85.4204 121.014C85.3395 121.278 85.2585 121.541 85.1752 121.804C85.0086 122.328 84.8229 122.85 84.661 123.374C84.6539 123.395 84.6206 123.385 84.6253 123.365C84.7634 122.841 84.8777 122.31 85.011 121.786C85.0752 121.527 85.1443 121.271 85.2109 121.012C85.2538 120.847 85.2895 120.651 85.3585 120.481C85.099 120.524 84.8419 120.583 84.592 120.654C84.1397 120.781 83.6921 120.937 83.2565 121.121C83.2137 121.387 83.1518 121.652 83.0875 121.915C83.0065 122.244 82.9161 122.573 82.8066 122.895C82.7994 122.916 82.7685 122.907 82.7732 122.886C82.778 122.866 82.7828 122.845 82.7875 122.825C82.8542 122.519 82.9232 122.215 82.9923 121.908C83.047 121.663 83.097 121.414 83.1541 121.169C82.7875 121.325 82.4281 121.498 82.0781 121.688C82.071 121.765 82.0519 121.843 82.04 121.913C82.0186 122.04 81.9948 122.169 81.9686 122.296C81.9139 122.585 81.852 122.873 81.7806 123.156C81.6401 123.705 81.4854 124.254 81.2735 124.781C81.2783 124.788 81.2806 124.794 81.2735 124.804C81.2687 124.81 81.2616 124.815 81.2568 124.822C81.2449 124.835 81.2235 124.819 81.2259 124.804C81.3616 124.25 81.5187 123.701 81.6449 123.145C81.7091 122.868 81.7734 122.589 81.8305 122.312C81.8591 122.174 81.8877 122.033 81.9139 121.895C81.921 121.856 81.9282 121.813 81.9353 121.77C81.5377 121.995 81.1521 122.237 80.7879 122.501C80.1594 122.954 79.5547 123.469 79.031 124.03C79.0096 124.053 78.9691 124.021 78.9882 123.996C79.2119 123.714 79.4357 123.438 79.6904 123.179C79.838 123.027 79.9928 122.882 80.1499 122.739C80.1332 122.741 80.1166 122.743 80.0999 122.748C79.9618 122.771 79.8237 122.789 79.6833 122.807C79.4095 122.841 79.1358 122.868 78.8644 122.898C78.8525 122.889 78.843 122.855 78.8668 122.852Z" fill="#263238"/>
<path d="M80.9377 124.121C80.9424 124.089 80.9472 124.055 80.9543 124.023C80.9639 123.982 80.9829 123.941 80.9901 123.901C80.9901 123.901 80.9901 123.901 80.9901 123.898C81.0519 123.649 81.1019 123.397 81.1496 123.145C81.1519 123.127 81.1829 123.134 81.1805 123.15C81.1686 123.483 81.0805 123.814 80.9567 124.125C80.952 124.134 80.9353 124.134 80.9353 124.123C80.9377 124.123 80.9377 124.121 80.9377 124.121Z" fill="#263238"/>
<path d="M83.4065 124.062C83.4065 124.05 83.416 124.046 83.4232 124.046C83.5065 123.715 83.585 123.383 83.6565 123.05C83.6945 122.875 83.7326 122.7 83.7683 122.523C83.7874 122.428 83.8064 122.335 83.8231 122.24C83.8374 122.158 83.8469 122.072 83.8874 121.997C83.8945 121.983 83.9183 121.988 83.9207 122.002C83.9445 122.158 83.8778 122.349 83.8469 122.503C83.8112 122.684 83.7731 122.868 83.7326 123.05C83.6469 123.417 83.5493 123.785 83.4398 124.148C83.4327 124.168 83.3994 124.164 83.4017 124.141C83.4041 124.114 83.4041 124.087 83.4065 124.062Z" fill="#263238"/>
<path d="M79.1359 121.777C79.6739 121.707 80.2119 121.632 80.7523 121.57C80.7761 121.568 80.7832 121.6 80.7618 121.604C80.2238 121.679 79.6834 121.743 79.1454 121.811C79.1216 121.813 79.1121 121.779 79.1359 121.777Z" fill="#263238"/>
<path d="M88.4031 111.472C88.4031 111.472 90.2076 103.926 81.7019 100.872C81.7019 100.874 79.3451 110.805 88.4031 111.472Z" fill="#59D3AF"/>
<path d="M86.5678 107.193C86.5369 107.173 86.5059 107.154 86.4774 107.141C86.3155 107.057 86.156 106.971 85.9965 106.884L85.0109 106.358C84.3611 106.011 83.7207 105.652 83.066 105.312C83.0446 105.301 83.0637 105.271 83.0851 105.283C83.7397 105.623 84.4063 105.94 85.0657 106.272L86.0417 106.762C86.175 106.828 86.3083 106.896 86.4393 106.961C86.156 106.449 85.8513 105.945 85.5204 105.462C85.0752 104.815 84.5896 104.2 84.0825 103.597C84.0587 103.57 84.0968 103.533 84.1254 103.558C84.8753 104.243 85.5251 105.026 86.0917 105.857C86.0917 105.829 86.0893 105.804 86.0893 105.777C86.0798 105.589 86.0751 105.403 86.0727 105.214C86.0679 104.847 86.0846 104.477 86.0751 104.11C86.0751 104.087 86.1108 104.089 86.1108 104.11C86.1274 104.473 86.1727 104.833 86.1941 105.196C86.206 105.378 86.2131 105.557 86.2179 105.739C86.2203 105.836 86.2298 105.947 86.2274 106.054C86.4036 106.319 86.5702 106.589 86.7297 106.862C87.013 107.349 87.2677 107.858 87.4891 108.382C87.4986 108.194 87.5105 108.005 87.52 107.819C87.5462 107.406 87.5986 106.996 87.6177 106.58C87.6177 106.558 87.6534 106.56 87.6534 106.58C87.6438 106.993 87.6653 107.406 87.651 107.821C87.6438 108.028 87.6367 108.234 87.6224 108.441C87.6176 108.516 87.6129 108.593 87.6081 108.672C87.8795 109.348 88.0961 110.047 88.2509 110.746C88.4175 111.502 88.4842 112.259 88.5675 113.024C88.5675 113.028 88.558 113.028 88.558 113.024C88.4842 112.341 88.3009 111.651 88.1057 110.991C88.0009 110.635 87.889 110.281 87.77 109.929C87.4153 109.77 87.0773 109.573 86.7345 109.391C86.3798 109.203 86.0227 109.022 85.668 108.836C84.9586 108.466 84.2492 108.087 83.5183 107.76C83.4969 107.751 83.516 107.722 83.5374 107.731C84.2801 108.051 85.0276 108.355 85.7537 108.704C86.1155 108.879 86.4726 109.062 86.8273 109.253C87.1225 109.412 87.4272 109.571 87.7081 109.752C87.6248 109.519 87.5391 109.283 87.4463 109.053C87.1844 108.423 86.8916 107.801 86.5678 107.193Z" fill="#263238"/>
<path d="M87.2844 105.468C87.2868 105.446 87.3225 105.448 87.3201 105.468C87.2891 105.899 87.2748 106.328 87.2272 106.759C87.2249 106.784 87.1868 106.784 87.1868 106.759C87.2034 106.326 87.251 105.897 87.2844 105.468Z" fill="#263238"/>
<path d="M83.2064 106.909C83.7397 107.113 84.2753 107.309 84.8061 107.52C84.8204 107.526 84.8133 107.549 84.799 107.542C84.261 107.349 83.7301 107.141 83.1969 106.943C83.1755 106.934 83.185 106.9 83.2064 106.909Z" fill="#263238"/>
<path d="M82.3993 103.428C82.9206 103.658 83.4253 103.914 83.9109 104.202C83.9347 104.216 83.9133 104.252 83.8871 104.238C83.3944 103.964 82.8921 103.701 82.3802 103.458C82.3588 103.449 82.3779 103.419 82.3993 103.428Z" fill="#263238"/>
<path d="M82.5282 140.115H94.7952V127.79H82.5282V140.115Z" fill="#37474F"/>
<path d="M95.6402 132.15H95.0117V153.26H95.6402V132.15Z" fill="#263238"/>
<path d="M82.378 132.15H81.7495V153.26H82.378V132.15Z" fill="#263238"/>
<path d="M88.6744 132.15H88.0459V153.26H88.6744V132.15Z" fill="#263238"/>
<path d="M82.0636 141.03H95.3257V139.324H82.0636V141.03Z" fill="#263238"/>
<path d="M102.187 114.798H90.1721V144.845H102.187V114.798Z" fill="#59D3AF"/>
<path opacity="0.2" d="M102.187 114.798H90.1721V144.845H102.187V114.798Z" fill="black"/>
<path d="M164.505 114.798H152.49V144.845H164.505V114.798Z" fill="#59D3AF"/>
<path opacity="0.2" d="M164.505 114.798H152.49V144.845H164.505V114.798Z" fill="black"/>
<path d="M152.493 93.6475H102.185V144.845H152.493V93.6475Z" fill="#59D3AF"/>
<path opacity="0.2" d="M152.493 93.6475H102.185V144.845H152.493V93.6475Z" fill="black"/>
<g opacity="0.2">
<path d="M152.783 114.798H152.497V144.842H152.783V114.798Z" fill="black"/>
<path d="M102.327 114.798H102.042V144.842H102.327V114.798Z" fill="black"/>
<path d="M152.788 136.123H102.042V126.805H152.785V136.123H152.788ZM102.337 135.844H152.495V127.084H102.337V135.844Z" fill="black"/>
</g>
<g opacity="0.2">
<path d="M105.317 110.076C105.06 110.076 105.06 110.455 105.317 110.455C105.574 110.455 105.574 110.076 105.317 110.076Z" fill="black"/>
<path d="M105.658 133.276C105.401 133.276 105.401 133.655 105.658 133.655C105.915 133.655 105.915 133.276 105.658 133.276Z" fill="black"/>
<path d="M119.253 129.652C119.243 129.632 119.234 129.614 119.222 129.596C119.189 129.541 119.101 129.541 119.067 129.596C119.055 129.614 119.046 129.632 119.036 129.652C118.924 129.877 119.367 129.877 119.253 129.652Z" fill="black"/>
<path d="M99.3943 133.752C99.3848 133.732 99.3753 133.714 99.3634 133.696C99.3301 133.641 99.242 133.641 99.2087 133.696C99.1968 133.714 99.1872 133.732 99.1777 133.752C99.0658 133.977 99.5086 133.977 99.3943 133.752Z" fill="black"/>
<path d="M107.029 111.233C106.834 111.233 106.834 111.524 107.029 111.524C107.224 111.524 107.224 111.233 107.029 111.233Z" fill="black"/>
<path d="M96.4401 125.938C96.2449 125.938 96.2449 126.228 96.4401 126.228C96.6353 126.226 96.6353 125.938 96.4401 125.938Z" fill="black"/>
<path d="M116.389 103.152C116.315 103.074 116.165 103.074 116.092 103.152C116.011 103.238 115.996 103.313 116.02 103.426C116.061 103.635 116.422 103.635 116.463 103.426C116.484 103.315 116.472 103.24 116.389 103.152Z" fill="black"/>
<path d="M107.324 132.202C107.25 132.125 107.1 132.125 107.026 132.202C106.945 132.289 106.931 132.363 106.955 132.477C106.995 132.686 107.357 132.686 107.398 132.477C107.419 132.363 107.405 132.289 107.324 132.202Z" fill="black"/>
<path d="M149.122 134.158C149.379 134.158 149.379 133.779 149.122 133.779C148.865 133.777 148.865 134.158 149.122 134.158Z" fill="black"/>
<path d="M137.043 108.847C137.3 108.847 137.3 108.468 137.043 108.468C136.786 108.468 136.786 108.847 137.043 108.847Z" fill="black"/>
<path d="M155.566 132.368C155.575 132.389 155.585 132.407 155.597 132.425C155.63 132.479 155.718 132.479 155.752 132.425C155.764 132.407 155.773 132.389 155.783 132.368C155.894 132.144 155.454 132.144 155.566 132.368Z" fill="black"/>
<path d="M130.972 120.944C131.046 121.021 131.196 121.021 131.27 120.944C131.351 120.858 131.365 120.783 131.341 120.67C131.301 120.461 130.939 120.461 130.899 120.67C130.879 120.781 130.891 120.856 130.972 120.944Z" fill="black"/>
</g>
<g opacity="0.2">
<path d="M102.33 136.123C102.33 136.123 114.999 138.478 127.399 138.478C139.799 138.478 152.49 136.123 152.49 136.123H102.33Z" fill="black"/>
</g>
<path d="M164.502 142.202H90.1721V144.843H164.502V142.202Z" fill="#37474F"/>
<path d="M106.265 144.845L103.21 150.805L100.142 156.797H97.4685L98.4612 150.805L99.4491 144.845H106.265Z" fill="#37474F"/>
<path d="M99.4491 144.845H106.267L104.413 148.459H98.8516L99.4491 144.845Z" fill="#263238"/>
<path d="M156.061 156.797H153.39L150.322 150.805L147.265 144.845H154.083L155.069 150.805L156.061 156.797Z" fill="#37474F"/>
<path d="M154.681 148.459H149.12L147.265 144.845H154.081L154.681 148.459Z" fill="#263238"/>
<path d="M156.689 131.965C156.473 131.336 144.798 116.638 144.003 116.355C143.913 116.318 138.695 119.856 138.695 119.856C138.48 120.13 128.561 118.131 128.561 118.131L128.461 129.535L146.527 129.169C146.527 129.169 148.967 130.538 151.2 131.652C151.204 131.652 151.204 131.654 151.207 131.652C152.58 132.341 153.797 132.922 154.142 133.008C155.047 133.228 156.911 132.589 156.689 131.965Z" fill="#AD6359"/>
<path d="M154.145 133.008C153.797 132.924 152.581 132.341 151.209 131.652C151.207 131.654 151.205 131.652 151.2 131.652C148.969 130.538 146.529 129.169 146.529 129.169L142.508 129.251L136.212 119.57C137.593 119.804 138.623 119.942 138.692 119.856C138.692 119.856 143.908 116.316 143.999 116.355C144.796 116.638 156.468 131.336 156.685 131.962C156.911 132.589 155.047 133.231 154.145 133.008Z" fill="white"/>
<path d="M156.794 131.983C156.566 131.338 144.839 116.65 144.022 116.357C143.713 116.246 141.161 117.748 138.692 119.853L146.263 129.314C146.263 129.314 153.247 132.84 154.18 133.067C155.113 133.296 157.025 132.627 156.794 131.983Z" fill="#59D3AF"/>
<path d="M156.011 132.219C153.983 129.802 146.039 119.874 144.225 117.337C144.211 117.317 144.225 117.305 144.242 117.326C146.308 119.679 154.166 129.668 156.054 132.189C156.092 132.241 156.054 132.271 156.011 132.219Z" fill="#263238"/>
<path d="M152.873 132.53C152.383 131.965 152.218 131.182 152.328 130.599C152.435 130.038 152.718 129.419 153.268 129.049C153.285 129.038 153.306 129.065 153.292 129.079C152.392 129.952 152.204 131.472 152.906 132.507C152.921 132.525 152.89 132.548 152.873 132.53Z" fill="#263238"/>
<path d="M147.138 129.902C146.338 128.927 145.791 127.52 146.148 126.295C146.162 126.247 146.231 126.267 146.241 126.308C146.469 127.549 146.786 128.657 147.281 129.83C147.314 129.909 147.195 129.973 147.138 129.902Z" fill="#263238"/>
<path d="M148.057 130.438C147.258 129.462 146.71 128.055 147.067 126.83C147.081 126.783 147.15 126.803 147.16 126.844C147.389 128.085 147.705 129.192 148.2 130.363C148.234 130.445 148.115 130.508 148.057 130.438Z" fill="#263238"/>
<path d="M148.976 130.973C148.176 129.997 147.629 128.591 147.986 127.365C148 127.318 148.069 127.338 148.079 127.379C148.307 128.62 148.624 129.727 149.119 130.9C149.152 130.98 149.033 131.043 148.976 130.973Z" fill="#263238"/>
<path d="M149.895 131.509C149.095 130.533 148.548 129.126 148.905 127.901C148.919 127.853 148.988 127.874 148.998 127.915C149.226 129.156 149.543 130.263 150.038 131.436C150.071 131.515 149.952 131.579 149.895 131.509Z" fill="#263238"/>
<path d="M142.273 119.744C141.394 118.637 143.199 117.333 144.079 118.442C144.958 119.552 143.153 120.854 142.273 119.744Z" fill="#263238"/>
<path d="M146.684 131.79C146.979 130.737 146.786 129.598 146.734 128.525C146.729 128.414 146.6 128.375 146.51 128.409C146.498 128.391 146.477 128.382 146.455 128.4C145.608 129.101 144.858 130.186 144.525 131.213C144.32 131.849 144.396 132.784 145.229 132.967C146.017 133.142 146.51 132.405 146.684 131.79ZM145.862 132.457C144.66 133.174 144.751 131.581 144.922 131.118C145.032 130.821 145.182 130.533 145.332 130.251C145.648 129.666 146.046 129.135 146.42 128.586C146.41 129.115 146.448 129.637 146.46 130.165C146.477 130.794 146.527 132.062 145.862 132.457Z" fill="#263238"/>
<path d="M143.001 125.378C142.387 125.945 142.827 126.785 143.346 127.227C144.186 127.944 145.415 128.504 146.522 128.688C146.548 128.693 146.562 128.675 146.562 128.654C146.657 128.638 146.748 128.541 146.691 128.443C146.155 127.502 145.705 126.428 144.882 125.671C144.403 125.23 143.582 124.842 143.001 125.378ZM145.574 127.175C145.85 127.633 146.1 128.101 146.393 128.548C145.774 128.262 145.146 128.001 144.558 127.654C144.277 127.488 143.994 127.313 143.739 127.114C143.344 126.803 142.401 125.48 143.822 125.505C144.603 125.519 145.246 126.63 145.574 127.175Z" fill="#263238"/>
<path d="M128.013 114.635H119.905C119.905 114.635 111.423 110.748 104.591 112.314C96.7592 114.108 95.757 123.486 101.613 126.8C109.031 131 142.037 130.188 142.037 130.188L134.9 118.662C134.9 118.662 123.924 116.459 113.971 116.779L128.013 118.603V114.635Z" fill="#263238"/>
<path d="M135.377 119.406C135.367 119.392 135.365 119.363 135.362 119.347C135.357 119.331 135.355 119.315 135.35 119.299C135.341 119.263 135.331 119.224 135.319 119.188C135.296 119.111 135.267 119.038 135.236 118.964C135.205 118.889 135.172 118.816 135.136 118.743C135.098 118.669 135.05 118.61 135.003 118.539C134.998 118.532 134.991 118.53 134.984 118.526C134.979 118.523 134.977 118.519 134.972 118.517C134.965 118.514 134.96 118.51 134.955 118.51C134.948 118.508 134.943 118.503 134.936 118.503C133.729 118.29 125.526 117.171 124.307 117.037C123.076 116.903 121.843 116.794 120.61 116.695C118.151 116.497 115.677 116.4 113.209 116.441C112.978 116.445 112.747 116.454 112.516 116.461C112.468 116.445 112.414 116.436 112.364 116.425C112.245 116.397 112.128 116.37 112.007 116.348C111.783 116.307 111.559 116.275 111.335 116.243C110.869 116.175 110.4 116.127 109.936 116.046C109.907 116.041 109.895 116.082 109.924 116.087C110.39 116.186 110.85 116.313 111.319 116.411C111.454 116.438 111.588 116.468 111.723 116.493C110.819 116.538 109.914 116.604 109.012 116.683C108.983 116.686 108.983 116.729 109.012 116.726C110.24 116.658 111.481 116.649 112.711 116.67C113.935 116.69 115.156 116.715 116.377 116.781C118.846 116.915 121.315 117.126 123.774 117.373C125.154 117.511 133.517 118.673 134.903 118.73C134.91 118.73 134.915 118.728 134.919 118.728C134.931 118.757 134.941 118.789 134.958 118.818C134.996 118.891 135.034 118.961 135.074 119.032C135.115 119.1 135.153 119.165 135.198 119.231C135.219 119.263 135.243 119.295 135.267 119.327C135.279 119.342 135.291 119.358 135.3 119.374C135.31 119.388 135.331 119.408 135.336 119.424C135.346 119.451 135.393 119.433 135.377 119.406Z" fill="#455A64"/>
<path d="M139.464 129.487C139.021 128.813 138.645 128.093 138.24 127.399C137.836 126.703 137.429 126.006 137.022 125.31C136.21 123.921 133.296 119.252 133.008 118.925C132.989 118.904 132.953 118.927 132.963 118.952C133.101 119.313 134.92 122.405 135.339 123.095C136.177 124.475 137.055 125.825 137.924 127.186C138.171 127.574 138.429 127.957 138.678 128.345C138.928 128.731 139.197 129.112 139.428 129.509C139.438 129.534 139.478 129.512 139.464 129.487Z" fill="#455A64"/>
<path d="M132.924 120.089C132.196 119.923 131.451 119.814 130.715 119.681C129.977 119.547 129.239 119.415 128.501 119.286C127.025 119.025 125.547 118.773 124.066 118.537C121.112 118.063 118.146 117.67 115.166 117.398C113.482 117.244 111.795 117.142 110.109 117.026C110.074 117.024 110.074 117.078 110.112 117.08C113.116 117.21 116.113 117.598 119.089 118.004C122.033 118.408 124.971 118.85 127.906 119.322C128.735 119.456 129.563 119.59 130.389 119.728C131.23 119.867 132.07 120.039 132.917 120.141C132.944 120.139 132.958 120.096 132.924 120.089Z" fill="#455A64"/>
<path d="M141.313 169.471C140.602 169.403 122.921 161.83 122.438 161.133C122.252 160.87 123.262 158.352 124.569 155.341C124.852 154.69 125.147 154.02 125.452 153.342C127.423 148.933 129.62 144.3 129.62 144.3L141.463 149.335L136.969 158.238L135.983 160.194C135.983 160.194 141.392 165.98 141.837 166.796C142.275 167.611 142.025 169.539 141.313 169.471Z" fill="#AD6359"/>
<path d="M141.313 169.471C140.602 169.403 122.921 161.83 122.438 161.133C122.214 160.813 123.747 157.16 125.452 153.342L136.969 158.238L135.983 160.194C135.983 160.194 141.392 165.979 141.837 166.796C142.275 167.611 142.025 169.539 141.313 169.471Z" fill="white"/>
<path d="M141.313 169.471C140.602 169.403 122.921 161.83 122.438 161.133C122.252 160.87 123.262 158.352 124.569 155.341L135.983 160.194C135.983 160.194 141.392 165.98 141.837 166.796C142.275 167.611 142.025 169.54 141.313 169.471Z" fill="#5A5A5A"/>
<path d="M141.378 168.689C138.447 167.35 126.49 162.211 123.485 161.102C123.462 161.093 123.454 161.109 123.476 161.12C126.352 162.509 138.35 167.552 141.354 168.737C141.421 168.759 141.44 168.718 141.378 168.689Z" fill="#263238"/>
<path d="M140.985 165.703C140.294 165.374 139.456 165.399 138.885 165.633C138.335 165.857 137.766 166.263 137.511 166.858C137.504 166.876 137.538 166.89 137.547 166.874C138.238 165.841 139.752 165.322 140.968 165.739C140.992 165.748 141.009 165.714 140.985 165.703Z" fill="#263238"/>
<path d="M137 160.968C135.822 160.443 134.258 160.253 133.084 160.863C133.039 160.886 133.074 160.947 133.117 160.945C134.439 160.877 135.643 160.922 136.955 161.115C137.048 161.129 137.086 161.006 137 160.968Z" fill="#263238"/>
<path d="M137.757 161.7C136.578 161.176 135.014 160.986 133.841 161.596C133.796 161.619 133.831 161.68 133.874 161.678C135.195 161.61 136.4 161.655 137.712 161.848C137.804 161.862 137.84 161.737 137.757 161.7Z" fill="#263238"/>
<path d="M138.511 162.433C137.333 161.909 135.769 161.719 134.595 162.329C134.55 162.352 134.586 162.413 134.629 162.411C135.95 162.343 137.155 162.388 138.466 162.581C138.559 162.594 138.597 162.47 138.511 162.433Z" fill="#263238"/>
<path d="M139.266 163.166C138.088 162.642 136.524 162.452 135.35 163.062C135.305 163.085 135.341 163.146 135.383 163.144C136.705 163.076 137.909 163.121 139.221 163.314C139.314 163.327 139.352 163.203 139.266 163.166Z" fill="#263238"/>
<path d="M125.507 158.742C124.174 158.175 123.247 160.149 124.583 160.716C125.916 161.281 126.842 159.309 125.507 158.742Z" fill="#263238"/>
<path d="M139.707 158.499C139.331 157.766 138.354 157.907 137.752 158.241C136.776 158.783 135.836 159.724 135.31 160.671C135.298 160.693 135.312 160.711 135.331 160.718C135.319 160.811 135.386 160.92 135.503 160.902C136.61 160.707 137.819 160.63 138.831 160.117C139.421 159.817 140.061 159.191 139.707 158.499ZM137.117 160.28C136.574 160.389 136.031 160.471 135.493 160.598C135.972 160.126 136.424 159.636 136.952 159.209C137.205 159.005 137.467 158.801 137.745 158.633C138.178 158.37 139.79 157.923 139.328 159.205C139.071 159.91 137.764 160.151 137.117 160.28Z" fill="#263238"/>
<path d="M132.165 159.829C133.127 160.423 134.324 160.598 135.41 160.884C135.522 160.913 135.6 160.809 135.595 160.716C135.617 160.711 135.631 160.693 135.621 160.67C135.183 159.686 134.331 158.669 133.408 158.05C132.836 157.669 131.877 157.449 131.436 158.147C131.02 158.805 131.603 159.482 132.165 159.829ZM131.751 158.878C131.406 157.564 132.97 158.141 133.379 158.438C133.641 158.628 133.884 158.855 134.117 159.078C134.605 159.545 135.012 160.071 135.445 160.58C134.922 160.41 134.386 160.282 133.855 160.13C133.224 159.949 131.941 159.602 131.751 158.878Z" fill="#263238"/>
<path d="M125.721 152.31L139.04 158.05C139.04 158.05 154.895 129.047 155.309 120.168C155.661 112.613 150.143 109.698 132.301 114.585L127.93 114.637V117.512C129.849 117.752 134.967 118.519 134.967 118.519C138.69 119.858 139.89 120.411 139.83 120.527C130.546 138.397 125.721 152.31 125.721 152.31Z" fill="#263238"/>
<path d="M142.016 117.337C141.478 118.02 140.98 118.73 140.504 119.456C137.643 118.245 134.527 117.541 131.427 117.176C130.551 117.074 129.668 116.999 128.787 116.951C128.751 116.949 128.754 117.003 128.789 117.006C131.932 117.192 135.017 117.8 138.024 118.682C138.854 118.925 139.666 119.209 140.485 119.486C139.914 120.359 139.376 121.251 138.857 122.152C137.89 123.833 137.024 125.564 136.253 127.334C135.824 128.314 135.407 129.301 135.041 130.304C135.031 130.333 135.079 130.351 135.093 130.324C136.719 126.866 138.493 123.486 140.423 120.171C140.968 119.236 141.535 118.315 142.066 117.373C142.078 117.341 142.035 117.31 142.016 117.337Z" fill="#455A64"/>
<path d="M139.333 154.98C138.557 154.692 137.802 154.331 137.043 154.005C136.281 153.678 135.517 153.351 134.755 153.025C133.234 152.376 127.966 150.295 127.53 150.198C127.502 150.191 127.487 150.232 127.511 150.245C127.847 150.456 131.246 151.897 132.015 152.21C133.551 152.836 135.105 153.419 136.655 154.014C137.098 154.184 137.543 154.345 137.988 154.513C138.431 154.679 138.883 154.831 139.319 155.019C139.342 155.033 139.359 154.989 139.333 154.98Z" fill="#455A64"/>
<path d="M141.949 118.646C140.897 120.55 140.002 122.542 139.09 124.507C138.181 126.465 137.298 128.434 136.438 130.415C134.729 134.356 133.141 138.347 131.663 142.372C130.825 144.65 130.044 146.946 129.28 149.249C129.268 149.283 129.323 149.294 129.335 149.263C130.746 145.192 132.275 141.158 133.872 137.151C135.465 133.154 137.157 129.19 138.945 125.269C139.447 124.169 139.959 123.071 140.476 121.975C140.995 120.879 141.535 119.792 142.021 118.683C142.04 118.64 141.975 118.601 141.949 118.646Z" fill="#455A64"/>
<path d="M119.5 114.394C119.791 114.689 138.309 115.093 138.402 114.982C138.654 114.678 136.264 103.479 134.329 99.1996C131.848 93.7112 130.453 93.2188 129.622 92.8921C128.561 92.4746 126.628 92.5722 126.159 92.7582C125.63 92.9647 123.331 95.4219 122.64 97.4094C121.26 101.396 119.248 114.136 119.5 114.394Z" fill="white"/>
<path d="M131.132 93.8679H124.931C125.045 93.7409 125.157 93.6206 125.264 93.5117H130.737C130.861 93.6115 130.992 93.7295 131.132 93.8679ZM131.913 94.7982H124.157C124.069 94.9139 123.981 95.0319 123.893 95.1521H132.163C132.077 95.0273 131.994 94.9094 131.913 94.7982ZM132.748 96.0824H123.281C123.209 96.2004 123.143 96.3183 123.079 96.4363H132.951C132.882 96.3138 132.813 96.1958 132.748 96.0824ZM133.451 97.3688H122.657C122.652 97.3802 122.648 97.3938 122.643 97.4051C122.607 97.505 122.574 97.6116 122.538 97.7228H133.629C133.57 97.6003 133.51 97.4845 133.451 97.3688ZM134.079 98.653H122.264C122.233 98.7665 122.2 98.8844 122.169 99.007H134.241C134.186 98.8867 134.131 98.7687 134.079 98.653ZM134.641 99.9372H121.934C121.907 100.055 121.879 100.173 121.85 100.293H134.779C134.734 100.171 134.686 100.053 134.641 99.9372ZM135.115 101.224H121.641C121.612 101.342 121.586 101.46 121.562 101.578H135.236C135.196 101.457 135.155 101.339 135.115 101.224ZM135.536 102.508H121.365C121.341 102.626 121.315 102.744 121.291 102.862H135.648C135.61 102.742 135.574 102.624 135.536 102.508ZM135.924 103.794H121.105C121.081 103.912 121.06 104.03 121.036 104.148H136.029C135.993 104.03 135.96 103.912 135.924 103.794ZM136.288 105.079H120.86C120.836 105.196 120.815 105.314 120.793 105.432H136.386C136.353 105.314 136.322 105.196 136.288 105.079ZM136.633 106.363H120.624C120.603 106.481 120.581 106.601 120.56 106.719H136.724C136.693 106.601 136.662 106.481 136.633 106.363ZM136.96 107.649H120.398C120.379 107.767 120.358 107.885 120.339 108.003H137.045C137.017 107.885 136.988 107.767 136.96 107.649ZM137.269 108.933H120.184C120.165 109.051 120.146 109.169 120.127 109.287H137.352C137.326 109.169 137.298 109.051 137.269 108.933ZM137.567 110.218H119.979C119.96 110.338 119.943 110.458 119.924 110.574H137.645C137.619 110.456 137.593 110.338 137.567 110.218ZM137.848 111.504H119.789C119.77 111.627 119.753 111.745 119.739 111.858H137.919C137.898 111.742 137.871 111.624 137.848 111.504ZM138.107 112.788H119.612C119.598 112.913 119.584 113.033 119.572 113.144H138.174C138.152 113.031 138.131 112.911 138.107 112.788ZM138.336 114.075H119.484C119.474 114.263 119.479 114.372 119.501 114.395C119.512 114.406 119.551 114.417 119.612 114.429H138.383C138.371 114.324 138.355 114.206 138.336 114.075Z" fill="#263238"/>
<path d="M132.691 94.3762C140.675 100.096 147.579 108.033 146.917 110.544C146.217 113.201 140.697 116.176 135.824 116.781C134.826 116.906 131.736 109.929 132.76 109.609C133.557 109.36 137.178 108.377 137.612 107.906C137.911 107.577 132.291 100.039 130.463 96.1028C128.546 91.9825 130.553 92.8447 132.691 94.3762Z" fill="#EAAC93"/>
<path d="M134.817 109.396C134.817 109.396 131.77 109.689 129.787 109.968C128.68 110.124 126.809 110.553 126.052 111.023C124.918 111.724 120.65 115.35 121.55 116.355C122.364 117.264 123.595 115.824 123.595 115.824C123.595 115.824 122.095 117.278 123.195 117.943C124.304 118.614 125.714 116.591 125.714 116.591C125.714 116.591 124.009 118.029 125.254 118.633C126.335 119.157 128.225 116.994 128.225 116.994C128.225 116.994 126.263 118.317 127.313 118.959C128.475 119.667 131.736 116.763 131.736 116.763C134.345 117.04 135.95 116.872 137.788 116.38C138.121 116.289 134.817 109.396 134.817 109.396Z" fill="#EAAC93"/>
<path d="M125.254 117.078C125.373 116.924 125.495 116.772 125.611 116.618C125.842 116.316 126.073 116.021 126.34 115.747C126.599 115.481 126.871 115.227 127.149 114.982C127.444 114.721 127.768 114.487 128.056 114.222C128.08 114.201 128.111 114.233 128.087 114.254C127.792 114.501 127.537 114.803 127.273 115.082C127.013 115.359 126.756 115.638 126.502 115.917C126.252 116.189 125.983 116.445 125.726 116.711C125.597 116.842 125.473 116.981 125.352 117.119C125.238 117.249 125.13 117.398 124.995 117.505C124.98 117.516 124.964 117.498 124.971 117.485C125.038 117.337 125.154 117.208 125.254 117.078Z" fill="#263238"/>
<path d="M123.285 116.132C123.431 115.842 124.349 114.75 124.602 114.485C125.087 113.972 125.625 113.498 126.209 113.09C126.23 113.076 126.256 113.103 126.24 113.121C125.754 113.636 125.261 114.147 124.768 114.657C124.528 114.907 123.471 116.071 123.345 116.18C123.314 116.207 123.271 116.164 123.285 116.132Z" fill="#263238"/>
<path d="M127.077 118.011C127.232 117.739 128.101 116.724 128.344 116.484C128.572 116.257 129.634 115.436 129.979 115.247C130.001 115.236 130.029 115.263 130.01 115.279C129.501 115.728 128.984 116.171 128.496 116.643C128.258 116.874 127.368 117.845 127.12 118.047C127.099 118.065 127.063 118.036 127.077 118.011Z" fill="#263238"/>
<path d="M141.568 101.426L135.488 105.183C135.488 105.183 130.977 98.5259 129.806 95.3722C128.635 92.2184 130.001 92.2116 133.191 94.4964C136.383 96.7812 141.568 101.426 141.568 101.426Z" fill="white"/>
<path d="M132.27 93.8679H129.408C129.392 93.7341 129.389 93.6161 129.399 93.5117H131.687C131.87 93.6161 132.065 93.7363 132.27 93.8679ZM133.608 94.7982H129.613C129.646 94.9116 129.685 95.0273 129.73 95.1521H134.081C133.92 95.0296 133.762 94.9116 133.608 94.7982ZM135.272 96.0824H130.101C130.151 96.1958 130.206 96.3138 130.263 96.4363H135.714C135.567 96.3161 135.419 96.1958 135.272 96.0824ZM136.855 97.3688H130.727C130.787 97.4845 130.849 97.6025 130.913 97.7228H137.281C137.14 97.6048 136.998 97.4868 136.855 97.3688ZM138.385 98.653H131.42C131.487 98.7687 131.553 98.889 131.622 99.007H138.797C138.662 98.8913 138.526 98.7733 138.385 98.653ZM139.878 99.9372H132.163C132.234 100.055 132.306 100.175 132.375 100.293H140.285C140.157 100.18 140.021 100.062 139.878 99.9372ZM141.342 101.224H132.941C133.015 101.344 133.086 101.462 133.16 101.578H141.323L141.568 101.426C141.568 101.426 141.487 101.353 141.342 101.224ZM133.743 102.508C133.82 102.628 133.896 102.748 133.967 102.862H139.245L139.816 102.508H133.743ZM134.569 103.794C134.65 103.919 134.729 104.037 134.8 104.148H137.162L137.736 103.794H134.569ZM135.419 105.079C135.465 105.147 135.488 105.183 135.488 105.183L135.657 105.079H135.419Z" fill="#263238"/>
<path d="M140.187 100.595C137.869 102.354 135.579 103.554 135.126 103.851C135.105 103.865 135.084 103.831 135.107 103.817C135.569 103.55 138.047 101.812 140.168 100.559C140.19 100.543 140.209 100.58 140.187 100.595Z" fill="#263238"/>
<path d="M135.879 104.926C135.838 104.933 135.564 105.078 135.51 105.11C134.834 103.998 134.105 102.873 133.42 101.766C133.084 101.224 132.746 100.684 132.41 100.139C132.06 99.5741 131.744 98.9842 131.363 98.4397C131.351 98.4238 131.329 98.4374 131.337 98.4533C131.572 98.9933 131.877 99.5106 132.167 100.028C132.106 99.9485 132.046 99.8668 131.979 99.792C131.829 99.6218 131.682 99.4516 131.546 99.2701C131.525 99.2429 131.477 99.2678 131.499 99.2973C131.627 99.4698 131.744 99.649 131.858 99.8305C131.972 100.012 132.098 100.184 132.227 100.359C132.351 100.527 132.486 100.686 132.622 100.842C132.639 100.863 132.655 100.881 132.672 100.901C132.858 101.224 133.039 101.55 133.232 101.87C133.908 102.989 135.443 105.242 135.465 105.235C135.548 105.21 135.872 104.983 135.905 104.956C135.914 104.945 135.895 104.922 135.879 104.926Z" fill="#263238"/>
<path d="M122.688 94.158C116.206 97.3685 110.124 101.271 108.981 103.98C108.262 105.686 109.15 108.776 109.871 110.637C110.224 111.542 119.186 108.019 118.441 107.268C116.599 105.412 116.306 104.665 116.503 104.291C116.63 104.05 123.721 98.183 125.711 95.5375C128.485 91.8528 125.523 92.7536 122.688 94.158Z" fill="#EAAC93"/>
<path d="M121.829 115.647C120.981 116.1 119.988 114.015 119.988 114.015C119.988 114.015 119.958 114.653 119.489 115.073C118.951 115.554 117.922 114.961 117.922 114.961C117.922 114.961 117.751 115.601 117.208 115.998C116.644 116.409 115.518 115.953 115.518 115.953C115.518 115.953 115.016 116.466 114.287 116.486C113.044 116.522 111.987 115.018 111.307 114.07C110.626 113.119 109.626 109.818 109.366 109.205L115.725 104.983C115.725 104.983 120.053 108.413 120.688 109.639C121.224 110.671 123.121 114.955 121.829 115.647Z" fill="#AD6359"/>
<path d="M120.001 113.986C119.708 112.759 119.108 111.599 118.515 110.487C118.501 110.462 118.46 110.483 118.475 110.508C119.077 111.606 119.386 112.886 119.941 114.006C119.958 114.038 120.01 114.02 120.001 113.986Z" fill="#263238"/>
<path d="M117.991 114.887C117.915 114.61 117.746 114.36 117.598 114.115C117.439 113.852 117.277 113.591 117.11 113.33C116.775 112.813 116.427 112.3 116.065 111.801C116.049 111.778 116.011 111.796 116.025 111.821C116.358 112.339 116.682 112.86 116.994 113.389C117.148 113.655 117.301 113.92 117.453 114.188C117.594 114.437 117.72 114.71 117.915 114.925C117.941 114.957 118.003 114.93 117.991 114.887Z" fill="#263238"/>
<path d="M115.504 115.93C115.449 115.688 115.251 115.459 115.111 115.252C114.954 115.018 114.797 114.785 114.642 114.551C114.332 114.081 114.021 113.612 113.728 113.133C113.714 113.108 113.673 113.128 113.687 113.153C113.983 113.641 114.271 114.134 114.571 114.621C114.718 114.86 114.866 115.098 115.016 115.336C115.144 115.538 115.278 115.803 115.478 115.949C115.492 115.953 115.508 115.942 115.504 115.93Z" fill="#263238"/>
<path d="M113.328 98.9658L118.072 103.399C118.072 103.399 124.312 98.1331 126.118 95.2652C127.925 92.3973 126.587 92.1319 122.983 93.7632C119.379 95.3991 113.328 98.9658 113.328 98.9658Z" fill="#59D3AF"/>
<path d="M113.328 98.9658L118.072 103.399C118.072 103.399 124.312 98.1331 126.118 95.2652C127.925 92.3973 126.587 92.1319 122.983 93.7632C119.379 95.3991 113.328 98.9658 113.328 98.9658Z" fill="white"/>
<path d="M126.909 93.5112C126.897 93.6179 126.868 93.7359 126.825 93.8674H122.762C122.836 93.8311 122.909 93.7994 122.983 93.7653C123.183 93.6746 123.376 93.5906 123.562 93.5112H126.909ZM120.86 94.7977C120.634 94.9134 120.405 95.0314 120.174 95.1516H126.19C126.266 95.0291 126.337 94.9089 126.402 94.7977H120.86ZM118.432 96.0819C118.213 96.1999 117.996 96.3178 117.782 96.4358H125.259C125.357 96.3156 125.449 96.1976 125.54 96.0819H118.432ZM116.106 97.3683C115.889 97.4909 115.682 97.6088 115.484 97.7223H124.123C124.233 97.6043 124.342 97.4863 124.447 97.3683H116.106ZM113.863 98.6525C113.523 98.8499 113.328 98.9656 113.328 98.9656L113.37 99.0065H122.874C122.993 98.8885 123.109 98.7705 123.226 98.6525H113.863ZM114.366 99.9367L114.746 100.293H121.543C121.667 100.175 121.791 100.057 121.917 99.9367H114.366ZM115.742 101.223L116.12 101.577H120.148C120.274 101.464 120.405 101.343 120.541 101.223H115.742ZM117.115 102.507L117.494 102.861H118.701C118.822 102.757 118.958 102.637 119.105 102.507H117.115Z" fill="#263238"/>
<path d="M119.058 102.242C116.865 100.468 115.251 98.6232 114.873 98.2693C114.854 98.2534 114.887 98.2285 114.904 98.2443C115.256 98.6119 117.453 100.534 119.093 102.215C119.112 102.235 119.079 102.26 119.058 102.242Z" fill="#263238"/>
<path d="M123.255 96.345C123.014 96.8283 122.778 97.3138 122.578 97.8129C122.581 97.7789 122.583 97.7472 122.586 97.7131C122.612 97.4045 122.659 97.1051 122.731 96.8033C122.738 96.7693 122.686 96.7556 122.676 96.7897C122.605 97.0914 122.54 97.3955 122.488 97.7018C122.464 97.8492 122.45 97.9967 122.438 98.1442C122.436 98.1601 122.433 98.1782 122.431 98.1964C122.428 98.2032 122.426 98.2077 122.424 98.2145C122.195 98.8793 122.048 99.56 121.85 100.232C121.84 100.266 121.895 100.279 121.905 100.245C122.098 99.5872 122.378 98.9497 122.621 98.3053C122.866 97.6632 123.062 97.0075 123.295 96.3609C123.305 96.3404 123.264 96.3223 123.255 96.345Z" fill="#263238"/>
<path d="M126.592 95.8165C127.635 96.091 129.496 94.6231 130.258 93.407C130.31 93.323 130.208 92.4223 130.139 91.3218C130.098 90.6548 130.072 89.9083 130.098 89.2277C130.106 89.087 125.575 90.108 125.575 90.108C125.575 90.108 125.961 91.551 125.906 92.7399C125.902 92.8397 125.887 92.9305 125.866 93.019C125.863 93.0326 125.859 93.0462 125.859 93.0644C125.744 93.5907 125.585 95.5511 126.592 95.8165Z" fill="#AD6359"/>
<path d="M129.82 89.2344C129.568 90.3779 128.708 93.1346 126.314 93.1028C126.147 93.1006 125.995 93.0869 125.857 93.062C125.857 93.0438 125.861 93.028 125.864 93.0143C125.885 92.9259 125.899 92.8351 125.907 92.7375C125.959 91.5486 125.573 90.1034 125.573 90.1034C125.573 90.1034 128.842 89.3705 129.82 89.2344Z" fill="#263238"/>
<path d="M125.299 86.8411C125.321 87.887 124.557 88.7515 123.593 88.7696C122.628 88.7878 121.831 87.9528 121.81 86.9069C121.788 85.8609 122.552 84.9965 123.516 84.9783C124.481 84.9602 125.278 85.7928 125.299 86.8411Z" fill="#59D3AF"/>
<path d="M125.866 86.8953C125.89 88.0593 125.04 89.0213 123.966 89.0394C122.895 89.0598 122.007 88.1319 121.983 86.9657C121.959 85.8017 122.809 84.8397 123.883 84.8216C124.956 84.8034 125.844 85.7314 125.866 86.8953Z" fill="#C7C7C7"/>
<path d="M129.865 83.5692C130.606 84.9895 130.534 89.441 129.587 90.5823C128.213 92.2363 125.587 92.7899 124.019 91.1359C122.497 89.5318 122.7 83.7303 123.792 82.6571C125.402 81.0757 128.77 81.4727 129.865 83.5692Z" fill="#DD997E"/>
<path d="M126.185 87.4374C126.187 87.4261 126.209 87.4511 126.209 87.4647C126.195 87.7642 126.233 88.109 126.516 88.2134C126.525 88.2157 126.523 88.2316 126.514 88.2293C126.168 88.1794 126.123 87.7188 126.185 87.4374Z" fill="#263238"/>
<path d="M126.47 87.1267C126.977 87.095 127.006 88.0638 126.537 88.0933C126.073 88.1205 126.044 87.154 126.47 87.1267Z" fill="#263238"/>
<path d="M124.424 87.4944C124.421 87.4831 124.4 87.5103 124.4 87.5216C124.419 87.8211 124.388 88.1683 124.107 88.2749C124.097 88.2772 124.1 88.2931 124.109 88.2908C124.457 88.2341 124.493 87.7758 124.424 87.4944Z" fill="#263238"/>
<path d="M124.135 87.1879C123.628 87.1652 123.616 88.134 124.088 88.1544C124.55 88.1771 124.559 87.2083 124.135 87.1879Z" fill="#263238"/>
<path d="M126.916 86.3486C126.773 86.344 126.642 86.3145 126.502 86.2964C126.342 86.2737 126.216 86.2714 126.09 86.1648C126.023 86.1081 126.018 85.9833 126.071 85.9152C126.192 85.7586 126.394 85.7405 126.585 85.7587C126.792 85.7791 126.947 85.8449 127.094 85.9878C127.24 86.1262 127.104 86.3576 126.916 86.3486Z" fill="#263238"/>
<path d="M123.647 86.496C123.788 86.471 123.912 86.4233 124.047 86.3848C124.2 86.3417 124.328 86.3212 124.433 86.1987C124.49 86.1329 124.476 86.0081 124.414 85.9492C124.269 85.813 124.069 85.8221 123.881 85.8675C123.678 85.9174 123.536 86.0059 123.412 86.1647C123.293 86.319 123.462 86.5277 123.647 86.496Z" fill="#263238"/>
<path d="M126.792 90.2102C126.718 90.2828 126.647 90.3803 126.532 90.394C126.423 90.4053 126.294 90.3622 126.192 90.3282C126.183 90.3259 126.173 90.335 126.178 90.344C126.263 90.4575 126.437 90.5233 126.582 90.4961C126.725 90.4688 126.792 90.3486 126.823 90.2238C126.828 90.2034 126.804 90.1988 126.792 90.2102Z" fill="#263238"/>
<path d="M126.435 89.3206C126.266 89.5861 126.011 89.7358 125.733 89.7948C125.609 89.8221 125.478 89.8289 125.347 89.8221C125.321 89.8221 125.297 89.8198 125.273 89.8152C125.249 89.813 125.23 89.8107 125.204 89.8062C125.166 89.8016 125.147 89.7744 125.14 89.7404V89.7381C125.14 89.7268 125.14 89.7177 125.142 89.7063C125.142 89.7063 125.142 89.7063 125.142 89.7041V89.6768C125.128 89.4454 125.142 89.0937 125.142 89.0937C125.054 89.1391 124.609 89.3433 124.614 89.2231C124.647 88.2225 124.683 87.1107 124.938 86.1215C124.945 86.0875 124.997 86.0943 124.995 86.1283C125.004 87.0903 124.833 88.0478 124.826 89.0143C124.969 88.9576 125.199 88.8555 125.328 88.8532C125.364 88.8623 125.29 89.5316 125.304 89.636C125.304 89.636 125.304 89.6405 125.307 89.6473C125.716 89.6859 126.018 89.5611 126.406 89.2889C126.428 89.2775 126.454 89.2957 126.435 89.3206Z" fill="#263238"/>
<path d="M125.49 89.6997C125.49 89.6997 125.714 89.9697 126.009 90.0627C126.118 90.0967 126.235 90.1081 126.356 90.074C126.606 90.0037 126.606 89.7836 126.554 89.5976C126.511 89.4433 126.432 89.314 126.432 89.314C126.432 89.314 126.075 89.6498 125.49 89.6997Z" fill="#263238"/>
<path d="M126.009 90.0628C126.118 90.0968 126.235 90.1082 126.356 90.0741C126.606 90.0038 126.606 89.7837 126.554 89.5977C126.285 89.6317 126.025 89.8132 126.009 90.0628Z" fill="#FF98B9"/>
<path opacity="0.2" d="M130.363 86.7273C130.056 86.6728 129.351 85.6677 129.051 85.2661C128.734 84.8509 128.627 82.7567 128.613 82.2803C129.139 82.5888 129.58 83.0199 129.865 83.569C130.198 84.2043 130.363 85.4454 130.363 86.7273Z" fill="#263238"/>
<path d="M124.769 83.9231C125.128 84.3134 125.673 84.513 126.216 84.4268C126.745 84.3429 127.266 83.9912 127.452 83.5034C127.456 83.4898 127.48 83.4966 127.475 83.5125C127.275 84.0343 126.835 84.4677 126.238 84.5493C125.678 84.6265 125.073 84.3837 124.738 83.9504C124.723 83.9277 124.752 83.905 124.769 83.9231Z" fill="#263238"/>
<path d="M126.383 80.1931C127.299 80.2067 128.144 80.6855 128.482 81.2799C128.687 81.6407 128.72 82.0082 128.661 82.3803C128.658 82.3962 128.625 82.3917 128.627 82.3781C128.677 81.7859 128.366 81.1143 127.699 80.7059C127.059 80.3134 126.209 80.1954 125.478 80.4631C125.095 80.6038 124.788 80.8375 124.628 81.1211C124.611 81.1529 124.542 81.1324 124.557 81.1007C124.799 80.5516 125.552 80.1818 126.383 80.1931Z" fill="#263238"/>
<path d="M121.072 82.117C121.214 81.6859 121.526 81.3161 121.926 81.0779C122.486 80.7421 123.124 80.7875 123.754 80.8465C123.771 80.8487 123.769 80.8737 123.752 80.8714C123.214 80.8238 122.667 80.8056 122.174 81.0484C121.771 81.2458 121.438 81.577 121.26 81.9741C120.893 82.8022 121.25 83.8232 122.076 84.2611C122.543 84.5107 123.121 84.5629 123.628 84.4041C123.647 84.3973 123.664 84.4268 123.643 84.4336C122.714 84.7512 121.617 84.3519 121.188 83.4942C120.979 83.07 120.922 82.5663 121.072 82.117Z" fill="#263238"/>
<path d="M130.175 84.4358C130.175 84.4358 131.029 82.8657 130.291 81.9673C129.875 81.459 128.506 81.5384 128.506 81.5384C128.506 81.5384 128.056 80.7942 126.921 80.5583C125.773 80.32 124.419 80.9712 124.419 80.9712C124.419 80.9712 123.326 80.3881 122.312 80.9531C120.9 81.7404 121.1 83.8005 122.536 84.4494C123.545 84.9055 124.897 84.0456 124.897 84.0456C125.028 84.0614 126.378 84.8192 127.38 83.6666C127.38 83.6666 128.213 84.3564 128.946 83.8595C128.951 83.8595 129.334 84.5651 130.175 84.4358Z" fill="#263238"/>
<path d="M129.513 87.2447C129.513 87.2447 130.327 85.6996 131.046 85.956C131.768 86.2123 131.306 88.3519 130.565 88.7399C129.825 89.1279 129.435 88.4812 129.435 88.4812L129.513 87.2447Z" fill="#AD6359"/>
<path d="M130.898 86.5661C130.91 86.5639 130.915 86.5798 130.905 86.5866C130.389 86.8747 130.175 87.4011 130.048 87.932C130.182 87.7165 130.389 87.5781 130.689 87.7255C130.705 87.7323 130.694 87.7573 130.679 87.755C130.448 87.7414 130.291 87.8004 130.165 87.9933C130.077 88.1294 130.027 88.295 129.97 88.4448C129.951 88.4947 129.858 88.4833 129.87 88.4266C129.87 88.4221 129.872 88.4176 129.872 88.413C129.756 87.7482 130.156 86.7386 130.898 86.5661Z" fill="#263238"/>
<path d="M127.744 90.3418L129.225 89.7769L130.441 88.4087L130.22 88.2295L129.051 89.5454L127.637 90.0854L127.744 90.3418Z" fill="#C7C7C7"/>
<path d="M127.906 90.1238C127.775 89.7131 126.573 89.8333 126.773 90.455C126.975 91.0767 128.039 90.5344 127.906 90.1238Z" fill="#37474F"/>
<path d="M131.07 85.9151C131.07 85.9151 131.291 83.6326 130.625 82.3552C129.882 80.9326 126.678 79.5168 124.421 80.9712C124.421 80.9712 128.046 80.4448 129.675 82.4324C130.36 83.2696 130.27 85.9559 130.27 85.9559L131.07 85.9151Z" fill="#C7C7C7"/>
<path d="M132.675 87.1447C132.719 85.9801 131.885 85.0062 130.813 84.9695C129.741 84.9328 128.836 85.8471 128.792 87.0118C128.748 88.1765 129.582 89.1504 130.654 89.1871C131.726 89.2238 132.631 88.3094 132.675 87.1447Z" fill="#C7C7C7"/>
<path d="M129.36 86.9678C129.32 88.0137 130.07 88.8895 131.034 88.9213C131.998 88.9553 132.81 88.1317 132.85 87.0858C132.891 86.0398 132.141 85.164 131.177 85.1322C130.212 85.1005 129.398 85.9218 129.36 86.9678Z" fill="#59D3AF"/>
<path d="M130.801 93.7224C130.292 94.2897 129.806 94.8705 129.235 95.3787C128.699 95.8552 128.056 96.284 127.323 96.3543C126.614 96.4224 125.902 96.2908 125.633 95.4649C125.419 94.8092 125.447 94.1331 125.559 93.2913C125.564 93.2528 125.511 93.246 125.507 93.2845C125.357 94.3691 125.202 96.0503 126.24 96.4156C127.399 96.824 128.528 96.2477 129.335 95.4786C129.88 94.959 130.408 94.3668 130.825 93.7383C130.83 93.727 130.811 93.7111 130.801 93.7224Z" fill="#263238"/>
<path d="M136.767 118.562H115.596V119.467H136.767V118.562Z" fill="#C7C7C7"/>
<path d="M132.234 118.562L132.96 119.467H115.596V118.562H132.234Z" fill="#A6A6A6"/>
<path d="M131.329 119.467H110.699L108.981 106.113H129.613L131.329 119.467Z" fill="#C7C7C7"/>
<path d="M121.412 112.79C121.424 113.451 120.872 113.988 120.179 113.988C119.486 113.988 118.912 113.453 118.901 112.79C118.889 112.13 119.441 111.592 120.134 111.592C120.826 111.592 121.398 112.128 121.412 112.79Z" fill="white"/>
<path d="M178.812 121.232H156.74V123.928H178.812V121.232Z" fill="#455A64"/>
<path d="M178.189 123.928H157.361V124.769H178.189V123.928Z" fill="#37474F"/>
<path d="M175.215 144.423H160.337V145.265H175.215V144.423Z" fill="#455A64"/>
<path d="M159.853 156.797H158.751V124.77H161.758L159.853 156.797Z" fill="#455A64"/>
<path d="M161.758 124.77L161.646 126.664H158.751V124.77H161.758Z" fill="#263238"/>
<path d="M175.696 156.797H176.801V124.77H173.792L175.696 156.797Z" fill="#455A64"/>
<path d="M173.792 124.77L173.903 126.664H176.798V124.77H173.792Z" fill="#263238"/>
<path d="M174.372 114.512H157.361V117.275H174.372V114.512Z" fill="#455A64"/>
<path d="M173.044 114.512H171.458V117.275H173.044V114.512Z" fill="#EBEBEB"/>
<path d="M160.275 114.512H158.689V117.275H160.275V114.512Z" fill="#EBEBEB"/>
<path d="M176.891 117.275H158.223V121.235H176.891V117.275Z" fill="#263238"/>
<path d="M168.245 120.822H176.889V117.684H168.245V120.822Z" fill="white"/>
<path d="M176.891 118.33C175.729 118.308 172.57 118.269 172.57 118.269L171.732 118.283C170.571 118.292 169.409 118.308 168.25 118.33C169.411 118.353 170.573 118.369 171.732 118.376L172.57 118.389C172.568 118.389 175.729 118.351 176.891 118.33Z" fill="#DBDBDB"/>
<path d="M176.891 118.945C175.729 118.922 172.57 118.884 172.57 118.884L171.732 118.897C170.571 118.906 169.409 118.922 168.25 118.943C169.411 118.965 170.573 118.981 171.732 118.99L172.57 119.004C172.568 119.006 175.729 118.968 176.891 118.945Z" fill="#DBDBDB"/>
<path d="M176.891 119.56C175.729 119.537 172.57 119.499 172.57 119.499L171.732 119.512C170.571 119.521 169.409 119.537 168.25 119.56C169.411 119.582 170.573 119.598 171.732 119.605L172.57 119.619C172.568 119.621 175.729 119.582 176.891 119.56Z" fill="#DBDBDB"/>
<path d="M176.891 120.177C175.729 120.154 172.57 120.116 172.57 120.116L171.732 120.129C170.571 120.138 169.409 120.154 168.25 120.177C169.411 120.2 170.573 120.216 171.732 120.222L172.57 120.236C172.568 120.236 175.729 120.197 176.891 120.177Z" fill="#DBDBDB"/>
<path d="M159.62 119.792V118.855C159.62 118.805 159.661 118.766 159.711 118.766H159.713C159.713 118.766 159.713 118.766 159.715 118.766H160.256C160.303 118.766 160.346 118.805 160.346 118.855C160.346 118.905 160.303 118.943 160.256 118.943H159.803V119.234H160.191C160.241 119.234 160.282 119.274 160.282 119.32C160.282 119.37 160.241 119.408 160.191 119.408H159.803V119.701H160.256C160.303 119.701 160.346 119.739 160.346 119.789C160.346 119.837 160.303 119.878 160.256 119.878H159.715C159.713 119.878 159.713 119.876 159.713 119.876L159.711 119.878C159.661 119.88 159.62 119.839 159.62 119.792Z" fill="#59D3AF"/>
<path d="M160.791 119.791C160.791 119.839 160.748 119.88 160.701 119.88C160.648 119.88 160.61 119.839 160.61 119.791V118.868C160.61 118.868 160.61 118.868 160.61 118.866C160.608 118.839 160.622 118.809 160.646 118.793C160.687 118.766 160.744 118.775 160.772 118.811L161.31 119.521V118.866C161.31 118.82 161.351 118.78 161.401 118.78C161.451 118.78 161.491 118.818 161.491 118.866V119.789C161.491 119.837 161.451 119.878 161.401 119.878C161.375 119.878 161.348 119.864 161.332 119.846C161.329 119.844 161.325 119.839 161.322 119.837L160.789 119.131V119.791H160.791Z" fill="#59D3AF"/>
<path d="M161.758 119.308C161.758 118.988 162.034 118.734 162.372 118.734C162.515 118.734 162.648 118.78 162.753 118.859C162.796 118.889 162.803 118.948 162.772 118.988C162.741 119.027 162.679 119.034 162.636 119.002C162.565 118.95 162.472 118.916 162.372 118.916C162.253 118.916 162.146 118.959 162.072 119.032C161.993 119.104 161.946 119.199 161.946 119.308C161.946 119.413 161.993 119.51 162.072 119.583C162.148 119.656 162.253 119.699 162.372 119.699C162.455 119.699 162.534 119.676 162.601 119.637V119.42H162.362C162.31 119.42 162.267 119.379 162.267 119.329C162.267 119.279 162.31 119.24 162.362 119.24H162.691C162.693 119.24 162.693 119.24 162.693 119.24C162.696 119.24 162.696 119.24 162.696 119.24C162.748 119.24 162.793 119.279 162.793 119.329V119.681C162.793 119.692 162.791 119.699 162.789 119.708C162.786 119.71 162.786 119.712 162.786 119.717V119.719C162.781 119.733 162.772 119.746 162.755 119.758C162.651 119.835 162.52 119.882 162.377 119.882C162.034 119.88 161.758 119.626 161.758 119.308Z" fill="#59D3AF"/>
<path d="M163.082 119.792V118.855C163.082 118.807 163.122 118.766 163.172 118.766C163.224 118.766 163.265 118.807 163.265 118.855V119.703H163.717C163.765 119.703 163.808 119.742 163.808 119.792C163.808 119.839 163.765 119.88 163.717 119.88H163.177C163.174 119.88 163.174 119.88 163.174 119.88C163.172 119.88 163.172 119.88 163.172 119.88C163.122 119.88 163.082 119.839 163.082 119.792Z" fill="#59D3AF"/>
<path d="M164.041 118.855C164.041 118.805 164.081 118.766 164.134 118.766C164.184 118.766 164.226 118.805 164.226 118.855V119.792C164.226 119.842 164.184 119.88 164.134 119.88C164.081 119.88 164.041 119.842 164.041 119.792V118.855Z" fill="#59D3AF"/>
<path d="M164.5 119.603C164.531 119.569 164.586 119.565 164.622 119.592C164.695 119.649 164.822 119.717 164.941 119.714C165.024 119.714 165.1 119.689 165.15 119.655C165.2 119.621 165.221 119.581 165.221 119.542C165.221 119.522 165.217 119.508 165.207 119.492C165.198 119.476 165.181 119.46 165.157 119.444C165.11 119.415 165.026 119.388 164.929 119.37H164.926C164.848 119.356 164.774 119.335 164.712 119.308C164.648 119.279 164.593 119.24 164.557 119.183C164.531 119.145 164.519 119.102 164.519 119.054C164.519 118.959 164.576 118.877 164.653 118.823C164.731 118.768 164.833 118.739 164.941 118.739C165.1 118.739 165.219 118.814 165.305 118.866C165.343 118.891 165.355 118.943 165.329 118.979C165.302 119.018 165.25 119.029 165.21 119.004C165.124 118.95 165.043 118.902 164.941 118.902C164.864 118.902 164.8 118.925 164.755 118.957C164.71 118.988 164.691 119.025 164.691 119.056C164.691 119.075 164.693 119.088 164.703 119.102C164.71 119.115 164.726 119.129 164.748 119.143C164.791 119.172 164.867 119.197 164.957 119.213H164.96C165.045 119.229 165.124 119.249 165.191 119.279C165.26 119.311 165.319 119.351 165.357 119.41C165.383 119.449 165.398 119.497 165.398 119.544C165.398 119.646 165.338 119.733 165.255 119.792C165.174 119.848 165.064 119.882 164.945 119.882C164.764 119.88 164.614 119.794 164.519 119.723C164.476 119.689 164.472 119.637 164.5 119.603Z" fill="#59D3AF"/>
<path d="M165.65 119.792V118.855C165.65 118.805 165.69 118.766 165.74 118.766C165.793 118.766 165.833 118.805 165.833 118.855V119.236H166.264V118.855C166.264 118.805 166.305 118.766 166.357 118.766C166.409 118.766 166.45 118.805 166.45 118.855V119.792C166.45 119.842 166.407 119.88 166.357 119.88C166.307 119.88 166.264 119.842 166.264 119.792V119.41H165.833V119.792C165.833 119.842 165.793 119.88 165.74 119.88C165.688 119.88 165.65 119.842 165.65 119.792Z" fill="#59D3AF"/>
<path d="M176.657 112.402H159.922V114.512H176.657V112.402Z" fill="#59D3AF"/>
<path d="M171.149 112.622H159.92V114.294H171.149V112.622Z" fill="white"/>
<path d="M160.648 113.949C161.524 113.959 162.398 113.965 163.274 113.968L165.9 113.972L168.526 113.968C169.402 113.965 170.275 113.959 171.151 113.949C170.275 113.94 169.402 113.934 168.526 113.931L165.9 113.927L163.274 113.931C162.398 113.936 161.522 113.94 160.648 113.949Z" fill="#DBDBDB"/>
<path d="M160.648 113.622C161.524 113.631 162.398 113.638 163.274 113.64L165.9 113.645L168.526 113.64C169.402 113.638 170.275 113.631 171.151 113.622C170.275 113.613 169.402 113.606 168.526 113.604L165.9 113.6L163.274 113.604C162.398 113.606 161.522 113.613 160.648 113.622Z" fill="#DBDBDB"/>
<path d="M160.648 113.294C161.524 113.303 162.398 113.31 163.274 113.312L165.9 113.316L168.526 113.312C169.402 113.31 170.275 113.303 171.151 113.294C170.275 113.285 169.402 113.278 168.526 113.276L165.9 113.271L163.274 113.276C162.398 113.278 161.522 113.285 160.648 113.294Z" fill="#DBDBDB"/>
<path d="M160.648 112.965C161.524 112.974 162.398 112.98 163.274 112.983L165.9 112.987L168.526 112.983C169.402 112.98 170.275 112.974 171.151 112.965C170.275 112.956 169.402 112.949 168.526 112.946L165.9 112.942L163.274 112.946C162.398 112.951 161.522 112.956 160.648 112.965Z" fill="#DBDBDB"/>
<path d="M171.834 113.944V113.007C171.834 112.96 171.863 112.919 171.899 112.919C171.899 112.919 171.899 112.919 171.901 112.919H172.275C172.308 112.919 172.339 112.96 172.339 113.007C172.339 113.057 172.308 113.096 172.275 113.096H171.963V113.386H172.232C172.268 113.386 172.296 113.427 172.296 113.475C172.296 113.525 172.268 113.563 172.232 113.563H171.963V113.944C171.963 113.992 171.934 114.033 171.899 114.033C171.863 114.033 171.834 113.992 171.834 113.944Z" fill="#37474F"/>
<path d="M173.065 113.899C173.077 113.944 173.058 113.994 173.025 114.01C173.02 114.012 173.01 114.015 172.999 114.015C172.987 114.015 172.97 114.012 172.953 113.996C172.939 113.983 172.925 113.962 172.915 113.94C172.899 113.894 172.891 113.835 172.891 113.749C172.891 113.72 172.887 113.699 172.877 113.681C172.87 113.663 172.856 113.647 172.841 113.636C172.818 113.613 172.787 113.602 172.777 113.597H172.641V113.942C172.641 113.99 172.613 114.031 172.577 114.031C172.542 114.031 172.513 113.99 172.513 113.942V113.005C172.513 112.955 172.542 112.917 172.577 112.917H172.782C172.92 112.917 173.03 113.069 173.03 113.259C173.03 113.363 172.994 113.457 172.939 113.52C172.953 113.536 172.968 113.554 172.98 113.579C173.003 113.624 173.018 113.683 173.018 113.751C173.018 113.799 173.02 113.829 173.022 113.844C173.044 113.854 173.058 113.874 173.065 113.899ZM172.903 113.261C172.903 113.168 172.851 113.096 172.784 113.096H172.644V113.422H172.784C172.851 113.422 172.903 113.35 172.903 113.261Z" fill="#37474F"/>
<path d="M173.251 113.944V113.007C173.251 112.958 173.28 112.919 173.315 112.919C173.315 112.919 173.315 112.919 173.318 112.919H173.691C173.725 112.919 173.756 112.958 173.756 113.007C173.756 113.057 173.725 113.096 173.691 113.096H173.38V113.386H173.649C173.684 113.386 173.713 113.427 173.713 113.475C173.713 113.525 173.684 113.563 173.649 113.563H173.38V113.856H173.691C173.725 113.856 173.756 113.895 173.756 113.944C173.756 113.992 173.725 114.033 173.691 114.033H173.318C173.315 114.033 173.315 114.031 173.315 114.031V114.033C173.28 114.033 173.251 113.992 173.251 113.944Z" fill="#37474F"/>
<path d="M174.06 113.944C174.06 113.992 174.032 114.033 173.998 114.033C173.963 114.033 173.934 113.992 173.934 113.944V113.021C173.934 113.021 173.934 113.021 173.934 113.019C173.934 112.991 173.941 112.962 173.96 112.946C173.989 112.919 174.029 112.928 174.048 112.964L174.42 113.674V113.019C174.42 112.973 174.448 112.932 174.482 112.932C174.515 112.932 174.546 112.971 174.546 113.019V113.942C174.546 113.99 174.517 114.031 174.482 114.031C174.463 114.031 174.446 114.017 174.434 113.999C174.432 113.997 174.429 113.992 174.429 113.99L174.06 113.284V113.944Z" fill="#37474F"/>
<path d="M174.786 113.459C174.786 113.144 174.979 112.889 175.208 112.887C175.31 112.887 175.401 112.933 175.474 113.012C175.503 113.044 175.505 113.1 175.486 113.139C175.462 113.178 175.42 113.184 175.393 113.157C175.343 113.1 175.279 113.069 175.208 113.069C175.129 113.069 175.055 113.114 175.001 113.182C174.948 113.255 174.917 113.35 174.917 113.459C174.917 113.568 174.951 113.665 175.001 113.736C175.055 113.806 175.129 113.849 175.208 113.849C175.279 113.849 175.341 113.82 175.393 113.761C175.42 113.733 175.462 113.74 175.486 113.779C175.508 113.817 175.503 113.876 175.474 113.906C175.403 113.983 175.31 114.031 175.208 114.031C174.979 114.033 174.789 113.777 174.786 113.459Z" fill="#37474F"/>
<path d="M175.71 113.944V113.007C175.71 112.958 175.739 112.919 175.774 112.919C175.81 112.919 175.839 112.958 175.839 113.007V113.389H176.136V113.007C176.136 112.958 176.165 112.919 176.2 112.919C176.236 112.919 176.265 112.958 176.265 113.007V113.944C176.265 113.994 176.236 114.033 176.2 114.033C176.165 114.033 176.136 113.994 176.136 113.944V113.563H175.839V113.944C175.839 113.994 175.81 114.033 175.774 114.033C175.739 114.033 175.71 113.994 175.71 113.944Z" fill="#37474F"/>
<path d="M160.922 116.347V115.41C160.922 115.36 160.963 115.322 161.013 115.322H161.21C161.532 115.322 161.791 115.571 161.791 115.875C161.791 116.184 161.532 116.434 161.21 116.434H161.013C160.963 116.434 160.922 116.395 160.922 116.347ZM161.108 116.257H161.21C161.429 116.254 161.608 116.086 161.608 115.875C161.608 115.667 161.432 115.496 161.21 115.496H161.108V116.257Z" fill="#EBEBEB"/>
<path d="M162.048 115.408C162.048 115.358 162.089 115.319 162.141 115.319C162.191 115.319 162.234 115.358 162.234 115.408V116.345C162.234 116.395 162.191 116.433 162.141 116.433C162.089 116.433 162.048 116.395 162.048 116.345V115.408Z" fill="#EBEBEB"/>
<path d="M162.493 115.862C162.496 115.546 162.772 115.292 163.105 115.29C163.253 115.29 163.386 115.335 163.491 115.415C163.531 115.447 163.538 115.503 163.507 115.542C163.474 115.58 163.412 115.587 163.374 115.56C163.3 115.503 163.21 115.472 163.105 115.472C162.991 115.472 162.884 115.517 162.805 115.585C162.729 115.658 162.684 115.753 162.684 115.862C162.684 115.971 162.731 116.068 162.805 116.139C162.884 116.209 162.991 116.252 163.105 116.252C163.207 116.252 163.298 116.223 163.374 116.164C163.412 116.136 163.474 116.143 163.507 116.182C163.538 116.22 163.531 116.279 163.491 116.309C163.386 116.386 163.253 116.434 163.105 116.434C162.772 116.434 162.496 116.177 162.493 115.862Z" fill="#EBEBEB"/>
<path d="M164.543 115.499H164.278V116.347C164.278 116.397 164.238 116.436 164.188 116.436C164.138 116.436 164.095 116.397 164.095 116.347V115.499H163.831C163.779 115.499 163.74 115.458 163.74 115.41C163.74 115.36 163.781 115.322 163.831 115.322H164.543C164.593 115.322 164.636 115.36 164.636 115.41C164.636 115.456 164.593 115.499 164.543 115.499Z" fill="#EBEBEB"/>
<path d="M164.921 115.408C164.921 115.358 164.962 115.319 165.014 115.319C165.064 115.319 165.107 115.358 165.107 115.408V116.345C165.107 116.395 165.064 116.433 165.014 116.433C164.962 116.433 164.921 116.395 164.921 116.345V115.408Z" fill="#EBEBEB"/>
<path d="M166.338 115.46C166.44 115.565 166.507 115.705 166.507 115.862C166.507 116.018 166.442 116.161 166.338 116.263C166.24 116.368 166.093 116.434 165.94 116.434C165.781 116.434 165.633 116.368 165.531 116.263C165.428 116.159 165.366 116.018 165.366 115.862C165.366 115.705 165.428 115.565 165.531 115.46C165.633 115.356 165.778 115.29 165.94 115.29C166.093 115.29 166.24 115.356 166.338 115.46ZM166.316 115.862C166.316 115.753 166.271 115.653 166.202 115.583C166.133 115.51 166.038 115.469 165.938 115.469C165.831 115.469 165.738 115.51 165.669 115.583C165.6 115.653 165.555 115.753 165.555 115.862C165.555 115.971 165.597 116.071 165.669 116.139C165.738 116.211 165.833 116.252 165.938 116.252C166.038 116.252 166.131 116.209 166.202 116.139C166.271 116.071 166.316 115.971 166.316 115.862Z" fill="#EBEBEB"/>
<path d="M166.976 116.347C166.976 116.395 166.933 116.436 166.886 116.436C166.833 116.436 166.793 116.395 166.793 116.347V115.424C166.793 115.424 166.793 115.424 166.793 115.421C166.79 115.394 166.805 115.365 166.828 115.349C166.869 115.322 166.926 115.331 166.955 115.367L167.493 116.077V115.421C167.493 115.376 167.533 115.335 167.583 115.335C167.633 115.335 167.674 115.374 167.674 115.421V116.345C167.674 116.393 167.633 116.433 167.583 116.433C167.557 116.433 167.531 116.42 167.514 116.402C167.512 116.399 167.507 116.395 167.505 116.393L166.971 115.687V116.347H166.976Z" fill="#EBEBEB"/>
<path d="M168.671 116.17H168.266L168.185 116.377C168.171 116.411 168.135 116.433 168.1 116.433C168.088 116.433 168.078 116.431 168.069 116.429C168.021 116.411 167.997 116.361 168.014 116.315L168.383 115.381C168.397 115.347 168.435 115.324 168.471 115.324C168.509 115.322 168.545 115.344 168.559 115.381L168.928 116.315C168.945 116.361 168.921 116.413 168.873 116.429C168.864 116.431 168.854 116.433 168.842 116.433C168.807 116.433 168.771 116.413 168.757 116.377L168.671 116.17ZM168.604 115.995L168.469 115.653L168.333 115.995H168.604Z" fill="#EBEBEB"/>
<path d="M169.925 116.302C169.942 116.347 169.916 116.397 169.866 116.413C169.859 116.415 169.847 116.417 169.83 116.417C169.83 116.417 169.83 116.417 169.828 116.417C169.811 116.417 169.787 116.415 169.764 116.399C169.742 116.386 169.723 116.365 169.711 116.343C169.687 116.297 169.676 116.238 169.676 116.152C169.673 116.123 169.666 116.102 169.656 116.084C169.647 116.066 169.626 116.05 169.606 116.039C169.571 116.016 169.528 116.005 169.514 116H169.316V116.345C169.316 116.393 169.273 116.433 169.223 116.433C169.173 116.433 169.13 116.393 169.13 116.345V115.408C169.13 115.358 169.171 115.319 169.223 115.319C169.223 115.319 169.223 115.319 169.226 115.319H169.523C169.721 115.319 169.88 115.471 169.88 115.662C169.88 115.766 169.83 115.859 169.749 115.923C169.771 115.939 169.79 115.957 169.809 115.982C169.842 116.027 169.864 116.086 169.864 116.154C169.861 116.202 169.866 116.231 169.871 116.247C169.892 116.256 169.916 116.275 169.925 116.302ZM169.692 115.662C169.692 115.569 169.616 115.496 169.521 115.496H169.316V115.823H169.521C169.614 115.825 169.692 115.753 169.692 115.662Z" fill="#EBEBEB"/>
<path d="M170.966 115.471L170.623 115.918V116.347C170.623 116.397 170.582 116.436 170.532 116.436C170.485 116.436 170.44 116.397 170.44 116.347V115.918L170.102 115.471C170.071 115.433 170.078 115.378 170.121 115.351C170.163 115.322 170.218 115.331 170.247 115.369L170.532 115.741L170.818 115.369C170.849 115.328 170.906 115.322 170.947 115.351C170.985 115.378 170.992 115.433 170.966 115.471Z" fill="#EBEBEB"/>
<defs>
<filter id="filter0_d_22_1600" x="0.0191889" y="0.503198" width="181.881" height="178.322" filterUnits="userSpaceOnUse" color-interpolation-filters="sRGB">
<feFlood flood-opacity="0" result="BackgroundImageFix"/>
<feColorMatrix in="SourceAlpha" type="matrix" values="0 0 0 0 0 0 0 0 0 0 0 0 0 0 0 0 0 0 127 0" result="hardAlpha"/>
<feOffset dy="2.48401"/>
<feGaussianBlur stdDeviation="1.49041"/>
<feComposite in2="hardAlpha" operator="out"/>
<feColorMatrix type="matrix" values="0 0 0 0 0 0 0 0 0 0 0 0 0 0 0 0 0 0 0.25 0"/>
<feBlend mode="normal" in2="BackgroundImageFix" result="effect1_dropShadow_22_1600"/>
<feBlend mode="normal" in="SourceGraphic" in2="effect1_dropShadow_22_1600" result="shape"/>
</filter>
<linearGradient id="paint0_linear_22_1600" x1="9.97859" y1="173.361" x2="175.5" y2="4.48914" gradientUnits="userSpaceOnUse">
<stop stop-color="#5DAC5C"/>
<stop offset="1" stop-color="#30602F"/>
</linearGradient>
</defs>
</svg>
