<svg width="180" height="180" viewBox="0 0 180 180" fill="none" xmlns="http://www.w3.org/2000/svg">
<g filter="url(#filter0_d_22_1599)">
<rect x="3" y="1" width="174" height="173.473" rx="20" fill="url(#paint0_linear_22_1599)"/>
</g>
<path d="M146.182 97.9036C146.157 97.736 146.157 97.5445 146.157 97.3769C146.157 94.9826 148.16 93.0433 150.633 93.0433C151.3 93.0433 151.943 93.187 152.512 93.4503C153.427 91.6547 155.306 90.4336 157.507 90.4336C160.597 90.4336 163.095 92.8518 163.095 95.8446C163.095 95.8685 163.095 95.8685 163.095 95.8925C165.295 96.1558 167.002 97.9754 167.002 100.178C167.002 102.572 164.999 104.512 162.526 104.512L146.553 104.607C144.649 104.607 143.091 103.099 143.091 101.256C143.066 99.4838 144.426 98.0473 146.182 97.9036Z" fill="white"/>
<path d="M87.2984 118.785C87.3231 118.617 87.3231 118.426 87.3231 118.258C87.3231 115.864 85.3203 113.925 82.8476 113.925C82.18 113.925 81.5371 114.068 80.9684 114.332C80.0536 112.536 78.1744 111.315 75.9737 111.315C72.8829 111.315 70.3855 113.733 70.3855 116.726C70.3855 116.75 70.3855 116.75 70.3855 116.774C68.1849 117.037 66.4788 118.857 66.4788 121.059C66.4788 123.454 68.4816 125.393 70.9542 125.393L86.9275 125.489C88.8314 125.489 90.3892 123.98 90.3892 122.137C90.4139 120.365 89.054 118.929 87.2984 118.785Z" fill="white"/>
<path d="M158.955 93.8213C158.683 94.8029 158.436 95.0184 157.422 95.3057C158.436 95.5691 158.659 95.8085 158.955 96.7901C159.227 95.8085 159.475 95.593 160.488 95.3057C159.475 95.0184 159.252 94.8029 158.955 93.8213Z" fill="#F1D156"/>
<path d="M163.653 96.2632C163.456 96.9815 163.283 97.1491 162.541 97.3406C163.283 97.5321 163.456 97.6997 163.653 98.418C163.851 97.6997 164.024 97.5321 164.766 97.3406C164.024 97.1491 163.851 96.9815 163.653 96.2632Z" fill="#F1D156"/>
<path d="M124.487 134.068C124.289 134.787 124.116 134.954 123.374 135.146C124.116 135.337 124.289 135.505 124.487 136.223C124.685 135.505 124.858 135.337 125.599 135.146C124.858 134.954 124.685 134.787 124.487 134.068Z" fill="white"/>
<path d="M136.726 98.897C136.528 99.6152 136.355 99.7828 135.614 99.9744C136.355 100.166 136.528 100.334 136.726 101.052C136.924 100.334 137.097 100.166 137.839 99.9744C137.097 99.7589 136.924 99.6152 136.726 98.897Z" fill="white"/>
<path d="M88.0399 111.658C87.8421 112.376 87.669 112.544 86.9272 112.736C87.669 112.927 87.8421 113.095 88.0399 113.813C88.2377 113.095 88.4108 112.927 89.1526 112.736C88.4108 112.52 88.2377 112.376 88.0399 111.658Z" fill="white"/>
<path d="M77.3087 84.9385C77.0367 85.9201 76.7894 86.1356 75.7756 86.4229C76.7894 86.6863 77.012 86.9257 77.3087 87.9073C77.5807 86.9257 77.8279 86.7102 78.8417 86.4229C77.8279 86.1595 77.6054 85.9441 77.3087 84.9385Z" fill="#F1D156"/>
<path d="M105.966 122.241C105.175 123.031 104.161 123.581 103.049 123.821C102.01 124.036 100.947 123.989 99.8838 124.036C98.8205 124.084 97.7326 124.228 96.8424 124.803C95.9523 125.377 95.3588 126.455 95.6556 127.436" stroke="#43434D" stroke-width="0.463639" stroke-miterlimit="10"/>
<path d="M123.102 123.175C122.508 120.206 120.209 117.596 117.266 116.567C114.101 115.465 110.269 116.255 107.92 118.626C107.079 119.488 106.411 120.493 105.67 121.427C104.903 122.361 103.988 123.223 102.851 123.63C101.689 124.037 100.378 123.917 99.1913 124.324C97.1391 125.018 95.9275 127.293 96.1253 129.4C96.3231 131.507 97.683 133.374 99.4139 134.667C100.329 135.361 101.441 135.912 102.604 135.864C104.359 135.816 105.769 134.475 107.401 133.781C109.354 132.967 111.555 133.111 113.706 133.135C115.758 133.183 118.305 133.063 120.011 131.794C121.495 130.693 122.583 128.634 123.028 126.91C123.3 125.689 123.349 124.42 123.102 123.175Z" fill="#43434D"/>
<path d="M116.92 116.686C117.365 116.303 117.81 115.92 118.256 115.561C118.849 115.058 119.467 114.507 119.591 113.741C119.69 113.19 119.492 112.616 119.121 112.161C118.775 111.706 118.28 111.395 117.761 111.131C116.253 110.389 114.423 110.246 112.816 110.724C112.272 110.892 111.728 111.131 111.307 111.515C110.912 111.898 110.64 112.472 110.739 113.023C110.862 113.741 111.505 114.268 112.074 114.747C112.643 115.226 113.236 115.872 113.137 116.59C114.225 117.285 115.956 117.5 116.92 116.686Z" fill="#43434D"/>
<path d="M113.632 116.351C113.137 115.824 112.47 115.489 111.753 115.273C111.06 115.058 110.318 114.962 109.577 114.89" stroke="#43434D" stroke-width="0.463639" stroke-miterlimit="10"/>
<path d="M113.459 116.423C113.286 116.016 112.791 115.848 112.346 115.8C111.703 115.728 111.06 115.848 110.393 115.848C109.75 115.848 109.057 115.728 108.588 115.297" stroke="#43434D" stroke-width="0.463639" stroke-miterlimit="10"/>
<path d="M112.098 140.437C111.406 138.761 111.728 134.284 112.593 132.704C111.505 131.985 110.417 130.932 109.799 129.831C109.156 128.705 108.711 127.508 108.266 126.311C108.093 126.191 107.623 125.976 107.475 126.119C107.326 126.263 107.277 126.479 107.227 126.67C106.139 130.836 104.31 134.811 101.837 138.354C101.812 138.977 101.985 139.958 102.579 140.245C103.147 140.533 103.84 140.605 104.483 140.605C106.659 140.629 108.587 142.712 110.565 141.85C111.233 141.562 111.802 141.107 112.098 140.437Z" fill="#EAAC93"/>
<path d="M122.385 126.742C122.385 127.053 120.184 135.361 112.742 134.954C105.299 134.547 107.178 126.957 109.057 124.012C110.961 121.067 122.459 116.159 122.385 126.742Z" fill="#EAAC93"/>
<path d="M104.878 122.217C105.719 120.637 107.722 119.99 109.354 120.804C110.986 121.618 112.568 123.989 111.728 125.593C110.887 127.197 107.969 127.365 106.337 126.55C104.705 125.736 104.038 123.797 104.878 122.217Z" fill="#EAAC93"/>
<path d="M121.742 128.561C122.138 126.814 121.742 124.922 120.679 123.486C117.464 123.965 114.176 123.414 111.308 121.882C113.014 120.684 115.214 119.272 117.291 119.463C119.393 119.655 121.421 120.876 122.261 122.743C123.102 124.563 122.657 126.766 121.742 128.561Z" fill="#43434D"/>
<path d="M108.167 123.031C107.623 123.198 107.104 123.462 106.659 123.845" stroke="#0F1109" stroke-width="0.463639" stroke-miterlimit="10" stroke-linecap="round"/>
<path d="M107.054 122.432C107.376 123.055 107.598 123.725 107.697 124.395" stroke="#0F1109" stroke-width="0.463639" stroke-miterlimit="10" stroke-linecap="round"/>
<path d="M113.31 129.208C113.211 129.759 113.483 130.357 113.953 130.692" stroke="#0F1109" stroke-width="0.463639" stroke-miterlimit="10" stroke-linecap="round"/>
<path opacity="0.3" d="M112.368 128.083C113.367 127.861 113.99 126.897 113.76 125.931C113.531 124.964 112.536 124.361 111.538 124.583C110.539 124.805 109.916 125.769 110.146 126.735C110.375 127.702 111.37 128.305 112.368 128.083Z" fill="white"/>
<path d="M111.678 134.81C109.156 134.188 108.217 132.488 107.994 130.692" stroke="#0F1109" stroke-width="0.463639" stroke-miterlimit="10" stroke-linecap="round"/>
<path d="M117.687 128.441C117.34 129.016 116.994 129.567 116.648 130.141C116.524 130.333 116.401 130.524 116.178 130.596C115.931 130.668 115.659 130.524 115.437 130.381" stroke="#0F1109" stroke-width="0.463639" stroke-miterlimit="10" stroke-linecap="round"/>
<path d="M119.195 130.189C119.332 130.189 119.442 130.082 119.442 129.95C119.442 129.818 119.332 129.71 119.195 129.71C119.058 129.71 118.948 129.818 118.948 129.95C118.948 130.082 119.058 130.189 119.195 130.189Z" fill="#0F1109"/>
<path d="M116.006 127.915C116.142 127.915 116.253 127.808 116.253 127.675C116.253 127.543 116.142 127.436 116.006 127.436C115.869 127.436 115.758 127.543 115.758 127.675C115.758 127.808 115.869 127.915 116.006 127.915Z" fill="#0F1109"/>
<path d="M117.489 126.502C116.92 126.071 116.277 125.736 115.56 125.568" stroke="#0F1109" stroke-width="0.463639" stroke-miterlimit="10" stroke-linecap="round"/>
<path d="M119.912 128.13C120.308 128.466 120.604 128.897 120.827 129.351" stroke="#0F1109" stroke-width="0.463639" stroke-miterlimit="10" stroke-linecap="round"/>
<path d="M111.678 138.761C111.678 138.761 111.307 141.897 108.217 141.299C105.126 140.7 102.505 137.348 102.505 137.348C102.505 137.348 91.6005 133.805 81.8335 139.455C74.7618 143.549 70.7808 150.9 68.9263 158.466C68.0856 161.913 66.9235 166.247 69.0252 169.479C70.039 171.035 71.7451 172.376 73.6738 172.424C74.9101 172.448 76.0475 173.142 77.2839 173.166C80.3252 173.214 130.198 173.142 132.102 173.166C132.102 173.142 138.976 142.688 111.678 138.761Z" fill="#E06F5B"/>
<mask id="mask0_22_1599" style="mask-type:luminance" maskUnits="userSpaceOnUse" x="69" y="136" width="64" height="38">
<path d="M111.678 138.761C111.678 138.761 111.307 141.898 108.217 141.299C105.126 140.7 102.505 137.348 102.505 137.348C102.505 137.348 91.8477 134.188 81.8335 139.455C76.8635 142.089 73.8469 147.093 71.9677 152.121C71.0033 154.707 70.311 157.364 69.7918 160.07C69.2725 162.823 68.7532 165.792 70.0637 168.402C70.2616 168.809 70.5088 169.216 70.8055 169.599C74.1683 174.052 79.8801 173.334 84.8501 173.334C90.1169 173.334 95.4083 173.334 100.675 173.334C109.7 173.334 131.039 172.927 132.177 172.927C132.201 172.903 138.976 142.688 111.678 138.761Z" fill="white"/>
</mask>
<g mask="url(#mask0_22_1599)">
<path d="M73.8962 138.497C74.2919 142.807 76.8387 146.925 80.6713 149.176C84.5039 151.426 89.5233 151.69 93.529 149.75C97.5347 147.835 100.378 143.741 100.601 139.407C100.724 136.941 99.8837 134.236 97.7325 132.895C96.8671 132.344 95.5813 132.129 94.889 132.847C94.3944 133.374 94.3944 134.164 94.4933 134.858C95.6308 142.161 104.137 146.231 111.035 144.363C113.434 143.717 115.486 142.376 117.415 140.868C119.393 139.335 120.802 136.486 122.063 134.355" stroke="white" stroke-width="0.501981" stroke-miterlimit="10"/>
<path d="M127.33 141.466C124.759 142.831 122.632 145.01 121.346 147.572C120.53 149.2 120.085 151.211 121.05 152.767C121.717 153.868 123.003 154.515 124.289 154.73C127.182 155.233 130.297 153.605 131.46 150.995C131.806 150.205 132.003 149.295 131.806 148.457C131.608 147.62 130.99 146.829 130.149 146.566C128.888 146.183 127.602 146.949 126.539 147.715C122.509 150.588 118.651 153.725 115.363 157.364C112.074 161.003 109.354 165.193 107.821 169.814" stroke="white" stroke-width="0.501981" stroke-miterlimit="10"/>
</g>
<path d="M104.804 172.184L123.893 172.28C125.995 172.232 127.775 171.969 129.308 170.628C129.605 170.365 129.901 170.054 130.173 169.742C131.459 168.21 132.077 166.295 131.608 164.571C131.286 163.374 130.619 162.368 129.728 161.602C128.27 160.381 126.242 159.83 124.214 160.333L104.112 165.289C98.9193 166.726 99.3644 172.496 104.804 172.184Z" fill="#EAAC93"/>
<path d="M104.112 165.289C104.112 165.289 95.7543 164.93 94.1471 165.289C93.4053 165.457 88.188 167.468 86.7044 168.114C84.5038 169.072 80.2756 171.73 80.7701 172.208C81.3141 172.711 82.13 172.448 82.8224 172.065C82.1548 173.094 84.034 173.286 85.1714 172.232C85.1467 172.615 85.295 173.046 86.0863 173.046C87.0506 173.046 92.4162 171.897 93.5289 171.849C94.5427 172.472 96.5455 172.879 98.7462 173.046C101.837 173.046 104.779 172.184 104.779 172.184L104.112 165.289Z" fill="#EAAC93"/>
<path d="M83.1438 171.61C85.5917 169.647 89.8447 168.043 92.9107 167.085" stroke="#0F1109" stroke-width="0.463639" stroke-miterlimit="10" stroke-linecap="round"/>
<path d="M85.3938 172.065C87.5203 170.772 90.9325 169.719 93.3063 168.641" stroke="#0F1109" stroke-width="0.463639" stroke-miterlimit="10" stroke-linecap="round"/>
<path d="M104.804 172.041C105.101 171.825 105.398 171.61 105.719 171.418" stroke="#0F1109" stroke-width="0.463639" stroke-miterlimit="10" stroke-linecap="round"/>
<path d="M106.906 173.118L105.373 164.236L123.621 159.543C123.621 159.543 133.512 156.646 134.352 164.834C135.094 172.017 128.937 173.046 128.937 173.046L106.906 173.118Z" fill="#E06F5B"/>
<path d="M120.802 147.404C118.354 146.375 111.654 145.561 109.255 145.584C106.313 145.608 101.837 147.476 101.837 147.476C101.639 147.524 101.417 147.596 101.219 147.667L82.1549 155.568C80.251 156.359 78.9652 157.987 78.5943 159.83C78.3718 160.956 78.4707 162.153 78.9652 163.278C79.6823 164.93 81.3637 166.055 83.3418 166.534C83.7374 166.63 84.1578 166.702 84.5781 166.726C86.6304 166.893 88.7074 166.295 90.3888 165.121L105.225 154.683C105.225 154.683 106.832 155.592 108.365 155.64C109.799 155.688 111.728 155.592 112.519 155.999C113.31 156.406 116.352 158.035 116.772 157.604C117.192 157.149 115.264 155.497 115.041 155.138C114.819 154.802 113.038 153.342 113.038 153.342C113.038 153.342 115.14 153.725 115.635 154.012C116.154 154.3 118.008 156.646 118.527 156.215C119.047 155.784 117.736 153.533 116.945 152.671C116.154 151.81 114.744 151.259 114.744 151.259C114.744 151.259 116.747 151.426 117.316 151.762C117.86 152.121 120.258 154.778 120.975 154.252C121.692 153.701 120.061 151.331 119.096 150.541C118.132 149.75 115.165 148.889 115.165 148.889C115.165 148.889 116.821 148.649 118.552 148.697C120.011 148.721 122.632 149.415 122.706 148.793C122.879 148.146 121.371 147.644 120.802 147.404Z" fill="#EAAC93"/>
<path d="M105.175 154.659C104.73 154.275 104.285 153.868 103.865 153.485" stroke="#0F1109" stroke-width="0.463639" stroke-miterlimit="10" stroke-linecap="round"/>
<path d="M95.161 149.104L100.848 159.399L84.0835 170.461C84.0835 170.461 70.5335 178.074 67.0223 167.659C64.1788 159.232 74.5639 155.832 74.5639 155.832L95.161 149.104Z" fill="#E06F5B"/>
<path d="M100.848 159.399C100.848 159.399 83.5644 170.724 83.416 170.796" stroke="#0F1109" stroke-width="0.463639" stroke-miterlimit="10" stroke-linecap="round"/>
<path d="M68.4814 159.806C71.597 156.79 75.8252 155.401 75.8252 155.401L95.1612 149.104" stroke="#0F1109" stroke-width="0.463639" stroke-miterlimit="10" stroke-linecap="round"/>
<path d="M92.2681 150.445L97.9057 160.884" stroke="white" stroke-width="0.501981" stroke-miterlimit="10"/>
<path d="M105.373 164.26L125.253 159.639" stroke="#0F1109" stroke-width="0.463639" stroke-miterlimit="10" stroke-linecap="round"/>
<path d="M107.945 163.996L109.675 171.849" stroke="white" stroke-width="0.501981" stroke-miterlimit="10"/>
<path d="M135.267 138.378H140.064L139.594 139.503C139.322 140.126 138.408 140.629 137.517 140.629C136.652 140.629 136.133 140.126 136.405 139.503C136.677 138.881 136.157 138.378 135.267 138.378Z" fill="#B3D7F0"/>
<path d="M128.468 150.948L133.215 139.503C133.462 138.881 134.377 138.378 135.267 138.378H135.292C136.182 138.378 136.677 138.881 136.405 139.503C136.157 140.126 136.652 140.629 137.517 140.629H158.09L153.491 150.948H128.468Z" fill="white"/>
<path d="M137.518 140.628C138.408 140.628 139.323 140.126 139.595 139.503L147.013 121.953C147.285 121.331 148.224 120.828 149.139 120.828C150.029 120.828 171.393 120.828 171.393 120.828L163.109 139.168C162.813 139.79 161.725 140.652 160.835 140.652H137.518V140.628Z" fill="white"/>
<path d="M149.139 120.804H172.184C172.184 120.804 174.137 121.283 174.137 123.174H151.438C151.438 123.174 151.587 120.804 149.139 120.804Z" fill="#B3D7F0"/>
<path d="M137.518 140.628H160.859" stroke="#0F1109" stroke-width="0.463639" stroke-miterlimit="10" stroke-linecap="round"/>
<path d="M143.575 173.07H100.205C98.5484 173.07 97.1885 171.754 97.1885 170.149H146.592C145.356 172.424 143.575 173.07 143.575 173.07Z" fill="#43434D"/>
<path d="M111.95 172.951C113.137 172.639 114.052 171.61 114.151 170.389" stroke="white" stroke-width="0.371573" stroke-miterlimit="10" stroke-linecap="round"/>
<path d="M158.287 147.548H126.069L114.373 170.149H146.592L158.287 147.548Z" fill="#43434D"/>
<path d="M136.949 161.003C137.959 161.003 138.778 160.21 138.778 159.232C138.778 158.253 137.959 157.46 136.949 157.46C135.938 157.46 135.119 158.253 135.119 159.232C135.119 160.21 135.938 161.003 136.949 161.003Z" fill="white"/>
<path d="M160.901 165.651H138.425V168.788H160.901V165.651Z" fill="#78CD72"/>
<path d="M158.305 168.093C158.796 168.093 159.195 167.708 159.195 167.232C159.195 166.756 158.796 166.37 158.305 166.37C157.813 166.37 157.415 166.756 157.415 167.232C157.415 167.708 157.813 168.093 158.305 168.093Z" fill="white"/>
<path d="M167.008 160.408H145.051V165.651H167.008V160.408Z" fill="#E8C245"/>
<path d="M166.143 161.94V164.143C165.624 164.143 165.203 164.55 165.203 165.053H146.782C146.782 164.55 146.362 164.143 145.843 164.143V161.94C146.362 161.94 146.782 161.533 146.782 161.03H165.203C165.203 161.533 165.624 161.94 166.143 161.94Z" stroke="white" stroke-width="0.501981" stroke-miterlimit="10"/>
<path d="M169.407 150.879H147.202V156.745H169.407V150.879Z" fill="#857FF0"/>
<path d="M163.571 151.525V156.074" stroke="white" stroke-width="0.501981" stroke-miterlimit="10"/>
<path d="M165.006 151.525V156.074" stroke="white" stroke-width="0.501981" stroke-miterlimit="10"/>
<path d="M166.514 151.525V156.074" stroke="white" stroke-width="0.501981" stroke-miterlimit="10"/>
<path d="M167.948 151.525V156.074" stroke="white" stroke-width="0.501981" stroke-miterlimit="10"/>
<path d="M163.324 157.271C163.2 157.607 163.126 158.061 163.126 158.588C163.126 159.091 163.2 159.57 163.324 159.905C163.398 160.097 163.472 160.264 163.571 160.336V160.432H141.515V156.769H163.571V156.864C163.472 156.912 163.374 157.08 163.324 157.271Z" fill="#E06F5B"/>
<path d="M163.324 159.905H157.217V157.295H163.324C163.2 157.631 163.126 158.086 163.126 158.612C163.126 159.091 163.2 159.57 163.324 159.905Z" fill="white"/>
<path d="M163.324 157.271C163.324 157.271 163.126 157.726 163.126 158.588C163.126 159.426 163.324 159.905 163.324 159.905" stroke="#0F1109" stroke-width="0.501981" stroke-miterlimit="10" stroke-linecap="round"/>
<path d="M128.583 169.338C128.707 169.673 128.781 170.128 128.781 170.655C128.781 171.158 128.707 171.637 128.583 171.972C128.509 172.163 128.435 172.331 128.336 172.403V172.499H163.324V168.835H128.336V168.931C128.41 168.979 128.509 169.123 128.583 169.338Z" fill="#857FF0"/>
<path d="M128.559 171.948H134.666V169.338H128.559C128.682 169.674 128.756 170.128 128.756 170.655C128.756 171.158 128.682 171.613 128.559 171.948Z" fill="white"/>
<path d="M128.583 169.338C128.583 169.338 128.781 169.793 128.781 170.655C128.781 171.517 128.583 171.972 128.583 171.972" stroke="#0F1109" stroke-width="0.501981" stroke-miterlimit="10" stroke-linecap="round"/>
<path d="M135.927 169.051V172.259" stroke="white" stroke-width="0.501981" stroke-miterlimit="10"/>
<path d="M137.361 169.051V172.259" stroke="white" stroke-width="0.501981" stroke-miterlimit="10"/>
<path d="M72.4171 173.065H83.6182V157.982H72.4171V173.065Z" fill="#E8C245"/>
<path d="M67.542 165.529C67.542 168.138 69.7179 170.245 72.4131 170.245C75.1083 170.245 77.2842 168.138 77.2842 165.529C77.2842 162.919 75.1083 160.812 72.4131 160.812C69.7179 160.812 67.542 162.919 67.542 165.529ZM69.2728 165.529C69.2728 163.853 70.6822 162.488 72.4131 162.488C74.1439 162.488 75.5534 163.853 75.5534 165.529C75.5534 167.205 74.1439 168.569 72.4131 168.569C70.6822 168.569 69.2728 167.205 69.2728 165.529Z" fill="#E8C245"/>
<path d="M83.6142 173.071V157.987H72.4131" stroke="#0F1109" stroke-width="0.463639" stroke-miterlimit="10" stroke-linecap="round"/>
<path d="M72.413 162.488C72.413 162.488 69.2727 162.871 69.2727 165.528C69.2727 168.186 72.413 168.569 72.413 168.569" stroke="#0F1109" stroke-width="0.463639" stroke-miterlimit="10" stroke-linecap="round"/>
<path d="M20.7694 46.8352H28.1694V48.0952H20.7694V46.8352ZM20.9294 53.2952H29.3494V54.5752H19.4494V40.5752H29.0494V41.8552H20.9294V53.2952ZM37.8883 43.9752C38.7417 43.9752 39.4883 44.1419 40.1283 44.4752C40.7817 44.7952 41.2883 45.2885 41.6483 45.9552C42.0217 46.6219 42.2083 47.4619 42.2083 48.4752V54.5752H40.7883V48.6152C40.7883 47.5085 40.5083 46.6752 39.9483 46.1152C39.4017 45.5419 38.6283 45.2552 37.6283 45.2552C36.8817 45.2552 36.2283 45.4085 35.6683 45.7152C35.1217 46.0085 34.695 46.4419 34.3883 47.0152C34.095 47.5752 33.9483 48.2552 33.9483 49.0552V54.5752H32.5283V44.0752H33.8883V46.9552L33.6683 46.4152C34.0017 45.6552 34.535 45.0619 35.2683 44.6352C36.0017 44.1952 36.875 43.9752 37.8883 43.9752ZM49.364 54.6752C48.3773 54.6752 47.6173 54.4085 47.084 53.8752C46.5506 53.3419 46.284 52.5885 46.284 51.6152V41.7552H47.704V51.5352C47.704 52.1485 47.8573 52.6219 48.164 52.9552C48.484 53.2885 48.9373 53.4552 49.524 53.4552C50.1506 53.4552 50.6706 53.2752 51.084 52.9152L51.584 53.9352C51.304 54.1885 50.964 54.3752 50.564 54.4952C50.1773 54.6152 49.7773 54.6752 49.364 54.6752ZM44.404 45.2552V44.0752H50.904V45.2552H44.404ZM58.2579 54.6752C57.1645 54.6752 56.2045 54.4485 55.3779 53.9952C54.5512 53.5285 53.9045 52.8952 53.4379 52.0952C52.9712 51.2819 52.7379 50.3552 52.7379 49.3152C52.7379 48.2752 52.9579 47.3552 53.3979 46.5552C53.8512 45.7552 54.4645 45.1285 55.2379 44.6752C56.0245 44.2085 56.9045 43.9752 57.8779 43.9752C58.8645 43.9752 59.7379 44.2019 60.4979 44.6552C61.2712 45.0952 61.8779 45.7219 62.3179 46.5352C62.7579 47.3352 62.9779 48.2619 62.9779 49.3152C62.9779 49.3819 62.9712 49.4552 62.9579 49.5352C62.9579 49.6019 62.9579 49.6752 62.9579 49.7552H53.8179V48.6952H62.1979L61.6379 49.1152C61.6379 48.3552 61.4712 47.6819 61.1379 47.0952C60.8179 46.4952 60.3779 46.0285 59.8179 45.6952C59.2579 45.3619 58.6112 45.1952 57.8779 45.1952C57.1579 45.1952 56.5112 45.3619 55.9379 45.6952C55.3645 46.0285 54.9179 46.4952 54.5979 47.0952C54.2779 47.6952 54.1179 48.3819 54.1179 49.1552V49.3752C54.1179 50.1752 54.2912 50.8819 54.6379 51.4952C54.9979 52.0952 55.4912 52.5685 56.1179 52.9152C56.7579 53.2485 57.4845 53.4152 58.2979 53.4152C58.9379 53.4152 59.5312 53.3019 60.0779 53.0752C60.6379 52.8485 61.1179 52.5019 61.5179 52.0352L62.3179 52.9552C61.8512 53.5152 61.2645 53.9419 60.5579 54.2352C59.8645 54.5285 59.0979 54.6752 58.2579 54.6752ZM65.8682 54.5752V44.0752H67.2282V46.9352L67.0882 46.4352C67.3815 45.6352 67.8749 45.0285 68.5682 44.6152C69.2615 44.1885 70.1215 43.9752 71.1482 43.9752V45.3552C71.0949 45.3552 71.0415 45.3552 70.9882 45.3552C70.9349 45.3419 70.8815 45.3352 70.8282 45.3352C69.7215 45.3352 68.8549 45.6752 68.2282 46.3552C67.6015 47.0219 67.2882 47.9752 67.2882 49.2152V54.5752H65.8682ZM22.7374 69.5432H30.8254V72.5672H22.7374V69.5432ZM23.0254 76.4552H32.1694V79.5752H19.1614V62.7752H31.8574V65.8952H23.0254V76.4552ZM33.2264 79.5752L39.0104 71.9912L38.9384 74.0552L33.3944 66.6632H37.5944L41.0984 71.4872L39.5144 71.5352L43.1384 66.6632H47.1224L41.5544 73.9832V71.9672L47.3144 79.5752H43.0664L39.3944 74.4392L40.9544 74.6552L37.3064 79.5752H33.2264ZM56.8174 79.5752V77.0552L56.5774 76.5032V71.9912C56.5774 71.1912 56.3294 70.5672 55.8334 70.1192C55.3534 69.6712 54.6094 69.4472 53.6014 69.4472C52.9134 69.4472 52.2334 69.5592 51.5614 69.7832C50.9054 69.9912 50.3454 70.2792 49.8814 70.6472L48.5374 68.0312C49.2414 67.5352 50.0894 67.1512 51.0814 66.8792C52.0734 66.6072 53.0814 66.4712 54.1054 66.4712C56.0734 66.4712 57.6014 66.9352 58.6894 67.8632C59.7774 68.7912 60.3214 70.2392 60.3214 72.2072V79.5752H56.8174ZM52.8814 79.7672C51.8734 79.7672 51.0094 79.5992 50.2894 79.2632C49.5694 78.9112 49.0174 78.4392 48.6334 77.8472C48.2494 77.2552 48.0574 76.5912 48.0574 75.8552C48.0574 75.0872 48.2414 74.4152 48.6094 73.8392C48.9934 73.2632 49.5934 72.8152 50.4094 72.4952C51.2254 72.1592 52.2894 71.9912 53.6014 71.9912H57.0334V74.1752H54.0094C53.1294 74.1752 52.5214 74.3192 52.1854 74.6072C51.8654 74.8952 51.7054 75.2552 51.7054 75.6872C51.7054 76.1672 51.8894 76.5512 52.2574 76.8392C52.6414 77.1112 53.1614 77.2472 53.8174 77.2472C54.4414 77.2472 55.0014 77.1032 55.4974 76.8152C55.9934 76.5112 56.3534 76.0712 56.5774 75.4952L57.1534 77.2232C56.8814 78.0552 56.3854 78.6872 55.6654 79.1192C54.9454 79.5512 54.0174 79.7672 52.8814 79.7672ZM80.2459 66.4712C81.2699 66.4712 82.1739 66.6792 82.9579 67.0952C83.7579 67.4952 84.3819 68.1192 84.8299 68.9672C85.2939 69.7992 85.5259 70.8712 85.5259 72.1832V79.5752H81.7819V72.7592C81.7819 71.7192 81.5659 70.9512 81.1339 70.4552C80.7019 69.9592 80.0939 69.7112 79.3099 69.7112C78.7659 69.7112 78.2779 69.8392 77.8459 70.0952C77.4139 70.3352 77.0779 70.7032 76.8379 71.1992C76.5979 71.6952 76.4779 72.3272 76.4779 73.0952V79.5752H72.7339V72.7592C72.7339 71.7192 72.5179 70.9512 72.0859 70.4552C71.6699 69.9592 71.0699 69.7112 70.2859 69.7112C69.7419 69.7112 69.2539 69.8392 68.8219 70.0952C68.3899 70.3352 68.0539 70.7032 67.8139 71.1992C67.5739 71.6952 67.4539 72.3272 67.4539 73.0952V79.5752H63.7099V66.6632H67.2859V70.1912L66.6139 69.1592C67.0619 68.2792 67.6939 67.6152 68.5099 67.1672C69.3419 66.7032 70.2859 66.4712 71.3419 66.4712C72.5259 66.4712 73.5579 66.7752 74.4379 67.3832C75.3339 67.9752 75.9259 68.8872 76.2139 70.1192L74.8939 69.7592C75.3259 68.7512 76.0139 67.9512 76.9579 67.3592C77.9179 66.7672 79.0139 66.4712 80.2459 66.4712Z" fill="white"/>
<defs>
<filter id="filter0_d_22_1599" x="0.0191889" y="0.503198" width="179.962" height="179.435" filterUnits="userSpaceOnUse" color-interpolation-filters="sRGB">
<feFlood flood-opacity="0" result="BackgroundImageFix"/>
<feColorMatrix in="SourceAlpha" type="matrix" values="0 0 0 0 0 0 0 0 0 0 0 0 0 0 0 0 0 0 127 0" result="hardAlpha"/>
<feOffset dy="2.48401"/>
<feGaussianBlur stdDeviation="1.49041"/>
<feComposite in2="hardAlpha" operator="out"/>
<feColorMatrix type="matrix" values="0 0 0 0 0 0 0 0 0 0 0 0 0 0 0 0 0 0 0.25 0"/>
<feBlend mode="normal" in2="BackgroundImageFix" result="effect1_dropShadow_22_1599"/>
<feBlend mode="normal" in="SourceGraphic" in2="effect1_dropShadow_22_1599" result="shape"/>
</filter>
<linearGradient id="paint0_linear_22_1599" x1="3" y1="168.576" x2="182.923" y2="13.782" gradientUnits="userSpaceOnUse">
<stop stop-color="#3BC2E0"/>
<stop offset="1" stop-color="#20687E"/>
</linearGradient>
</defs>
</svg>
