<svg width="558" height="372" viewBox="0 0 558 372" fill="none" xmlns="http://www.w3.org/2000/svg">
<g clip-path="url(#clip0)">
<path d="M208.6 118.8H250.8C267.9 118.8 284.5 111.9 296.7 99.9001L323.8 72.8001C336 60.6001 352.4 53.9001 369.7 53.9001H558.9V230.2H208.6V118.8Z" fill="#F6F6F6"/>
<path d="M-7.3999 139.1H30.3001V94.3001H95.9001V83.1001H223.5V97.2001H253.5V141.2H286.4V122.3H344.5V94.0001H352.7L385.9 127.3H406.2V112.1H558.8V273.2H308.6L-7.3999 251.3V139.1Z" fill="#E2E2E2"/>
<path d="M558.8 152.2V351.1L342 351C342 351 211.8 307.2 211.8 301.7C211.9 254.5 250.2 216.3 297.3 216.5C311.2 216.5 324.9 219.9 337.2 226.5C337.1 225.3 337.1 224 337.1 222.8C337.1 197.6 357.5 177.4 382.7 177.5C388.1 177.5 393.3 178.4 398.3 180.3C400.2 152.7 424.2 131.9 451.9 133.8C466.2 134.8 479.3 141.8 488.1 153.2L558.8 152.2Z" fill="#CBCBCB"/>
<path d="M277.3 336.7L303.5 310.5C316.3 297.7 333.7 290.4 351.9 290.5H558.7V372.6H441.5L277.3 336.7Z" fill="#AFAFAF"/>
<path d="M59.4001 254.3L59.0001 317.9H-7.3999V213.9C14.8001 202.1 42.4001 210.8 54.1001 233C57.6001 239.5 59.4001 246.8 59.4001 254.3Z" fill="#CBCBCB"/>
<path d="M240.1 299.9H37V246C37 227.1 52.3 211.7 71.3 211.7H205.7C224.6 211.7 240 227 240 246L240.1 299.9Z" fill="#CBCBCB"/>
<path d="M108.1 225.8C120.416 225.8 130.4 215.816 130.4 203.5C130.4 191.184 120.416 181.2 108.1 181.2C95.7843 181.2 85.8003 191.184 85.8003 203.5C85.8003 215.816 95.7843 225.8 108.1 225.8Z" fill="black"/>
<path d="M162.8 225.8C175.116 225.8 185.1 215.816 185.1 203.5C185.1 191.184 175.116 181.2 162.8 181.2C150.484 181.2 140.5 191.184 140.5 203.5C140.5 215.816 150.484 225.8 162.8 225.8Z" fill="black"/>
<path d="M206 191.4C207.8 188.1 208.7 184.4 208.7 180.7C208.7 172.8 204.5 165.7 198 161.6C192.8 158.3 188.8 153.3 186.7 147.4L181.3 132.8C179.5 127.7 175.9 123.4 171.3 120.6L159.1 113.2C139 100.7 113.1 102.8 95.0001 118.3L74.1001 136.2C69.2001 139.9 66.4001 145.9 66.4001 152C66.4001 153.6 66.5001 155.3 67.0001 156.8C68.0001 160.5 67.3001 164.7 64.8001 167.7C58.7001 175 59.6001 185.9 66.9001 192.1C68.2001 193.1 69.7001 194.2 71.4001 194.8C71.4001 195.2 71.4001 195.7 71.4001 196.1C71.4001 207.6 80.8001 217 92.3001 217C93.3001 217 94.2001 216.9 95.3001 216.7C104.8 225.2 119.4 224.3 127.8 214.9C129 213.6 130 212.1 130.9 210.6L153.5 217H175.3C182.3 217 188.9 213.7 193 208.2C193.1 207.8 204.8 193.5 206 191.4Z" fill="#333333"/>
<path d="M267.6 327.1H13.3003L34.9003 269.9C40.9003 254.1 53.7003 241.7 69.8003 236.4L140.6 213L211.5 236.4C227.6 241.8 240.4 254 246.4 269.9L267.6 327.1Z" fill="white"/>
<path d="M192.8 185C192.8 158.9 150.2 149.2 149.4 129.3C140.6 152.1 106 163.6 90.7001 163.6C63.7001 163.6 63.4001 187.1 68.6001 193.1C69.3001 193.7 70.2001 194.1 71.1001 194.4C71.1001 194.8 71.1001 195.3 71.1001 195.7C71.1001 207.2 80.5001 216.6 92.0001 216.6C93.0001 216.6 93.9001 216.5 95.0001 216.3C104.4 224.9 119 224.2 127.6 214.8C128.9 213.5 130 211.8 130.9 210.2L153.5 216.5H167.1C180.6 216.6 192.8 211.1 192.8 185Z" fill="black"/>
<path d="M109.9 167.3C110.5 163.3 95.4003 153.7 95.9003 165.7C96.3003 177.6 103.6 186.6 109.6 182.4L113.3 175.7L109.9 167.3Z" fill="#99644C"/>
<path d="M169.9 222.7V232.7C169.9 238.4 165.1 243.1 159.5 243L121.8 242.9C116.1 242.9 111.5 238.3 111.7 232.6V222.8L116.3 221.3C119 220.4 120.8 218 120.8 215.2V178.3H161V215.2C161 217.9 162.8 220.4 165.3 221.3L169.9 222.7Z" fill="#99644C"/>
<path d="M140.4 221.4C150.949 221.4 159.5 213.386 159.5 203.5C159.5 193.614 150.949 185.6 140.4 185.6C129.852 185.6 121.3 193.614 121.3 203.5C121.3 213.386 129.852 221.4 140.4 221.4Z" fill="#5C3C2E"/>
<path d="M149.5 125.7C142.5 143.7 119.6 154.6 102.7 158.5C102.8 174.1 108.1 187.9 111.9 198.1C119.8 217.8 153.9 228.2 169 198.1C173.2 186.9 178.8 172.5 178.8 157C171.1 150.3 161.7 144.5 155.7 138.1C152 134.3 149.6 130.3 149.5 125.7Z" fill="#99644C"/>
<path d="M116.9 191.4L114.2 187.2C110.2 180.8 107 173.9 105 166.8L103.2 160.2L106 159.5L107.8 166.1C109.7 173.1 112.7 179.7 116.6 185.8L119.3 190L116.9 191.4Z" fill="white"/>
<path d="M175.529 166.835L164.064 186.311L166.649 187.833L178.114 168.357L175.529 166.835Z" fill="white"/>
<path d="M173.8 184.8L154.9 178.4C145.5 175.1 135.2 175 125.7 177.8L106.8 183.3C108.4 188.8 110.4 193.7 112 198C119.9 217.7 154 228.1 169.1 198C170.5 194.1 172.1 189.6 173.8 184.8Z" fill="white"/>
<path d="M140.7 265C97.5001 265 59.7001 294.2 48.6001 336.2H66.0001C79.3001 295.1 123.4 272.4 164.5 285.7C188.5 293.4 207.4 312.2 215 336.2H232.4C221.7 294.3 184.1 265.1 140.7 265Z" fill="black"/>
<path d="M79.2003 141.8C76.4003 140.2 75.5003 136.4 77.1003 133.6C77.4003 133 77.8003 132.6 78.4003 132.1L74.1003 135.8C69.2003 139.5 66.4003 145.5 66.4003 151.6C66.4003 153.2 66.5003 154.9 67.0003 156.4C68.0003 160.1 67.3003 164.3 64.8003 167.3C64.8003 167.3 75.8003 154.6 80.6003 148.8C83.6003 145.5 81.4003 143.1 79.2003 141.8Z" fill="black"/>
<path d="M124.5 168.2C126.157 168.2 127.5 166.857 127.5 165.2C127.5 163.543 126.157 162.2 124.5 162.2C122.843 162.2 121.5 163.543 121.5 165.2C121.5 166.857 122.843 168.2 124.5 168.2Z" fill="black"/>
<path d="M131.9 166.7C126.8 156.9 113 165.1 113 165.1L117.3 166.7C121.6 163.2 127.7 163.2 131.9 166.7Z" fill="black"/>
<path d="M156.9 168.2C158.557 168.2 159.9 166.857 159.9 165.2C159.9 163.543 158.557 162.2 156.9 162.2C155.243 162.2 153.9 163.543 153.9 165.2C153.9 166.857 155.243 168.2 156.9 168.2Z" fill="black"/>
<path d="M149.5 166.7C154.6 156.9 168.4 165.1 168.4 165.1L164.1 166.7C159.9 163.2 153.8 163.2 149.5 166.7Z" fill="black"/>
<path d="M34.6001 320.6H54.7001L64.4001 304.2C66.9001 300.6 71.8001 299.9 75.4001 302.4C75.7001 302.7 76.0001 302.8 76.3001 303.1L81.8001 308.5C83.0001 310.1 85.2001 310.4 87.0001 309.4C87.9001 309 88.5001 308.1 88.8001 307C88.9001 306.3 89.8001 305.8 90.6001 306C90.7001 306.1 91.0001 306.1 91.2001 306.1C93.0001 306.1 94.5001 304.9 94.9001 303.3C94.9001 303.2 94.9001 303.2 94.9001 303C94.9001 302.4 95.3001 302 95.9001 302C96.0001 302 96.0001 302 96.2001 302C96.6001 302.1 96.9001 302.1 97.4001 302.1C99.0001 302.1 100.7 301.1 101.1 299.4C101.2 298.7 101.8 298.2 102.6 298.2H103.8C106 298.2 107.7 296.4 107.7 294.3C107.7 293.9 104.4 282.7 104.4 282.7C103.5 279.9 101.4 277.6 98.7001 276.4L90.2001 272.8C88.6001 271.5 86.0001 271.8 84.7001 273.4C84.6001 273.5 84.4001 273.8 84.3001 274.1C83.9001 275 83.0001 275.4 82.1001 275.4H82.0001C80.5001 275.4 79.2001 276.3 78.6001 277.5C78.2001 278.4 77.3001 278.8 76.4001 278.8C74.9001 278.8 73.6001 279.7 73.0001 280.9C72.6001 281.8 71.7001 282.2 70.8001 282.2H70.7001C68.9001 282.2 67.3001 283.4 66.8001 285.3L65.2001 289.6C63.3001 295.1 59.8001 299.9 55.2001 303.8L34.6001 320.6Z" fill="#99644C"/>
<path d="M146.2 122.6C140.5 137.9 153.1 161.3 177.3 149.3L166.9 132.3L146.2 122.6Z" fill="#333333"/>
<path d="M135.9 168.8C135.9 175.5 130.5 180.9 123.8 180.9C117.1 180.9 111.7 175.5 111.7 168.8V161.5" stroke="#FA9269" stroke-width="0.8194" stroke-miterlimit="10"/>
<path d="M144.9 168.8C144.9 175.5 150.3 180.9 157 180.9C163.7 180.9 169.1 175.5 169.1 168.8V161.5" stroke="#FA9269" stroke-width="0.8194" stroke-miterlimit="10"/>
<path d="M100.8 161.5H111.8C115.1 158.4 119.4 156.7 123.9 156.7C130.6 156.7 136 162.1 136 168.8" stroke="black" stroke-width="0.9386" stroke-miterlimit="10"/>
<path d="M135.9 167.4L136 167.1C137.2 164.7 140.2 163.7 142.6 165C143.6 165.4 144.4 166.3 144.8 167.4" stroke="black" stroke-width="0.9386" stroke-miterlimit="10"/>
<path d="M174.5 161.5H169C165.7 158.4 161.4 156.7 156.9 156.7C150.2 156.7 144.8 162.1 144.8 168.8" stroke="black" stroke-width="0.9386" stroke-miterlimit="10"/>
<path d="M174.5 145.1C174.5 145.1 162.3 180 192.8 181.5L196.8 171.2L174.5 145.1Z" fill="#333333"/>
<path d="M247.1 320.6H227.1L217.4 304.2C214.9 300.6 210 299.9 206.4 302.4C206.1 302.5 205.8 302.8 205.5 303.1L200 308.5C198.8 310.1 196.6 310.4 194.8 309.4C193.9 309 193.3 308.1 193 307C192.9 306.3 192 305.8 191.2 306C191.1 306.1 190.8 306.1 190.5 306.1C188.7 306.1 187.2 304.9 186.8 303.3C186.8 303.3 186.8 303.2 186.8 303C186.8 302.4 186.2 302 185.6 302C185.5 302 185.5 302 185.3 302C184.9 302.1 184.6 302.1 184.1 302.1C182.3 302.1 180.8 300.9 180.4 299.3C180.3 298.7 179.7 298.1 178.9 298.1H177.7C175.5 298.1 173.8 296.3 173.8 294.2C173.8 293.8 177.1 282.6 177.1 282.6C178 279.8 180.1 277.5 182.8 276.3L191.3 272.7C191.9 272.3 192.8 272 193.5 271.8C195 271.8 196.5 272.5 197.2 273.9C197.6 274.8 198.5 275.2 199.4 275.2H199.5C201 275.2 202.3 276.1 202.9 277.3C203.3 278.2 204.2 278.6 205.1 278.6C206.6 278.6 207.9 279.5 208.7 280.7C209.1 281.6 210 282 210.9 282C212.7 282 214.3 283.2 214.8 285.1L216.4 289.4C218.5 294.9 221.8 299.7 226.2 303.4L247.1 320.6Z" fill="#99644C"/>
<path d="M82.1001 156.7C94.9001 171.4 120.2 172 149.6 129.3L115.9 128.1L82.1001 156.7Z" fill="#333333"/>
<path d="M359.3 279.9H367C368.3 279.9 369.4 278.9 369.4 277.5V271.8H359.3V279.9Z" fill="#FABDA5"/>
<path d="M390.6 267.5L427.4 276.7C430.2 277.7 432 280.4 431.9 283.6V290.5L383 280.2L390.6 267.5Z" fill="#333333"/>
<path d="M390.6 277.1H371.8C362.6 277.1 353.5 274.3 345.7 268.9L334.5 261.2C328.4 257 321.2 254.8 313.8 254.8H300V245.3H313.9C323.3 245.3 332.4 248.1 340 253.5L351.2 261.2C357.3 265.4 364.5 267.6 371.9 267.6H390.7V277.1H390.6Z" fill="white"/>
<path d="M363.3 254.7L346.2 261.4C344 262.3 342.5 264.5 342.6 266.9L343.3 276.1C343.4 278.3 345.2 280 347.5 280H360.5L355 270L363.3 254.7Z" fill="#FA9269"/>
<path d="M377.3 228.6L363.4 254.7L355.1 260.4C353.6 261.4 352.7 263.2 353 265L353.9 274.2C354 276 355.1 277.6 356.6 278.5L357.3 278.9C358.2 279.5 359.4 279.8 360.6 279.8H361.6C363.5 279.8 365 278.3 365 276.4L362.2 276C357.6 276 357.9 266.5 363.4 266.5C363.4 266.5 363.8 267.5 374.6 267.5L375.3 260.5C375.4 258.6 376.3 256.6 377.8 255.3L396.1 237.6L377.3 228.6Z" fill="#FABDA5"/>
<path d="M459.5 262.3L451.5 290.3H558.8V242.2L459.5 262.3Z" fill="black"/>
<path d="M450.6 112.1H558.8V175.8H448.5L441.2 116L450.6 112.1Z" fill="#05A357"/>
<path d="M547.3 175.8H558.8V112.2H558.4C551.7 115.8 547.4 122.9 547.4 130.5L547.3 175.8Z" fill="#06C167"/>
<path d="M454.2 43.9C446 43.9 439.2 49.9 438.1 57.9C437.2 64.2 438.4 70.4 441.5 75.9C442.4 77.4 443.4 78.7 444.5 80.1L461.2 99.8L472.4 106.2C472.4 106.2 505.5 62.8 514.4 60.5C521.8 58.4 522.4 49.5 517.4 46.8C515.3 45.8 513.7 43.8 512.9 41.6C510.1 32.2 498.7 27.6 491.4 31.5C485.9 30.2 480.4 29.4 474.7 29.1C461.3 28.6 455.4 34.1 454.2 43.9Z" fill="black"/>
<path d="M498.9 116V103.9C507.1 103.9 515.4 104 515.4 93.3002V80.3002L519.9 77.8002C521.4 76.9002 521.8 75.1002 520.9 73.8002C520.8 73.7002 520.8 73.5002 520.6 73.4002L515.4 67.1002C513.9 65.3002 513.5 62.9002 514.2 60.7002C514.8 58.9002 514.6 57.1002 513.8 55.5002L511.7 51.3002C509.6 47.1002 504.4 45.5002 500.2 47.7002C499.5 48.0002 498.9 48.4002 498.3 49.0002L484.4 62.1002C482.2 64.2002 481.4 67.5002 482.3 70.3002L484.1 75.5002H478.9C478.9 71.6002 475.8 68.5002 471.9 68.5002C468 68.5002 464.9 71.6002 464.9 75.5002C464.9 76.7002 465.2 77.7002 465.6 78.8002L471.7 86.2002C471.7 91.1002 469 95.6002 464.7 97.8002L461.1 99.6002V115.8C471.9 125.8 488.3 125.8 498.9 116Z" fill="#FABDA5"/>
<path d="M498.9 103.8H495.9C491.7 103.8 487.6 102.5 484.1 99.9001C484.1 99.9001 490.1 110.3 498.8 110.3V103.8H498.9Z" fill="#FA9269"/>
<path d="M506.5 116H498.9C488.3 126 471.9 126 461.4 116H455.9C455.2 116 454.6 116 453.8 116C469.5 133.9 490.7 133.9 506.5 116Z" fill="#662A16"/>
<path d="M527.3 121.8C521.2 117.9 514.2 116 507 116H506.4C490.6 133.9 469.3 134 453.5 116C435.3 116.7 419.2 127.8 411.9 144.5L363.2 254.8L376.5 258.1L384.7 253.5C388.4 251.4 391.7 248.4 394.4 245L437.2 188.5C437.2 188.5 451.7 244.7 457.6 270.4C463.6 296.2 524.6 247.3 558.6 247.3V141.5L527.3 121.8Z" fill="#993F21"/>
<path d="M540 112.1C536.7 113.9 533.9 116.6 532 119.8C530.1 123.1 529 126.7 529 130.5V175.8H520.7L515.2 133.2C514.8 129.9 515.1 126.6 516.1 123.7C517.9 118.8 521.3 114.8 525.8 112.2L540 112.1Z" fill="black"/>
<path d="M452.401 112.1C449.101 113.9 446.301 116.6 444.401 119.8C442.501 123.1 441.401 126.7 441.401 130.5L441.701 206.2C437.701 202.2 435.001 197 434.401 191.3L427.501 133.2C427.101 129.9 427.401 126.6 428.401 123.7C428.801 122.4 429.401 121.2 430.201 120C433.001 115.2 438.201 112.3 443.801 112.3L452.401 112.1Z" fill="black"/>
<path d="M471.2 245.2C471.2 245.2 470.6 250.3 471.2 249.7C471.8 249.1 484.3 248.8 484.3 248.8L482.5 239.7L471.2 245.2Z" fill="#FA9269"/>
<path d="M409.3 277.1H390.5V267.6H409.3C416.7 267.6 423.9 265.4 430 261.2L441.2 253.5C448.8 248.1 458 245.3 467.3 245.3H487.3L481 254.8H467.1C459.7 254.8 452.5 257 446.4 261.2L435.2 268.9C427.8 274.2 418.7 277.1 409.3 277.1Z" fill="white"/>
<path d="M398.2 280H383L381.8 267C381.7 265.2 383 263.6 384.8 263.4C384.9 263.4 384.9 263.4 385.1 263.4H396.4C398.2 263.4 399.7 264.9 399.7 266.7C399.7 266.8 399.7 266.8 399.7 267L398.2 280Z" fill="#333333"/>
<path d="M512.7 253.8L494.5 264.8C490.3 267.3 484.8 266.9 481.1 263.6L471 254.7L478.2 248.7C480.9 246.5 482.4 243.2 482.4 239.8L483.9 239.1C488.1 237 493 236.4 497.6 237.6C500.4 238.3 503.4 238.3 506.4 237.7L507.7 237.4L512.7 253.8Z" fill="#FABDA5"/>
<path d="M504.1 65.7002L511 63.3002L510.6 63.2002C508.1 62.4002 505.4 63.4002 504.1 65.7002Z" fill="black"/>
<path d="M509.9 65.2001C509.9 65.6001 509.6 66.2001 509.3 66.5001L507.1 66.1001C507 65.8001 506.8 65.7001 507 65.4001C507 64.5001 507.6 63.9001 508.5 63.9001C508.5 63.9001 508.5 63.9001 508.6 63.9001C509.1 63.7001 509.9 64.3001 509.9 65.2001Z" fill="black"/>
<path d="M499.3 62.2001C502.4 60.4001 506 59.4 509.6 59.1V58.7001C509.6 57.7001 508.7 56.8 507.7 56.8H507.6C507 56.8 506.4 56.8001 505.8 56.9001C502.7 57.3001 500.2 59.4001 499.3 62.2001Z" fill="black"/>
<path d="M313.8 243.4C312.2 244.6 310.2 245.2 308.3 245H276.9C276 245 275.4 245.6 275.4 246.5V253.1C275.4 254 276 254.6 276.9 254.6H308.8C310.4 254.6 312.1 255 313.4 255.8L313.7 255.9C313.7 255.9 314.4 255.6 314.4 255.2V243.9C314.6 243.7 313.8 243.4 313.8 243.4Z" fill="#333333"/>
<path d="M-7.3999 317.7H371C381.3 317.7 391 321.7 398.3 329L441.5 372.5H-7.3999V317.7Z" fill="white"/>
<path d="M431.9 282.9H415.1V290.3H431.9V282.9Z" fill="#333333"/>
<path d="M558.8 161.6V165.6C554.6 162.8 549.7 161.1 544.6 161.1C537.2 161.2 530.1 164.4 525.2 169.9C529.4 160.4 536.4 154.1 544.6 154.1C550 154 554.9 156.8 558.8 161.6Z" fill="#CBCBCB"/>
<path d="M558.8 165.6V227.1C554.6 229.9 549.7 231.4 544.6 231.4C528.4 231.4 515.2 215.6 515.2 196.2C515.1 186.4 518.6 177 525.2 169.7C530.1 164.2 537.1 161.1 544.6 160.9C549.7 161.3 554.6 162.8 558.8 165.6Z" fill="white"/>
<path d="M544.6 223C542.8 223 541.3 221.5 541.3 219.7V175.3C541.3 173.5 542.8 172 544.6 172C546.4 172 547.9 173.5 547.9 175.3V219.7C547.9 221.5 546.4 223 544.6 223Z" fill="#CBCBCB"/>
<path d="M528.7 188.6L534.2 212.6C534.3 213.2 534.1 213.6 533.5 213.8C533.1 213.9 532.6 213.7 532.5 213.4L528 206.2C524.7 200.8 524.3 194.3 526.8 188.5C526.9 187.9 527.7 187.8 528.1 187.9C528.4 188 528.5 188.3 528.7 188.6Z" fill="#CBCBCB"/>
<path d="M558.8 196.2V210.2L556.9 213.3C556.6 213.7 556 213.9 555.6 213.6C555.3 213.5 555.2 213 555.2 212.6L558.8 196.2Z" fill="#CBCBCB"/>
<path d="M507.7 237.4L512.8 253.8C518.6 256.2 524.7 257.5 531 257.5H534.3C539.4 257.5 544.4 256.2 548.8 253.3L558.9 247.2V212.3L522 225.7C516.1 227.9 511.1 232.1 507.7 237.4Z" fill="#993F21"/>
<path d="M479.2 75.5L478.8 73.6C477.9 69.6 474 67 470 67.9C465.8 68.8 463.3 72.8 464.2 76.8V77.1C464.6 79.2 465.8 81 467.5 82.3L475.4 88.4L479.7 82.9L479.2 75.5Z" fill="#FABDA5"/>
<path d="M506.7 84.8C506.7 84.8 509.8 86.3 515.4 86.3" stroke="#FA9269" stroke-width="1.5445" stroke-miterlimit="10"/>
</g>
<defs>
<clipPath id="clip0">
<rect width="558" height="372" fill="white"/>
</clipPath>
</defs>
</svg>
