<svg width="18" height="20" viewBox="0 0 18 20" fill="none" xmlns="http://www.w3.org/2000/svg">
<path d="M17.6556 14.4619C17.4631 14.1181 17.2293 13.7744 16.9681 13.41C16.3464 12.6337 15.9155 11.7224 15.71 10.7494L15.4212 6.69313C15.2493 3.55125 13.4137 0.375 9.7631 0.375H8.23685C4.58622 0.375 2.73685 3.55125 2.55122 6.68625L2.26247 10.7494C2.0578 11.731 1.62702 12.6515 1.00435 13.4375C0.770598 13.795 0.536848 14.125 0.378723 14.4344C0.209018 14.6621 0.106239 14.9327 0.0819475 15.2157C0.057656 15.4987 0.112816 15.7829 0.241223 16.0363C0.391036 16.3023 0.611741 16.5216 0.878774 16.6697C1.14581 16.8178 1.44869 16.8888 1.75372 16.875H7.06122C6.94815 17.1865 6.91182 17.5207 6.9553 17.8493C6.99878 18.1778 7.12079 18.491 7.311 18.7624C7.50122 19.0338 7.75403 19.2554 8.04803 19.4083C8.34203 19.5613 8.66856 19.6412 8.99997 19.6412C9.33139 19.6412 9.65792 19.5613 9.95192 19.4083C10.2459 19.2554 10.4987 19.0338 10.6889 18.7624C10.8792 18.491 11.0012 18.1778 11.0446 17.8493C11.0881 17.5207 11.0518 17.1865 10.9387 16.875H16.2462C16.5541 16.8862 16.8589 16.811 17.1262 16.6579C17.3935 16.5048 17.6126 16.2799 17.7587 16.0088C17.8872 15.7669 17.9457 15.4939 17.9274 15.2206C17.9092 14.9473 17.8151 14.6846 17.6556 14.4619ZM9.68747 17.5625C9.68747 17.6985 9.64715 17.8314 9.57161 17.9445C9.49607 18.0575 9.38869 18.1456 9.26307 18.1977C9.13744 18.2497 8.99921 18.2633 8.86585 18.2368C8.73249 18.2103 8.60999 18.1448 8.51384 18.0486C8.41769 17.9525 8.35221 17.83 8.32568 17.6966C8.29916 17.5633 8.31277 17.425 8.36481 17.2994C8.41684 17.1738 8.50496 17.0664 8.61802 16.9909C8.73108 16.9153 8.864 16.875 8.99997 16.875C9.18231 16.875 9.35718 16.9474 9.48611 17.0764C9.61504 17.2053 9.68747 17.3802 9.68747 17.5625ZM16.5625 15.3831C16.5625 15.4381 16.4456 15.5 16.2737 15.5H1.75372C1.58185 15.5 1.49247 15.4381 1.46497 15.3831C1.43747 15.3281 1.46497 15.2525 1.53372 15.1425C1.71935 14.8263 1.93247 14.4963 2.15247 14.1663C2.83997 13.1763 3.52747 12.0488 3.6306 10.8456L3.92622 6.7825C4.0706 4.45875 5.28747 1.75 8.23685 1.75H9.7631C12.7125 1.75 13.9293 4.45875 14.0737 6.78938L14.3693 10.8456C14.4518 12.0625 15.1875 13.1763 15.875 14.1663C16.095 14.4963 16.3081 14.8538 16.5281 15.2044C16.55 15.228 16.5648 15.2572 16.5709 15.2888C16.577 15.3204 16.5741 15.3531 16.5625 15.3831Z" fill="white"/>
</svg>
