<svg version="1.1" xmlns="http://www.w3.org/2000/svg" xmlns:xlink="http://www.w3.org/1999/xlink" viewBox="0 0 172 172"><g fill="none" fill-rule="nonzero" stroke="none" stroke-width="1" stroke-linecap="butt" stroke-linejoin="miter" stroke-miterlimit="10" stroke-dasharray="" stroke-dashoffset="0" font-family="none" font-weight="none" font-size="none" text-anchor="none" style="mix-blend-mode: normal"><path d="M0,172v-172h172v172z" fill="none"></path><g fill="#e74c3c"><path d="M9.78698,1.67969l-8.10729,8.10729l160.53333,160.53333l8.10729,-8.10729l-27.75964,-27.75964c25.08113,-29.25192 23.83637,-73.45687 -3.85208,-101.15078c-2.24173,-2.24173 -5.86556,-2.24173 -8.10729,0c-2.24173,2.24173 -2.24173,5.86556 0,8.10729c23.21626,23.22167 24.47772,60.17294 3.84089,84.925l-12.23933,-12.23932c13.96391,-17.97665 12.73178,-44.01926 -3.7737,-60.52474c-2.24173,-2.24173 -5.86556,-2.24173 -8.10729,0c-2.24174,2.24173 -2.24173,5.86556 0,8.10729c12.02664,12.02665 13.24022,30.80826 3.69531,44.23177l-12.53047,-12.53047c1.08171,-2.23404 1.71328,-4.72436 1.71328,-7.37942c0,-9.50013 -7.69987,-17.2 -17.2,-17.2c-2.65507,0 -5.14539,0.63157 -7.37942,1.71328l-16.95365,-16.94245l-20.23463,-20.24583l-0.05599,-0.05599zM22.76536,46.67292c-17.87653,28.74693 -14.40276,67.08994 10.53724,92.03567c1.118,1.118 2.58591,1.67969 4.05365,1.67969c1.46773,0 2.93565,-0.56169 4.05365,-1.67969c2.24173,-2.24173 2.24173,-5.86556 0,-8.10729c-20.44507,-20.4508 -23.83329,-51.53488 -10.27969,-75.57474zM43.92943,67.82578c-7.21253,16.7528 -4.01539,36.94659 9.64141,50.60339c1.118,1.118 2.58591,1.67969 4.05364,1.67969c1.46773,0 2.93565,-0.56169 4.05364,-1.67969c2.24174,-2.24173 2.24174,-5.86556 0,-8.10729c-9.0472,-9.04721 -11.84865,-21.88459 -8.68958,-33.42579z"></path></g></g></svg>