<svg width="30" height="23" viewBox="0 0 30 23" fill="none" xmlns="http://www.w3.org/2000/svg">
<path d="M9.11677 17.9974L7.76538 19.1285C8.19569 19.5863 8.66315 20.0115 9.16362 20.4003L10.306 19.08C9.87991 18.7494 9.48226 18.3874 9.11677 17.9974Z" fill="white"/>
<path d="M7.34108 15.3619L5.68518 16.034C5.94121 16.5981 6.24522 17.1416 6.59421 17.6592L8.11408 16.7461C7.81767 16.305 7.55916 15.8421 7.34108 15.3619Z" fill="white"/>
<path d="M22.9619 1.5511C21.1093 0.535612 19.0061 0.000532365 16.8647 0C10.7742 0.00926315 5.62858 4.27367 4.82112 9.9812L1.73546 7.06384L0.461548 8.26827L5.60313 13.1294L10.7447 8.26827L9.4708 7.06384L6.68424 9.695C7.74299 4.38424 13.1549 0.89054 18.7721 1.89155C24.3892 2.89255 28.0845 8.00927 27.0257 13.32C25.967 18.6307 20.5551 22.1245 14.9379 21.1234C13.7865 20.9183 12.6802 20.5297 11.6664 19.9743L10.7609 21.447C16.572 24.6324 24.0141 22.7608 27.3833 17.2667C30.7525 11.7727 28.773 4.7365 22.9619 1.5511Z" fill="white"/>
<path d="M15.5133 3.83301V13.2026L19.4774 16.0135L20.5585 14.6507L17.3152 12.3508V3.83301H15.5133Z" fill="white"/>
</svg>
