<svg width="53" height="54" viewBox="0 0 53 54" fill="none" xmlns="http://www.w3.org/2000/svg">
<rect y="0.5" width="53" height="53" rx="26.5" fill="#F1C21B"/>
<path d="M21.5254 32.2422L21.0457 34.0033H22.0051L21.5254 32.2422Z" fill="white"/>
<path d="M29.8637 20.3668C29.4588 20.3668 29.1306 20.0385 29.1306 19.6336V14.4858H18.3172C17.0395 14.4858 16 15.5254 16 16.803V37.1971C16 38.4748 17.0395 39.5143 18.3172 39.5143H32.6828C33.9605 39.5143 35 38.4748 35 37.1971V20.3668H29.8637ZM19.7623 22.167H25.3772C25.7821 22.167 26.1103 22.4953 26.1103 22.9002C26.1103 23.305 25.7821 23.6333 25.3772 23.6333H19.7623C19.3575 23.6333 19.0292 23.305 19.0292 22.9002C19.0292 22.4953 19.3575 22.167 19.7623 22.167ZM23.2242 35.6789C23.0818 35.7622 22.934 35.8038 22.7807 35.8038C22.5923 35.8038 22.4805 35.7404 22.4455 35.6133L22.2221 34.7918H20.8355L20.6121 35.6133C20.577 35.7404 20.4653 35.8038 20.277 35.8038C20.1236 35.8038 19.9757 35.7622 19.8335 35.6789C19.6911 35.5957 19.6199 35.4972 19.6199 35.3832C19.6199 35.3701 19.6242 35.3461 19.633 35.3109L20.8553 31.3024C20.8903 31.1929 20.9703 31.1086 21.0952 31.0495C21.22 30.9903 21.3634 30.9607 21.5256 30.9607C21.6876 30.9607 21.8312 30.9903 21.956 31.0495C22.0808 31.1086 22.1607 31.193 22.1958 31.3024L23.4247 35.3109C23.4334 35.3461 23.4378 35.3701 23.4378 35.3832C23.4378 35.4972 23.3665 35.5958 23.2242 35.6789ZM26.2273 34.5289C26.1637 34.6035 26.0903 34.6407 26.0071 34.6407H25.3763V35.3091C25.3763 35.4057 25.3379 35.4836 25.2613 35.5434C25.1846 35.6032 25.085 35.633 24.9623 35.633C24.844 35.633 24.7443 35.6032 24.6633 35.5434C24.5821 35.4836 24.5417 35.4057 24.5417 35.3091V34.6406H23.9043C23.8123 34.6406 23.7378 34.6045 23.6809 34.5319C23.6239 34.4595 23.5955 34.3653 23.5955 34.2494C23.5955 34.1377 23.6239 34.0436 23.6809 33.967C23.7378 33.8904 23.8123 33.852 23.9043 33.852H24.5417V33.1905C24.5417 33.1032 24.5833 33.0263 24.6666 32.9597C24.7498 32.8931 24.8483 32.8597 24.9623 32.8597C25.0806 32.8597 25.1792 32.8931 25.258 32.9597C25.3369 33.0263 25.3763 33.1032 25.3763 33.1905V33.852H26.0071C26.0903 33.852 26.1637 33.8914 26.2272 33.97C26.2907 34.0487 26.3225 34.1418 26.3225 34.2494C26.3225 34.3612 26.2907 34.4544 26.2273 34.5289ZM28.6389 28.866H19.7623C19.3575 28.866 19.0292 28.5377 19.0292 28.1329C19.0292 27.728 19.3575 27.3998 19.7623 27.3998H28.6389C29.0438 27.3998 29.3721 27.728 29.3721 28.1329C29.3721 28.5377 29.0439 28.866 28.6389 28.866ZM31.2377 26.2669H19.7623C19.3575 26.2669 19.0292 25.9387 19.0292 25.5338C19.0292 25.129 19.3575 24.8007 19.7623 24.8007H31.2377C31.6425 24.8007 31.9708 25.129 31.9708 25.5338C31.9708 25.9387 31.6425 26.2669 31.2377 26.2669Z" fill="white"/>
<path d="M34.3204 18.6352L30.8456 15.164C30.7671 15.0856 30.6838 15.0137 30.5967 14.9482V18.9007H34.5492C34.4802 18.8075 34.4039 18.7186 34.3204 18.6352Z" fill="white"/>
</svg>
