<svg width="53" height="54" viewBox="0 0 53 54" fill="none" xmlns="http://www.w3.org/2000/svg">
<rect y="0.5" width="53" height="53" rx="26.5" fill="#4589FF"/>
<path fill-rule="evenodd" clip-rule="evenodd" d="M32.6279 22.5981C32.6273 22.4207 32.5539 22.2508 32.4238 22.1258C32.2937 22.0007 32.1175 21.9307 31.9339 21.9311H20.0659C19.9745 21.9303 19.8839 21.9471 19.7992 21.9803C19.7146 22.0136 19.6376 22.0627 19.5726 22.1249C19.5077 22.1871 19.4562 22.2611 19.4211 22.3426C19.3859 22.4241 19.3678 22.5116 19.3678 22.5999C19.3678 22.6882 19.3859 22.7757 19.4211 22.8572C19.4562 22.9387 19.5077 23.0127 19.5726 23.0749C19.6376 23.1371 19.7146 23.1862 19.7992 23.2195C19.8839 23.2527 19.9745 23.2695 20.0659 23.2687H31.9338C32.025 23.2688 32.1153 23.2515 32.1996 23.2179C32.2838 23.1842 32.3604 23.1348 32.4248 23.0725C32.4893 23.0101 32.5404 22.9361 32.5752 22.8547C32.6101 22.7733 32.628 22.6862 32.6279 22.5981ZM32.6279 26.9983C32.628 26.9102 32.6102 26.8229 32.5754 26.7414C32.5406 26.6599 32.4895 26.5859 32.425 26.5236C32.3605 26.4612 32.2839 26.4118 32.1997 26.3781C32.1154 26.3444 32.025 26.3271 31.9338 26.3273H20.0659C19.8818 26.3273 19.7053 26.3979 19.5751 26.5237C19.4449 26.6495 19.3718 26.8202 19.3718 26.9981C19.3718 27.176 19.4449 27.3466 19.5751 27.4724C19.7053 27.5982 19.8818 27.6688 20.0659 27.6688H31.9338C32.025 27.6689 32.1153 27.6517 32.1996 27.618C32.2838 27.5843 32.3604 27.5349 32.4248 27.4726C32.4893 27.4103 32.5404 27.3363 32.5752 27.2549C32.6101 27.1734 32.628 27.0864 32.6279 26.9983ZM32.6279 31.3985C32.6281 31.3104 32.6103 31.223 32.5755 31.1415C32.5407 31.06 32.4896 30.986 32.4251 30.9236C32.3606 30.8613 32.284 30.8118 32.1997 30.7781C32.1154 30.7444 32.0251 30.7271 31.9338 30.7272H20.0659C19.8828 30.7288 19.7078 30.8001 19.5789 30.9257C19.45 31.0514 19.3777 31.2211 19.3777 31.398C19.3777 31.575 19.45 31.7447 19.5789 31.8704C19.7078 31.996 19.8828 32.0673 20.0659 32.0689H31.9338C32.025 32.069 32.1153 32.0517 32.1996 32.018C32.2838 31.9843 32.3604 31.9349 32.4248 31.8726C32.4893 31.8103 32.5404 31.7363 32.5752 31.6548C32.6101 31.5734 32.628 31.4866 32.6279 31.3985ZM32.6279 35.7945C32.6276 35.6167 32.5544 35.4462 32.4243 35.3204C32.2942 35.1946 32.1179 35.1237 31.9338 35.1232H20.0659C19.8828 35.1248 19.7078 35.1961 19.5789 35.3217C19.45 35.4474 19.3777 35.6171 19.3777 35.794C19.3777 35.971 19.45 36.1407 19.5789 36.2663C19.7078 36.392 19.8828 36.4633 20.0659 36.4648H31.9338C32.025 36.465 32.1153 36.4477 32.1996 36.414C32.2838 36.3803 32.3604 36.3309 32.4248 36.2686C32.4893 36.2063 32.5404 36.1323 32.5752 36.0508C32.6101 35.9694 32.628 35.8826 32.6279 35.7945ZM36 39.7428H16V21.013H21.4312C21.8451 21.0122 22.2418 20.8529 22.5344 20.5701C22.8271 20.2872 22.9918 19.9037 22.9924 19.5037V18.8729H31.9338C32.1169 18.8714 32.2919 18.8001 32.4208 18.6744C32.5497 18.5488 32.622 18.379 32.622 18.2021C32.622 18.0252 32.5497 17.8554 32.4208 17.7298C32.2919 17.6042 32.1169 17.5328 31.9338 17.5313H22.9924V14.2573H36V39.7428ZM21.6044 15.176L16.8388 19.6714H21.6044V15.176Z" fill="white"/>
</svg>
