<?xml version="1.0" encoding="utf-8"?>
<!-- Generator: Adobe Illustrator 25.2.1, SVG Export Plug-In . SVG Version: 6.00 Build 0)  -->
<svg version="1.1" id="Layer_1" xmlns="http://www.w3.org/2000/svg" xmlns:xlink="http://www.w3.org/1999/xlink" x="0px" y="0px"
	 viewBox="0 0 554 564.5" style="enable-background:new 0 0 554 564.5;" xml:space="preserve">
<style type="text/css">
	.st0{fill:#E6E6E6;}
	.st1{fill:#FFFFFF;}
	.st2{fill:#F2F2F2;}
	.st3{fill:#FFB8B8;}
	.st4{fill:#FFB6B6;}
	.st5{fill:#2F2E41;}
	.st6{fill:#3F3D56;}
	.st7{fill:#CACACA;}
	.st8{fill:#00BFA6;}
	.st9{fill:#D1D3D4;}
</style>
<path class="st0" d="M375.7,350.9H112c-4.9,0-8.9-4-8.9-8.9V127.4c0-4.9,4-8.9,8.9-8.9h263.7c4.9,0,8.9,4,8.9,8.9v214.7
	C384.6,347,380.6,350.9,375.7,350.9z"/>
<path class="st1" d="M118,124.8c-4.7,0-8.5,3.8-8.5,8.5v202.8c0,4.7,3.8,8.5,8.5,8.5h180.5c44,0,79.7-35.7,79.8-79.8V133.3
	c0-4.7-3.8-8.5-8.5-8.5L118,124.8z"/>
<path class="st0" d="M327.7,216h-47.8c-2.1,0-3.8-1.7-3.8-3.8v-23.8c0-2.1,1.7-3.8,3.8-3.8h47.8c2.1,0,3.8,1.7,3.8,3.8
	c3,8.4,3.4,16.4,0,23.8C331.4,214.3,329.7,216,327.7,216z"/>
<path class="st1" d="M322,213.7h-40.6c-1.8,0-3.2-1.4-3.2-3.2v-20.2c0-1.8,1.4-3.2,3.2-3.2H322c1.8,0,3.2,1.4,3.2,3.2
	c2.7,7.2,3.2,14,0,20.2C325.2,212.3,323.8,213.7,322,213.7z"/>
<path class="st0" d="M319.8,228.5h-32.2c-2,0-3.6-1.6-3.6-3.6s1.6-3.6,3.6-3.6h32.2c2,0,3.6,1.6,3.6,3.6
	C323.4,226.9,321.8,228.5,319.8,228.5z"/>
<path class="st0" d="M298.1,192.5c-0.8,0-1.4,0.6-1.4,1.4v15.1c0,0.8,0.6,1.4,1.4,1.4c0.2,0,0.5-0.1,0.7-0.2l13.4-7.6
	c0.7-0.4,0.9-1.2,0.5-1.9c-0.1-0.2-0.3-0.4-0.5-0.5l-13.4-7.5C298.6,192.6,298.4,192.5,298.1,192.5z"/>
<path class="st2" d="M493.2,418.5c-1.5-1.9-4-2.7-6.4-2l-0.3,0.1l-2.2,8.8c-0.3-1.3-1.1-4.3-1.5-7.1l0-0.2l-0.2,0.1
	c-2.3,1-4.6,2.4-6.6,4c-7.2,5.8-11.5,14.5-11.8,23.7l0,0.2l0,0.1l0.3-0.1l6.4-2.3c5.7,0.5,11.4-1.6,15.4-5.7
	c2.6-2.7,4.3-6.2,6.1-9.6c0.5-1,1-2,1.5-3C495,423.1,494.8,420.4,493.2,418.5z"/>
<path class="st3" d="M330.3,194.9c0.5,2.5,2.9,4.1,5.4,3.7c0.3-0.1,0.5-0.1,0.8-0.2l19.1,22.2l2.4-8.2l-18.9-20.3
	c-1.1-2.3-3.8-3.3-6.2-2.3C331,190.7,329.9,192.8,330.3,194.9z"/>
<polygon class="st4" points="407.1,440.5 400.8,440.5 397.8,416.2 407.1,416.2 "/>
<path class="st5" d="M407,438.4l-6.7-2.7l-0.2-0.1l-3.7,2.8c-4.4,0-7.9,3.5-7.9,7.9v0.3h20.3v-8.2H407z"/>
<polygon class="st4" points="452.1,440.5 445.8,440.5 442.8,416.2 452.2,416.2 "/>
<path class="st5" d="M452,438.4l-6.7-2.7l-0.2-0.1l-3.7,2.8c-4.4,0-7.9,3.5-7.9,7.9v0.3h20.3v-8.2H452z"/>
<path class="st5" d="M437.3,295.2c0,0,7.9,8.2,7.9,15c0,6.8-2,16.1,0,18.1c2,2,4.5,4.5,1.5,7.5s-4.5,4.5-2.5,6.4s1,36.6,1,36.6
	l10.4,46.5h-13.1l-16.6-46.5l-4.5-38.6L407,377.3l1.6,48.4l-13.7-0.4l-5.7-51.4c0,0,8.4-48.9,6.9-50.2c-1.5-1.3,0-3.8,0-3.8l4-18.7
	L437.3,295.2z"/>
<path class="st6" d="M421.8,236.8c0,0,2.7-10.6-9.7-13.6c-12.4-3-47.8-6.9-47.8-6.9l-17.9-19l-6.1,8.8l20.1,24.9l47.6,9.8
	L421.8,236.8z"/>
<path class="st0" d="M343.2,205.4c0.6-0.7,1-1.5,1.3-2.4l2.6-6.3l-0.7,0c-3.6-0.7-7.1,1.7-7.8,5.3c0,0.2-0.1,0.5-0.1,0.8
	c-0.1,0.8,0.1,1.6,0.4,2.4c0.4,0.7,1.1,1.2,1.9,1.4C341.7,206.5,342.6,206.1,343.2,205.4z"/>
<path class="st0" d="M397.6,303.7l-1.5,10.8c0,0,3,3.2,4.5,2.8c1.5-0.4,6.9-2.7,6.9-2.7s6.4,3.5,9.9,3.9c3.5,0.4,21.8-2,22.3-3.2
	c0.5-1.2,6.2-5.9,6.2-5.9l-2.3-13.6L397.6,303.7z"/>
<path class="st6" d="M445.8,266c0,0-1.3,10.4-0.3,11.3c1,0.9-1,7-3,10.9c-2,4,1.5,4.5,1.5,7.4s1.5,13.8,1.5,13.8s-15.3,1-17.8-1.5
	c-2.5-2.5-6.4-0.5-11.9,4.9c-5.4,5.4-17.3,1-19.7-1.5c-2.5-2.5,1.9-11.4,3.4-13.1c1.5-1.7-1.4,0.3-2.9-5.2s1.4-4.9,3.9-7.4
	c2.5-2.5,0-6.9-2-11.4s-0.5-37.6-0.5-45.5S409,220,409,220l4.3-5.4l3.2-4l6.2-0.2l0.2,0l6-0.2l2.9,3.4l6.4,7.5l7.4,1.5
	c5.9,2,4.5,14.3,4.5,14.3L445.8,266z"/>
<circle class="st4" cx="422.3" cy="195.5" r="12.7"/>
<path class="st5" d="M437.1,191.2c-3.5-2.1-3-7.8-6.4-9.7c-3.4-2-7.5-2.1-11.1-0.5c-2.4-1-5.2-0.2-7.1,1.6c-1.9,1.8-2.9,4.5-3.2,7.3
	c-0.2,2.7,0,5.5,0.6,8.2c0.2-1.1,0.4-2.1,0.6-3.2l10-2.2c-0.9,0.8-1.8,1.6-2.7,2.4c4.5,1,9.3,0.3,13.3-2.1c4.4,2,3.6,6.3-0.3,12.2
	C432.3,207.6,441.1,193.7,437.1,191.2z"/>
<path class="st0" d="M431.7,213.5C431.7,213.5,431.7,213.6,431.7,213.5c-1.1,0.7-2.3,1-3.6,1c-1.6,0.1-3.2-0.4-4.4-1.4
	c-0.6-0.6-3.2,0.7-4.9,1.4c-1.8,0.7-3.8,0.8-5.6,0.1l3.2-4l5.2-1.2h1.3l5.8,0.7L431.7,213.5z"/>
<path class="st7" d="M517.1,447.2l-177,0.2c-0.4,0-0.8-0.3-0.8-0.8c0-0.4,0.3-0.8,0.8-0.8h0l177-0.2c0.4,0,0.8,0.4,0.8,0.8
	C517.8,446.9,517.5,447.2,517.1,447.2z"/>
<polygon class="st6" points="305.2,186.8 303.9,186.8 303.9,93.7 355.1,93.7 355.1,95 305.2,95 "/>
<path class="st8" d="M394.9,85.4h-34.5c-4.7,0-8.5,3.8-8.5,8.5s3.8,8.5,8.5,8.5h34.5c4.7,0,8.5-3.8,8.5-8.5S399.6,85.4,394.9,85.4z"
	/>
<circle class="st8" cx="303.8" cy="187.6" r="7.8"/>
<path class="st2" d="M210,216.8l34.1-7.9l9.8-2.3c1.2-0.3,0.7-2.2-0.5-1.9l-34.1,7.9l-9.8,2.3C208.3,215.2,208.8,217.1,210,216.8
	L210,216.8z"/>
<path class="st2" d="M245.3,196.2l18.3,8.4c0.6,0.2,1.2,0.5,1.7,0.9c0.5,0.5,0.1,1-0.3,1.4c-1.2,1.1-2.5,2.2-3.9,3.2l-7.8,6.3
	c-1,0.8,0.4,2.2,1.4,1.4l6.8-5.5l3.4-2.8c1-0.8,2.1-1.6,2.5-2.8c0.8-2.6-2.4-3.7-4.2-4.5l-8-3.7l-9-4.1
	C245.1,194,244.1,195.7,245.3,196.2L245.3,196.2z"/>
<path class="st0" d="M497.4,260.2c-3.3-2.2-7.2-3-11.1-3.3c-4.4-0.2-8.8-0.2-13.2,0c-4.6,0.2-9.1,0.5-13.7,1
	c-4.5,0.5-9.1,1.1-13.6,1.9c-4,0.6-8,1.5-11.9,2.6c-3.7,1-7.2,2.7-10.3,5c-2.7,2.1-4.8,4.8-6.1,8c-1.2,3-1.4,6.3-0.6,9.4
	c0.4,1.5,1.2,2.9,2.2,4.1c1.2,1.3,2.6,2.4,4.1,3.3c3.2,1.8,6.9,3,9.8,5.3c0.8,0.6,1.5,1.3,2.1,2.1c0.4,0.6,1,1.1,1.7,1.3
	c1.3,0.5,2.8,0.1,3.7-1c0.6-0.8,1.1-1.7,1.5-2.6l1.5-3c0.1-0.3,0.2-0.5,0.4-0.7c0.1-0.1-0.1,0-0.1,0c0,0,0.1,0,0.1,0
	c0.1-0.1,0.3-0.1,0.4-0.2c1.4-0.5,2.9-1.1,4.3-1.6c5.3-1.9,10.7-3.6,16.1-5c2.8-0.8,5.7-1.3,8.5-1.8c3.7-0.5,7.5-0.5,11.2-0.8
	c4-0.4,8.2-1.2,11.6-3.4c2.9-1.7,5.1-4.4,6.3-7.5c0.5-1.5,0.7-3.1,0.5-4.6C502.6,265.2,500.3,262.2,497.4,260.2z"/>
<path class="st1" d="M490.7,262.2c-2.9-2-6.5-2.7-10-3c-4-0.2-7.9-0.2-11.9,0c-4.1,0.2-8.2,0.5-12.3,0.9c-4.1,0.4-8.2,1-12.3,1.7
	c-3.6,0.6-7.2,1.4-10.8,2.4c-3.4,0.9-6.5,2.5-9.3,4.5c-2.5,1.9-4.4,4.4-5.5,7.3c-1.1,2.7-1.3,5.7-0.5,8.5c0.4,1.4,1.1,2.6,2,3.7
	c1.1,1.2,2.3,2.2,3.7,3c2.9,1.7,6.2,2.7,8.9,4.8c0.7,0.6,1.3,1.2,1.9,1.9c0.4,0.5,0.9,1,1.5,1.2c1.2,0.4,2.5,0.1,3.3-0.9
	c0.5-0.7,1-1.5,1.3-2.3l1.4-2.7c0.1-0.2,0.2-0.5,0.3-0.7c0.1-0.1-0.1,0,0,0c0,0,0.1,0,0.1,0c0.1-0.1,0.2-0.1,0.4-0.1
	c1.3-0.5,2.6-1,3.9-1.4c4.8-1.7,9.6-3.3,14.6-4.6c2.5-0.7,5.1-1.2,7.7-1.6c3.4-0.5,6.8-0.4,10.2-0.8c3.6-0.4,7.4-1.1,10.5-3.1
	c2.6-1.6,4.6-3.9,5.7-6.8c0.5-1.3,0.6-2.8,0.5-4.2C495.4,266.7,493.3,264,490.7,262.2z"/>
<path class="st0" d="M484.6,265.8l-47.9,8.8c-0.6,0.1-1.1-0.3-1.2-0.8c-0.1-0.6,0.3-1.1,0.8-1.2c0,0,0,0,0,0l0,0l47.9-8.8
	c0.6-0.1,1.1,0.3,1.2,0.9C485.5,265.1,485.1,265.7,484.6,265.8L484.6,265.8z"/>
<path class="st0" d="M485.8,272.2l-47.9,8.8c-0.6,0.1-1.1-0.3-1.2-0.8c-0.1-0.6,0.3-1.1,0.8-1.2c0,0,0,0,0,0l0,0l47.9-8.8
	c0.6-0.1,1.1,0.3,1.2,0.9C486.7,271.5,486.3,272.1,485.8,272.2L485.8,272.2L485.8,272.2z"/>
<path class="st0" d="M444.6,286.4l-5.6,1c-0.6,0.1-1.1-0.3-1.2-0.9c-0.1-0.6,0.3-1.1,0.8-1.2l5.6-1c0.6-0.1,1.1,0.3,1.2,0.9
	C445.5,285.8,445.2,286.3,444.6,286.4z"/>
<circle class="st9" cx="439.7" cy="308.6" r="4.5"/>
<path class="st0" d="M192.5,214.8h-40.9c-4,0-7.2-3.2-7.2-7.2v-27c0-4,3.2-7.2,7.2-7.2h40.9c4,0,7.2,3.2,7.2,7.2v27
	C199.7,211.6,196.4,214.8,192.5,214.8z"/>
<path class="st1" d="M188,213.3h-35.6c-3.4,0-6.2-2.8-6.2-6.2v-23.5c0-3.4,2.8-6.2,6.2-6.2H188c3.4,0,6.2,2.8,6.2,6.2v23.5
	C194.2,210.5,191.4,213.3,188,213.3z"/>
<path class="st0" d="M198.3,239.1h-52.5c-0.7,0-1.2-0.6-1.2-1.2c0-0.7,0.5-1.2,1.2-1.2h52.5c0.7,0,1.2,0.6,1.2,1.2
	C199.5,238.5,198.9,239.1,198.3,239.1z"/>
<path class="st0" d="M198.3,232.1h-52.5c-0.7,0-1.2-0.6-1.2-1.2c0-0.7,0.5-1.2,1.2-1.2h52.5c0.7,0,1.2,0.6,1.2,1.2
	C199.5,231.5,198.9,232.1,198.3,232.1z"/>
<path class="st0" d="M198.3,246.1h-52.5c-0.7,0-1.2-0.5-1.2-1.2c0-0.7,0.5-1.2,1.2-1.2l0,0h52.5c0.7,0,1.2,0.5,1.2,1.2
	C199.5,245.5,198.9,246.1,198.3,246.1z"/>
<path class="st0" d="M198.3,253.1h-52.5c-0.7,0-1.2-0.5-1.2-1.2c0-0.7,0.5-1.2,1.2-1.2l0,0h52.5c0.7,0,1.2,0.5,1.2,1.2
	C199.5,252.6,198.9,253.1,198.3,253.1z"/>
<path class="st0" d="M198.3,260.1h-52.5c-0.7,0-1.2-0.5-1.2-1.2s0.5-1.2,1.2-1.2l0,0h52.5c0.7,0,1.2,0.5,1.2,1.2
	S198.9,260.1,198.3,260.1z"/>
<path class="st0" d="M198.3,267.1h-52.5c-0.7,0-1.2-0.6-1.2-1.2c0-0.7,0.5-1.2,1.2-1.2h52.5c0.7,0,1.2,0.6,1.2,1.2
	C199.5,266.6,198.9,267.1,198.3,267.1z"/>
<polygon class="st6" points="169.4,251 170.7,251 170.7,301.2 76.5,301.2 76.5,299.9 169.4,299.9 "/>
<path class="st8" d="M36.6,309.5h34.5c4.7,0,8.5-3.8,8.5-8.5c0-4.7-3.8-8.5-8.5-8.5H36.6c-4.7,0-8.5,3.8-8.5,8.5
	C28.2,305.7,31.9,309.5,36.6,309.5L36.6,309.5z"/>
<circle class="st8" cx="170.9" cy="247" r="7.8"/>
<path class="st2" d="M211.1,249.2c11.4,2.4,8.5,2.9,19.9,5.3l9.8,2.1c1.2,0.3,1.6-1.7,0.3-1.9c-11.4-2.4-8.5-2.9-19.9-5.3l-9.8-2.1
	C210.2,247,209.9,248.9,211.1,249.2L211.1,249.2z"/>
<path class="st2" d="M237.4,243.5l13,15.3c0.5,0.5,0.9,1,1.2,1.6c0.2,0.7-0.3,0.9-0.8,1.2c-1.6,0.5-3.2,0.9-4.9,1.3l-9.7,2.4
	c-1.2,0.3-0.6,2.1,0.7,1.8l8.5-2.1l4.2-1.1c1.2-0.3,2.6-0.5,3.5-1.5c1.8-2-0.6-4.3-1.9-5.8l-5.7-6.7l-6.4-7.5
	C238.2,241.5,236.6,242.6,237.4,243.5L237.4,243.5z"/>
<circle class="st0" cx="278.7" cy="292.3" r="18.1"/>
<circle class="st1" cx="276.9" cy="294.4" r="13.8"/>
<path class="st0" d="M274.4,303.8c-0.6,0-1.2-0.3-1.6-0.8l-4.9-6.6c-0.7-0.9-0.5-2.2,0.4-2.8c0.9-0.7,2.2-0.5,2.8,0.4l0,0l0,0
	l3.2,4.3l8.3-12.4c0.6-0.9,1.9-1.2,2.8-0.6c0.9,0.6,1.2,1.9,0.6,2.8l0,0l-9.9,14.8C275.7,303.4,275.1,303.8,274.4,303.8
	C274.5,303.8,274.4,303.8,274.4,303.8z"/>
<path class="st3" d="M447.6,311c2.2-1.3,2.9-4.1,1.6-6.3c-0.1-0.2-0.3-0.5-0.5-0.7l14.5-25.4l-8.5,0.5L442,303.7
	c-1.8,1.8-1.9,4.7-0.1,6.6C443.4,311.8,445.7,312.1,447.6,311L447.6,311z"/>
<path class="st6" d="M431.2,222c0,0,15.4-4.9,19.3,6.9c4,11.9,17.3,44,17.3,44l-14.3,29.2l-6.4-6.9l6.9-20.3l-19.8-29.7L431.2,222z"
	/>
<path class="st0" d="M454,299.1c-0.5-0.8-1.1-1.5-1.7-2.1l-4.9-4.7l-0.3,0.6c-2,3.1-1.1,7.2,2.1,9.2c0.2,0.1,0.4,0.3,0.7,0.4
	c0.7,0.4,1.5,0.5,2.3,0.5c0.8-0.1,1.6-0.5,2-1.2C454.5,300.9,454.5,299.9,454,299.1z"/>
<polygon class="st6" points="278.5,316.7 277.2,316.7 277.2,366.8 321.3,366.8 321.3,365.5 278.5,365.5 "/>
<path class="st8" d="M369.6,366.6c0-4.7-3.8-8.5-8.5-8.5h-34.5c-4.7,0-8.5,3.8-8.5,8.5c0,4.7,3.8,8.5,8.5,8.5h34.5
	C365.8,375.1,369.6,371.3,369.6,366.6z"/>
<circle class="st8" cx="276.9" cy="312.7" r="7.8"/>
</svg>
