<svg width="45" height="31" viewBox="0 0 45 31" fill="none" xmlns="http://www.w3.org/2000/svg">
<path d="M33.9733 14.3409L33.9733 14.2409L33.8733 14.2409L32.444 14.2409L32.344 14.2409L32.344 14.3409L32.344 26.9797C32.344 28.0841 31.4285 28.9861 30.3001 28.9861L4.5732 28.9861C3.44477 28.9861 2.5293 28.0841 2.5293 26.9797L2.5293 12.9366C2.5293 11.8321 3.44477 10.9302 4.5732 10.9302L25.2976 10.9302L25.3976 10.9302L25.3976 10.8302L25.3976 9.42591L25.3976 9.32591L25.2976 9.32591L4.5732 9.32591C2.54934 9.32591 0.899999 10.9439 0.899999 12.9367L0.9 26.9797C0.9 28.9724 2.54934 30.5904 4.5732 30.5904L30.3001 30.5904C32.3238 30.5904 33.9733 28.9724 33.9733 26.9797L33.9733 14.3409Z" fill="white" stroke="white" stroke-width="0.2"/>
<path d="M19.9734 2.61286L19.9733 2.61289L11.2119 9.50099L11.1319 9.56385L11.1961 9.64273L12.0894 10.7402L12.1515 10.8165L12.2288 10.7557L20.9895 3.86761L20.9895 3.86759C22.108 2.98775 23.514 2.50369 24.9475 2.50434L24.9475 2.50434L42.3489 2.50434L42.3489 12.6768C42.3489 16.2472 39.3917 19.1559 35.7528 19.1559L33.1587 19.1559L33.0587 19.1559L33.0587 19.2559L33.0587 20.6602L33.0587 20.7602L33.1587 20.7602L35.7528 20.7602C40.2864 20.7602 43.9782 17.1354 43.9782 12.6768L43.9782 1.70213C43.9782 1.25695 43.6124 0.900003 43.1636 0.900003L24.9483 0.900004C24.9483 0.900004 24.9483 0.900004 24.9483 0.900004C23.148 0.899262 21.381 1.50702 19.9734 2.61286Z" fill="white" stroke="white" stroke-width="0.2"/>
<path d="M17.3925 16.1724C16.7306 16.7865 16.3509 17.6185 16.325 18.5133C16.2942 19.418 16.6299 20.2605 17.2477 20.9029L17.2476 20.9029L17.2497 20.9049L17.2497 20.905C17.2498 20.905 17.2498 20.9051 17.2499 20.9052L17.2508 20.906L17.2534 20.9087L17.2614 20.9168L17.2832 20.9392L17.3056 20.962C17.31 20.9665 17.3161 20.9726 17.3209 20.977C18.5824 22.2119 20.5617 22.2945 21.9284 21.1677L21.9288 21.1674L29.1688 15.1429L31.3437 15.1429C31.3437 15.1429 31.3437 15.1429 31.3437 15.1429C35.3334 15.1436 38.9536 12.6788 40.3536 9.00559L40.3897 8.91108L40.2948 8.87613L38.9562 8.38326L38.8634 8.34909L38.8282 8.44148C37.6663 11.49 34.659 13.5393 31.3437 13.5386L31.3437 13.5386L28.8711 13.5386C28.6793 13.5386 28.4923 13.6057 28.3449 13.7281L28.3448 13.7282L20.8793 19.9398C20.8792 19.9398 20.8792 19.9399 20.8791 19.9399C20.1668 20.5275 19.131 20.4864 18.4371 19.8061C18.1131 19.4688 17.9511 19.0278 17.9536 18.5582C17.9674 18.0928 18.1644 17.66 18.509 17.3407L28.7139 7.90451L28.7886 7.83542L28.7182 7.76193L27.7385 6.7389L27.6705 6.66793L27.5984 6.73464L17.3926 16.1723L17.3925 16.1724Z" fill="white" stroke="white" stroke-width="0.2"/>
<path d="M2.4292 13.5384L2.3292 13.5384L2.3292 13.6384L2.3292 15.0428L2.3292 15.1428L2.4292 15.1428L20.295 15.1428L20.395 15.1428L20.395 15.0428L20.395 13.6384L20.395 13.5384L20.295 13.5384L2.4292 13.5384Z" fill="white" stroke="white" stroke-width="0.2"/>
<path d="M24.5835 17.0495L24.4835 17.0495L24.4835 17.1495L24.4835 18.554L24.4835 18.654L24.5835 18.654L33.1602 18.654L33.2602 18.654L33.2602 18.554L33.2602 17.1495L33.2602 17.0495L33.1602 17.0495L24.5835 17.0495Z" fill="white" stroke="white" stroke-width="0.2"/>
<path d="M1.71484 17.0499L1.61484 17.0499L1.61484 17.1499L1.61484 18.5542L1.61484 18.6542L1.71484 18.6542L17.4368 18.6542L17.5368 18.6542L17.5368 18.5542L17.5368 17.1499L17.5368 17.0499L17.4368 17.0499L1.71484 17.0499Z" fill="white" stroke="white" stroke-width="0.2"/>
<path d="M4.57349 25.475L4.47349 25.475L4.47349 25.575L4.47349 26.9795L4.47349 27.0795L4.57349 27.0795L13.8648 27.0795L13.9648 27.0795L13.9648 26.9795L13.9648 25.575L13.9648 25.475L13.8648 25.475L4.57349 25.475Z" fill="white" stroke="white" stroke-width="0.2"/>
<path d="M4.57349 21.9643L4.47349 21.9643L4.47349 22.0643L4.47349 23.4688L4.47349 23.5688L4.57349 23.5688L10.2913 23.5688L10.3913 23.5688L10.3913 23.4688L10.3913 22.0643L10.3913 21.9643L10.2913 21.9643L4.57349 21.9643Z" fill="white" stroke="white" stroke-width="0.2"/>
<path d="M24.4835 22.0639L24.4835 26.2773C24.4835 26.7217 24.8493 27.0795 25.2982 27.0795L29.5865 27.0795C30.0354 27.0795 30.4012 26.7217 30.4012 26.2773L30.4012 22.0639C30.4012 21.6194 30.0354 21.2617 29.5865 21.2617L25.2982 21.2617C24.8493 21.2617 24.4835 21.6194 24.4835 22.0639ZM28.7718 22.8661L28.7718 25.475L26.113 25.475L26.113 22.8661L28.7718 22.8661Z" fill="white" stroke="white" stroke-width="0.2"/>
</svg>
