<svg width="19" height="24" viewBox="0 0 19 24" fill="none" xmlns="http://www.w3.org/2000/svg">
<path d="M18.1562 22.3851H16.663L16.6629 19.835C16.6629 17.2783 15.1971 14.9278 12.5356 13.2167C12.1989 13 11.9896 12.5339 11.9896 12.0001C11.9896 11.4664 12.1989 11.0003 12.5355 10.7837C15.1971 9.07235 16.6629 6.72196 16.663 4.16519V1.61496H18.1562C18.6222 1.61496 19 1.25334 19 0.807437C19 0.361537 18.6221 0 18.1562 0H0.843754C0.377798 0 0 0.361617 0 0.807437C0 1.25342 0.377882 1.61496 0.843754 1.61496H2.33696V4.16511C2.33696 6.72204 3.80263 9.07243 6.46411 10.7836C6.80095 11.0002 7.0102 11.4662 7.0102 12C7.0102 12.5339 6.80095 12.9999 6.46419 13.2164C3.80263 14.9277 2.33696 17.2781 2.33696 19.8349V22.385H0.843754C0.377798 22.385 0 22.7467 0 23.1926C0 23.6385 0.377882 24 0.843754 24H18.1562C18.6222 24 19 23.6385 19 23.1926C19 22.7467 18.6221 22.3851 18.1562 22.3851ZM4.02447 19.8349C4.02447 17.1339 6.14272 15.3687 7.40539 14.557C8.21461 14.0365 8.69771 13.0807 8.69771 12C8.69771 10.9194 8.21461 9.96367 7.40531 9.4431C6.14272 8.6313 4.02447 6.86612 4.02447 4.16511V1.61496H14.9755L14.9754 4.16511C14.9754 6.86604 12.857 8.6313 11.5942 9.44326C10.7851 9.96375 10.3021 10.9196 10.3021 12C10.3021 13.0805 10.7851 14.0362 11.5944 14.557C12.857 15.3689 14.9754 17.1341 14.9755 19.8349V22.385H14.6959C14.0022 19.8898 10.4621 17.1777 10.0197 16.8467C9.71432 16.6182 9.28551 16.6183 8.98025 16.8467C8.53786 17.1776 4.99767 19.8898 4.30397 22.385H4.02438L4.02447 19.8349ZM12.9227 22.3851H6.07719C6.63316 21.1414 8.2206 19.5671 9.5 18.5257C10.7795 19.5671 12.3668 21.1414 12.9227 22.3851Z" fill="#484848"/>
</svg>
