<svg width="34" height="44" viewBox="0 0 34 44" fill="none" xmlns="http://www.w3.org/2000/svg">
<path d="M1 5.8975V42.2792C1 42.6656 1.31342 42.9789 1.70008 42.9789H28.3001C28.6865 42.9789 28.9999 42.6656 28.9999 42.2792V12.8942C28.9999 12.8786 28.9924 12.8654 28.991 12.8501C28.9875 12.7887 28.9754 12.7282 28.9552 12.6703C28.9474 12.6478 28.9419 12.6262 28.9321 12.6043C28.8981 12.5282 28.8508 12.4587 28.792 12.3994L21.7921 5.40297C21.7327 5.34389 21.6629 5.29662 21.5862 5.26291C21.5652 5.25397 21.5439 5.24648 21.5219 5.23985C21.4634 5.21968 21.4026 5.20757 21.3406 5.20354C21.3288 5.20556 21.3149 5.19806 21.3002 5.19806H1.70008C1.31342 5.19806 1 5.51104 1 5.8975ZM26.6102 12.1944H22V7.58658L26.6102 12.1944ZM2.39987 6.59722H20.6001V12.8942C20.6001 13.2803 20.9136 13.5936 21.2999 13.5936H27.6V41.5797H2.39987V6.59722Z" fill="#7133AD" stroke="#7133AD" stroke-width="0.5"/>
<path d="M30.4001 37.3817V38.7808H32.5001C32.8867 38.7808 33.2001 38.4679 33.2001 38.0814V1.69973C33.2001 1.31326 32.8867 1 32.5001 1H5.90003C5.51337 1 5.19995 1.31326 5.19995 1.69973V3.79861H6.6001V2.39916H31.8V37.3817H30.4001Z" fill="#7133AD" stroke="url(#paint0_linear_156_415)" stroke-width="0.5"/>
<path d="M6.6001 14.9931H23.3999V16.3922H6.6001V14.9931Z" fill="#7133AD" stroke="#7133AD" stroke-width="0.5"/>
<path d="M6.6001 10.795H12.2001V12.1944H6.6001V10.795Z" fill="#7133AD" stroke="#7133AD" stroke-width="0.5"/>
<path d="M6.6001 19.1908H17.8002V20.5903H6.6001V19.1908Z" fill="#7133AD" stroke="#7133AD" stroke-width="0.5"/>
<path d="M19.2 19.1908H23.3998V20.5903H19.2V19.1908Z" fill="#7133AD" stroke="#7133AD" stroke-width="0.5"/>
<path d="M6.6001 23.3886H23.3999V24.7881H6.6001V23.3886Z" fill="#7133AD" stroke="#7133AD" stroke-width="0.5"/>
<path d="M6.6001 31.7844H23.3999V33.1839H6.6001V31.7844Z" fill="#7133AD" stroke="#7133AD" stroke-width="0.5"/>
<path d="M12.8999 27.5867H23.3999V28.9858H12.8999V27.5867Z" fill="#7133AD" stroke="#7133AD" stroke-width="0.5"/>
<path d="M6.6001 27.5867H11.5001V28.9858H6.6001V27.5867Z" fill="#7133AD" stroke="#7133AD" stroke-width="0.5"/>
<path d="M6.6001 35.9825H9.40012V37.3817H6.6001V35.9825Z" fill="#7133AD" stroke="#7133AD" stroke-width="0.5"/>
<path d="M10.7999 35.9825H23.3999V37.3817H10.7999V35.9825Z" fill="#7133AD" stroke="#7133AD" stroke-width="0.5"/>
<defs>
<linearGradient id="paint0_linear_156_415" x1="19.2" y1="1" x2="19.2" y2="38.7808" gradientUnits="userSpaceOnUse">
<stop stop-color="#770CCC"/>
<stop offset="1" stop-color="#386ACD"/>
</linearGradient>
</defs>
</svg>
