<?xml version="1.0" encoding="utf-8"?>
<!-- Generator: Adobe Illustrator 25.2.1, SVG Export Plug-In . SVG Version: 6.00 Build 0)  -->
<svg version="1.1" id="Layer_1" xmlns="http://www.w3.org/2000/svg" xmlns:xlink="http://www.w3.org/1999/xlink" x="0px" y="0px"
	 viewBox="0 0 360 199" style="enable-background:new 0 0 360 199;" xml:space="preserve">
<style type="text/css">
	.st0{fill:url(#SVGID_1_);}
</style>
<g>
	<linearGradient id="SVGID_1_" gradientUnits="userSpaceOnUse" x1="7.8713" y1="-13.6335" x2="352.2326" y2="185.1835">
		<stop  offset="0" style="stop-color:#694B8F"/>
		<stop  offset="0.1256" style="stop-color:#604286"/>
		<stop  offset="0.2809" style="stop-color:#5D3E83"/>
		<stop  offset="0.6685" style="stop-color:#503176"/>
		<stop  offset="0.8876" style="stop-color:#46286D"/>
		<stop  offset="1" style="stop-color:#412268"/>
	</linearGradient>
	<path class="st0" d="M248.9,199c-1.2,0-2.4,0-3.6,0c-41.5-0.4-83.3-0.4-124.8,0c-1.3,0-2.6,0-3.8,0c-0.1-0.1-0.2-0.2-0.2-0.2
		c-2.7-0.3-5.3-0.6-8-1c-4.1-0.5-8.1-1-12.1-1.7c-11.3-1.9-22.6-4.1-33.8-6.5c-21.2-4.9-42-10.9-62.5-18.1C0,114.3,0,57.2,0,0
		c120,0,240,0,360,0c0,57.2,0,114.5,0,171.7c-16.1,5.5-32.3,11.1-48.8,15.3C290.6,192.1,269.8,196.2,248.9,199z"/>
</g>
</svg>
