<?xml version="1.0" encoding="utf-8"?>
<!-- Generator: Adobe Illustrator 25.2.1, SVG Export Plug-In . SVG Version: 6.00 Build 0)  -->
<svg version="1.1" id="Layer_1" xmlns="http://www.w3.org/2000/svg" xmlns:xlink="http://www.w3.org/1999/xlink" x="0px" y="0px"
	 viewBox="0 0 32 32" style="enable-background:new 0 0 32 32;" xml:space="preserve">
<style type="text/css">
	.st0{fill:url(#SVGID_1_);}
	.st1{clip-path:url(#SVGID_3_);fill:#FFE43F;}
	.st2{clip-path:url(#SVGID_3_);fill:#FFE33F;}
	.st3{clip-path:url(#SVGID_3_);fill:#FFE33E;}
	.st4{clip-path:url(#SVGID_3_);fill:#FFE23D;}
	.st5{clip-path:url(#SVGID_3_);fill:#FEE13D;}
	.st6{clip-path:url(#SVGID_3_);fill:#FEE03C;}
	.st7{clip-path:url(#SVGID_3_);fill:#FEDF3C;}
	.st8{clip-path:url(#SVGID_3_);fill:#FEDF3B;}
	.st9{clip-path:url(#SVGID_3_);fill:#FEDE3A;}
	.st10{clip-path:url(#SVGID_3_);fill:#FEDD3A;}
	.st11{clip-path:url(#SVGID_3_);fill:#FEDC39;}
	.st12{clip-path:url(#SVGID_3_);fill:#FDDB38;}
	.st13{clip-path:url(#SVGID_3_);fill:#FDDA38;}
	.st14{clip-path:url(#SVGID_3_);fill:#FDD937;}
	.st15{clip-path:url(#SVGID_3_);fill:#FDD836;}
	.st16{clip-path:url(#SVGID_3_);fill:#FDD736;}
	.st17{clip-path:url(#SVGID_3_);fill:#FDD735;}
	.st18{clip-path:url(#SVGID_3_);fill:#FCD634;}
	.st19{clip-path:url(#SVGID_3_);fill:#FCD534;}
	.st20{clip-path:url(#SVGID_3_);fill:#FCD433;}
	.st21{clip-path:url(#SVGID_3_);fill:#FCD332;}
	.st22{clip-path:url(#SVGID_3_);fill:#FCD232;}
	.st23{clip-path:url(#SVGID_3_);fill:#FCD131;}
	.st24{clip-path:url(#SVGID_3_);fill:#FBD030;}
	.st25{clip-path:url(#SVGID_3_);fill:#FBCF2F;}
	.st26{clip-path:url(#SVGID_3_);fill:#FBCE2F;}
	.st27{clip-path:url(#SVGID_3_);fill:#FBCD2E;}
	.st28{clip-path:url(#SVGID_3_);fill:#FBCC2D;}
	.st29{clip-path:url(#SVGID_3_);fill:#FBCB2C;}
	.st30{clip-path:url(#SVGID_3_);fill:#FACA2C;}
	.st31{clip-path:url(#SVGID_3_);fill:#FAC92B;}
	.st32{clip-path:url(#SVGID_3_);fill:#FAC82A;}
	.st33{clip-path:url(#SVGID_3_);fill:#FAC729;}
	.st34{clip-path:url(#SVGID_3_);fill:#FAC629;}
	.st35{clip-path:url(#SVGID_3_);fill:#FAC528;}
	.st36{clip-path:url(#SVGID_3_);fill:#F9C427;}
	.st37{clip-path:url(#SVGID_3_);fill:#F9C326;}
	.st38{clip-path:url(#SVGID_3_);fill:#F9C226;}
	.st39{clip-path:url(#SVGID_3_);fill:#F9C125;}
	.st40{clip-path:url(#SVGID_3_);fill:#F9C024;}
	.st41{clip-path:url(#SVGID_3_);fill:#F8BF23;}
	.st42{clip-path:url(#SVGID_3_);fill:#F8BE23;}
	.st43{clip-path:url(#SVGID_3_);fill:#F8BD22;}
	.st44{clip-path:url(#SVGID_3_);fill:#F8BC21;}
	.st45{clip-path:url(#SVGID_3_);fill:#F8BB20;}
	.st46{clip-path:url(#SVGID_3_);fill:#F8BA20;}
	.st47{clip-path:url(#SVGID_3_);fill:#F7B91F;}
	.st48{clip-path:url(#SVGID_3_);fill:#F7B71E;}
	.st49{clip-path:url(#SVGID_3_);fill:#F7B61D;}
	.st50{clip-path:url(#SVGID_3_);fill:#F7B51C;}
	.st51{clip-path:url(#SVGID_3_);fill:#F7B41C;}
	.st52{clip-path:url(#SVGID_3_);fill:#F6B31B;}
	.st53{clip-path:url(#SVGID_3_);fill:#F6B21A;}
	.st54{clip-path:url(#SVGID_3_);fill:#F6B119;}
	.st55{clip-path:url(#SVGID_3_);fill:#F6B018;}
	.st56{clip-path:url(#SVGID_3_);fill:#F6AF18;}
	.st57{clip-path:url(#SVGID_3_);fill:#F5AE17;}
	.st58{clip-path:url(#SVGID_3_);fill:#F5AD16;}
	.st59{clip-path:url(#SVGID_3_);fill:#F5AC15;}
	.st60{clip-path:url(#SVGID_3_);fill:#F5AB14;}
	.st61{clip-path:url(#SVGID_3_);fill:#F5AA14;}
	.st62{clip-path:url(#SVGID_3_);fill:#F4A813;}
	.st63{clip-path:url(#SVGID_3_);fill:#F4A712;}
	.st64{clip-path:url(#SVGID_3_);fill:#F4A611;}
	.st65{clip-path:url(#SVGID_3_);fill:#F4A510;}
	.st66{clip-path:url(#SVGID_3_);fill:#F4A410;}
	.st67{clip-path:url(#SVGID_3_);fill:#F4A30F;}
	.st68{clip-path:url(#SVGID_3_);fill:#F3A20E;}
	.st69{clip-path:url(#SVGID_3_);fill:#F3A10D;}
	.st70{clip-path:url(#SVGID_3_);fill:#F3A00C;}
	.st71{clip-path:url(#SVGID_3_);fill:#F39F0C;}
	.st72{clip-path:url(#SVGID_3_);fill:#F39E0B;}
	.st73{clip-path:url(#SVGID_3_);fill:#F29C0A;}
	.st74{clip-path:url(#SVGID_3_);fill:#F29B09;}
	.st75{clip-path:url(#SVGID_3_);fill:#F29A08;}
	.st76{clip-path:url(#SVGID_3_);fill:#F29907;}
	.st77{clip-path:url(#SVGID_3_);fill:#F29807;}
	.st78{clip-path:url(#SVGID_3_);fill:#F19706;}
	.st79{clip-path:url(#SVGID_3_);fill:#F19605;}
	.st80{clip-path:url(#SVGID_3_);fill:#F19504;}
	.st81{clip-path:url(#SVGID_3_);fill:#F19303;}
	.st82{clip-path:url(#SVGID_3_);fill:#F19202;}
	.st83{clip-path:url(#SVGID_3_);fill:#F09102;}
	.st84{clip-path:url(#SVGID_3_);fill:#F09001;}
	.st85{clip-path:url(#SVGID_3_);fill:#F08F00;}
	.st86{clip-path:url(#SVGID_5_);fill:#F08F00;}
	.st87{clip-path:url(#SVGID_5_);fill:#F09001;}
	.st88{clip-path:url(#SVGID_5_);fill:#F09102;}
	.st89{clip-path:url(#SVGID_5_);fill:#F19202;}
	.st90{clip-path:url(#SVGID_5_);fill:#F19303;}
	.st91{clip-path:url(#SVGID_5_);fill:#F19504;}
	.st92{clip-path:url(#SVGID_5_);fill:#F19605;}
	.st93{clip-path:url(#SVGID_5_);fill:#F19706;}
	.st94{clip-path:url(#SVGID_5_);fill:#F29807;}
	.st95{clip-path:url(#SVGID_5_);fill:#F29907;}
	.st96{clip-path:url(#SVGID_5_);fill:#F29A08;}
	.st97{clip-path:url(#SVGID_5_);fill:#F29B09;}
	.st98{clip-path:url(#SVGID_5_);fill:#F29C0A;}
	.st99{clip-path:url(#SVGID_5_);fill:#F39E0B;}
	.st100{clip-path:url(#SVGID_5_);fill:#F39F0C;}
	.st101{clip-path:url(#SVGID_5_);fill:#F3A00C;}
	.st102{clip-path:url(#SVGID_5_);fill:#F3A10D;}
	.st103{clip-path:url(#SVGID_5_);fill:#F3A20E;}
	.st104{clip-path:url(#SVGID_5_);fill:#F4A30F;}
	.st105{clip-path:url(#SVGID_5_);fill:#F4A410;}
	.st106{clip-path:url(#SVGID_5_);fill:#F4A510;}
	.st107{clip-path:url(#SVGID_5_);fill:#F4A611;}
	.st108{clip-path:url(#SVGID_5_);fill:#F4A712;}
	.st109{clip-path:url(#SVGID_5_);fill:#F4A813;}
	.st110{clip-path:url(#SVGID_5_);fill:#F5AA14;}
	.st111{clip-path:url(#SVGID_5_);fill:#F5AB14;}
	.st112{clip-path:url(#SVGID_5_);fill:#F5AC15;}
	.st113{clip-path:url(#SVGID_5_);fill:#F5AD16;}
	.st114{clip-path:url(#SVGID_5_);fill:#F5AE17;}
	.st115{clip-path:url(#SVGID_5_);fill:#F6AF18;}
	.st116{clip-path:url(#SVGID_5_);fill:#F6B018;}
	.st117{clip-path:url(#SVGID_5_);fill:#F6B119;}
	.st118{clip-path:url(#SVGID_5_);fill:#F6B21A;}
	.st119{clip-path:url(#SVGID_5_);fill:#F6B31B;}
	.st120{clip-path:url(#SVGID_5_);fill:#F7B41C;}
	.st121{clip-path:url(#SVGID_5_);fill:#F7B51C;}
	.st122{clip-path:url(#SVGID_5_);fill:#F7B61D;}
	.st123{clip-path:url(#SVGID_5_);fill:#F7B71E;}
	.st124{clip-path:url(#SVGID_5_);fill:#F7B91F;}
	.st125{clip-path:url(#SVGID_5_);fill:#F8BA20;}
	.st126{clip-path:url(#SVGID_5_);fill:#F8BB20;}
	.st127{clip-path:url(#SVGID_5_);fill:#F8BC21;}
	.st128{clip-path:url(#SVGID_5_);fill:#F8BD22;}
	.st129{clip-path:url(#SVGID_5_);fill:#F8BE23;}
	.st130{clip-path:url(#SVGID_5_);fill:#F8BF23;}
	.st131{clip-path:url(#SVGID_5_);fill:#F9C024;}
	.st132{clip-path:url(#SVGID_5_);fill:#F9C125;}
	.st133{clip-path:url(#SVGID_5_);fill:#F9C226;}
	.st134{clip-path:url(#SVGID_5_);fill:#F9C326;}
	.st135{clip-path:url(#SVGID_5_);fill:#F9C427;}
	.st136{clip-path:url(#SVGID_5_);fill:#FAC528;}
	.st137{clip-path:url(#SVGID_5_);fill:#FAC629;}
	.st138{clip-path:url(#SVGID_5_);fill:#FAC729;}
	.st139{clip-path:url(#SVGID_5_);fill:#FAC82A;}
	.st140{clip-path:url(#SVGID_5_);fill:#FAC92B;}
	.st141{clip-path:url(#SVGID_5_);fill:#FACA2C;}
	.st142{clip-path:url(#SVGID_5_);fill:#FBCB2C;}
	.st143{clip-path:url(#SVGID_5_);fill:#FBCC2D;}
	.st144{clip-path:url(#SVGID_5_);fill:#FBCD2E;}
	.st145{clip-path:url(#SVGID_5_);fill:#FBCE2F;}
	.st146{clip-path:url(#SVGID_5_);fill:#FBCF2F;}
	.st147{clip-path:url(#SVGID_5_);fill:#FBD030;}
	.st148{clip-path:url(#SVGID_5_);fill:#FCD131;}
	.st149{clip-path:url(#SVGID_5_);fill:#FCD232;}
	.st150{clip-path:url(#SVGID_5_);fill:#FCD332;}
	.st151{clip-path:url(#SVGID_5_);fill:#FCD433;}
	.st152{clip-path:url(#SVGID_5_);fill:#FCD534;}
	.st153{clip-path:url(#SVGID_5_);fill:#FCD634;}
	.st154{clip-path:url(#SVGID_5_);fill:#FDD735;}
	.st155{clip-path:url(#SVGID_5_);fill:#FDD736;}
	.st156{clip-path:url(#SVGID_5_);fill:#FDD836;}
	.st157{clip-path:url(#SVGID_5_);fill:#FDD937;}
	.st158{clip-path:url(#SVGID_5_);fill:#FDDA38;}
	.st159{clip-path:url(#SVGID_5_);fill:#FDDB38;}
	.st160{clip-path:url(#SVGID_5_);fill:#FEDC39;}
	.st161{clip-path:url(#SVGID_5_);fill:#FEDD3A;}
	.st162{clip-path:url(#SVGID_5_);fill:#FEDE3A;}
	.st163{clip-path:url(#SVGID_5_);fill:#FEDF3B;}
	.st164{clip-path:url(#SVGID_5_);fill:#FEDF3C;}
	.st165{clip-path:url(#SVGID_5_);fill:#FEE03C;}
	.st166{clip-path:url(#SVGID_5_);fill:#FEE13D;}
	.st167{clip-path:url(#SVGID_5_);fill:#FFE23D;}
	.st168{clip-path:url(#SVGID_5_);fill:#FFE33E;}
	.st169{clip-path:url(#SVGID_5_);fill:#FFE33F;}
	.st170{clip-path:url(#SVGID_5_);fill:#FFE43F;}
	.st171{fill:url(#SVGID_6_);}
	.st172{fill:url(#SVGID_7_);}
	.st173{fill:url(#SVGID_8_);}
	.st174{fill:url(#SVGID_9_);}
	.st175{fill:url(#SVGID_10_);}
	.st176{fill:url(#SVGID_11_);}
	.st177{fill:url(#SVGID_12_);}
	.st178{fill:#C7C2A9;}
	.st179{fill:url(#SVGID_13_);}
	.st180{fill:url(#SVGID_14_);}
	.st181{fill:url(#SVGID_15_);}
	.st182{fill:url(#SVGID_16_);}
	.st183{fill:url(#SVGID_17_);}
	.st184{fill:url(#SVGID_18_);}
	.st185{fill:url(#SVGID_19_);}
	.st186{fill:url(#SVGID_20_);}
	.st187{fill:url(#SVGID_21_);}
	.st188{fill:url(#SVGID_22_);}
	.st189{fill:url(#SVGID_23_);}
	.st190{fill:url(#SVGID_24_);}
	.st191{fill:url(#SVGID_25_);}
	.st192{fill:url(#SVGID_26_);}
	.st193{fill:url(#SVGID_27_);}
	.st194{fill:url(#SVGID_28_);}
	.st195{fill:url(#SVGID_29_);}
	.st196{fill:url(#SVGID_30_);}
	.st197{fill:url(#SVGID_31_);}
	.st198{fill:url(#SVGID_32_);}
	.st199{fill:url(#SVGID_33_);}
	.st200{fill:url(#SVGID_34_);}
	.st201{fill:url(#SVGID_35_);}
	.st202{fill:url(#SVGID_36_);}
	.st203{fill:url(#SVGID_37_);}
	.st204{fill:url(#SVGID_38_);}
	.st205{fill:url(#SVGID_39_);}
	.st206{fill:url(#SVGID_40_);}
	.st207{fill:url(#SVGID_41_);}
	.st208{fill:url(#SVGID_42_);}
	.st209{fill:url(#SVGID_43_);}
	.st210{fill:url(#SVGID_44_);}
	.st211{fill:#B3B3B3;}
	.st212{fill:url(#SVGID_45_);}
	.st213{fill:#A03C00;}
	.st214{fill:url(#SVGID_46_);}
	.st215{fill:url(#SVGID_47_);}
</style>
<g>
	
		<linearGradient id="SVGID_1_" gradientUnits="userSpaceOnUse" x1="19.1199" y1="-234.5527" x2="22.565" y2="-234.6054" gradientTransform="matrix(1 0 0 -1 0 -217.8994)">
		<stop  offset="0" style="stop-color:#242424"/>
		<stop  offset="1" style="stop-color:#FFFFFF"/>
	</linearGradient>
	<path class="st0" d="M20.6,2.4h-1.8C17.8,2.4,17,3,17,4v25.2c0,1,0.8,1.8,1.8,1.8l0.5-0.1c1,0,3.1,0.1,3.1-1.7V4
		C22.4,3,22.4,2.4,20.6,2.4z"/>
	<g>
		<g>
			<g>
				<defs>
					<path id="SVGID_2_" d="M19.3,1.9c0,0,1.4,0,1.5,0.7c0.1,0.7,0.4,3.4,0.4,3.4L20.3,6L19.3,1.9z"/>
				</defs>
				<clipPath id="SVGID_3_">
					<use xlink:href="#SVGID_2_"  style="overflow:visible;"/>
				</clipPath>
				<rect x="19.3" y="1.9" class="st1" width="1.9" height="4.2"/>
				<path class="st1" d="M21,3.8C21.3,5,21.4,6.2,21.3,7V6.2h-1.7v0.4c-0.1-0.2-0.2-0.5-0.2-0.8c-0.1-0.5-0.3-1.1-0.4-1.8h0.2V1.7
					h1.2V1.2c0.1,0.2,0.2,0.5,0.2,0.8C20.8,2.5,20.9,3.1,21,3.8z"/>
				<path class="st2" d="M21,3.8C21.3,5,21.3,6.2,21.3,7V6.2h-1.5v1.1c-0.3-0.8-0.6-1.9-0.9-3.1h0.2V1.7h1.2V1.3
					c0.1,0.2,0.2,0.5,0.2,0.8C20.8,2.5,20.9,3.1,21,3.8z"/>
				<path class="st3" d="M21,3.8C21.2,5,21.3,6.1,21.3,7V6.2h-1.4v1c-0.3-0.8-0.6-1.9-0.9-3.1h0.2V1.7h1.2V1.3
					c0.1,0.2,0.2,0.5,0.2,0.7C20.8,2.6,20.9,3.1,21,3.8z"/>
				<path class="st4" d="M21,3.8c0.2,1.2,0.3,2.3,0.3,3.2V6.2h-1.4v1c-0.3-0.8-0.6-1.8-0.8-3.1h0.2V1.7h1v-1
					C20.5,1.5,20.8,2.5,21,3.8z"/>
				<path class="st5" d="M21,3.8c0.2,1.2,0.3,2.3,0.3,3.1V6.2h-1.4v0.9c-0.3-0.8-0.6-1.8-0.8-3h0.2V1.7h1v-1
					C20.5,1.5,20.8,2.6,21,3.8z"/>
				<path class="st6" d="M21,3.8c0.2,1.2,0.3,2.3,0.2,3.1V6.2h-1.4v0.9c-0.3-0.7-0.6-1.8-0.8-3h0.2V1.7h1v-1
					C20.5,1.5,20.8,2.6,21,3.8z"/>
				<path class="st7" d="M21,3.8c0.2,1.2,0.3,2.3,0.2,3.1V6.2h-1.4v0.9c-0.3-0.7-0.6-1.8-0.8-3h0.1V1.7h1V0.8
					C20.5,1.6,20.8,2.6,21,3.8z"/>
				<path class="st8" d="M21,3.8c0.2,1.2,0.3,2.2,0.2,3V6.2h-1.3V7c-0.3-0.7-0.6-1.8-0.8-2.9h0.1V1.7h1V0.9
					C20.5,1.6,20.8,2.6,21,3.8z"/>
				<path class="st9" d="M21,3.8c0.2,1.1,0.3,2.2,0.2,3V6.2h-1.3V7c-0.3-0.7-0.6-1.7-0.8-2.9h0.1V1.7h1V0.9
					C20.5,1.6,20.7,2.6,21,3.8z"/>
				<path class="st10" d="M20.9,3.8c0.2,1.1,0.3,2.2,0.2,2.9V6.2h-1.3v0.7c-0.3-0.7-0.6-1.7-0.8-2.8h0.1V1.7h1V0.9
					C20.5,1.6,20.7,2.6,20.9,3.8z"/>
				<path class="st11" d="M20.9,3.8c0.2,1.1,0.3,2.1,0.2,2.9V6.2h-1.3v0.7c-0.3-0.7-0.6-1.7-0.8-2.8h0.1V1.7h1V1
					C20.4,1.7,20.7,2.7,20.9,3.8z"/>
				<path class="st12" d="M20.9,3.8c0.2,1.1,0.3,2.1,0.2,2.9V6.2h-1.3v0.7c-0.3-0.7-0.6-1.7-0.8-2.8h0.1V1.7h1V1
					C20.4,1.7,20.7,2.7,20.9,3.8z"/>
				<path class="st13" d="M20.9,3.8c0.2,1.1,0.3,2.1,0.2,2.8V6.2h-1.3v0.6c-0.3-0.7-0.6-1.6-0.8-2.7h0.1V1.7h1V1.1
					C20.4,1.7,20.7,2.7,20.9,3.8z"/>
				<path class="st14" d="M20.9,3.8c0.2,1.1,0.3,2.1,0.2,2.8V6.2h-1.2v0.6c-0.3-0.7-0.6-1.6-0.7-2.7h0.1V1.7h1V1.1
					C20.4,1.8,20.7,2.7,20.9,3.8z"/>
				<path class="st15" d="M20.9,3.8c0.2,1.1,0.3,2,0.2,2.7V6.2h-1.2v0.5c-0.3-0.7-0.5-1.6-0.7-2.7h0V1.7h1V1.1
					C20.4,1.8,20.7,2.7,20.9,3.8z"/>
				<path class="st16" d="M20.9,3.8c0.2,1,0.3,2,0.2,2.7V6.2h-1.2v0.5c-0.3-0.7-0.5-1.6-0.7-2.6h0V1.7h1V1.2
					C20.4,1.8,20.7,2.8,20.9,3.8z"/>
				<path class="st17" d="M20.9,3.8c0.2,1,0.2,2,0.2,2.7V6.2h-1.2v0.5c-0.3-0.6-0.5-1.6-0.7-2.6h0V1.7h1V1.2
					C20.4,1.9,20.7,2.8,20.9,3.8z"/>
				<path class="st18" d="M20.8,3.8c0.2,1,0.2,1.9,0.2,2.6V6.2h-1.2v0.4c-0.3-0.6-0.5-1.5-0.7-2.5h0V1.7h1V1.3
					C20.4,1.9,20.7,2.8,20.8,3.8z"/>
				<path class="st19" d="M20.8,3.8c0.2,1,0.2,1.9,0.2,2.6V6.2h-1.2v0.4c-0.3-0.6-0.5-1.5-0.7-2.5c-0.2-1-0.2-1.9-0.2-2.6l0.2,0.2
					h0.9V1.3C20.4,1.9,20.7,2.8,20.8,3.8z"/>
				<path class="st20" d="M20.8,3.8c0.2,1,0.2,1.9,0.2,2.6V6.2h-1.1v0.3c-0.3-0.6-0.5-1.5-0.7-2.5S19,2.2,19,1.5l0.2,0.2h0.9V1.3
					C20.4,1.9,20.6,2.8,20.8,3.8z"/>
				<path class="st21" d="M20.8,3.8C21,4.8,21,5.7,21,6.3V6.2h-1.1v0.3c-0.3-0.6-0.5-1.5-0.7-2.4C19,3.1,19,2.2,19,1.6l0.2,0.2h0.9
					V1.4C20.4,2,20.6,2.8,20.8,3.8z"/>
				<path class="st22" d="M20.8,3.8C21,4.8,21,5.6,21,6.3V6.2h-1.1v0.3c-0.3-0.6-0.5-1.4-0.7-2.4c-0.2-1-0.2-1.8-0.2-2.5l0.2,0.1
					h0.9V1.4C20.4,2,20.6,2.9,20.8,3.8z"/>
				<path class="st23" d="M20.8,3.8C20.9,4.7,21,5.6,21,6.2v0h-1.1v0.2c-0.2-0.6-0.5-1.4-0.6-2.4C19.1,3.1,19,2.3,19,1.6l0.1,0.1
					h0.9V1.4C20.4,2,20.6,2.9,20.8,3.8z"/>
				<path class="st24" d="M20.8,3.8c0.3,1.8,0.2,3.4-0.2,3.5V6.2h-0.7v0.2c-0.2-0.6-0.5-1.4-0.6-2.3c-0.2-0.9-0.2-1.8-0.2-2.4
					l0.1,0.1h0.9V1.5C20.4,2.1,20.6,2.9,20.8,3.8z"/>
				<path class="st25" d="M20.8,3.8c0.3,1.8,0.2,3.3-0.2,3.4v-1h-0.7v0.1c-0.2-0.6-0.5-1.4-0.6-2.3c-0.2-0.9-0.2-1.7-0.2-2.4l0.1,0
					h0.9V1.5C20.4,2.1,20.6,2.9,20.8,3.8z"/>
				<path class="st26" d="M20.7,3.8c0.3,1.8,0.2,3.3-0.2,3.4c-0.4,0.1-1-1.3-1.3-3.1C19,2.3,19,0.8,19.4,0.7v1h0.7V1.6
					C20.4,2.1,20.6,2.9,20.7,3.8z"/>
				<path class="st27" d="M20.7,3.8C21,5.6,21,7,20.6,7.1c-0.4,0.1-1-1.3-1.3-3c-0.3-1.8-0.2-3.2,0.2-3.3
					C19.8,0.7,20.4,2.1,20.7,3.8z"/>
				<path class="st28" d="M20.7,3.8C21,5.5,21,7,20.6,7.1c-0.4,0.1-1-1.3-1.3-3c-0.3-1.7-0.2-3.2,0.2-3.2
					C19.9,0.8,20.4,2.1,20.7,3.8z"/>
				<path class="st29" d="M20.7,3.8C21,5.5,20.9,6.9,20.5,7c-0.4,0.1-0.9-1.3-1.2-2.9c-0.3-1.7-0.2-3.1,0.2-3.2
					C19.9,0.8,20.4,2.1,20.7,3.8z"/>
				<path class="st30" d="M20.7,3.8C21,5.5,20.9,6.9,20.5,7c-0.4,0.1-0.9-1.2-1.2-2.9C19,2.4,19.1,1,19.5,0.9
					C19.9,0.9,20.4,2.2,20.7,3.8z"/>
				<path class="st31" d="M20.7,3.8c0.3,1.6,0.2,3-0.2,3.1c-0.4,0.1-0.9-1.2-1.2-2.8C19,2.4,19.1,1,19.5,1
					C19.9,0.9,20.4,2.2,20.7,3.8z"/>
				<path class="st32" d="M20.7,3.8c0.3,1.6,0.2,3-0.1,3c-0.4,0.1-0.9-1.2-1.2-2.8c-0.3-1.6-0.2-3,0.1-3C19.9,1,20.4,2.2,20.7,3.8z"
					/>
				<path class="st33" d="M20.7,3.8c0.3,1.6,0.2,2.9-0.1,3c-0.4,0.1-0.9-1.2-1.1-2.7c-0.3-1.6-0.2-2.9,0.1-3
					C19.9,1,20.4,2.3,20.7,3.8z"/>
				<path class="st34" d="M20.6,3.8c0.3,1.5,0.2,2.8-0.1,2.9c-0.4,0.1-0.9-1.1-1.1-2.7c-0.3-1.5-0.2-2.8,0.1-2.9
					C19.9,1.1,20.4,2.3,20.6,3.8z"/>
				<path class="st35" d="M20.6,3.8c0.3,1.5,0.2,2.8-0.1,2.9c-0.3,0.1-0.8-1.1-1.1-2.6c-0.3-1.5-0.2-2.8,0.1-2.9
					C19.9,1.1,20.4,2.3,20.6,3.8z"/>
				<path class="st36" d="M20.6,3.8c0.3,1.5,0.2,2.7-0.1,2.8c-0.3,0.1-0.8-1.1-1.1-2.6c-0.3-1.5-0.2-2.7,0.1-2.8
					C19.9,1.2,20.4,2.3,20.6,3.8z"/>
				<path class="st37" d="M20.6,3.8c0.3,1.5,0.2,2.7-0.1,2.7c-0.3,0.1-0.8-1.1-1.1-2.5c-0.3-1.5-0.2-2.7,0.1-2.7
					C19.9,1.2,20.4,2.4,20.6,3.8z"/>
				<path class="st38" d="M20.6,3.8c0.3,1.4,0.2,2.6-0.1,2.7c-0.3,0.1-0.8-1.1-1-2.5c-0.3-1.4-0.2-2.6,0.1-2.7
					C19.9,1.3,20.3,2.4,20.6,3.8z"/>
				<path class="st39" d="M20.6,3.8c0.2,1.4,0.2,2.6-0.1,2.6c-0.3,0.1-0.8-1-1-2.4c-0.2-1.4-0.2-2.6,0.1-2.6
					C19.9,1.4,20.3,2.4,20.6,3.8z"/>
				<path class="st40" d="M20.6,3.8c0.2,1.4,0.2,2.5-0.1,2.6c-0.3,0.1-0.8-1-1-2.4c-0.2-1.4-0.2-2.5,0.1-2.6
					C19.9,1.4,20.3,2.5,20.6,3.8z"/>
				<path class="st41" d="M20.6,3.8c0.2,1.3,0.2,2.5-0.1,2.5c-0.3,0.1-0.7-1-1-2.3c-0.2-1.3-0.2-2.5,0.1-2.5
					C19.9,1.5,20.3,2.5,20.6,3.8z"/>
				<path class="st42" d="M20.5,3.8c0.2,1.3,0.2,2.4-0.1,2.5c-0.3,0.1-0.7-1-1-2.3c-0.2-1.3-0.2-2.4,0.1-2.5
					C19.9,1.5,20.3,2.5,20.5,3.8z"/>
				<path class="st43" d="M20.5,3.8c0.2,1.3,0.2,2.4-0.1,2.4c-0.3,0.1-0.7-0.9-0.9-2.2c-0.2-1.3-0.2-2.4,0.1-2.4
					C19.9,1.6,20.3,2.6,20.5,3.8z"/>
				<path class="st44" d="M20.5,3.9c0.2,1.2,0.2,2.3-0.1,2.3c-0.3,0.1-0.7-0.9-0.9-2.2c-0.2-1.2-0.2-2.3,0.1-2.3
					C19.9,1.6,20.3,2.6,20.5,3.9z"/>
				<path class="st45" d="M20.5,3.9c0.2,1.2,0.2,2.2-0.1,2.3c-0.3,0-0.7-0.9-0.9-2.1c-0.2-1.2-0.2-2.2,0.1-2.3
					C19.9,1.7,20.3,2.6,20.5,3.9z"/>
				<path class="st46" d="M20.5,3.9C20.7,5,20.7,6,20.4,6.1c-0.3,0-0.7-0.9-0.9-2.1c-0.2-1.2-0.2-2.2,0.1-2.2
					C19.9,1.7,20.3,2.7,20.5,3.9z"/>
				<path class="st47" d="M20.5,3.9C20.7,5,20.6,6,20.4,6c-0.3,0-0.6-0.9-0.8-2c-0.2-1.2-0.2-2.1,0.1-2.2
					C19.9,1.8,20.3,2.7,20.5,3.9z"/>
				<path class="st48" d="M20.5,3.9C20.7,5,20.6,5.9,20.4,6c-0.3,0-0.6-0.8-0.8-2c-0.2-1.1-0.2-2.1,0.1-2.1
					C19.9,1.9,20.3,2.7,20.5,3.9z"/>
				<path class="st49" d="M20.5,3.9c0.2,1.1,0.1,2-0.1,2.1c-0.3,0-0.6-0.8-0.8-1.9c-0.2-1.1-0.1-2,0.1-2.1
					C19.9,1.9,20.3,2.8,20.5,3.9z"/>
				<path class="st50" d="M20.4,3.9c0.2,1.1,0.1,2-0.1,2c-0.2,0-0.6-0.8-0.8-1.9c-0.2-1.1-0.1-2,0.1-2C19.9,2,20.3,2.8,20.4,3.9z"/>
				<path class="st51" d="M20.4,3.9c0.2,1,0.1,1.9-0.1,2c-0.2,0-0.6-0.8-0.8-1.8c-0.2-1-0.1-1.9,0.1-2C19.9,2,20.3,2.8,20.4,3.9z"/>
				<path class="st52" d="M20.4,3.9c0.2,1,0.1,1.9-0.1,1.9c-0.2,0-0.6-0.7-0.7-1.8c-0.2-1-0.1-1.9,0.1-1.9
					C19.9,2.1,20.2,2.9,20.4,3.9z"/>
				<path class="st53" d="M20.4,3.9c0.2,1,0.1,1.8-0.1,1.8c-0.2,0-0.5-0.7-0.7-1.7c-0.2-1-0.1-1.8,0.1-1.8
					C19.9,2.1,20.2,2.9,20.4,3.9z"/>
				<path class="st54" d="M20.4,3.9c0.2,1,0.1,1.8-0.1,1.8c-0.2,0-0.5-0.7-0.7-1.7c-0.2-1-0.1-1.8,0.1-1.8
					C19.9,2.2,20.2,2.9,20.4,3.9z"/>
				<path class="st55" d="M20.4,3.9c0.2,0.9,0.1,1.7-0.1,1.7c-0.2,0-0.5-0.7-0.7-1.6c-0.2-0.9-0.1-1.7,0.1-1.7
					C19.9,2.2,20.2,3,20.4,3.9z"/>
				<path class="st56" d="M20.4,3.9c0.2,0.9,0.1,1.6-0.1,1.7c-0.2,0-0.5-0.7-0.7-1.5c-0.2-0.9-0.1-1.6,0.1-1.7
					C19.9,2.3,20.2,3,20.4,3.9z"/>
				<path class="st57" d="M20.4,3.9c0.2,0.9,0.1,1.6-0.1,1.6c-0.2,0-0.5-0.6-0.6-1.5c-0.2-0.9-0.1-1.6,0.1-1.6
					C19.9,2.3,20.2,3,20.4,3.9z"/>
				<path class="st58" d="M20.4,3.9c0.1,0.8,0.1,1.5-0.1,1.6c-0.2,0-0.5-0.6-0.6-1.4c-0.1-0.8-0.1-1.5,0.1-1.6
					C19.9,2.4,20.2,3.1,20.4,3.9z"/>
				<path class="st59" d="M20.3,3.9c0.1,0.8,0.1,1.5-0.1,1.5c-0.2,0-0.4-0.6-0.6-1.4c-0.1-0.8-0.1-1.5,0.1-1.5
					C19.9,2.5,20.2,3.1,20.3,3.9z"/>
				<path class="st60" d="M20.3,3.9c0.1,0.8,0.1,1.4-0.1,1.5c-0.2,0-0.4-0.6-0.6-1.3c-0.1-0.8-0.1-1.4,0.1-1.5
					C19.9,2.5,20.2,3.1,20.3,3.9z"/>
				<path class="st61" d="M20.3,3.9c0.1,0.7,0.1,1.4-0.1,1.4c-0.2,0-0.4-0.5-0.5-1.3c-0.1-0.7-0.1-1.4,0.1-1.4
					C19.9,2.6,20.2,3.1,20.3,3.9z"/>
				<path class="st62" d="M20.3,3.9c0.1,0.7,0.1,1.3-0.1,1.3c-0.2,0-0.4-0.5-0.5-1.2c-0.1-0.7-0.1-1.3,0.1-1.3
					C19.9,2.6,20.2,3.2,20.3,3.9z"/>
				<path class="st63" d="M20.3,3.9c0.1,0.7,0.1,1.3-0.1,1.3c-0.2,0-0.4-0.5-0.5-1.2c-0.1-0.7-0.1-1.3,0.1-1.3
					C19.9,2.7,20.2,3.2,20.3,3.9z"/>
				<path class="st64" d="M20.3,3.9c0.1,0.7,0.1,1.2-0.1,1.2c-0.1,0-0.4-0.5-0.5-1.1c-0.1-0.7-0.1-1.2,0.1-1.2
					C20,2.7,20.2,3.2,20.3,3.9z"/>
				<path class="st65" d="M20.3,3.9c0.1,0.6,0.1,1.1-0.1,1.2c-0.1,0-0.3-0.5-0.5-1.1c-0.1-0.6-0.1-1.1,0.1-1.2
					C20,2.8,20.2,3.3,20.3,3.9z"/>
				<path class="st66" d="M20.3,3.9C20.4,4.5,20.3,5,20.2,5c-0.1,0-0.3-0.4-0.4-1c-0.1-0.6-0.1-1.1,0.1-1.1
					C20,2.8,20.1,3.3,20.3,3.9z"/>
				<path class="st67" d="M20.2,3.9c0.1,0.6,0.1,1-0.1,1.1c-0.1,0-0.3-0.4-0.4-1c-0.1-0.6-0.1-1,0.1-1.1C20,2.9,20.1,3.3,20.2,3.9z"
					/>
				<path class="st68" d="M20.2,3.9c0.1,0.5,0.1,1,0,1c-0.1,0-0.3-0.4-0.4-0.9c-0.1-0.5-0.1-1,0-1C20,3,20.1,3.4,20.2,3.9z"/>
				<path class="st69" d="M20.2,3.9c0.1,0.5,0.1,0.9,0,1c-0.1,0-0.3-0.4-0.4-0.9c-0.1-0.5-0.1-0.9,0-1C20,3,20.1,3.4,20.2,3.9z"/>
				<path class="st70" d="M20.2,3.9c0.1,0.5,0.1,0.9,0,0.9c-0.1,0-0.3-0.4-0.3-0.8c-0.1-0.5-0.1-0.9,0-0.9C20,3.1,20.1,3.4,20.2,3.9
					z"/>
				<path class="st71" d="M20.2,3.9c0.1,0.4,0.1,0.8,0,0.8c-0.1,0-0.2-0.3-0.3-0.8c-0.1-0.4-0.1-0.8,0-0.8C20,3.1,20.1,3.5,20.2,3.9
					z"/>
				<path class="st72" d="M20.2,3.9c0.1,0.4,0.1,0.8,0,0.8c-0.1,0-0.2-0.3-0.3-0.7c-0.1-0.4-0.1-0.8,0-0.8C20,3.2,20.1,3.5,20.2,3.9
					z"/>
				<path class="st73" d="M20.2,3.9c0.1,0.4,0.1,0.7,0,0.7c-0.1,0-0.2-0.3-0.3-0.7c-0.1-0.4-0.1-0.7,0-0.7C20,3.2,20.1,3.5,20.2,3.9
					z"/>
				<path class="st74" d="M20.2,3.9c0.1,0.4,0,0.7,0,0.7c-0.1,0-0.2-0.3-0.3-0.6c-0.1-0.4,0-0.7,0-0.7C20,3.3,20.1,3.6,20.2,3.9z"/>
				<path class="st75" d="M20.1,3.9c0.1,0.3,0,0.6,0,0.6c-0.1,0-0.2-0.2-0.2-0.6c-0.1-0.3,0-0.6,0-0.6C20,3.3,20.1,3.6,20.1,3.9z"/>
				<path class="st76" d="M20.1,3.9c0.1,0.3,0,0.5,0,0.6c-0.1,0-0.2-0.2-0.2-0.5c-0.1-0.3,0-0.5,0-0.6C20,3.4,20.1,3.6,20.1,3.9z"/>
				<path class="st77" d="M20.1,3.9c0,0.3,0,0.5,0,0.5c-0.1,0-0.1-0.2-0.2-0.5c0-0.3,0-0.5,0-0.5C20,3.4,20.1,3.7,20.1,3.9z"/>
				<path class="st78" d="M20.1,3.9c0,0.2,0,0.4,0,0.4C20,4.4,20,4.2,19.9,4c0-0.2,0-0.4,0-0.4C20,3.5,20.1,3.7,20.1,3.9z"/>
				<path class="st79" d="M20.1,3.9c0,0.2,0,0.4,0,0.4c0,0-0.1-0.2-0.2-0.4c0-0.2,0-0.4,0-0.4S20.1,3.7,20.1,3.9z"/>
				<path class="st80" d="M20.1,3.9c0,0.2,0,0.3,0,0.3c0,0-0.1-0.1-0.1-0.3c0-0.2,0-0.3,0-0.3C20,3.6,20.1,3.8,20.1,3.9z"/>
				<path class="st81" d="M20.1,3.9c0,0.1,0,0.3,0,0.3c0,0-0.1-0.1-0.1-0.3c0-0.1,0-0.3,0-0.3C20,3.7,20,3.8,20.1,3.9z"/>
				<path class="st82" d="M20.1,3.9c0,0.1,0,0.2,0,0.2C20,4.2,20,4.1,20.1,3.9c-0.1-0.1-0.1-0.2-0.1-0.2C20,3.7,20,3.8,20.1,3.9z"/>
				<path class="st83" d="M20,3.9c0,0.1,0,0.2,0,0.2C20,4.1,20,4,20,3.9C20,3.9,20,3.8,20,3.8C20,3.8,20,3.8,20,3.9z"/>
				<path class="st84" d="M20,3.9C20,4,20,4,20,4.1C20,4.1,20,4,20,3.9C20,3.9,20,3.8,20,3.8C20,3.8,20,3.9,20,3.9z"/>
				<path class="st85" d="M20,3.9C20,4,20,4,20,3.9C20,4,20,4,20,3.9C20,3.9,20,3.9,20,3.9C20,3.9,20,3.9,20,3.9z"/>
			</g>
		</g>
		<g>
			<g>
				<defs>
					<path id="SVGID_4_" d="M13.1,1.9c0,0-1.4,0-1.5,0.7c-0.1,0.7-0.4,3.4-0.4,3.4L12.1,6L13.1,1.9z"/>
				</defs>
				<clipPath id="SVGID_5_">
					<use xlink:href="#SVGID_4_"  style="overflow:visible;"/>
				</clipPath>
				<rect x="11.2" y="1.9" class="st86" width="1.9" height="4.2"/>
				<path class="st86" d="M11.6,3.4c-0.4,2-0.4,3.6-0.2,3.7c0.3,0,0.7-1.5,1.1-3.5c0.2-1,0.3-1.9,0.3-2.6v0.8h-0.6V0.8
					C11.9,1.5,11.7,2.4,11.6,3.4z"/>
				<path class="st87" d="M11.6,3.4c-0.3,2-0.4,3.6-0.2,3.6c0.2,0,0.7-1.5,1.1-3.5c0.2-1,0.3-1.9,0.3-2.5v0.8h-0.6V0.9
					C11.9,1.5,11.7,2.4,11.6,3.4z"/>
				<path class="st88" d="M11.6,3.4c-0.3,1.9-0.4,3.6-0.2,3.6c0.2,0,0.7-1.5,1.1-3.4c0.2-1,0.3-1.9,0.3-2.5v0.7h-0.6V0.9
					C11.9,1.5,11.7,2.4,11.6,3.4z"/>
				<path class="st89" d="M11.6,3.4c-0.3,1.9-0.4,3.5-0.2,3.6c0.2,0,0.7-1.5,1-3.4c0.2-1,0.3-1.8,0.3-2.5v0.7h-0.6V0.9
					C11.9,1.6,11.7,2.4,11.6,3.4z"/>
				<path class="st90" d="M11.6,3.4c-0.3,1.9-0.4,3.5-0.2,3.5c0.2,0,0.7-1.5,1-3.4c0.2-0.9,0.3-1.8,0.3-2.5v0.7h-0.6V1
					C11.9,1.6,11.7,2.4,11.6,3.4z"/>
				<path class="st91" d="M11.6,3.4c-0.3,1.9-0.4,3.4-0.2,3.5c0.2,0,0.7-1.4,1-3.3c0.2-0.9,0.3-1.8,0.3-2.4v0.6h-0.6V1
					C11.9,1.6,11.8,2.4,11.6,3.4z"/>
				<path class="st92" d="M11.6,3.4c-0.3,1.9-0.4,3.4-0.2,3.4c0.2,0,0.7-1.4,1-3.3c0.2-0.9,0.3-1.8,0.3-2.4v0.6h-0.6V1
					C11.9,1.6,11.8,2.4,11.6,3.4z"/>
				<path class="st93" d="M11.6,3.4c-0.3,1.8-0.4,3.3-0.2,3.4c0.2,0,0.7-1.4,1-3.2c0.2-0.9,0.3-1.7,0.3-2.4v0.6h-0.6V1.1
					C11.9,1.6,11.8,2.5,11.6,3.4z"/>
				<path class="st94" d="M11.6,3.4c-0.3,1.8-0.4,3.3-0.2,3.3c0.2,0,0.7-1.4,1-3.2c0.2-0.9,0.3-1.7,0.3-2.3v0.5h-0.6V1.1
					C12,1.7,11.8,2.5,11.6,3.4z"/>
				<path class="st95" d="M11.6,3.4c-0.3,1.8-0.4,3.3-0.2,3.3c0.2,0,0.7-1.4,1-3.2c0.2-0.9,0.3-1.7,0.3-2.3v0.5h-0.6V1.1
					C12,1.7,11.8,2.5,11.6,3.4z"/>
				<path class="st96" d="M11.6,3.4c-0.3,1.8-0.4,3.2-0.2,3.3c0.2,0,0.7-1.4,1-3.1c0.2-0.9,0.2-1.7,0.3-2.3v0.5h-0.6V1.2
					C12,1.7,11.8,2.5,11.6,3.4z"/>
				<path class="st97" d="M11.6,3.4c-0.3,1.7-0.4,3.2-0.2,3.2c0.2,0,0.6-1.3,0.9-3.1c0.2-0.9,0.2-1.7,0.3-2.2v0.5h-0.6V1.2
					C12,1.7,11.8,2.5,11.6,3.4z"/>
				<path class="st98" d="M11.6,3.4c-0.3,1.7-0.4,3.1-0.2,3.2c0.2,0,0.6-1.3,0.9-3c0.2-0.9,0.2-1.6,0.3-2.2v0.4h-0.6V1.2
					C12,1.8,11.8,2.5,11.6,3.4z"/>
				<path class="st99" d="M11.6,3.4c-0.3,1.7-0.4,3.1-0.2,3.1c0.2,0,0.6-1.3,0.9-3c0.1-0.8,0.2-1.6,0.3-2.2v0.4h-0.5V1.2
					C12,1.8,11.8,2.5,11.6,3.4z"/>
				<path class="st100" d="M11.6,3.4c-0.3,1.7-0.4,3-0.2,3.1c0.2,0,0.6-1.3,0.9-2.9c0.1-0.8,0.2-1.6,0.3-2.1v0.4h-0.5V1.3
					C12,1.8,11.8,2.6,11.6,3.4z"/>
				<path class="st101" d="M11.6,3.4c-0.3,1.6-0.4,3-0.1,3c0.2,0,0.6-1.3,0.9-2.9c0.1-0.8,0.2-1.6,0.3-2.1v0.3h-0.5V1.3
					C12,1.8,11.8,2.6,11.6,3.4z"/>
				<path class="st102" d="M11.6,3.4c-0.3,1.6-0.4,3-0.1,3c0.2,0,0.6-1.2,0.9-2.9c0.1-0.8,0.2-1.5,0.3-2.1v0.3h-0.5V1.3
					C12,1.9,11.8,2.6,11.6,3.4z"/>
				<path class="st103" d="M11.6,3.4c-0.3,1.6-0.3,2.9-0.1,2.9c0.2,0,0.6-1.2,0.9-2.8c0.1-0.8,0.2-1.5,0.3-2.1v0.3h-0.5V1.4
					C12,1.9,11.8,2.6,11.6,3.4z"/>
				<path class="st104" d="M11.7,3.4c-0.3,1.6-0.3,2.9-0.1,2.9c0.2,0,0.6-1.2,0.9-2.8c0.1-0.8,0.2-1.5,0.2-2v0.3h-0.5V1.4
					C12,1.9,11.8,2.6,11.7,3.4z"/>
				<path class="st105" d="M11.7,3.4c-0.3,1.5-0.3,2.8-0.1,2.9c0.2,0,0.6-1.2,0.8-2.7c0.1-0.8,0.2-1.5,0.2-2v0.2h-0.5V1.4
					C12,1.9,11.8,2.6,11.7,3.4z"/>
				<path class="st106" d="M11.7,3.4c-0.3,1.5-0.3,2.8-0.1,2.8c0.2,0,0.6-1.2,0.8-2.7c0.3-1.5,0.3-2.8,0.1-2.8v1h-0.4V1.5
					C12,1.9,11.8,2.6,11.7,3.4z"/>
				<path class="st107" d="M11.7,3.4c-0.3,1.5-0.3,2.7-0.1,2.8c0.2,0,0.6-1.2,0.8-2.7c0.3-1.5,0.3-2.7,0.1-2.8
					C12.3,0.7,11.9,1.9,11.7,3.4z"/>
				<path class="st108" d="M11.7,3.4c-0.3,1.5-0.3,2.7-0.1,2.7c0.2,0,0.5-1.1,0.8-2.6c0.3-1.5,0.3-2.7,0.1-2.7
					C12.3,0.7,11.9,1.9,11.7,3.4z"/>
				<path class="st109" d="M11.7,3.4c-0.3,1.5-0.3,2.7-0.1,2.7c0.2,0,0.5-1.1,0.8-2.6c0.3-1.5,0.3-2.7,0.1-2.7
					C12.3,0.8,11.9,1.9,11.7,3.4z"/>
				<path class="st110" d="M11.7,3.4C11.4,4.8,11.4,6,11.6,6c0.2,0,0.5-1.1,0.8-2.5c0.3-1.4,0.3-2.6,0.1-2.6
					C12.3,0.8,11.9,2,11.7,3.4z"/>
				<path class="st111" d="M11.7,3.4C11.4,4.8,11.4,6,11.6,6c0.2,0,0.5-1.1,0.8-2.5c0.2-1.4,0.3-2.6,0.1-2.6
					C12.3,0.9,11.9,2,11.7,3.4z"/>
				<path class="st112" d="M11.7,3.4c-0.2,1.4-0.3,2.5-0.1,2.6c0.2,0,0.5-1.1,0.8-2.4c0.2-1.4,0.3-2.5,0.1-2.6
					C12.3,0.9,11.9,2,11.7,3.4z"/>
				<path class="st113" d="M11.7,3.4c-0.2,1.4-0.3,2.5-0.1,2.5c0.2,0,0.5-1,0.7-2.4C12.6,2.1,12.6,1,12.4,1C12.3,1,11.9,2,11.7,3.4z
					"/>
				<path class="st114" d="M11.7,3.4c-0.2,1.3-0.3,2.4-0.1,2.5c0.2,0,0.5-1,0.7-2.4c0.2-1.3,0.3-2.4,0.1-2.5
					C12.3,1,11.9,2.1,11.7,3.4z"/>
				<path class="st115" d="M11.7,3.4c-0.2,1.3-0.3,2.4-0.1,2.4c0.2,0,0.5-1,0.7-2.3c0.2-1.3,0.3-2.4,0.1-2.4
					C12.3,1,11.9,2.1,11.7,3.4z"/>
				<path class="st116" d="M11.7,3.4c-0.2,1.3-0.3,2.4-0.1,2.4c0.2,0,0.5-1,0.7-2.3c0.2-1.3,0.3-2.4,0.1-2.4S11.9,2.1,11.7,3.4z"/>
				<path class="st117" d="M11.7,3.4c-0.2,1.3-0.3,2.3-0.1,2.3c0.2,0,0.5-1,0.7-2.2c0.2-1.3,0.3-2.3,0.1-2.3
					C12.3,1.1,11.9,2.1,11.7,3.4z"/>
				<path class="st118" d="M11.7,3.4c-0.2,1.2-0.3,2.3-0.1,2.3c0.2,0,0.5-1,0.7-2.2c0.2-1.2,0.3-2.3,0.1-2.3
					C12.3,1.2,11.9,2.2,11.7,3.4z"/>
				<path class="st119" d="M11.7,3.4c-0.2,1.2-0.3,2.2-0.1,2.3c0.2,0,0.5-0.9,0.7-2.2c0.2-1.2,0.3-2.2,0.1-2.3
					C12.2,1.2,11.9,2.2,11.7,3.4z"/>
				<path class="st120" d="M11.7,3.4c-0.2,1.2-0.3,2.2-0.1,2.2c0.1,0,0.4-0.9,0.7-2.1s0.3-2.2,0.1-2.2C12.2,1.3,12,2.2,11.7,3.4z"/>
				<path class="st121" d="M11.7,3.4c-0.2,1.2-0.3,2.1-0.1,2.2c0.1,0,0.4-0.9,0.6-2.1c0.2-1.2,0.3-2.1,0.1-2.2
					C12.2,1.3,12,2.2,11.7,3.4z"/>
				<path class="st122" d="M11.8,3.4c-0.2,1.1-0.2,2.1-0.1,2.1c0.1,0,0.4-0.9,0.6-2c0.2-1.1,0.2-2.1,0.1-2.1
					C12.2,1.3,12,2.3,11.8,3.4z"/>
				<path class="st123" d="M11.8,3.4c-0.2,1.1-0.2,2.1-0.1,2.1c0.1,0,0.4-0.9,0.6-2c0.2-1.1,0.2-2.1,0.1-2.1
					C12.2,1.4,12,2.3,11.8,3.4z"/>
				<path class="st124" d="M11.8,3.4c-0.2,1.1-0.2,2-0.1,2c0.1,0,0.4-0.8,0.6-1.9c0.2-1.1,0.2-2,0.1-2C12.2,1.4,12,2.3,11.8,3.4z"/>
				<path class="st125" d="M11.8,3.4c-0.2,1.1-0.2,2-0.1,2c0.1,0,0.4-0.8,0.6-1.9c0.2-1.1,0.2-2,0.1-2C12.2,1.5,12,2.3,11.8,3.4z"/>
				<path class="st126" d="M11.8,3.4c-0.2,1.1-0.2,1.9-0.1,2c0.1,0,0.4-0.8,0.6-1.9c0.2-1.1,0.2-1.9,0.1-2C12.2,1.5,12,2.4,11.8,3.4
					z"/>
				<path class="st127" d="M11.8,3.4c-0.2,1-0.2,1.9-0.1,1.9c0.1,0,0.4-0.8,0.6-1.8c0.2-1,0.2-1.9,0.1-1.9C12.2,1.6,12,2.4,11.8,3.4
					z"/>
				<path class="st128" d="M11.8,3.4c-0.2,1-0.2,1.8-0.1,1.9c0.1,0,0.4-0.8,0.6-1.8c0.2-1,0.2-1.8,0.1-1.9C12.2,1.6,12,2.4,11.8,3.4
					z"/>
				<path class="st129" d="M11.8,3.4c-0.2,1-0.2,1.8-0.1,1.8c0.1,0,0.4-0.8,0.5-1.7c0.2-1,0.2-1.8,0.1-1.8C12.2,1.6,12,2.4,11.8,3.4
					z"/>
				<path class="st130" d="M11.8,3.4c-0.2,1-0.2,1.8-0.1,1.8c0.1,0,0.4-0.7,0.5-1.7c0.2-1,0.2-1.8,0.1-1.8C12.2,1.7,12,2.5,11.8,3.4
					z"/>
				<path class="st131" d="M11.8,3.4c-0.2,0.9-0.2,1.7-0.1,1.7c0.1,0,0.3-0.7,0.5-1.7c0.2-0.9,0.2-1.7,0.1-1.7
					C12.2,1.7,12,2.5,11.8,3.4z"/>
				<path class="st132" d="M11.8,3.4c-0.2,0.9-0.2,1.7-0.1,1.7c0.1,0,0.3-0.7,0.5-1.6c0.2-0.9,0.2-1.7,0.1-1.7
					C12.2,1.8,12,2.5,11.8,3.4z"/>
				<path class="st133" d="M11.8,3.4c-0.2,0.9-0.2,1.6-0.1,1.6c0.1,0,0.3-0.7,0.5-1.6c0.2-0.9,0.2-1.6,0.1-1.6
					C12.2,1.8,12,2.5,11.8,3.4z"/>
				<path class="st134" d="M11.8,3.4C11.7,4.3,11.6,5,11.7,5c0.1,0,0.3-0.7,0.5-1.5c0.2-0.9,0.2-1.6,0.1-1.6
					C12.2,1.9,12,2.5,11.8,3.4z"/>
				<path class="st135" d="M11.8,3.4C11.7,4.3,11.6,5,11.7,5c0.1,0,0.3-0.6,0.5-1.5c0.1-0.8,0.2-1.5,0.1-1.6
					C12.2,1.9,12,2.6,11.8,3.4z"/>
				<path class="st136" d="M11.8,3.4c-0.1,0.8-0.2,1.5-0.1,1.5c0.1,0,0.3-0.6,0.4-1.5C12.3,2.7,12.4,2,12.3,2
					C12.2,1.9,12,2.6,11.8,3.4z"/>
				<path class="st137" d="M11.8,3.4c-0.1,0.8-0.2,1.5-0.1,1.5c0.1,0,0.3-0.6,0.4-1.4C12.3,2.7,12.4,2,12.3,2
					C12.2,2,12,2.6,11.8,3.4z"/>
				<path class="st138" d="M11.8,3.4c-0.1,0.8-0.2,1.4-0.1,1.4c0.1,0,0.3-0.6,0.4-1.4c0.1-0.8,0.2-1.4,0.1-1.4
					C12.2,2,12,2.6,11.8,3.4z"/>
				<path class="st139" d="M11.8,3.4c-0.1,0.7-0.2,1.4-0.1,1.4c0.1,0,0.3-0.6,0.4-1.3c0.1-0.7,0.2-1.4,0.1-1.4
					C12.2,2.1,12,2.7,11.8,3.4z"/>
				<path class="st140" d="M11.8,3.4c-0.1,0.7-0.2,1.3-0.1,1.3c0.1,0,0.3-0.6,0.4-1.3c0.1-0.7,0.2-1.3,0.1-1.3
					C12.2,2.1,12,2.7,11.8,3.4z"/>
				<path class="st141" d="M11.9,3.4c-0.1,0.7-0.2,1.3-0.1,1.3c0.1,0,0.3-0.5,0.4-1.2c0.1-0.7,0.2-1.3,0.1-1.3
					C12.1,2.2,12,2.7,11.9,3.4z"/>
				<path class="st142" d="M11.9,3.4c-0.1,0.7-0.1,1.2-0.1,1.3c0.1,0,0.3-0.5,0.4-1.2c0.1-0.7,0.1-1.2,0.1-1.3
					C12.1,2.2,12,2.7,11.9,3.4z"/>
				<path class="st143" d="M11.9,3.4c-0.1,0.7-0.1,1.2-0.1,1.2c0.1,0,0.2-0.5,0.4-1.2c0.1-0.7,0.1-1.2,0.1-1.2
					C12.1,2.2,12,2.8,11.9,3.4z"/>
				<path class="st144" d="M11.9,3.4c-0.1,0.6-0.1,1.2-0.1,1.2c0.1,0,0.2-0.5,0.3-1.1c0.1-0.6,0.1-1.2,0.1-1.2
					C12.1,2.3,12,2.8,11.9,3.4z"/>
				<path class="st145" d="M11.9,3.4c-0.1,0.6-0.1,1.1-0.1,1.1c0.1,0,0.2-0.5,0.3-1.1c0.1-0.6,0.1-1.1,0.1-1.1
					C12.1,2.3,12,2.8,11.9,3.4z"/>
				<path class="st146" d="M11.9,3.4c-0.1,0.6-0.1,1.1-0.1,1.1c0.1,0,0.2-0.5,0.3-1c0.1-0.6,0.1-1.1,0.1-1.1
					C12.1,2.4,12,2.8,11.9,3.4z"/>
				<path class="st147" d="M11.9,3.4c-0.1,0.6-0.1,1-0.1,1c0.1,0,0.2-0.4,0.3-1c0.1-0.6,0.1-1,0.1-1C12.1,2.4,12,2.9,11.9,3.4z"/>
				<path class="st148" d="M11.9,3.4c-0.1,0.5-0.1,1,0,1c0.1,0,0.2-0.4,0.3-1c0.1-0.5,0.1-1,0-1C12.1,2.5,12,2.9,11.9,3.4z"/>
				<path class="st149" d="M11.9,3.4c-0.1,0.5-0.1,0.9,0,1c0.1,0,0.2-0.4,0.3-0.9c0.1-0.5,0.1-0.9,0-1C12.1,2.5,12,2.9,11.9,3.4z"/>
				<path class="st150" d="M11.9,3.4c-0.1,0.5-0.1,0.9,0,0.9c0.1,0,0.2-0.4,0.3-0.9c0.1-0.5,0.1-0.9,0-0.9C12.1,2.5,12,2.9,11.9,3.4
					z"/>
				<path class="st151" d="M11.9,3.4c-0.1,0.5-0.1,0.9,0,0.9c0.1,0,0.2-0.4,0.3-0.8s0.1-0.9,0-0.9C12.1,2.6,12,3,11.9,3.4z"/>
				<path class="st152" d="M11.9,3.4c-0.1,0.4-0.1,0.8,0,0.8c0.1,0,0.2-0.3,0.2-0.8c0.1-0.4,0.1-0.8,0-0.8C12.1,2.6,12,3,11.9,3.4z"
					/>
				<path class="st153" d="M11.9,3.4c-0.1,0.4-0.1,0.8,0,0.8c0.1,0,0.2-0.3,0.2-0.7c0.1-0.4,0.1-0.8,0-0.8C12.1,2.7,12,3,11.9,3.4z"
					/>
				<path class="st154" d="M11.9,3.4c-0.1,0.4-0.1,0.7,0,0.7c0.1,0,0.1-0.3,0.2-0.7c0.1-0.4,0.1-0.7,0-0.7C12.1,2.7,12,3,11.9,3.4z"
					/>
				<path class="st155" d="M11.9,3.4c-0.1,0.4-0.1,0.7,0,0.7c0,0,0.1-0.3,0.2-0.7c0.1-0.4,0.1-0.7,0-0.7C12.1,2.8,12,3.1,11.9,3.4z"
					/>
				<path class="st156" d="M11.9,3.4c-0.1,0.4-0.1,0.6,0,0.7c0,0,0.1-0.3,0.2-0.6c0.1-0.4,0.1-0.6,0-0.7C12.1,2.8,12,3.1,11.9,3.4z"
					/>
				<path class="st157" d="M11.9,3.4c-0.1,0.3-0.1,0.6,0,0.6c0,0,0.1-0.3,0.2-0.6c0.1-0.3,0.1-0.6,0-0.6C12.1,2.8,12,3.1,11.9,3.4z"
					/>
				<path class="st158" d="M11.9,3.4c-0.1,0.3-0.1,0.6,0,0.6c0,0,0.1-0.2,0.2-0.5c0.1-0.3,0.1-0.6,0-0.6C12.1,2.9,12,3.1,11.9,3.4z"
					/>
				<path class="st159" d="M11.9,3.4c0,0.3-0.1,0.5,0,0.5c0,0,0.1-0.2,0.2-0.5c0-0.3,0.1-0.5,0-0.5C12.1,2.9,12,3.2,11.9,3.4z"/>
				<path class="st160" d="M12,3.4c0,0.3-0.1,0.5,0,0.5c0,0,0.1-0.2,0.1-0.5c0-0.3,0.1-0.5,0-0.5C12.1,3,12,3.2,12,3.4z"/>
				<path class="st161" d="M12,3.4c0,0.2-0.1,0.4,0,0.4c0,0,0.1-0.2,0.1-0.4c0-0.2,0.1-0.4,0-0.4C12.1,3,12,3.2,12,3.4z"/>
				<path class="st162" d="M12,3.4c0,0.2,0,0.4,0,0.4C12,3.8,12,3.7,12,3.4c0.1-0.2,0.1-0.4,0.1-0.4C12.1,3.1,12,3.2,12,3.4z"/>
				<path class="st163" d="M12,3.4c0,0.2,0,0.3,0,0.3C12,3.8,12,3.6,12,3.4c0.1-0.2,0.1-0.3,0.1-0.3C12,3.1,12,3.3,12,3.4z"/>
				<path class="st164" d="M12,3.4c0,0.2,0,0.3,0,0.3C12,3.8,12,3.6,12,3.4c0.1-0.2,0.1-0.3,0.1-0.3C12,3.1,12,3.3,12,3.4z"/>
				<path class="st165" d="M12,3.4c0,0.1,0,0.3,0,0.3C12,3.7,12,3.6,12,3.4c0.1-0.1,0.1-0.2,0.1-0.2C12,3.2,12,3.3,12,3.4z"/>
				<path class="st166" d="M12,3.4c0,0.1,0,0.2,0,0.2C12,3.7,12,3.6,12,3.4c0.1-0.1,0.1-0.2,0.1-0.2C12,3.2,12,3.3,12,3.4z"/>
				<path class="st167" d="M12,3.4c0,0.1,0,0.2,0,0.2C12,3.6,12,3.5,12,3.4C12,3.4,12.1,3.3,12,3.3C12,3.3,12,3.4,12,3.4z"/>
				<path class="st168" d="M12,3.4c0,0.1,0,0.1,0,0.1C12,3.6,12,3.5,12,3.4c0-0.1,0-0.1,0-0.1C12,3.3,12,3.4,12,3.4z"/>
				<path class="st169" d="M12,3.4C12,3.5,12,3.5,12,3.4C12,3.5,12,3.5,12,3.4C12,3.4,12,3.4,12,3.4C12,3.4,12,3.4,12,3.4z"/>
				<path class="st170" d="M12,3.4C12,3.5,12,3.5,12,3.4C12,3.5,12,3.5,12,3.4C12,3.4,12,3.4,12,3.4C12,3.4,12,3.4,12,3.4z"/>
			</g>
		</g>
		
			<linearGradient id="SVGID_6_" gradientUnits="userSpaceOnUse" x1="-161.4064" y1="5.9748" x2="-161.4064" y2="5.3221" gradientTransform="matrix(-1 0 0 1 -149.7402 0)">
			<stop  offset="0" style="stop-color:#CCCCCC"/>
			<stop  offset="1" style="stop-color:#FFFFFF"/>
		</linearGradient>
		<path class="st171" d="M12.1,6l-0.9,0.1c0,0,0-0.5,0.1-1h0.9L12.1,6z"/>
		<linearGradient id="SVGID_7_" gradientUnits="userSpaceOnUse" x1="20.7372" y1="5.9748" x2="20.7372" y2="5.3221">
			<stop  offset="0" style="stop-color:#CCCCCC"/>
			<stop  offset="1" style="stop-color:#FFFFFF"/>
		</linearGradient>
		<path class="st172" d="M20.3,6l0.9,0.1c0,0,0-0.5-0.1-1h-0.9L20.3,6z"/>
		
			<linearGradient id="SVGID_8_" gradientUnits="userSpaceOnUse" x1="19.1181" y1="3.7649" x2="28.6779" y2="3.7649" gradientTransform="matrix(0.9156 0 0 1 -5.6793 0)">
			<stop  offset="0" style="stop-color:#F29D0A"/>
			<stop  offset="7.446463e-02" style="stop-color:#F8B014"/>
			<stop  offset="0.1636" style="stop-color:#FCBD1B"/>
			<stop  offset="0.2742" style="stop-color:#FEC620"/>
			<stop  offset="0.4691" style="stop-color:#FFC821"/>
			<stop  offset="0.7735" style="stop-color:#FECA20"/>
			<stop  offset="0.9046" style="stop-color:#F9D11D"/>
			<stop  offset="0.9322" style="stop-color:#F7D41C"/>
			<stop  offset="1" style="stop-color:#F0D800"/>
		</linearGradient>
		<path class="st173" d="M11.8,6.1l1.1-4c0.1-0.3,0.5-0.6,0.8-0.6h5c0.4,0,0.7,0.3,0.8,0.6l1.1,4H11.8z"/>
		<g>
			<g>
				<path d="M11.8,6C11.8,6,11.8,6,11.8,6l-0.8-0.2c0,0,0,0,0,0c0,0,0,0,0,0L11.8,6C11.9,5.9,11.9,5.9,11.8,6C11.9,6,11.8,6,11.8,6z
					"/>
			</g>
			<g>
				<path d="M11.9,6C11.9,6,11.9,6,11.9,6l-0.7-0.4c0,0,0-0.1,0-0.1c0,0,0.1,0,0.1,0l0.6,0.4C12,5.9,12,5.9,11.9,6
					C12,6,11.9,6,11.9,6z"/>
			</g>
			
				<radialGradient id="SVGID_9_" cx="10.6712" cy="17005.0254" r="0.8097" gradientTransform="matrix(1 0 0 0.3249 0 -5519.5684)" gradientUnits="userSpaceOnUse">
				<stop  offset="0" style="stop-color:#F7D41C"/>
				<stop  offset="0.3339" style="stop-color:#E9B720"/>
				<stop  offset="1" style="stop-color:#CA722A"/>
			</radialGradient>
			<path class="st174" d="M11.3,5.4c0,0.1-0.1,0.4-0.2,0.4h-0.9c-0.1,0-0.2-0.3-0.2-0.4c0,0,0.1,0,0.2,0h0.9
				C11.2,5.4,11.3,5.4,11.3,5.4z"/>
			<linearGradient id="SVGID_10_" gradientUnits="userSpaceOnUse" x1="10.0811" y1="5.7195" x2="11.2483" y2="5.7195">
				<stop  offset="0" style="stop-color:#363B39"/>
				<stop  offset="1" style="stop-color:#1B1C1C"/>
			</linearGradient>
			<path class="st175" d="M10.1,5.7c0,0.1,0.1,0.1,0.1,0.1h0.9c0,0,0.1-0.1,0.1-0.1H10.1z"/>
		</g>
		<g>
			<g>
				<path d="M20.6,6C20.6,6,20.6,6,20.6,6C20.6,5.9,20.6,5.9,20.6,6l0.7-0.3c0,0,0,0,0,0c0,0,0,0,0,0L20.6,6C20.6,6,20.6,6,20.6,6z"
					/>
			</g>
			<g>
				<path d="M20.5,6C20.5,6,20.5,6,20.5,6c-0.1-0.1-0.1-0.1,0-0.1l0.6-0.4c0,0,0.1,0,0.1,0c0,0,0,0.1,0,0.1L20.5,6
					C20.6,6,20.6,6,20.5,6z"/>
			</g>
			
				<radialGradient id="SVGID_11_" cx="-182.7896" cy="17005.0254" r="0.8097" gradientTransform="matrix(-1 0 0 0.3249 -161.0146 -5519.5684)" gradientUnits="userSpaceOnUse">
				<stop  offset="0" style="stop-color:#F7D41C"/>
				<stop  offset="0.3339" style="stop-color:#E9B720"/>
				<stop  offset="1" style="stop-color:#CA722A"/>
			</radialGradient>
			<path class="st176" d="M21.1,5.4c0,0.1,0.1,0.4,0.2,0.4h0.9c0.1,0,0.2-0.3,0.2-0.4c0,0-0.1,0-0.2,0h-0.9
				C21.2,5.4,21.1,5.4,21.1,5.4z"/>
			
				<linearGradient id="SVGID_12_" gradientUnits="userSpaceOnUse" x1="-183.3797" y1="5.7195" x2="-182.2125" y2="5.7195" gradientTransform="matrix(-1 0 0 1 -161.0146 0)">
				<stop  offset="0" style="stop-color:#363B39"/>
				<stop  offset="1" style="stop-color:#1B1C1C"/>
			</linearGradient>
			<path class="st177" d="M22.4,5.7c0,0.1-0.1,0.1-0.1,0.1h-0.9c0,0-0.1-0.1-0.1-0.1H22.4z"/>
		</g>
		<g>
			<image style="overflow:visible;" width="3" height="7" xlink:href="533070DF.png"  transform="matrix(1 0 0 1 18 1)">
			</image>
		</g>
		<g>
			<path class="st178" d="M12.4,5.9C12.4,5.9,12.4,5.9,12.4,5.9C12.4,5.9,12.4,5.8,12.4,5.9c0.2-2.2,1.3-4.4,1.3-4.4c0,0,0,0,0,0
				c0,0,0,0,0,0C13.7,1.5,12.7,3.7,12.4,5.9C12.5,5.8,12.4,5.9,12.4,5.9z"/>
		</g>
		<g>
			<path class="st178" d="M20,5.9C20,5.9,19.9,5.8,20,5.9c-0.3-2.1-1.3-4.3-1.3-4.4c0,0,0,0,0,0c0,0,0,0,0,0
				C18.7,1.5,19.8,3.7,20,5.9C20,5.8,20,5.9,20,5.9C20,5.9,20,5.9,20,5.9z"/>
		</g>
		<linearGradient id="SVGID_13_" gradientUnits="userSpaceOnUse" x1="16.2017" y1="5.7064" x2="16.2017" y2="4.2223">
			<stop  offset="0" style="stop-color:#363B39"/>
			<stop  offset="1" style="stop-color:#1B1C1C"/>
		</linearGradient>
		<path class="st179" d="M20.6,6c-1.5-0.1-3.1-0.2-4.4-0.2c-1.3,0-3,0.2-4.4,0.2c0.4-0.1,0.4-0.8,0.8-0.9c1.9-0.2,5.2-0.2,7.1,0
			C20.1,5.2,20.2,5.9,20.6,6z"/>
		<g>
			<image style="overflow:visible;" width="4" height="7" xlink:href="533070DA.png"  transform="matrix(1 0 0 1 11 1)">
			</image>
		</g>
		<linearGradient id="SVGID_14_" gradientUnits="userSpaceOnUse" x1="16.1743" y1="30.1811" x2="16.1743" y2="31.8615">
			<stop  offset="0" style="stop-color:#F29D0A"/>
			<stop  offset="6.845593e-03" style="stop-color:#F29C0A"/>
			<stop  offset="0.1703" style="stop-color:#EA8805"/>
			<stop  offset="0.3578" style="stop-color:#E47B02"/>
			<stop  offset="0.5902" style="stop-color:#E17201"/>
			<stop  offset="1" style="stop-color:#E07000"/>
		</linearGradient>
		<path class="st180" d="M11.3,30.6c0.1,0.2,0.3,0.3,0.5,0.3h8.8c0.2,0,0.4-0.1,0.5-0.2c-0.6-0.3-2.6-0.5-5-0.5
			C13.9,30.1,12,30.3,11.3,30.6z"/>
		<linearGradient id="SVGID_15_" gradientUnits="userSpaceOnUse" x1="11.157" y1="18.2075" x2="21.2464" y2="18.2075">
			<stop  offset="0" style="stop-color:#CA722A"/>
			<stop  offset="5.595675e-02" style="stop-color:#E4981F"/>
			<stop  offset="0.1059" style="stop-color:#F9B517"/>
			<stop  offset="0.1657" style="stop-color:#FCBD1B"/>
			<stop  offset="0.2755" style="stop-color:#FEC620"/>
			<stop  offset="0.4691" style="stop-color:#FFC821"/>
			<stop  offset="0.7564" style="stop-color:#FECA20"/>
			<stop  offset="0.88" style="stop-color:#F9D11D"/>
			<stop  offset="0.9061" style="stop-color:#F7D41C"/>
			<stop  offset="0.9182" style="stop-color:#F6CF16"/>
			<stop  offset="0.9647" style="stop-color:#F1C106"/>
			<stop  offset="1" style="stop-color:#F0BC00"/>
		</linearGradient>
		<path class="st181" d="M21.2,6.1c0-0.3-2.3-0.3-5-0.3c-2.8,0-5,0.1-5,0.3v24.2c0,0.1,0.1,0.3,0.1,0.4c0.7-0.3,2.6-0.5,4.8-0.5
			c2.4,0,4.4,0.2,5,0.5c0.1-0.1,0.2-0.3,0.2-0.5V6.1z"/>
		<linearGradient id="SVGID_16_" gradientUnits="userSpaceOnUse" x1="16.2017" y1="5.7227" x2="16.2017" y2="5.9193">
			<stop  offset="0" style="stop-color:#CA722A"/>
			<stop  offset="0.2709" style="stop-color:#DCA273"/>
			<stop  offset="0.5221" style="stop-color:#EBCAAF"/>
			<stop  offset="0.7341" style="stop-color:#F6E7DA"/>
			<stop  offset="0.8987" style="stop-color:#FDF8F5"/>
			<stop  offset="0.9958" style="stop-color:#FFFFFF"/>
		</linearGradient>
		<path class="st182" d="M16.2,5.7c-2.8,0-5,0.1-5,0.3v0.2c0-0.3,2.3-0.3,5-0.3c2.8,0,5,0.1,5,0.3V6.1C21.2,5.8,19,5.7,16.2,5.7z"/>
		<g>
			<g>
				<linearGradient id="SVGID_17_" gradientUnits="userSpaceOnUse" x1="14.6049" y1="11.6078" x2="17.5933" y2="11.6078">
					<stop  offset="0" style="stop-color:#C27527"/>
					<stop  offset="0.1213" style="stop-color:#C98226"/>
					<stop  offset="0.3436" style="stop-color:#DCA322"/>
					<stop  offset="0.6186" style="stop-color:#F7D41C"/>
					<stop  offset="1" style="stop-color:#F0D800"/>
				</linearGradient>
				<path class="st183" d="M15.2,13.5c-0.3,0-0.6-0.3-0.6-0.6v-2.6c0-0.3,0.3-0.6,0.6-0.6H17c0.3,0,0.6,0.3,0.6,0.6v2.6
					c0,0.3-0.3,0.6-0.6,0.6H15.2z"/>
				<linearGradient id="SVGID_18_" gradientUnits="userSpaceOnUse" x1="14.6227" y1="11.6078" x2="17.5754" y2="11.6078">
					<stop  offset="0" style="stop-color:#C67924"/>
					<stop  offset="0.1983" style="stop-color:#D49122"/>
					<stop  offset="0.4691" style="stop-color:#EAB91F"/>
					<stop  offset="0.5509" style="stop-color:#EBBB1F"/>
					<stop  offset="0.5861" style="stop-color:#EFC21E"/>
					<stop  offset="0.6123" style="stop-color:#F6CF1C"/>
					<stop  offset="0.6186" style="stop-color:#F8D31C"/>
					<stop  offset="0.9322" style="stop-color:#F2D707"/>
					<stop  offset="1" style="stop-color:#F0D800"/>
				</linearGradient>
				<path class="st184" d="M15.2,13.5c-0.3,0-0.6-0.3-0.6-0.6v-2.6c0-0.3,0.3-0.6,0.6-0.6H17c0.3,0,0.6,0.3,0.6,0.6v2.6
					c0,0.3-0.3,0.6-0.6,0.6H15.2z"/>
				<linearGradient id="SVGID_19_" gradientUnits="userSpaceOnUse" x1="14.6407" y1="11.6078" x2="17.5575" y2="11.6078">
					<stop  offset="0" style="stop-color:#CB7C22"/>
					<stop  offset="0.4691" style="stop-color:#ECBB1F"/>
					<stop  offset="0.5533" style="stop-color:#EDBD1F"/>
					<stop  offset="0.5896" style="stop-color:#F1C41E"/>
					<stop  offset="0.6166" style="stop-color:#F7D11D"/>
					<stop  offset="0.6186" style="stop-color:#F8D21D"/>
					<stop  offset="0.9322" style="stop-color:#F2D609"/>
					<stop  offset="1" style="stop-color:#F0D800"/>
				</linearGradient>
				<path class="st185" d="M15.2,13.5c-0.3,0-0.6-0.2-0.6-0.6v-2.6c0-0.3,0.2-0.6,0.6-0.6H17c0.3,0,0.6,0.2,0.6,0.6v2.6
					c0,0.3-0.2,0.6-0.6,0.6H15.2z"/>
				<linearGradient id="SVGID_20_" gradientUnits="userSpaceOnUse" x1="14.6586" y1="11.6078" x2="17.5396" y2="11.6078">
					<stop  offset="0" style="stop-color:#CF801F"/>
					<stop  offset="0.2241" style="stop-color:#DF9F20"/>
					<stop  offset="0.4691" style="stop-color:#EEBC20"/>
					<stop  offset="0.5552" style="stop-color:#EFBE20"/>
					<stop  offset="0.5922" style="stop-color:#F3C51F"/>
					<stop  offset="0.6186" style="stop-color:#F9D11D"/>
					<stop  offset="0.9322" style="stop-color:#F3D60B"/>
					<stop  offset="1" style="stop-color:#F0D800"/>
				</linearGradient>
				<path class="st186" d="M15.2,13.4c-0.3,0-0.5-0.2-0.5-0.5v-2.6c0-0.3,0.2-0.5,0.5-0.5H17c0.3,0,0.5,0.2,0.5,0.5v2.6
					c0,0.3-0.2,0.5-0.5,0.5H15.2z"/>
				<linearGradient id="SVGID_21_" gradientUnits="userSpaceOnUse" x1="14.6765" y1="11.6078" x2="17.5216" y2="11.6078">
					<stop  offset="0" style="stop-color:#D3841C"/>
					<stop  offset="5.381495e-02" style="stop-color:#D78C1D"/>
					<stop  offset="0.3247" style="stop-color:#E9B01F"/>
					<stop  offset="0.4691" style="stop-color:#F0BE20"/>
					<stop  offset="0.5584" style="stop-color:#F1C020"/>
					<stop  offset="0.5968" style="stop-color:#F5C71F"/>
					<stop  offset="0.6186" style="stop-color:#FAD01E"/>
					<stop  offset="0.9322" style="stop-color:#F3D60D"/>
					<stop  offset="1" style="stop-color:#F0D800"/>
				</linearGradient>
				<path class="st187" d="M15.2,13.4c-0.3,0-0.5-0.2-0.5-0.5v-2.6c0-0.3,0.2-0.5,0.5-0.5H17c0.3,0,0.5,0.2,0.5,0.5v2.6
					c0,0.3-0.2,0.5-0.5,0.5H15.2z"/>
				<linearGradient id="SVGID_22_" gradientUnits="userSpaceOnUse" x1="14.6944" y1="11.6078" x2="17.5039" y2="11.6078">
					<stop  offset="0" style="stop-color:#D8871A"/>
					<stop  offset="0.1519" style="stop-color:#E39E1C"/>
					<stop  offset="0.348" style="stop-color:#EEB61F"/>
					<stop  offset="0.4691" style="stop-color:#F2BF20"/>
					<stop  offset="0.5609" style="stop-color:#F3C120"/>
					<stop  offset="0.6004" style="stop-color:#F7C81F"/>
					<stop  offset="0.6186" style="stop-color:#FBCF1E"/>
					<stop  offset="0.9322" style="stop-color:#F4D60F"/>
					<stop  offset="1" style="stop-color:#F0D800"/>
				</linearGradient>
				<path class="st188" d="M15.2,13.4c-0.3,0-0.5-0.2-0.5-0.5v-2.6c0-0.3,0.2-0.5,0.5-0.5H17c0.3,0,0.5,0.2,0.5,0.5v2.6
					c0,0.3-0.2,0.5-0.5,0.5H15.2z"/>
				<linearGradient id="SVGID_23_" gradientUnits="userSpaceOnUse" x1="14.7123" y1="11.6078" x2="17.486" y2="11.6078">
					<stop  offset="0" style="stop-color:#DC8B17"/>
					<stop  offset="0.189" style="stop-color:#EAA81C"/>
					<stop  offset="0.3522" style="stop-color:#F2BB1F"/>
					<stop  offset="0.4691" style="stop-color:#F5C120"/>
					<stop  offset="0.5674" style="stop-color:#F6C320"/>
					<stop  offset="0.6097" style="stop-color:#FACA1F"/>
					<stop  offset="0.6186" style="stop-color:#FBCD1F"/>
					<stop  offset="0.9322" style="stop-color:#F4D512"/>
					<stop  offset="1" style="stop-color:#F0D800"/>
				</linearGradient>
				<path class="st189" d="M15.2,13.4c-0.3,0-0.5-0.2-0.5-0.5v-2.6c0-0.3,0.2-0.5,0.5-0.5H17c0.3,0,0.5,0.2,0.5,0.5v2.6
					c0,0.3-0.2,0.5-0.5,0.5H15.2z"/>
				<linearGradient id="SVGID_24_" gradientUnits="userSpaceOnUse" x1="14.7303" y1="11.6077" x2="17.468" y2="11.6077">
					<stop  offset="0" style="stop-color:#E18E15"/>
					<stop  offset="4.626141e-02" style="stop-color:#E59717"/>
					<stop  offset="0.2026" style="stop-color:#EFAE1C"/>
					<stop  offset="0.3475" style="stop-color:#F5BD1F"/>
					<stop  offset="0.4691" style="stop-color:#F7C220"/>
					<stop  offset="0.5718" style="stop-color:#F8C420"/>
					<stop  offset="0.6159" style="stop-color:#FCCB1F"/>
					<stop  offset="0.6186" style="stop-color:#FCCC1F"/>
					<stop  offset="0.9322" style="stop-color:#F5D514"/>
					<stop  offset="1" style="stop-color:#F0D800"/>
				</linearGradient>
				<path class="st190" d="M15.2,13.4c-0.3,0-0.5-0.2-0.5-0.5v-2.6c0-0.3,0.2-0.5,0.5-0.5H17c0.3,0,0.5,0.2,0.5,0.5v2.6
					c0,0.3-0.2,0.5-0.5,0.5H15.2z"/>
				<linearGradient id="SVGID_25_" gradientUnits="userSpaceOnUse" x1="14.748" y1="11.6077" x2="17.4501" y2="11.6077">
					<stop  offset="0" style="stop-color:#E59212"/>
					<stop  offset="6.973820e-02" style="stop-color:#EAA016"/>
					<stop  offset="0.2035" style="stop-color:#F3B41B"/>
					<stop  offset="0.337" style="stop-color:#F7C01F"/>
					<stop  offset="0.4691" style="stop-color:#F9C420"/>
					<stop  offset="0.5808" style="stop-color:#FAC620"/>
					<stop  offset="0.6186" style="stop-color:#FDCB20"/>
					<stop  offset="0.9322" style="stop-color:#F5D516"/>
					<stop  offset="1" style="stop-color:#F0D800"/>
				</linearGradient>
				<path class="st191" d="M15.2,13.4c-0.2,0-0.4-0.2-0.4-0.4v-2.6c0-0.2,0.2-0.4,0.4-0.4H17c0.2,0,0.4,0.2,0.4,0.4v2.6
					c0,0.2-0.2,0.4-0.4,0.4H15.2z"/>
				<linearGradient id="SVGID_26_" gradientUnits="userSpaceOnUse" x1="14.766" y1="11.6078" x2="17.4322" y2="11.6078">
					<stop  offset="0" style="stop-color:#E9960F"/>
					<stop  offset="7.625563e-02" style="stop-color:#EFA615"/>
					<stop  offset="0.1939" style="stop-color:#F6B71C"/>
					<stop  offset="0.3202" style="stop-color:#FAC220"/>
					<stop  offset="0.4691" style="stop-color:#FBC521"/>
					<stop  offset="0.5901" style="stop-color:#FCC721"/>
					<stop  offset="0.6186" style="stop-color:#FECA20"/>
					<stop  offset="0.9322" style="stop-color:#F6D518"/>
					<stop  offset="1" style="stop-color:#F0D800"/>
				</linearGradient>
				<path class="st192" d="M15.2,13.3c-0.2,0-0.4-0.2-0.4-0.4v-2.6c0-0.2,0.2-0.4,0.4-0.4H17c0.2,0,0.4,0.2,0.4,0.4v2.6
					c0,0.2-0.2,0.4-0.4,0.4H15.2z"/>
				<linearGradient id="SVGID_27_" gradientUnits="userSpaceOnUse" x1="14.7839" y1="11.6078" x2="17.4143" y2="11.6078">
					<stop  offset="0" style="stop-color:#EE990D"/>
					<stop  offset="8.143493e-02" style="stop-color:#F4AC15"/>
					<stop  offset="0.1835" style="stop-color:#F9BB1C"/>
					<stop  offset="0.3012" style="stop-color:#FCC420"/>
					<stop  offset="0.4691" style="stop-color:#FDC721"/>
					<stop  offset="0.6186" style="stop-color:#FEC921"/>
					<stop  offset="0.9322" style="stop-color:#F6D41A"/>
					<stop  offset="1" style="stop-color:#F0D800"/>
				</linearGradient>
				<path class="st193" d="M15.2,13.3c-0.2,0-0.4-0.2-0.4-0.4v-2.6c0-0.2,0.2-0.4,0.4-0.4H17c0.2,0,0.4,0.2,0.4,0.4v2.6
					c0,0.2-0.2,0.4-0.4,0.4H15.2z"/>
				<linearGradient id="SVGID_28_" gradientUnits="userSpaceOnUse" x1="14.8018" y1="11.6078" x2="17.3964" y2="11.6078">
					<stop  offset="0" style="stop-color:#F29D0A"/>
					<stop  offset="7.446463e-02" style="stop-color:#F8B014"/>
					<stop  offset="0.1636" style="stop-color:#FCBD1B"/>
					<stop  offset="0.2742" style="stop-color:#FEC620"/>
					<stop  offset="0.4691" style="stop-color:#FFC821"/>
					<stop  offset="0.7735" style="stop-color:#FECA20"/>
					<stop  offset="0.9046" style="stop-color:#F9D11D"/>
					<stop  offset="0.9322" style="stop-color:#F7D41C"/>
					<stop  offset="1" style="stop-color:#F0D800"/>
				</linearGradient>
				<path class="st194" d="M17,13.3h-1.8c-0.2,0-0.4-0.2-0.4-0.4v-2.6c0-0.2,0.2-0.4,0.4-0.4H17c0.2,0,0.4,0.2,0.4,0.4v2.6
					C17.4,13.1,17.2,13.3,17,13.3z"/>
			</g>
			<linearGradient id="SVGID_29_" gradientUnits="userSpaceOnUse" x1="14.8018" y1="11.6078" x2="17.3964" y2="11.6078">
				<stop  offset="0" style="stop-color:#F29D0A"/>
				<stop  offset="7.446463e-02" style="stop-color:#F8B014"/>
				<stop  offset="0.1636" style="stop-color:#FCBD1B"/>
				<stop  offset="0.2742" style="stop-color:#FEC620"/>
				<stop  offset="0.4691" style="stop-color:#FFC821"/>
				<stop  offset="0.7735" style="stop-color:#FECA20"/>
				<stop  offset="0.9046" style="stop-color:#F9D11D"/>
				<stop  offset="0.9322" style="stop-color:#F7D41C"/>
				<stop  offset="1" style="stop-color:#F0D800"/>
			</linearGradient>
			<path class="st195" d="M17,13.3h-1.8c-0.2,0-0.4-0.2-0.4-0.4v-2.6c0-0.2,0.2-0.4,0.4-0.4H17c0.2,0,0.4,0.2,0.4,0.4v2.6
				C17.4,13.1,17.2,13.3,17,13.3z"/>
		</g>
		<g>
			<g>
				<linearGradient id="SVGID_30_" gradientUnits="userSpaceOnUse" x1="14.6049" y1="25.0761" x2="17.5933" y2="25.0761">
					<stop  offset="0" style="stop-color:#C27527"/>
					<stop  offset="0.1213" style="stop-color:#C98226"/>
					<stop  offset="0.3436" style="stop-color:#DCA322"/>
					<stop  offset="0.6186" style="stop-color:#F7D41C"/>
					<stop  offset="1" style="stop-color:#F0D800"/>
				</linearGradient>
				<path class="st196" d="M15.2,27c-0.3,0-0.6-0.3-0.6-0.6v-2.6c0-0.3,0.3-0.6,0.6-0.6H17c0.3,0,0.6,0.3,0.6,0.6v2.6
					c0,0.3-0.3,0.6-0.6,0.6H15.2z"/>
				<linearGradient id="SVGID_31_" gradientUnits="userSpaceOnUse" x1="14.6227" y1="25.0761" x2="17.5754" y2="25.0761">
					<stop  offset="0" style="stop-color:#C67924"/>
					<stop  offset="0.1983" style="stop-color:#D49122"/>
					<stop  offset="0.4691" style="stop-color:#EAB91F"/>
					<stop  offset="0.5509" style="stop-color:#EBBB1F"/>
					<stop  offset="0.5861" style="stop-color:#EFC21E"/>
					<stop  offset="0.6123" style="stop-color:#F6CF1C"/>
					<stop  offset="0.6186" style="stop-color:#F8D31C"/>
					<stop  offset="0.9322" style="stop-color:#F2D707"/>
					<stop  offset="1" style="stop-color:#F0D800"/>
				</linearGradient>
				<path class="st197" d="M15.2,26.9c-0.3,0-0.6-0.3-0.6-0.6v-2.6c0-0.3,0.3-0.6,0.6-0.6H17c0.3,0,0.6,0.3,0.6,0.6v2.6
					c0,0.3-0.3,0.6-0.6,0.6H15.2z"/>
				<linearGradient id="SVGID_32_" gradientUnits="userSpaceOnUse" x1="14.6407" y1="25.0761" x2="17.5575" y2="25.0761">
					<stop  offset="0" style="stop-color:#CB7C22"/>
					<stop  offset="0.4691" style="stop-color:#ECBB1F"/>
					<stop  offset="0.5533" style="stop-color:#EDBD1F"/>
					<stop  offset="0.5896" style="stop-color:#F1C41E"/>
					<stop  offset="0.6166" style="stop-color:#F7D11D"/>
					<stop  offset="0.6186" style="stop-color:#F8D21D"/>
					<stop  offset="0.9322" style="stop-color:#F2D609"/>
					<stop  offset="1" style="stop-color:#F0D800"/>
				</linearGradient>
				<path class="st198" d="M15.2,26.9c-0.3,0-0.6-0.2-0.6-0.6v-2.6c0-0.3,0.2-0.6,0.6-0.6H17c0.3,0,0.6,0.2,0.6,0.6v2.6
					c0,0.3-0.2,0.6-0.6,0.6H15.2z"/>
				<linearGradient id="SVGID_33_" gradientUnits="userSpaceOnUse" x1="14.6586" y1="25.076" x2="17.5396" y2="25.076">
					<stop  offset="0" style="stop-color:#CF801F"/>
					<stop  offset="0.2241" style="stop-color:#DF9F20"/>
					<stop  offset="0.4691" style="stop-color:#EEBC20"/>
					<stop  offset="0.5552" style="stop-color:#EFBE20"/>
					<stop  offset="0.5922" style="stop-color:#F3C51F"/>
					<stop  offset="0.6186" style="stop-color:#F9D11D"/>
					<stop  offset="0.9322" style="stop-color:#F3D60B"/>
					<stop  offset="1" style="stop-color:#F0D800"/>
				</linearGradient>
				<path class="st199" d="M15.2,26.9c-0.3,0-0.5-0.2-0.5-0.5v-2.6c0-0.3,0.2-0.5,0.5-0.5H17c0.3,0,0.5,0.2,0.5,0.5v2.6
					c0,0.3-0.2,0.5-0.5,0.5H15.2z"/>
				<linearGradient id="SVGID_34_" gradientUnits="userSpaceOnUse" x1="14.6765" y1="25.0761" x2="17.5216" y2="25.0761">
					<stop  offset="0" style="stop-color:#D3841C"/>
					<stop  offset="5.381495e-02" style="stop-color:#D78C1D"/>
					<stop  offset="0.3247" style="stop-color:#E9B01F"/>
					<stop  offset="0.4691" style="stop-color:#F0BE20"/>
					<stop  offset="0.5584" style="stop-color:#F1C020"/>
					<stop  offset="0.5968" style="stop-color:#F5C71F"/>
					<stop  offset="0.6186" style="stop-color:#FAD01E"/>
					<stop  offset="0.9322" style="stop-color:#F3D60D"/>
					<stop  offset="1" style="stop-color:#F0D800"/>
				</linearGradient>
				<path class="st200" d="M15.2,26.9c-0.3,0-0.5-0.2-0.5-0.5v-2.6c0-0.3,0.2-0.5,0.5-0.5H17c0.3,0,0.5,0.2,0.5,0.5v2.6
					c0,0.3-0.2,0.5-0.5,0.5H15.2z"/>
				<linearGradient id="SVGID_35_" gradientUnits="userSpaceOnUse" x1="14.6944" y1="25.0761" x2="17.5039" y2="25.0761">
					<stop  offset="0" style="stop-color:#D8871A"/>
					<stop  offset="0.1519" style="stop-color:#E39E1C"/>
					<stop  offset="0.348" style="stop-color:#EEB61F"/>
					<stop  offset="0.4691" style="stop-color:#F2BF20"/>
					<stop  offset="0.5609" style="stop-color:#F3C120"/>
					<stop  offset="0.6004" style="stop-color:#F7C81F"/>
					<stop  offset="0.6186" style="stop-color:#FBCF1E"/>
					<stop  offset="0.9322" style="stop-color:#F4D60F"/>
					<stop  offset="1" style="stop-color:#F0D800"/>
				</linearGradient>
				<path class="st201" d="M15.2,26.9c-0.3,0-0.5-0.2-0.5-0.5v-2.6c0-0.3,0.2-0.5,0.5-0.5H17c0.3,0,0.5,0.2,0.5,0.5v2.6
					c0,0.3-0.2,0.5-0.5,0.5H15.2z"/>
				<linearGradient id="SVGID_36_" gradientUnits="userSpaceOnUse" x1="14.7123" y1="25.0761" x2="17.486" y2="25.0761">
					<stop  offset="0" style="stop-color:#DC8B17"/>
					<stop  offset="0.189" style="stop-color:#EAA81C"/>
					<stop  offset="0.3522" style="stop-color:#F2BB1F"/>
					<stop  offset="0.4691" style="stop-color:#F5C120"/>
					<stop  offset="0.5674" style="stop-color:#F6C320"/>
					<stop  offset="0.6097" style="stop-color:#FACA1F"/>
					<stop  offset="0.6186" style="stop-color:#FBCD1F"/>
					<stop  offset="0.9322" style="stop-color:#F4D512"/>
					<stop  offset="1" style="stop-color:#F0D800"/>
				</linearGradient>
				<path class="st202" d="M15.2,26.9c-0.3,0-0.5-0.2-0.5-0.5v-2.6c0-0.3,0.2-0.5,0.5-0.5H17c0.3,0,0.5,0.2,0.5,0.5v2.6
					c0,0.3-0.2,0.5-0.5,0.5H15.2z"/>
				<linearGradient id="SVGID_37_" gradientUnits="userSpaceOnUse" x1="14.7303" y1="25.0761" x2="17.468" y2="25.0761">
					<stop  offset="0" style="stop-color:#E18E15"/>
					<stop  offset="4.626141e-02" style="stop-color:#E59717"/>
					<stop  offset="0.2026" style="stop-color:#EFAE1C"/>
					<stop  offset="0.3475" style="stop-color:#F5BD1F"/>
					<stop  offset="0.4691" style="stop-color:#F7C220"/>
					<stop  offset="0.5718" style="stop-color:#F8C420"/>
					<stop  offset="0.6159" style="stop-color:#FCCB1F"/>
					<stop  offset="0.6186" style="stop-color:#FCCC1F"/>
					<stop  offset="0.9322" style="stop-color:#F5D514"/>
					<stop  offset="1" style="stop-color:#F0D800"/>
				</linearGradient>
				<path class="st203" d="M15.2,26.8c-0.3,0-0.5-0.2-0.5-0.5v-2.6c0-0.3,0.2-0.5,0.5-0.5H17c0.3,0,0.5,0.2,0.5,0.5v2.6
					c0,0.3-0.2,0.5-0.5,0.5H15.2z"/>
				<linearGradient id="SVGID_38_" gradientUnits="userSpaceOnUse" x1="14.748" y1="25.0761" x2="17.4501" y2="25.0761">
					<stop  offset="0" style="stop-color:#E59212"/>
					<stop  offset="6.973820e-02" style="stop-color:#EAA016"/>
					<stop  offset="0.2035" style="stop-color:#F3B41B"/>
					<stop  offset="0.337" style="stop-color:#F7C01F"/>
					<stop  offset="0.4691" style="stop-color:#F9C420"/>
					<stop  offset="0.5808" style="stop-color:#FAC620"/>
					<stop  offset="0.6186" style="stop-color:#FDCB20"/>
					<stop  offset="0.9322" style="stop-color:#F5D516"/>
					<stop  offset="1" style="stop-color:#F0D800"/>
				</linearGradient>
				<path class="st204" d="M15.2,26.8c-0.2,0-0.4-0.2-0.4-0.4v-2.6c0-0.2,0.2-0.4,0.4-0.4H17c0.2,0,0.4,0.2,0.4,0.4v2.6
					c0,0.2-0.2,0.4-0.4,0.4H15.2z"/>
				<linearGradient id="SVGID_39_" gradientUnits="userSpaceOnUse" x1="14.766" y1="25.0761" x2="17.4322" y2="25.0761">
					<stop  offset="0" style="stop-color:#E9960F"/>
					<stop  offset="7.625563e-02" style="stop-color:#EFA615"/>
					<stop  offset="0.1939" style="stop-color:#F6B71C"/>
					<stop  offset="0.3202" style="stop-color:#FAC220"/>
					<stop  offset="0.4691" style="stop-color:#FBC521"/>
					<stop  offset="0.5901" style="stop-color:#FCC721"/>
					<stop  offset="0.6186" style="stop-color:#FECA20"/>
					<stop  offset="0.9322" style="stop-color:#F6D518"/>
					<stop  offset="1" style="stop-color:#F0D800"/>
				</linearGradient>
				<path class="st205" d="M15.2,26.8c-0.2,0-0.4-0.2-0.4-0.4v-2.6c0-0.2,0.2-0.4,0.4-0.4H17c0.2,0,0.4,0.2,0.4,0.4v2.6
					c0,0.2-0.2,0.4-0.4,0.4H15.2z"/>
				<linearGradient id="SVGID_40_" gradientUnits="userSpaceOnUse" x1="14.7839" y1="25.0761" x2="17.4143" y2="25.0761">
					<stop  offset="0" style="stop-color:#EE990D"/>
					<stop  offset="8.143493e-02" style="stop-color:#F4AC15"/>
					<stop  offset="0.1835" style="stop-color:#F9BB1C"/>
					<stop  offset="0.3012" style="stop-color:#FCC420"/>
					<stop  offset="0.4691" style="stop-color:#FDC721"/>
					<stop  offset="0.6186" style="stop-color:#FEC921"/>
					<stop  offset="0.9322" style="stop-color:#F6D41A"/>
					<stop  offset="1" style="stop-color:#F0D800"/>
				</linearGradient>
				<path class="st206" d="M15.2,26.8c-0.2,0-0.4-0.2-0.4-0.4v-2.6c0-0.2,0.2-0.4,0.4-0.4H17c0.2,0,0.4,0.2,0.4,0.4v2.6
					c0,0.2-0.2,0.4-0.4,0.4H15.2z"/>
				<linearGradient id="SVGID_41_" gradientUnits="userSpaceOnUse" x1="14.8018" y1="25.0761" x2="17.3964" y2="25.0761">
					<stop  offset="0" style="stop-color:#F29D0A"/>
					<stop  offset="7.446463e-02" style="stop-color:#F8B014"/>
					<stop  offset="0.1636" style="stop-color:#FCBD1B"/>
					<stop  offset="0.2742" style="stop-color:#FEC620"/>
					<stop  offset="0.4691" style="stop-color:#FFC821"/>
					<stop  offset="0.7735" style="stop-color:#FECA20"/>
					<stop  offset="0.9046" style="stop-color:#F9D11D"/>
					<stop  offset="0.9322" style="stop-color:#F7D41C"/>
					<stop  offset="1" style="stop-color:#F0D800"/>
				</linearGradient>
				<path class="st207" d="M17,26.8h-1.8c-0.2,0-0.4-0.2-0.4-0.4v-2.6c0-0.2,0.2-0.4,0.4-0.4H17c0.2,0,0.4,0.2,0.4,0.4v2.6
					C17.4,26.6,17.2,26.8,17,26.8z"/>
			</g>
			<linearGradient id="SVGID_42_" gradientUnits="userSpaceOnUse" x1="14.8018" y1="25.0761" x2="17.3964" y2="25.0761">
				<stop  offset="0" style="stop-color:#F29D0A"/>
				<stop  offset="7.446463e-02" style="stop-color:#F8B014"/>
				<stop  offset="0.1636" style="stop-color:#FCBD1B"/>
				<stop  offset="0.2742" style="stop-color:#FEC620"/>
				<stop  offset="0.4691" style="stop-color:#FFC821"/>
				<stop  offset="0.7735" style="stop-color:#FECA20"/>
				<stop  offset="0.9046" style="stop-color:#F9D11D"/>
				<stop  offset="0.9322" style="stop-color:#F7D41C"/>
				<stop  offset="1" style="stop-color:#F0D800"/>
			</linearGradient>
			<path class="st208" d="M17,26.8h-1.8c-0.2,0-0.4-0.2-0.4-0.4v-2.6c0-0.2,0.2-0.4,0.4-0.4H17c0.2,0,0.4,0.2,0.4,0.4v2.6
				C17.4,26.6,17.2,26.8,17,26.8z"/>
		</g>
		<linearGradient id="SVGID_43_" gradientUnits="userSpaceOnUse" x1="11.5111" y1="30.6988" x2="14.1857" y2="30.6988">
			<stop  offset="0" style="stop-color:#363B39"/>
			<stop  offset="1" style="stop-color:#1B1C1C"/>
		</linearGradient>
		<path class="st209" d="M14.1,30.6c0-0.1-0.6-0.2-1.3,0l-1.3,0.2c0.1,0,0.2,0.1,0.3,0.1h2.4C14.2,30.9,14.2,30.8,14.1,30.6z"/>
		
			<linearGradient id="SVGID_44_" gradientUnits="userSpaceOnUse" x1="-162.5854" y1="30.6988" x2="-159.9108" y2="30.6988" gradientTransform="matrix(-1 0 0 1 -141.6875 0)">
			<stop  offset="0" style="stop-color:#363B39"/>
			<stop  offset="1" style="stop-color:#1B1C1C"/>
		</linearGradient>
		<path class="st210" d="M18.3,30.6c0-0.1,0.6-0.2,1.3,0l1.3,0.2c-0.1,0-0.2,0.1-0.3,0.1h-2.4C18.2,30.9,18.2,30.8,18.3,30.6z"/>
		<g>
			<path class="st211" d="M21,30.7c-0.6-0.3-2.6-0.5-4.9-0.5c-2.1,0-4,0.2-4.8,0.5l0-0.1c0.8-0.3,2.7-0.5,4.8-0.5
				C18.4,30.1,20.5,30.3,21,30.7L21,30.7z"/>
		</g>
		<linearGradient id="SVGID_45_" gradientUnits="userSpaceOnUse" x1="16.2017" y1="30.7827" x2="16.2017" y2="31.0228">
			<stop  offset="0" style="stop-color:#363B39"/>
			<stop  offset="1" style="stop-color:#1B1C1C"/>
		</linearGradient>
		<rect x="14.6" y="30.8" class="st212" width="3.2" height="0.1"/>
		<g>
			<path class="st213" d="M15.9,5.7c-0.1,0-0.2,0-0.3,0v0.2h0.3V5.7z"/>
			<path class="st213" d="M16.4,5.7c-0.1,0-0.1,0-0.2,0c-0.1,0-0.1,0-0.2,0v0.2h0.3V5.7z"/>
			<path class="st213" d="M16.5,5.7v0.2h0.3V5.7C16.8,5.7,16.7,5.7,16.5,5.7z"/>
		</g>
		<linearGradient id="SVGID_46_" gradientUnits="userSpaceOnUse" x1="15.445" y1="6.8641" x2="14.4311" y2="5.1615">
			<stop  offset="0" style="stop-color:#3B3B3B"/>
			<stop  offset="1" style="stop-color:#000000"/>
		</linearGradient>
		<path class="st214" d="M16.3,4.9c-0.8,0-1.6,0.1-2.3,0.2c-0.4,0.1-0.8,0.6-1.1,0.8c0.7,0,1.3,0,2-0.1C15.3,5.4,15.8,5.1,16.3,4.9z
			"/>
		<linearGradient id="SVGID_47_" gradientUnits="userSpaceOnUse" x1="16.2017" y1="1.4399" x2="16.2017" y2="1.2716">
			<stop  offset="0" style="stop-color:#363B39"/>
			<stop  offset="1" style="stop-color:#1B1C1C"/>
		</linearGradient>
		<path class="st215" d="M18.9,1.4C18.9,1.4,18.9,1.5,18.9,1.4l-5.4,0.1c0,0-0.1,0-0.1-0.1l0,0c0,0,0-0.1,0.1-0.1L18.9,1.4
			C18.9,1.3,18.9,1.4,18.9,1.4L18.9,1.4z"/>
		<g>
			<path class="st178" d="M11.9,30.1C11.9,30.1,11.9,30.1,11.9,30.1l0-23.8c0,0,0,0,0,0c0,0,0,0,0,0L11.9,30.1
				C11.9,30.1,11.9,30.1,11.9,30.1z"/>
		</g>
		<g>
			<path class="st178" d="M20.5,30.1C20.5,30.1,20.5,30.1,20.5,30.1l0-23.8c0,0,0,0,0,0c0,0,0,0,0,0L20.5,30.1
				C20.5,30.1,20.5,30.1,20.5,30.1z"/>
		</g>
		<g>
			<path d="M19.9,5.4c-1.4-0.3-2.9-0.5-4.4-0.5c0,0,0-0.1,0-0.1c1.6,0,3.1,0.2,4.5,0.5C20,5.3,19.9,5.4,19.9,5.4z"/>
			<path d="M17.1,4.9C17.1,5,16.6,5,16,5c-0.6,0-1.1-0.1-1.1-0.1c0-0.1,0.5-0.1,1.1-0.1C16.6,4.8,17.1,4.8,17.1,4.9z"/>
		</g>
	</g>
</g>
</svg>
