<svg width="45" height="53" viewBox="0 0 45 53" fill="none" xmlns="http://www.w3.org/2000/svg">
<path d="M23.429 50.7051H42.292V38.9366C42.292 37.0563 41.0125 35.324 39.1304 34.7968L23.429 50.7051ZM23.429 50.7051V40.3215C27.6662 39.9564 31.28 37.0371 32.4958 32.9665L39.1298 34.7966L23.429 50.7051ZM33.1465 4.98803L33.1465 4.988L33.1438 4.98704C32.776 4.85833 32.2658 4.54379 31.6665 4.13004C31.3054 3.8807 30.9199 3.60113 30.5209 3.31176C30.2602 3.12267 29.9937 2.9294 29.7245 2.73765C29.047 2.25514 28.357 1.78587 27.7221 1.43696C27.0928 1.09117 26.4942 0.85 26.0054 0.85H18.9946C18.5066 0.85 17.9085 1.08563 17.2789 1.42547C16.6439 1.76827 15.9538 2.2302 15.2761 2.70802C14.9572 2.93286 14.6441 3.15898 14.3398 3.3787C13.991 3.63057 13.6539 3.87404 13.333 4.09753C12.7351 4.51397 12.2235 4.83946 11.8525 4.9884C9.90139 5.69117 8.8983 6.49285 8.64453 7.50634C8.39295 8.47195 8.82026 9.33985 9.46689 10.2314C9.72926 10.5932 10.0336 10.9664 10.3517 11.3566C10.427 11.4489 10.503 11.5421 10.5794 11.6363C10.9717 12.1202 11.3775 12.6343 11.7558 13.1977V13.2526C10.9039 13.3766 10.214 13.9216 9.78834 14.6858C9.3406 15.4897 9.1814 16.5404 9.42241 17.6249C9.73681 19.0397 10.6675 20.0797 11.7743 20.5078C12.4902 24.214 14.4969 27.312 17.0529 29.1214V29.7864L5.40075 33.0274C2.76489 33.7463 0.85 36.2203 0.85 39.0145V51.6341C0.85 51.9018 0.939916 52.1367 1.10815 52.3049C1.27639 52.4731 1.5112 52.563 1.77899 52.563H43.221C43.4888 52.563 43.7236 52.4731 43.8918 52.3049C44.0601 52.1367 44.15 51.9018 44.15 51.6341V38.9366C44.15 36.2192 42.234 33.746 39.5993 33.0274L27.9471 29.7864V29.1214C30.5022 27.3127 32.5082 24.2163 33.2249 20.512C34.8863 19.9487 35.698 18.229 35.698 16.6284C35.698 15.0454 34.8983 13.4869 33.2442 13.2526V13.1982C33.629 12.6328 34.0735 12.0844 34.5103 11.5454C34.6598 11.3609 34.8084 11.1775 34.9534 10.9949C35.526 10.2741 36.0444 9.56341 36.302 8.8714C36.5635 8.1691 36.5601 7.47334 36.0744 6.80867C35.5988 6.15778 34.6737 5.55583 33.1465 4.98803ZM13.5341 19.5948L13.5342 19.5948L13.533 19.5883C13.4897 19.3719 13.4001 19.1839 13.2535 19.0495C13.107 18.9152 12.9164 18.8464 12.6937 18.8446C12.0842 18.7722 11.4983 18.1457 11.2728 17.2463C11.125 16.5788 11.239 15.9781 11.4879 15.5781C11.7363 15.1789 12.1053 14.9925 12.4926 15.0894L12.4926 15.0895L12.4996 15.0909C12.7219 15.1354 12.9709 15.1146 13.1803 15.0098C13.3366 14.9317 13.4693 14.8071 13.548 14.6346C16.4757 16.5593 19.4478 17.4694 22.4435 17.4308C25.437 17.3922 28.4426 16.4063 31.4403 14.5571C31.612 15.0384 32.0926 15.2516 32.5186 15.0863C32.7324 15.0278 32.9097 15.0392 33.0563 15.0951C33.2053 15.152 33.3345 15.2595 33.4414 15.4112C33.6578 15.7183 33.7716 16.1918 33.7622 16.7035C33.7528 17.2131 33.6216 17.7381 33.3731 18.1404C33.1271 18.5387 32.773 18.8085 32.3093 18.8446C31.8261 18.8478 31.5547 19.2369 31.4686 19.5814L31.468 19.5812L31.4659 19.5948C30.6162 25.0793 26.8421 28.9714 22.5 28.9714C18.1579 28.9714 14.3838 25.0793 13.5341 19.5948ZM30.6486 32.4984C28.2694 40.4906 16.7311 40.4959 14.2748 32.498L17.1635 31.723C17.7426 34.5816 20.1264 36.029 22.4896 36.0388C24.8538 36.0486 27.2201 34.6195 27.761 31.7237L30.6486 32.4984ZM10.4491 8.18543C10.4116 8.07783 10.407 8.01075 10.4143 7.97437C10.4419 7.89774 10.534 7.7476 10.8353 7.52847C11.143 7.30464 11.6566 7.01793 12.5073 6.66986C13.3078 6.3495 14.4152 5.55686 15.5771 4.70487C16.1226 4.31522 16.8592 3.79189 17.527 3.36606C17.8612 3.15291 18.1754 2.96604 18.438 2.83296C18.5693 2.7664 18.6852 2.71459 18.7827 2.67973C18.8827 2.64391 18.9523 2.63007 18.9946 2.63007H26.0054C26.0157 2.63007 26.0494 2.6355 26.1155 2.66063C26.1775 2.68419 26.2556 2.72011 26.349 2.76818C26.5355 2.86418 26.7728 3.00321 27.0474 3.17352C27.5961 3.5139 28.2827 3.97241 28.9893 4.4451L29.0548 4.48891C29.7394 4.94692 30.4388 5.4148 31.0412 5.7947C31.6547 6.18161 32.1853 6.48897 32.4984 6.59418C33.4727 6.96455 34.048 7.25725 34.3407 7.53537C34.4831 7.67063 34.549 7.7937 34.5685 7.91237C34.5883 8.03236 34.5643 8.16905 34.4867 8.33762C34.3272 8.68411 33.9723 9.10377 33.4755 9.68566L33.4574 9.70692C32.9814 10.2644 32.3927 10.9539 31.77 11.8337H13.2234C13.0223 11.5878 12.7893 11.3133 12.5444 11.0247C12.164 10.5763 11.7546 10.0939 11.3907 9.63183C11.0851 9.2438 10.8199 8.88008 10.6413 8.57733C10.5519 8.42576 10.487 8.29408 10.4491 8.18543ZM15.82 13.8475H28.9059C26.62 15.0128 24.4053 15.5923 22.2371 15.5923C20.0681 15.5923 17.9374 15.0124 15.82 13.8475ZM22.5 30.8293C23.7702 30.8293 24.9671 30.5477 26.0891 30.12V30.6015C26.0891 31.7868 25.6391 32.6652 24.9719 33.2491C24.3017 33.8355 23.4035 34.1322 22.5 34.1322C21.5965 34.1322 20.6983 33.8355 20.0281 33.2491C19.3609 32.6652 18.9109 31.7868 18.9109 30.6015V30.1321C20.0401 30.6197 21.2375 30.8293 22.5 30.8293ZM2.70797 38.9366C2.70797 36.9799 3.98602 35.3244 5.8696 34.7968L5.87016 34.7966L12.5042 32.9665C13.72 37.0371 17.3338 39.9564 21.571 40.3215V50.7051H2.70797V38.9366Z" fill="white" stroke="white" stroke-width="0.3"/>
<path d="M18.7609 7.77138H26.395C26.6628 7.77138 26.8976 7.68146 27.0658 7.51322C27.234 7.34498 27.324 7.11018 27.324 6.84239C27.324 6.57461 27.234 6.3398 27.0658 6.17156C26.8976 6.00332 26.6628 5.91341 26.395 5.91341H18.7609C18.4931 5.91341 18.2583 6.00332 18.0901 6.17156C17.9218 6.3398 17.8319 6.57461 17.8319 6.84239C17.8319 7.40221 18.2985 7.77138 18.7609 7.77138Z" fill="white" stroke="white" stroke-width="0.3"/>
<path d="M25.5664 25.7999C25.9366 25.4297 25.9366 24.8674 25.5664 24.4972C25.1963 24.127 24.6339 24.127 24.2637 24.4972C23.3096 25.4513 21.7687 25.4513 20.8146 24.4972C20.4444 24.127 19.8821 24.127 19.5119 24.4972C19.1417 24.8674 19.1417 25.4297 19.5119 25.7999C20.3179 26.6059 21.4461 27.0902 22.5781 27.0902C23.7111 27.0902 24.6833 26.683 25.5664 25.7999Z" fill="white" stroke="white" stroke-width="0.3"/>
</svg>
