<svg width="33" height="23" viewBox="0 0 33 23" fill="none" xmlns="http://www.w3.org/2000/svg">
<path d="M-5.97177e-07 9.12786L-1.19437e-07 19.8664C-5.35781e-08 21.3467 1.22572 22.551 2.73239 22.551L22.4054 22.551C23.912 22.551 25.1378 21.3467 25.1378 19.8664L25.1378 10.2017L24.0449 10.2017L24.0449 19.8664C24.0449 20.7544 23.3093 21.4771 22.4054 21.4771L2.73239 21.4772C1.82853 21.4772 1.09297 20.7544 1.09297 19.8664L1.09297 9.1278C1.09297 8.23973 1.82853 7.51702 2.73239 7.51702L18.5801 7.51702L18.5801 6.44321L2.73239 6.44321C1.22572 6.44321 -6.63035e-07 7.64752 -5.97177e-07 9.12786Z" fill="white"/>
<path d="M14.5559 1.29346L7.85614 6.56072L8.53925 7.39996L15.2385 2.13271C16.1074 1.44919 17.1992 1.07336 18.3124 1.07387L31.6955 1.07387L31.6955 8.92907C31.6955 11.7028 29.3986 13.9601 26.5751 13.9601L24.5914 13.9601L24.5914 15.0339L26.5751 15.0339C30.0009 15.0339 32.7885 12.295 32.7885 8.92907L32.7885 0.536898C32.7885 0.239973 32.5442 -9.44526e-06 32.242 -9.43228e-06L18.313 -8.83406e-06C16.9533 -0.000575066 15.6188 0.458498 14.5559 1.29346Z" fill="white"/>
<path d="M12.8878 13.4253C12.8987 13.0484 13.0583 12.6978 13.337 12.4395L21.1406 5.22375L20.3914 4.44145L12.5872 11.6583C12.0959 12.1142 11.8145 12.7311 11.7953 13.3947C11.7724 14.0654 12.021 14.6898 12.4795 15.1666C12.4856 15.1725 12.5271 15.2155 12.5331 15.2208C13.4697 16.1384 14.9398 16.2002 15.9551 15.3631L21.5127 10.7385L23.2035 10.7385C26.2233 10.7391 28.9628 8.87324 30.0219 6.09464L28.9983 5.71774C28.0983 8.07917 25.7697 9.66522 23.2035 9.66472L21.3128 9.66472C21.1838 9.66472 21.0581 9.70983 20.9592 9.79195L15.2502 14.5421C14.6742 15.0173 13.8375 14.9824 13.2796 14.4347C13.0162 14.1609 12.8856 13.8034 12.8878 13.4253Z" fill="white"/>
<path d="M1.0929 9.66447L1.0929 10.7383L14.7547 10.7383L14.7547 9.66447L1.0929 9.66447Z" fill="white"/>
<path d="M18.0337 12.3495L18.0337 13.4235L24.5922 13.4235L24.5922 12.3495L18.0337 12.3495Z" fill="white"/>
<path d="M0.546753 12.3496L0.546753 13.4235L12.5691 13.4235L12.5691 12.3496L0.546753 12.3496Z" fill="white"/>
<path d="M2.73267 18.7923L2.73267 19.8663L9.83766 19.8663L9.83766 18.7923L2.73267 18.7923Z" fill="white"/>
<path d="M2.73267 16.1077L2.73267 17.1817L7.10501 17.1817L7.10501 16.1077L2.73267 16.1077Z" fill="white"/>
<path d="M18.0337 16.1074L18.0337 19.3294C18.0337 19.6258 18.278 19.8663 18.5802 19.8663L21.8594 19.8663C22.1617 19.8663 22.406 19.6258 22.406 19.3294L22.406 16.1074C22.406 15.811 22.1617 15.5704 21.8594 15.5704L18.5802 15.5704C18.278 15.5704 18.0337 15.811 18.0337 16.1074ZM21.3129 16.6444L21.3129 18.7923L19.1268 18.7923L19.1268 16.6444L21.3129 16.6444Z" fill="white"/>
</svg>
