<?xml version="1.0" encoding="utf-8"?>
<!-- Generator: Adobe Illustrator 27.4.1, SVG Export Plug-In . SVG Version: 6.00 Build 0)  -->
<svg version="1.1" id="Layer_1" xmlns="http://www.w3.org/2000/svg" xmlns:xlink="http://www.w3.org/1999/xlink" x="0px" y="0px"
	 viewBox="0 0 24.4 24.2" style="enable-background:new 0 0 24.4 24.2;" xml:space="preserve">
<style type="text/css">
	.st0{fill:#D47137;}
	.st1{fill:#E3C6A1;}
	.st2{fill:#D47035;}
	.st3{fill:#E4BE6A;}
	.st4{fill:#CEA774;}
	.st5{fill:#EEE3D2;}
	.st6{fill:#CDA672;}
	.st7{fill:#FAF4EE;}
	.st8{fill:#CA9552;}
</style>
<path class="st0" d="M0.2,10.4C1,5.9,3.5,2.7,7.7,0.9c6.9-2.9,15,1.4,16.4,8.8c0.8,4.1-0.2,7.7-3.2,10.7c-2.8,2.9-6.3,4.1-10.3,3.6
	c-5.1-0.7-9.2-4.5-10.2-9.4c-0.1-0.3-0.1-0.5-0.1-0.8c-0.1-0.4-0.2-0.8-0.3-1.2c0-0.4,0-0.9,0-1.3C0.1,11.1,0.2,10.7,0.2,10.4z
	 M1.7,12C1.6,17.6,6,22.7,12.3,22.7c6,0,10.5-5,10.5-10.5c0-5.9-4.7-10.6-10.7-10.6C6.3,1.6,1.7,6.5,1.7,12z"/>
<path class="st1" d="M0,12.8c0.1,0.4,0.2,0.8,0.3,1.2c-0.1,0-0.2,0-0.3,0C0,13.6,0,13.2,0,12.8z"/>
<path class="st1" d="M0.2,10.4c-0.1,0.4-0.2,0.7-0.2,1.1c0-0.4,0-0.7,0-1.1C0.1,10.4,0.2,10.4,0.2,10.4z"/>
<path class="st2" d="M16.1,7.5c0,0.6,0,1.1-0.6,1.6c-0.4,0.3-0.5,0.9-0.7,1.4c0,0.1,0,0.2,0,0.3c0.1,0,0.2-0.1,0.4-0.1
	c0,0,0.1,0.1,0.1,0.1c-0.2,0.4-0.4,0.9-0.6,1.3c0,0.1,0,0.3,0,0.4c0.1-0.1,0.2-0.1,0.3-0.2c0.6-0.6,0.9-1.3,1-2.1
	c0.1-0.3,0.2-0.7,0.3-1c0.3-1.6,0.6-3.1,0.9-4.7c0,0,0.1,0,0.1,0c2.3,1.5,3.7,3.6,4,6.3c0.6,4.3-1.4,7.8-4.9,9.6
	c-1.2,0.6-2.5,1-3.9,0.9c0.1-0.2,0.1-0.4,0.2-0.7c0-0.1,0-0.1,0-0.2c-0.1,0-0.2,0.1-0.2,0.1c-0.1,0.3-0.2,0.5-0.2,0.8
	c-0.4,0-0.7,0-1.1,0c0-1.1,0-2.1,0-3.2c0-0.1,0-0.2,0-0.4c0,0-0.1,0-0.1,0c0,0.1,0,0.2,0,0.4c0,0.2-0.1,0.5-0.1,0.7
	c0,0.8,0,1.7,0,2.5c-2.5-0.4-4.6-1.6-6.1-3.7C1.8,13.4,2.6,8,6.6,4.8c0.3-0.2,0.6-0.3,0.9-0.5c0,0,0,0,0,0c0.1,0.5,0.1,0.9,0.2,1.4
	C8,6.6,8.3,7.3,8.5,8.1c0,0.1,0.1,0.1,0.2,0.2c0-0.1,0-0.1,0.1-0.2c0.1,0,0.1,0,0.2,0C9.3,8.5,9.6,9,9.8,9.4
	C9.6,9.3,9.4,9.2,9.1,9.1C9.1,8.9,9,8.8,8.9,8.6c0,0-0.1-0.1-0.1-0.1c0,0,0,0.1,0,0.1C8.9,8.8,9,9,9.1,9.2c0.2,0.8,0.7,1.4,1.4,1.8
	c0.1,0,0.2,0,0.3,0.1c0-0.1,0-0.2,0-0.3c-0.1-0.3-0.3-0.6-0.4-0.9c0.1,0,0.1-0.1,0.2-0.1c0-0.9-0.7-1.4-1.3-1.9c0-0.1,0-0.2,0-0.4
	c0.2,0.2,0.4,0.4,0.7,0.6c0,0,0.2-0.1,0.2-0.1c0.1-0.1,0.1-0.2,0.2-0.3c0.4-0.4,0.5-1,0.5-1.6c0.1,0,0.1,0,0.2,0
	c0.2,0.5,0.1,0.9-0.2,1.4c-0.2,0.3-0.3,0.9-0.2,1.4c0,0.4,0.3,0.2,0.4,0c0,0,0.1,0.1,0.1,0.1c-0.1,0.2-0.1,0.4-0.2,0.6
	c0,0.3,0,0.6,0,0.8c0.2-0.1,0.4-0.3,0.5-0.4c0,0.1,0,0.2,0,0.2c-0.1,0.5-0.3,1-0.4,1.5c0,0.1-0.1,0.2-0.1,0.3
	c-0.1-0.1-0.1-0.2-0.2-0.3c-0.3-0.3-0.6-0.6-1-0.9c-0.1,0-0.1-0.1-0.2-0.1c0,0.1,0,0.2,0,0.3c0.2,0.3,0.4,0.7,0.5,1
	c0,0.1,0.1,0.2,0.1,0.3c-0.1,0-0.2,0-0.3,0c-0.1,0-0.2,0.1-0.2,0.2c0.3,0.5,0.6,1.1,0.9,1.6c0,0.1,0.2,0.1,0.3,0.1
	c0-0.1,0.1-0.3,0.1-0.4c-0.2-0.4-0.4-0.8-0.6-1.2c0-0.1,0-0.2-0.1-0.2c0.1,0,0.1,0,0.2,0c0.2,0.1,0.4,0.4,0.5-0.1
	c0.1,0,0.1-0.1,0.2-0.1c0,0,0.1-0.1,0.1-0.1c0.1,0,0.1,0,0.2,0c-0.1,0.3-0.3,0.7-0.3,1c-0.1,0.6,0,0.6,0.5,0.4
	c-0.1,0.4-0.3,0.8-0.4,1.2c-0.2,0.5-0.1,0.6,0.4,0.5c-0.1,0.4-0.3,0.7-0.5,1.1c0,0.1-0.1,0.1-0.2,0.2c-0.1-0.2-0.3-0.4-0.4-0.6
	c0.1,0,0.2-0.1,0.2-0.1c0.1-0.1,0.2-0.2,0.2-0.3c-0.1-0.6-0.4-1.1-0.9-1.4c-0.1-0.1-0.2-0.1-0.4-0.1c0,0.1,0,0.2,0,0.3
	c0.2,0.4,0.3,0.7,0.5,1.1c0.1,0.2,0.2,0.4-0.2,0.3c-0.3-0.1-0.3,0.2-0.2,0.3c0.2,0.4,0.4,0.8,0.6,1.1c0.1,0.2,0.4,0.2,0.5,0.3
	c0-0.2,0.1-0.4,0.1-0.6c0,0,0.1,0,0.1,0c0.7-0.2,0.9-0.8,1.1-1.3c0.1-0.2,0.1-0.4,0.1-0.6c-0.1,0.1-0.3,0.2-0.4,0.2c0,0-0.1,0-0.2,0
	c0.1-0.4,0.3-0.7,0.4-1.1c0.1-0.2,0-0.4,0.1-0.7c-0.2,0.1-0.4,0.2-0.6,0.3c0.1-0.6,0.3-1.3,0.4-1.9c0,0-0.1-0.1-0.1-0.1
	c-0.1,0-0.2,0-0.3,0.1c0-0.4,0.1-0.8,0.1-1.2c0.1-0.3-0.1-0.4-0.4-0.5c0.1-0.6,0.1-1.1,0.2-1.7c0-0.4,0-0.7,0-1.1
	c-0.1-1.2-0.2-2.5-0.3-3.7c-0.1-0.4,0.1-0.5,0.4-0.5C12.4,3,13.2,3.1,14,3.2c-0.1,0.1-0.2,0.2-0.3,0.2c-0.1,0.4-0.1,0.8-0.2,1.2
	c0,1.5-0.1,3-0.1,4.5c0,0.3,0,0.5,0,0.8c0,0.2,0,0.4,0,0.6c0,0.2,0,0.5,0.1,0.7c0.2,0.5,0.4,1,0.6,1.5c0,0.1,0.2,0.1,0.3,0.2
	c0-0.1,0.1-0.2,0.1-0.3c0,0,0,0,0,0c0,0,0-0.1-0.1-0.1c-0.1-0.3-0.1-0.6-0.2-0.9c0-0.1,0.1-0.1,0.1-0.2c0.1-0.1,0.2-0.2,0.2-0.3
	c0-0.8-0.1-1.6-0.8-2.2c0,0-0.1-0.1-0.1-0.1l0,0c0-0.2,0-0.3,0-0.5c0.1,0,0.3,0.1,0.4,0.1c0.1,0.2,0.2,0.5,0.3,0.7
	c0.1,0.1,0.2,0.1,0.3,0.2c0-0.1,0.1-0.2,0.1-0.3C14.9,9,15,9,15.1,8.9c0.2-0.5,0.5-1,0.7-1.4C15.9,7.5,16,7.5,16.1,7.5z M15.5,12.3
	c-0.8,0.4-0.9,1.2-1.1,2c0,0,0.2,0.1,0.3,0.2c-0.2,0.4-0.5,0.9-0.7,1.3c-0.2,0.4,0.1,0.4,0.3,0.3c0,0.1-0.1,0.2-0.1,0.3
	c-0.2,0.4-0.4,0.7-0.6,1.1c-0.1,0.2-0.1,0.4,0.3,0.3c0.1,0,0.2,0,0.3,0c0,0.1-0.1,0.2-0.1,0.2c-0.3,0.4-0.6,0.8-1,1.2
	c-0.1,0-0.1,0-0.2,0c0.2-0.6-0.1-1-0.4-1.4c0-0.1-0.1-0.1-0.2-0.1c0,0.1-0.1,0.1-0.1,0.2c0.1,0.5,0.1,1.1,0.2,1.6
	c0,0.2,0.2,0.3,0.4,0.4c0.1-0.2,0.1-0.3,0.2-0.5c0.1,0,0.2,0,0.3,0c0.8-0.2,1.1-0.9,1.5-1.5c0-0.1,0-0.3-0.1-0.3
	c-0.8,0.1-0.3-0.3-0.1-0.5c0.1-0.2,0.3-0.4,0.4-0.6c0.1-0.2,0.2-0.5,0.3-0.7c-0.2,0-0.4,0.1-0.6,0.1c0.3-0.5,0.6-1,0.8-1.5
	c0.1-0.1,0.1-0.3,0.1-0.4c-0.1,0-0.3,0.1-0.4,0.1c0-0.1,0-0.2,0-0.2C15.1,13.4,15.3,12.9,15.5,12.3C15.5,12.3,15.5,12.3,15.5,12.3
	C15.5,12.2,15.5,12.2,15.5,12.3z M12.9,14.7C12.9,14.8,12.9,14.8,12.9,14.7c0.1,0.6,0.2,1.1,0.4,1.6c0,0.1,0.1,0.1,0.2,0.2
	c0.1-0.1,0.1-0.2,0.1-0.2c0-0.5-0.1-1.1-0.2-1.6c-0.1-0.2-0.3-0.4-0.4-0.7C13,14.3,13,14.5,12.9,14.7z M13.2,17.5
	C13.3,17.5,13.3,17.5,13.2,17.5c-0.1-0.6-0.3-1.1-0.5-1.6c0-0.1-0.1-0.1-0.2-0.1c0,0.1-0.1,0.1-0.1,0.2c0,0.5,0,1.1,0.1,1.6
	c0,0.2,0.3,0.5,0.4,0.7C13.1,18,13.2,17.8,13.2,17.5z M13.3,12.9C13.2,12.9,13.2,12.9,13.3,12.9c0.1,0.6,0.3,1.1,0.5,1.7
	c0,0.1,0.2,0.1,0.3,0.2c0-0.1,0.1-0.2,0.1-0.3c-0.1-0.6-0.2-1.1-0.4-1.7c-0.1-0.2-0.3-0.3-0.4-0.5C13.3,12.5,13.3,12.7,13.3,12.9z"
	/>
<path class="st0" d="M14.7,8.8c-0.2-0.6-0.3-1.2-0.5-1.8c0-0.2-0.1-0.3-0.1-0.5c0.1-1,0.3-2,0.4-2.9c0-0.1,0.1-0.2,0.2-0.3
	c0,0.1,0.1,0.2,0.1,0.3c-0.1,0.9-0.2,1.7-0.3,2.6c0,0.3,0,0.7,0.1,1.1c0,0.1,0.2,0.1,0.3,0.1c0,0,0.1-0.1,0.1-0.1c0-0.1,0-0.2,0-0.3
	c0.1,0,0.2-0.1,0.4-0.1c0.1-0.1,0.2-0.3,0.4-0.4c0,0.1,0.1,0.2,0.1,0.2c-0.6,0.6-0.9,1.3-1,2.2C14.8,8.8,14.8,8.8,14.7,8.8z"/>
<path class="st0" d="M9.9,7.4C9.6,7,9.2,6.6,8.9,6.1C8.7,5.9,8.6,5.7,8.5,5.4C8.4,5,8.4,4.7,8.3,4.3c0-0.2,0.1-0.3,0.1-0.5
	c0.1,0.2,0.2,0.3,0.2,0.5c0.1,0.4,0.2,0.9,0.3,1.3c0,0,0,0.1,0,0.1c0.2,0.2,0.3,0.4,0.5,0.6c0-0.2,0.1-0.5,0.1-0.7c0,0,0.1,0,0.1,0
	l0.1,0c0.1-0.2,0.2-0.3,0.4-0.5c0.1,0,0.2,0,0.2,0c0,0.1,0,0.3,0,0.4c-0.4,0.6-0.4,1.2-0.2,1.9C10,7.4,10,7.4,9.9,7.4z"/>
<path class="st0" d="M15,6c0-0.7,0-1.5,0-2.2c0-0.1,0.2-0.4,0.2-0.4c0.2,0.1,0.5,0.2,0.6,0.3c0,0.3,0,0.7-0.1,1
	c-0.1,0.4-0.3,0.8-0.5,1.3C15.2,6,15.1,6,15,6z"/>
<path class="st0" d="M9.5,5.2C9.3,4.8,9.1,4.4,8.9,3.9c0-0.1,0-0.3,0.1-0.4c0.2-0.1,0.4-0.1,0.6-0.2c0,0.1,0.1,0.2,0.1,0.4
	C9.7,4.2,9.6,4.7,9.5,5.2C9.6,5.2,9.5,5.2,9.5,5.2z"/>
<path class="st1" d="M11.1,18c0,1.1,0,2.1,0,3.2c-0.1,0-0.2,0-0.3,0c0-0.8,0-1.7,0-2.5c0-0.2,0.1-0.5,0.1-0.7
	C11.1,18,11.1,18,11.1,18z"/>
<path class="st3" d="M15.8,6.6c0-0.1-0.1-0.2-0.1-0.2c0.1-0.3,0.3-0.6,0.4-0.9c0-0.1,0.1-0.2,0.2-0.2c0,0.1,0,0.2,0,0.2
	c-0.1,0.7-0.2,1.3-0.2,2c-0.1,0-0.1,0-0.2,0C15.8,7.2,15.8,6.9,15.8,6.6z"/>
<path class="st4" d="M9,8.1c-0.1,0-0.1,0-0.2,0C8.6,7.3,8.4,6.5,8.2,5.7l0,0c0.3,0.6,0.7,1.1,1,1.7c0,0.1,0,0.2,0,0.4
	C9.1,7.8,9,8,9,8.1z"/>
<path class="st1" d="M10.3,5.1c-0.1,0-0.2,0-0.2,0c0.3-0.3,0.4-0.6,0.3-1c0-0.1,0-0.3,0.1-0.4c0.1,0.1,0.1,0.3,0.2,0.4
	c0.1,0.2,0.1,0.4,0.1,0.6c-0.1,0.1-0.1,0.3-0.2,0.4C10.5,5.1,10.4,5.1,10.3,5.1z"/>
<path class="st3" d="M14.1,8.5c-0.1,0-0.3-0.1-0.4-0.1c0-0.4,0-0.9,0-1.3c0,0,0.1,0,0.1,0C13.9,7.5,14,8,14.1,8.5z"/>
<path class="st5" d="M16.3,9.2c-0.1,0.3-0.2,0.7-0.3,1c-0.1,0-0.1,0-0.2,0c0,0,0-0.1,0-0.1c0-0.1-0.1-0.2-0.1-0.3
	C15.7,9.2,15.9,9.1,16.3,9.2z"/>
<path class="st1" d="M13.8,7C13.8,7,13.7,7,13.8,7c0-0.6,0-1.2,0-1.8c0,0,0.1,0,0.1,0C13.9,5.8,13.8,6.4,13.8,7z"/>
<path class="st4" d="M7.6,4.4c0-0.1,0.1-0.2,0.1-0.2c0.1,0.1,0.2,0.1,0.2,0.2C8,4.8,8.1,5.2,8.2,5.7c0,0,0,0,0,0
	C8.1,5.5,8,5.3,7.9,5.1C7.8,4.8,7.7,4.6,7.6,4.4C7.6,4.4,7.6,4.4,7.6,4.4z"/>
<path class="st4" d="M13.9,5.2C13.9,5.2,13.8,5.2,13.9,5.2c-0.1-0.1-0.1-0.2-0.1-0.3c0-0.5-0.1-1-0.1-1.5c0.1-0.1,0.2-0.2,0.3-0.2
	C13.9,3.8,13.9,4.5,13.9,5.2z"/>
<path class="st6" d="M10.5,5.1c0.1-0.1,0.1-0.3,0.2-0.4c0.1,0.4,0.2,0.8,0.2,1.2c-0.1,0-0.1,0-0.2,0C10.7,5.7,10.6,5.4,10.5,5.1z"/>
<path class="st5" d="M11.5,7.1c0,0.4,0,0.7,0,1.1c-0.1,0-0.1,0-0.2,0c0-0.1,0-0.2,0-0.2c0-0.2-0.1-0.3-0.1-0.5
	C11.4,7.4,11.5,7.3,11.5,7.1z"/>
<path class="st0" d="M12.2,21.2c0.1-0.3,0.1-0.5,0.2-0.8c0,0,0.1-0.1,0.2-0.1c0,0.1,0.1,0.1,0,0.2c-0.1,0.2-0.1,0.4-0.2,0.7
	C12.4,21.2,12.3,21.2,12.2,21.2z"/>
<path class="st1" d="M15,6c0.1,0,0.1,0,0.2,0c0,0.1-0.1,0.3-0.1,0.4c0,0.1,0.1,0.2,0.2,0.3c-0.1,0-0.2,0.1-0.4,0.1
	C15,6.6,15,6.3,15,6z"/>
<path class="st2" d="M11.4,8c0,0.1,0,0.2,0,0.2c-0.1,0.2-0.3,0.4-0.4,0.6c0,0-0.1-0.1-0.1-0.1c0.1-0.2,0.2-0.4,0.3-0.7
	C11.2,8,11.3,8,11.4,8z"/>
<path class="st2" d="M15.8,10c0,0,0,0.1,0,0.1c-0.1,0.1-0.2,0.3-0.3,0.4c0,0-0.1-0.1-0.1-0.1c0.1-0.1,0.1-0.3,0.2-0.4
	C15.7,10,15.7,10,15.8,10z"/>
<path class="st4" d="M11.4,8c-0.1,0-0.2,0.1-0.2,0.1c0-0.2,0.1-0.4,0.1-0.6C11.3,7.7,11.4,7.8,11.4,8z"/>
<path class="st5" d="M17.3,4.5c0,0-0.1,0-0.1,0c-0.1,0-0.1,0-0.2,0c-0.1,0-0.2-0.1-0.2-0.1c0.1,0,0.2-0.1,0.3-0.1
	C17.1,4.3,17.2,4.4,17.3,4.5z"/>
<path class="st4" d="M14.7,8.8c0,0,0.1,0,0.1,0c0.1,0,0.2,0.1,0.3,0.1C15,9,14.9,9,14.8,9C14.7,9,14.7,8.9,14.7,8.8z"/>
<path class="st4" d="M9.5,5.2C9.5,5.2,9.6,5.2,9.5,5.2c0.1,0.1,0.2,0.2,0.2,0.4c0,0-0.1,0-0.1,0s-0.1,0-0.1,0
	C9.6,5.5,9.5,5.3,9.5,5.2z"/>
<path class="st6" d="M15.8,10c-0.1,0-0.2,0-0.2,0c0-0.1,0.1-0.2,0.1-0.3C15.8,9.8,15.8,9.9,15.8,10z"/>
<path class="st4" d="M9.9,7.4c0.1,0,0.1,0,0.2-0.1c0,0,0.1,0.1,0.1,0.1c-0.1,0.1-0.1,0.2-0.2,0.3C10,7.6,10,7.5,9.9,7.4z"/>
<path class="st2" d="M15.2,10.6c0,0,0.1-0.1,0.1-0.1c0,0,0.1,0.1,0.1,0.1c0,0-0.1,0.1-0.1,0.1C15.2,10.7,15.2,10.7,15.2,10.6z"/>
<path class="st2" d="M15.3,10.5C15.3,10.5,15.3,10.4,15.3,10.5c0.1,0,0.2,0,0.2,0c0,0-0.1,0.1-0.1,0.1
	C15.4,10.6,15.3,10.5,15.3,10.5z"/>
<path class="st1" d="M15,7.2c0,0-0.1,0.1-0.1,0.1C14.9,7.3,14.9,7.3,15,7.2z"/>
<path class="st7" d="M11.8,14.9c0.1,0,0.1,0.1,0.2,0c0.2-0.1,0.3-0.2,0.4-0.2c0,0.2,0,0.4-0.1,0.6c-0.2,0.6-0.4,1.2-1.1,1.3
	c0,0,0,0-0.1,0c0,0,0,0.1,0,0.1c0,0.2-0.1,0.4-0.1,0.6c-0.2-0.1-0.4-0.2-0.5-0.3c-0.2-0.3-0.4-0.7-0.6-1.1c-0.1-0.1-0.1-0.4,0.2-0.3
	c0.3,0.1,0.3,0,0.2-0.3c-0.2-0.4-0.3-0.7-0.5-1.1c0-0.1,0-0.2,0-0.3c0.1,0,0.3,0,0.4,0.1c0.5,0.3,0.8,0.9,0.9,1.4
	c0,0.1-0.1,0.2-0.2,0.3c-0.1,0.1-0.1,0.1-0.2,0.1c0.1,0.2,0.3,0.4,0.4,0.6c0.1-0.1,0.2-0.1,0.2-0.2c0.2-0.4,0.3-0.7,0.5-1.1
	c0,0,0,0,0,0C11.7,15.1,11.7,15,11.8,14.9C11.8,14.9,11.8,14.9,11.8,14.9z"/>
<path class="st7" d="M10.9,12.3c-0.1,0.5-0.3,0.2-0.5,0.1c-0.1,0-0.1,0-0.2,0c0,0.1,0,0.2,0.1,0.2c0.2,0.4,0.5,0.8,0.6,1.2
	c0,0.1,0,0.2-0.1,0.4c-0.1,0-0.3-0.1-0.3-0.1c-0.3-0.5-0.6-1.1-0.9-1.6c0,0,0.1-0.1,0.2-0.2c0.1,0,0.2,0,0.3,0
	c0-0.1-0.1-0.2-0.1-0.3c-0.2-0.3-0.4-0.7-0.5-1c0-0.1,0-0.2,0-0.3c0.1,0,0.2,0,0.2,0.1c0.3,0.3,0.7,0.6,1,0.9
	c0.1,0.1,0.2,0.2,0.2,0.3c0-0.1,0.1-0.2,0.1-0.3c0.1-0.5,0.3-1,0.4-1.5c0-0.1,0-0.2,0-0.2c0,0,0,0,0,0c0.3,0,0.4,0.1,0.4,0.5
	c-0.1,0.4-0.1,0.8-0.1,1.2c0,0,0,0,0,0c-0.1,0.1-0.1,0.2-0.2,0.2c-0.1,0.1-0.1,0.2-0.2,0.2c0,0-0.1,0.1-0.1,0.1
	C11.1,12.2,11,12.2,10.9,12.3z"/>
<path class="st7" d="M14.4,16c0.2,0,0.4-0.1,0.6-0.1c-0.1,0.2-0.2,0.5-0.3,0.7c-0.1,0.2-0.2,0.4-0.4,0.6c-0.1,0.2-0.6,0.5,0.1,0.5
	c0,0,0.1,0.2,0.1,0.3c-0.4,0.6-0.7,1.3-1.5,1.5c0-0.1-0.1-0.2-0.1-0.2c0.3-0.4,0.6-0.8,1-1.2c0.1-0.1,0.1-0.2,0.1-0.2
	c-0.1,0-0.2,0-0.3,0c-0.3,0.1-0.4-0.1-0.3-0.3c0.2-0.4,0.4-0.7,0.6-1.1c0-0.1,0.1-0.2,0.1-0.3c0,0,0,0,0,0
	C14.3,16.1,14.4,16,14.4,16L14.4,16z"/>
<path class="st5" d="M13.8,4.9c0,0.1,0,0.2,0,0.4c0,0.6-0.1,1.2-0.1,1.8c0,0.4,0,0.9,0,1.3c0,0.2,0,0.3,0,0.5c0,0.1-0.1,0.2-0.1,0.4
	c-0.1,0-0.1,0-0.2,0c0-1.5,0.1-3,0.1-4.5C13.6,4.7,13.7,4.8,13.8,4.9z"/>
<path class="st7" d="M10.3,9.8c0.1,0.3,0.3,0.6,0.4,0.9c0,0.1,0,0.2,0,0.3c-0.1,0-0.2,0-0.3-0.1c-0.7-0.4-1.2-1-1.4-1.8l0,0l0,0
	c0.2,0.1,0.5,0.2,0.7,0.3c0,0,0,0,0,0c0,0,0.1,0.1,0.1,0.1c0,0,0,0,0,0C10.1,9.6,10.2,9.7,10.3,9.8C10.3,9.8,10.3,9.8,10.3,9.8z"/>
<path class="st7" d="M12.9,14.7c0-0.2,0.1-0.5,0.1-0.7c0.2,0.2,0.4,0.4,0.4,0.7c0.1,0.5,0.1,1.1,0.2,1.6c0,0.1-0.1,0.2-0.1,0.2
	c-0.1-0.1-0.2-0.1-0.2-0.2C13.2,15.8,13,15.3,12.9,14.7C12.9,14.8,12.9,14.8,12.9,14.7z"/>
<path class="st7" d="M13.2,17.5c-0.1,0.2-0.1,0.5-0.2,0.7c-0.1-0.2-0.4-0.4-0.4-0.7c-0.1-0.5-0.1-1.1-0.1-1.6c0-0.1,0.1-0.1,0.1-0.2
	c0.1,0,0.2,0.1,0.2,0.1C13,16.4,13.1,17,13.2,17.5C13.3,17.5,13.3,17.5,13.2,17.5z"/>
<path class="st7" d="M13.3,12.9c0-0.2,0-0.4,0.1-0.6c0.1,0.2,0.4,0.3,0.4,0.5c0.2,0.6,0.3,1.1,0.4,1.7c0,0.1-0.1,0.2-0.1,0.3
	c-0.1-0.1-0.2-0.1-0.3-0.2C13.6,14.1,13.4,13.5,13.3,12.9C13.2,12.9,13.2,12.9,13.3,12.9z"/>
<path class="st7" d="M13.8,8.9c0.7,0.6,0.8,1.4,0.8,2.2c0,0.1-0.1,0.2-0.2,0.3c-0.1-0.1-0.2-0.2-0.4-0.4l0,0
	c-0.1-0.7-0.2-1.4-0.3-2.1C13.7,8.9,13.8,8.9,13.8,8.9z"/>
<path class="st7" d="M14.5,12.6c0,0.1-0.1,0.2-0.1,0.3c-0.1-0.1-0.3-0.1-0.3-0.2c-0.2-0.5-0.4-1-0.6-1.5c-0.1-0.2-0.1-0.5-0.1-0.7
	c0.2,0.2,0.5,0.4,0.7,0.5c0,0,0,0,0,0c0.1,0.2,0.1,0.3,0.2,0.5c0.1,0.3,0.1,0.6,0.2,0.9C14.4,12.6,14.4,12.6,14.5,12.6z"/>
<path class="st7" d="M15.4,10.6c0,0,0.1-0.1,0.1-0.1c0.1-0.1,0.2-0.3,0.3-0.4c0.1,0,0.1,0,0.2,0c-0.2,0.8-0.4,1.5-1,2.1
	c-0.1,0.1-0.2,0.1-0.3,0.2c0-0.1-0.1-0.3,0-0.4c0.2-0.4,0.4-0.9,0.6-1.3C15.3,10.7,15.3,10.7,15.4,10.6z"/>
<path class="st7" d="M14.9,14.2c0.1,0,0.3-0.1,0.4-0.1c0,0.1,0,0.3-0.1,0.4c-0.3,0.5-0.6,1-0.8,1.5c0,0,0,0,0,0c0,0-0.1,0.1-0.1,0.1
	c0,0,0,0,0,0c-0.3,0-0.5,0-0.3-0.3c0.2-0.5,0.5-0.9,0.7-1.3c0,0,0,0,0,0c0,0,0.1-0.1,0.1-0.1c0,0,0,0,0,0
	C14.8,14.3,14.8,14.2,14.9,14.2L14.9,14.2z"/>
<path class="st7" d="M7.6,4.4c0.1,0.2,0.3,0.5,0.4,0.7C8,5.3,8.1,5.5,8.2,5.7c0.2,0.8,0.4,1.6,0.7,2.4c0,0.1,0,0.1-0.1,0.2
	C8.7,8.3,8.6,8.2,8.5,8.1C8.3,7.3,8,6.6,7.8,5.8C7.7,5.3,7.6,4.8,7.6,4.4z"/>
<path class="st7" d="M9,8.1C9,8,9.1,7.8,9.1,7.7c0.7,0.5,1.3,1,1.3,1.9c0,0-0.1,0-0.1,0c-0.1,0-0.2-0.1-0.4-0.1c0,0,0,0,0,0
	c0,0-0.1-0.1-0.1-0.1c0,0,0,0,0,0C9.6,9,9.3,8.5,9,8.1z"/>
<path class="st7" d="M10.2,7.5c0,0-0.1-0.1-0.1-0.1c-0.1-0.7-0.2-1.3,0.2-1.9c0.1-0.1,0-0.3,0-0.4c0.1,0,0.1,0,0.2,0
	c0.1,0.3,0.1,0.5,0.2,0.8C10.7,6.5,10.6,7.1,10.2,7.5z"/>
<path class="st7" d="M15.5,12.3c-0.2,0.5-0.4,1.1-0.6,1.6c0,0.1,0,0.2,0,0.2c0,0,0,0,0,0c0,0-0.1,0.1-0.1,0.1c0,0,0,0,0,0
	c0,0-0.1,0.1-0.1,0.1c0,0,0,0,0,0c-0.1-0.1-0.3-0.2-0.3-0.2C14.5,13.5,14.6,12.7,15.5,12.3C15.5,12.3,15.5,12.3,15.5,12.3z"/>
<path class="st7" d="M15.1,8.9c-0.1,0-0.2-0.1-0.3-0.1c0.1-0.8,0.4-1.6,1-2.2c0,0.3,0,0.6,0,0.9C15.6,8,15.4,8.5,15.1,8.9z"/>
<path class="st7" d="M11.6,15.1c-0.5,0.1-0.6,0-0.4-0.5c0.1-0.4,0.3-0.8,0.4-1.2c0,0,0,0,0,0c0.2-0.1,0.4-0.2,0.6-0.3
	c0,0.2,0,0.5-0.1,0.7c-0.1,0.4-0.2,0.7-0.4,1.1c0,0,0,0,0,0C11.7,15,11.7,15.1,11.6,15.1L11.6,15.1z"/>
<path class="st7" d="M11.6,11.6c0.1,0,0.2,0,0.3-0.1c0,0,0.1,0.1,0.1,0.1c-0.1,0.6-0.3,1.3-0.4,1.9c0,0,0,0,0,0
	c-0.5,0.2-0.6,0.1-0.5-0.4c0.1-0.3,0.2-0.7,0.3-1c0.1-0.1,0.1-0.2,0.2-0.2C11.6,11.7,11.6,11.6,11.6,11.6
	C11.6,11.6,11.6,11.6,11.6,11.6z"/>
<path class="st7" d="M11,8.8c0.1-0.2,0.3-0.4,0.4-0.6c0.1,0,0.1,0,0.2,0c-0.1,0.6-0.1,1.1-0.2,1.7c0,0,0,0,0,0
	c-0.2,0.1-0.4,0.3-0.5,0.4c0-0.3-0.1-0.6,0-0.8C10.8,9.3,10.9,9.1,11,8.8z"/>
<path class="st8" d="M14,11.1c-0.2-0.2-0.5-0.4-0.7-0.5c0-0.2,0-0.4,0-0.6c0.1-0.3,0.1-0.5,0.2-0.8c0-0.1,0.1-0.2,0.1-0.4
	c0,0,0,0,0,0c0,0,0,0.1,0,0.1C13.8,9.7,13.9,10.4,14,11.1z"/>
<path class="st1" d="M13.8,4.9c-0.1-0.1-0.2-0.2-0.3-0.3c0.1-0.4,0.1-0.8,0.2-1.2C13.7,3.9,13.8,4.4,13.8,4.9z"/>
<path class="st1" d="M13.6,9.2c-0.1,0.3-0.1,0.5-0.2,0.8c0-0.3,0-0.5,0-0.8C13.4,9.1,13.5,9.2,13.6,9.2z"/>
<path class="st1" d="M9.1,9.2C9,9,8.9,8.8,8.8,8.6c0,0,0.1,0,0.1,0C9,8.8,9.1,8.9,9.1,9.2C9.1,9.1,9.1,9.2,9.1,9.2L9.1,9.2z"/>
<path class="st8" d="M14.3,11.6c-0.1-0.2-0.1-0.3-0.2-0.5c0.1,0.1,0.2,0.2,0.4,0.4C14.4,11.5,14.3,11.5,14.3,11.6z"/>
<path class="st1" d="M12.8,19.5c0-0.1,0-0.1-0.1-0.2c0.1,0,0.1,0,0.2,0c0,0.1,0.1,0.2,0.1,0.2C13,19.4,12.9,19.4,12.8,19.5z"/>
<path class="st4" d="M11.6,11.8c-0.1,0.1-0.1,0.2-0.2,0.2c-0.1,0-0.1,0-0.2,0c0.1-0.1,0.1-0.2,0.2-0.2
	C11.5,11.8,11.6,11.8,11.6,11.8z"/>
<path class="st4" d="M11.1,18c0,0-0.1,0-0.1,0c0-0.1,0-0.2,0-0.4c0,0,0.1,0,0.1,0s0.1,0,0.1,0C11.2,17.8,11.2,17.9,11.1,18z"/>
<path class="st4" d="M10.3,9.6c0,0,0.1,0,0.1,0c-0.1,0-0.1,0.1-0.2,0.1c0,0,0,0,0,0C10.3,9.7,10.3,9.7,10.3,9.6z"/>
<path class="st6" d="M10.9,12.3c0.1,0,0.1-0.1,0.2-0.1C11.1,12.2,11,12.2,10.9,12.3z"/>
<path class="st0" d="M11.2,17.7L11.2,17.7c-0.1,0-0.1,0-0.1,0C11.1,17.7,11.1,17.7,11.2,17.7z"/>
<path class="st4" d="M11.1,16.7C11.1,16.7,11.1,16.7,11.1,16.7C11.1,16.6,11.1,16.7,11.1,16.7C11.1,16.7,11.1,16.7,11.1,16.7z"/>
<path class="st4" d="M14.5,12.6c0,0,0-0.1,0-0.1C14.4,12.5,14.5,12.6,14.5,12.6C14.5,12.6,14.5,12.6,14.5,12.6z"/>
<path class="st7" d="M15.5,12.3C15.5,12.2,15.5,12.2,15.5,12.3C15.5,12.3,15.5,12.3,15.5,12.3C15.5,12.3,15.5,12.3,15.5,12.3z"/>
<path class="st1" d="M12.1,11.6c0,0-0.1-0.1-0.1-0.1C12,11.5,12,11.5,12.1,11.6z"/>
<path class="st1" d="M13.7,8.9c0,0,0-0.1,0-0.1c0,0,0.1,0.1,0.1,0.1C13.8,8.9,13.7,8.9,13.7,8.9z"/>
<path class="st7" d="M8.9,8.6c0,0-0.1,0-0.1,0c0,0,0-0.1,0-0.1C8.8,8.5,8.9,8.5,8.9,8.6z"/>
<path class="st2" d="M11.6,15.2c0-0.1,0.1-0.2,0.1-0.2C11.7,15,11.7,15.1,11.6,15.2z"/>
<path class="st2" d="M11.6,11.8c-0.1,0-0.1,0-0.2,0c0.1-0.1,0.1-0.2,0.2-0.2C11.6,11.6,11.6,11.7,11.6,11.8z"/>
<path class="st2" d="M14.3,16.1c0,0,0.1-0.1,0.1-0.1C14.4,16,14.3,16.1,14.3,16.1z"/>
<path class="st2" d="M10.3,9.6c0,0,0,0.1,0,0.1c-0.1-0.1-0.2-0.2-0.4-0.3C10.1,9.6,10.2,9.6,10.3,9.6z"/>
<path class="st2" d="M9.8,9.4c0,0,0.1,0.1,0.1,0.1C9.9,9.5,9.9,9.4,9.8,9.4z"/>
<path class="st2" d="M14.6,14.4c0,0,0.1-0.1,0.1-0.1C14.7,14.3,14.7,14.4,14.6,14.4z"/>
<path class="st2" d="M14.8,14.3c0,0,0.1-0.1,0.1-0.1C14.8,14.2,14.8,14.3,14.8,14.3z"/>
</svg>
