<svg width="56" height="35" viewBox="0 0 56 35" fill="none" xmlns="http://www.w3.org/2000/svg">
<path d="M15.3375 30.5625C15.3375 30.9852 15.671 31.3188 16.0938 31.3188H20.0312C20.454 31.3188 20.7875 30.9852 20.7875 30.5625C20.7875 30.1398 20.454 29.8062 20.0312 29.8062H16.0938C15.671 29.8062 15.3375 30.1398 15.3375 30.5625Z" fill="url(#paint0_linear_24_29)" stroke="url(#paint1_linear_24_29)" stroke-width="0.2"/>
<mask id="path-2-outside-1_24_29" maskUnits="userSpaceOnUse" x="0" y="0" width="56" height="35" fill="black">
<rect fill="white" width="56" height="35"/>
<path d="M46.9637 19.8737C49.2869 18.6662 50.875 16.2513 50.875 13.4688C50.875 9.49187 47.6331 6.25 43.6562 6.25C39.6794 6.25 36.4375 9.49187 36.4375 13.4688C36.4375 16.2513 38.0256 18.6794 40.3488 19.8737C39.5612 20.1231 38.8263 20.4512 38.1175 20.8581C36.8312 17.8787 34.2719 15.595 31.1875 14.6369C33.5238 13.4425 35.125 11.0144 35.125 8.21875C35.125 4.24187 31.8831 1 27.9062 1C23.9294 1 20.6875 4.24187 20.6875 8.21875C20.6875 11.0144 22.2887 13.4425 24.625 14.6369C21.5669 15.595 19.0206 17.8525 17.7213 20.7925C17.0125 20.3856 16.2644 20.0444 15.4638 19.795C17.7869 18.5875 19.375 16.1725 19.375 13.39C19.375 9.41313 16.1331 6.17125 12.1562 6.17125C8.17938 6.17125 4.9375 9.41313 4.9375 13.39C4.9375 16.1725 6.52562 18.6006 8.84875 19.795C4.3075 21.2125 1 25.4519 1 30.4525V33.0775C1 33.445 1.28875 33.7337 1.65625 33.7337H22.6562C23.0238 33.7337 23.3125 33.445 23.3125 33.0775V30.4525C23.3125 29.8094 23.2469 29.1794 23.1419 28.5625H32.6838C32.5656 29.2056 32.5 29.8619 32.5 30.5312V33.1562C32.5 33.5238 32.7887 33.8125 33.1562 33.8125H54.1562C54.5238 33.8125 54.8125 33.5238 54.8125 33.1562V30.5312C54.8125 25.5306 51.505 21.2912 46.9637 19.8737ZM37.75 13.4688C37.75 10.2137 40.4012 7.5625 43.6562 7.5625C46.9113 7.5625 49.5625 10.2137 49.5625 13.4688C49.5625 16.7238 46.9113 19.375 43.6562 19.375C40.4012 19.375 37.75 16.7238 37.75 13.4688ZM44.3125 20.7269V27.7619L43.6562 29.0744L43 27.7619V20.7269C43.2231 20.7138 43.4331 20.6875 43.6562 20.6875C43.8794 20.6875 44.0894 20.7006 44.3125 20.7269ZM22 8.21875C22 4.96375 24.6513 2.3125 27.9062 2.3125C31.1612 2.3125 33.8125 4.96375 33.8125 8.21875C33.8125 11.4738 31.1613 14.125 27.9194 14.125H27.9062C24.6513 14.125 22 11.4738 22 8.21875ZM28.5625 15.4769V22.4987L27.9062 23.8112L27.25 22.4987V15.4769C27.6831 15.4506 28.1294 15.4506 28.5625 15.4769ZM6.25 13.39C6.25 10.135 8.90125 7.48375 12.1562 7.48375C15.4113 7.48375 18.0625 10.135 18.0625 13.39C18.0625 16.645 15.4113 19.2963 12.1562 19.2963C8.90125 19.2963 6.25 16.645 6.25 13.39ZM12.8125 20.6481V27.6831L12.1562 28.9956L11.5 27.6831V20.6481C11.7231 20.635 11.9331 20.6088 12.1562 20.6088C12.3794 20.6088 12.5894 20.6219 12.8125 20.6481ZM22 32.4212H2.3125V30.4525C2.3125 25.7012 5.69875 21.7244 10.1875 20.8056V27.8275C10.1875 27.9325 10.2137 28.0244 10.2531 28.1162L11.5656 30.7412C11.6706 30.9644 11.9069 31.1087 12.1562 31.1087C12.4056 31.1087 12.6287 30.9644 12.7469 30.7412L14.0594 28.1162C14.0988 28.0244 14.125 27.9194 14.125 27.8275V20.8056C18.6138 21.7244 22 25.7012 22 30.4525V32.4212ZM32.9987 27.25H22.84C22.1444 24.94 20.7138 22.945 18.8369 21.5406C20.0706 18.535 22.7612 16.3169 25.9375 15.6606V22.6562C25.9375 22.7612 25.9637 22.8531 26.0031 22.945L27.3156 25.57C27.4206 25.7931 27.6569 25.9375 27.9062 25.9375C28.1556 25.9375 28.3788 25.7931 28.4969 25.57L29.8094 22.945C29.8488 22.8531 29.875 22.7481 29.875 22.6562V15.6606C33.0775 16.3169 35.7812 18.5613 37.0019 21.5931C35.125 22.9975 33.6944 24.9662 32.9987 27.25ZM53.5 32.5H33.8125V30.5312C33.8125 25.78 37.1987 21.8031 41.6875 20.8844V27.9062C41.6875 28.0112 41.7137 28.1031 41.7531 28.195L43.0656 30.82C43.1706 31.0431 43.4069 31.1875 43.6562 31.1875C43.9056 31.1875 44.1287 31.0431 44.2469 30.82L45.5594 28.195C45.5988 28.1031 45.625 27.9981 45.625 27.9062V20.8844C50.1138 21.8031 53.5 25.78 53.5 30.5312V32.5Z"/>
</mask>
<path d="M46.9637 19.8737C49.2869 18.6662 50.875 16.2513 50.875 13.4688C50.875 9.49187 47.6331 6.25 43.6562 6.25C39.6794 6.25 36.4375 9.49187 36.4375 13.4688C36.4375 16.2513 38.0256 18.6794 40.3488 19.8737C39.5612 20.1231 38.8263 20.4512 38.1175 20.8581C36.8312 17.8787 34.2719 15.595 31.1875 14.6369C33.5238 13.4425 35.125 11.0144 35.125 8.21875C35.125 4.24187 31.8831 1 27.9062 1C23.9294 1 20.6875 4.24187 20.6875 8.21875C20.6875 11.0144 22.2887 13.4425 24.625 14.6369C21.5669 15.595 19.0206 17.8525 17.7213 20.7925C17.0125 20.3856 16.2644 20.0444 15.4638 19.795C17.7869 18.5875 19.375 16.1725 19.375 13.39C19.375 9.41313 16.1331 6.17125 12.1562 6.17125C8.17938 6.17125 4.9375 9.41313 4.9375 13.39C4.9375 16.1725 6.52562 18.6006 8.84875 19.795C4.3075 21.2125 1 25.4519 1 30.4525V33.0775C1 33.445 1.28875 33.7337 1.65625 33.7337H22.6562C23.0238 33.7337 23.3125 33.445 23.3125 33.0775V30.4525C23.3125 29.8094 23.2469 29.1794 23.1419 28.5625H32.6838C32.5656 29.2056 32.5 29.8619 32.5 30.5312V33.1562C32.5 33.5238 32.7887 33.8125 33.1562 33.8125H54.1562C54.5238 33.8125 54.8125 33.5238 54.8125 33.1562V30.5312C54.8125 25.5306 51.505 21.2912 46.9637 19.8737ZM37.75 13.4688C37.75 10.2137 40.4012 7.5625 43.6562 7.5625C46.9113 7.5625 49.5625 10.2137 49.5625 13.4688C49.5625 16.7238 46.9113 19.375 43.6562 19.375C40.4012 19.375 37.75 16.7238 37.75 13.4688ZM44.3125 20.7269V27.7619L43.6562 29.0744L43 27.7619V20.7269C43.2231 20.7138 43.4331 20.6875 43.6562 20.6875C43.8794 20.6875 44.0894 20.7006 44.3125 20.7269ZM22 8.21875C22 4.96375 24.6513 2.3125 27.9062 2.3125C31.1612 2.3125 33.8125 4.96375 33.8125 8.21875C33.8125 11.4738 31.1613 14.125 27.9194 14.125H27.9062C24.6513 14.125 22 11.4738 22 8.21875ZM28.5625 15.4769V22.4987L27.9062 23.8112L27.25 22.4987V15.4769C27.6831 15.4506 28.1294 15.4506 28.5625 15.4769ZM6.25 13.39C6.25 10.135 8.90125 7.48375 12.1562 7.48375C15.4113 7.48375 18.0625 10.135 18.0625 13.39C18.0625 16.645 15.4113 19.2963 12.1562 19.2963C8.90125 19.2963 6.25 16.645 6.25 13.39ZM12.8125 20.6481V27.6831L12.1562 28.9956L11.5 27.6831V20.6481C11.7231 20.635 11.9331 20.6088 12.1562 20.6088C12.3794 20.6088 12.5894 20.6219 12.8125 20.6481ZM22 32.4212H2.3125V30.4525C2.3125 25.7012 5.69875 21.7244 10.1875 20.8056V27.8275C10.1875 27.9325 10.2137 28.0244 10.2531 28.1162L11.5656 30.7412C11.6706 30.9644 11.9069 31.1087 12.1562 31.1087C12.4056 31.1087 12.6287 30.9644 12.7469 30.7412L14.0594 28.1162C14.0988 28.0244 14.125 27.9194 14.125 27.8275V20.8056C18.6138 21.7244 22 25.7012 22 30.4525V32.4212ZM32.9987 27.25H22.84C22.1444 24.94 20.7138 22.945 18.8369 21.5406C20.0706 18.535 22.7612 16.3169 25.9375 15.6606V22.6562C25.9375 22.7612 25.9637 22.8531 26.0031 22.945L27.3156 25.57C27.4206 25.7931 27.6569 25.9375 27.9062 25.9375C28.1556 25.9375 28.3788 25.7931 28.4969 25.57L29.8094 22.945C29.8488 22.8531 29.875 22.7481 29.875 22.6562V15.6606C33.0775 16.3169 35.7812 18.5613 37.0019 21.5931C35.125 22.9975 33.6944 24.9662 32.9987 27.25ZM53.5 32.5H33.8125V30.5312C33.8125 25.78 37.1987 21.8031 41.6875 20.8844V27.9062C41.6875 28.0112 41.7137 28.1031 41.7531 28.195L43.0656 30.82C43.1706 31.0431 43.4069 31.1875 43.6562 31.1875C43.9056 31.1875 44.1287 31.0431 44.2469 30.82L45.5594 28.195C45.5988 28.1031 45.625 27.9981 45.625 27.9062V20.8844C50.1138 21.8031 53.5 25.78 53.5 30.5312V32.5Z" fill="#7133AD"/>
<path d="M46.9637 19.8737C49.2869 18.6662 50.875 16.2513 50.875 13.4688C50.875 9.49187 47.6331 6.25 43.6562 6.25C39.6794 6.25 36.4375 9.49187 36.4375 13.4688C36.4375 16.2513 38.0256 18.6794 40.3488 19.8737C39.5612 20.1231 38.8263 20.4512 38.1175 20.8581C36.8312 17.8787 34.2719 15.595 31.1875 14.6369C33.5238 13.4425 35.125 11.0144 35.125 8.21875C35.125 4.24187 31.8831 1 27.9062 1C23.9294 1 20.6875 4.24187 20.6875 8.21875C20.6875 11.0144 22.2887 13.4425 24.625 14.6369C21.5669 15.595 19.0206 17.8525 17.7213 20.7925C17.0125 20.3856 16.2644 20.0444 15.4638 19.795C17.7869 18.5875 19.375 16.1725 19.375 13.39C19.375 9.41313 16.1331 6.17125 12.1562 6.17125C8.17938 6.17125 4.9375 9.41313 4.9375 13.39C4.9375 16.1725 6.52562 18.6006 8.84875 19.795C4.3075 21.2125 1 25.4519 1 30.4525V33.0775C1 33.445 1.28875 33.7337 1.65625 33.7337H22.6562C23.0238 33.7337 23.3125 33.445 23.3125 33.0775V30.4525C23.3125 29.8094 23.2469 29.1794 23.1419 28.5625H32.6838C32.5656 29.2056 32.5 29.8619 32.5 30.5312V33.1562C32.5 33.5238 32.7887 33.8125 33.1562 33.8125H54.1562C54.5238 33.8125 54.8125 33.5238 54.8125 33.1562V30.5312C54.8125 25.5306 51.505 21.2912 46.9637 19.8737ZM37.75 13.4688C37.75 10.2137 40.4012 7.5625 43.6562 7.5625C46.9113 7.5625 49.5625 10.2137 49.5625 13.4688C49.5625 16.7238 46.9113 19.375 43.6562 19.375C40.4012 19.375 37.75 16.7238 37.75 13.4688ZM44.3125 20.7269V27.7619L43.6562 29.0744L43 27.7619V20.7269C43.2231 20.7138 43.4331 20.6875 43.6562 20.6875C43.8794 20.6875 44.0894 20.7006 44.3125 20.7269ZM22 8.21875C22 4.96375 24.6513 2.3125 27.9062 2.3125C31.1612 2.3125 33.8125 4.96375 33.8125 8.21875C33.8125 11.4738 31.1613 14.125 27.9194 14.125H27.9062C24.6513 14.125 22 11.4738 22 8.21875ZM28.5625 15.4769V22.4987L27.9062 23.8112L27.25 22.4987V15.4769C27.6831 15.4506 28.1294 15.4506 28.5625 15.4769ZM6.25 13.39C6.25 10.135 8.90125 7.48375 12.1562 7.48375C15.4113 7.48375 18.0625 10.135 18.0625 13.39C18.0625 16.645 15.4113 19.2963 12.1562 19.2963C8.90125 19.2963 6.25 16.645 6.25 13.39ZM12.8125 20.6481V27.6831L12.1562 28.9956L11.5 27.6831V20.6481C11.7231 20.635 11.9331 20.6088 12.1562 20.6088C12.3794 20.6088 12.5894 20.6219 12.8125 20.6481ZM22 32.4212H2.3125V30.4525C2.3125 25.7012 5.69875 21.7244 10.1875 20.8056V27.8275C10.1875 27.9325 10.2137 28.0244 10.2531 28.1162L11.5656 30.7412C11.6706 30.9644 11.9069 31.1087 12.1562 31.1087C12.4056 31.1087 12.6287 30.9644 12.7469 30.7412L14.0594 28.1162C14.0988 28.0244 14.125 27.9194 14.125 27.8275V20.8056C18.6138 21.7244 22 25.7012 22 30.4525V32.4212ZM32.9987 27.25H22.84C22.1444 24.94 20.7138 22.945 18.8369 21.5406C20.0706 18.535 22.7612 16.3169 25.9375 15.6606V22.6562C25.9375 22.7612 25.9637 22.8531 26.0031 22.945L27.3156 25.57C27.4206 25.7931 27.6569 25.9375 27.9062 25.9375C28.1556 25.9375 28.3788 25.7931 28.4969 25.57L29.8094 22.945C29.8488 22.8531 29.875 22.7481 29.875 22.6562V15.6606C33.0775 16.3169 35.7812 18.5613 37.0019 21.5931C35.125 22.9975 33.6944 24.9662 32.9987 27.25ZM53.5 32.5H33.8125V30.5312C33.8125 25.78 37.1987 21.8031 41.6875 20.8844V27.9062C41.6875 28.0112 41.7137 28.1031 41.7531 28.195L43.0656 30.82C43.1706 31.0431 43.4069 31.1875 43.6562 31.1875C43.9056 31.1875 44.1287 31.0431 44.2469 30.82L45.5594 28.195C45.5988 28.1031 45.625 27.9981 45.625 27.9062V20.8844C50.1138 21.8031 53.5 25.78 53.5 30.5312V32.5Z" stroke="#7133AD" mask="url(#path-2-outside-1_24_29)"/>
<path d="M46.8375 30.6413C46.8375 31.064 47.171 31.3975 47.5938 31.3975H51.5312C51.954 31.3975 52.2875 31.064 52.2875 30.6413C52.2875 30.2185 51.954 29.885 51.5312 29.885H47.5938C47.171 29.885 46.8375 30.2185 46.8375 30.6413Z" fill="url(#paint2_linear_24_29)" stroke="url(#paint3_linear_24_29)" stroke-width="0.2"/>
<defs>
<linearGradient id="paint0_linear_24_29" x1="18.0625" y1="29.9062" x2="18.0625" y2="31.2188" gradientUnits="userSpaceOnUse">
<stop stop-color="#8845C9"/>
<stop offset="1" stop-color="#5387A4"/>
</linearGradient>
<linearGradient id="paint1_linear_24_29" x1="18.0625" y1="29.9062" x2="18.0625" y2="31.2188" gradientUnits="userSpaceOnUse">
<stop stop-color="#8845C9"/>
<stop offset="1" stop-color="#5387A4"/>
</linearGradient>
<linearGradient id="paint2_linear_24_29" x1="49.5625" y1="29.985" x2="49.5625" y2="31.2975" gradientUnits="userSpaceOnUse">
<stop stop-color="#8845C9"/>
<stop offset="1" stop-color="#5387A4"/>
</linearGradient>
<linearGradient id="paint3_linear_24_29" x1="49.5625" y1="29.985" x2="49.5625" y2="31.2975" gradientUnits="userSpaceOnUse">
<stop stop-color="#8845C9"/>
<stop offset="1" stop-color="#5387A4"/>
</linearGradient>
</defs>
</svg>
