<?xml version="1.0" encoding="utf-8"?>
<!-- Generator: Adobe Illustrator 25.2.1, SVG Export Plug-In . SVG Version: 6.00 Build 0)  -->
<svg version="1.1" id="Layer_1" xmlns="http://www.w3.org/2000/svg" xmlns:xlink="http://www.w3.org/1999/xlink" x="0px" y="0px"
	 viewBox="0 0 816.2 621" style="enable-background:new 0 0 816.2 621;" xml:space="preserve">
<style type="text/css">
	.st0{fill:#3F3D56;}
	.st1{fill:#FFFFFF;}
	.st2{fill:#CBCBCB;}
	.st3{fill:#F1F1F1;}
	.st4{fill:#FFB6B6;}
	.st5{fill:#045BA7;}
</style>
<path class="st0" d="M543.2,168.3h-3V86.7c0-26.1-21.1-47.2-47.2-47.2l0,0H320.2c-26.1,0-47.2,21.1-47.2,47.2v447.5
	c0,26.1,21.1,47.2,47.2,47.2l0,0H493c26.1,0,47.2-21.1,47.2-47.2V226.3h3V168.3z"/>
<path class="st1" d="M494.9,51.8h-22.6c3.5,8.6-0.6,18.3-9.2,21.8c-2,0.8-4.2,1.2-6.3,1.2h-99c-9.3,0-16.7-7.5-16.7-16.8
	c0-2.2,0.4-4.3,1.2-6.3h-21.1C301.8,51.8,286,67.6,286,87c0,0,0,0,0,0v446.8c0,19.5,15.8,35.3,35.3,35.3l0,0h173.7
	c19.5,0,35.3-15.8,35.3-35.3l0,0V87C530.2,67.6,514.4,51.8,494.9,51.8C494.9,51.8,494.9,51.8,494.9,51.8z"/>
<path class="st2" d="M598.6,581.5h-381c-0.6,0-1-0.4-1-1s0.4-1,1-1h381c0.6,0,1,0.4,1,1S599.2,581.5,598.6,581.5z"/>
<path class="st3" d="M694.2,550.3c1-1.7,2.2-3.2,3.6-4.6c0.6-0.6,1.2-1.1,1.8-1.7c11.6-10.3,29.4-9.3,39.7,2.3
	c3.4,3.9,5.7,8.6,6.7,13.7c4.1-15.3-6.6-30.3-17.4-41.8c-10.8-11.5-23.1-24.2-23.1-40c0-8.8,4.3-16.6,10.8-22.5
	c0.2-0.2,0.4-0.4,0.6-0.5c7.9-6.7,18-10.3,28.3-9.9c19.2,1,36,13.9,47.6,29.2c18.7,24.6,27,59.2,13.8,87.2
	c-11.5,24.7-36.1,39.3-61.3,51.1c-3.5,1.6-7,3.2-10.5,4.8c0,0,0,0-0.1,0c-0.2,0.1-0.3,0.1-0.5,0.2c-0.7,0.3-1.4,0.6-2.2,1l0.3,0.2
	l1,0.7c-0.4-0.2-0.7-0.4-1.1-0.6c-0.1-0.1-0.2-0.1-0.3-0.2c-12.3-7.4-24.8-15.2-33.4-26.8C690,580.2,686.4,563,694.2,550.3z"/>
<path class="st1" d="M776.5,522.4c2.7,6.2,4.5,12.8,5.4,19.5c0.7,6,0.4,12.1-0.7,18c-2.4,12.2-7.8,23.6-15.6,33.3
	c-5.9,7.4-12.7,14-20.2,19.6c-3.5,1.6-7,3.2-10.5,4.8c0,0,0,0-0.1,0c-0.2,0.1-0.3,0.1-0.5,0.2c-0.7,0.3-1.4,0.6-2.2,1l0.3,0.2l1,0.7
	c-0.4-0.2-0.7-0.4-1.1-0.6c-0.1-0.1-0.2-0.1-0.3-0.2c5.5-19.3,1.3-40-11.2-55.6c-6.2-7.6-14.1-13.6-23.1-17.6
	c0.6-0.6,1.2-1.1,1.8-1.7c3.5,1.6,6.8,3.5,9.9,5.7c11.2,7.7,19.6,18.9,24,31.7c3.9,11.7,4.4,24.2,1.4,36.2c0.6-0.4,1.2-0.8,1.8-1.2
	c11.5-7.7,22.1-17.1,30.1-28.5c6.9-9.6,11.3-20.8,12.8-32.6c1.5-12.8-1.7-25.5-7.4-36.9c-6.3-12.3-14.3-23.6-23.7-33.7
	c-9.4-10.4-20.1-19.5-31.8-27.3c-0.5-0.4-0.7-1.1-0.4-1.7c0.1-0.2,0.3-0.4,0.6-0.5c0.3-0.1,0.6,0,0.8,0.2c1.4,1,2.9,1.9,4.3,2.9
	c11.7,8.3,22.4,18.1,31.8,29C762.8,497.9,771,509.6,776.5,522.4z"/>
<ellipse id="ae2e9f9a-ed63-4994-961d-af4fbb6f5199" transform="matrix(0.2128 -0.9771 0.9771 0.2128 392.5495 529.7716)" class="st3" cx="525" cy="21.3" rx="17.9" ry="17.9"/>
<circle id="b777be60-18da-4893-88a8-55a275d98bc2" class="st3" cx="748" cy="268.3" r="10.9"/>
<circle id="a703acd2-aa23-4bff-9a86-75b7d9a928c1" class="st3" cx="428" cy="298.3" r="10.9"/>
<path class="st4" d="M413.4,259.5c0.1,0.6,0.2,1.2,0.3,1.9l49,28.2l11.9-6.9l12.7,16.6l-19.9,14.2c-3.3,2.4-7.8,2.2-10.9-0.3
	l-50.5-39.8c-6.2,2.3-13.1-0.9-15.4-7.1c-2.3-6.2,0.9-13.1,7.1-15.4s13.1,0.9,15.4,7.1C413.1,258.5,413.3,259,413.4,259.5
	L413.4,259.5z"/>
<path class="st1" d="M496.3,265.9c0-3.5-2.6-6.4-6-7L388,242.1c-1-0.2-2-0.1-2.9,0.1l-24,6.2l-13.8,3.6l-25.4,6.6
	c-3.2,0.8-5.4,3.7-5.4,6.9v83.9c0,3.4,2.4,6.3,5.7,7l104.3,22.2c0.5,0.1,1,0.2,1.5,0.2c0.7,0,1.5-0.1,2.2-0.3l61.9-19.6
	c3-0.9,5-3.7,5-6.9L496.3,265.9z"/>
<path class="st5" d="M386.8,248.3c-0.1,0-0.1,0-0.2,0l-63.2,16.3c-0.4,0.1-0.7,0.5-0.7,0.9v83.9c0,0.4,0.3,0.8,0.7,0.9l104.3,22.2
	c0.2,0,0.3,0,0.5,0l61.9-19.6c0.4-0.1,0.6-0.5,0.6-0.9l-0.7-86c0-0.4-0.3-0.8-0.7-0.9L387,248.3
	C386.9,248.3,386.9,248.3,386.8,248.3z"/>
<path class="st0" d="M496.3,265.9c0-3.5-2.6-6.4-6-7L388,242.1c-1-0.2-2-0.1-2.9,0.1l-24,6.2l-13.8,3.6l-25.4,6.6
	c-3.2,0.8-5.4,3.7-5.4,6.9v83.9c0,3.4,2.4,6.3,5.7,7l104.3,22.2c0.5,0.1,1,0.2,1.5,0.2c0.7,0,1.5-0.1,2.2-0.3l61.9-19.6
	c3-0.9,5-3.7,5-6.9L496.3,265.9z M491.5,357.1l-61.9,19.6c-0.9,0.3-1.8,0.3-2.7,0.1l-104.3-22.2c-2.5-0.5-4.2-2.7-4.2-5.2v-83.9
	c0-2.2,1.4-4.3,3.5-5c0.2-0.1,0.3-0.1,0.5-0.2l26.9-6.9l15.9-4.1l20.4-5.3c0.4-0.1,0.9-0.2,1.3-0.2c0.3,0,0.6,0,0.9,0.1l102.4,16.8
	c1.7,0.3,3.1,1.3,3.9,2.8c0.4,0.8,0.6,1.6,0.6,2.4l0.7,86C495.3,354.3,493.8,356.4,491.5,357.1L491.5,357.1z"/>
<path class="st0" d="M494,263.5c-0.1,0-0.1,0.1-0.2,0.1l-30.1,8.1l-9.4,2.5l-26.7,7.2c-0.1,0-0.2,0-0.2,0c-0.1,0-0.1,0-0.2,0
	l-107.5-19.6l-0.4-0.1c-0.5-0.1-0.8-0.6-0.7-1c0.1-0.5,0.6-0.8,1-0.7l2.2,0.4l105.5,19.2l23-6.2l12.9-3.5l29.6-8l0.5-0.1
	c0.4-0.1,0.9,0.1,1,0.5c0,0,0,0.1,0.1,0.1C494.5,262.9,494.3,263.3,494,263.5z"/>
<path class="st0" d="M428.3,378.9c-0.5,0-0.9-0.4-0.9-0.9l-0.9-97.4c0-0.5,0.4-0.9,0.9-0.9h0c0.5,0,0.9,0.4,0.9,0.9l0.9,97.4
	C429.2,378.5,428.8,378.9,428.3,378.9L428.3,378.9z"/>
<path class="st0" d="M463.6,367.1l-9.4,2.5l-4-96.1l-100.8-20.1c-0.1,0-0.2,0-0.3-0.1c-0.8-0.2-1.5-0.7-1.9-1.4l13.8-3.6l4,0.8
	l95.6,19c1,0.2,1.9,0.8,2.4,1.7C463.5,270.5,463.6,366.4,463.6,367.1z"/>
<path class="st1" d="M359,324.9c-0.1,0-0.2,0-0.3,0l-31-7c-0.8-0.2-1.3-1-1.1-1.8s1-1.3,1.8-1.1l31,7c0.8,0.2,1.3,1,1.1,1.8
	C360.3,324.4,359.7,324.9,359,324.9z"/>
<circle id="baf12095-0797-4180-a98d-6422936d747a" class="st5" cx="480.3" cy="361.8" r="46.9"/>
<path class="st1" d="M493.7,340.5L480.3,354l-13.4-13.4c-2.2-2.2-5.7-2.2-7.9,0s-2.2,5.7,0,7.9l13.4,13.4L459,375.3
	c-2.2,2.2-2.2,5.7,0,7.9c2.2,2.2,5.7,2.2,7.9,0l13.4-13.4l13.4,13.4c2.2,2.2,5.7,2.2,7.9,0c2.2-2.2,2.2-5.7,0-7.9l-13.4-13.4
	l13.4-13.4c2.2-2.2,2.2-5.7,0-7.9S495.9,338.4,493.7,340.5L493.7,340.5z"/>
</svg>
