<?xml version="1.0" encoding="utf-8"?>
<!-- Generator: Adobe Illustrator 25.2.1, SVG Export Plug-In . SVG Version: 6.00 Build 0)  -->
<svg version="1.1" id="Layer_1" xmlns="http://www.w3.org/2000/svg" xmlns:xlink="http://www.w3.org/1999/xlink" x="0px" y="0px"
	 viewBox="0 0 816.2 621" style="enable-background:new 0 0 816.2 621;" xml:space="preserve">
<style type="text/css">
	.st0{fill:#3F3D56;}
	.st1{fill:#FFFFFF;}
	.st2{fill:#CBCBCB;}
	.st3{fill:#F1F1F1;}
	.st4{fill:#E6E6E6;}
	.st5{fill:#535461;}
	.st6{fill:#6C63FF;}
</style>
<path class="st0" d="M543.2,168.3h-3V86.7c0-26.1-21.1-47.2-47.2-47.2l0,0H320.2c-26.1,0-47.2,21.1-47.2,47.2v447.5
	c0,26.1,21.1,47.2,47.2,47.2l0,0H493c26.1,0,47.2-21.1,47.2-47.2V226.3h3V168.3z"/>
<path class="st1" d="M494.9,51.8h-22.6c3.5,8.6-0.6,18.3-9.2,21.8c-2,0.8-4.2,1.2-6.3,1.2h-99c-9.3,0-16.7-7.5-16.7-16.8
	c0-2.2,0.4-4.3,1.2-6.3h-21.1C301.8,51.8,286,67.6,286,87l0,0v446.8c0,19.5,15.8,35.3,35.3,35.3l0,0H495c19.5,0,35.3-15.8,35.3-35.3
	l0,0V87C530.2,67.6,514.4,51.8,494.9,51.8L494.9,51.8z"/>
<path class="st2" d="M598.6,581.5h-381c-0.6,0-1-0.4-1-1s0.4-1,1-1h381c0.6,0,1,0.4,1,1S599.2,581.5,598.6,581.5z"/>
<path class="st3" d="M694.2,550.3c1-1.7,2.2-3.2,3.6-4.6c0.6-0.6,1.2-1.1,1.8-1.7c11.6-10.3,29.4-9.3,39.7,2.3
	c3.4,3.9,5.7,8.6,6.7,13.7c4.1-15.3-6.6-30.3-17.4-41.8c-10.8-11.5-23.1-24.2-23.1-40c0-8.8,4.3-16.6,10.8-22.5
	c0.2-0.2,0.4-0.4,0.6-0.5c7.9-6.7,18-10.3,28.3-9.9c19.2,1,36,13.9,47.6,29.2c18.7,24.6,27,59.2,13.8,87.2
	c-11.5,24.7-36.1,39.3-61.3,51.1c-3.5,1.6-7,3.2-10.5,4.8c0,0,0,0-0.1,0c-0.2,0.1-0.3,0.1-0.5,0.2c-0.7,0.3-1.4,0.6-2.2,1l0.3,0.2
	l1,0.7c-0.4-0.2-0.7-0.4-1.1-0.6c-0.1-0.1-0.2-0.1-0.3-0.2c-12.3-7.4-24.8-15.2-33.4-26.8C690,580.2,686.4,563,694.2,550.3z"/>
<path class="st1" d="M776.5,522.4c2.7,6.2,4.5,12.8,5.4,19.5c0.7,6,0.4,12.1-0.7,18c-2.4,12.2-7.8,23.6-15.6,33.3
	c-5.9,7.4-12.7,14-20.2,19.6c-3.5,1.6-7,3.2-10.5,4.8c0,0,0,0-0.1,0c-0.2,0.1-0.3,0.1-0.5,0.2c-0.7,0.3-1.4,0.6-2.2,1l0.3,0.2l1,0.7
	c-0.4-0.2-0.7-0.4-1.1-0.6c-0.1-0.1-0.2-0.1-0.3-0.2c5.5-19.3,1.3-40-11.2-55.6c-6.2-7.6-14.1-13.6-23.1-17.6
	c0.6-0.6,1.2-1.1,1.8-1.7c3.5,1.6,6.8,3.5,9.9,5.7c11.2,7.7,19.6,18.9,24,31.7c3.9,11.7,4.4,24.2,1.4,36.2c0.6-0.4,1.2-0.8,1.8-1.2
	c11.5-7.7,22.1-17.1,30.1-28.5c6.9-9.6,11.3-20.8,12.8-32.6c1.5-12.8-1.7-25.5-7.4-36.9c-6.3-12.3-14.3-23.6-23.7-33.7
	c-9.4-10.4-20.1-19.5-31.8-27.3c-0.5-0.4-0.7-1.1-0.4-1.7c0.1-0.2,0.3-0.4,0.6-0.5s0.6,0,0.8,0.2c1.4,1,2.9,1.9,4.3,2.9
	c11.7,8.3,22.4,18.1,31.8,29C762.8,497.9,771,509.6,776.5,522.4z"/>
<ellipse id="ae2e9f9a-ed63-4994-961d-af4fbb6f5199" transform="matrix(0.3978 -0.9175 0.9175 0.3978 296.6473 494.5955)" class="st3" cx="525.1" cy="21.3" rx="17.9" ry="17.9"/>
<circle id="b777be60-18da-4893-88a8-55a275d98bc2" class="st3" cx="748" cy="268.3" r="10.9"/>
<circle id="a703acd2-aa23-4bff-9a86-75b7d9a928c1" class="st3" cx="428" cy="298.3" r="10.9"/>
<path class="st1" d="M359,324.9c-0.1,0-0.2,0-0.3,0l-31-7c-0.8-0.2-1.3-1-1.1-1.8s1-1.3,1.8-1.1l31,7c0.8,0.2,1.3,1,1.1,1.8
	C360.3,324.4,359.7,324.9,359,324.9z"/>
<path class="st1" d="M493.7,340.5L480.3,354l-13.4-13.4c-2.2-2.2-5.7-2.2-7.9,0s-2.2,5.7,0,7.9l13.4,13.4L459,375.3
	c-2.2,2.2-2.2,5.7,0,7.9c2.2,2.2,5.7,2.2,7.9,0l13.4-13.4l13.4,13.4c2.2,2.2,5.7,2.2,7.9,0c2.2-2.2,2.2-5.7,0-7.9l-13.4-13.4
	l13.4-13.4c2.2-2.2,2.2-5.7,0-7.9S495.9,338.4,493.7,340.5L493.7,340.5z"/>
<path class="st4" d="M493.3,337.7l-3.6-1.2c2.7-8.2,3.9-16.8,3.8-25.4c-0.8-42.3-35.9-76.1-78.3-75.3s-76.1,35.9-75.3,78.3
	c0.2,8.1,1.6,16.1,4.2,23.7l-3.6,1.2c-14.6-42.1,7.7-87.9,49.8-102.5c42.1-14.6,87.9,7.7,102.5,49.8
	C498.6,303,498.8,321,493.3,337.7z"/>
<path class="st4" d="M362.4,306.7c-15,0.3-26.8,12.7-26.5,27.6s12.7,26.8,27.6,26.5l6.7-0.1l-1.1-54.2L362.4,306.7z"/>
<path class="st5" d="M369.2,302.7c-3.3,0.1-6,2.8-5.9,6.2l1,49.7c0.1,3.3,2.8,6,6.2,5.9c3.3-0.1,6-2.8,5.9-6.2l0,0l-1-49.7
	C375.3,305.3,372.6,302.7,369.2,302.7z"/>
<path class="st4" d="M465.1,358.8l6.7-0.1c15-0.3,26.8-12.7,26.5-27.6c-0.3-15-12.7-26.8-27.6-26.5l-6.7,0.1L465.1,358.8z"/>
<path class="st5" d="M463.8,300.9c-3.3,0.1-6,2.8-5.9,6.2l1,49.7c0.1,3.3,2.8,6,6.2,5.9c3.3-0.1,6-2.8,5.9-6.2l0,0l-1-49.7
	C469.8,303.4,467.1,300.8,463.8,300.9z"/>
<polygon class="st6" points="488.8,189 411.7,189 411.7,245.7 411.8,245.7 411.8,257 423.1,245.7 488.8,245.7 "/>
<polygon class="st1" points="447.6,229.5 437.7,216.8 443.4,212.4 448.1,218.3 463.8,201.7 469.1,206.7 "/>
</svg>
