<svg width="40" height="47" viewBox="0 0 40 47" fill="none" xmlns="http://www.w3.org/2000/svg">
<path d="M40 20C40 31.0457 31.0457 40 20 40C8.95431 40 0 31.0457 0 20C0 8.95431 8.95431 0 20 0C31.0457 0 40 8.95431 40 20Z" fill="#3077B9"/>
<path d="M26.401 9.57617H13.7677C13.2092 9.57617 12.6737 9.80539 12.2788 10.2134C11.8839 10.6214 11.6621 11.1748 11.6621 11.7518V26.2558C11.6621 26.5616 11.7246 26.864 11.8456 27.1432C11.9665 27.4224 12.1432 27.672 12.364 27.8757V28.7033C12.364 29.0159 12.4841 29.3156 12.698 29.5366C12.9119 29.7576 13.202 29.8818 13.5045 29.8818H14.7327C15.0352 29.8818 15.3253 29.7576 15.5392 29.5366C15.7531 29.3156 15.8732 29.0159 15.8732 28.7033V28.4314H24.2954V28.7033C24.2954 29.0159 24.4156 29.3156 24.6295 29.5366C24.8434 29.7576 25.1335 29.8818 25.4359 29.8818H26.6642C26.9667 29.8818 27.2567 29.7576 27.4706 29.5366C27.6845 29.3156 27.8047 29.0159 27.8047 28.7033V27.8757C28.0255 27.672 28.2021 27.4224 28.3231 27.1432C28.444 26.864 28.5065 26.5616 28.5065 26.2558V11.7518C28.5065 11.1748 28.2847 10.6214 27.8898 10.2134C27.495 9.80539 26.9594 9.57617 26.401 9.57617ZM15.3236 26.2476C15.0347 26.2801 14.7432 26.2191 14.4892 26.0732C14.2353 25.9272 14.0315 25.7033 13.9059 25.4326C13.7803 25.1618 13.7391 24.8574 13.7881 24.5614C13.837 24.2654 13.9737 23.9925 14.1791 23.7801C14.3846 23.5678 14.6488 23.4266 14.9353 23.3761C15.2217 23.3255 15.5163 23.368 15.7783 23.4978C16.0404 23.6275 16.257 23.8381 16.3983 24.1005C16.5396 24.3629 16.5986 24.6641 16.5672 24.9627C16.5326 25.2912 16.3904 25.5976 16.1643 25.8313C15.9381 26.065 15.6415 26.2119 15.3236 26.2476ZM19.207 21.1794H13.7677C13.5815 21.1794 13.403 21.103 13.2714 20.967C13.1398 20.831 13.0658 20.6465 13.0658 20.4542V14.6526C13.0658 14.4602 13.1398 14.2758 13.2714 14.1398C13.403 14.0038 13.5815 13.9274 13.7677 13.9274H19.207C19.2535 13.9274 19.2982 13.9465 19.3311 13.9805C19.364 14.0145 19.3825 14.0606 19.3825 14.1087V20.9981C19.3825 21.0462 19.364 21.0923 19.3311 21.1263C19.2982 21.1603 19.2535 21.1794 19.207 21.1794ZM20.0843 12.477H13.7878C13.4106 12.477 13.086 12.1778 13.0667 11.7885C13.0619 11.6903 13.0764 11.5921 13.1095 11.4999C13.1425 11.4077 13.1934 11.3234 13.259 11.2521C13.3245 11.1809 13.4034 11.1241 13.4909 11.0853C13.5783 11.0466 13.6725 11.0266 13.7677 11.0266H26.3808C26.758 11.0266 27.0826 11.3257 27.102 11.7151C27.1068 11.8133 27.0922 11.9114 27.0592 12.0037C27.0261 12.0959 26.9752 12.1802 26.9097 12.2514C26.8441 12.3227 26.7652 12.3794 26.6778 12.4182C26.5903 12.457 26.4961 12.477 26.401 12.477H20.0843ZM20.9616 13.9274H26.401C26.5871 13.9274 26.7656 14.0038 26.8973 14.1398C27.0289 14.2758 27.1028 14.4602 27.1028 14.6526V20.4542C27.1028 20.6465 27.0289 20.831 26.8973 20.967C26.7656 21.103 26.5871 21.1794 26.401 21.1794H20.9616C20.9151 21.1794 20.8705 21.1603 20.8376 21.1263C20.8047 21.0923 20.7862 21.0462 20.7862 20.9981V14.1087C20.7862 14.0606 20.8047 14.0145 20.8376 13.9805C20.8705 13.9465 20.9151 13.9274 20.9616 13.9274ZM23.6015 24.9627C23.57 24.6641 23.629 24.3629 23.7703 24.1005C23.9116 23.8381 24.1282 23.6275 24.3903 23.4978C24.6523 23.368 24.9469 23.3255 25.2334 23.3761C25.5198 23.4266 25.784 23.5678 25.9895 23.7801C26.195 23.9925 26.3316 24.2654 26.3806 24.5614C26.4295 24.8574 26.3884 25.1618 26.2628 25.4326C26.1372 25.7033 25.9334 25.9272 25.6794 26.0732C25.4255 26.2191 25.134 26.2801 24.8451 26.2476C24.5271 26.2119 24.2305 26.065 24.0044 25.8313C23.7782 25.5976 23.6361 25.2912 23.6015 24.9627Z" fill="white"/>
<path d="M16.25 39.4595C16.1401 39.2794 16.2689 39.0483 16.4799 39.0471L23.9987 39.003C24.2086 39.0018 24.3402 39.2292 24.2346 39.4106L20.551 45.7384C20.4477 45.9159 20.1923 45.9185 20.0853 45.7433L16.25 39.4595Z" fill="#3077B9"/>
</svg>
