<svg width="158" height="95" viewBox="0 0 158 95" fill="none" xmlns="http://www.w3.org/2000/svg">
<g opacity="0.7">
<path d="M38.6473 47.2969C38.6473 47.2969 27.3456 31.1747 22.9286 33.2649C18.5116 35.3551 38.6473 47.2969 38.6473 47.2969Z" fill="#A8D29F"/>
<path d="M37.9282 42.9642C37.9282 42.9642 36.2017 30.8421 33.4802 31.3173C30.7588 31.7933 37.9282 42.9642 37.9282 42.9642Z" fill="#A8D29F"/>
<path d="M28.373 80.7475C28.373 80.7475 29.4593 75.3535 25.2408 74.6757C25.2408 74.6757 22.3792 74.5759 20.6947 75.6572C20.6947 75.6572 25.4797 78.4259 24.9103 79.2863C24.341 80.1466 19.8008 75.8161 19.8008 75.8161C19.8008 75.8161 14.6714 78.0675 13.5268 79.6979C13.5268 79.6979 19.5884 80.78 18.8251 81.474C18.0625 82.1673 11.7029 81.3351 11.7029 81.3351C11.7029 81.3351 7.60456 84.6433 9.38935 87.2767C11.1741 89.9102 13.2112 89.8917 13.8557 89.4335C14.5003 88.9759 17.6569 85.1947 18.0581 85.7091C18.4593 86.2235 17.0706 89.4157 15.4274 90.449C15.4274 90.449 20.5878 92.1903 22.1417 89.9834C23.6957 87.7771 22.9773 86.0609 23.9626 84.715C24.948 83.3691 26.0778 82.7379 25.8758 83.6618C25.6737 84.5849 23.6145 86.5258 23.6057 88.2901C23.5968 90.0543 23.422 91.3389 25.4332 89.7786C27.4444 88.2184 30.115 84.6108 29.244 82.6795L28.373 80.7482V80.7475Z" fill="#82B378"/>
<path d="M11.6557 86.1053C11.6557 86.1053 23.6912 78.7438 28.373 80.7482C28.373 80.7482 29.9793 82.2146 32.7427 82.8222L33.4699 83.4475C33.4699 83.4475 30.0833 82.3883 29.244 82.6795C29.244 82.6795 28.002 77.644 11.6557 86.106V86.1053Z" fill="#82B378"/>
<path d="M32.7427 82.8215C32.7427 82.8215 36.4738 83.2997 38.606 86.6936L38.1509 87.0048C38.1509 87.0048 35.2923 83.8621 32.9802 83.3011C30.6681 82.7409 32.7427 82.8215 32.7427 82.8215Z" fill="#82B378"/>
<path d="M32.0568 65.0081C32.0568 65.0081 40.7964 60.1034 36.7179 53.447C36.7179 53.447 33.4552 49.3597 29.9593 48.3087C29.9593 48.3087 31.8238 58.2349 29.9593 58.4685C28.0949 58.702 28.6775 47.2577 28.6775 47.2577C28.6775 47.2577 19.4719 42.8201 15.8595 43.1704C15.8595 43.1704 21.5694 52.8631 19.7049 52.6295C17.8405 52.396 11.4315 42.5865 11.4315 42.5865C11.4315 42.5865 1.99279 40.8348 0.477939 46.4402C-1.03692 52.0456 1.41016 54.8483 2.80848 55.1986C4.20681 55.549 13.1794 55.4322 12.9464 56.6C12.7133 57.7678 6.65388 59.6363 3.27459 58.5852C3.27459 58.5852 7.00347 67.8108 11.8976 67.3437C16.7918 66.8765 18.3066 63.8403 21.3363 63.6067C24.366 63.3732 26.5801 64.1906 25.0652 65.0081C23.5503 65.8255 18.4231 65.2756 15.9761 67.3607C13.529 69.4457 11.548 70.7303 16.0926 71.6645C20.6372 72.5987 28.7941 72.0148 30.4255 68.5115L32.0568 65.0081Z" fill="#A8D29F"/>
<path d="M4.78946 48.1919C4.78946 48.1919 29.2602 56.1329 32.0569 65.0081C32.0569 65.0081 31.9403 68.9786 34.3874 73.533V75.2846C34.3874 75.2846 31.8238 69.3289 30.4255 68.5115C30.4255 68.5115 35.9023 60.8041 4.78946 48.1919Z" fill="#82B378"/>
<path d="M34.3874 73.533C34.3874 73.533 38.1613 79.2758 36.0099 86.267L35.0394 86.0054C35.0394 86.0054 35.9819 78.3054 34.0076 74.4325C32.0333 70.5595 34.3881 73.5322 34.3881 73.5322L34.3874 73.533Z" fill="#82B378"/>
<path d="M40.9395 23.9721L27.8634 91.7202C27.5971 93.0979 28.651 94.3773 30.0516 94.3773H36.9481L40.9402 23.9721H40.9395Z" fill="#ED7D2B"/>
<path d="M119.132 49.2502C119.132 49.2502 113.25 45.4904 116.352 41.0247C116.352 41.0247 118.783 38.3129 121.256 37.7224C121.256 37.7224 119.564 44.5503 120.851 44.7868C122.138 45.024 122.189 37.0424 122.189 37.0424C122.189 37.0424 128.767 34.3247 131.265 34.7127C131.265 34.7127 126.908 41.2243 128.214 41.1363C129.52 41.0484 134.367 34.4836 134.367 34.4836C134.367 34.4836 141 33.6432 141.831 37.6019C142.66 41.5606 140.847 43.4113 139.861 43.599C138.875 43.7868 132.64 43.3463 132.756 44.1681C132.872 44.9893 137.011 46.5311 139.403 45.9353C139.403 45.9353 136.442 52.2015 133.058 51.6804C129.673 51.1601 128.74 48.9879 126.644 48.704C124.546 48.4202 122.974 48.9006 123.995 49.5296C125.016 50.1586 128.603 49.982 130.222 51.5289C131.841 53.0766 133.167 54.0493 129.97 54.5171C126.773 54.985 121.123 54.2525 120.129 51.7514L119.134 49.2502H119.132Z" fill="#C7DCFB"/>
<path d="M147.49 32.7631C147.49 32.7631 130.158 37.3064 127.86 43.3656C127.86 43.3656 127.783 46.1313 125.9 49.2001L125.83 50.4182C125.83 50.4182 127.85 46.3789 128.854 45.8667C128.854 45.8667 125.352 40.2879 147.49 32.7631H147.49Z" fill="#C7DCFB"/>
<path d="M125.9 49.2001C125.9 49.2001 123.047 53.0427 124.265 57.9903L124.95 57.8477C124.95 57.8477 124.601 52.4559 126.128 49.8416C127.656 47.2274 125.9 49.2008 125.9 49.2008V49.2001Z" fill="#C7DCFB"/>
<path d="M112.023 27.0446C112.023 27.0446 102.987 25.0556 104.812 18.0762C104.812 18.0762 106.603 13.5869 109.413 11.7192C109.413 11.7192 110.419 20.9942 112.129 20.7001C113.839 20.4059 110.264 10.4457 110.264 10.4457C110.264 10.4457 117.215 4.05093 120.503 3.39017C120.503 3.39017 118.047 13.4915 119.632 12.7842C121.218 12.0769 124.26 1.68431 124.26 1.68431C124.26 1.68431 132.135 -2.39852 134.973 2.14921C137.811 6.69767 136.397 9.83223 135.255 10.5174C134.113 11.2025 126.15 13.5085 126.668 14.4783C127.187 15.448 133.043 15.4724 135.748 13.6357C135.748 13.6357 134.919 22.7925 130.468 23.6935C126.017 24.5952 123.866 22.318 121.125 22.9248C118.384 23.5316 116.646 24.8494 118.204 25.165C119.761 25.4806 124.147 23.6181 126.867 24.8043C129.588 25.9899 131.683 26.5937 127.915 28.6403C124.148 30.6869 116.781 32.361 114.403 29.7024L112.023 27.0438V27.0446Z" fill="#DFEBFD"/>
<path d="M131.631 4.85654C131.631 4.85654 112.122 18.448 112.023 27.0445C112.023 27.0445 113.188 30.5228 112.242 35.2065L112.711 36.7549C112.711 36.7549 113.384 30.8014 114.402 29.7039C114.402 29.7039 107.499 24.3616 131.63 4.85728L131.631 4.85654Z" fill="#DFEBFD"/>
<path d="M112.243 35.2058C112.243 35.2058 110.443 41.296 114.214 46.8977L115.002 46.4062C115.002 46.4062 112.11 39.8526 112.82 35.8991C113.529 31.9456 112.243 35.2058 112.243 35.2058Z" fill="#DFEBFD"/>
<path d="M41.0966 23.6979L32.4293 90.2153C32.1417 92.4208 33.8556 94.3765 36.0748 94.3765H48.7896L41.6209 23.4569L41.0966 23.6971V23.6979Z" fill="#78ACEA"/>
<path d="M41.0966 23.6979L37.2165 89.7919C37.0705 92.2797 39.0441 94.3773 41.531 94.3773H60.4939L41.0966 23.6979Z" fill="#699DEE"/>
<path d="M40.9513 24.2375L42.8378 89.7919C42.6918 92.2797 44.6654 94.3773 47.1523 94.3773H66.1153L40.9513 24.2375Z" fill="#5288D8"/>
<path d="M131.742 94.3773H56.9723C55.1056 94.3773 53.5052 93.0402 53.1697 91.1999L41.7928 28.8473C41.2765 26.0165 43.4455 23.4082 46.3174 23.4082H120.206C122.073 23.4082 123.673 24.7452 124.009 26.5856L135.544 89.8059C135.979 92.1851 134.155 94.3773 131.742 94.3773Z" fill="#D7E9FF"/>
<path d="M43.2722 36.9456H125.951L123.831 25.1731C123.647 24.1517 122.76 23.4089 121.725 23.4089H41.6408C41.2035 23.4089 40.8723 23.8065 40.9513 24.2374L43.2722 36.9449V36.9456Z" fill="#F99746"/>
<path d="M45.2053 19.8664C43.2287 19.8664 41.6209 21.4769 41.6209 23.4577H42.3098C42.3098 21.8575 43.6085 20.5552 45.206 20.5552C46.8035 20.5552 48.103 21.8568 48.103 23.4577C48.103 23.7792 48.0506 24.0881 47.954 24.3764C47.6693 25.2293 47.0004 25.9071 46.153 26.2005C45.9052 26.2863 45.6433 26.3409 45.3712 26.3557V27.0461C45.6891 27.032 45.9959 26.9758 46.2872 26.8835C47.4495 26.5146 48.3581 25.5656 48.6723 24.3771C48.7498 24.0837 48.7911 23.7755 48.7911 23.4584C48.7911 21.4776 47.1833 19.8671 45.2067 19.8671L45.2053 19.8664Z" fill="#78ACEA"/>
<path d="M46.3138 26.675C46.3138 26.7467 46.3034 26.8169 46.2857 26.8827C46.195 27.2116 45.8941 27.4533 45.5372 27.4533C45.1087 27.4533 44.7613 27.1052 44.7613 26.6757C44.7613 26.2463 45.1087 25.8982 45.5372 25.8982C45.7872 25.8982 46.0092 26.0172 46.1515 26.2012C46.2533 26.3328 46.313 26.4976 46.313 26.6765L46.3138 26.675Z" fill="#78ACEA"/>
<path d="M58.0572 19.8664C56.0807 19.8664 54.4729 21.4769 54.4729 23.4577H55.161C55.161 21.8575 56.4605 20.5552 58.0579 20.5552C59.6554 20.5552 60.9541 21.8568 60.9541 23.4577C60.9541 23.7792 60.9018 24.0881 60.8052 24.3764C60.5205 25.2293 59.8516 25.9071 59.0056 26.2005C58.7578 26.2863 58.4953 26.3409 58.2224 26.3557V27.0461C58.5403 27.032 58.8471 26.9758 59.1384 26.8835C60.3014 26.5146 61.2101 25.5656 61.5242 24.3771C61.6017 24.0837 61.643 23.7755 61.643 23.4584C61.643 21.4776 60.0352 19.8671 58.0587 19.8671L58.0572 19.8664Z" fill="#78ACEA"/>
<path d="M59.1649 26.675C59.1649 26.7467 59.1546 26.8169 59.1369 26.8827C59.0462 27.2116 58.746 27.4533 58.3883 27.4533C57.9598 27.4533 57.6125 27.1052 57.6125 26.6757C57.6125 26.2463 57.9598 25.8982 58.3883 25.8982C58.6391 25.8982 58.8611 26.0172 59.0034 26.2012C59.1044 26.3328 59.1642 26.4976 59.1642 26.6765L59.1649 26.675Z" fill="#78ACEA"/>
<path d="M70.9084 19.8664C68.9318 19.8664 67.3241 21.4769 67.3241 23.4577H68.0122C68.0122 21.8575 69.3109 20.5552 70.9091 20.5552C72.5073 20.5552 73.8053 21.8568 73.8053 23.4577C73.8053 23.7792 73.753 24.0881 73.6564 24.3764C73.3717 25.2293 72.7028 25.9071 71.8568 26.2005C71.609 26.2863 71.3465 26.3409 71.0736 26.3557V27.0461C71.3907 27.032 71.6983 26.9758 71.9896 26.8835C73.1534 26.5139 74.0605 25.5656 74.3747 24.3771C74.4521 24.0837 74.4934 23.7755 74.4934 23.4584C74.4934 21.4776 72.8857 19.8671 70.9099 19.8671L70.9084 19.8664Z" fill="#78ACEA"/>
<path d="M72.0169 26.675C72.0169 26.7467 72.0065 26.8169 71.9888 26.8827C71.8981 27.2116 71.5972 27.4533 71.2403 27.4533C70.8118 27.4533 70.4644 27.1052 70.4644 26.6757C70.4644 26.2463 70.8118 25.8982 71.2403 25.8982C71.4903 25.8982 71.7123 26.0172 71.8553 26.2012C71.9564 26.3328 72.0161 26.4976 72.0161 26.6765L72.0169 26.675Z" fill="#78ACEA"/>
<path d="M83.7596 19.8664C81.783 19.8664 80.176 21.4769 80.176 23.4577H80.8641C80.8641 21.8575 82.1629 20.5552 83.7603 20.5552C85.3578 20.5552 86.6573 21.8568 86.6573 23.4577C86.6573 23.7792 86.6049 24.0881 86.5083 24.3764C86.2236 25.2293 85.5547 25.9071 84.7073 26.2005C84.4595 26.2863 84.1977 26.3409 83.9255 26.3557V27.0461C84.2426 27.032 84.5502 26.9758 84.8415 26.8835C86.0053 26.5139 86.9125 25.5656 87.2266 24.3771C87.3041 24.0837 87.3454 23.7755 87.3454 23.4584C87.3454 21.4776 85.7376 19.8671 83.7611 19.8671L83.7596 19.8664Z" fill="#78ACEA"/>
<path d="M84.8681 26.675C84.8681 26.7467 84.8577 26.8169 84.84 26.8827C84.7493 27.2116 84.4484 27.4533 84.0915 27.4533C83.663 27.4533 83.3156 27.1052 83.3156 26.6757C83.3156 26.2463 83.663 25.8982 84.0915 25.8982C84.3415 25.8982 84.5635 26.0172 84.7058 26.2012C84.8076 26.3328 84.8673 26.4976 84.8673 26.6765L84.8681 26.675Z" fill="#78ACEA"/>
<path d="M96.6115 19.8664C94.635 19.8664 93.0272 21.4769 93.0272 23.4577H93.7153C93.7153 21.8575 95.0148 20.5552 96.6122 20.5552C98.2097 20.5552 99.5085 21.8568 99.5085 23.4577C99.5085 23.7792 99.4561 24.0881 99.3595 24.3764C99.0748 25.2293 98.4059 25.9071 97.5585 26.2005C97.3121 26.2863 97.0489 26.3409 96.7767 26.3557V27.0461C97.0953 27.032 97.4014 26.9758 97.6927 26.8835C98.8565 26.5146 99.7644 25.5656 100.079 24.3771C100.156 24.0837 100.197 23.7755 100.197 23.4584C100.197 21.4776 98.5895 19.8671 96.613 19.8671L96.6115 19.8664Z" fill="#78ACEA"/>
<path d="M97.7193 26.675C97.7193 26.7467 97.7089 26.8169 97.6912 26.8827C97.6005 27.2116 97.3003 27.4533 96.9426 27.4533C96.5141 27.4533 96.1668 27.1052 96.1668 26.6757C96.1668 26.2463 96.5141 25.8982 96.9426 25.8982C97.1934 25.8982 97.4161 26.0172 97.557 26.2012C97.6588 26.3328 97.7185 26.4976 97.7185 26.6765L97.7193 26.675Z" fill="#78ACEA"/>
<path d="M109.463 19.8664C107.486 19.8664 105.878 21.4769 105.878 23.4577H106.566C106.566 21.8575 107.865 20.5552 109.463 20.5552C111.062 20.5552 112.36 21.8568 112.36 23.4577C112.36 23.7792 112.307 24.0881 112.211 24.3764C111.926 25.2293 111.257 25.9071 110.41 26.2005C110.163 26.2863 109.9 26.3409 109.628 26.3557V27.0461C109.946 27.032 110.253 26.9758 110.544 26.8835C111.706 26.5146 112.615 25.5656 112.929 24.3771C113.006 24.0837 113.048 23.7755 113.048 23.4584C113.048 21.4776 111.44 19.8671 109.464 19.8671L109.463 19.8664Z" fill="#78ACEA"/>
<path d="M110.57 26.675C110.57 26.7467 110.56 26.8169 110.542 26.8827C110.452 27.2116 110.151 27.4533 109.794 27.4533C109.365 27.4533 109.018 27.1052 109.018 26.6757C109.018 26.2463 109.365 25.8982 109.794 25.8982C110.044 25.8982 110.266 26.0172 110.408 26.2012C110.51 26.3328 110.57 26.4976 110.57 26.6765L110.57 26.675Z" fill="#78ACEA"/>
<path d="M122.314 19.8664C120.337 19.8664 118.73 21.4769 118.73 23.4577H119.418C119.418 21.8575 120.717 20.5552 122.315 20.5552C123.912 20.5552 125.212 21.8568 125.212 23.4577C125.212 23.7792 125.159 24.0881 125.063 24.3764C124.778 25.2293 124.109 25.9071 123.262 26.2005C123.014 26.2863 122.752 26.3409 122.48 26.3557V27.0461C122.798 27.032 123.105 26.9758 123.396 26.8835C124.558 26.5146 125.467 25.5656 125.781 24.3771C125.858 24.0837 125.9 23.7755 125.9 23.4584C125.9 21.4776 124.292 19.8671 122.315 19.8671L122.314 19.8664Z" fill="#78ACEA"/>
<path d="M123.422 26.675C123.422 26.7467 123.412 26.8169 123.394 26.8827C123.304 27.2116 123.003 27.4533 122.646 27.4533C122.217 27.4533 121.87 27.1052 121.87 26.6757C121.87 26.2463 122.217 25.8982 122.646 25.8982C122.896 25.8982 123.118 26.0172 123.26 26.2012C123.362 26.3328 123.422 26.4976 123.422 26.6765L123.422 26.675Z" fill="#78ACEA"/>
<path d="M91.0846 59.0612H86.9051C86.422 59.0612 85.95 58.665 85.8571 58.1809L85.0509 53.9924C84.958 53.5083 85.2766 53.1121 85.7597 53.1121H89.9392C90.4223 53.1121 90.8943 53.5083 90.9872 53.9924L91.7933 58.1809C91.8862 58.665 91.5676 59.0612 91.0846 59.0612Z" fill="#AFCDFB"/>
<path d="M101.631 59.0612H97.4515C96.9685 59.0612 96.4964 58.665 96.4035 58.1809L95.5974 53.9924C95.5045 53.5083 95.8231 53.1121 96.3062 53.1121H100.486C100.969 53.1121 101.441 53.5083 101.534 53.9924L102.34 58.1809C102.433 58.665 102.114 59.0612 101.631 59.0612Z" fill="#AFCDFB"/>
<path d="M112.177 59.0612H107.998C107.515 59.0612 107.043 58.665 106.95 58.1809L106.144 53.9924C106.051 53.5083 106.37 53.1121 106.853 53.1121H111.032C111.515 53.1121 111.987 53.5083 112.08 53.9924L112.886 58.1809C112.979 58.665 112.661 59.0612 112.177 59.0612Z" fill="#78ACEA"/>
<path d="M59.4444 59.0612H55.2649C54.7819 59.0612 54.3099 58.665 54.2169 58.1809L53.4108 53.9924C53.3179 53.5083 53.6365 53.1121 54.1196 53.1121H58.2991C58.7821 53.1121 59.2542 53.5083 59.3471 53.9924L60.1532 58.1809C60.2461 58.665 59.9275 59.0612 59.4444 59.0612Z" fill="#AFCDFB"/>
<path d="M54.8637 46.486H53.0679C52.8599 46.486 52.6578 46.3161 52.6173 46.1076L52.2706 44.3079C52.2308 44.0995 52.368 43.9295 52.5752 43.9295H54.3711C54.5791 43.9295 54.7811 44.0995 54.8217 44.3079L55.1683 46.1076C55.2082 46.3161 55.071 46.486 54.8637 46.486Z" fill="#F99746"/>
<path d="M69.9909 59.0612H65.8114C65.3283 59.0612 64.857 58.665 64.7634 58.1809L63.9573 53.9924C63.8643 53.5083 64.183 53.1121 64.666 53.1121H68.8455C69.3286 53.1121 69.8006 53.5083 69.8935 53.9924L70.6996 58.1809C70.7926 58.665 70.474 59.0612 69.9909 59.0612Z" fill="#AFCDFB"/>
<path d="M80.5381 59.0612H76.3586C75.8755 59.0612 75.4035 58.665 75.3106 58.1809L74.5045 53.9924C74.4116 53.5083 74.7302 53.1121 75.2132 53.1121H79.3927C79.8758 53.1121 80.3478 53.5083 80.4407 53.9924L81.2468 58.1809C81.3398 58.665 81.0212 59.0612 80.5381 59.0612Z" fill="#AFCDFB"/>
<path d="M122.724 59.0612H118.544C118.061 59.0612 117.59 58.665 117.496 58.1809L116.69 53.9924C116.597 53.5083 116.916 53.1121 117.399 53.1121H121.579C122.062 53.1121 122.534 53.5083 122.627 53.9924L123.433 58.1809C123.526 58.665 123.207 59.0612 122.724 59.0612Z" fill="#78ACEA"/>
<path d="M89.3337 49.9642H85.1542C84.6711 49.9642 84.1991 49.5681 84.1062 49.084L83.3001 44.8954C83.2072 44.4113 83.5258 44.0152 84.0088 44.0152H88.1883C88.6714 44.0152 89.1434 44.4113 89.2363 44.8954L90.0424 49.084C90.1354 49.5681 89.8168 49.9642 89.3337 49.9642Z" fill="#AFCDFB"/>
<path d="M99.8802 49.9642H95.7007C95.2176 49.9642 94.7456 49.5681 94.6527 49.084L93.8466 44.8954C93.7536 44.4113 94.0722 44.0152 94.5553 44.0152H98.7348C99.2179 44.0152 99.6899 44.4113 99.7828 44.8954L100.589 49.084C100.682 49.5681 100.363 49.9642 99.8802 49.9642Z" fill="#AFCDFB"/>
<path d="M110.427 49.9642H106.247C105.764 49.9642 105.292 49.5681 105.199 49.084L104.393 44.8954C104.3 44.4113 104.619 44.0152 105.102 44.0152H109.281C109.764 44.0152 110.236 44.4113 110.329 44.8954L111.135 49.084C111.228 49.5681 110.91 49.9642 110.427 49.9642Z" fill="#78ACEA"/>
<path d="M120.973 49.9642H116.794C116.311 49.9642 115.839 49.5681 115.746 49.084L114.939 44.8954C114.847 44.4113 115.165 44.0152 115.648 44.0152H119.828C120.311 44.0152 120.783 44.4113 120.876 44.8954L121.682 49.084C121.775 49.5681 121.456 49.9642 120.973 49.9642Z" fill="#78ACEA"/>
<path d="M92.9401 68.7029H88.7606C88.2776 68.7029 87.8063 68.3068 87.7126 67.8227L86.9065 63.6341C86.8136 63.15 87.1322 62.7538 87.6153 62.7538H91.7948C92.2778 62.7538 92.7499 63.15 92.8428 63.6341L93.6489 67.8227C93.7418 68.3068 93.4232 68.7029 92.9401 68.7029Z" fill="#AFCDFB"/>
<path d="M103.487 68.7029H99.3071C98.824 68.7029 98.352 68.3068 98.2591 67.8227L97.453 63.6341C97.3601 63.15 97.6787 62.7538 98.1618 62.7538H102.341C102.824 62.7538 103.296 63.15 103.389 63.6341L104.195 67.8227C104.288 68.3068 103.97 68.7029 103.487 68.7029Z" fill="#33C653"/>
<path d="M114.034 68.7029H109.854C109.371 68.7029 108.899 68.3068 108.806 67.8227L108 63.6341C107.907 63.15 108.226 62.7538 108.709 62.7538H112.888C113.372 62.7538 113.844 63.15 113.936 63.6341L114.743 67.8227C114.835 68.3068 114.517 68.7029 114.034 68.7029Z" fill="#78ACEA"/>
<path d="M61.3008 68.7029H57.1213C56.6382 68.7029 56.1662 68.3068 56.0732 67.8227L55.2672 63.6341C55.1742 63.15 55.4928 62.7538 55.9759 62.7538H60.1554C60.6385 62.7538 61.1105 63.15 61.2034 63.6341L62.0095 67.8227C62.1024 68.3068 61.7838 68.7029 61.3008 68.7029Z" fill="#AFCDFB"/>
<path d="M71.8472 68.7029H67.6677C67.1847 68.7029 66.7127 68.3068 66.6197 67.8227L65.8136 63.6341C65.7207 63.15 66.0393 62.7538 66.5224 62.7538H70.7019C71.1849 62.7538 71.657 63.15 71.7499 63.6341L72.556 67.8227C72.6489 68.3068 72.3303 68.7029 71.8472 68.7029Z" fill="#AFCDFB"/>
<path d="M82.3937 68.7029H78.2142C77.7311 68.7029 77.2591 68.3068 77.1662 67.8227L76.3601 63.6341C76.2671 63.15 76.5858 62.7538 77.0688 62.7538H81.2483C81.7314 62.7538 82.2034 63.15 82.2963 63.6341L83.1024 67.8227C83.1954 68.3068 82.8768 68.7029 82.3937 68.7029Z" fill="#AFCDFB"/>
<path d="M124.58 68.7029H120.401C119.918 68.7029 119.446 68.3068 119.353 67.8227L118.547 63.6341C118.454 63.15 118.772 62.7538 119.255 62.7538H123.435C123.918 62.7538 124.389 63.15 124.483 63.6341L125.289 67.8227C125.382 68.3068 125.063 68.7029 124.58 68.7029Z" fill="#78ACEA"/>
<path d="M94.7965 78.3453H90.617C90.1339 78.3453 89.6619 77.9492 89.569 77.465L88.7629 73.2765C88.67 72.7924 88.9886 72.3962 89.4716 72.3962H93.6511C94.1342 72.3962 94.6062 72.7924 94.6991 73.2765L95.5052 77.465C95.5982 77.9492 95.2796 78.3453 94.7965 78.3453Z" fill="#AFCDFB"/>
<path d="M105.343 78.3453H101.163C100.68 78.3453 100.208 77.9492 100.115 77.465L99.3093 73.2765C99.2164 72.7924 99.535 72.3962 100.018 72.3962H104.198C104.681 72.3962 105.153 72.7924 105.246 73.2765L106.052 77.465C106.145 77.9492 105.826 78.3453 105.343 78.3453Z" fill="#AFCDFB"/>
<path d="M115.889 78.3453H111.71C111.227 78.3453 110.755 77.9492 110.662 77.465L109.856 73.2765C109.763 72.7924 110.081 72.3962 110.565 72.3962H114.744C115.227 72.3962 115.699 72.7924 115.792 73.2765L116.598 77.465C116.691 77.9492 116.372 78.3453 115.889 78.3453Z" fill="#78ACEA"/>
<path d="M63.1564 78.3453H58.9769C58.4938 78.3453 58.0218 77.9492 57.9288 77.465L57.1227 73.2765C57.0298 72.7924 57.3484 72.3962 57.8315 72.3962H62.011C62.4941 72.3962 62.9653 72.7924 63.059 73.2765L63.8651 77.465C63.958 77.9492 63.6394 78.3453 63.1564 78.3453Z" fill="#AFCDFB"/>
<path d="M73.7028 78.3453H69.5233C69.0402 78.3453 68.569 77.9492 68.4753 77.465L67.6692 73.2765C67.5763 72.7924 67.8949 72.3962 68.3779 72.3962H72.5574C73.0405 72.3962 73.5125 72.7924 73.6055 73.2765L74.4116 77.465C74.5045 77.9492 74.1859 78.3453 73.7028 78.3453Z" fill="#DC1111"/>
<path d="M84.2493 78.3453H80.0698C79.5867 78.3453 79.1147 77.9492 79.0218 77.465L78.2157 73.2765C78.1227 72.7924 78.4413 72.3962 78.9244 72.3962H83.1039C83.587 72.3962 84.059 72.7924 84.1519 73.2765L84.958 77.465C85.0509 77.9492 84.7323 78.3453 84.2493 78.3453Z" fill="#AFCDFB"/>
<path d="M126.436 78.3453H122.256C121.773 78.3453 121.301 77.9492 121.208 77.465L120.402 73.2765C120.309 72.7924 120.628 72.3962 121.111 72.3962H125.29C125.774 72.3962 126.246 72.7924 126.338 73.2765L127.145 77.465C127.238 77.9492 126.919 78.3453 126.436 78.3453Z" fill="#78ACEA"/>
<path d="M96.5473 87.4422H92.3678C91.8848 87.4422 91.4128 87.0461 91.3198 86.562L90.5137 82.3734C90.4208 81.8893 90.7394 81.4932 91.2225 81.4932H95.402C95.8851 81.4932 96.3571 81.8893 96.45 82.3734L97.2561 86.562C97.349 87.0461 97.0304 87.4422 96.5473 87.4422Z" fill="#AFCDFB"/>
<path d="M107.094 87.4422H102.914C102.431 87.4422 101.959 87.0461 101.866 86.562L101.06 82.3734C100.967 81.8893 101.286 81.4932 101.769 81.4932H105.948C106.432 81.4932 106.904 81.8893 106.996 82.3734L107.803 86.562C107.895 87.0461 107.577 87.4422 107.094 87.4422Z" fill="#33C653"/>
<path d="M117.64 87.4422H113.461C112.978 87.4422 112.506 87.0461 112.413 86.562L111.607 82.3734C111.514 81.8893 111.832 81.4932 112.315 81.4932H116.495C116.978 81.4932 117.45 81.8893 117.543 82.3734L118.349 86.562C118.442 87.0461 118.123 87.4422 117.64 87.4422Z" fill="#78ACEA"/>
<path d="M64.9072 87.4422H60.7277C60.2446 87.4422 59.7726 87.0461 59.6797 86.562L58.8736 82.3734C58.7807 81.8893 59.0993 81.4932 59.5823 81.4932H63.7618C64.2449 81.4932 64.7169 81.8893 64.8099 82.3734L65.6159 86.562C65.7089 87.0461 65.3903 87.4422 64.9072 87.4422Z" fill="#AFCDFB"/>
<path d="M75.4544 87.4422H71.2749C70.7918 87.4422 70.3198 87.0461 70.2269 86.562L69.4208 82.3734C69.3279 81.8893 69.6465 81.4932 70.1296 81.4932H74.3091C74.7921 81.4932 75.2641 81.8893 75.3571 82.3734L76.1632 86.562C76.2561 87.0461 75.9375 87.4422 75.4544 87.4422Z" fill="#AFCDFB"/>
<path d="M86.0009 87.4422H81.8214C81.3383 87.4422 80.8663 87.0461 80.7734 86.562L79.9673 82.3734C79.8743 81.8893 80.1929 81.4932 80.676 81.4932H84.8555C85.3386 81.4932 85.8106 81.8893 85.9035 82.3734L86.7096 86.562C86.8025 87.0461 86.4839 87.4422 86.0009 87.4422Z" fill="#AFCDFB"/>
<path d="M67.5313 44.8334H56.459C56.296 44.8334 56.1625 44.6996 56.1625 44.5363C56.1625 44.3729 56.296 44.2392 56.459 44.2392H67.5313C67.6943 44.2392 67.8278 44.3729 67.8278 44.5363C67.8278 44.6996 67.6943 44.8334 67.5313 44.8334Z" fill="#AFCDFB"/>
<path d="M67.8683 46.1771H56.796C56.633 46.1771 56.4995 46.0433 56.4995 45.88C56.4995 45.7166 56.633 45.5829 56.796 45.5829H67.8683C68.0313 45.5829 68.1648 45.7166 68.1648 45.88C68.1648 46.0433 68.0313 46.1771 67.8683 46.1771Z" fill="#AFCDFB"/>
<path d="M55.6566 34.8259H51.8569C51.5457 34.8259 51.2912 34.5709 51.2912 34.259C51.2912 33.9471 51.5457 33.6921 51.8569 33.6921H55.6566C55.9678 33.6921 56.2223 33.9471 56.2223 34.259C56.2223 34.5709 55.9678 34.8259 55.6566 34.8259Z" fill="white"/>
<path d="M66.0821 34.8258H62.2824C61.9712 34.8258 61.7167 34.5708 61.7167 34.2589C61.7167 33.947 61.9712 33.692 62.2824 33.692H66.0821C66.3933 33.692 66.6478 33.947 66.6478 34.2589C66.6478 34.5708 66.3933 34.8258 66.0821 34.8258Z" fill="white"/>
<path d="M76.5083 34.8258H72.7087C72.3974 34.8258 72.143 34.5708 72.143 34.2589C72.143 33.947 72.3974 33.692 72.7087 33.692H76.5083C76.8196 33.692 77.074 33.947 77.074 34.2589C77.074 34.5708 76.8196 34.8258 76.5083 34.8258Z" fill="white"/>
<path d="M86.9346 34.8258H83.1349C82.8237 34.8258 82.5692 34.5708 82.5692 34.2589C82.5692 33.947 82.8237 33.692 83.1349 33.692H86.9346C87.2458 33.692 87.5003 33.947 87.5003 34.2589C87.5003 34.5708 87.2458 34.8258 86.9346 34.8258Z" fill="white"/>
<path d="M97.3608 34.8258H93.5611C93.2499 34.8258 92.9955 34.5708 92.9955 34.2589C92.9955 33.947 93.2499 33.692 93.5611 33.692H97.3608C97.6721 33.692 97.9265 33.947 97.9265 34.2589C97.9265 34.5708 97.6721 34.8258 97.3608 34.8258Z" fill="white"/>
<path d="M107.786 34.8258H103.987C103.675 34.8258 103.421 34.5708 103.421 34.2589C103.421 33.947 103.675 33.692 103.987 33.692H107.786C108.098 33.692 108.352 33.947 108.352 34.2589C108.352 34.5708 108.098 34.8258 107.786 34.8258Z" fill="white"/>
<path d="M118.213 34.8258H114.413C114.102 34.8258 113.847 34.5708 113.847 34.2589C113.847 33.947 114.102 33.692 114.413 33.692H118.213C118.524 33.692 118.778 33.947 118.778 34.2589C118.778 34.5708 118.524 34.8258 118.213 34.8258Z" fill="white"/>
<path d="M94.1814 50.0463C93.3421 50.0463 92.7314 49.7795 92.3981 49.2614C91.7594 48.268 92.2528 46.8756 93.8628 45.1231C95.0391 43.843 96.4131 42.829 96.4264 42.8186C96.4802 42.7787 96.5562 42.7905 96.596 42.8445C96.6358 42.8984 96.624 42.9746 96.5702 43.0145C96.5163 43.0536 91.2217 46.9827 92.6023 49.1298C93.0397 49.8098 93.9756 49.8549 94.6843 49.7729C95.9964 49.6206 97.7067 48.9125 99.2599 47.8793C100.868 46.809 102 45.6028 102.367 44.5703C102.607 43.8925 102.533 43.4129 102.146 43.1438C101.645 42.7964 100.598 42.7964 99.3469 43.1431C98.1477 43.4749 96.9411 44.0729 96.1977 44.7041C96.1468 44.7477 96.0701 44.741 96.0266 44.69C95.9831 44.639 95.9897 44.5622 96.0406 44.5186C96.8091 43.8667 98.0511 43.2502 99.282 42.9095C100.622 42.5385 101.716 42.5511 102.284 42.945C102.62 43.1778 102.947 43.6634 102.596 44.6523C102.211 45.7336 101.045 46.9835 99.3941 48.0818C97.8107 49.1358 96.0605 49.8586 94.7124 50.0146C94.5265 50.036 94.3495 50.0471 94.1814 50.0471V50.0463Z" fill="#C65447"/>
<path d="M116.12 43.1416L115.689 42.3263C115.689 42.3263 115.903 40.8732 114.086 39.9538C114.086 39.9538 113.422 39.6825 113.047 40.2258C112.702 40.7254 113.705 40.6353 113.651 41.4904C113.597 42.3455 114.002 42.8474 114.566 43.126L115.032 43.6671L116.12 43.1416Z" fill="#FFB27D"/>
<path d="M133.292 41.1926C133.292 41.1926 131.731 48.8675 123.145 51.3753C120.465 52.158 114.375 43.3145 114.375 43.3145C114.375 43.3145 114.589 42.4993 115.931 42.6863C115.931 42.6863 121.86 46.6198 122.606 47.047C123.268 47.4262 127.624 42.1726 129.609 41.3256C131.595 40.4779 133.291 41.1926 133.291 41.1926H133.292Z" fill="#233862"/>
<path d="M108.192 41.0557L108.536 42.9177L117.883 41.1834L117.539 39.3214L108.192 41.0557Z" fill="#C65447"/>
<path d="M106.184 42.3891L108.528 42.9169L108.185 41.0551L106.184 42.3891Z" fill="#FFB27D"/>
<path d="M118.731 39.7365L118.84 40.3248C118.907 40.687 118.668 41.0351 118.307 41.1017L117.875 41.1822L117.53 39.3204L118.001 39.2332C118.342 39.1704 118.668 39.3951 118.732 39.7365H118.731Z" fill="#FFB27D"/>
<path d="M143.542 89.4393C143.542 89.4393 144.607 90.4134 144.399 91.106C144.191 91.7985 143.231 92.2597 143.101 93.106C142.971 93.9523 142.451 94.4135 141.983 94.4135H139.754C139.754 94.4135 139.409 93.8185 140.241 93.6389C141.073 93.4593 141.386 92.4652 141.334 91.542C141.282 90.6189 141.413 89.3883 141.413 89.3883L143.179 88.9781L143.542 89.4393Z" fill="#233862"/>
<path d="M130.474 91.9589C130.474 91.9589 130.665 94.1762 130.198 94.4068L124.213 94.3943C124.213 94.3943 124.213 93.7017 125.174 93.548C126.135 93.3942 127.824 92.8303 128.11 91.5738C128.396 90.3173 130.474 91.9582 130.474 91.9582V91.9589Z" fill="#233862"/>
<path d="M125.422 60.6399C125.422 60.6399 125.737 64.5262 126.108 69.1981C126.613 75.544 127.219 83.3394 127.279 84.8161C127.383 87.3801 127.799 91.4822 127.799 91.4822C127.799 91.4822 128.786 92.4563 130.761 92.0461C130.761 92.0461 132.52 86.1909 133.023 79.9957C133.031 79.8944 133.039 79.7917 133.047 79.6897C133.514 73.3829 134.242 60.1026 134.242 60.1026L125.422 60.6407V60.6399Z" fill="#F99746"/>
<path d="M125.422 60.6399C125.422 60.6399 125.737 64.5262 126.108 69.1981L133.023 79.9949C133.031 79.8937 133.039 79.791 133.047 79.689C133.514 73.3822 134.242 60.1019 134.242 60.1019L125.422 60.6399Z" fill="#ED7D2B"/>
<path d="M126.863 61.1011C126.863 61.1011 132.553 75.176 136.294 81.7902C140.036 88.4045 141.205 90.2508 141.205 90.2508C141.205 90.2508 143.348 89.4045 143.543 88.828C143.543 88.828 142.112 76.0585 139.607 72.9453C138.191 71.1863 136.528 65.9083 136.451 64.062C136.372 62.2165 135.944 58.563 135.944 58.563L126.864 61.1011H126.863Z" fill="#F99746"/>
<path d="M134.349 39.4113C134.349 39.4113 130.5 41.2731 128.28 40.5821C128.28 40.5821 128.827 39.8917 129.783 39.3773C129.706 38.9309 129.646 38.5436 129.612 38.2147C129.519 37.4564 129.519 37.027 129.519 37.027L131.004 35.8562L132.413 34.7357C132.302 37.8858 134.35 39.4106 134.35 39.4106L134.349 39.4113Z" fill="#FFB27D"/>
<path d="M125.178 60.9607C125.246 61.0199 125.324 61.0531 125.409 61.0531C126.246 61.0361 128.679 61.4995 130.735 61.2889C132.476 61.1204 134.013 60.6156 135.661 59.8912C135.883 59.79 136.387 59.5202 136.378 59.2844C136.369 59.0147 136.344 58.6355 136.31 58.1469C136.24 57.1846 136.144 55.818 136.113 54.1979C136.09 52.9968 136.102 51.6568 136.189 50.237C136.195 50.1417 136.199 50.0456 136.203 49.9495C136.229 49.4292 136.24 48.9051 136.24 48.3929C136.249 46.7418 136.13 45.1667 135.891 43.7602C135.473 41.3175 134.687 39.4054 133.527 38.5547C133.373 38.4364 132.416 38.8998 131.529 39.3293C130.718 39.7254 129.907 39.7676 129.14 39.616L128.371 40.2894C127.44 41.1393 126.415 42.3101 125.963 44.0795C125.588 45.5792 125.366 48.2909 125.246 51.1047C125.187 52.3849 125.144 53.665 125.127 54.886V54.9281C125.119 55.0545 125.119 55.1816 125.119 55.308C125.077 58.433 125.119 60.9179 125.178 60.96V60.9607Z" fill="#2B478B"/>
<path d="M132.437 35.9405C132.437 35.9405 131.464 37.718 129.612 38.2147C129.518 37.4564 129.518 37.027 129.518 37.027L131.003 35.8562L132.437 35.9405Z" fill="#ED985F"/>
<path d="M128.841 36.976C128.841 36.976 132.514 37.5783 132.858 35.3152C133.203 33.0528 133.909 31.6063 131.579 31.1267C129.248 30.6462 128.66 31.4423 128.359 32.1695C128.058 32.8968 127.894 36.7609 128.84 36.976H128.841Z" fill="#FFB27D"/>
<path d="M134.193 30.8554C134.226 30.8169 134.304 30.7859 134.475 30.777C134.475 30.777 134.338 30.6913 134.155 30.6869C134.119 30.4481 133.992 30.0261 133.583 29.9234C133.583 29.9234 133.803 30.0409 133.832 30.2944C133.357 29.8058 132.341 29.4511 129.526 29.6735C125.817 29.967 127.039 32.3469 127.519 32.6307C127.999 32.9145 129.208 32.1363 130.103 32.2079C130.997 32.2789 131.168 33.5746 131.471 33.7527C131.775 33.9308 131.655 33.6159 132.066 33.4304C132.477 33.2442 132.516 33.9264 132.397 34.3698C132.278 34.8133 132.843 35.3979 132.843 35.3979L133.413 34.7823C133.983 34.1666 134.52 31.5597 134.261 31.0047C134.238 30.9559 134.215 30.9056 134.192 30.8561L134.193 30.8554Z" fill="#2C3A64"/>
<path d="M115.681 42.2879C115.681 42.2879 115.808 41.7876 115.462 41.5629C115.115 41.3382 114.797 40.7262 114.651 40.8097C114.349 40.9812 114.816 41.5148 114.731 42.1808C114.701 42.4136 115.242 43.0241 115.681 42.2887V42.2879Z" fill="#FFB27D"/>
<path d="M136.113 54.1986C136.09 52.9976 136.102 51.6576 136.189 50.2378C136.195 50.1424 136.199 50.0463 136.203 49.9502C135.855 48.217 135.327 46.679 134.549 46.6287C134.549 46.6287 132.233 50.2754 136.113 54.1986Z" fill="#233862"/>
<path d="M139.176 60.4877C139.176 60.4877 138.983 62.368 138.771 62.7242C138.56 63.0797 137.658 64.2165 137.274 64.4397C136.889 64.6629 137.508 62.9423 137.43 62.6074C137.352 62.2726 137.114 63.2187 136.945 63.2409C136.775 63.263 136.819 62.4116 136.813 62.1019C136.807 61.7922 137.636 61.0272 137.929 60.3672C138.222 59.7072 139.176 60.4884 139.176 60.4884V60.4877Z" fill="#FFB27D"/>
<path d="M133.526 38.5362C133.526 38.5362 135.849 39.6389 136.963 41.3344C138.691 43.9642 140.694 53.5474 140.732 54.4351C140.769 55.3228 139.269 61.5882 139.269 61.5882C139.269 61.5882 137.749 61.4877 137.357 60.719C137.357 60.719 137.661 54.2814 137.468 53.8675C137.276 53.4536 131.129 45.2325 131.821 43.4778C132.512 41.7232 133.526 38.5369 133.526 38.5369V38.5362Z" fill="#2B478B"/>
<path d="M107.385 41.588L107.508 42.687L106.184 42.3892L107.385 41.588Z" fill="#C65447"/>
<path d="M157.667 94.3773H150.97C150.611 94.072 151.219 93.3795 151.853 93.3329C152.129 93.3122 152.477 93.3699 152.875 93.4541C152.967 92.2272 153.493 86.7135 155.477 86.9352C157.707 87.1836 155.477 89.3632 154.846 90.6544C154.38 91.6108 153.887 92.9818 153.662 93.6286C153.843 93.6677 154.031 93.7062 154.222 93.7417C154.517 92.8318 155.617 89.7726 157.015 89.9508C158.658 90.1592 157.998 91.3861 156.834 92.1141C155.98 92.6493 154.932 93.4105 154.433 93.7779C154.855 93.8466 155.296 93.8932 155.743 93.8828C156.89 93.8555 157.45 94.194 157.667 94.3765L157.667 94.3773Z" fill="#82B378"/>
<path d="M4.80274 94.0588C4.448 93.5 3.38008 92.0499 1.95741 92.242C0.407156 92.4512 3.66918 93.4749 4.66778 94.0632C4.44579 94.0662 4.25551 94.0484 4.11538 93.9982C3.44793 93.7594 2.30478 94.2169 1.93897 94.3773H8.29487C8.25062 94.2251 8.13631 93.976 7.84057 93.7949C7.73584 93.7306 7.52638 93.7217 7.25572 93.7424C7.63332 93.296 7.89588 91.8695 6.84418 92.2369C6.07569 92.5052 6.0779 93.3766 6.15313 93.8917C5.9894 93.9176 5.8242 93.9435 5.65973 93.9671C5.34334 92.3507 4.22379 87.6145 1.95594 87.4881C-0.343635 87.3602 3.90592 92.4002 5.32122 94.0122C5.13979 94.0344 4.96573 94.0506 4.80348 94.058L4.80274 94.0588Z" fill="#82B378"/>
</g>
</svg>
