<svg width="97" height="94" viewBox="0 0 97 94" fill="none" xmlns="http://www.w3.org/2000/svg">
<g opacity="0.7">
<path d="M82.4397 76.7409C82.4353 76.6728 82.4331 76.6047 82.4287 76.5345C79.7626 51.7591 57.8994 54.6888 42.4366 34.7099C26.9717 14.7289 12.8409 23.7882 12.8409 23.7882C-3.69007 35.7773 7.77456 49.6287 7.5086 56.2898C7.24265 62.9509 -1.28989 71.2086 2.44227 85.328C2.44887 85.3522 2.45546 85.3764 2.46205 85.4027C3.38301 88.8595 6.46237 91.2842 10.0099 91.4467H41.6321V91.4555H68.4474C76.4656 91.4555 82.8661 84.7439 82.4397 76.7431V76.7409Z" fill="#E7E8FA" fill-opacity="0.5"/>
<path d="M74.8707 88.9345C73.4863 89.3172 69.4231 86.9873 68.4327 86.9592C67.4056 87.5219 67.293 90.1923 67.0961 91.0477C66.8991 91.9031 75.9175 90.4709 75.2759 91.5232C74.6344 92.5756 68.7591 91.6273 68.2216 91.8046C67.943 91.8947 67.9093 92.4377 68.1006 93.0061H78.5006C79.2407 92.3646 79.7668 91.7061 80.0904 91.2418C79.7106 91.875 79.4179 92.4603 79.1928 93.0061H81.3848C81.5311 92.6713 81.7281 92.4349 81.8857 92.3364C82.0179 92.252 82.2458 92.5503 82.5723 93.0061H92.3447C92.9779 92.373 93.3549 91.8412 93.3268 91.6611C93.2452 91.1434 88.1099 91.7652 87.1757 91.0505C86.2415 90.3358 86.2753 89.7449 87.4712 89.32C88.6671 88.8951 92.9103 90.8648 94.2357 89.8715C95.561 88.8782 96.6978 86.5399 96.5627 85.8111C96.4305 85.0823 93.6616 87.1449 91.0701 87.5501C88.4813 87.9553 86.7002 87.4488 87.1054 86.5427C87.5134 85.6367 93.445 85.8984 95.1952 84.801C96.9454 83.7035 97.1874 80.462 96.8947 79.9977C96.6021 79.5306 90.1218 83.8386 88.6783 83.6079C87.232 83.3771 88.0621 82.367 89.711 82.1475C91.3599 81.9252 95.5525 80.189 95.9296 78.9791C96.3067 77.7663 95.7129 75.1354 95.1952 75.2142C94.6774 75.2958 93.5857 77.4427 92.4292 78.5739C91.2699 79.7079 89.8207 80.3719 89.5562 78.9144C89.2917 77.4568 93.7545 76.2806 94.4242 75.5349C95.0939 74.7893 94.2807 71.8066 93.8924 71.317C93.5041 70.8274 87.5274 69.4598 86.4779 70.1183C85.3045 71.7475 85.0935 76.593 85.6056 77.409C86.1177 78.225 85.8222 79.9555 84.5729 78.8694C83.3883 77.499 84.919 71.2579 84.888 70.9512C84.8571 70.6445 83.6753 70.5741 82.4878 71.4014C81.3004 72.2287 81.6493 76.8012 82.2205 78.2306C82.7917 79.66 83.3826 83.1914 81.0274 81.2527C78.6751 79.3168 80.0651 73.2417 79.2772 72.7633C78.4893 72.2821 76.7982 73.993 76.151 74.6429C75.5039 75.2929 75.608 77.015 76.3677 78.4867C77.1303 79.9583 80.6673 83.2674 78.9508 83.7739C77.2372 84.2804 74.9326 76.4607 74.2911 76.2159C73.6495 75.9683 72.1104 77.015 71.4857 78.8694C70.8835 80.628 77.3188 84.7981 76.4437 85.9968C73.8549 86.402 71.8318 80.8447 70.7878 80.6055C69.7439 80.3663 68.79 82.3445 68.2976 83.6304C67.8023 84.9163 68.4552 85.5635 70.2729 86.7791C72.0907 87.9947 75.8725 88.0622 74.8736 88.9317L74.8707 88.9345ZM82.4906 85.3046C82.2965 86.5962 81.0134 85.4791 81.0134 85.4791C81.1316 84.0665 82.6848 84.0131 82.4906 85.3046ZM78.9199 86.5427C80.3606 85.6395 80.4759 87.823 79.5558 89.154C78.6357 90.4849 77.4032 89.5845 77.4032 89.5845C76.4634 88.7516 77.482 87.446 78.9227 86.5427H78.9199Z" fill="#A1C2FF"/>
<path d="M10.3435 79.3618C11.5056 78.6809 13.9059 79.1677 12.3385 80.8672C10.3773 82.4627 1.73032 80.0625 1.2998 80.0934C0.872099 80.1216 0.722966 81.7705 1.82599 83.4616C2.92902 85.1556 9.33053 84.8601 11.3481 84.1229C13.3684 83.3856 18.3208 82.7131 15.5182 85.9153C12.7156 89.1175 4.29656 86.9198 3.59309 88.0004C2.88963 89.0809 5.20543 91.512 6.08616 92.4462C6.40131 92.7783 6.91344 92.9809 7.53248 93.0625H8.84092C9.68226 92.9724 10.5996 92.7192 11.4606 92.3056C13.5485 91.3038 18.3152 86.509 18.9483 88.9205C19.3113 90.2993 15.8671 91.8356 12.7803 93.0625H20.1188C20.9067 92.4856 21.5539 92.2099 21.945 92.5138C21.9675 92.6995 21.9647 92.8824 21.945 93.0625H33.6647C32.556 90.2768 30.5582 88.49 29.4186 87.6486C36.1859 91.9848 39.298 89.1006 40.2632 87.4629C41.2705 85.7577 40.4236 81.4638 39.4415 80.9263C38.4567 80.3889 38.3244 83.5854 35.8989 85.3413C33.4734 87.0971 31.408 85.8562 31.0197 85.1921C30.6314 84.5281 36.7853 82.4824 36.3688 78.1575C35.9524 73.8326 31.287 69.1025 30.561 69.1926C29.8351 69.2826 30.4851 76.4805 29.4496 77.7551C28.4141 79.0298 27.5896 78.9566 27.0465 77.2683C26.5035 75.58 29.4327 69.7413 28.1017 67.8476C26.7708 65.9538 23.5545 64.2712 22.5331 64.4259C21.5089 64.5807 24.2721 68.5341 24.7279 72.164C25.1838 75.7967 24.4015 78.2616 23.155 77.6538C21.9084 77.046 22.5219 68.7761 21.0643 66.2887C19.6067 63.8012 15.0933 63.3257 14.4292 63.714C13.7652 64.1023 19.5054 73.3289 19.1227 75.338C18.74 77.3443 17.3669 76.1428 17.1277 73.8326C16.8885 71.5225 14.6403 65.5965 12.966 65.0168C11.289 64.44 7.58876 65.1575 7.68162 65.8835C7.77166 66.6095 10.7234 68.2246 12.2569 69.8876C13.7905 71.5534 14.6571 73.6047 12.6115 73.9142C10.563 74.2238 9.11386 67.9432 8.10088 66.9753C7.08789 66.0073 2.88963 67.0203 2.19179 67.5409C1.49396 68.0614 -0.669891 76.3482 0.205217 77.8424C2.43097 79.5476 9.18421 80.0456 10.3463 79.3675L10.3435 79.3618ZM26.4809 88.2958C28.2987 89.638 26.9931 91.3207 26.9931 91.3207C25.7916 92.5982 24.0104 91.1209 22.8089 89.0724C21.6102 87.024 24.6632 86.9536 26.4809 88.2958ZM21.2331 84.0328C23.0284 84.3564 21.416 86.1038 21.416 86.1038C19.452 85.8787 19.4407 83.7092 21.2331 84.0328Z" fill="url(#paint0_linear_294_1279)"/>
<path d="M70.3376 0H34.1572C30.7693 0 28.0145 2.75476 28.0145 6.14264V86.9226C28.0145 90.1867 30.5751 92.8627 33.7914 93.054H54.1805V93.0653H70.3376C73.7255 93.0653 76.4803 90.3077 76.4803 86.9226V6.14264C76.4803 2.75476 73.7227 0 70.3376 0Z" fill="white"/>
<path d="M70.3404 1.36469H64.4566L63.3845 3.25841C62.8218 4.25451 61.7666 4.87074 60.6213 4.87074H43.8761C42.7309 4.87074 41.6757 4.25451 41.1129 3.25841L40.0408 1.36469H34.1571C31.5177 1.36469 29.3792 3.50321 29.3792 6.1426V86.9226C29.3792 89.562 31.5177 91.7005 34.1571 91.7005H70.3375C72.9769 91.7005 75.1155 89.562 75.1155 86.9226V6.1426C75.1155 3.50321 72.9769 1.36469 70.3375 1.36469H70.3404Z" fill="url(#paint1_linear_294_1279)"/>
<path d="M57.9454 3.06989H46.6816C46.4311 3.06989 46.2257 2.86729 46.2257 2.61405C46.2257 2.36361 46.4283 2.1582 46.6816 2.1582H57.9454C58.1958 2.1582 58.4012 2.3608 58.4012 2.61405C58.4012 2.86448 58.1986 3.06989 57.9454 3.06989Z" fill="#E7E8FA"/>
<path d="M41.7348 51.938H24.4409C23.5613 51.938 22.8483 52.651 22.8483 53.5306V55.1233C22.8483 56.0029 23.5613 56.7159 24.4409 56.7159H41.7348C42.6144 56.7159 43.3275 56.0029 43.3275 55.1233V53.5306C43.3275 52.651 42.6144 51.938 41.7348 51.938Z" fill="white"/>
<path d="M41.535 58.9332H24.6407C23.6508 58.9332 22.8483 59.7357 22.8483 60.7256V74.0351C22.8483 75.025 23.6508 75.8275 24.6407 75.8275H41.535C42.525 75.8275 43.3275 75.025 43.3275 74.0351V60.7256C43.3275 59.7357 42.525 58.9332 41.535 58.9332Z" fill="white"/>
<path d="M36.1156 54.9235H25.3639C25.105 54.9235 24.894 54.7124 24.894 54.4536C24.894 54.1947 25.105 53.9836 25.3639 53.9836H36.1156C36.3745 53.9836 36.5855 54.1947 36.5855 54.4536C36.5855 54.7124 36.3745 54.9235 36.1156 54.9235Z" fill="#A1C2FF"/>
<path d="M36.1156 63.4578H25.3639C25.105 63.4578 24.894 63.2468 24.894 62.9879C24.894 62.729 25.105 62.518 25.3639 62.518H36.1156C36.3745 62.518 36.5855 62.729 36.5855 62.9879C36.5855 63.2468 36.3745 63.4578 36.1156 63.4578Z" fill="#A1C2FF"/>
<path d="M36.1156 68.1514H25.3639C25.105 68.1514 24.894 67.9403 24.894 67.6815C24.894 67.4226 25.105 67.2115 25.3639 67.2115H36.1156C36.3745 67.2115 36.5855 67.4226 36.5855 67.6815C36.5855 67.9403 36.3745 68.1514 36.1156 68.1514Z" fill="#A1C2FF"/>
<path d="M36.1156 72.8449H25.3639C25.105 72.8449 24.894 72.6338 24.894 72.3749C24.894 72.1161 25.105 71.905 25.3639 71.905H36.1156C36.3745 71.905 36.5855 72.1161 36.5855 72.3749C36.5855 72.6338 36.3745 72.8449 36.1156 72.8449Z" fill="#A1C2FF"/>
<path d="M40.5953 65.7625H25.3639C25.105 65.7625 24.894 65.5514 24.894 65.2925C24.894 65.0337 25.105 64.8226 25.3639 64.8226H40.5953C40.8541 64.8226 41.0652 65.0337 41.0652 65.2925C41.0652 65.5514 40.8541 65.7625 40.5953 65.7625Z" fill="#A1C2FF"/>
<path d="M41.0651 54.9235H38.2485C37.9896 54.9235 37.7786 54.7124 37.7786 54.4536C37.7786 54.1947 37.9896 53.9836 38.2485 53.9836H41.0651C41.324 53.9836 41.5351 54.1947 41.5351 54.4536C41.5351 54.7124 41.324 54.9235 41.0651 54.9235Z" fill="#A1C2FF"/>
<path d="M39.7905 72.9349L38.6762 73.5202C38.5721 73.5765 38.4483 73.4864 38.468 73.3683L38.6819 72.1274C38.6903 72.0823 38.6734 72.0345 38.6397 72.0007L37.7392 71.1228C37.6548 71.0412 37.6998 70.8949 37.818 70.878L39.0645 70.6979C39.1124 70.6923 39.1518 70.6613 39.1715 70.6191L39.7286 69.4908C39.7821 69.3839 39.9312 69.3839 39.9847 69.4908L40.5418 70.6191C40.5615 70.6613 40.6037 70.6895 40.6487 70.6979L41.8953 70.878C42.0135 70.8949 42.0585 71.0384 41.9741 71.1228L41.0736 72.0007C41.0399 72.0345 41.0258 72.0795 41.0314 72.1274L41.2453 73.3683C41.265 73.4864 41.144 73.5737 41.0371 73.5202L39.9228 72.9349C39.8806 72.9124 39.8327 72.9124 39.7905 72.9349Z" fill="url(#paint2_linear_294_1279)"/>
<path opacity="0.08" d="M51.3469 11.4889H68.185C69.9436 11.4889 71.3703 12.9155 71.3703 14.6742V64.5075C71.3703 66.2661 69.9436 67.6927 68.185 67.6927H51.3469C49.5882 67.6927 48.1616 66.2661 48.1616 64.5075V14.6742C48.1616 12.9155 49.5882 11.4889 51.3469 11.4889Z" fill="white"/>
<path d="M82.8583 76.0674C87.1681 71.7576 87.1681 64.7701 82.8583 60.4603C78.5485 56.1505 71.5609 56.1505 67.2511 60.4603C62.9414 64.7701 62.9414 71.7576 67.2511 76.0674C71.5609 80.3772 78.5485 80.3772 82.8583 76.0674Z" fill="#323197"/>
<path d="M75.1127 54.4986V68.3202H61.2911C61.322 75.8979 67.4731 82.0293 75.0564 82.0293C82.6398 82.0293 88.8246 75.867 88.8246 68.2611C88.8246 60.6553 82.6904 54.5267 75.1155 54.4958L75.1127 54.4986Z" fill="url(#paint3_linear_294_1279)"/>
<path d="M75.0564 75.8866C79.2663 75.8866 82.6792 72.4738 82.6792 68.2639C82.6792 64.054 79.2663 60.6412 75.0564 60.6412C70.8465 60.6412 67.4337 64.054 67.4337 68.2639C67.4337 72.4738 70.8465 75.8866 75.0564 75.8866Z" fill="url(#paint4_linear_294_1279)"/>
<path d="M75.0565 73.4554C77.9237 73.4554 80.248 71.1311 80.248 68.2639C80.248 65.3967 77.9237 63.0723 75.0565 63.0723C72.1893 63.0723 69.8649 65.3967 69.8649 68.2639C69.8649 71.1311 72.1893 73.4554 75.0565 73.4554Z" fill="#A1C2FF"/>
<path d="M72.6573 70.5869L73.8218 68.2826V68.2634H72.4653V67.7778H74.4363V68.2702L73.2704 70.5869H72.6573ZM75.8316 70.6253C75.6377 70.6253 75.4649 70.5897 75.3131 70.5183C75.1623 70.447 75.0425 70.3487 74.9538 70.2234C74.8651 70.0982 74.8189 69.9546 74.8152 69.7927H75.3913C75.3977 69.9016 75.4434 69.9898 75.5285 70.0575C75.6135 70.1251 75.7146 70.159 75.8316 70.159C75.9249 70.159 76.0072 70.1384 76.0785 70.0972C76.1507 70.0552 76.207 69.9971 76.2472 69.9231C76.2884 69.8481 76.3089 69.7621 76.3089 69.6652C76.3089 69.5664 76.2879 69.4796 76.2458 69.4046C76.2047 69.3296 76.1475 69.2711 76.0744 69.229C76.0012 69.1869 75.9176 69.1655 75.8234 69.1645C75.7411 69.1645 75.6611 69.1815 75.5833 69.2153C75.5065 69.2491 75.4466 69.2953 75.4037 69.3538L74.8756 69.2592L75.0086 67.7778H76.7259V68.2634H75.4983L75.4256 68.967H75.4421C75.4914 68.8975 75.566 68.8399 75.6656 68.7942C75.7653 68.7485 75.8769 68.7256 76.0003 68.7256C76.1695 68.7256 76.3204 68.7654 76.4529 68.845C76.5855 68.9245 76.6902 69.0338 76.767 69.1728C76.8439 69.3109 76.8818 69.47 76.8809 69.6501C76.8818 69.8394 76.8379 70.0076 76.7492 70.1549C76.6614 70.3012 76.5384 70.4164 76.3803 70.5005C76.223 70.5837 76.0401 70.6253 75.8316 70.6253ZM74.0838 75.0602V74.9121C74.0838 74.7996 74.1076 74.6963 74.1551 74.6021C74.2036 74.507 74.2736 74.4311 74.365 74.3744C74.4574 74.3168 74.5698 74.288 74.7024 74.288C74.8368 74.288 74.9498 74.3163 75.0412 74.373C75.1336 74.4297 75.2031 74.5056 75.2497 74.6007C75.2972 74.6949 75.321 74.7987 75.321 74.9121V75.0602C75.321 75.1727 75.2972 75.2765 75.2497 75.3716C75.2021 75.4658 75.1322 75.5412 75.0398 75.5979C74.9475 75.6555 74.835 75.6843 74.7024 75.6843C74.568 75.6843 74.4551 75.6555 74.3636 75.5979C74.2722 75.5412 74.2027 75.4658 74.1551 75.3716C74.1076 75.2765 74.0838 75.1727 74.0838 75.0602ZM74.483 74.9121V75.0602C74.483 75.1251 74.4985 75.1864 74.5296 75.244C74.5616 75.3016 74.6192 75.3304 74.7024 75.3304C74.7856 75.3304 74.8423 75.3021 74.8725 75.2454C74.9036 75.1887 74.9191 75.127 74.9191 75.0602V74.9121C74.9191 74.8453 74.9045 74.7831 74.8752 74.7255C74.846 74.6679 74.7884 74.6391 74.7024 74.6391C74.6201 74.6391 74.563 74.6679 74.531 74.7255C74.499 74.7831 74.483 74.8453 74.483 74.9121ZM72.6422 73.4527V73.3045C72.6422 73.1912 72.6665 73.0874 72.7149 72.9932C72.7634 72.8981 72.8334 72.8222 72.9248 72.7655C73.0172 72.7088 73.1287 72.6805 73.2595 72.6805C73.3948 72.6805 73.5082 72.7088 73.5996 72.7655C73.6911 72.8222 73.7606 72.8981 73.8081 72.9932C73.8557 73.0874 73.8794 73.1912 73.8794 73.3045V73.4527C73.8794 73.5661 73.8552 73.6698 73.8067 73.764C73.7592 73.8582 73.6892 73.9337 73.5969 73.9903C73.5055 74.0461 73.393 74.074 73.2595 74.074C73.126 74.074 73.013 74.0457 72.9207 73.989C72.8292 73.9314 72.7597 73.8559 72.7122 73.7627C72.6656 73.6685 72.6422 73.5651 72.6422 73.4527ZM73.0441 73.3045V73.4527C73.0441 73.5194 73.0597 73.5811 73.0908 73.6378C73.1228 73.6945 73.179 73.7229 73.2595 73.7229C73.3436 73.7229 73.4008 73.6945 73.4309 73.6378C73.462 73.5811 73.4776 73.5194 73.4776 73.4527V73.3045C73.4776 73.2378 73.4629 73.1756 73.4337 73.118C73.4044 73.0604 73.3463 73.0316 73.2595 73.0316C73.1781 73.0316 73.1219 73.0608 73.0908 73.1194C73.0597 73.1779 73.0441 73.2396 73.0441 73.3045ZM72.8233 75.5869L74.7545 72.7778H75.1139L73.1827 75.5869H72.8233Z" fill="white"/>
<g style="mix-blend-mode:multiply" opacity="0.31">
<path d="M76.4831 20.5917H57.377C56.184 20.5917 55.216 21.5596 55.216 22.7527V50.6267C55.216 51.8198 56.184 52.7878 57.377 52.7878H76.4831V20.5889V20.5917Z" fill="#323197"/>
</g>
<path d="M82.4653 18.487H59.2538C58.0603 18.487 57.0928 19.4545 57.0928 20.648V48.5248C57.0928 49.7184 58.0603 50.6859 59.2538 50.6859H82.4653C83.6588 50.6859 84.6263 49.7184 84.6263 48.5248V20.648C84.6263 19.4545 83.6588 18.487 82.4653 18.487Z" fill="url(#paint5_linear_294_1279)"/>
<path d="M70.6331 24.2892V18.487H59.2567C58.0637 18.487 57.0957 19.455 57.0957 20.648V24.2892H70.6359H70.6331Z" fill="#A1C2FF"/>
<path d="M59.8494 23H59.1072L60.2381 19.7241H61.1306L62.2599 23H61.5177L60.6971 20.4727H60.6715L59.8494 23ZM59.803 21.7124H61.5561V22.253H59.803V21.7124ZM62.6542 23V19.7241H63.9466C64.1951 19.7241 64.4068 19.7716 64.5817 19.8665C64.7565 19.9603 64.8898 20.0909 64.9815 20.2584C65.0743 20.4247 65.1207 20.6167 65.1207 20.8342C65.1207 21.0517 65.0738 21.2437 64.9799 21.41C64.8861 21.5764 64.7501 21.706 64.5721 21.7987C64.395 21.8915 64.1807 21.9379 63.929 21.9379H63.1053V21.3828H63.8171C63.9504 21.3828 64.0602 21.3599 64.1466 21.3141C64.234 21.2671 64.2991 21.2026 64.3417 21.1205C64.3854 21.0373 64.4073 20.9419 64.4073 20.8342C64.4073 20.7254 64.3854 20.6305 64.3417 20.5495C64.2991 20.4674 64.234 20.4039 64.1466 20.3591C64.0591 20.3133 63.9482 20.2904 63.8139 20.2904H63.3468V23H62.6542ZM65.5706 23V19.7241H66.863C67.1104 19.7241 67.3216 19.7684 67.4964 19.8569C67.6724 19.9443 67.8062 20.0685 67.8979 20.2296C67.9907 20.3895 68.0371 20.5777 68.0371 20.7942C68.0371 21.0118 67.9902 21.1989 67.8963 21.3557C67.8025 21.5113 67.6665 21.6308 67.4884 21.714C67.3114 21.7971 67.0971 21.8387 66.8454 21.8387H65.9801V21.2821H66.7335C66.8657 21.2821 66.9755 21.2639 67.063 21.2277C67.1504 21.1914 67.2155 21.1371 67.2581 21.0645C67.3018 20.992 67.3237 20.9019 67.3237 20.7942C67.3237 20.6854 67.3018 20.5937 67.2581 20.5191C67.2155 20.4444 67.1499 20.3879 67.0614 20.3495C66.9739 20.3101 66.8636 20.2904 66.7303 20.2904H66.2632V23H65.5706ZM67.3397 21.5092L68.1539 23H67.3893L66.5927 21.5092H67.3397Z" fill="white"/>
<path d="M72.2847 19.7241H73.1389L74.041 21.9251H74.0794L74.9816 19.7241H75.8357V23H75.1639V20.8678H75.1367L74.289 22.984H73.8315L72.9837 20.8598H72.9565V23H72.2847V19.7241ZM76.971 23H76.2288L77.3597 19.7241H78.2523L79.3816 23H78.6394L77.8188 20.4727H77.7932L76.971 23ZM76.9246 21.7124H78.6777V22.253H76.9246V21.7124ZM79.2496 19.7241H80.0254L80.7724 21.1349H80.8044L81.5514 19.7241H82.3271L81.1323 21.8419V23H80.4445V21.8419L79.2496 19.7241Z" fill="#93A5C9"/>
<path d="M63.2101 27.5335H60.2218C59.869 27.5335 59.5831 27.8195 59.5831 28.1723V31.1606C59.5831 31.5133 59.869 31.7993 60.2218 31.7993H63.2101C63.5629 31.7993 63.8489 31.5133 63.8489 31.1606V28.1723C63.8489 27.8195 63.5629 27.5335 63.2101 27.5335Z" fill="#A1C2FF"/>
<path d="M69.2684 27.5335H66.28C65.9273 27.5335 65.6413 27.8195 65.6413 28.1723V31.1606C65.6413 31.5133 65.9273 31.7993 66.28 31.7993H69.2684C69.6211 31.7993 69.9071 31.5133 69.9071 31.1606V28.1723C69.9071 27.8195 69.6211 27.5335 69.2684 27.5335Z" fill="#A1C2FF"/>
<path d="M75.3266 27.5335H72.3383C71.9855 27.5335 71.6995 27.8195 71.6995 28.1723V31.1606C71.6995 31.5133 71.9855 31.7993 72.3383 31.7993H75.3266C75.6793 31.7993 75.9653 31.5133 75.9653 31.1606V28.1723C75.9653 27.8195 75.6793 27.5335 75.3266 27.5335Z" fill="#A1C2FF"/>
<path d="M81.3848 27.5335H78.3965C78.0437 27.5335 77.7578 27.8195 77.7578 28.1723V31.1606C77.7578 31.5133 78.0437 31.7993 78.3965 31.7993H81.3848C81.7376 31.7993 82.0235 31.5133 82.0235 31.1606V28.1723C82.0235 27.8195 81.7376 27.5335 81.3848 27.5335Z" fill="#A1C2FF"/>
<path d="M63.2101 34.1882H60.2218C59.869 34.1882 59.5831 34.4742 59.5831 34.827V37.8153C59.5831 38.1681 59.869 38.454 60.2218 38.454H63.2101C63.5629 38.454 63.8489 38.1681 63.8489 37.8153V34.827C63.8489 34.4742 63.5629 34.1882 63.2101 34.1882Z" fill="#A1C2FF"/>
<path d="M69.2684 34.1882H66.28C65.9273 34.1882 65.6413 34.4741 65.6413 34.8269V37.8152C65.6413 38.168 65.9273 38.454 66.28 38.454H69.2684C69.6211 38.454 69.9071 38.168 69.9071 37.8152V34.8269C69.9071 34.4741 69.6211 34.1882 69.2684 34.1882Z" fill="#A1C2FF"/>
<path d="M75.3266 34.1882H72.3383C71.9855 34.1882 71.6995 34.4741 71.6995 34.8269V37.8152C71.6995 38.168 71.9855 38.454 72.3383 38.454H75.3266C75.6793 38.454 75.9653 38.168 75.9653 37.8152V34.8269C75.9653 34.4741 75.6793 34.1882 75.3266 34.1882Z" fill="#FF8D02"/>
<path d="M81.3848 34.1882H78.3965C78.0437 34.1882 77.7578 34.4741 77.7578 34.8269V37.8152C77.7578 38.168 78.0437 38.454 78.3965 38.454H81.3848C81.7376 38.454 82.0235 38.168 82.0235 37.8152V34.8269C82.0235 34.4741 81.7376 34.1882 81.3848 34.1882Z" fill="#A1C2FF"/>
<path d="M63.2101 40.843H60.2218C59.869 40.843 59.5831 41.1289 59.5831 41.4817V44.47C59.5831 44.8228 59.869 45.1088 60.2218 45.1088H63.2101C63.5629 45.1088 63.8489 44.8228 63.8489 44.47V41.4817C63.8489 41.1289 63.5629 40.843 63.2101 40.843Z" fill="#A1C2FF"/>
<path d="M69.2684 40.843H66.28C65.9273 40.843 65.6413 41.1289 65.6413 41.4817V44.47C65.6413 44.8228 65.9273 45.1088 66.28 45.1088H69.2684C69.6211 45.1088 69.9071 44.8228 69.9071 44.47V41.4817C69.9071 41.1289 69.6211 40.843 69.2684 40.843Z" fill="#A1C2FF"/>
<path d="M75.3266 40.843H72.3383C71.9855 40.843 71.6995 41.1289 71.6995 41.4817V44.47C71.6995 44.8228 71.9855 45.1088 72.3383 45.1088H75.3266C75.6793 45.1088 75.9653 44.8228 75.9653 44.47V41.4817C75.9653 41.1289 75.6793 40.843 75.3266 40.843Z" fill="#A1C2FF"/>
<path d="M81.3848 40.843H78.3965C78.0437 40.843 77.7578 41.1289 77.7578 41.4817V44.47C77.7578 44.8228 78.0437 45.1088 78.3965 45.1088H81.3848C81.7376 45.1088 82.0235 44.8228 82.0235 44.47V41.4817C82.0235 41.1289 81.7376 40.843 81.3848 40.843Z" fill="#A1C2FF"/>
<g opacity="0.08">
<path d="M44.6049 11.8322H33.0034C32.4844 11.8322 32.0636 12.253 32.0636 12.772V14.3056C32.0636 14.8246 32.4844 15.2454 33.0034 15.2454H44.6049C45.124 15.2454 45.5448 14.8246 45.5448 14.3056V12.772C45.5448 12.253 45.124 11.8322 44.6049 11.8322Z" fill="white"/>
<path d="M44.6049 16.9506H33.0034C32.4844 16.9506 32.0636 17.3713 32.0636 17.8904V19.4239C32.0636 19.943 32.4844 20.3638 33.0034 20.3638H44.6049C45.124 20.3638 45.5448 19.943 45.5448 19.4239V17.8904C45.5448 17.3713 45.124 16.9506 44.6049 16.9506Z" fill="white"/>
</g>
<g style="mix-blend-mode:multiply" opacity="0.31">
<path d="M33.2567 19.1145C31.4165 19.1145 29.6522 19.4353 28.0145 20.0206V49.3831C29.6522 49.9684 31.4165 50.2891 33.2567 50.2891C41.8643 50.2891 48.8426 43.3108 48.8426 34.7032C48.8426 26.0957 41.8643 19.1173 33.2567 19.1173V19.1145Z" fill="#323197"/>
</g>
<path d="M33.2567 49.2649C41.3004 49.2649 47.8212 42.7442 47.8212 34.7004C47.8212 26.6567 41.3004 20.1359 33.2567 20.1359C25.2129 20.1359 18.6922 26.6567 18.6922 34.7004C18.6922 42.7442 25.2129 49.2649 33.2567 49.2649Z" fill="#A1C2FF"/>
<path d="M33.2567 47.841C40.5141 47.841 46.3974 41.9578 46.3974 34.7004C46.3974 27.443 40.5141 21.5597 33.2567 21.5597C25.9993 21.5597 20.116 27.443 20.116 34.7004C20.116 41.9578 25.9993 47.841 33.2567 47.841Z" fill="white"/>
<mask id="mask0_294_1279" style="mask-type:luminance" maskUnits="userSpaceOnUse" x="20" y="21" width="27" height="27">
<path d="M33.2567 47.841C40.5141 47.841 46.3974 41.9578 46.3974 34.7004C46.3974 27.443 40.5141 21.5597 33.2567 21.5597C25.9993 21.5597 20.116 27.443 20.116 34.7004C20.116 41.9578 25.9993 47.841 33.2567 47.841Z" fill="white"/>
</mask>
<g mask="url(#mask0_294_1279)">
<path d="M35.0829 34.5231C35.0829 34.5231 34.0164 37.3651 34.7283 39.2307C34.9956 41.0062 29.9335 39.6753 29.1344 37.4551C29.4017 36.0341 30.3781 35.0577 30.4653 32.2157C30.5554 29.3738 35.1729 32.6603 35.0829 34.5259V34.5231Z" fill="url(#paint6_linear_294_1279)"/>
<g style="mix-blend-mode:multiply" opacity="0.32">
<path d="M30.1924 34.3148C30.2769 33.9744 30.3472 33.5973 30.395 33.1724L33.2173 31.8583C34.2275 32.5871 35.1195 33.6958 35.0801 34.5259C35.0801 34.5259 34.5877 35.8399 34.4948 37.2637C31.8723 36.7319 30.6933 35.2715 30.1896 34.3148H30.1924Z" fill="#FFA26E"/>
</g>
<path d="M37.2354 30.1447C37.2354 30.1447 38.482 33.6592 37.2776 35.0802C35.3952 37.2975 32.4688 36.0847 31.2982 34.7453C30.1276 33.4059 30.1698 27.8458 32.1339 26.9678C34.1008 26.0899 36.3997 26.7174 37.2354 30.1475V30.1447Z" fill="url(#paint7_linear_294_1279)"/>
<g style="mix-blend-mode:multiply" opacity="0.32">
<path d="M30.8705 28.766C30.9071 28.6506 30.9437 28.5381 30.9859 28.4283L32.0495 27.2971L35.3699 27.0945C35.8454 27.4041 36.2788 27.8684 36.6277 28.5127C35.8848 28.7829 34.5314 29.1909 33.4283 29.0586C32.3169 28.9432 32.4716 29.0586 32.4716 29.0586C32.4716 29.0586 32.9303 30.0941 32.3197 31.1662C31.7063 32.2383 31.0928 32.7757 31.3995 33.6564C31.1322 33.1556 30.924 29.6495 30.8734 28.7632L30.8705 28.766Z" fill="#FFA26E"/>
</g>
<path d="M31.8442 28.6759C31.8442 28.6759 32.5477 29.7873 31.4728 31.7795C31.4728 31.7795 31.1267 32.7362 31.4869 33.631C31.5375 34.0897 30.5161 33.1471 30.3641 32.7362C30.2122 32.4295 29.2667 32.8629 28.9713 32.4549C28.6786 32.0468 29.1879 31.5854 29.1879 31.5854C29.1879 31.5854 27.8091 30.1559 27.9611 28.9797C28.113 27.8036 29.4946 27.9077 29.4946 27.9077C29.4946 27.9077 28.7293 27.5503 28.5239 27.1423C28.3719 26.7849 29.5453 27.449 29.6466 27.7051C29.6466 27.7051 29.5453 27.2971 29.852 26.9397C30.0574 26.6836 29.9027 27.7051 29.9027 27.7051C29.9027 27.7051 30.1081 27.0917 30.7721 26.3263C31.4362 25.5609 32.6096 26.0702 33.5297 25.5103C34.4498 24.9475 34.2951 23.8754 34.9085 23.8248C35.5219 23.7741 36.836 24.7702 36.5687 26.6077C36.5687 26.6077 36.7994 25.8789 36.7206 24.8462C36.9514 24.7308 37.5648 26.4557 36.4899 27.2605C36.4899 27.2605 37.1033 27.1085 37.4466 26.225C37.7139 25.6116 38.0966 27.6038 35.9524 28.2566C33.8083 28.9066 32.4801 28.2172 31.8414 28.6787L31.8442 28.6759Z" fill="url(#paint8_linear_294_1279)"/>
<path d="M32.089 33.2878C32.089 33.8984 32.5842 34.3909 33.192 34.3909C33.7998 34.3909 34.295 33.8956 34.295 33.2878C34.295 32.6801 33.7998 32.1848 33.192 32.1848C32.5842 32.1848 32.089 32.6801 32.089 33.2878Z" fill="#FE746A"/>
<path d="M30.6511 33.043C30.6511 33.043 29.6887 31.6699 29.126 32.4296C28.5547 33.1978 30.8649 34.5569 30.9268 33.9209C30.9775 33.3891 30.6539 33.0458 30.6539 33.0458L30.6511 33.043Z" fill="url(#paint9_linear_294_1279)"/>
<path d="M30.4204 33.5412C30.4204 33.5412 29.942 32.6604 29.3286 32.6604C29.1569 32.5085 29.655 32.5648 29.9223 32.7758C30.1896 32.9868 30.6117 33.3695 30.4204 33.5412Z" fill="#FF7D5A"/>
<path d="M30.44 33.3891C30.44 33.3891 29.866 32.8264 29.5706 33.0177C29.4299 33.2484 30.5667 33.8084 30.44 33.3891Z" fill="#FF7D5A"/>
<path d="M39.8327 65.6471C39.6582 64.4428 39.3233 47.7623 39.3233 45.5056C39.3233 43.0237 38.3104 41.5043 38.3104 41.5043C37.7532 40.5419 36.0311 39.6302 35.474 39.2757C34.9169 38.9211 34.5623 38.5159 34.5623 38.5159C34.5623 38.5159 34.6636 39.1237 33.9039 39.6809C31.1182 39.9848 29.2948 37.0471 29.2948 37.0471C29.2948 37.0471 24.9896 38.9718 24.2327 41.0991C22.8257 45.1398 22.5162 64.2289 22.4684 65.6443H39.8327V65.6471Z" fill="url(#paint10_linear_294_1279)"/>
</g>
<path d="M44.2926 31.3997C46.3657 31.3997 48.0463 29.7192 48.0463 27.6461C48.0463 25.573 46.3657 23.8924 44.2926 23.8924C42.2195 23.8924 40.5389 25.573 40.5389 27.6461C40.5389 29.7192 42.2195 31.3997 44.2926 31.3997Z" fill="url(#paint11_linear_294_1279)"/>
<path d="M42.8153 27.7023L44.0084 28.8981L46.2707 26.6358" stroke="white" stroke-opacity="0.8" stroke-width="0.750725" stroke-linecap="round" stroke-linejoin="round"/>
<g style="mix-blend-mode:multiply" opacity="0.31">
<path d="M47.5933 79.7557H28.0145V86.07H47.5933C48.1589 86.07 48.6175 85.6113 48.6175 85.0457V80.7799C48.6175 80.2143 48.1589 79.7557 47.5933 79.7557Z" fill="#323197"/>
</g>
<path d="M46.3974 78.5599H23.7009C23.1352 78.5599 22.6766 79.0184 22.6766 79.5841V83.8499C22.6766 84.4156 23.1352 84.8742 23.7009 84.8742H46.3974C46.9631 84.8742 47.4216 84.4156 47.4216 83.8499V79.5841C47.4216 79.0184 46.9631 78.5599 46.3974 78.5599Z" fill="white"/>
<path d="M27.0858 84.0497C25.8787 84.0497 24.8967 83.0676 24.8967 81.8605C24.8967 80.6534 25.8787 79.6713 27.0858 79.6713C28.293 79.6713 29.275 80.6534 29.275 81.8605C29.275 83.0676 28.293 84.0497 27.0858 84.0497ZM27.0858 80.3523C26.2558 80.3523 25.5776 81.0276 25.5776 81.8605C25.5776 82.6934 26.2529 83.3687 27.0858 83.3687C27.9187 83.3687 28.5941 82.6934 28.5941 81.8605C28.5941 81.0276 27.9187 80.3523 27.0858 80.3523Z" fill="#A1C2FF"/>
<path d="M27.5389 82.1869H26.9846C26.8889 82.1869 26.8129 82.111 26.8129 82.0153V80.9066C26.8129 80.811 26.8889 80.735 26.9846 80.735C27.0802 80.735 27.1562 80.811 27.1562 80.9066V81.8465H27.5389C27.6346 81.8465 27.7105 81.9224 27.7105 82.0181C27.7105 82.1138 27.6346 82.1897 27.5389 82.1897V82.1869Z" fill="#A1C2FF"/>
<path d="M32.2464 84.1622C31.9942 84.1612 31.7772 84.0991 31.5953 83.976C31.4145 83.8528 31.2752 83.6744 31.1775 83.4408C31.0807 83.2071 31.0328 82.9261 31.0338 82.5977C31.0338 82.2702 31.0822 81.9911 31.1789 81.7604C31.2767 81.5297 31.416 81.3543 31.5968 81.2341C31.7786 81.1128 31.9951 81.0522 32.2464 81.0522C32.4976 81.0522 32.7136 81.1128 32.8945 81.2341C33.0763 81.3553 33.2161 81.5312 33.3138 81.7619C33.4116 81.9916 33.4599 82.2702 33.459 82.5977C33.459 82.9271 33.4101 83.2086 33.3123 83.4422C33.2156 83.6759 33.0768 83.8543 32.8959 83.9774C32.7151 84.1006 32.4986 84.1622 32.2464 84.1622ZM32.2464 83.6358C32.4184 83.6358 32.5557 83.5493 32.6584 83.3763C32.761 83.2032 32.8119 82.9437 32.8109 82.5977C32.8109 82.3699 32.7874 82.1803 32.7405 82.0288C32.6946 81.8773 32.6291 81.7634 32.544 81.6871C32.46 81.6109 32.3607 81.5728 32.2464 81.5728C32.0753 81.5728 31.9385 81.6583 31.8358 81.8294C31.7332 82.0004 31.6814 82.2565 31.6804 82.5977C31.6804 82.8284 31.7034 83.0209 31.7493 83.1754C31.7962 83.3288 31.8622 83.4442 31.9473 83.5214C32.0323 83.5977 32.132 83.6358 32.2464 83.6358ZM35.0216 84.1372C34.8027 84.1372 34.6077 84.0996 34.4366 84.0243C34.2665 83.9481 34.1321 83.8435 34.0334 83.7106C33.9356 83.5766 33.8853 83.4222 33.8823 83.2472H34.5216C34.5255 83.3205 34.5495 83.3851 34.5935 83.4408C34.6384 83.4955 34.6981 83.538 34.7724 83.5683C34.8467 83.5986 34.9302 83.6138 35.0231 83.6138C35.1199 83.6138 35.2054 83.5967 35.2797 83.5625C35.354 83.5283 35.4121 83.4809 35.4542 83.4202C35.4962 83.3596 35.5172 83.2897 35.5172 83.2106C35.5172 83.1304 35.4947 83.0595 35.4498 82.998C35.4058 82.9354 35.3423 82.8865 35.2592 82.8513C35.1771 82.8161 35.0793 82.7986 34.9659 82.7986H34.6859V82.3323H34.9659C35.0617 82.3323 35.1463 82.3157 35.2196 82.2824C35.2939 82.2492 35.3515 82.2032 35.3926 82.1446C35.4337 82.085 35.4542 82.0156 35.4542 81.9364C35.4542 81.8611 35.4361 81.7951 35.3999 81.7384C35.3647 81.6808 35.3149 81.6358 35.2504 81.6035C35.1868 81.5713 35.1125 81.5552 35.0275 81.5552C34.9415 81.5552 34.8628 81.5708 34.7914 81.6021C34.7201 81.6324 34.6629 81.6759 34.6199 81.7326C34.5769 81.7893 34.5539 81.8557 34.551 81.932H33.9425C33.9454 81.759 33.9948 81.6065 34.0906 81.4745C34.1864 81.3426 34.3154 81.2394 34.4776 81.1651C34.6409 81.0899 34.8252 81.0522 35.0304 81.0522C35.2377 81.0522 35.419 81.0899 35.5744 81.1651C35.7298 81.2404 35.8506 81.3421 35.9366 81.4701C36.0236 81.5972 36.0666 81.7399 36.0656 81.8983C36.0666 82.0664 36.0143 82.2067 35.9087 82.3191C35.8041 82.4315 35.6678 82.5029 35.4996 82.5332V82.5566C35.7205 82.585 35.8887 82.6617 36.004 82.7868C36.1203 82.911 36.178 83.0664 36.177 83.2531C36.178 83.4242 36.1287 83.5762 36.029 83.7091C35.9302 83.842 35.7939 83.9466 35.6199 84.0229C35.4459 84.0991 35.2465 84.1372 35.0216 84.1372ZM37.0044 83.7472C36.9076 83.7472 36.8245 83.713 36.7551 83.6446C36.6867 83.5762 36.6525 83.4931 36.6525 83.3953C36.6525 83.2995 36.6867 83.2174 36.7551 83.149C36.8245 83.0806 36.9076 83.0463 37.0044 83.0463C37.0982 83.0463 37.1803 83.0806 37.2507 83.149C37.3211 83.2174 37.3563 83.2995 37.3563 83.3953C37.3563 83.4598 37.3397 83.519 37.3064 83.5727C37.2742 83.6255 37.2317 83.668 37.1789 83.7003C37.1261 83.7316 37.0679 83.7472 37.0044 83.7472ZM37.0044 82.2736C36.9076 82.2736 36.8245 82.2394 36.7551 82.171C36.6867 82.1026 36.6525 82.0195 36.6525 81.9217C36.6525 81.8259 36.6867 81.7443 36.7551 81.6769C36.8245 81.6084 36.9076 81.5742 37.0044 81.5742C37.0982 81.5742 37.1803 81.6084 37.2507 81.6769C37.3211 81.7443 37.3563 81.8259 37.3563 81.9217C37.3563 81.9872 37.3397 82.0468 37.3064 82.1006C37.2742 82.1534 37.2317 82.1954 37.1789 82.2267C37.1261 82.258 37.0679 82.2736 37.0044 82.2736ZM39.0406 84.1622C38.7885 84.1612 38.5714 84.0991 38.3896 83.976C38.2088 83.8528 38.0695 83.6744 37.9717 83.4408C37.875 83.2071 37.8271 82.9261 37.8281 82.5977C37.8281 82.2702 37.8764 81.9911 37.9732 81.7604C38.071 81.5297 38.2103 81.3543 38.3911 81.2341C38.5729 81.1128 38.7894 81.0522 39.0406 81.0522C39.2919 81.0522 39.5079 81.1128 39.6887 81.2341C39.8706 81.3553 40.0103 81.5312 40.1081 81.7619C40.2058 81.9916 40.2542 82.2702 40.2532 82.5977C40.2532 82.9271 40.2044 83.2086 40.1066 83.4422C40.0098 83.6759 39.871 83.8543 39.6902 83.9774C39.5094 84.1006 39.2928 84.1622 39.0406 84.1622ZM39.0406 83.6358C39.2127 83.6358 39.35 83.5493 39.4527 83.3763C39.5553 83.2032 39.6061 82.9437 39.6052 82.5977C39.6052 82.3699 39.5817 82.1803 39.5348 82.0288C39.4888 81.8773 39.4233 81.7634 39.3383 81.6871C39.2542 81.6109 39.155 81.5728 39.0406 81.5728C38.8696 81.5728 38.7327 81.6583 38.6301 81.8294C38.5275 82.0004 38.4757 82.2565 38.4747 82.5977C38.4747 82.8284 38.4976 83.0209 38.5436 83.1754C38.5905 83.3288 38.6565 83.4442 38.7415 83.5214C38.8266 83.5977 38.9263 83.6358 39.0406 83.6358ZM41.8834 84.1622C41.6312 84.1612 41.4142 84.0991 41.2323 83.976C41.0515 83.8528 40.9122 83.6744 40.8145 83.4408C40.7177 83.2071 40.6698 82.9261 40.6708 82.5977C40.6708 82.2702 40.7192 81.9911 40.8159 81.7604C40.9137 81.5297 41.053 81.3543 41.2338 81.2341C41.4156 81.1128 41.6321 81.0522 41.8834 81.0522C42.1346 81.0522 42.3506 81.1128 42.5314 81.2341C42.7133 81.3553 42.853 81.5312 42.9508 81.7619C43.0486 81.9916 43.0969 82.2702 43.096 82.5977C43.096 82.9271 43.0471 83.2086 42.9493 83.4422C42.8526 83.6759 42.7138 83.8543 42.5329 83.9774C42.3521 84.1006 42.1356 84.1622 41.8834 84.1622ZM41.8834 83.6358C42.0554 83.6358 42.1927 83.5493 42.2954 83.3763C42.398 83.2032 42.4488 82.9437 42.4479 82.5977C42.4479 82.3699 42.4244 82.1803 42.3775 82.0288C42.3315 81.8773 42.2661 81.7634 42.181 81.6871C42.0969 81.6109 41.9977 81.5728 41.8834 81.5728C41.7123 81.5728 41.5754 81.6583 41.4728 81.8294C41.3702 82.0004 41.3184 82.2565 41.3174 82.5977C41.3174 82.8284 41.3404 83.0209 41.3863 83.1754C41.4332 83.3288 41.4992 83.4442 41.5842 83.5214C41.6693 83.5977 41.769 83.6358 41.8834 83.6358Z" fill="#93A5C9"/>
<path d="M31.0866 89.0962V86.0933H32.2713C32.4991 86.0933 32.6931 86.1368 32.8534 86.2238C33.0137 86.3098 33.1359 86.4296 33.22 86.583C33.305 86.7355 33.3475 86.9115 33.3475 87.1109C33.3475 87.3103 33.3045 87.4862 33.2185 87.6387C33.1325 87.7912 33.0078 87.91 32.8446 87.995C32.6823 88.0801 32.4859 88.1226 32.2552 88.1226H31.5V87.6138H32.1525C32.2747 87.6138 32.3754 87.5928 32.4546 87.5508C32.5347 87.5077 32.5944 87.4486 32.6335 87.3733C32.6735 87.2971 32.6936 87.2096 32.6936 87.1109C32.6936 87.0112 32.6735 86.9242 32.6335 86.8499C32.5944 86.7746 32.5347 86.7165 32.4546 86.6754C32.3744 86.6334 32.2728 86.6123 32.1496 86.6123H31.7214V89.0962H31.0866ZM33.7599 86.0933H34.5429L35.3699 88.1109H35.4051L36.232 86.0933H37.015V89.0962H36.3992V87.1417H36.3743L35.5971 89.0815H35.1778L34.4007 87.1343H34.3757V89.0962H33.7599V86.0933Z" fill="#5A6A90"/>
<path d="M49.0424 77.7917C49.0424 78.1687 48.7357 78.4754 48.3586 78.4754C47.9816 78.4754 47.6749 78.1687 47.6749 77.7917C47.6749 77.4146 47.9816 77.1079 48.3586 77.1079C48.7357 77.1079 49.0424 77.4146 49.0424 77.7917Z" fill="white"/>
<path opacity="0.44" d="M66.7922 55.1796H54.3353C53.8162 55.1796 53.3954 55.5998 53.3954 56.118C53.3954 56.6363 53.8162 57.0565 54.3353 57.0565H66.7922C67.3112 57.0565 67.732 56.6363 67.732 56.118C67.732 55.5998 67.3112 55.1796 66.7922 55.1796Z" stroke="white" stroke-opacity="0.8" stroke-width="0.375363" stroke-miterlimit="10"/>
<path opacity="0.44" d="M58.0889 60.0447H54.3353C53.8175 60.0447 53.3954 59.6255 53.3954 59.1049C53.3954 58.5872 53.8147 58.1651 54.3353 58.1651H58.0889C58.6067 58.1651 59.0288 58.5844 59.0288 59.1049C59.0288 59.6227 58.6095 60.0447 58.0889 60.0447Z" stroke="white" stroke-opacity="0.8" stroke-width="0.375363" stroke-miterlimit="10"/>
<path d="M23.473 21.5034C23.473 22.007 23.065 22.4122 22.5641 22.4122C22.0632 22.4122 21.6552 22.0042 21.6552 21.5034C21.6552 21.0025 22.0632 20.5945 22.5641 20.5945C23.065 20.5945 23.473 21.0025 23.473 21.5034Z" fill="#A1C2FF"/>
</g>
<defs>
<linearGradient id="paint0_linear_294_1279" x1="-0.0626593" y1="74.7513" x2="40.8782" y2="85.4461" gradientUnits="userSpaceOnUse">
<stop stop-color="#6060E7"/>
<stop offset="1" stop-color="#8182EE"/>
</linearGradient>
<linearGradient id="paint1_linear_294_1279" x1="41.2986" y1="99.0362" x2="67.9233" y2="-28.6197" gradientUnits="userSpaceOnUse">
<stop stop-color="#6060E7"/>
<stop offset="1" stop-color="#8182EE"/>
</linearGradient>
<linearGradient id="paint2_linear_294_1279" x1="37.6942" y1="71.4745" x2="42.0191" y2="71.4745" gradientUnits="userSpaceOnUse">
<stop stop-color="#FF8D02"/>
<stop offset="1" stop-color="#FFC757"/>
</linearGradient>
<linearGradient id="paint3_linear_294_1279" x1="61.2911" y1="68.264" x2="88.8218" y2="68.264" gradientUnits="userSpaceOnUse">
<stop stop-color="#FF8D02"/>
<stop offset="1" stop-color="#FFC757"/>
</linearGradient>
<linearGradient id="paint4_linear_294_1279" x1="67.4337" y1="68.2639" x2="82.6792" y2="68.2639" gradientUnits="userSpaceOnUse">
<stop stop-color="#D5E0F5"/>
<stop offset="1" stop-color="white"/>
</linearGradient>
<linearGradient id="paint5_linear_294_1279" x1="60.6607" y1="53.0608" x2="76.362" y2="24.6184" gradientUnits="userSpaceOnUse">
<stop stop-color="#D9E3F6"/>
<stop offset="0.12" stop-color="#EAEFFA"/>
<stop offset="0.26" stop-color="#F6F8FD"/>
<stop offset="0.46" stop-color="#FDFDFE"/>
<stop offset="1" stop-color="white"/>
</linearGradient>
<linearGradient id="paint6_linear_294_1279" x1="30.8171" y1="38.9662" x2="33.1273" y2="34.7032" gradientUnits="userSpaceOnUse">
<stop stop-color="#FFB58E"/>
<stop offset="0.33" stop-color="#FEB38A"/>
<stop offset="0.59" stop-color="#FCAC80"/>
<stop offset="0.83" stop-color="#F8A270"/>
<stop offset="1" stop-color="#F5985F"/>
</linearGradient>
<linearGradient id="paint7_linear_294_1279" x1="34.9393" y1="28.0174" x2="33.3692" y2="36.1016" gradientUnits="userSpaceOnUse">
<stop stop-color="#FFB58E"/>
<stop offset="0.33" stop-color="#FEB38A"/>
<stop offset="0.59" stop-color="#FCAC80"/>
<stop offset="0.83" stop-color="#F8A270"/>
<stop offset="1" stop-color="#F5985F"/>
</linearGradient>
<linearGradient id="paint8_linear_294_1279" x1="34.1347" y1="25.5947" x2="29.4327" y2="31.8274" gradientUnits="userSpaceOnUse">
<stop stop-color="#B62C01"/>
<stop offset="1" stop-color="#7C0C0A"/>
</linearGradient>
<linearGradient id="paint9_linear_294_1279" x1="30.9324" y1="28.3749" x2="29.714" y2="34.6497" gradientUnits="userSpaceOnUse">
<stop stop-color="#FFB58E"/>
<stop offset="0.33" stop-color="#FEB38A"/>
<stop offset="0.59" stop-color="#FCAC80"/>
<stop offset="0.83" stop-color="#F8A270"/>
<stop offset="1" stop-color="#F5985F"/>
</linearGradient>
<linearGradient id="paint10_linear_294_1279" x1="21.9478" y1="66.0748" x2="38.0402" y2="45.6209" gradientUnits="userSpaceOnUse">
<stop stop-color="#1196C3"/>
<stop offset="1" stop-color="#02B2CA"/>
</linearGradient>
<linearGradient id="paint11_linear_294_1279" x1="40.5389" y1="27.6461" x2="48.0491" y2="27.6461" gradientUnits="userSpaceOnUse">
<stop stop-color="#FF8D02"/>
<stop offset="1" stop-color="#FFC757"/>
</linearGradient>
</defs>
</svg>
