<?xml version="1.0" encoding="utf-8"?>
<!-- Generator: Adobe Illustrator 25.2.1, SVG Export Plug-In . SVG Version: 6.00 Build 0)  -->
<svg version="1.1" id="Layer_1" xmlns="http://www.w3.org/2000/svg" xmlns:xlink="http://www.w3.org/1999/xlink" x="0px" y="0px"
	 viewBox="0 0 16 16" style="enable-background:new 0 0 16 16;" xml:space="preserve">
<style type="text/css">
	.st0{fill-rule:evenodd;clip-rule:evenodd;fill:#036D8E;}
	.st1{fill:#FF8752;}
	.st2{fill-rule:evenodd;clip-rule:evenodd;fill:#EDE8E6;}
	.st3{fill-rule:evenodd;clip-rule:evenodd;fill:#FF8752;}
	.st4{fill:#036D8E;}
	.st5{fill-rule:evenodd;clip-rule:evenodd;fill:#FFFFFF;}
	.st6{fill-rule:evenodd;clip-rule:evenodd;fill:#9AC5D2;}
</style>
<ellipse transform="matrix(0.7071 -0.7071 0.7071 0.7071 -3.3138 7.9999)" class="st0" cx="8" cy="8" rx="5" ry="5"/>
<g>
	<path class="st1" d="M7.2,4c0,0.2-0.1,0.4-0.2,0.4c-0.2,0-0.4-0.1-0.4-0.2c0-0.2-0.1-0.3-0.1-0.5c0-0.4,0.1-0.8,0.3-1.1
		C7,2.3,7.3,2,7.7,1.9c0.1,0,0.2,0,0.3,0c0.1,0,0.2,0,0.3,0C8.7,2,9,2.3,9.2,2.6c0.2,0.3,0.3,0.7,0.3,1.1c0,0.1,0,0.3-0.1,0.5
		c0,0.2-0.2,0.3-0.4,0.2C8.9,4.3,8.8,4.1,8.8,4c0-0.1,0-0.2,0-0.3c0-0.3-0.1-0.5-0.2-0.7C8.5,2.8,8.4,2.6,8.2,2.6
		c-0.1,0-0.1,0-0.2,0c-0.1,0-0.1,0-0.2,0c-0.2,0-0.4,0.2-0.5,0.4C7.2,3.1,7.1,3.4,7.1,3.7C7.1,3.8,7.1,3.9,7.2,4z"/>
	<circle class="st2" cx="8" cy="1.8" r="1.1"/>
	<path class="st3" d="M8,2.7c0.5,0,0.9-0.4,0.9-0.9c0-0.5-0.4-0.9-0.9-0.9c-0.5,0-0.9,0.4-0.9,0.9C7.1,2.3,7.5,2.7,8,2.7z"/>
	<path class="st4" d="M6.9,1.5C6.9,1.7,6.7,1.8,6.5,1.7C6.3,1.6,6.2,1.5,6.3,1.3c0.1-0.4,0.3-0.7,0.7-0.9C7.2,0.1,7.6,0,8,0
		c0.4,0,0.8,0.1,1,0.3c0.3,0.2,0.5,0.6,0.7,0.9c0.1,0.2,0,0.4-0.2,0.4s-0.4,0-0.4-0.2C9,1.2,8.8,1,8.7,0.9C8.5,0.7,8.3,0.7,8,0.7
		c-0.3,0-0.5,0.1-0.7,0.2C7.1,1,7,1.2,6.9,1.5z"/>
</g>
<g>
	<path class="st1" d="M11.1,5.3c-0.1,0.1-0.3,0.1-0.5,0c-0.1-0.1-0.1-0.3,0-0.5c0.1-0.1,0.2-0.2,0.4-0.3c0.3-0.2,0.7-0.3,1.1-0.3
		c0.4,0,0.7,0.2,1,0.5c0.1,0.1,0.1,0.2,0.2,0.3c0.1,0.1,0.1,0.2,0.1,0.3c0.1,0.4,0.1,0.7-0.1,1.1c-0.2,0.3-0.4,0.6-0.8,0.8
		c-0.1,0.1-0.3,0.1-0.4,0.2c-0.2,0.1-0.4,0-0.4-0.2c-0.1-0.2,0-0.4,0.2-0.4c0.1,0,0.2-0.1,0.3-0.1c0.2-0.1,0.4-0.3,0.5-0.5
		c0.1-0.2,0.1-0.4,0.1-0.6c0,0,0-0.1-0.1-0.1c0,0-0.1-0.1-0.1-0.1C12.5,5,12.3,4.9,12,4.9c-0.2,0-0.5,0-0.7,0.2
		C11.2,5.1,11.2,5.2,11.1,5.3z"/>
	<path class="st2" d="M14.4,4.3c0.3,0.5,0.1,1.2-0.4,1.5c-0.5,0.3-1.2,0.1-1.5-0.4c-0.3-0.5-0.1-1.2,0.4-1.5
		C13.4,3.6,14.1,3.8,14.4,4.3z"/>
	<path class="st3" d="M14.2,4.4c0.2,0.4,0.1,1-0.3,1.2c-0.4,0.2-1,0.1-1.2-0.3c-0.2-0.4-0.1-1,0.3-1.2C13.4,3.9,13.9,4,14.2,4.4z"/>
	<path class="st4" d="M13.1,3.8c-0.2,0-0.4-0.1-0.4-0.3c0-0.2,0.1-0.4,0.3-0.4c0.4-0.1,0.8,0,1.1,0.1c0.3,0.1,0.6,0.4,0.8,0.7
		c0.2,0.4,0.3,0.7,0.2,1.1c0,0.4-0.2,0.7-0.5,1c-0.1,0.1-0.3,0.2-0.5,0c-0.1-0.1-0.2-0.3,0-0.5c0.2-0.2,0.3-0.4,0.3-0.7
		c0-0.2,0-0.5-0.1-0.7C14.2,4.1,14,4,13.8,3.9C13.6,3.8,13.3,3.7,13.1,3.8z"/>
</g>
<g>
	<path class="st1" d="M11.9,9.3c-0.2-0.1-0.3-0.2-0.2-0.4c0.1-0.2,0.2-0.3,0.4-0.2c0.1,0,0.3,0.1,0.4,0.2c0.3,0.2,0.6,0.5,0.8,0.8
		c0.2,0.3,0.2,0.7,0.1,1.1c0,0.1-0.1,0.2-0.1,0.3c-0.1,0.1-0.1,0.2-0.2,0.3c-0.3,0.3-0.6,0.4-1,0.5c-0.4,0-0.8-0.1-1.1-0.3
		c-0.1-0.1-0.2-0.2-0.4-0.3c-0.1-0.1-0.1-0.3,0-0.5c0.1-0.1,0.3-0.1,0.5,0c0.1,0.1,0.2,0.1,0.2,0.2c0.2,0.1,0.5,0.2,0.7,0.2
		c0.2,0,0.4-0.1,0.6-0.2c0,0,0.1-0.1,0.1-0.1c0,0,0-0.1,0.1-0.1c0.1-0.2,0-0.4-0.1-0.6c-0.1-0.2-0.3-0.4-0.5-0.5
		C12.1,9.4,12,9.3,11.9,9.3z"/>
	<path class="st2" d="M14.4,11.7c-0.3,0.5-1,0.7-1.5,0.4c-0.5-0.3-0.7-1-0.4-1.5c0.3-0.5,1-0.7,1.5-0.4
		C14.5,10.5,14.7,11.1,14.4,11.7z"/>
	<path class="st3" d="M14.2,11.6c-0.2,0.4-0.8,0.6-1.2,0.3c-0.4-0.2-0.6-0.8-0.3-1.2c0.2-0.4,0.8-0.6,1.2-0.3
		C14.3,10.6,14.4,11.1,14.2,11.6z"/>
	<path class="st4" d="M14.2,10.3c-0.1-0.1-0.1-0.3,0-0.5c0.1-0.1,0.3-0.1,0.5,0c0.3,0.3,0.4,0.7,0.5,1c0,0.4,0,0.7-0.2,1.1
		c-0.2,0.4-0.5,0.6-0.8,0.7c-0.3,0.2-0.7,0.2-1.1,0.1c-0.2,0-0.3-0.2-0.3-0.4c0-0.2,0.2-0.3,0.4-0.3c0.3,0,0.5,0,0.7-0.1
		c0.2-0.1,0.4-0.2,0.5-0.5c0.1-0.2,0.2-0.5,0.1-0.7C14.5,10.7,14.4,10.5,14.2,10.3z"/>
</g>
<g>
	<path class="st1" d="M4.9,10.7c0.1-0.1,0.3-0.1,0.5,0c0.1,0.1,0.1,0.3,0,0.5c-0.1,0.1-0.2,0.2-0.4,0.3c-0.3,0.2-0.7,0.3-1.1,0.3
		c-0.4,0-0.7-0.2-1-0.5c-0.1-0.1-0.1-0.2-0.2-0.3c-0.1-0.1-0.1-0.2-0.1-0.3C2.5,10.4,2.5,10,2.7,9.7c0.2-0.3,0.4-0.6,0.8-0.8
		c0.1-0.1,0.3-0.1,0.4-0.2c0.2-0.1,0.4,0,0.4,0.2c0.1,0.2,0,0.4-0.2,0.4C4,9.3,3.9,9.4,3.8,9.4C3.6,9.6,3.4,9.7,3.3,10
		c-0.1,0.2-0.1,0.4-0.1,0.6c0,0,0,0.1,0.1,0.1c0,0,0.1,0.1,0.1,0.1C3.5,11,3.7,11.1,4,11.1c0.2,0,0.5,0,0.7-0.2
		C4.8,10.9,4.8,10.8,4.9,10.7z"/>
	<path class="st2" d="M1.6,11.7c-0.3-0.5-0.1-1.2,0.4-1.5c0.5-0.3,1.2-0.1,1.5,0.4c0.3,0.5,0.1,1.2-0.4,1.5
		C2.6,12.4,1.9,12.2,1.6,11.7z"/>
	<path class="st3" d="M1.8,11.6c-0.2-0.4-0.1-1,0.3-1.2c0.4-0.2,1-0.1,1.2,0.3c0.2,0.4,0.1,1-0.3,1.2C2.6,12.1,2.1,12,1.8,11.6z"/>
	<path class="st4" d="M2.9,12.2c0.2,0,0.4,0.1,0.4,0.3c0,0.2-0.1,0.4-0.3,0.4c-0.4,0.1-0.8,0-1.1-0.1c-0.3-0.1-0.6-0.4-0.8-0.7
		c-0.2-0.4-0.3-0.7-0.2-1.1c0-0.4,0.2-0.7,0.5-1c0.1-0.1,0.3-0.2,0.5,0c0.1,0.1,0.2,0.3,0,0.5c-0.2,0.2-0.3,0.4-0.3,0.7
		c0,0.2,0,0.5,0.1,0.7C1.8,11.9,2,12,2.2,12.1C2.4,12.2,2.7,12.3,2.9,12.2z"/>
</g>
<g>
	<path class="st1" d="M4.1,6.7c0.2,0.1,0.3,0.2,0.2,0.4C4.2,7.3,4.1,7.4,3.9,7.3c-0.1,0-0.3-0.1-0.4-0.2C3.1,7,2.9,6.7,2.7,6.3
		C2.5,6,2.5,5.6,2.6,5.2C2.6,5.1,2.7,5,2.7,5c0.1-0.1,0.1-0.2,0.2-0.3c0.3-0.3,0.6-0.4,1-0.5c0.4,0,0.8,0.1,1.1,0.3
		c0.1,0.1,0.2,0.2,0.4,0.3c0.1,0.1,0.1,0.3,0,0.5C5.3,5.4,5,5.4,4.9,5.3C4.8,5.2,4.8,5.1,4.7,5.1C4.4,4.9,4.2,4.9,4,4.9
		C3.7,4.9,3.5,5,3.4,5.2c0,0-0.1,0.1-0.1,0.1c0,0,0,0.1-0.1,0.1C3.2,5.6,3.2,5.8,3.3,6c0.1,0.2,0.3,0.4,0.5,0.5
		C3.9,6.6,4,6.7,4.1,6.7z"/>
	<path class="st2" d="M1.6,4.3c0.3-0.5,1-0.7,1.5-0.4c0.5,0.3,0.7,1,0.4,1.5C3.3,6,2.6,6.2,2,5.8C1.5,5.5,1.3,4.9,1.6,4.3z"/>
	<path class="st3" d="M1.8,4.4C2.1,4,2.6,3.9,3,4.1c0.4,0.2,0.6,0.8,0.3,1.2C3.1,5.8,2.6,5.9,2.1,5.7C1.7,5.4,1.6,4.9,1.8,4.4z"/>
	<path class="st4" d="M1.8,5.7c0.1,0.1,0.1,0.3,0,0.5c-0.1,0.1-0.3,0.1-0.5,0c-0.3-0.3-0.4-0.7-0.5-1c0-0.4,0-0.7,0.2-1.1
		c0.2-0.4,0.5-0.6,0.8-0.7C2.2,3.1,2.6,3.1,3,3.2c0.2,0,0.3,0.2,0.3,0.4c0,0.2-0.2,0.3-0.4,0.3c-0.3,0-0.5,0-0.7,0.1
		C1.9,4,1.8,4.1,1.6,4.3C1.5,4.6,1.5,4.8,1.5,5C1.5,5.3,1.6,5.5,1.8,5.7z"/>
</g>
<g>
	<path class="st1" d="M8.8,12c0-0.2,0.1-0.4,0.2-0.4c0.2,0,0.4,0.1,0.4,0.2c0,0.2,0.1,0.3,0.1,0.5c0,0.4-0.1,0.8-0.3,1.1
		C9,13.7,8.7,14,8.3,14.1c-0.1,0-0.2,0-0.3,0c-0.1,0-0.2,0-0.3,0C7.3,14,7,13.7,6.8,13.4c-0.2-0.3-0.3-0.7-0.3-1.1
		c0-0.1,0-0.3,0.1-0.5c0-0.2,0.2-0.3,0.4-0.2c0.2,0,0.3,0.2,0.2,0.4c0,0.1,0,0.2,0,0.3c0,0.3,0.1,0.5,0.2,0.7
		c0.1,0.2,0.3,0.3,0.5,0.4c0.1,0,0.1,0,0.2,0c0.1,0,0.1,0,0.2,0c0.2,0,0.4-0.2,0.5-0.4c0.1-0.2,0.2-0.4,0.2-0.7
		C8.9,12.2,8.9,12.1,8.8,12z"/>
	<path class="st2" d="M8,15.4c-0.6,0-1.1-0.5-1.1-1.1c0-0.6,0.5-1.1,1.1-1.1s1.1,0.5,1.1,1.1C9.1,14.9,8.6,15.4,8,15.4z"/>
	<path class="st3" d="M8,15.1c-0.5,0-0.9-0.4-0.9-0.9c0-0.5,0.4-0.9,0.9-0.9c0.5,0,0.9,0.4,0.9,0.9C8.9,14.7,8.5,15.1,8,15.1z"/>
	<path class="st4" d="M9.1,14.5c0.1-0.2,0.2-0.3,0.4-0.2c0.2,0.1,0.3,0.2,0.2,0.4c-0.1,0.4-0.3,0.7-0.7,0.9C8.8,15.9,8.4,16,8,16
		c-0.4,0-0.8-0.1-1-0.3c-0.3-0.2-0.5-0.6-0.7-0.9c-0.1-0.2,0-0.4,0.2-0.4c0.2-0.1,0.4,0,0.4,0.2C7,14.8,7.2,15,7.3,15.1
		c0.2,0.1,0.4,0.2,0.7,0.2c0.3,0,0.5-0.1,0.7-0.2C8.9,15,9,14.8,9.1,14.5z"/>
</g>
<g>
	<rect x="7.2" y="9.5" class="st5" width="1.6" height="2.1"/>
	<g>
		<rect x="7.4" y="9.7" class="st6" width="1.2" height="0.1"/>
		<rect x="7.4" y="10" class="st6" width="1.2" height="0.1"/>
		<rect x="7.4" y="10.4" class="st6" width="1.2" height="0.1"/>
		<rect x="7.4" y="10.7" class="st6" width="1.2" height="0.1"/>
		<rect x="7.4" y="11" class="st6" width="0.7" height="0.1"/>
		<rect x="7.4" y="11.2" class="st6" width="0.7" height="0.1"/>
	</g>
</g>
</svg>
