<svg width="57" height="33" viewBox="0 0 57 33" fill="none" xmlns="http://www.w3.org/2000/svg">
<path d="M56.1094 26.7188V2.67188C56.1086 1.96349 55.8268 1.28434 55.3259 0.783433C54.825 0.282528 54.1459 0.000777942 53.4375 0H15.1406C14.4322 0.000777942 13.7531 0.282528 13.2522 0.783433C12.7513 1.28434 12.4695 1.96349 12.4688 2.67188V3.5625H12.0782C11.4822 3.56184 10.9031 3.7608 10.4334 4.12764C9.96366 4.49447 9.6303 5.00805 9.48649 5.58644L7.25859 14.4962L2.50889 16.5313C2.02838 16.7373 1.6189 17.0798 1.33123 17.5163C1.04356 17.9529 0.89036 18.4643 0.890625 18.9871V26.7188C0.654417 26.7188 0.427883 26.8126 0.260858 26.9796C0.0938335 27.1466 0 27.3732 0 27.6094C0 27.8456 0.0938335 28.0721 0.260858 28.2391C0.427883 28.4062 0.654417 28.5 0.890625 28.5H5.43379C5.6385 29.5036 6.18296 30.4058 6.97539 31.0548C7.76781 31.7037 8.75974 32.0595 9.78396 32.0623C10.8082 32.0652 11.802 31.7148 12.598 31.0702C13.394 30.4257 13.9434 29.5264 14.1536 28.524L18.9525 28.5029C19.1078 28.7719 19.3311 28.9955 19.5999 29.1513C19.8687 29.3071 20.1737 29.3896 20.4844 29.3906H27.6094C27.9206 29.3896 28.2261 29.3068 28.4953 29.1505C28.7644 28.9942 28.9877 28.7698 29.1429 28.5H38.3869C38.5923 29.5056 39.1387 30.4094 39.9337 31.0585C40.7288 31.7076 41.7236 32.0622 42.75 32.0622C43.7764 32.0622 44.7712 31.7076 45.5663 31.0585C46.3613 30.4094 46.9077 29.5056 47.1131 28.5H56.1094C56.3456 28.5 56.5721 28.4062 56.7391 28.2391C56.9062 28.0721 57 27.8456 57 27.6094C57 27.3732 56.9062 27.1466 56.7391 26.9796C56.5721 26.8126 56.3456 26.7188 56.1094 26.7188ZM42.75 23.1563C41.724 23.1577 40.7298 23.5127 39.935 24.1617C39.1402 24.8106 38.5935 25.7137 38.3869 26.7188H29.3906V24.0469H35.625C35.8612 24.0469 36.0877 23.953 36.2548 23.786C36.4218 23.619 36.5156 23.3925 36.5156 23.1563C36.5156 22.92 36.4218 22.6935 36.2548 22.5265C36.0877 22.3595 35.8612 22.2656 35.625 22.2656H29.3906V19.5938H54.3281V22.2656H48.9844C48.7482 22.2656 48.5216 22.3595 48.3546 22.5265C48.1876 22.6935 48.0938 22.92 48.0938 23.1563C48.0938 23.3925 48.1876 23.619 48.3546 23.786C48.5216 23.953 48.7482 24.0469 48.9844 24.0469H54.3281V26.7188H47.1131C46.9065 25.7137 46.3598 24.8106 45.565 24.1617C44.7702 23.5127 43.776 23.1577 42.75 23.1563ZM20.4835 8.90625H23.1562V17.8125H20.4844L20.4835 8.90625ZM24.9375 8.90625H27.6094V17.8125H24.9375V8.90625ZM14.25 2.67188C14.2502 2.43573 14.3441 2.20932 14.5111 2.04234C14.6781 1.87536 14.9045 1.78146 15.1406 1.78125H53.4375C53.6736 1.78146 53.9001 1.87536 54.067 2.04234C54.234 2.20932 54.3279 2.43573 54.3281 2.67188V3.5625H14.25V2.67188ZM10.4916 8.90625H15.1406V14.25H9.15562L10.4916 8.90625ZM3.21115 18.1682L4.45312 17.636V19.5938C4.45291 19.8299 4.35901 20.0563 4.19203 20.2233C4.02505 20.3903 3.79864 20.4842 3.5625 20.4844H2.67188V18.9871C2.6719 18.8128 2.723 18.6424 2.81884 18.4968C2.91468 18.3513 3.05107 18.2371 3.21115 18.1682ZM2.67188 22.2656H3.5625C4.27089 22.2648 4.95004 21.9831 5.45094 21.4822C5.95185 20.9813 6.2336 20.3021 6.23438 19.5938V16.8726L8.19767 16.0313H16.0312C16.2675 16.0313 16.494 15.9374 16.661 15.7704C16.828 15.6034 16.9219 15.3768 16.9219 15.1406V8.01563C16.9219 7.77942 16.828 7.55288 16.661 7.38586C16.494 7.21883 16.2675 7.125 16.0312 7.125H10.9369L11.213 6.01867C11.2611 5.82572 11.3725 5.65444 11.5293 5.53212C11.6861 5.40981 11.8793 5.3435 12.0782 5.34375H54.3281V17.8125H29.3906V8.90625C29.3901 8.434 29.2022 7.98125 28.8683 7.64732C28.5344 7.31338 28.0816 7.12554 27.6094 7.125H20.4844C20.0121 7.12554 19.5594 7.31338 19.2254 7.64732C18.8915 7.98125 18.7037 8.434 18.7031 8.90625V26.7227L14.1624 26.7426C13.9625 25.7339 13.4195 24.8255 12.6257 24.1717C11.8319 23.518 10.8362 23.1592 9.80785 23.1564C8.7795 23.1536 7.7819 23.5069 6.98453 24.1563C6.18716 24.8057 5.63922 25.7111 5.43379 26.7188H2.67188V22.2656ZM9.79688 30.2813C9.26843 30.2813 8.75185 30.1245 8.31246 29.831C7.87307 29.5374 7.53061 29.1201 7.32838 28.6319C7.12616 28.1436 7.07324 27.6064 7.17634 27.0881C7.27943 26.5698 7.53391 26.0937 7.90757 25.7201C8.28124 25.3464 8.75733 25.0919 9.27562 24.9888C9.79391 24.8857 10.3311 24.9387 10.8194 25.1409C11.3076 25.3431 11.7249 25.6856 12.0185 26.125C12.312 26.5644 12.4688 27.0809 12.4688 27.6094C12.468 28.3178 12.1862 28.9969 11.6853 29.4978C11.1844 29.9987 10.5053 30.2805 9.79688 30.2813ZM20.4844 27.6055V19.5938H23.1562V27.6094H20.4844V27.6055ZM24.9375 27.6094V19.5938H27.6094V27.6094H24.9375ZM42.75 30.2813C42.2216 30.2813 41.705 30.1245 41.2656 29.831C40.8262 29.5374 40.4837 29.1201 40.2815 28.6319C40.0793 28.1436 40.0264 27.6064 40.1295 27.0881C40.2326 26.5698 40.487 26.0937 40.8607 25.7201C41.2344 25.3464 41.7104 25.0919 42.2287 24.9888C42.747 24.8857 43.2843 24.9387 43.7725 25.1409C44.2607 25.3431 44.678 25.6856 44.9716 26.125C45.2652 26.5644 45.4219 27.0809 45.4219 27.6094C45.4211 28.3178 45.1393 28.9969 44.6384 29.4978C44.1375 29.9987 43.4584 30.2805 42.75 30.2813Z" fill="#7133AD"/>
<path d="M32.0625 16.0312H51.6562C51.8925 16.0312 52.119 15.9374 52.286 15.7704C52.453 15.6034 52.5469 15.3768 52.5469 15.1406V8.01562C52.5469 7.77942 52.453 7.55288 52.286 7.38586C52.119 7.21883 51.8925 7.125 51.6562 7.125H32.0625C31.8263 7.125 31.5998 7.21883 31.4327 7.38586C31.2657 7.55288 31.1719 7.77942 31.1719 8.01562V15.1406C31.1719 15.3768 31.2657 15.6034 31.4327 15.7704C31.5998 15.9374 31.8263 16.0312 32.0625 16.0312ZM32.9531 12.4688H37.4062V14.25H32.9531V12.4688ZM44.5312 12.4688V14.25H39.1875V12.4688H44.5312ZM39.1875 10.6875V8.90625H44.5312V10.6875H39.1875ZM46.3125 14.25V12.4688H50.7656V14.25H46.3125ZM50.7656 10.6875H46.3125V8.90625H50.7656V10.6875ZM37.4062 8.90625V10.6875H32.9531V8.90625H37.4062Z" fill="#7133AD"/>
</svg>
