<?xml version="1.0" encoding="utf-8"?>
<!-- Generator: Adobe Illustrator 25.2.1, SVG Export Plug-In . SVG Version: 6.00 Build 0)  -->
<svg version="1.1" id="Layer_1" xmlns="http://www.w3.org/2000/svg" xmlns:xlink="http://www.w3.org/1999/xlink" x="0px" y="0px"
	 viewBox="0 0 554 564.5" style="enable-background:new 0 0 554 564.5;" xml:space="preserve">
<style type="text/css">
	.st0{fill:#FFFFFF;}
	.st1{fill:#CCCCCC;}
	.st2{fill:#F2F2F2;}
	.st3{fill:#3F3D56;}
	.st4{fill:#FF6582;}
	.st5{fill:#F9A826;}
	.st6{fill:#E6E6E6;}
	.st7{fill:#FFB8B8;}
	.st8{fill:#F50057;}
	.st9{fill:#6C63FF;}
</style>
<path class="st0" d="M384.5,412.9v0.5c-1-1.2-2.1-2.4-3.1-3.6c-0.4-0.5-0.9-1-1.3-1.5c-1.9-2.1-3.7-4.2-5.6-6.3
	c-1.9-2.1-3.8-4.2-5.7-6.2c-0.5-0.5-0.9-1-1.4-1.5c-0.4-0.4-0.8-0.8-1.2-1.2c-0.4-0.4-0.9-0.6-1.5-0.8c-0.6-0.2-1.3-0.2-1.9,0
	c-0.7,0.2-1.4,0.4-2.1,0.6c-0.7,0.2-1.4,0.5-2.1,0.7c-1.4,0.5-2.9,0.9-4.3,1.4c-0.1,0-0.2,0-0.2-0.1l0,0l0,0c0-0.1,0-0.2,0.1-0.2
	c0,0,0,0,0,0c0.4-0.1,0.7-0.2,1.1-0.3c1.4-0.5,2.9-0.9,4.3-1.4c0.7-0.2,1.4-0.5,2.2-0.7c0.7-0.3,1.4-0.4,2.1-0.4
	c1.2,0.1,2.3,0.6,3.1,1.4c0.4,0.4,0.9,0.9,1.3,1.3c0.5,0.5,1,1,1.4,1.6c1.9,2.1,3.8,4.2,5.7,6.3c1.9,2.1,3.8,4.2,5.7,6.4
	c0.1,0.2,0.3,0.3,0.4,0.5C382.4,410.5,383.5,411.7,384.5,412.9z"/>
<path class="st0" d="M366,395c-0.4-0.5-0.9-0.9-1.5-1.1l-0.6,0c4.6,7.2,10.7,13.4,17.9,18.2C376.6,406.4,371.3,400.7,366,395z"/>
<path class="st1" d="M463,470.1l-23.6-126.2c-0.8-4.3-4.5-7.4-8.9-7.6c-0.2,0-0.4,0-0.6,0l-16.1,0.6l-1.7,0.1l-8,0.3l-1.7,0.1
	l-5.2,0.2l-103.9,3.7c-0.2,0-0.3,0-0.5,0l-23.3-0.5l-8.6-0.2l-0.3,0l-6.4-0.1l-55.4-1.2l-14.7-0.3l-7.2-0.1l-1.7,0l-8.3-0.2l-1.7,0
	l-8.5-0.2l-1.7,0l-9.3-0.2l-1.5,0l-8.3-0.2l-1.3,0h-0.2c-4.5,0-8.4,3.3-9.2,7.8l-21.3,131c-0.8,5.1,2.6,9.8,7.7,10.6
	c0.5,0.1,1,0.1,1.5,0.1h122.4c1.8,0,3.6,0.6,5,1.7l2.3,1.7c1.6,1.2,3.5,1.8,5.5,1.8c23.6-6.2,48.5-6.2,72.2,0c2.5,0,4.8-1,6.6-2.7
	c1.5-1.5,3.4-2.3,5.5-2.5l121.7-6.4c5.1-0.3,9-4.6,8.8-9.7C463.1,470.9,463,470.5,463,470.1L463,470.1z"/>
<path class="st2" d="M429.6,450.4c-0.3,8.9-7.8,15.9-16.7,15.5c-7.1-0.2-15.5-0.4-24.7-0.2c-29.9,0.6-67.4,4.8-90,19.5
	c-2.8,1.9-6.2,2.8-9.6,2.6c-0.2,0-0.5,0-0.7-0.1c-3.5-0.3-6.8-1.8-9.4-4.2c-12.4-11.4-41-25.2-106.3-26.1c-0.3,0-0.5,0-0.8,0
	c-8.9-0.6-15.6-8.2-15.1-17.1c0,0,0,0,0,0l6.4-101.9l1-15.3l1.7-26.7c0.4-5.6,5-9.9,10.6-9.9h0.1l38.9,0.2c16.4,0.7,30,2.8,40.7,6.3
	c3.7,1.1,7.3,2.6,10.7,4.3c4.7,2.3,8.9,5.4,12.4,9.3c2.2,2.5,5.2,4.1,8.4,4.6c0.5,0.1,1,0.1,1.5,0.1c3,0.1,6-0.7,8.5-2.4
	c25.4-17,77.2-18.3,105.9-17.6c8.3,0.2,15.1,6.6,15.7,14.9l1.2,15.2l1.2,15.2l6.7,87.6l1.9,24.4
	C429.6,449.2,429.6,449.8,429.6,450.4z"/>
<path class="st3" d="M181.8,322.5c23.5-7.5,49.6-5.5,71.8,5c6.3,3,12.3,6.7,17.9,11c1.6,1.2,3.8-1,2.2-2.2
	c-20.4-15.8-46.1-23.3-71.8-21c-7.1,0.6-14.1,2-21,4.2C179.1,320.1,179.9,323.1,181.8,322.5L181.8,322.5z"/>
<path class="st3" d="M310.9,339.7c21.8-11.5,47.9-14,71.6-7.5c6.8,1.9,13.3,4.4,19.5,7.7c1.8,0.9,3.4-1.7,1.6-2.7
	c-22.6-12.1-49.7-14.8-74.4-8.1c-6.9,1.9-13.5,4.5-19.9,7.8C307.5,337.9,309.1,340.6,310.9,339.7z"/>
<path class="st3" d="M310.9,360.5c21.8-11.5,47.9-14,71.6-7.5c6.8,1.9,13.3,4.4,19.5,7.7c1.8,0.9,3.4-1.7,1.6-2.7
	c-22.6-12.1-49.7-14.8-74.4-8.1c-6.9,1.9-13.5,4.5-19.9,7.8C307.5,358.8,309.1,361.5,310.9,360.5L310.9,360.5z"/>
<path class="st3" d="M404.3,380.2c0-0.5-0.3-1.1-0.8-1.3c-18.1-9.5-38.6-13.3-58.9-11c-0.1,0-0.2,0-0.4,0h0c-0.1,0-0.2,0-0.4,0.1
	c-12.1,1.4-23.8,5-34.6,10.7c-0.5,0.3-0.8,0.8-0.8,1.4v38.8c0,0.9,0.7,1.6,1.6,1.5c0.1,0,0.3,0,0.4-0.1c0.5-0.1,1-0.3,1.4-0.4
	c10.9-2.9,22.1-4.7,33.3-5.2c0.2,0,0.5,0,0.7,0c9.2-0.4,18.4-0.1,27.5,1c0.2,0,0.4,0,0.6,0.1c0.5,0.1,0.9,0.1,1.4,0.2
	c0.2,0,0.4,0,0.5,0.1c1.8,0.2,3.6,0.5,5.4,0.8c2.6,0.4,5.2,0.9,7.9,1.4c0.2,0,0.3,0.1,0.5,0.1c4.2,0.8,8.4,1.8,12.5,2.9
	c0.8,0.2,1.7-0.3,1.9-1.1c0-0.1,0-0.2,0-0.4L404.3,380.2C404.3,380.3,404.3,380.2,404.3,380.2z"/>
<path class="st4" d="M347.1,370c-1.1-0.6-2.5-0.7-3.7-0.3c-1.1,0.4-2,1.2-2.4,2.3c-0.4,1-0.7,2.1-0.8,3.2c-0.1,0.4-0.1,1,0.4,1.2
	c0.3,0.1,0.7,0,0.9-0.2c0.2-0.2,0.4-0.5,0.5-0.8c1.5-2.4,4.1-3.8,7-3.8l1.2,0.5C349.2,371.2,348.2,370.5,347.1,370z"/>
<path class="st0" d="M359.5,378.9c-0.9-1.3-2-2.7-3.6-3.2c-1.9-0.5-3.9,0.5-5.6,1.5c-5,2.9-9.8,6.1-14.4,9.5l0,0.1l10.8-0.7
	c2.6-0.2,5.3-0.3,7.6-1.4c0.8-0.5,1.7-0.9,2.7-1c1.2,0.1,2.3,0.6,3.1,1.5c5,4.7,6.4,11.9,12,16C368.5,393.5,364.3,386,359.5,378.9z"
	/>
<path class="st0" d="M346,414.7c-0.2,0-0.5,0-0.7,0c-1.7-0.6-3.5-1.2-5.3-1.7c-1.2-0.3-2.4-0.6-3.5-0.8c-1.3-0.3-2.7-0.5-4-0.7
	c-2.6-0.4-5.2-0.6-7.8-0.7c-0.1,0-0.1,0-0.2-0.1c0-0.1,0-0.1,0.1-0.2c0,0,0,0,0,0c0.3,0,0.7,0,1,0c2.6,0.1,5.2,0.3,7.8,0.8
	c1.3,0.2,2.7,0.5,4,0.8c1.2,0.3,2.4,0.6,3.6,0.9C342.7,413.5,344.4,414,346,414.7z"/>
<path class="st0" d="M376,416c-0.2,0-0.4-0.1-0.5-0.1c-0.7-0.6-1.4-1.2-2.2-1.7c-0.9-0.7-1.9-1.3-2.9-1.9c-2.2-1.3-4.5-2.5-6.9-3.5
	c-3.8-1.6-7.7-2.8-11.7-3.7c-4.6-1-9.2-1.7-13.8-2.2c-4.6-0.5-9.3-0.8-14-1.1c-0.2,0-0.2-0.3,0-0.3c0.6,0,1.2,0.1,1.8,0.1
	c4.7,0.3,9.4,0.6,14.1,1.2c4.6,0.5,9.2,1.3,13.8,2.4c3.9,1,7.7,2.3,11.3,3.9c2.1,0.9,4.1,2,6.1,3.2c1.2,0.8,2.4,1.6,3.6,2.5
	C375.1,415.2,375.6,415.5,376,416z"/>
<path class="st0" d="M374.1,415.7c-0.2,0-0.4-0.1-0.6-0.1c-0.2-0.2-0.4-0.3-0.7-0.5c-1.6-1.1-3.3-2.2-5-3.1
	c-1.6-0.9-3.2-1.6-4.8-2.3c-3.8-1.6-7.7-2.8-11.7-3.7c-4.6-1-9.2-1.7-13.8-2.2c-4.6-0.5-9.3-0.8-14-1.1c-0.2,0-0.2-0.3,0-0.3
	c0.6,0,1.2,0.1,1.8,0.1c4.7,0.3,9.4,0.6,14.1,1.2c4.6,0.5,9.2,1.3,13.8,2.4c3.9,1,7.7,2.3,11.3,3.9c1.4,0.6,2.7,1.3,4,2
	C370.4,413.1,372.3,414.4,374.1,415.7z"/>
<path class="st0" d="M389.8,418.2c-0.2,0-0.3-0.1-0.5-0.1c-0.2-0.2-0.4-0.4-0.5-0.6c-0.9-1-1.8-2.1-2.7-3.1
	c-3.4-4.1-6.7-8.3-9.8-12.6c-2.6-3.7-5.2-7.4-7.5-11.3c-1.1-1.8-2.2-3.6-3.3-5.5c-0.8-1.4-1.6-2.9-2.4-4.3c-0.2-0.4-0.4-0.8-0.7-1.2
	c-0.5-1-1-2-1.6-2.9c-0.6-1.2-1.5-2.2-2.5-3c-0.5-0.4-1.1-0.6-1.8-0.6c-0.9,0-1.8,0.2-2.6,0.7c-5.8,2.7-11.3,6.1-16.4,10
	c-4.9,3.8-9.4,8.3-13.3,13.1c-0.1,0.1-0.4,0-0.3-0.1c0.5-0.6,0.9-1.2,1.4-1.7c3.7-4.4,8-8.4,12.6-12c0,0,0,0,0,0
	c0.4-0.3,0.8-0.6,1.2-0.9c2.6-1.9,5.3-3.6,8-5.2c1.4-0.8,2.9-1.6,4.3-2.3c0.4-0.2,0.7-0.4,1.1-0.6c0.4-0.2,0.7-0.4,1.1-0.5
	c0.7-0.4,1.6-0.6,2.4-0.7c2.9,0,4.4,2.9,5.4,4.8c0.3,0.6,0.7,1.2,1,1.8c1.2,2.3,2.5,4.6,3.9,6.9c0.8,1.4,1.7,2.8,2.5,4.2
	c1.2,2,2.5,4,3.8,5.9c0,0,0,0,0,0l0,0h0c1.5,2.3,3.1,4.6,4.8,6.8c2.8,3.9,5.8,7.6,8.9,11.3C387.6,415.7,388.7,417,389.8,418.2z"/>
<path class="st4" d="M352.7,372.3l-0.3,0.1c-1.3-2.3-3.7-3.7-6.3-3.8c-4.3-0.3-8,2.5-8.3,6.3c-0.1,1.6,0.3,3.1,1.3,4.4l-0.3,0.2
	c-1-1.3-1.5-2.9-1.3-4.5c0.4-3.9,4.3-6.9,8.7-6.6C348.8,368.4,351.3,369.9,352.7,372.3z"/>
<path class="st0" d="M331.6,379.9c-2.3-1-4.9-0.8-7,0.4c3.8,0.6,7.6,1.4,11.4,2.4C334.4,381.9,333.2,380.7,331.6,379.9z"/>
<path class="st0" d="M324.6,380.4l-0.4,0.3C324.3,380.6,324.5,380.5,324.6,380.4L324.6,380.4z"/>
<path class="st0" d="M337.3,382.1c-0.2-0.2-0.3-0.3-0.5-0.5c-1.3-1.4-2.9-2.6-4.6-3.4c-0.9-0.4-1.8-0.6-2.8-0.6c-1,0-2,0.2-2.9,0.6
	c-0.4,0.2-0.9,0.3-1.3,0.5c-0.5,0.2-1,0.4-1.4,0.7c-0.9,0.4-1.8,0.9-2.6,1.4c-1.7,0.9-3.4,2-5,3c-0.8,0.6-1.6,1.1-2.4,1.7
	c-0.7,0.6-1.5,1.1-2.2,1.7c-0.2,0.1-0.4-0.1-0.2-0.2c0.2-0.2,0.4-0.3,0.6-0.5c0.5-0.4,1.1-0.9,1.6-1.3c1-0.8,2-1.5,3.1-2.2
	c1.6-1.1,3.3-2.1,5.1-3c0.9-0.5,1.8-0.9,2.7-1.3c0.3-0.1,0.5-0.3,0.8-0.4c0.6-0.3,1.3-0.5,2-0.7c1-0.3,2-0.4,3-0.3
	c1,0.1,1.9,0.4,2.7,0.8c1.7,1,3.2,2.2,4.5,3.6C337.7,382.1,337.4,382.3,337.3,382.1z"/>
<path class="st3" d="M181.8,343.3c23.5-7.5,49.6-5.5,71.8,5c6.3,3,12.3,6.7,17.9,11c1.6,1.2,3.8-1,2.2-2.2
	c-20.4-15.8-46.1-23.3-71.8-21c-7.1,0.6-14.1,2-21,4.2C179.1,340.9,179.9,343.9,181.8,343.3L181.8,343.3z"/>
<path class="st3" d="M181.8,364.1c23.5-7.5,49.6-5.5,71.8,5c6.3,3,12.3,6.7,17.9,11c1.6,1.2,3.8-1,2.2-2.2
	c-20.4-15.8-46.1-23.3-71.8-21c-7.1,0.6-14.1,2-21,4.2C179.1,361.7,179.9,364.7,181.8,364.1L181.8,364.1z"/>
<path class="st3" d="M181.8,384.9c23.5-7.5,49.6-5.5,71.8,5c6.3,3,12.3,6.7,17.9,11c1.6,1.2,3.8-1,2.2-2.2
	c-20.4-15.8-46.1-23.3-71.8-21c-7.1,0.6-14.1,2-21,4.2C179.1,382.5,179.9,385.5,181.8,384.9L181.8,384.9z"/>
<path class="st3" d="M181.8,405.7c23.5-7.5,49.6-5.5,71.8,5c6.3,3,12.3,6.7,17.9,11c1.6,1.2,3.8-1,2.2-2.2
	c-20.4-15.8-46.1-23.3-71.8-21c-7.1,0.6-14.1,2-21,4.2C179.1,403.3,179.9,406.3,181.8,405.7L181.8,405.7z"/>
<path class="st3" d="M181.8,426.5c23.5-7.5,49.6-5.5,71.8,5c6.3,3,12.3,6.7,17.9,11c1.6,1.2,3.8-1,2.2-2.2
	c-20.4-15.8-46.1-23.3-71.8-21c-7.1,0.6-14.1,2-21,4.2C179.1,424.1,179.9,427.1,181.8,426.5L181.8,426.5z"/>
<path class="st5" d="M266.3,297.4v49.9c0,1-1.7,1.8-4.1,2c0,0,0,0-0.1,0c-0.4,0-0.8,0.1-1.2,0.1c-1.3,0-2.6-0.2-3.8-0.6
	c-0.1,0-0.2-0.1-0.3-0.1c-0.1-0.1-0.2-0.1-0.3-0.2c-0.6-0.3-0.9-0.7-0.9-1.2v-54.2C259.3,294.2,262.9,295.7,266.3,297.4z"/>
<rect x="287.2" y="309" class="st6" width="1.5" height="178"/>
<path class="st2" d="M86.2,209.6v24.8H24c-7.1,0-12.8-5.6-12.8-12.4c0-6.8,5.8-12.4,12.8-12.4H86.2z"/>
<path class="st5" d="M87.7,234.2c0,0.5-0.4,1-1,1H22.9c-7.2,0-13.1-5.9-13.1-13.1S15.7,209,22.9,209l0,0h63.9c0.5,0,1,0.4,1,1
	s-0.4,1-1,1H22.9c-6.2,0-11.2,5-11.2,11.2s5,11.2,11.2,11.2l0,0h63.9C87.3,233.3,87.7,233.7,87.7,234.2z"/>
<path class="st1" d="M86.2,215.3H19.4c-0.1,0-0.2-0.1-0.2-0.2s0.1-0.2,0.2-0.2h66.8c0.1,0,0.2,0.1,0.2,0.2S86.3,215.3,86.2,215.3z"
	/>
<path class="st1" d="M86.2,219.9H19.4c-0.1,0-0.2-0.1-0.2-0.2c0-0.1,0.1-0.2,0.2-0.2h66.8c0.1,0,0.2,0.1,0.2,0.2
	C86.4,219.8,86.3,219.9,86.2,219.9z"/>
<path class="st1" d="M86.2,224.5H19.4c-0.1,0-0.2-0.1-0.2-0.2c0-0.1,0.1-0.2,0.2-0.2h66.8c0.1,0,0.2,0.1,0.2,0.2
	C86.4,224.4,86.3,224.5,86.2,224.5z"/>
<path class="st1" d="M86.2,229.1H19.4c-0.1,0-0.2-0.1-0.2-0.2c0-0.1,0.1-0.2,0.2-0.2h66.8c0.1,0,0.2,0.1,0.2,0.2
	C86.4,229,86.3,229.1,86.2,229.1z"/>
<path class="st2" d="M134.3,214.3l-15.6,19.3l-48.4-39c-5.5-4.4-6.5-12.4-2.2-17.7s12.3-6,17.8-1.6L134.3,214.3z"/>
<path class="st1" d="M120,234.4c-0.3,0.4-0.9,0.5-1.3,0.1l-49.7-40.1c-5.6-4.5-6.5-12.8-2-18.4c4.5-5.6,12.8-6.5,18.4-2l49.7,40.1
	c0.4,0.3,0.5,0.9,0.1,1.3c-0.3,0.4-0.9,0.5-1.3,0.1l0,0l-49.7-40.1c-4.8-3.9-11.8-3.1-15.7,1.7c-3.9,4.8-3.1,11.8,1.7,15.7
	l49.7,40.1C120.3,233.4,120.3,234,120,234.4z"/>
<path class="st1" d="M130.7,218.7l-52-41.9c-0.1-0.1-0.1-0.2,0-0.3c0.1-0.1,0.2-0.1,0.3,0c0,0,0,0,0,0l52,41.9
	c0.1,0.1,0.1,0.2,0,0.3C130.9,218.8,130.8,218.8,130.7,218.7C130.7,218.8,130.7,218.7,130.7,218.7L130.7,218.7z"/>
<path class="st1" d="M127.8,222.3l-52-41.9c-0.1-0.1-0.1-0.2,0-0.3c0.1-0.1,0.2-0.1,0.3,0l52,41.9c0.1,0.1,0.1,0.2,0,0.3
	C128,222.4,127.9,222.4,127.8,222.3C127.8,222.3,127.8,222.3,127.8,222.3z"/>
<path class="st1" d="M124.9,225.9l-52-41.9c-0.1-0.1-0.1-0.2,0-0.3c0.1-0.1,0.2-0.1,0.3,0l52,41.9c0.1,0.1,0.1,0.2,0,0.3
	C125.1,225.9,125,226,124.9,225.9C124.9,225.9,124.9,225.9,124.9,225.9z"/>
<path class="st1" d="M122.1,229.5l-52-41.9c-0.1-0.1-0.1-0.2,0-0.3c0.1-0.1,0.2-0.1,0.3,0c0,0,0,0,0,0l52,41.9
	c0.1,0.1,0.1,0.2,0,0.3C122.3,229.5,122.1,229.5,122.1,229.5C122.1,229.5,122.1,229.5,122.1,229.5z"/>
<path class="st1" d="M137.6,235.4H-4.1c-0.1,0-0.2-0.1-0.2-0.2c0-0.1,0.1-0.2,0.2-0.2h141.7c0.1,0,0.2,0.1,0.2,0.2
	C137.7,235.3,137.7,235.4,137.6,235.4z"/>
<path class="st7" d="M73.3,169.9"/>
<path class="st3" d="M172.5,134.1C172.5,134.1,172.5,134.1,172.5,134.1c21.4,0.4,39.1-16.5,39.5-37.9c0.4-19.5-13.7-36.2-33-39
	c-0.2,0-0.5,0-0.7,0.2c-0.2,0.2-0.3,0.4-0.3,0.6l-6.3,75.1C171.6,133.6,172,134,172.5,134.1L172.5,134.1z"/>
<path class="st6" d="M146.9,67.3c0.3,0,0.6,0.2,0.8,0.4l24,28.4c0.2,0.2,0.3,0.5,0.3,0.8l-3,36c0,0.3-0.2,0.6-0.4,0.8
	c-0.2,0.2-0.6,0.3-0.9,0.2c-21.3-3.2-35.9-22.9-32.8-44.2c1.2-8.4,5.2-16.1,11.2-22C146.2,67.4,146.6,67.3,146.9,67.3L146.9,67.3z"
	/>
<path class="st8" d="M174.2,56.5c0.3,0,0.6,0.2,0.8,0.4c0.2,0.2,0.3,0.5,0.3,0.9l-2.7,32.4c-0.1,0.6-0.6,1.1-1.2,1
	c-0.3,0-0.6-0.2-0.8-0.4l-20.9-24.7c-0.4-0.5-0.3-1.2,0.1-1.6c0,0,0,0,0,0C156.7,59.1,165.3,56.3,174.2,56.5
	C174.1,56.5,174.1,56.5,174.2,56.5z"/>
<g>
	<path class="st3" d="M287.2,10.2c14.2,0,25.8,10.9,25.8,24.2c0,3.7-0.9,7.4-2.7,10.8h0l-0.5,0.8c-4,6.8-6.2,14.6-6.4,22.5
		c-0.1,2.4-2,4.3-4.4,4.3H279c-2.6,0-4.8-1.9-5.2-4.4c-1-6.2-3-12.2-5.9-17.8c-4.2-4.4-6.5-10.2-6.5-16.1
		C261.4,21,273,10.2,287.2,10.2z M309.3,45.7l0.2-0.3c1.9-3.4,2.9-7.1,2.9-11c0-13-11.3-23.5-25.1-23.5c-13.8,0-25.1,10.5-25.1,23.5
		c0,5.8,2.3,11.3,6.4,15.7l0.1,0.1c3,5.7,5,11.8,6,18.1c0.4,2.2,2.2,3.8,4.5,3.8h20.1c2,0,3.6-1.6,3.7-3.6
		C303,60.5,305.2,52.6,309.3,45.7L309.3,45.7z"/>
	<path class="st3" d="M301.9,71h-26.6c-0.8,0-1.5,0.7-1.4,1.6l0.2,2.7c0.2,2.3,0.9,4.5,2.1,6.5l0,0c0.2,0.3,0.6,0.5,1,0.5
		c7.9-0.9,15.6-1,23.1,0c0.4,0.1,0.8-0.2,1-0.5l0.2-0.3c0.9-1.7,1.4-3.5,1.5-5.4l0.3-3.3C303.4,71.7,302.8,71,301.9,71L301.9,71z"/>
	<path class="st3" d="M278,80.4h21.7v14.2c0,2.5-2.1,4.6-4.6,4.6h-12.6c-2.5,0-4.6-2.1-4.6-4.6V80.4L278,80.4L278,80.4z"/>
	<path class="st3" d="M291.7,102.8H287c-0.5,0-1-0.3-1.3-0.7l-3.1-4.3h13.4l-3.1,4.3C292.7,102.6,292.2,102.8,291.7,102.8
		L291.7,102.8z"/>
	<path class="st9" d="M295.3,22.7c-3.5,0.7-6.9,1.4-10.4,2.1c-1.6,0.3-3.3,0.5-4.7,1.3c-1.4,0.7-2.3,2.3-1.8,3.9
		c0.5,1.5,1.9,2.4,3.3,2.8c1.6,0.4,3.4,0.4,5.1,0.5c1.7,0.1,3.5,0.3,5.2,0.4c0.8,0.1,1.7,0.1,2.5,0.2c0.3,0,0.6,0.1,0.8,0.2
		c0,0,0.1,0,0,0.1c0,0,0-0.1,0-0.1c0-0.1,0,0,0,0c0,0-0.3,0.2-0.4,0.2c-0.4,0.1-0.8,0-1.2,0c-0.8,0-1.7,0-2.5,0
		c-1.7,0.1-3.3,0.3-5,0.6c-1.6,0.3-3.2,0.7-4.8,1.3c-1.5,0.5-3.1,1.5-3.1,3.3c0,1.7,1.4,2.8,2.9,3.3c0.8,0.2,1.6,0.3,2.3,0.4
		c0.9,0.1,1.7,0.3,2.6,0.4c1.7,0.3,3.4,0.5,5.1,0.8c0.9,0.1,1.7,0.3,2.6,0.4c0.4,0.1,0.8,0.1,1.2,0.2c0.1,0,0.3,0.1,0.4,0.1
		c-0.1,0,0,0,0,0c0.1,0,0.1,0,0,0l0-0.1c-0.1-0.3-0.1-0.3,0.1-0.6c0-0.1,0.1,0,0,0c-0.1,0,0.1,0,0,0c-0.1,0-0.1,0-0.2,0.1
		c-0.4,0.1-0.8,0.2-1.2,0.3c-0.9,0.2-1.7,0.3-2.6,0.5c-1.7,0.3-3.4,0.7-5,1c-3,0.6-6.1,1.4-7.9,4c-0.4,0.6-0.7,1.2-0.8,1.9
		c-0.1,0.6,0.2,1.1,0.7,1.3c0.5,0.1,1.2-0.2,1.3-0.7c0.6-2.7,3.6-3.7,6-4.2c1.6-0.3,3.3-0.6,4.9-1c1.7-0.3,3.3-0.6,5-1
		c0.7-0.2,1.4-0.6,1.6-1.3c0.2-0.8-0.2-1.6-0.9-2c-0.7-0.4-1.5-0.4-2.3-0.5c-0.8-0.1-1.7-0.3-2.5-0.4c-1.7-0.3-3.4-0.5-5.1-0.8
		c-0.8-0.1-1.7-0.3-2.5-0.4c-0.8-0.1-1.6-0.2-2.3-0.4c-0.5-0.1-1-0.4-1.3-0.9c-0.1-0.2-0.1-0.3,0-0.5c0.1-0.2,0.3-0.5,0.5-0.6
		c0.5-0.4,1.2-0.6,1.7-0.7c0.8-0.2,1.5-0.5,2.3-0.7c1.5-0.4,3.1-0.7,4.7-0.8c0.8-0.1,1.7-0.1,2.5-0.2c0.8,0,1.6,0,2.4,0
		c0.8,0,1.7-0.2,2.3-0.9c0.6-0.7,0.7-1.6,0.3-2.4c-0.8-1.6-3-1.4-4.5-1.5c-1.7-0.1-3.4-0.3-5.2-0.4c-1.6-0.1-3.3-0.2-4.9-0.4
		c-0.6-0.1-1.3-0.3-1.7-0.6c-0.4-0.3-0.7-0.7-0.6-1.2c0-0.4,0.4-0.8,0.9-1.1c0.6-0.3,1.3-0.5,1.9-0.6c3.4-0.7,6.8-1.4,10.2-2.1
		c0.8-0.2,1.7-0.3,2.5-0.5c0.6-0.1,0.9-0.8,0.7-1.3C296.4,22.8,295.8,22.6,295.3,22.7L295.3,22.7L295.3,22.7z"/>
</g>
</svg>
