<?xml version="1.0" encoding="utf-8"?>
<!-- Generator: Adobe Illustrator 25.2.1, SVG Export Plug-In . SVG Version: 6.00 Build 0)  -->
<svg version="1.1" id="Layer_1" xmlns="http://www.w3.org/2000/svg" xmlns:xlink="http://www.w3.org/1999/xlink" x="0px" y="0px"
	 viewBox="0 0 554 564.5" style="enable-background:new 0 0 554 564.5;" xml:space="preserve">
<style type="text/css">
	.st0{fill:#3F3D56;}
	.st1{fill:#F2F2F2;}
	.st2{fill:#C30C92;}
	.st3{fill:#CCCCCC;}
	.st4{fill:#FFFFFF;}
</style>
<path class="st0" d="M508,451H129c-2.8,0-5-2.2-5-5V29c0-2.8,2.2-5,5-5h379c2.8,0,5,2.2,5,5v417C513,448.8,510.8,451,508,451z
	 M129,26c-1.7,0-3,1.3-3,3v417c0,1.7,1.3,3,3,3h379c1.7,0,3-1.3,3-3V29c0-1.7-1.3-3-3-3H129z"/>
<path class="st1" d="M292.5,183h-94c-2.8,0-5-2.2-5-5V84c0-2.8,2.2-5,5-5h94c2.8,0,5,2.2,5,5v94C297.5,180.8,295.3,183,292.5,183z
	 M198.5,81c-1.7,0-3,1.3-3,3v94c0,1.7,1.3,3,3,3h94c1.7,0,3-1.3,3-3V84c0-1.7-1.3-3-3-3H198.5z"/>
<path class="st2" d="M265.5,194.5h-94c-2.5,0-4.5-2-4.5-4.5V96c0-2.5,2-4.5,4.5-4.5h94c2.5,0,4.5,2,4.5,4.5v94
	C270,192.5,268,194.5,265.5,194.5z"/>
<path class="st3" d="M465.5,240.5h-294c-2.5,0-4.5-2-4.5-4.5s2-4.5,4.5-4.5h294c2.5,0,4.5,2,4.5,4.5S468,240.5,465.5,240.5z"/>
<path class="st3" d="M394.5,271.5h-223c-2.5,0-4.5-2-4.5-4.5s2-4.5,4.5-4.5h223c2.5,0,4.5,2,4.5,4.5S397,271.5,394.5,271.5z"/>
<path class="st3" d="M464.5,126.5h-130c-2.5,0-4.5-2-4.5-4.5s2-4.5,4.5-4.5h130c2.5,0,4.5,2,4.5,4.5S467,126.5,464.5,126.5z"/>
<path class="st3" d="M432.1,157.5h-97.6c-2.5,0-4.5-2-4.5-4.5s2-4.5,4.5-4.5h97.6c2.5,0,4.5,2,4.5,4.5S434.6,157.5,432.1,157.5z"/>
<path class="st3" d="M465.5,302.5h-294c-2.5,0-4.5-2-4.5-4.5s2-4.5,4.5-4.5h294c2.5,0,4.5,2,4.5,4.5S468,302.5,465.5,302.5z"/>
<path class="st3" d="M394.5,333.5h-223c-2.5,0-4.5-2-4.5-4.5s2-4.5,4.5-4.5h223c2.5,0,4.5,2,4.5,4.5S397,333.5,394.5,333.5z"/>
<path class="st3" d="M465.5,364.5h-294c-2.5,0-4.5-2-4.5-4.5s2-4.5,4.5-4.5h294c2.5,0,4.5,2,4.5,4.5S468,364.5,465.5,364.5z"/>
<path class="st3" d="M465.5,395.5h-294c-2.5,0-4.5-2-4.5-4.5s2-4.5,4.5-4.5h294c2.5,0,4.5,2,4.5,4.5S468,395.5,465.5,395.5z"/>
<path class="st4" d="M228.5,412.3h-215c-2.8,0-5-2.2-5-5v-133c0-2.8,2.2-5,5-5h215c2.8,0,5,2.2,5,5v133
	C233.5,410.1,231.2,412.3,228.5,412.3z"/>
<path class="st0" d="M228.5,412.3h-215c-2.8,0-5-2.2-5-5v-133c0-2.8,2.2-5,5-5h215c2.8,0,5,2.2,5,5v133
	C233.5,410.1,231.2,412.3,228.5,412.3z M13.5,271.3c-1.7,0-3,1.3-3,3v133c0,1.7,1.3,3,3,3h215c1.7,0,3-1.3,3-3v-133c0-1.7-1.3-3-3-3
	H13.5z"/>
<path class="st3" d="M186,329.8H56c-2.5,0-4.5-2-4.5-4.5s2-4.5,4.5-4.5h130c2.5,0,4.5,2,4.5,4.5S188.4,329.8,186,329.8z"/>
<path class="st3" d="M186,360.8H56c-2.5,0-4.5-2-4.5-4.5s2-4.5,4.5-4.5h130c2.5,0,4.5,2,4.5,4.5S188.4,360.8,186,360.8z"/>
</svg>
