<?xml version="1.0" encoding="utf-8"?>
<!-- Generator: Adobe Illustrator 27.4.1, SVG Export Plug-In . SVG Version: 6.00 Build 0)  -->
<svg version="1.1" id="Layer_1" xmlns="http://www.w3.org/2000/svg" xmlns:xlink="http://www.w3.org/1999/xlink" x="0px" y="0px"
	 viewBox="0 0 24.3 24.2" style="enable-background:new 0 0 24.3 24.2;" xml:space="preserve">
<style type="text/css">
	.st0{fill:#9B4237;}
	.st1{fill:#EEE3D2;}
	.st2{fill:#A14E40;}
	.st3{fill:#CCCCCB;}
	.st4{fill:#E3C6A1;}
	.st5{fill:#CDA672;}
	.st6{fill:#CA9552;}
	.st7{fill:#CEA774;}
</style>
<path class="st0" d="M0,12.2C0,5.5,5.5-0.1,12.2,0c6.7,0.1,12.1,5.5,12.1,12.2c0,6.8-5.4,12-12.2,12C5.5,24.2,0,18.9,0,12.2z
	 M12.1,1.6C6.4,1.6,1.6,6.3,1.6,12c0,6,4.6,10.6,10.6,10.6c5.8,0,10.5-4.7,10.5-10.5C22.7,6.3,18,1.6,12.1,1.6z"/>
<path class="st0" d="M4.2,9.3c0.5-0.2,1-0.3,1.4-0.5c0,0.1,0,0.2,0,0.2c0,0-0.1,0.1-0.1,0.1c0.1,0,0.2,0,0.3,0.1
	c0.9,0.1,1.8,0.2,2.6,0.3c1.3,0.2,2.5,0.1,3.7-0.4c0.1,0,0.2,0,0.3,0c0,0,0,0.1,0,0.1c-0.4,0.8-0.9,1.5-1.3,2.3
	c-0.1,0.1,0,0.3-0.1,0.4c0.1-0.1,0.2-0.2,0.3-0.3c0.4-0.6,0.8-1.3,1.2-1.9c0.3-0.5,1-0.4,1.3,0.1c-0.4,0.4-0.8,0.8-1.1,1.3
	c-0.2,0.3-0.4,0.7-0.6,1c0,0,0,0,0,0c0.6-0.7,1.3-1.4,1.9-2.1c0.5-0.2,0.7,0.3,1,0.5c0,0-0.1,0.2-0.2,0.3c-0.4,0.3-0.8,0.6-1.1,0.9
	c-0.1,0.1-0.1,0.2-0.1,0.3c0.1,0,0.2,0,0.3-0.1c0.4-0.3,0.7-0.5,1-0.8c0.3-0.2,0.5-0.3,0.7,0.1c0.3,0.4,0,0.5-0.2,0.6
	c0,0-0.1,0-0.1,0.1c-0.3,0.2-0.6,0.3-0.9,0.5c0,0-0.1,0.1-0.1,0.2c0.1,0,0.2,0,0.2,0c0.3-0.2,0.5-0.3,0.8-0.5c0.7-0.3,0.7-0.3,1,0.4
	c0.4,1.3,0.6,2.5,0.1,3.9c-0.3,1-0.4,2-0.6,3c0,0.1,0,0.1,0,0.2c0.3,0.7-0.1,0.8-0.6,1c-3.1,1.2-6.1,0.7-8.8-1.2
	c-3-2.1-4.4-5.9-3.6-9.3c0-0.2,0.1-0.4,0.2-0.6c0.1,0,0.2-0.1,0.3-0.1C3.8,9.5,4,9.4,4.2,9.3z M13.4,12.2c0,0.1-0.1,0.2-0.1,0.2
	c0.1,0,0.2-0.1,0.3-0.1c0-0.1,0-0.1,0-0.2C13.5,12.2,13.5,12.2,13.4,12.2z"/>
<path class="st0" d="M16.8,8.7c0.2-1.1,0.1-1.3-0.9-1.8c-0.1-0.1-0.3-0.1-0.4-0.2c-0.3-0.1-0.7-0.1-1-0.2c0,0.3,0,0.6,0,0.9
	c0,0.1,0,0.2,0,0.2c0,0.1,0,0.2-0.1,0.3c-0.1-0.1-0.1-0.2-0.2-0.3c-0.1-0.3-0.2-0.7-0.4-1.1c-0.3-0.5-1.2-0.6-1.7-0.2
	c-0.1,0-0.1,0-0.2,0c-0.2-0.3-0.4-0.3-0.7-0.2C9.6,6.6,7.9,7.1,6.3,8C5.6,8.3,4.9,8.7,4.2,9C4,9.2,3.8,9.3,3.6,9.4
	c-0.1,0-0.2,0-0.3,0c1.4-4.1,5.2-6.8,9.3-6.5c3.6,0.3,6.3,2,7.8,5.3c1.5,3.2,1.2,6.4-0.8,9.3c-0.3,0.4-0.6,0.7-0.9,1
	c-0.2,0.2-0.4,0.2-0.5-0.1c-0.5-0.7-0.7-1.4-0.4-2.2c0.2-0.6,0.5-1.1,0.8-1.7c0.7-1.3,1-2.6,0.5-4c0-0.1-0.2-0.2-0.3-0.4
	c0-0.1,0-0.2-0.1-0.3c0-0.8-0.6-1.3-1.1-1.8c0,0-0.2,0-0.3,0.1c-0.1,0.1-0.2,0.3-0.2,0.5C17,8.7,16.9,8.7,16.8,8.7z"/>
<path class="st1" d="M12.2,12.2c0.2-0.3,0.4-0.7,0.6-1c0.4-0.4,0.8-0.8,1.1-1.3c0.1,0.1,0.1,0.1,0.2,0.2
	C13.6,10.8,12.9,11.5,12.2,12.2L12.2,12.2z"/>
<path class="st2" d="M7.6,8.1C7.3,8.3,7.1,8.4,6.9,8.4c-0.1,0-0.2-0.1-0.3-0.2C6.8,8.1,7,8,7.2,7.9C7.3,7.9,7.4,8,7.6,8.1z"/>
<path class="st3" d="M15.5,12.1c-0.3,0.2-0.5,0.3-0.8,0.5c-0.1,0-0.1,0-0.2,0c0-0.1,0-0.2,0.1-0.2c0.3-0.2,0.6-0.4,0.9-0.5
	C15.5,12,15.5,12,15.5,12.1z"/>
<path class="st2" d="M17.1,19.7c0-0.1,0-0.2,0.1-0.3c0-0.1,0.1-0.3,0.1-0.4c0.1,0.1,0.2,0.2,0.3,0.3c0,0.1-0.1,0.3-0.1,0.4
	C17.4,19.7,17.3,19.7,17.1,19.7L17.1,19.7C17.2,19.7,17.1,19.7,17.1,19.7z"/>
<path class="st4" d="M3.6,9.4C3.8,9.3,4,9.2,4.2,9c0,0.1,0,0.2,0,0.3C4,9.4,3.8,9.5,3.6,9.5C3.6,9.5,3.6,9.4,3.6,9.4z"/>
<path class="st5" d="M18.7,10c0,0.1,0,0.2,0.1,0.3c-0.1,0.1-0.3,0.3-0.4,0.4c0.1-0.2,0.1-0.4,0.2-0.5C18.6,10.1,18.6,10,18.7,10z"/>
<path class="st6" d="M12,6.4c0.1,0,0.1,0,0.2,0c0,0.1,0.1,0.1,0.1,0.2c0,0.1,0,0.2,0,0.3c-0.1,0-0.1-0.1-0.2-0.1
	C12.1,6.6,12.1,6.5,12,6.4z"/>
<path class="st5" d="M5.7,9c0-0.1,0-0.2,0-0.2c0.1,0,0.2,0,0.3,0C5.9,8.9,5.8,9,5.7,9z"/>
<path class="st6" d="M16.8,8.7c0.1,0,0.1,0,0.2,0C17,8.8,16.9,8.9,16.9,9C16.9,8.9,16.9,8.8,16.8,8.7z"/>
<path class="st5" d="M3.6,9.4c0,0.1,0,0.1,0,0.2c-0.1,0-0.2,0.1-0.3,0.1c0-0.1,0-0.2,0-0.2C3.4,9.4,3.5,9.4,3.6,9.4z"/>
<path class="st4" d="M5.9,9.3c-0.1,0-0.2,0-0.3-0.1C5.7,9.2,5.8,9.2,5.9,9.3z"/>
<path class="st7" d="M17.2,19.8C17.2,19.8,17.1,19.8,17.2,19.8C17.1,19.8,17.1,19.7,17.2,19.8C17.1,19.7,17.2,19.7,17.2,19.8
	L17.2,19.8z"/>
<path class="st4" d="M12.6,9.3c0,0,0-0.1,0-0.1C12.6,9.2,12.6,9.2,12.6,9.3z"/>
<path class="st5" d="M12.3,12.2C12.3,12.2,12.2,12.2,12.3,12.2C12.2,12.2,12.3,12.2,12.3,12.2z"/>
</svg>
