<svg width="18" height="24" viewBox="0 0 18 24" fill="none" xmlns="http://www.w3.org/2000/svg">
<path d="M17.6671 4.22267L13.4847 0.287556C13.4103 0.219031 13.3263 0.161776 13.2354 0.117615V4.23538H17.6782C17.6748 4.2309 17.671 4.22666 17.6671 4.22267Z" fill="#ffffff" fill-opacity="0.7"/>
<path d="M13.2353 5.61576C12.9545 5.61576 12.6852 5.49743 12.4866 5.2868C12.288 5.07617 12.1765 4.79049 12.1765 4.49261V0H1.05882C0.778006 0 0.50869 0.118332 0.310122 0.328964C0.111554 0.539596 0 0.825274 0 1.12315V22.4631C0 22.7609 0.111554 23.0466 0.310122 23.2572C0.50869 23.4679 0.778006 23.5862 1.05882 23.5862H16.9412C17.222 23.5862 17.4913 23.4679 17.6899 23.2572C17.8884 23.0466 18 22.7609 18 22.4631V5.61576H13.2353ZM3.70588 5.05419H8.47059C8.611 5.05419 8.74566 5.11335 8.84494 5.21867C8.94422 5.32399 9 5.46682 9 5.61576C9 5.7647 8.94422 5.90754 8.84494 6.01286C8.74566 6.11817 8.611 6.17734 8.47059 6.17734H3.70588C3.56547 6.17734 3.43082 6.11817 3.33153 6.01286C3.23225 5.90754 3.17647 5.7647 3.17647 5.61576C3.17647 5.46682 3.23225 5.32399 3.33153 5.21867C3.43082 5.11335 3.56547 5.05419 3.70588 5.05419ZM14.2941 19.6552H3.70588C3.56547 19.6552 3.43082 19.596 3.33153 19.4907C3.23225 19.3854 3.17647 19.2425 3.17647 19.0936C3.17647 18.9447 3.23225 18.8018 3.33153 18.6965C3.43082 18.5912 3.56547 18.532 3.70588 18.532H14.2941C14.4345 18.532 14.5692 18.5912 14.6685 18.6965C14.7678 18.8018 14.8235 18.9447 14.8235 19.0936C14.8235 19.2425 14.7678 19.3854 14.6685 19.4907C14.5692 19.596 14.4345 19.6552 14.2941 19.6552ZM14.2941 16.2857H3.70588C3.56547 16.2857 3.43082 16.2265 3.33153 16.1212C3.23225 16.0159 3.17647 15.8731 3.17647 15.7241C3.17647 15.5752 3.23225 15.4324 3.33153 15.327C3.43082 15.2217 3.56547 15.1626 3.70588 15.1626H14.2941C14.4345 15.1626 14.5692 15.2217 14.6685 15.327C14.7678 15.4324 14.8235 15.5752 14.8235 15.7241C14.8235 15.8731 14.7678 16.0159 14.6685 16.1212C14.5692 16.2265 14.4345 16.2857 14.2941 16.2857ZM14.2941 12.9163H3.70588C3.56547 12.9163 3.43082 12.8571 3.33153 12.7518C3.23225 12.6465 3.17647 12.5036 3.17647 12.3547C3.17647 12.2057 3.23225 12.0629 3.33153 11.9576C3.43082 11.8523 3.56547 11.7931 3.70588 11.7931H14.2941C14.4345 11.7931 14.5692 11.8523 14.6685 11.9576C14.7678 12.0629 14.8235 12.2057 14.8235 12.3547C14.8235 12.5036 14.7678 12.6465 14.6685 12.7518C14.5692 12.8571 14.4345 12.9163 14.2941 12.9163ZM14.2941 9.5468H3.70588C3.56547 9.5468 3.43082 9.48763 3.33153 9.38232C3.23225 9.277 3.17647 9.13416 3.17647 8.98522C3.17647 8.83628 3.23225 8.69344 3.33153 8.58813C3.43082 8.48281 3.56547 8.42365 3.70588 8.42365H14.2941C14.4345 8.42365 14.5692 8.48281 14.6685 8.58813C14.7678 8.69344 14.8235 8.83628 14.8235 8.98522C14.8235 9.13416 14.7678 9.277 14.6685 9.38232C14.5692 9.48763 14.4345 9.5468 14.2941 9.5468Z" fill="#ffffff" fill-opacity="0.7"/>
</svg>
