<svg width="27" height="27" viewBox="0 0 27 27" fill="none" xmlns="http://www.w3.org/2000/svg">
<path d="M12.1035 4.65517H14.4311V6.51724L16.5903 4.65517H19.5518C20.0662 4.65517 20.4828 4.23853 20.4828 3.72414V0.931035C20.4828 0.416647 20.0662 0 19.5518 0H12.1035C11.5891 0 11.1725 0.416647 11.1725 0.931035V3.72414C11.1725 4.23853 11.5891 4.65517 12.1035 4.65517ZM18.6208 1.86207H19.5518V2.7931H18.6208V1.86207ZM13.9656 1.86207H17.6897V2.7931H13.9656V1.86207ZM12.1035 1.86207H13.0346V2.7931H12.1035V1.86207Z" fill="#ffffff" fill-opacity="0.7"/>
<path d="M17.2241 23.2758V27H19.9684L19.596 23.2758H17.2241Z" fill="#ffffff" fill-opacity="0.7"/>
<path d="M17.2241 21.4139V22.3449H21.8793C23.1626 22.3449 24.2069 21.3007 24.2069 20.0173V14.8966H23.2758V19.0863C23.2758 20.3696 22.2316 21.4139 20.9483 21.4139H17.2241Z" fill="#ffffff" fill-opacity="0.7"/>
<path d="M4.18966 20.4827H5.58621V21.4138H4.18966V26.0689H0V27H5.29844L6.22948 25.1379H14.2533L15.1843 27H16.2931V21.4138H6.51724V20.4827H16.2931V19.5517H4.18966V20.4827Z" fill="#ffffff" fill-opacity="0.7"/>
<path d="M21.4138 13.0908C21.4138 12.803 21.1797 12.5689 20.8919 12.5689C20.7546 12.5689 20.6201 12.6244 20.5228 12.7217L17.4169 15.8275H13.0345C12.7776 15.8275 12.569 16.0362 12.569 16.293C12.569 16.5499 12.7776 16.7586 13.0345 16.7586H17.9624L21.261 13.4599C21.3583 13.3627 21.4138 13.2281 21.4138 13.0908Z" fill="#ffffff" fill-opacity="0.7"/>
<path d="M18.6207 8.84486V9.77589C18.6207 10.8028 19.4558 11.638 20.4828 11.638C21.5098 11.638 22.3449 10.8028 22.3449 9.77589V8.84486C22.3449 7.8179 21.5098 6.98279 20.4828 6.98279C19.4558 6.98279 18.6207 7.8179 18.6207 8.84486Z" fill="#ffffff" fill-opacity="0.7"/>
<path d="M17.2241 20.4827H20.9483C21.7181 20.4827 22.3448 19.8561 22.3448 19.0862V13.3222C22.3448 13.2886 22.3355 13.2575 22.3314 13.2254C22.2996 13.56 22.1577 13.8798 21.9193 14.1183L18.6207 17.4169V19.5517H17.2241V20.4827Z" fill="#ffffff" fill-opacity="0.7"/>
<path d="M6.80499 26.0689L6.33948 26.9999H14.1433L13.6777 26.0689H6.80499Z" fill="#ffffff" fill-opacity="0.7"/>
<path d="M3.25867 17.6897H17.6897V18.6207H3.25867V17.6897Z" fill="#ffffff" fill-opacity="0.7"/>
<path d="M11.638 16.293C11.638 15.5231 12.2646 14.8965 13.0345 14.8965H13.4796C13.4298 14.5357 13.1811 14.2257 12.8245 14.1236L10.9067 13.5758C10.6372 13.9277 10.1116 14.4309 9.31038 14.4309C8.50914 14.4309 7.98361 13.9277 7.71358 13.5754L5.79582 14.1232C5.39872 14.2373 5.12073 14.6051 5.12073 15.019V16.7585H11.7237C11.6714 16.6124 11.638 16.4569 11.638 16.293Z" fill="#ffffff" fill-opacity="0.7"/>
<path d="M9.31031 11.638C10.3373 11.638 11.1724 10.8028 11.1724 9.77589V8.84486C11.1724 7.8179 10.3373 6.98279 9.31031 6.98279C8.28335 6.98279 7.44824 7.8179 7.44824 8.84486V9.77589C7.44824 10.8028 8.28335 11.638 9.31031 11.638Z" fill="#ffffff" fill-opacity="0.7"/>
<path d="M8.37927 12.406V12.906C8.49474 13.0842 8.81547 13.5 9.31031 13.5C9.80515 13.5 10.1259 13.0842 10.2413 12.906V12.406C9.94948 12.5094 9.63717 12.569 9.31031 12.569C8.98344 12.569 8.67113 12.5094 8.37927 12.406Z" fill="#ffffff" fill-opacity="0.7"/>
<path d="M21.7372 26.069L21.4581 23.2758H20.5316L20.9039 27H27V26.069H21.7372Z" fill="#ffffff" fill-opacity="0.7"/>
</svg>
