<svg width="23" height="17" viewBox="0 0 23 17" fill="none" xmlns="http://www.w3.org/2000/svg">
<path d="M3.40371 0.000244141C3.40311 0.000244141 3.40244 0.000244141 3.40184 0.000244141C3.19139 0.000244141 2.99344 0.0822832 2.84397 0.231377C2.69286 0.382119 2.60962 0.582834 2.60962 0.79651V12.7364C2.60962 13.1742 2.96722 13.5313 3.40686 13.5324C5.26027 13.5368 8.36547 13.9231 10.5076 16.1649V3.66945C10.5076 3.52103 10.4697 3.3816 10.3982 3.26622C8.63998 0.434789 5.26132 0.00458959 3.40371 0.000244141Z" fill="#ffffff" fill-opacity="0.7"/>
<path d="M19.6419 12.7362V0.796266C19.6419 0.58259 19.5587 0.381875 19.4076 0.231133C19.2581 0.082039 19.06 0 18.8498 0C18.8491 0 18.8485 0 18.8479 0C16.9903 0.00442037 13.6117 0.43462 11.8534 3.26606C11.7819 3.38143 11.744 3.52086 11.744 3.66928V16.1646C13.8862 13.9229 16.9914 13.5366 18.8448 13.5322C19.2843 13.5311 19.6419 13.174 19.6419 12.7362Z" fill="#ffffff" fill-opacity="0.7"/>
<path d="M21.4555 2.75366H20.8781V12.7363C20.8781 13.8542 19.9673 14.7658 18.8477 14.7685C17.2756 14.7723 14.6835 15.0797 12.8477 16.8172C16.0227 16.0398 19.3697 16.5451 21.2772 16.9798C21.5154 17.0341 21.7615 16.978 21.9524 16.826C22.1425 16.6742 22.2516 16.4475 22.2516 16.204V3.54978C22.2517 3.11081 21.8944 2.75366 21.4555 2.75366Z" fill="#ffffff" fill-opacity="0.7"/>
<path d="M1.37346 12.7363V2.75366H0.796117C0.357226 2.75366 0 3.11081 0 3.54978V16.2038C0 16.4473 0.109086 16.674 0.299237 16.8257C0.489912 16.9777 0.735805 17.034 0.974355 16.9796C2.88186 16.5448 6.22898 16.0396 9.40386 16.817C7.56813 15.0795 4.97599 14.7722 3.40391 14.7685C2.28436 14.7658 1.37346 13.8542 1.37346 12.7363Z" fill="#ffffff" fill-opacity="0.7"/>
</svg>
