<?xml version="1.0" encoding="utf-8"?>
<!-- Generator: Adobe Illustrator 25.2.1, SVG Export Plug-In . SVG Version: 6.00 Build 0)  -->
<svg version="1.1" id="Layer_1" xmlns="http://www.w3.org/2000/svg" xmlns:xlink="http://www.w3.org/1999/xlink" x="0px" y="0px"
	 viewBox="0 0 576 512" style="enable-background:new 0 0 576 512;" xml:space="preserve">
<style type="text/css">
	.st0{fill:#1E3050;}
	.st1{fill:#FEFEFE;}
</style>
<path class="st0" d="M208,451.2c-32.7-10.1-60.4,9.1-85.7,38.9c-22.2,26-23.4,24.2-47.9,0.4c-8.5-8.3-7.3-12.7,0.6-20
	c16.4-20.6,51-37.9,53.3-65.3c3.4-25.2-9.4-91.9,8.6-106.2c80.7-52.3,4-117.7,67.3-163.2c18-16.6,34.8-32.5,41.4-57.9
	c16.2-57.2,82.6-83.2,135.4-55c7.7,4.1,13,5.3,21.1-0.2C446.1-7.1,503.7-1.8,540.8,34.5c39.1,38.3,46.6,95.4,17.4,140.7
	c-5.8,9.1-6.5,15.2-1.4,25c29.9,58.1-4.1,126-68.5,137.4c-7,1.2-11.8,4.6-16.4,9.3c-22.8,17-40.2,54.3-69.8,56.7
	c-24.1,3.1-75.5-9.3-91.1,8.5C275.9,455.3,266.6,455.6,208,451.2z"/>
<path class="st0" d="M72.4,412.8c2.3-113.2,2.3-55.5-51.7-130.5c-11.8-22.9,6.6-56.7-7.6-80.1C-14.5,159,3.2,105.8,51.4,88.4
	c9.1-3.3,12.9-7.5,15.3-17.1C80.2,4.8,169.4-19.3,216,29.3c6.9,6.4,7,12.2,4.8,22c-8.1,52.4-71.9,71.2-77.5,112.2
	c0.7,22.9-0.1,45.9,0.4,68.8c-1.5,39.1-61.1,32.9-47.7,117.7C97.7,375.4,99.1,398.3,72.4,412.8z"/>
<path class="st1" d="M213.6,401.3c39.2-47.6,89.1-89,131.6-134.9c6.6-6.6,13.3-9.1,22.4-9c27.9,0.5,55.9-0.2,83.8,0.4
	c10,0.2,12.6-3,12.7-12.7c5.6-47.7-22.9-31.7-57.4-34.4c-2.2-6.1,2.6-7.9,5.1-10.4c22.8-23.1,45.5-46.2,68.8-68.7
	c7.1-6.8,8.7-10.7,0.7-18.6c-25.2-24.4-24.8-24.9-49.5-0.2c-33.5,33.5-67,67.1-100.6,100.5c-2.9,2.9-5.2,8.9-10.4,6.2
	c-4.5-2.4-0.6-9.4-2-13c-2.2-5.7-3.9-11.7-2.6-17.7c4.7-22.5,4.5-25.7-5.5-26.3c-38.4-2.5-38.3-2.6-38.4,35.5
	c-0.1,24.4,6.3,51.6-2.5,72.5c-22.4,37.6-62.9,62.4-92.9,97.9c-16.1-78.4,61.1-53.8,46.9-136.7c-10.7-46,19-73.3,50.7-100.7
	c8.8-7.5,12.8-16.1,13.4-28.3c1.9-36.9,42.2-56.9,73.9-37.7c30.6,28.1,34.9,25.3,63.8-2.5c25.6-19.3,61.7-16.2,84.5,6.9
	c22.5,22.8,24.5,59.8,4.6,84.7c-26.3,26.8-30.1,31.8-3,60.1c20.6,31.7,4.2,71-33.6,75.6c-15.9,2-26.3,8.7-36.5,19.5
	c-31.2,41.3-55.1,55-107.3,44.5C275.9,343.2,273.5,420.5,213.6,401.3z"/>
</svg>
