<?xml version="1.0" encoding="utf-8"?>
<!-- Generator: Adobe Illustrator 25.2.1, SVG Export Plug-In . SVG Version: 6.00 Build 0)  -->
<svg version="1.1" id="Layer_1" xmlns="http://www.w3.org/2000/svg" xmlns:xlink="http://www.w3.org/1999/xlink" x="0px" y="0px"
	 viewBox="0 0 576 512" style="enable-background:new 0 0 576 512;" xml:space="preserve">
<style type="text/css">
	.st0{fill:#1E3050;}
	.st1{fill:#FEFEFE;}
</style>
<path class="st0" d="M188.8,512C82.9,512.5,0.9,433.3,0,329.6C-1.5,162.2,154.6,0.4,318,0c86.9-0.2,194.3,106.8,195.2,194.6
	C515,354.2,354.5,511.2,188.8,512z"/>
<path class="st1" d="M177.1,459.2C109.2,453,58.7,413.8,55,333.1C48.7,194.2,179.2,57.3,316,54.5c57.9-1.2,141.2,80.5,142.5,139.7
	C461.2,323.6,326.1,455.6,177.1,459.2z"/>
<path class="st0" d="M323.6,92.2c49.6,12.2,88.9,44.8,96.7,106.2c3.1,24.2-12.6,41.2-37.3,37.9c-61.9-8-98.4-45.4-106.6-106.8
	C273,105.4,289.4,92.1,323.6,92.2z"/>
</svg>
