<?xml version="1.0" encoding="utf-8"?>
<!-- Generator: Adobe Illustrator 25.2.1, SVG Export Plug-In . SVG Version: 6.00 Build 0)  -->
<svg version="1.1" id="Layer_1" xmlns="http://www.w3.org/2000/svg" xmlns:xlink="http://www.w3.org/1999/xlink" x="0px" y="0px"
	 viewBox="0 0 576 512" style="enable-background:new 0 0 576 512;" xml:space="preserve">
<style type="text/css">
	.st0{fill:#FFFFFF;}
</style>
<path d="M362,494.2c-44.8-6.2-62.5,35.1-107.8,6.8c-20-11.9-43.6-4.8-65.5-6.8c-38.3,1-64.4-30.7-64.2-67.5
	c-0.7-8.1-3-13.2-9.4-17.9c-73.3-50.2-161.9-110-89.2-204.5c3.5-4,4.3-7.8,3.7-12.9c-6.2-50.5,29.2-101.2,79.4-111.5
	c2.9-0.7,6.1-3.4,7.6-6.1c22.3-40.4,60.6-60.5,106.5-55.6c40.4-18.4,78.5-28.1,119.1-2.5c47.4,2.1,88.9,8.9,113.8,55.6
	c3,5.7,6.8,8.2,12.9,9.7c48.9,12.1,81.8,60.9,75.8,111.2c69.8,116.5,6.3,149.9-85.1,216.2c-7.1,5.1-10,10.3-9.8,19.2
	C453.5,476.7,404.9,498.8,362,494.2C362,494.2,362,494.2,362,494.2z M551,268.9c-0.2-19.6-12.6-45.4-34.7-25.3
	c-49.4,45.8-90.3,104.6-142,145.8c-0.1-10.2,7.9-18,12.7-26.4c38.4-56.5,77-112.9,115.5-169.4c19.3-20.7,16.1-50.4-4.1-69
	c-33.5-29.4-46.3,22.2-57.1,45.4c-7.2,8-106.9,249.9-103.9,191.3c24.3-88,54.6-174.3,80.5-261.9c7.8-25.7-2.4-44.5-28.1-52.6
	c-13.9-4.4-25.4,2.1-28.3,16.4c-16.1,78.4-28.8,157.4-43,236.2c-2.8,16.1-4.8,32.3-7.3,48.4c-0.6,3.7-1.5,8.6-6.5,7
	c-8.6-6.1-3.2-19.8-3.1-28.7c7.5-91.3,14.7-182.6,22.8-273.8c3.3-29.9-33.6-25.9-53.4-24.5c-16.3,2.2-21.7,10.2-20.7,26.6
	c6.7,97.4,12.7,194.9,17.8,292.4c0.1,2.5-2.6,5.2-4,7.7c-10.7-6.2-14.4-57.1-18.3-72.1c-11.1-73.7-20.9-147.6-33.4-221
	c-7.8-31.4-53.8-10.6-56.7,13.4c-2.7,34.7,17.6,67.1,25.5,100.3c19.1,61.8,38.6,123.6,55.8,186c1.7,8.9-6.7,15.3-10.9,4.6
	c-38.7-77.1-74-156-109.7-234.6c-21.2-38.4-62.2,6.3-57.3,35.7c1.5,11.9,8,20.5,14.6,29.8c23,32.7,45.4,65.7,67.7,98.8
	c19.4,28.7,38.6,57.5,57.6,86.4c1.3,1.9,0.6,5.1,0.9,7.8c-10.6-2.9-16.2-13.3-23.8-20.5c-38.8-42.8-78.3-85-118.7-126.3
	c-47-31.5-38.6,69-10.1,84.2c69.8,55.8,143.3,108.1,221.1,152.2c32.4,28.9,174-91.6,209.3-114.4C510.5,338.6,553.2,318.7,551,268.9z
	 M149.9,434c-1.4,18.2,25.7,39.9,46.5,33.4C181.1,456.4,166,445.5,149.9,434z M424.7,433.9c-16.4,11.8-31.4,22.5-46.8,33.6
	C399.6,472.1,423.2,456,424.7,433.9z"/>
<path class="st0" d="M551,268.9c2.1,49.7-40.5,69.7-73.5,96c-34.8,22.5-177.2,143.4-209.2,114.4C190.4,435.2,117,382.9,47.1,327.1
	c-28.6-15.4-36.9-115.7,10.1-84.3c40.4,41.3,79.9,83.5,118.7,126.3c7.7,7.2,13.2,17.6,23.8,20.5c-0.3-2.6,0.4-5.8-0.9-7.8
	c-19-28.9-38.2-57.8-57.6-86.4c-22.4-33.1-44.8-66.2-67.7-98.8c-6.6-9.3-13.1-18-14.6-29.8c-4.9-29.4,36-74.2,57.3-35.7
	c31.8,71.6,65.5,142.3,98.6,213.3c4.1,5.4,11.8,31.6,19.4,26.1c2.1-1.4,3.3-6.6,2.6-9.4c-17.2-62.4-36.7-124.2-55.8-186
	c-7.9-33.2-28.2-65.6-25.5-100.3c2.9-23.9,49-44.9,56.7-13.4c17.1,95.3,25.9,192,45.9,286.8c0.5,2.4,3.8,4.2,5.8,6.3
	c8.9-9.2-0.5-56.3,0.4-72.4c-3.6-76-9.1-151.9-14.1-227.8c-1-16.4,4.4-24.5,20.7-26.6c19.8-1.5,56.7-5.3,53.4,24.5
	c-8.1,91.2-15.3,182.5-22.8,273.8c0,9-5.4,22.6,3.1,28.7c5,1.7,5.9-3.3,6.5-7c2.5-16.1,4.5-32.3,7.3-48.4
	c14.2-78.8,26.9-157.8,43-236.2c3-14.3,14.4-20.7,28.3-16.4c25.8,8.1,35.9,26.9,28.1,52.6c-25.8,87.6-56.1,173.9-80.5,261.9
	c-2.8,58.3,96.4-182.8,103.9-191.3c10.8-23.3,23.6-74.9,57.1-45.4c20.2,18.6,23.5,48.3,4.1,69C464,250.1,425.5,306.5,387,363
	c-4.8,8.5-12.8,16.2-12.7,26.4c51.7-41.2,92.6-99.9,142-145.8C538.3,223.6,550.9,249.3,551,268.9z"/>
<path class="st0" d="M149.9,434c16.1,11.5,31.1,22.4,46.5,33.4C175.7,473.9,148.5,452.1,149.9,434z"/>
<path class="st0" d="M424.7,433.9c-1.5,22.1-25,38.2-46.8,33.6C393.3,456.4,408.3,445.6,424.7,433.9z"/>
</svg>
