<?xml version="1.0" encoding="utf-8"?>
<!-- Generator: Adobe Illustrator 25.2.1, SVG Export Plug-In . SVG Version: 6.00 Build 0)  -->
<svg version="1.1" id="Layer_1" xmlns="http://www.w3.org/2000/svg" xmlns:xlink="http://www.w3.org/1999/xlink" x="0px" y="0px"
	 viewBox="0 0 576 512" style="enable-background:new 0 0 576 512;" xml:space="preserve">
<style type="text/css">
	.st0{fill:#1E3050;}
	.st1{fill:#FEFDFD;}
</style>
<path class="st0" d="M241.5,223.2c-66.1,0-132.3,0-198.4,0c-30.6,0-41.7-11.2-41.7-41.9C-0.6,58.1,116.2,65.6,207.1,69.1
	c19.8,0.9,28.3-45.9,43.5-60c8.1-11.5,20.7-12.6,32.7-3.9c23.7,16-0.2,42.6-7.8,62c99.1,2.6,219.9-14.7,207.6,129.5
	c-2.8,18.3-15.5,26.4-36.8,26.4C378,223.3,309.8,223.2,241.5,223.2z"/>
<path class="st0" d="M80.8,258.8c24,0,23,0.2,26.4,22.9c12.1,80.7,50.6,142.9,127.7,176.6c86.6-12.2,132.8-100.2,144.3-180.1
	c2.1-15.2,5.6-20.7,21.9-20c33.4,1.5,32.7,0.3,27.2,34.9c-13.8,98.3-79.5,188.9-176.1,218.8C145.7,499.8,79.7,403.7,59.3,304.3
	C55.8,277.5,42.6,254.5,80.8,258.8z"/>
<path class="st1" d="M243.2,172.8c-59.1,0-118.2-0.3-177.4,0.2c-12.3,0.1-14.7-3.2-11.1-14.8c7.4-23.8,24.6-37.6,51.5-37.8
	c90.8-0.3,181.7-0.2,272.5,0c27.7,0.2,46.3,14.7,52.5,38.7c2.7,10.4,1.1,14.1-10.7,14C361.4,172.5,302.3,172.8,243.2,172.8z"/>
</svg>
