<svg width="42" height="38" viewBox="0 0 42 38" fill="none" xmlns="http://www.w3.org/2000/svg">
<path d="M0.181633 35.834C-0.20832 36.5411 0.0503204 37.4298 0.759315 37.8189C1.46831 38.2079 2.35917 37.9499 2.74913 37.2425L0.181633 35.834ZM26.239 25.455C26.5761 24.7211 26.253 23.8537 25.5175 23.5174C24.7819 23.181 23.9124 23.5033 23.5752 24.237L26.239 25.455ZM11.7211 11.2051C11.7211 12.0122 12.3771 12.6666 13.1862 12.6666C13.9954 12.6666 14.6513 12.0122 14.6513 11.2051H11.7211ZM30.259 23.3845C29.4499 23.3845 28.7939 24.0388 28.7939 24.846C28.7939 25.6531 29.4499 26.3075 30.259 26.3075V23.3845ZM21.0001 7.79482C20.191 7.79482 19.535 8.44918 19.535 9.25635C19.535 10.0635 20.191 10.7179 21.0001 10.7179V7.79482ZM32.721 10.7179C33.5301 10.7179 34.1861 10.0635 34.1861 9.25635C34.1861 8.44918 33.5301 7.79482 32.721 7.79482V10.7179ZM15.6281 20.9486C15.6281 22.294 14.5348 23.3845 13.1862 23.3845V26.3075C16.1531 26.3075 18.5583 23.9083 18.5583 20.9486H15.6281ZM13.1862 23.3845C11.8376 23.3845 10.7444 22.294 10.7444 20.9486H7.81417C7.81417 23.9083 10.2193 26.3075 13.1862 26.3075V23.3845ZM10.7444 20.9486C10.7444 19.6032 11.8376 18.5127 13.1862 18.5127V15.5896C10.2193 15.5896 7.81417 17.9889 7.81417 20.9486H10.7444ZM13.1862 18.5127C14.5348 18.5127 15.6281 19.6032 15.6281 20.9486H18.5583C18.5583 17.9889 16.1531 15.5896 13.1862 15.5896V18.5127ZM2.74913 37.2425C3.45552 35.9614 6.66084 32.685 13.1862 32.685V29.762C5.6466 29.762 1.42871 33.5721 0.181633 35.834L2.74913 37.2425ZM13.1862 32.685C20.8679 32.685 25.0571 28.0274 26.239 25.455L23.5752 24.237C22.8036 25.9164 19.5696 29.762 13.1862 29.762V32.685ZM14.6513 11.2051V5.35894H11.7211V11.2051H14.6513ZM17.0932 2.92306H36.6279V0H17.0932V2.92306ZM39.0698 5.35894V20.9486H42V5.35894H39.0698ZM36.6279 23.3845H30.259V26.3075H36.6279V23.3845ZM39.0698 20.9486C39.0698 22.294 37.9766 23.3845 36.6279 23.3845V26.3075C39.5949 26.3075 42 23.9083 42 20.9486H39.0698ZM36.6279 2.92306C37.9766 2.92306 39.0698 4.01363 39.0698 5.35894H42C42 2.39929 39.5949 0 36.6279 0V2.92306ZM14.6513 5.35894C14.6513 4.01363 15.7446 2.92306 17.0932 2.92306V0C14.1263 0 11.7211 2.39929 11.7211 5.35894H14.6513ZM21.0001 10.7179H32.721V7.79482H21.0001V10.7179Z" fill="white"/>
<path d="M24.4186 17.5385L34.186 17.5385" stroke="white" stroke-width="3" stroke-linecap="round"/>
</svg>
